<?xml version="1.0" encoding="utf-8"?>
<!-- Generator: Adobe Illustrator 16.0.0, SVG Export Plug-In . SVG Version: 6.00 Build 0)  -->
<!DOCTYPE svg PUBLIC "-//W3C//DTD SVG 1.1//EN" "http://www.w3.org/Graphics/SVG/1.1/DTD/svg11.dtd">
<svg version="1.1" id="Layer_1" xmlns="http://www.w3.org/2000/svg" xmlns:xlink="http://www.w3.org/1999/xlink" x="0px" y="0px"
	 width="1350px" height="800px" viewBox="0 0 1350 800" enable-background="new 0 0 1350 800" xml:space="preserve">
<rect x="0.496" y="-5.999" fill="#F7FFDE" width="1362" height="712.999"/>
<rect x="-54.504" y="705" fill="#AFD87A" width="1420" height="194"/>
<g>
	<g>
		<g>
			<g>
				<rect x="878.757" y="277.251" fill="#C2B59B" width="57.4" height="51.408"/>
				<rect x="878.757" y="329.691" fill="#C2B59B" width="57.4" height="52.439"/>
				<rect x="878.757" y="383.156" fill="#C2B59B" width="57.4" height="52.438"/>
			</g>
			<g>
				<rect x="821.352" y="277.251" fill="#C2B59B" width="56.255" height="51.408"/>
				<rect x="821.352" y="329.691" fill="#C2B59B" width="56.255" height="52.439"/>
				<rect x="821.352" y="383.156" fill="#C2B59B" width="56.255" height="52.438"/>
			</g>
			<g>
				<rect x="761.656" y="277.251" fill="#C2B59B" width="57.398" height="51.408"/>
				<rect x="761.656" y="329.691" fill="#C2B59B" width="57.398" height="52.439"/>
				<rect x="761.656" y="383.156" fill="#C2B59B" width="57.398" height="52.438"/>
			</g>
			<g>
				<rect x="704.253" y="277.251" fill="#C2B59B" width="56.256" height="51.408"/>
				<rect x="704.253" y="329.691" fill="#C2B59B" width="56.256" height="52.439"/>
				<rect x="704.253" y="383.156" fill="#C2B59B" width="56.256" height="52.438"/>
			</g>
			<g>
				<rect x="644.553" y="277.251" fill="#C2B59B" width="57.4" height="51.408"/>
				<rect x="644.553" y="329.691" fill="#C2B59B" width="57.4" height="52.439"/>
				<rect x="644.553" y="383.156" fill="#C2B59B" width="57.4" height="52.438"/>
			</g>
			<g>
				<rect x="586.004" y="277.251" fill="#C2B59B" width="58.553" height="51.408"/>
				<rect x="586.004" y="329.691" fill="#C2B59B" width="58.553" height="52.439"/>
				<rect x="586.004" y="383.156" fill="#C2B59B" width="58.553" height="52.438"/>
			</g>
			<g>
				<rect x="526.306" y="277.251" fill="#C2B59B" width="58.549" height="51.408"/>
				<rect x="526.306" y="329.691" fill="#C2B59B" width="58.549" height="52.439"/>
				<rect x="526.306" y="383.156" fill="#C2B59B" width="58.549" height="52.438"/>
			</g>
			<g>
				<rect x="470.052" y="277.251" fill="#C2B59B" width="55.105" height="51.408"/>
				<rect x="470.052" y="329.691" fill="#C2B59B" width="55.105" height="52.439"/>
				<rect x="470.052" y="383.156" fill="#C2B59B" width="55.105" height="52.438"/>
			</g>
			<g>
				<rect x="410.352" y="277.251" fill="#C2B59B" width="57.402" height="51.408"/>
				<rect x="410.352" y="329.691" fill="#C2B59B" width="57.402" height="52.439"/>
				<rect x="410.352" y="383.156" fill="#C2B59B" width="57.402" height="52.438"/>
			</g>
			<g>
				<rect x="351.802" y="277.251" fill="#C2B59B" width="57.399" height="51.408"/>
				<rect x="351.802" y="329.691" fill="#C2B59B" width="57.399" height="52.439"/>
				<rect x="351.802" y="383.156" fill="#C2B59B" width="57.399" height="52.438"/>
			</g>
			<g>
				<rect x="292.103" y="277.251" fill="#C2B59B" width="58.55" height="51.408"/>
				<rect x="292.103" y="329.691" fill="#C2B59B" width="58.55" height="52.439"/>
				<rect x="292.103" y="383.156" fill="#C2B59B" width="58.55" height="52.438"/>
			</g>
			<g>
				<rect x="235.849" y="277.251" fill="#C2B59B" width="55.105" height="51.408"/>
				<rect x="235.849" y="329.691" fill="#C2B59B" width="55.105" height="52.439"/>
				<rect x="235.849" y="383.156" fill="#C2B59B" width="55.105" height="52.438"/>
			</g>
			<g>
				<rect x="176.15" y="277.251" fill="#C2B59B" width="58.55" height="51.408"/>
				<rect x="176.15" y="329.691" fill="#C2B59B" width="58.55" height="52.439"/>
				<rect x="176.15" y="383.156" fill="#C2B59B" width="58.55" height="52.438"/>
			</g>
			<g>
				<rect x="117.6" y="277.251" fill="#C2B59B" width="57.402" height="51.408"/>
				<rect x="117.6" y="329.691" fill="#C2B59B" width="57.402" height="52.439"/>
				<rect x="117.6" y="383.156" fill="#C2B59B" width="57.402" height="52.438"/>
			</g>
			<g>
				<rect x="60.198" y="277.251" fill="#C2B59B" width="56.256" height="51.408"/>
				<rect x="60.198" y="329.691" fill="#C2B59B" width="56.256" height="52.439"/>
				<rect x="60.198" y="383.156" fill="#C2B59B" width="56.256" height="52.438"/>
			</g>
			<g>
				<rect x="0.5" y="277.251" fill="#C2B59B" width="58.553" height="51.408"/>
				<rect x="0.5" y="329.691" fill="#C2B59B" width="58.553" height="52.439"/>
				<rect x="0.5" y="383.156" fill="#C2B59B" width="58.553" height="52.438"/>
			</g>
		</g>
	</g>
	<g>
		<g>
			<g>
				<rect x="878.757" y="436.626" fill="#C2B59B" width="57.4" height="53.468"/>
				<rect x="878.757" y="491.118" fill="#C2B59B" width="57.4" height="52.439"/>
				<rect x="878.757" y="544.589" fill="#C2B59B" width="57.4" height="51.411"/>
			</g>
			<g>
				<rect x="821.352" y="436.626" fill="#C2B59B" width="56.255" height="53.468"/>
				<rect x="821.352" y="491.118" fill="#C2B59B" width="56.255" height="52.439"/>
				<rect x="821.352" y="544.589" fill="#C2B59B" width="56.255" height="51.411"/>
			</g>
			<g>
				<rect x="761.656" y="436.626" fill="#C2B59B" width="57.398" height="53.468"/>
				<rect x="761.656" y="491.118" fill="#C2B59B" width="57.398" height="52.439"/>
				<rect x="761.656" y="544.589" fill="#C2B59B" width="57.398" height="51.411"/>
			</g>
			<g>
				<rect x="704.253" y="436.626" fill="#C2B59B" width="56.256" height="53.468"/>
				<rect x="704.253" y="491.118" fill="#C2B59B" width="56.256" height="52.439"/>
				<rect x="704.253" y="544.589" fill="#C2B59B" width="56.256" height="51.411"/>
			</g>
			<g>
				<rect x="644.553" y="436.626" fill="#C2B59B" width="57.4" height="53.468"/>
				<rect x="644.553" y="491.118" fill="#C2B59B" width="57.4" height="52.439"/>
				<rect x="644.553" y="544.589" fill="#C2B59B" width="57.4" height="51.411"/>
			</g>
			<g>
				<rect x="586.004" y="436.626" fill="#C2B59B" width="58.553" height="53.468"/>
				<rect x="586.004" y="491.118" fill="#C2B59B" width="58.553" height="52.439"/>
				<rect x="586.004" y="544.589" fill="#C2B59B" width="58.553" height="51.411"/>
			</g>
			<g>
				<rect x="526.306" y="436.626" fill="#C2B59B" width="58.549" height="53.468"/>
				<rect x="526.306" y="491.118" fill="#C2B59B" width="58.549" height="52.439"/>
				<rect x="526.306" y="544.589" fill="#C2B59B" width="58.549" height="51.411"/>
			</g>
			<g>
				<rect x="470.052" y="436.626" fill="#C2B59B" width="55.105" height="53.468"/>
				<rect x="470.052" y="491.118" fill="#C2B59B" width="55.105" height="52.439"/>
				<rect x="470.052" y="544.589" fill="#C2B59B" width="55.105" height="51.411"/>
			</g>
			<g>
				<rect x="410.352" y="436.626" fill="#C2B59B" width="57.402" height="53.468"/>
				<rect x="410.352" y="491.118" fill="#C2B59B" width="57.402" height="52.439"/>
				<rect x="410.352" y="544.589" fill="#C2B59B" width="57.402" height="51.411"/>
			</g>
			<g>
				<rect x="351.802" y="436.626" fill="#C2B59B" width="57.399" height="53.468"/>
				<rect x="351.802" y="491.118" fill="#C2B59B" width="57.399" height="52.439"/>
				<rect x="351.802" y="544.589" fill="#C2B59B" width="57.399" height="51.411"/>
			</g>
			<g>
				<rect x="292.103" y="436.626" fill="#C2B59B" width="58.55" height="53.468"/>
				<rect x="292.103" y="491.118" fill="#C2B59B" width="58.55" height="52.439"/>
				<rect x="292.103" y="544.589" fill="#C2B59B" width="58.55" height="51.411"/>
			</g>
			<g>
				<rect x="235.849" y="436.626" fill="#C2B59B" width="55.105" height="53.468"/>
				<rect x="235.849" y="491.118" fill="#C2B59B" width="55.105" height="52.439"/>
				<rect x="235.849" y="544.589" fill="#C2B59B" width="55.105" height="51.411"/>
			</g>
			<g>
				<rect x="176.15" y="436.626" fill="#C2B59B" width="58.55" height="53.468"/>
				<rect x="176.15" y="491.118" fill="#C2B59B" width="58.55" height="52.439"/>
				<rect x="176.15" y="544.589" fill="#C2B59B" width="58.55" height="51.411"/>
			</g>
			<g>
				<rect x="117.6" y="436.626" fill="#C2B59B" width="57.402" height="53.468"/>
				<rect x="117.6" y="491.118" fill="#C2B59B" width="57.402" height="52.439"/>
				<rect x="117.6" y="544.589" fill="#C2B59B" width="57.402" height="51.411"/>
			</g>
			<g>
				<rect x="60.198" y="436.626" fill="#C2B59B" width="56.256" height="53.468"/>
				<rect x="60.198" y="491.118" fill="#C2B59B" width="56.256" height="52.439"/>
				<rect x="60.198" y="544.589" fill="#C2B59B" width="56.256" height="51.411"/>
			</g>
			<g>
				<rect x="0.5" y="436.626" fill="#C2B59B" width="58.553" height="53.468"/>
				<rect x="0.5" y="491.118" fill="#C2B59B" width="58.553" height="52.439"/>
				<rect x="0.5" y="544.589" fill="#C2B59B" width="58.553" height="51.411"/>
			</g>
		</g>
	</g>
</g>
<g>
	<g>
		<rect x="-2.422" y="478.586" fill="#F7DB85" width="168.649" height="246.414"/>
		<rect x="530.705" y="478.586" fill="#F7DB85" width="155.233" height="246.414"/>
		<path fill="#3E2B15" d="M146.277,493.28c0,1.483-1.155,2.688-2.579,2.688h-33.307c-1.424,0-2.58-1.202-2.58-2.688l0,0
			c0-1.48,1.155-2.688,2.58-2.688h33.308C145.121,490.594,146.277,491.797,146.277,493.28L146.277,493.28z"/>
		<path fill="#3E2B15" d="M576.654,493.28c0,1.483-1.157,2.688-2.578,2.688h-33.309c-1.42,0-2.579-1.202-2.579-2.688l0,0
			c0-1.48,1.157-2.688,2.579-2.688h33.31C575.498,490.594,576.654,491.797,576.654,493.28L576.654,493.28z"/>
		<rect x="376.88" y="478.586" fill="#F7DB85" width="155.236" height="246.414"/>
		<path fill="#3E2B15" d="M521.604,493.28c0,1.483-1.158,2.688-2.579,2.688h-33.311c-1.422,0-2.577-1.202-2.577-2.688l0,0
			c0-1.48,1.153-2.688,2.577-2.688h33.311C520.447,490.594,521.604,491.797,521.604,493.28L521.604,493.28z"/>
		<rect x="-2.422" y="461.863" fill="#3E2B15" width="938.579" height="16.726"/>
		<rect x="685.777" y="478.586" fill="#F7DB85" width="250.379" height="246.414"/>
		<rect x="685.777" y="506.252" fill="#3E2B15" width="250.379" height="4.112"/>
		<path fill="#3E2B15" d="M830.197,493.28c0,1.483-1.153,2.688-2.579,2.688h-33.304c-1.422,0-2.58-1.202-2.58-2.688l0,0
			c0-1.48,1.154-2.688,2.58-2.688h33.306C829.044,490.594,830.197,491.797,830.197,493.28L830.197,493.28z"/>
		<path fill="#3E2B15" d="M748.196,538.141c0,1.484-1.155,2.688-2.58,2.688H712.31c-1.42,0-2.579-1.199-2.579-2.688l0,0
			c0-1.481,1.155-2.688,2.579-2.688h33.308C747.043,535.449,748.196,536.656,748.196,538.141L748.196,538.141z"/>
		<rect x="376.881" y="478.586" fill="#3E2B15" width="7.382" height="246.414"/>
		<rect x="679.334" y="478.586" fill="#3E2B15" width="7.378" height="246.414"/>
		<rect x="171.142" y="478.586" fill="#F7DB85" width="206.572" height="246.414"/>
		<path fill="#3E2B15" d="M293.164,493.28c0,1.483-1.174,2.688-2.624,2.688h-33.892c-1.448,0-2.622-1.202-2.622-2.688l0,0
			c0-1.48,1.174-2.688,2.622-2.688h33.892C291.989,490.594,293.164,491.797,293.164,493.28L293.164,493.28z"/>
		<rect x="166.226" y="506.252" fill="#3E2B15" width="214.345" height="4.112"/>
		<rect x="165.152" y="478.586" fill="#3E2B15" width="7.381" height="246.414"/>
		<path fill="#3E2B15" d="M353.967,535.449c0,1.481-1.155,2.688-2.578,2.688H318.08c-1.421,0-2.58-1.204-2.58-2.688l0,0
			c0-1.48,1.157-2.688,2.58-2.688h33.309C352.81,532.766,353.967,533.969,353.967,535.449L353.967,535.449z"/>
	</g>
	<g>
		<rect x="492.509" y="453.844" fill="#9AA1A5" width="63.682" height="7.484"/>
		<g>
			<path fill="#9AA1A5" d="M528.263,450.891h-8.996v-40.438c0-12.301,10-22.312,22.296-22.312c12.292,0,22.293,10.011,22.293,22.312
				h-8.993c0-7.34-5.97-13.309-13.299-13.309c-7.334,0-13.301,5.971-13.301,13.309V450.891L528.263,450.891z"/>
		</g>
		<rect x="511.318" y="448.907" fill="#525A63" width="26.064" height="5.89"/>
	</g>
</g>
<g>
	<rect x="-1.999" y="46" fill="#3E2B15" width="937.497" height="14.877"/>
	<rect x="703.063" y="59.521" fill="#F7DB85" width="232.437" height="219.216"/>
	<rect x="469.895" y="59.521" fill="#F7DB85" width="232.438" height="219.216"/>
	<path fill="#3E2B15" d="M759.829,258.577c0,1.317-1.166,2.392-2.601,2.392h-33.61c-1.435,0-2.601-1.071-2.601-2.392l0,0
		c0-1.319,1.166-2.394,2.601-2.394h33.61C758.664,256.186,759.829,257.257,759.829,258.577L759.829,258.577z"/>
	<path fill="#3E2B15" d="M659.95,256.186c0,1.319-1.163,2.394-2.6,2.394h-33.61c-1.437,0-2.602-1.071-2.602-2.394l0,0
		c0-1.322,1.165-2.391,2.602-2.391h33.61C658.787,253.795,659.95,254.865,659.95,256.186L659.95,256.186z"/>
	<rect x="231.767" y="58.652" fill="#F7DB85" width="232.438" height="219.22"/>
	<rect x="-1.4" y="58.652" fill="#F7DB85" width="232.437" height="219.22"/>
	<path fill="#3E2B15" d="M288.533,257.708c0,1.317-1.163,2.39-2.6,2.39h-33.61c-1.437,0-2.6-1.069-2.6-2.39l0,0
		c0-1.321,1.162-2.395,2.6-2.395h33.61C287.371,255.317,288.533,256.387,288.533,257.708L288.533,257.708z"/>
	<path fill="#3E2B15" d="M188.655,255.317c0,1.32-1.164,2.395-2.601,2.395h-33.61c-1.437,0-2.603-1.071-2.603-2.395l0,0
		c0-1.316,1.166-2.391,2.603-2.391h33.61C187.49,252.926,188.655,253.998,188.655,255.317L188.655,255.317z"/>
	<rect x="462.256" y="59.034" fill="#3E2B15" width="7.444" height="219.215"/>
</g>
<g>
	<path fill="#F5F0E6" d="M230,366.847c0-2.047-1.873-3.847-3.687-3.847H45.477c-1.813,0-3.985,1.8-3.985,3.847v64.25
		c0,2.044,2.175,4.26,3.985,4.26h180.837c1.813,0,3.687-2.214,3.687-4.26L230,366.847L230,366.847z"/>
	<path fill="#FFFFFF" d="M223.335,372.514c0-1.587-1.184-2.853-2.873-2.853H51.945c-1.688,0-4.741,1.266-4.741,2.853v49.836
		c0,1.589,3.054,3.485,4.741,3.485h168.517c1.689,0,2.873-1.897,2.873-3.485V372.514L223.335,372.514z"/>
	<rect x="42.453" y="434.496" fill="#F5F0E6" width="187.146" height="27.809"/>
	<g>
		<g>
			<g>
				<g>
					<path fill="#616262" d="M122.696,429.986H75.103c-2.253,0-4.087-2.053-4.087-4.576v-8.104c0-2.521,1.833-4.571,4.087-4.571
						h47.593c2.253,0,4.086,2.048,4.086,4.571v8.104C126.782,427.934,124.949,429.986,122.696,429.986z M75.103,414.281
						c-1.49,0-2.699,1.354-2.699,3.021v8.104c0,1.667,1.209,3.021,2.699,3.021h47.593c1.488,0,2.699-1.354,2.699-3.021v-8.104
						c0-1.666-1.21-3.021-2.699-3.021H75.103z"/>
				</g>
				<g>
					<path fill="#4B4946" d="M121.863,422.969c0,2.344-1.699,4.243-3.793,4.243H79.728c-2.098,0-3.791-1.898-3.791-4.243v-0.396
						c0-2.342,1.694-4.243,3.791-4.243h38.342c2.094,0,3.793,1.901,3.793,4.243V422.969L121.863,422.969z"/>
				</g>
			</g>
			<g>
				<g>
					<path fill="#616262" d="M195.217,429.986h-47.592c-2.254,0-4.087-2.053-4.087-4.576v-8.104c0-2.521,1.833-4.571,4.087-4.571
						h47.592c2.255,0,4.089,2.048,4.089,4.571v8.104C199.303,427.934,197.47,429.986,195.217,429.986z M147.625,414.281
						c-1.49,0-2.701,1.354-2.701,3.021v8.104c0,1.667,1.211,3.021,2.701,3.021h47.592c1.489,0,2.699-1.354,2.699-3.021v-8.104
						c0-1.666-1.209-3.021-2.699-3.021H147.625z"/>
				</g>
				<g>
					<path fill="#4B4946" d="M194.384,422.969c0,2.344-1.694,4.243-3.793,4.243H152.25c-2.095,0-3.793-1.898-3.793-4.243v-0.396
						c0-2.342,1.698-4.243,3.793-4.243h38.342c2.099,0,3.793,1.901,3.793,4.243L194.384,422.969L194.384,422.969z"/>
				</g>
			</g>
		</g>
		<g>
			<path fill="#7E7E7E" d="M215.717,437.964c0,2.569-1.86,4.652-4.159,4.652H58.765c-2.303,0-4.163-2.083-4.163-4.652v-10.396
				c0-2.572,1.86-4.659,4.163-4.659h152.791c2.298,0,4.159,2.086,4.159,4.659L215.717,437.964L215.717,437.964z"/>
		</g>
	</g>
	<rect x="42.453" y="432.063" fill="#B4B4B4" width="187.146" height="9.614"/>
	<rect x="41.879" y="432.063" opacity="0.1" fill="#FFFFFF" enable-background="new    " width="187.721" height="4.808"/>
	<g>
		<rect x="61.599" y="431.521" fill="#4B4946" width="147.123" height="24.878"/>
	</g>
	<g>
		<path fill="#7E7E7E" d="M96.646,448.849c-3.074,1.615-6.738,0.139-8.184-3.305c-1.441-3.438-0.125-7.537,2.95-9.15
			c3.074-1.616,6.738-0.139,8.186,3.302C101.041,443.133,99.72,447.231,96.646,448.849z"/>
		<path fill="#373636" d="M88.542,446.983c-0.576,0.302-1.262,0.025-1.527-0.616l0,0c-0.271-0.646-0.024-1.41,0.55-1.715
			l11.747-6.17c0.572-0.304,1.26-0.026,1.527,0.615l0,0c0.271,0.646,0.021,1.409-0.553,1.712L88.542,446.983z"/>
	</g>
	<g>
		<path fill="#7E7E7E" d="M176.425,448.849c-3.071,1.615-6.734,0.139-8.181-3.305c-1.444-3.438-0.124-7.537,2.952-9.15
			c3.074-1.616,6.737-0.139,8.182,3.302C180.819,443.133,179.499,447.231,176.425,448.849z"/>
		<path fill="#373636" d="M168.32,446.983c-0.576,0.302-1.261,0.025-1.53-0.616l0,0c-0.271-0.646-0.021-1.41,0.55-1.715l11.748-6.17
			c0.575-0.304,1.262-0.026,1.53,0.615l0,0c0.271,0.646,0.022,1.409-0.553,1.712L168.32,446.983z"/>
	</g>
	<rect x="54.602" y="427.566" fill="#6A655D" width="161.113" height="3.952"/>
</g>
<g>
	<g>
		<g>
			<path fill="#243A4C" d="M184.682,344.188v1.854c-0.588-0.073-1.181-0.144-1.771-0.202c-0.449-0.053-0.896-0.096-1.344-0.139
				c-0.285-0.027-0.566-0.055-0.848-0.077c-0.099-0.006-0.189-0.017-0.281-0.021c-0.337-0.026-0.676-0.053-1.014-0.072
				c-0.442-0.028-0.884-0.063-1.321-0.08c-0.184-0.016-0.365-0.021-0.543-0.026c-0.356-0.02-0.709-0.033-1.064-0.047
				c-0.443-0.016-0.891-0.026-1.335-0.033c-0.436-0.012-0.874-0.016-1.309-0.016h-0.016c-0.436,0-0.873,0.003-1.315,0.016
				c-0.44,0.007-0.89,0.021-1.335,0.033c-0.521,0.021-1.04,0.043-1.563,0.07c-0.292,0.017-0.585,0.026-0.878,0.05
				c-0.137,0.013-0.271,0.02-0.406,0.023c-0.375,0.026-0.753,0.056-1.131,0.088c-0.063,0.008-0.133,0.011-0.201,0.021
				c-0.315,0.023-0.64,0.053-0.96,0.087c-0.43,0.039-0.853,0.082-1.277,0.129c-0.589,0.063-1.178,0.132-1.769,0.205v-1.854
				c0-2.478,2.008-4.479,4.479-4.479h12.723C182.674,339.709,184.682,341.713,184.682,344.188z"/>
			<path fill="#A2DDF5" d="M222.128,363.078c0,1.639-1.323,2.967-2.961,2.967h-1.266v42.083c0,2.471-2,4.474-4.479,4.474h-79.17
				c-2.476,0-4.477-2.003-4.477-4.474v-42.083h-1.262c-1.64,0-2.96-1.328-2.96-2.967c0-0.819,0.331-1.563,0.864-2.09
				c0.537-0.541,1.275-0.871,2.096-0.871h90.647C220.802,360.117,222.128,361.443,222.128,363.078z"/>
			<path fill="#89C9D7" d="M216.441,360.117h-85.194c0-6.239,16.938-12.482,33.525-14.28c0.429-0.05,0.851-0.093,1.275-0.132
				c0.322-0.031,0.646-0.062,0.964-0.087c0.067-0.007,0.138-0.01,0.2-0.02c0.376-0.03,0.758-0.062,1.129-0.086
				c0.139-0.01,0.271-0.02,0.408-0.023c0.292-0.021,0.587-0.036,0.879-0.05c0.522-0.03,1.043-0.056,1.563-0.073
				c0.448-0.014,0.896-0.023,1.335-0.03c0.444-0.013,0.881-0.016,1.318-0.016h0.013c0.435,0,0.871,0.003,1.31,0.016
				c0.443,0.007,0.891,0.021,1.335,0.03c0.354,0.017,0.708,0.03,1.063,0.048c0.185,0.009,0.359,0.019,0.543,0.028
				c0.439,0.021,0.882,0.05,1.322,0.08c0.339,0.021,0.676,0.046,1.013,0.072c0.096,0.01,0.188,0.021,0.284,0.021
				c0.277,0.021,0.563,0.047,0.848,0.077c0.445,0.043,0.894,0.086,1.344,0.136C199.506,347.635,216.441,353.878,216.441,360.117z"/>
			<rect x="129.779" y="366.045" fill="#89C9D7" width="88.123" height="1.546"/>
		</g>
		<g>
			<path fill="#89C9D7" d="M129.783,370.325v4.479h-7.44c-1.233,0-2.236-1.004-2.236-2.235v-0.007c0-1.23,1.003-2.236,2.236-2.236
				L129.783,370.325L129.783,370.325z"/>
			<path fill="#89C9D7" d="M227.583,372.565v0.005c0,1.232-1.004,2.234-2.236,2.234h-7.442v-4.479h7.442
				C226.579,370.325,227.583,371.328,227.583,372.565z"/>
		</g>
	</g>
</g>
<g>
	<g>
		<g>
			<ellipse fill="#1C75BC" cx="754.552" cy="412.744" rx="21.562" ry="2.431"/>
			<g>
				<g>
					<path d="M756.691,391.432c9.886-0.063,17.847-8.129,17.782-18.012c-0.063-9.888-8.129-17.848-18.013-17.78
						c-9.887,0.063-17.848,8.125-17.781,18.011C738.744,383.531,746.811,391.491,756.691,391.432z M748.385,384.789
						c-0.812,0.816-2.123,0.825-2.938,0.021c-0.815-0.81-0.825-2.122-0.021-2.941c0.81-0.813,2.125-0.819,2.938-0.021
						C749.182,382.656,749.188,383.977,748.385,384.789z M767.854,384.663c-0.807,0.816-2.122,0.825-2.938,0.021
						c-0.815-0.805-0.821-2.119-0.021-2.938c0.809-0.814,2.121-0.823,2.939-0.021C768.654,382.531,768.662,383.849,767.854,384.663z
						 M770.331,371.365c1.146-0.006,2.085,0.917,2.094,2.064c0.008,1.146-0.915,2.083-2.063,2.091
						c-1.146,0.01-2.083-0.916-2.093-2.062C768.262,372.313,769.185,371.371,770.331,371.365z M764.771,362.276
						c0.809-0.814,2.125-0.825,2.94-0.021c0.815,0.807,0.822,2.123,0.021,2.938c-0.811,0.818-2.126,0.824-2.941,0.021
						C763.973,364.406,763.968,363.093,764.771,362.276z M763.489,371.408c1.146-0.006,2.083,0.918,2.091,2.066
						c0.013,1.146-0.916,2.081-2.063,2.09c-1.149,0.008-2.087-0.916-2.093-2.063C761.416,372.354,762.344,371.419,763.489,371.408z
						 M756.476,357.657c1.148-0.008,2.084,0.918,2.092,2.066c0.008,1.147-0.917,2.083-2.063,2.091
						c-1.148,0.007-2.085-0.917-2.095-2.063S755.326,357.669,756.476,357.657z M756.521,364.504
						c1.146-0.009,2.082,0.918,2.091,2.063c0.008,1.146-0.916,2.082-2.063,2.091c-1.147,0.01-2.084-0.919-2.094-2.063
						C754.445,365.447,755.371,364.512,756.521,364.504z M756.563,371.452c1.147-0.006,2.085,0.917,2.092,2.066
						c0.01,1.147-0.917,2.082-2.063,2.094c-1.146,0.007-2.084-0.918-2.094-2.063C754.492,372.401,755.42,371.462,756.563,371.452z
						 M756.608,378.353c1.146-0.008,2.085,0.917,2.093,2.066c0.008,1.146-0.92,2.085-2.064,2.092
						c-1.146,0.006-2.084-0.917-2.092-2.064C754.536,379.296,755.464,378.359,756.608,378.353z M756.652,385.196
						c1.146-0.007,2.085,0.914,2.092,2.065c0.012,1.146-0.917,2.083-2.063,2.092c-1.147,0.005-2.085-0.919-2.091-2.066
						C754.581,386.139,755.508,385.2,756.652,385.196z M751.731,373.564c0.007,1.148-0.917,2.087-2.065,2.093
						c-1.146,0.008-2.079-0.917-2.092-2.063c-0.008-1.147,0.916-2.083,2.063-2.093C750.787,371.492,751.723,372.419,751.731,373.564
						z M745.302,362.403c0.809-0.82,2.123-0.826,2.938-0.021c0.817,0.808,0.825,2.121,0.021,2.938
						c-0.809,0.818-2.12,0.823-2.938,0.021C744.507,364.534,744.495,363.217,745.302,362.403z M742.799,371.545
						c1.146-0.01,2.086,0.919,2.093,2.063c0.008,1.15-0.92,2.086-2.063,2.093c-1.146,0.006-2.085-0.917-2.092-2.063
						C740.725,372.489,741.649,371.555,742.799,371.545z"/>
				</g>
				<rect x="755.314" y="390.257" transform="matrix(-1 0.0061 -0.0061 -1 1516.142 811.8896)" width="3.023" height="36.029"/>
				<g>
					<path d="M757.162,463.757c2.721-0.021,4.87-2.312,4.722-5.021l-1.822-32.435l-6.277,0.04l-1.399,32.455
						C752.26,461.511,754.441,463.773,757.162,463.757z M757.119,457.362c1.096-0.007,1.98,0.872,1.99,1.963
						c0.005,1.097-0.872,1.981-1.964,1.99c-1.094,0.007-1.984-0.872-1.99-1.967C755.149,458.261,756.025,457.365,757.119,457.362z"
						/>
				</g>
			</g>
			<g>
				<g>
					<path d="M764.326,388.125l0.237,0.205c4.284,3.744,10.444,4.436,15.447,1.724c3.626-1.966,6.049-5.595,6.472-9.695
						l2.405-23.361l-26.375-2.717l-2.388,23.166C759.714,381.477,761.276,385.46,764.326,388.125z M780.596,360.203
						c0.1-0.976,0.976-1.688,1.951-1.585c0.977,0.102,1.688,0.976,1.586,1.952l-2.006,19.46c-0.103,0.979-0.978,1.688-1.953,1.587
						c-0.979-0.099-1.688-0.977-1.585-1.949L780.596,360.203z M773.521,359.476c0.099-0.974,0.974-1.688,1.95-1.584
						c0.977,0.101,1.688,0.975,1.586,1.952l-2.007,19.459c-0.102,0.979-0.978,1.688-1.95,1.587
						c-0.979-0.104-1.688-0.978-1.586-1.952L773.521,359.476z M766.442,358.745c0.103-0.975,0.979-1.688,1.948-1.585
						c0.979,0.104,1.688,0.976,1.587,1.952l-2.007,19.46c-0.102,0.979-0.977,1.688-1.952,1.588
						c-0.974-0.103-1.688-0.978-1.583-1.949L766.442,358.745z"/>
				</g>
				
					<rect x="768.787" y="390.366" transform="matrix(-0.9947 -0.1027 0.1027 -0.9947 1494.5844 893.7054)" width="3.024" height="36.023"/>
				<g>
					<path d="M764.578,463.557c2.705,0.278,5.097-1.766,5.239-4.48l1.728-32.437l-6.247-0.646l-4.935,32.108
						C759.95,460.788,761.872,463.277,764.578,463.557z M765.232,457.196c1.089,0.109,1.876,1.081,1.766,2.169
						c-0.109,1.085-1.084,1.876-2.169,1.767c-1.088-0.112-1.877-1.085-1.766-2.171C763.177,457.87,764.146,457.084,765.232,457.196z
						"/>
				</g>
			</g>
			<g>
				
					<rect x="742.402" y="377.234" transform="matrix(-0.9997 0.026 -0.026 -0.9997 1498.2789 781.363)" width="3.3" height="46.408"/>
				<g>
					<path d="M735.671,378.67c0.015,0.499,0.211,0.972,0.554,1.334l5.802,6.092l3.301-0.084l5.854-6.167
						c0.365-0.388,0.563-0.905,0.552-1.438l-0.652-24.854c-0.06-2.257-3.386-2.128-3.324,0.088
						c0.057,2.214,0.277,10.663,0.277,10.663c0.021,0.812-0.616,1.48-1.426,1.503c-0.813,0.021-1.484-0.616-1.507-1.428
						c0,0-0.264-5.991-0.384-10.606c-0.063-2.398-3.479-2.179-3.45-0.164c0.053,4.106,0.198,10.867,0.198,10.867
						c0.021,0.812-0.618,1.484-1.431,1.507c-0.813,0.021-1.479-0.618-1.503-1.428c0,0-0.04-7.68-0.229-10.676
						c-0.144-2.232-3.338-2.211-3.279,0.002L735.671,378.67z"/>
				</g>
				<g>
					<path d="M745.86,461.057c2.724-0.072,4.828-2.403,4.619-5.113l-2.464-32.394l-6.274,0.165l-0.759,32.477
						C740.92,458.907,743.142,461.127,745.86,461.057z M745.693,454.66c1.095-0.023,2,0.835,2.026,1.932
						c0.026,1.089-0.83,1.998-1.924,2.023c-1.094,0.03-2.001-0.831-2.028-1.926C743.739,455.6,744.603,454.694,745.693,454.66z"/>
				</g>
			</g>
			<g>
				<path d="M716.82,381.761c1.244,7.364,8.227,12.323,15.589,11.075c8.038-1.36,12.894-9.718,10.509-17.515
					c-4.896-16.025-11.967-19.297-15.171-19.932c-0.979-0.193-2.016-0.109-2.924,0.305
					C715.814,359.806,716.66,380.82,716.82,381.761z"/>
				
					<rect x="733.335" y="389.3" transform="matrix(-0.986 0.1668 -0.1668 -0.986 1527.3237 686.3818)" width="3.022" height="36.026"/>
				<g>
					<path d="M744.081,461.989c2.686-0.453,4.439-3.062,3.854-5.714l-6.99-31.725l-6.19,1.047l3.813,32.258
						C738.885,460.557,741.397,462.442,744.081,461.989z M743.015,455.683c1.076-0.18,2.099,0.546,2.277,1.62
						c0.183,1.076-0.545,2.098-1.62,2.276c-1.075,0.185-2.099-0.545-2.276-1.615C741.218,456.884,741.939,455.865,743.015,455.683z"
						/>
				</g>
			</g>
			<g>
				<path fill="#939598" d="M770.885,428.978l4.399-47.222l27.938,2.604c0.774-8.359-5.413-15.779-13.833-16.563
					c-8.42-0.785-15.876,5.355-16.657,13.721l-4.403,47.223L770.885,428.978z"/>
				<g>
					<path fill="#939598" d="M766.97,457.116c2.294,0.212,4.3-1.521,4.396-3.813l1.181-27.321l-5.301-0.494l-3.896,27.069
						C763.023,454.825,764.677,456.905,766.97,457.116z M767.471,451.76c0.92,0.087,1.598,0.896,1.511,1.813
						c-0.084,0.917-0.898,1.586-1.821,1.502c-0.92-0.086-1.599-0.896-1.513-1.813C765.731,452.344,766.552,451.674,767.471,451.76z"
						/>
				</g>
			</g>
		</g>
		<path fill="#27AAE1" d="M776.109,462.097c0,0-6.072,1.438-21.999,1.438c-15.929,0-21.125-1.438-21.125-1.438v-49.354
			c0,0,7.917,1.438,21.32,1.438c13.398,0,21.804-1.438,21.804-1.438V462.097L776.109,462.097z"/>
	</g>
	<g>
		<g>
			<g>
				<g>
					<g>
						<g>
							<g>
								<defs>
									<path id="SVGID_1_" d="M776.109,460.402c0,0-6.162,1.337-22.325,1.337c-16.172,0-21.444-1.337-21.444-1.337v-45.862
										c0,0,8.039,1.342,21.643,1.342c13.604,0,22.132-1.342,22.132-1.342L776.109,460.402L776.109,460.402z"/>
								</defs>
								<clipPath id="SVGID_2_">
									<use xlink:href="#SVGID_1_"  overflow="visible"/>
								</clipPath>
								<g clip-path="url(#SVGID_2_)">
									<g>
										<g>
											<ellipse fill="#EFEEE8" cx="705.991" cy="359.316" rx="1.852" ry="1.57"/>
											<ellipse fill="#EFEEE8" cx="719.852" cy="359.316" rx="1.852" ry="1.57"/>
											<ellipse fill="#EFEEE8" cx="733.714" cy="359.316" rx="1.854" ry="1.57"/>
											<ellipse fill="#EFEEE8" cx="747.573" cy="359.316" rx="1.852" ry="1.57"/>
											<ellipse fill="#EFEEE8" cx="761.435" cy="359.316" rx="1.85" ry="1.57"/>
											<path fill="#EFEEE8" d="M777.143,359.316c0,0.865-0.824,1.569-1.845,1.569c-1.022,0-1.854-0.703-1.854-1.569
												s0.825-1.569,1.854-1.569C776.316,357.743,777.143,358.448,777.143,359.316z"/>
											<ellipse fill="#EFEEE8" cx="789.157" cy="359.316" rx="1.852" ry="1.57"/>
											<ellipse fill="#EFEEE8" cx="803.017" cy="359.316" rx="1.851" ry="1.57"/>
											<ellipse fill="#EFEEE8" cx="816.881" cy="359.316" rx="1.849" ry="1.57"/>
											<ellipse fill="#EFEEE8" cx="830.74" cy="359.316" rx="1.851" ry="1.57"/>
											<ellipse fill="#EFEEE8" cx="844.601" cy="359.316" rx="1.848" ry="1.57"/>
											<path fill="#EFEEE8" d="M860.308,359.316c0,0.865-0.823,1.569-1.85,1.569c-1.019,0-1.849-0.703-1.849-1.569
												s0.828-1.569,1.849-1.569C859.483,357.743,860.308,358.448,860.308,359.316z"/>
										</g>
										<ellipse fill="#EFEEE8" cx="872.322" cy="359.316" rx="1.851" ry="1.57"/>
									</g>
									<g>
										<g>
											<ellipse fill="#EFEEE8" cx="712.924" cy="367.161" rx="1.85" ry="1.57"/>
											<ellipse fill="#EFEEE8" cx="726.782" cy="367.161" rx="1.853" ry="1.57"/>
											<path fill="#EFEEE8" d="M742.49,367.158c0,0.866-0.827,1.57-1.849,1.57c-1.022,0-1.853-0.704-1.853-1.57
												c0-0.862,0.826-1.566,1.853-1.566C741.662,365.592,742.49,366.295,742.49,367.158z"/>
											<ellipse fill="#EFEEE8" cx="754.507" cy="367.161" rx="1.852" ry="1.57"/>
											<ellipse fill="#EFEEE8" cx="768.366" cy="367.161" rx="1.85" ry="1.57"/>
											<ellipse fill="#EFEEE8" cx="782.225" cy="367.161" rx="1.851" ry="1.57"/>
											<ellipse fill="#EFEEE8" cx="796.09" cy="367.161" rx="1.849" ry="1.57"/>
											<ellipse fill="#EFEEE8" cx="809.946" cy="367.161" rx="1.854" ry="1.57"/>
											<ellipse fill="#EFEEE8" cx="823.81" cy="367.161" rx="1.851" ry="1.57"/>
											<path fill="#EFEEE8" d="M839.521,367.158c0,0.866-0.831,1.57-1.852,1.57c-1.021,0-1.851-0.704-1.851-1.57
												c0-0.862,0.824-1.566,1.851-1.566C838.688,365.592,839.521,366.295,839.521,367.158z"/>
											<ellipse fill="#EFEEE8" cx="851.531" cy="367.161" rx="1.85" ry="1.57"/>
											<ellipse fill="#EFEEE8" cx="865.392" cy="367.161" rx="1.849" ry="1.57"/>
										</g>
										<ellipse fill="#EFEEE8" cx="879.257" cy="367.161" rx="1.847" ry="1.57"/>
									</g>
									<g>
										<g>
											<ellipse fill="#EFEEE8" cx="705.991" cy="375.005" rx="1.852" ry="1.571"/>
											<ellipse fill="#EFEEE8" cx="719.852" cy="375.005" rx="1.852" ry="1.571"/>
											<ellipse fill="#EFEEE8" cx="733.714" cy="375.005" rx="1.854" ry="1.571"/>
											<ellipse fill="#EFEEE8" cx="747.573" cy="375.005" rx="1.852" ry="1.571"/>
											<ellipse fill="#EFEEE8" cx="761.435" cy="375.005" rx="1.85" ry="1.571"/>
											<path fill="#EFEEE8" d="M777.143,375.004c0,0.863-0.824,1.569-1.845,1.569c-1.022,0-1.854-0.706-1.854-1.569
												c0-0.867,0.825-1.569,1.854-1.569C776.316,373.436,777.143,374.137,777.143,375.004z"/>
											<ellipse fill="#EFEEE8" cx="789.157" cy="375.005" rx="1.852" ry="1.571"/>
											<ellipse fill="#EFEEE8" cx="803.017" cy="375.005" rx="1.851" ry="1.571"/>
											<ellipse fill="#EFEEE8" cx="816.881" cy="375.005" rx="1.849" ry="1.571"/>
											<ellipse fill="#EFEEE8" cx="830.74" cy="375.005" rx="1.851" ry="1.571"/>
											<ellipse fill="#EFEEE8" cx="844.601" cy="375.005" rx="1.848" ry="1.571"/>
											<path fill="#EFEEE8" d="M860.308,375.004c0,0.863-0.823,1.569-1.85,1.569c-1.019,0-1.849-0.706-1.849-1.569
												c0-0.867,0.828-1.569,1.849-1.569C859.483,373.436,860.308,374.137,860.308,375.004z"/>
										</g>
										<ellipse fill="#EFEEE8" cx="872.322" cy="375.005" rx="1.851" ry="1.571"/>
									</g>
									<g>
										<g>
											<path fill="#EFEEE8" d="M714.771,382.847c0,0.87-0.827,1.571-1.851,1.571c-1.021,0-1.852-0.701-1.852-1.571
												c0-0.863,0.827-1.565,1.852-1.565C713.942,381.281,714.771,381.983,714.771,382.847z"/>
											<path fill="#EFEEE8" d="M728.634,382.847c0,0.87-0.827,1.571-1.854,1.571c-1.02,0-1.849-0.701-1.849-1.571
												c0-0.863,0.827-1.565,1.849-1.565C727.803,381.281,728.634,381.983,728.634,382.847z"/>
											<path fill="#EFEEE8" d="M742.49,382.847c0,0.87-0.827,1.571-1.849,1.571c-1.022,0-1.853-0.701-1.853-1.571
												c0-0.863,0.826-1.565,1.853-1.565C741.662,381.281,742.49,381.983,742.49,382.847z"/>
											<path fill="#EFEEE8" d="M756.354,382.847c0,0.87-0.83,1.571-1.852,1.571c-1.022,0-1.854-0.701-1.854-1.571
												c0-0.863,0.829-1.565,1.854-1.565C755.523,381.281,756.354,381.983,756.354,382.847z"/>
											<path fill="#EFEEE8" d="M770.215,382.847c0,0.87-0.826,1.571-1.851,1.571c-1.021,0-1.849-0.701-1.849-1.571
												c0-0.863,0.824-1.565,1.849-1.565C769.386,381.281,770.215,381.983,770.215,382.847z"/>
											<path fill="#EFEEE8" d="M784.073,382.847c0,0.87-0.827,1.571-1.85,1.571c-1.021,0-1.853-0.701-1.853-1.571
												c0-0.863,0.827-1.565,1.853-1.565C783.246,381.281,784.073,381.983,784.073,382.847z"/>
											<path fill="#EFEEE8" d="M797.936,382.847c0,0.87-0.827,1.571-1.851,1.571c-1.021,0-1.852-0.701-1.852-1.571
												c0-0.863,0.827-1.565,1.852-1.565C797.107,381.281,797.936,381.983,797.936,382.847z"/>
											<path fill="#EFEEE8" d="M811.8,382.847c0,0.87-0.828,1.571-1.854,1.571c-1.021,0-1.85-0.701-1.85-1.571
												c0-0.863,0.826-1.565,1.85-1.565C810.969,381.281,811.8,381.983,811.8,382.847z"/>
											<path fill="#EFEEE8" d="M825.658,382.847c0,0.87-0.832,1.571-1.854,1.571c-1.022,0-1.85-0.701-1.85-1.571
												c0-0.863,0.826-1.565,1.85-1.565C824.826,381.281,825.658,381.983,825.658,382.847z"/>
											<path fill="#EFEEE8" d="M839.521,382.847c0,0.87-0.831,1.571-1.852,1.571c-1.021,0-1.851-0.701-1.851-1.571
												c0-0.863,0.824-1.565,1.851-1.565C838.688,381.281,839.521,381.983,839.521,382.847z"/>
											<path fill="#EFEEE8" d="M853.382,382.847c0,0.87-0.827,1.571-1.851,1.571c-1.021,0-1.851-0.701-1.851-1.571
												c0-0.863,0.827-1.565,1.851-1.565C852.552,381.281,853.382,381.983,853.382,382.847z"/>
											<path fill="#EFEEE8" d="M867.239,382.847c0,0.87-0.828,1.571-1.85,1.571c-1.022,0-1.849-0.701-1.849-1.571
												c0-0.863,0.823-1.565,1.849-1.565C866.411,381.281,867.239,381.983,867.239,382.847z"/>
										</g>
										<path fill="#EFEEE8" d="M881.101,382.847c0,0.87-0.825,1.571-1.848,1.571c-1.021,0-1.853-0.701-1.853-1.571
											c0-0.863,0.826-1.565,1.853-1.565C880.272,381.281,881.101,381.983,881.101,382.847z"/>
									</g>
									<g>
										<g>
											<ellipse fill="#EFEEE8" cx="705.991" cy="390.692" rx="1.852" ry="1.57"/>
											<ellipse fill="#EFEEE8" cx="719.852" cy="390.692" rx="1.852" ry="1.57"/>
											<ellipse fill="#EFEEE8" cx="733.714" cy="390.692" rx="1.854" ry="1.57"/>
											<ellipse fill="#EFEEE8" cx="747.573" cy="390.692" rx="1.852" ry="1.57"/>
											<ellipse fill="#EFEEE8" cx="761.435" cy="390.692" rx="1.85" ry="1.57"/>
											<path fill="#EFEEE8" d="M777.143,390.691c0,0.867-0.824,1.569-1.845,1.569c-1.022,0-1.854-0.701-1.854-1.569
												c0-0.866,0.825-1.569,1.854-1.569C776.316,389.12,777.143,389.823,777.143,390.691z"/>
											<ellipse fill="#EFEEE8" cx="789.157" cy="390.692" rx="1.852" ry="1.57"/>
											<ellipse fill="#EFEEE8" cx="803.017" cy="390.692" rx="1.851" ry="1.57"/>
											<ellipse fill="#EFEEE8" cx="816.881" cy="390.692" rx="1.849" ry="1.57"/>
											<ellipse fill="#EFEEE8" cx="830.74" cy="390.692" rx="1.851" ry="1.57"/>
											<ellipse fill="#EFEEE8" cx="844.601" cy="390.692" rx="1.848" ry="1.57"/>
											<path fill="#EFEEE8" d="M860.308,390.691c0,0.867-0.823,1.569-1.85,1.569c-1.019,0-1.849-0.701-1.849-1.569
												c0-0.866,0.828-1.569,1.849-1.569C859.483,389.12,860.308,389.823,860.308,390.691z"/>
										</g>
										<ellipse fill="#EFEEE8" cx="872.322" cy="390.692" rx="1.851" ry="1.57"/>
									</g>
									<g>
										<g>
											<ellipse fill="#EFEEE8" cx="712.924" cy="398.537" rx="1.85" ry="1.569"/>
											<ellipse fill="#EFEEE8" cx="726.782" cy="398.537" rx="1.853" ry="1.569"/>
											<path fill="#EFEEE8" d="M742.49,398.533c0,0.866-0.827,1.569-1.849,1.569c-1.022,0-1.853-0.703-1.853-1.569
												c0-0.863,0.826-1.564,1.853-1.564C741.662,396.969,742.49,397.67,742.49,398.533z"/>
											<ellipse fill="#EFEEE8" cx="754.507" cy="398.537" rx="1.852" ry="1.569"/>
											<ellipse fill="#EFEEE8" cx="768.366" cy="398.537" rx="1.85" ry="1.569"/>
											<ellipse fill="#EFEEE8" cx="782.225" cy="398.537" rx="1.851" ry="1.569"/>
											<ellipse fill="#EFEEE8" cx="796.09" cy="398.537" rx="1.849" ry="1.569"/>
											<ellipse fill="#EFEEE8" cx="809.946" cy="398.537" rx="1.854" ry="1.569"/>
											<path fill="#EFEEE8" d="M825.658,398.533c0,0.866-0.832,1.569-1.854,1.569c-1.022,0-1.85-0.703-1.85-1.569
												c0-0.863,0.826-1.564,1.85-1.564C824.826,396.969,825.658,397.67,825.658,398.533z"/>
											<path fill="#EFEEE8" d="M839.521,398.533c0,0.866-0.831,1.569-1.852,1.569c-1.021,0-1.851-0.703-1.851-1.569
												c0-0.863,0.824-1.564,1.851-1.564C838.688,396.969,839.521,397.67,839.521,398.533z"/>
											<ellipse fill="#EFEEE8" cx="851.531" cy="398.537" rx="1.85" ry="1.569"/>
											<ellipse fill="#EFEEE8" cx="865.392" cy="398.537" rx="1.849" ry="1.569"/>
										</g>
										<ellipse fill="#EFEEE8" cx="879.257" cy="398.537" rx="1.847" ry="1.569"/>
									</g>
									<g>
										<g>
											<path fill="#EFEEE8" d="M707.842,406.379c0,0.867-0.827,1.567-1.854,1.567c-1.021,0-1.849-0.7-1.849-1.567
												c0-0.863,0.826-1.566,1.849-1.566C707.012,404.813,707.842,405.516,707.842,406.379z"/>
											<path fill="#EFEEE8" d="M721.7,406.379c0,0.867-0.83,1.567-1.852,1.567c-1.022,0-1.849-0.7-1.849-1.567
												c0-0.863,0.826-1.566,1.849-1.566C720.87,404.813,721.7,405.516,721.7,406.379z"/>
											<path fill="#EFEEE8" d="M735.562,406.379c0,0.867-0.827,1.567-1.852,1.567c-1.021,0-1.853-0.7-1.853-1.567
												c0-0.863,0.827-1.566,1.853-1.566C734.733,404.813,735.562,405.516,735.562,406.379z"/>
											<path fill="#EFEEE8" d="M749.423,406.379c0,0.867-0.826,1.567-1.852,1.567c-1.021,0-1.848-0.7-1.848-1.567
												c0-0.863,0.826-1.566,1.848-1.566C748.594,404.813,749.423,405.516,749.423,406.379z"/>
											<path fill="#EFEEE8" d="M763.282,406.379c0,0.867-0.826,1.567-1.849,1.567c-1.021,0-1.85-0.7-1.85-1.567
												c0-0.863,0.825-1.566,1.85-1.566C762.455,404.813,763.282,405.516,763.282,406.379z"/>
											<path fill="#EFEEE8" d="M777.143,406.379c0,0.867-0.824,1.567-1.845,1.567c-1.022,0-1.854-0.7-1.854-1.567
												c0-0.863,0.825-1.566,1.854-1.566C776.316,404.813,777.143,405.516,777.143,406.379z"/>
											<path fill="#EFEEE8" d="M791.008,406.379c0,0.867-0.827,1.567-1.853,1.567c-1.02,0-1.851-0.7-1.851-1.567
												c0-0.863,0.829-1.566,1.851-1.566C790.178,404.813,791.008,405.516,791.008,406.379z"/>
											<path fill="#EFEEE8" d="M804.866,406.379c0,0.867-0.825,1.567-1.851,1.567c-1.021,0-1.85-0.7-1.85-1.567
												c0-0.863,0.823-1.566,1.85-1.566C804.04,404.813,804.866,405.516,804.866,406.379z"/>
											<path fill="#EFEEE8" d="M818.727,406.379c0,0.867-0.825,1.567-1.851,1.567c-1.021,0-1.851-0.7-1.851-1.567
												c0-0.863,0.826-1.566,1.851-1.566C817.9,404.813,818.727,405.516,818.727,406.379z"/>
											<path fill="#EFEEE8" d="M832.591,406.379c0,0.867-0.828,1.567-1.853,1.567c-1.021,0-1.85-0.7-1.85-1.567
												c0-0.863,0.827-1.566,1.85-1.566C831.761,404.813,832.591,405.516,832.591,406.379z"/>
											<path fill="#EFEEE8" d="M846.447,406.379c0,0.867-0.826,1.567-1.849,1.567c-1.021,0-1.849-0.7-1.849-1.567
												c0-0.863,0.825-1.566,1.849-1.566C845.621,404.813,846.447,405.516,846.447,406.379z"/>
											<path fill="#EFEEE8" d="M860.308,406.379c0,0.867-0.823,1.567-1.85,1.567c-1.019,0-1.849-0.7-1.849-1.567
												c0-0.863,0.828-1.566,1.849-1.566C859.483,404.813,860.308,405.516,860.308,406.379z"/>
										</g>
										<path fill="#EFEEE8" d="M874.172,406.379c0,0.867-0.827,1.567-1.852,1.567c-1.02,0-1.85-0.7-1.85-1.567
											c0-0.863,0.828-1.566,1.85-1.566C873.344,404.813,874.172,405.516,874.172,406.379z"/>
									</g>
									<g>
										<g>
											<ellipse fill="#EFEEE8" cx="712.924" cy="414.226" rx="1.85" ry="1.569"/>
											<ellipse fill="#EFEEE8" cx="726.782" cy="414.226" rx="1.853" ry="1.569"/>
											<path fill="#EFEEE8" d="M742.49,414.225c0,0.867-0.827,1.569-1.849,1.569c-1.022,0-1.853-0.702-1.853-1.569
												s0.826-1.57,1.853-1.57C741.662,412.655,742.49,413.357,742.49,414.225z"/>
											<ellipse fill="#EFEEE8" cx="754.507" cy="414.226" rx="1.852" ry="1.569"/>
											<ellipse fill="#EFEEE8" cx="768.366" cy="414.226" rx="1.85" ry="1.569"/>
											<ellipse fill="#EFEEE8" cx="782.225" cy="414.226" rx="1.851" ry="1.569"/>
											<ellipse fill="#EFEEE8" cx="796.09" cy="414.226" rx="1.849" ry="1.569"/>
											<ellipse fill="#EFEEE8" cx="809.946" cy="414.226" rx="1.854" ry="1.569"/>
											<ellipse fill="#EFEEE8" cx="823.81" cy="414.226" rx="1.851" ry="1.569"/>
											<path fill="#EFEEE8" d="M839.521,414.225c0,0.867-0.831,1.569-1.852,1.569c-1.021,0-1.851-0.702-1.851-1.569
												s0.824-1.57,1.851-1.57C838.688,412.655,839.521,413.357,839.521,414.225z"/>
											<ellipse fill="#EFEEE8" cx="851.531" cy="414.226" rx="1.85" ry="1.569"/>
											<ellipse fill="#EFEEE8" cx="865.392" cy="414.226" rx="1.849" ry="1.569"/>
										</g>
										<ellipse fill="#EFEEE8" cx="879.257" cy="414.226" rx="1.847" ry="1.569"/>
									</g>
									<g>
										<g>
											<ellipse fill="#EFEEE8" cx="705.991" cy="422.067" rx="1.852" ry="1.568"/>
											<ellipse fill="#EFEEE8" cx="719.852" cy="422.067" rx="1.852" ry="1.568"/>
											<ellipse fill="#EFEEE8" cx="733.714" cy="422.067" rx="1.854" ry="1.568"/>
											<ellipse fill="#EFEEE8" cx="747.573" cy="422.067" rx="1.852" ry="1.568"/>
											<ellipse fill="#EFEEE8" cx="761.435" cy="422.067" rx="1.85" ry="1.568"/>
											<path fill="#EFEEE8" d="M777.143,422.067c0,0.867-0.824,1.567-1.845,1.567c-1.022,0-1.854-0.7-1.854-1.567
												c0-0.866,0.825-1.566,1.854-1.566C776.316,420.5,777.143,421.198,777.143,422.067z"/>
											<ellipse fill="#EFEEE8" cx="789.157" cy="422.067" rx="1.852" ry="1.568"/>
											<ellipse fill="#EFEEE8" cx="803.017" cy="422.067" rx="1.851" ry="1.568"/>
											<ellipse fill="#EFEEE8" cx="816.881" cy="422.067" rx="1.849" ry="1.568"/>
											<ellipse fill="#EFEEE8" cx="830.74" cy="422.067" rx="1.851" ry="1.568"/>
											<ellipse fill="#EFEEE8" cx="844.601" cy="422.067" rx="1.848" ry="1.568"/>
											<path fill="#EFEEE8" d="M860.308,422.067c0,0.867-0.823,1.567-1.85,1.567c-1.019,0-1.849-0.7-1.849-1.567
												c0-0.866,0.828-1.566,1.849-1.566C859.483,420.5,860.308,421.198,860.308,422.067z"/>
										</g>
										<ellipse fill="#EFEEE8" cx="872.322" cy="422.067" rx="1.851" ry="1.568"/>
									</g>
									<g>
										<g>
											<ellipse fill="#EFEEE8" cx="712.924" cy="429.913" rx="1.85" ry="1.567"/>
											<ellipse fill="#EFEEE8" cx="726.782" cy="429.913" rx="1.853" ry="1.567"/>
											<path fill="#EFEEE8" d="M742.49,429.911c0,0.865-0.827,1.567-1.849,1.567c-1.022,0-1.853-0.701-1.853-1.567
												c0-0.864,0.826-1.568,1.853-1.568C741.662,428.342,742.49,429.045,742.49,429.911z"/>
											<ellipse fill="#EFEEE8" cx="754.507" cy="429.913" rx="1.852" ry="1.567"/>
											<ellipse fill="#EFEEE8" cx="768.366" cy="429.913" rx="1.85" ry="1.567"/>
											<ellipse fill="#EFEEE8" cx="782.225" cy="429.913" rx="1.851" ry="1.567"/>
											<ellipse fill="#EFEEE8" cx="796.09" cy="429.913" rx="1.849" ry="1.567"/>
											<ellipse fill="#EFEEE8" cx="809.946" cy="429.913" rx="1.854" ry="1.567"/>
											<ellipse fill="#EFEEE8" cx="823.81" cy="429.913" rx="1.851" ry="1.567"/>
											<path fill="#EFEEE8" d="M839.521,429.911c0,0.865-0.831,1.567-1.852,1.567c-1.021,0-1.851-0.701-1.851-1.567
												c0-0.864,0.824-1.568,1.851-1.568C838.688,428.342,839.521,429.045,839.521,429.911z"/>
											<ellipse fill="#EFEEE8" cx="851.531" cy="429.913" rx="1.85" ry="1.567"/>
											<ellipse fill="#EFEEE8" cx="865.392" cy="429.913" rx="1.849" ry="1.567"/>
										</g>
										<ellipse fill="#EFEEE8" cx="879.257" cy="429.913" rx="1.847" ry="1.567"/>
									</g>
									<g>
										<g>
											<ellipse fill="#EFEEE8" cx="705.991" cy="437.757" rx="1.852" ry="1.568"/>
											<ellipse fill="#EFEEE8" cx="719.852" cy="437.757" rx="1.852" ry="1.568"/>
											<ellipse fill="#EFEEE8" cx="733.714" cy="437.757" rx="1.854" ry="1.568"/>
											<ellipse fill="#EFEEE8" cx="747.573" cy="437.757" rx="1.852" ry="1.568"/>
											<ellipse fill="#EFEEE8" cx="761.435" cy="437.757" rx="1.85" ry="1.568"/>
											<path fill="#EFEEE8" d="M777.143,437.757c0,0.863-0.824,1.565-1.845,1.565c-1.022,0-1.854-0.702-1.854-1.565
												c0-0.868,0.825-1.571,1.854-1.571C776.316,436.186,777.143,436.889,777.143,437.757z"/>
											<ellipse fill="#EFEEE8" cx="789.157" cy="437.757" rx="1.852" ry="1.568"/>
											<ellipse fill="#EFEEE8" cx="803.017" cy="437.757" rx="1.851" ry="1.568"/>
											<ellipse fill="#EFEEE8" cx="816.881" cy="437.757" rx="1.849" ry="1.568"/>
											<ellipse fill="#EFEEE8" cx="830.74" cy="437.757" rx="1.851" ry="1.568"/>
											<ellipse fill="#EFEEE8" cx="844.601" cy="437.757" rx="1.848" ry="1.568"/>
											<path fill="#EFEEE8" d="M860.308,437.757c0,0.863-0.823,1.565-1.85,1.565c-1.019,0-1.849-0.702-1.849-1.565
												c0-0.868,0.828-1.571,1.849-1.571C859.483,436.186,860.308,436.889,860.308,437.757z"/>
										</g>
										<ellipse fill="#EFEEE8" cx="872.322" cy="437.757" rx="1.851" ry="1.568"/>
									</g>
									<g>
										<g>
											<path fill="#EFEEE8" d="M714.771,445.599c0,0.867-0.827,1.57-1.851,1.57c-1.021,0-1.852-0.702-1.852-1.57
												c0-0.863,0.827-1.566,1.852-1.566C713.942,444.031,714.771,444.734,714.771,445.599z"/>
											<path fill="#EFEEE8" d="M728.634,445.599c0,0.867-0.827,1.57-1.854,1.57c-1.02,0-1.849-0.702-1.849-1.57
												c0-0.863,0.827-1.566,1.849-1.566C727.803,444.031,728.634,444.734,728.634,445.599z"/>
											<path fill="#EFEEE8" d="M742.49,445.599c0,0.867-0.827,1.57-1.849,1.57c-1.022,0-1.853-0.702-1.853-1.57
												c0-0.863,0.826-1.566,1.853-1.566C741.662,444.031,742.49,444.734,742.49,445.599z"/>
											<path fill="#EFEEE8" d="M756.354,445.599c0,0.867-0.83,1.57-1.852,1.57c-1.022,0-1.854-0.702-1.854-1.57
												c0-0.863,0.829-1.566,1.854-1.566C755.523,444.031,756.354,444.734,756.354,445.599z"/>
											<path fill="#EFEEE8" d="M770.215,445.599c0,0.867-0.826,1.57-1.851,1.57c-1.021,0-1.849-0.702-1.849-1.57
												c0-0.863,0.824-1.566,1.849-1.566C769.386,444.031,770.215,444.734,770.215,445.599z"/>
											<path fill="#EFEEE8" d="M784.073,445.599c0,0.867-0.827,1.57-1.85,1.57c-1.021,0-1.853-0.702-1.853-1.57
												c0-0.863,0.827-1.566,1.853-1.566C783.246,444.031,784.073,444.734,784.073,445.599z"/>
											<path fill="#EFEEE8" d="M797.936,445.599c0,0.867-0.827,1.57-1.851,1.57c-1.021,0-1.852-0.702-1.852-1.57
												c0-0.863,0.827-1.566,1.852-1.566C797.107,444.031,797.936,444.734,797.936,445.599z"/>
											<path fill="#EFEEE8" d="M811.8,445.599c0,0.867-0.828,1.57-1.854,1.57c-1.021,0-1.85-0.702-1.85-1.57
												c0-0.863,0.826-1.566,1.85-1.566C810.969,444.031,811.8,444.734,811.8,445.599z"/>
											<path fill="#EFEEE8" d="M825.658,445.599c0,0.867-0.832,1.57-1.854,1.57c-1.022,0-1.85-0.702-1.85-1.57
												c0-0.863,0.826-1.566,1.85-1.566C824.826,444.031,825.658,444.734,825.658,445.599z"/>
											<path fill="#EFEEE8" d="M839.521,445.599c0,0.867-0.831,1.57-1.852,1.57c-1.021,0-1.851-0.702-1.851-1.57
												c0-0.863,0.824-1.566,1.851-1.566C838.688,444.031,839.521,444.734,839.521,445.599z"/>
											<path fill="#EFEEE8" d="M853.382,445.599c0,0.867-0.827,1.57-1.851,1.57c-1.021,0-1.851-0.702-1.851-1.57
												c0-0.863,0.827-1.566,1.851-1.566C852.552,444.031,853.382,444.734,853.382,445.599z"/>
											<path fill="#EFEEE8" d="M867.239,445.599c0,0.867-0.828,1.57-1.85,1.57c-1.022,0-1.849-0.702-1.849-1.57
												c0-0.863,0.823-1.566,1.849-1.566C866.411,444.031,867.239,444.734,867.239,445.599z"/>
										</g>
										<path fill="#EFEEE8" d="M881.101,445.599c0,0.867-0.825,1.57-1.848,1.57c-1.021,0-1.853-0.702-1.853-1.57
											c0-0.863,0.826-1.566,1.853-1.566C880.272,444.031,881.101,444.734,881.101,445.599z"/>
									</g>
									<g>
										<g>
											<ellipse fill="#EFEEE8" cx="705.991" cy="453.445" rx="1.852" ry="1.568"/>
											<ellipse fill="#EFEEE8" cx="719.852" cy="453.445" rx="1.852" ry="1.568"/>
											<ellipse fill="#EFEEE8" cx="733.714" cy="453.445" rx="1.854" ry="1.568"/>
											<ellipse fill="#EFEEE8" cx="747.573" cy="453.445" rx="1.852" ry="1.568"/>
											<ellipse fill="#EFEEE8" cx="761.435" cy="453.445" rx="1.85" ry="1.568"/>
											<path fill="#EFEEE8" d="M777.143,453.445c0,0.865-0.824,1.567-1.845,1.567c-1.022,0-1.854-0.702-1.854-1.567
												c0-0.864,0.825-1.566,1.854-1.566C776.316,451.876,777.143,452.577,777.143,453.445z"/>
											<ellipse fill="#EFEEE8" cx="789.157" cy="453.445" rx="1.852" ry="1.568"/>
											<ellipse fill="#EFEEE8" cx="803.017" cy="453.445" rx="1.851" ry="1.568"/>
											<ellipse fill="#EFEEE8" cx="816.881" cy="453.445" rx="1.849" ry="1.568"/>
											<ellipse fill="#EFEEE8" cx="830.74" cy="453.445" rx="1.851" ry="1.568"/>
											<ellipse fill="#EFEEE8" cx="844.601" cy="453.445" rx="1.848" ry="1.568"/>
											<path fill="#EFEEE8" d="M860.308,453.445c0,0.865-0.823,1.567-1.85,1.567c-1.019,0-1.849-0.702-1.849-1.567
												c0-0.864,0.828-1.566,1.849-1.566C859.483,451.876,860.308,452.577,860.308,453.445z"/>
										</g>
										<ellipse fill="#EFEEE8" cx="872.322" cy="453.445" rx="1.851" ry="1.568"/>
									</g>
									<g>
										<g>
											<ellipse fill="#EFEEE8" cx="712.924" cy="461.287" rx="1.85" ry="1.57"/>
											<ellipse fill="#EFEEE8" cx="726.782" cy="461.287" rx="1.853" ry="1.57"/>
											<path fill="#EFEEE8" d="M742.49,461.285c0,0.864-0.827,1.569-1.849,1.569c-1.022,0-1.853-0.705-1.853-1.569
												c0-0.863,0.826-1.566,1.853-1.566C741.662,459.719,742.49,460.422,742.49,461.285z"/>
											<ellipse fill="#EFEEE8" cx="754.507" cy="461.287" rx="1.852" ry="1.57"/>
											<ellipse fill="#EFEEE8" cx="768.366" cy="461.287" rx="1.85" ry="1.57"/>
											<ellipse fill="#EFEEE8" cx="782.225" cy="461.287" rx="1.851" ry="1.57"/>
											<ellipse fill="#EFEEE8" cx="796.09" cy="461.287" rx="1.849" ry="1.57"/>
											<ellipse fill="#EFEEE8" cx="809.946" cy="461.287" rx="1.854" ry="1.57"/>
											<path fill="#EFEEE8" d="M825.658,461.285c0,0.864-0.832,1.569-1.854,1.569c-1.022,0-1.85-0.705-1.85-1.569
												c0-0.863,0.826-1.566,1.85-1.566C824.826,459.719,825.658,460.422,825.658,461.285z"/>
											<path fill="#EFEEE8" d="M839.521,461.285c0,0.864-0.831,1.569-1.852,1.569c-1.021,0-1.851-0.705-1.851-1.569
												c0-0.863,0.824-1.566,1.851-1.566C838.688,459.719,839.521,460.422,839.521,461.285z"/>
											<ellipse fill="#EFEEE8" cx="851.531" cy="461.287" rx="1.85" ry="1.57"/>
											<ellipse fill="#EFEEE8" cx="865.392" cy="461.287" rx="1.849" ry="1.57"/>
										</g>
										<ellipse fill="#EFEEE8" cx="879.257" cy="461.287" rx="1.847" ry="1.57"/>
									</g>
									<g>
										<g>
											<ellipse fill="#EFEEE8" cx="705.991" cy="469.13" rx="1.852" ry="1.571"/>
											<ellipse fill="#EFEEE8" cx="719.852" cy="469.13" rx="1.852" ry="1.571"/>
											<ellipse fill="#EFEEE8" cx="733.714" cy="469.13" rx="1.854" ry="1.571"/>
											<ellipse fill="#EFEEE8" cx="747.573" cy="469.13" rx="1.852" ry="1.571"/>
											<ellipse fill="#EFEEE8" cx="761.435" cy="469.13" rx="1.85" ry="1.571"/>
											<path fill="#EFEEE8" d="M777.143,469.13c0,0.865-0.824,1.568-1.845,1.568c-1.022,0-1.854-0.702-1.854-1.568
												c0-0.864,0.825-1.566,1.854-1.566C776.316,467.563,777.143,468.266,777.143,469.13z"/>
											<ellipse fill="#EFEEE8" cx="789.157" cy="469.13" rx="1.852" ry="1.571"/>
											<ellipse fill="#EFEEE8" cx="803.017" cy="469.13" rx="1.851" ry="1.571"/>
											<ellipse fill="#EFEEE8" cx="816.881" cy="469.13" rx="1.849" ry="1.571"/>
											<ellipse fill="#EFEEE8" cx="830.74" cy="469.13" rx="1.851" ry="1.571"/>
											<ellipse fill="#EFEEE8" cx="844.601" cy="469.13" rx="1.848" ry="1.571"/>
											<path fill="#EFEEE8" d="M860.308,469.13c0,0.865-0.823,1.568-1.85,1.568c-1.019,0-1.849-0.702-1.849-1.568
												c0-0.864,0.828-1.566,1.849-1.566C859.483,467.563,860.308,468.266,860.308,469.13z"/>
										</g>
										<ellipse fill="#EFEEE8" cx="872.322" cy="469.13" rx="1.851" ry="1.571"/>
									</g>
									<g>
										<g>
											<ellipse fill="#EFEEE8" cx="712.924" cy="476.975" rx="1.85" ry="1.566"/>
											<ellipse fill="#EFEEE8" cx="726.782" cy="476.975" rx="1.853" ry="1.566"/>
											<path fill="#EFEEE8" d="M742.49,476.976c0,0.865-0.827,1.565-1.849,1.565c-1.022,0-1.853-0.698-1.853-1.565
												c0-0.865,0.826-1.566,1.853-1.566C741.662,475.406,742.49,476.109,742.49,476.976z"/>
											<ellipse fill="#EFEEE8" cx="754.507" cy="476.975" rx="1.852" ry="1.566"/>
											<ellipse fill="#EFEEE8" cx="768.366" cy="476.975" rx="1.85" ry="1.566"/>
											<ellipse fill="#EFEEE8" cx="782.225" cy="476.975" rx="1.851" ry="1.566"/>
											<ellipse fill="#EFEEE8" cx="796.09" cy="476.975" rx="1.849" ry="1.566"/>
											<ellipse fill="#EFEEE8" cx="809.946" cy="476.975" rx="1.854" ry="1.566"/>
											<ellipse fill="#EFEEE8" cx="823.81" cy="476.975" rx="1.851" ry="1.566"/>
											<path fill="#EFEEE8" d="M839.521,476.976c0,0.865-0.831,1.565-1.852,1.565c-1.021,0-1.851-0.698-1.851-1.565
												c0-0.865,0.824-1.566,1.851-1.566C838.688,475.406,839.521,476.109,839.521,476.976z"/>
											<ellipse fill="#EFEEE8" cx="851.531" cy="476.975" rx="1.85" ry="1.566"/>
											<ellipse fill="#EFEEE8" cx="865.392" cy="476.975" rx="1.849" ry="1.566"/>
										</g>
										<ellipse fill="#EFEEE8" cx="879.257" cy="476.975" rx="1.847" ry="1.566"/>
									</g>
									<g>
										<g>
											<path fill="#EFEEE8" d="M707.842,484.82c0,0.862-0.827,1.567-1.854,1.567c-1.021,0-1.849-0.704-1.849-1.567
												c0-0.869,0.826-1.565,1.849-1.565C707.012,483.253,707.842,483.948,707.842,484.82z"/>
											<path fill="#EFEEE8" d="M721.7,484.82c0,0.862-0.83,1.567-1.852,1.567c-1.022,0-1.849-0.704-1.849-1.567
												c0-0.869,0.827-1.565,1.85-1.565C720.871,483.254,721.7,483.948,721.7,484.82z"/>
											<path fill="#EFEEE8" d="M735.562,484.82c0,0.862-0.827,1.567-1.852,1.567c-1.021,0-1.853-0.704-1.853-1.567
												c0-0.869,0.827-1.565,1.853-1.565C734.733,483.253,735.562,483.948,735.562,484.82z"/>
											<path fill="#EFEEE8" d="M749.423,484.82c0,0.862-0.826,1.567-1.852,1.567c-1.021,0-1.848-0.704-1.848-1.567
												c0-0.869,0.826-1.565,1.848-1.565C748.594,483.253,749.423,483.948,749.423,484.82z"/>
											<path fill="#EFEEE8" d="M763.282,484.82c0,0.862-0.826,1.567-1.849,1.567c-1.021,0-1.85-0.704-1.85-1.567
												c0-0.869,0.825-1.565,1.85-1.565C762.455,483.253,763.282,483.948,763.282,484.82z"/>
											<path fill="#EFEEE8" d="M777.143,484.82c0,0.862-0.824,1.567-1.845,1.567c-1.022,0-1.854-0.704-1.854-1.567
												c0-0.869,0.825-1.565,1.854-1.565C776.316,483.253,777.143,483.948,777.143,484.82z"/>
											<path fill="#EFEEE8" d="M791.008,484.82c0,0.862-0.827,1.567-1.853,1.567c-1.02,0-1.851-0.704-1.851-1.567
												c0-0.869,0.829-1.565,1.851-1.565C790.178,483.253,791.008,483.948,791.008,484.82z"/>
											<path fill="#EFEEE8" d="M804.866,484.82c0,0.862-0.825,1.567-1.851,1.567c-1.021,0-1.85-0.704-1.85-1.567
												c0-0.869,0.823-1.565,1.85-1.565C804.04,483.253,804.866,483.948,804.866,484.82z"/>
											<path fill="#EFEEE8" d="M818.727,484.82c0,0.862-0.825,1.567-1.851,1.567c-1.021,0-1.851-0.704-1.851-1.567
												c0-0.869,0.826-1.565,1.851-1.565C817.9,483.254,818.727,483.948,818.727,484.82z"/>
											<path fill="#EFEEE8" d="M832.591,484.82c0,0.862-0.828,1.567-1.853,1.567c-1.021,0-1.85-0.704-1.85-1.567
												c0-0.869,0.827-1.565,1.85-1.565C831.761,483.253,832.591,483.948,832.591,484.82z"/>
											<path fill="#EFEEE8" d="M846.447,484.82c0,0.862-0.826,1.567-1.849,1.567c-1.021,0-1.849-0.704-1.849-1.567
												c0-0.869,0.825-1.565,1.849-1.565C845.621,483.254,846.447,483.948,846.447,484.82z"/>
											<path fill="#EFEEE8" d="M860.308,484.82c0,0.862-0.823,1.567-1.85,1.567c-1.019,0-1.849-0.704-1.849-1.567
												c0-0.869,0.828-1.565,1.849-1.565C859.483,483.253,860.308,483.948,860.308,484.82z"/>
										</g>
										<path fill="#EFEEE8" d="M874.172,484.82c0,0.862-0.827,1.567-1.852,1.567c-1.02,0-1.85-0.704-1.85-1.567
											c0-0.869,0.828-1.565,1.85-1.565C873.344,483.253,874.172,483.948,874.172,484.82z"/>
									</g>
									<g>
										<g>
											<path fill="#EFEEE8" d="M714.771,492.659c0,0.865-0.827,1.57-1.851,1.57c-1.021,0-1.852-0.704-1.852-1.57
												c0-0.86,0.827-1.565,1.852-1.565C713.942,491.094,714.771,491.799,714.771,492.659z"/>
											<path fill="#EFEEE8" d="M728.634,492.659c0,0.865-0.827,1.57-1.854,1.57c-1.02,0-1.849-0.704-1.849-1.57
												c0-0.86,0.827-1.565,1.849-1.565C727.803,491.094,728.634,491.799,728.634,492.659z"/>
											<path fill="#EFEEE8" d="M742.49,492.659c0,0.865-0.827,1.57-1.849,1.57c-1.022,0-1.853-0.704-1.853-1.57
												c0-0.86,0.826-1.565,1.853-1.565C741.662,491.094,742.49,491.799,742.49,492.659z"/>
											<path fill="#EFEEE8" d="M756.354,492.659c0,0.865-0.83,1.57-1.852,1.57c-1.022,0-1.854-0.704-1.854-1.57
												c0-0.86,0.829-1.565,1.854-1.565C755.523,491.094,756.354,491.799,756.354,492.659z"/>
											<path fill="#EFEEE8" d="M770.215,492.659c0,0.865-0.826,1.57-1.851,1.57c-1.021,0-1.849-0.704-1.849-1.57
												c0-0.86,0.824-1.565,1.849-1.565C769.386,491.094,770.215,491.799,770.215,492.659z"/>
											<path fill="#EFEEE8" d="M784.073,492.659c0,0.865-0.827,1.57-1.85,1.57c-1.021,0-1.853-0.704-1.853-1.57
												c0-0.86,0.827-1.565,1.853-1.565C783.246,491.094,784.073,491.799,784.073,492.659z"/>
											<path fill="#EFEEE8" d="M797.936,492.659c0,0.865-0.827,1.57-1.851,1.57c-1.021,0-1.852-0.704-1.852-1.57
												c0-0.86,0.827-1.565,1.852-1.565C797.107,491.094,797.936,491.799,797.936,492.659z"/>
											<path fill="#EFEEE8" d="M811.8,492.659c0,0.865-0.828,1.57-1.854,1.57c-1.021,0-1.85-0.704-1.85-1.57
												c0-0.86,0.826-1.565,1.85-1.565C810.97,491.094,811.8,491.799,811.8,492.659z"/>
											<path fill="#EFEEE8" d="M825.658,492.659c0,0.865-0.832,1.57-1.854,1.57c-1.022,0-1.85-0.704-1.85-1.57
												c0-0.86,0.826-1.565,1.85-1.565C824.826,491.094,825.658,491.799,825.658,492.659z"/>
											<path fill="#EFEEE8" d="M839.521,492.659c0,0.865-0.831,1.57-1.852,1.57c-1.021,0-1.851-0.704-1.851-1.57
												c0-0.86,0.824-1.565,1.851-1.565C838.688,491.094,839.521,491.799,839.521,492.659z"/>
											<path fill="#EFEEE8" d="M853.382,492.659c0,0.865-0.827,1.57-1.851,1.57c-1.021,0-1.851-0.704-1.851-1.57
												c0-0.86,0.827-1.565,1.851-1.565C852.552,491.094,853.382,491.799,853.382,492.659z"/>
											<path fill="#EFEEE8" d="M867.239,492.659c0,0.865-0.828,1.57-1.85,1.57c-1.022,0-1.849-0.704-1.849-1.57
												c0-0.86,0.823-1.565,1.849-1.565C866.411,491.094,867.239,491.799,867.239,492.659z"/>
										</g>
										<path fill="#EFEEE8" d="M881.101,492.659c0,0.865-0.825,1.57-1.848,1.57c-1.021,0-1.853-0.704-1.853-1.57
											c0-0.86,0.826-1.565,1.853-1.565C880.272,491.094,881.101,491.799,881.101,492.659z"/>
									</g>
									<g>
										<g>
											<ellipse fill="#EFEEE8" cx="705.991" cy="500.507" rx="1.852" ry="1.569"/>
											<ellipse fill="#EFEEE8" cx="719.852" cy="500.507" rx="1.852" ry="1.569"/>
											<ellipse fill="#EFEEE8" cx="733.714" cy="500.507" rx="1.854" ry="1.569"/>
											<ellipse fill="#EFEEE8" cx="747.573" cy="500.507" rx="1.852" ry="1.569"/>
											<ellipse fill="#EFEEE8" cx="761.435" cy="500.507" rx="1.85" ry="1.569"/>
											<path fill="#EFEEE8" d="M777.143,500.508c0,0.86-0.824,1.565-1.845,1.565c-1.022,0-1.854-0.704-1.854-1.565
												c0-0.865,0.825-1.57,1.854-1.57C776.316,498.94,777.143,499.643,777.143,500.508z"/>
											<ellipse fill="#EFEEE8" cx="789.157" cy="500.507" rx="1.852" ry="1.569"/>
											<ellipse fill="#EFEEE8" cx="803.017" cy="500.507" rx="1.851" ry="1.569"/>
											<ellipse fill="#EFEEE8" cx="816.881" cy="500.507" rx="1.849" ry="1.569"/>
											<ellipse fill="#EFEEE8" cx="830.74" cy="500.507" rx="1.851" ry="1.569"/>
											<ellipse fill="#EFEEE8" cx="844.601" cy="500.507" rx="1.848" ry="1.569"/>
											<path fill="#EFEEE8" d="M860.308,500.508c0,0.86-0.823,1.565-1.85,1.565c-1.019,0-1.849-0.704-1.849-1.565
												c0-0.865,0.828-1.57,1.849-1.57C859.483,498.94,860.308,499.643,860.308,500.508z"/>
										</g>
										<ellipse fill="#EFEEE8" cx="872.322" cy="500.507" rx="1.851" ry="1.569"/>
									</g>
									<g>
										<g>
											<ellipse fill="#EFEEE8" cx="712.924" cy="508.352" rx="1.85" ry="1.568"/>
											<ellipse fill="#EFEEE8" cx="726.782" cy="508.352" rx="1.853" ry="1.568"/>
											<path fill="#EFEEE8" d="M742.49,508.353c0,0.864-0.827,1.567-1.849,1.567c-1.022,0-1.853-0.702-1.853-1.567
												c0-0.867,0.826-1.572,1.853-1.572C741.662,506.78,742.49,507.484,742.49,508.353z"/>
											<ellipse fill="#EFEEE8" cx="754.507" cy="508.352" rx="1.852" ry="1.568"/>
											<ellipse fill="#EFEEE8" cx="768.366" cy="508.352" rx="1.85" ry="1.568"/>
											<ellipse fill="#EFEEE8" cx="782.225" cy="508.352" rx="1.851" ry="1.568"/>
											<ellipse fill="#EFEEE8" cx="796.09" cy="508.352" rx="1.849" ry="1.568"/>
											<ellipse fill="#EFEEE8" cx="809.946" cy="508.352" rx="1.854" ry="1.568"/>
											<ellipse fill="#EFEEE8" cx="823.81" cy="508.352" rx="1.851" ry="1.568"/>
											<path fill="#EFEEE8" d="M839.521,508.353c0,0.864-0.831,1.567-1.852,1.567c-1.021,0-1.851-0.702-1.851-1.567
												c0-0.867,0.824-1.572,1.851-1.572C838.688,506.78,839.521,507.484,839.521,508.353z"/>
											<ellipse fill="#EFEEE8" cx="851.531" cy="508.352" rx="1.85" ry="1.568"/>
											<ellipse fill="#EFEEE8" cx="865.392" cy="508.352" rx="1.849" ry="1.568"/>
										</g>
										<ellipse fill="#EFEEE8" cx="879.257" cy="508.352" rx="1.847" ry="1.568"/>
									</g>
									<g>
										<g>
											<ellipse fill="#EFEEE8" cx="705.991" cy="516.195" rx="1.852" ry="1.567"/>
											<ellipse fill="#EFEEE8" cx="719.852" cy="516.195" rx="1.852" ry="1.567"/>
											<ellipse fill="#EFEEE8" cx="733.714" cy="516.195" rx="1.854" ry="1.567"/>
											<ellipse fill="#EFEEE8" cx="747.573" cy="516.195" rx="1.852" ry="1.567"/>
											<ellipse fill="#EFEEE8" cx="761.435" cy="516.195" rx="1.85" ry="1.567"/>
											<path fill="#EFEEE8" d="M777.143,516.195c0,0.863-0.824,1.566-1.845,1.566c-1.022,0-1.854-0.702-1.854-1.566
												s0.825-1.566,1.854-1.566C776.316,514.625,777.143,515.327,777.143,516.195z"/>
											<ellipse fill="#EFEEE8" cx="789.157" cy="516.195" rx="1.852" ry="1.567"/>
											<ellipse fill="#EFEEE8" cx="803.017" cy="516.195" rx="1.851" ry="1.567"/>
											<ellipse fill="#EFEEE8" cx="816.881" cy="516.195" rx="1.849" ry="1.567"/>
											<ellipse fill="#EFEEE8" cx="830.74" cy="516.195" rx="1.851" ry="1.567"/>
											<ellipse fill="#EFEEE8" cx="844.601" cy="516.195" rx="1.848" ry="1.567"/>
											<path fill="#EFEEE8" d="M860.308,516.195c0,0.863-0.823,1.566-1.85,1.566c-1.019,0-1.849-0.702-1.849-1.566
												s0.828-1.566,1.849-1.566C859.483,514.625,860.308,515.327,860.308,516.195z"/>
										</g>
										<ellipse fill="#EFEEE8" cx="872.322" cy="516.195" rx="1.851" ry="1.567"/>
									</g>
									<g>
										<g>
											<ellipse fill="#EFEEE8" cx="712.924" cy="524.04" rx="1.85" ry="1.566"/>
											<ellipse fill="#EFEEE8" cx="726.782" cy="524.04" rx="1.853" ry="1.566"/>
											<path fill="#EFEEE8" d="M742.49,524.037c0,0.863-0.827,1.567-1.849,1.567c-1.022,0-1.853-0.703-1.853-1.567
												s0.826-1.565,1.853-1.565C741.662,522.472,742.49,523.172,742.49,524.037z"/>
											<ellipse fill="#EFEEE8" cx="754.507" cy="524.04" rx="1.852" ry="1.566"/>
											<ellipse fill="#EFEEE8" cx="768.366" cy="524.04" rx="1.85" ry="1.566"/>
											<ellipse fill="#EFEEE8" cx="782.225" cy="524.04" rx="1.851" ry="1.566"/>
											<ellipse fill="#EFEEE8" cx="796.09" cy="524.04" rx="1.849" ry="1.566"/>
											<ellipse fill="#EFEEE8" cx="809.946" cy="524.04" rx="1.854" ry="1.566"/>
											<ellipse fill="#EFEEE8" cx="823.81" cy="524.04" rx="1.851" ry="1.566"/>
											<path fill="#EFEEE8" d="M839.521,524.037c0,0.863-0.831,1.567-1.852,1.567c-1.021,0-1.851-0.703-1.851-1.567
												s0.824-1.565,1.851-1.565C838.688,522.472,839.521,523.172,839.521,524.037z"/>
											<ellipse fill="#EFEEE8" cx="851.531" cy="524.04" rx="1.85" ry="1.566"/>
											<ellipse fill="#EFEEE8" cx="865.392" cy="524.04" rx="1.849" ry="1.566"/>
										</g>
										<ellipse fill="#EFEEE8" cx="879.257" cy="524.04" rx="1.847" ry="1.566"/>
									</g>
									<g>
										<g>
											<ellipse fill="#EFEEE8" cx="705.991" cy="531.885" rx="1.852" ry="1.567"/>
											<ellipse fill="#EFEEE8" cx="719.852" cy="531.885" rx="1.852" ry="1.567"/>
											<ellipse fill="#EFEEE8" cx="733.714" cy="531.885" rx="1.854" ry="1.567"/>
											<ellipse fill="#EFEEE8" cx="747.573" cy="531.885" rx="1.852" ry="1.567"/>
											<ellipse fill="#EFEEE8" cx="761.435" cy="531.885" rx="1.85" ry="1.567"/>
											<path fill="#EFEEE8" d="M777.143,531.883c0,0.867-0.824,1.566-1.845,1.566c-1.022,0-1.854-0.699-1.854-1.566
												c0-0.865,0.825-1.566,1.854-1.566C776.316,530.315,777.143,531.017,777.143,531.883z"/>
											<ellipse fill="#EFEEE8" cx="789.157" cy="531.885" rx="1.852" ry="1.567"/>
											<ellipse fill="#EFEEE8" cx="803.017" cy="531.885" rx="1.851" ry="1.567"/>
											<ellipse fill="#EFEEE8" cx="816.881" cy="531.885" rx="1.849" ry="1.567"/>
											<ellipse fill="#EFEEE8" cx="830.74" cy="531.885" rx="1.851" ry="1.567"/>
											<ellipse fill="#EFEEE8" cx="844.601" cy="531.885" rx="1.848" ry="1.567"/>
											<path fill="#EFEEE8" d="M860.308,531.883c0,0.867-0.823,1.566-1.85,1.566c-1.019,0-1.849-0.699-1.849-1.566
												c0-0.865,0.828-1.566,1.849-1.566C859.483,530.315,860.308,531.017,860.308,531.883z"/>
										</g>
										<ellipse fill="#EFEEE8" cx="872.322" cy="531.885" rx="1.851" ry="1.567"/>
									</g>
									<g>
										<g>
											<ellipse fill="#EFEEE8" cx="712.924" cy="539.726" rx="1.85" ry="1.57"/>
											<path fill="#EFEEE8" d="M728.634,539.725c0,0.867-0.827,1.571-1.854,1.571c-1.02,0-1.849-0.703-1.849-1.571
												c0-0.86,0.827-1.564,1.849-1.564C727.803,538.156,728.634,538.86,728.634,539.725z"/>
											<path fill="#EFEEE8" d="M742.49,539.725c0,0.867-0.827,1.571-1.849,1.571c-1.022,0-1.853-0.703-1.853-1.571
												c0-0.86,0.826-1.564,1.853-1.564C741.662,538.156,742.49,538.86,742.49,539.725z"/>
											<ellipse fill="#EFEEE8" cx="754.507" cy="539.726" rx="1.852" ry="1.57"/>
											<ellipse fill="#EFEEE8" cx="768.366" cy="539.726" rx="1.85" ry="1.57"/>
											<ellipse fill="#EFEEE8" cx="782.225" cy="539.726" rx="1.851" ry="1.57"/>
											<ellipse fill="#EFEEE8" cx="796.09" cy="539.726" rx="1.849" ry="1.57"/>
											<ellipse fill="#EFEEE8" cx="809.946" cy="539.726" rx="1.854" ry="1.57"/>
											<path fill="#EFEEE8" d="M825.658,539.725c0,0.867-0.832,1.571-1.854,1.571c-1.022,0-1.85-0.703-1.85-1.571
												c0-0.86,0.826-1.564,1.85-1.564C824.826,538.157,825.658,538.86,825.658,539.725z"/>
											<path fill="#EFEEE8" d="M839.521,539.725c0,0.867-0.831,1.571-1.852,1.571c-1.021,0-1.851-0.703-1.851-1.571
												c0-0.86,0.824-1.564,1.851-1.564C838.688,538.156,839.521,538.86,839.521,539.725z"/>
											<ellipse fill="#EFEEE8" cx="851.531" cy="539.726" rx="1.85" ry="1.57"/>
											<ellipse fill="#EFEEE8" cx="865.392" cy="539.726" rx="1.849" ry="1.57"/>
										</g>
										<ellipse fill="#EFEEE8" cx="879.257" cy="539.726" rx="1.847" ry="1.57"/>
									</g>
									<g>
										<g>
											<ellipse fill="#EFEEE8" cx="705.991" cy="547.572" rx="1.852" ry="1.568"/>
											<ellipse fill="#EFEEE8" cx="719.852" cy="547.572" rx="1.852" ry="1.568"/>
											<ellipse fill="#EFEEE8" cx="733.714" cy="547.572" rx="1.854" ry="1.568"/>
											<ellipse fill="#EFEEE8" cx="747.573" cy="547.572" rx="1.852" ry="1.568"/>
											<ellipse fill="#EFEEE8" cx="761.435" cy="547.572" rx="1.85" ry="1.568"/>
											<path fill="#EFEEE8" d="M777.143,547.572c0,0.861-0.824,1.566-1.845,1.566c-1.022,0-1.854-0.703-1.854-1.566
												c0-0.864,0.825-1.565,1.854-1.565C776.316,546.004,777.143,546.703,777.143,547.572z"/>
											<ellipse fill="#EFEEE8" cx="789.157" cy="547.572" rx="1.852" ry="1.568"/>
											<ellipse fill="#EFEEE8" cx="803.017" cy="547.572" rx="1.851" ry="1.568"/>
											<ellipse fill="#EFEEE8" cx="816.881" cy="547.572" rx="1.849" ry="1.568"/>
											<ellipse fill="#EFEEE8" cx="830.74" cy="547.572" rx="1.851" ry="1.568"/>
											<ellipse fill="#EFEEE8" cx="844.601" cy="547.572" rx="1.848" ry="1.568"/>
											<path fill="#EFEEE8" d="M860.308,547.572c0,0.861-0.823,1.566-1.85,1.566c-1.019,0-1.849-0.703-1.849-1.566
												c0-0.864,0.828-1.565,1.849-1.565C859.483,546.004,860.308,546.703,860.308,547.572z"/>
										</g>
										<ellipse fill="#EFEEE8" cx="872.322" cy="547.572" rx="1.851" ry="1.568"/>
									</g>
									<g>
										<g>
											<ellipse fill="#EFEEE8" cx="712.924" cy="555.416" rx="1.85" ry="1.568"/>
											<ellipse fill="#EFEEE8" cx="726.782" cy="555.416" rx="1.853" ry="1.568"/>
											<path fill="#EFEEE8" d="M742.49,555.416c0,0.861-0.827,1.564-1.849,1.564c-1.022,0-1.853-0.702-1.853-1.564
												c0-0.865,0.826-1.568,1.853-1.568C741.662,553.848,742.49,554.55,742.49,555.416z"/>
											<ellipse fill="#EFEEE8" cx="754.507" cy="555.416" rx="1.852" ry="1.568"/>
											<ellipse fill="#EFEEE8" cx="768.366" cy="555.416" rx="1.85" ry="1.568"/>
											<ellipse fill="#EFEEE8" cx="782.225" cy="555.416" rx="1.851" ry="1.568"/>
											<ellipse fill="#EFEEE8" cx="796.09" cy="555.416" rx="1.849" ry="1.568"/>
											<ellipse fill="#EFEEE8" cx="809.946" cy="555.416" rx="1.854" ry="1.568"/>
											<ellipse fill="#EFEEE8" cx="823.81" cy="555.416" rx="1.851" ry="1.568"/>
											<path fill="#EFEEE8" d="M839.521,555.416c0,0.861-0.831,1.564-1.852,1.564c-1.021,0-1.851-0.702-1.851-1.564
												c0-0.865,0.824-1.568,1.851-1.568C838.688,553.848,839.521,554.55,839.521,555.416z"/>
											<ellipse fill="#EFEEE8" cx="851.531" cy="555.416" rx="1.85" ry="1.568"/>
											<ellipse fill="#EFEEE8" cx="865.392" cy="555.416" rx="1.849" ry="1.568"/>
										</g>
										<ellipse fill="#EFEEE8" cx="879.257" cy="555.416" rx="1.847" ry="1.568"/>
									</g>
									<g>
										<g>
											<ellipse fill="#EFEEE8" cx="705.991" cy="563.259" rx="1.852" ry="1.57"/>
											<ellipse fill="#EFEEE8" cx="719.852" cy="563.259" rx="1.852" ry="1.57"/>
											<ellipse fill="#EFEEE8" cx="733.714" cy="563.259" rx="1.854" ry="1.57"/>
											<ellipse fill="#EFEEE8" cx="747.573" cy="563.259" rx="1.852" ry="1.57"/>
											<ellipse fill="#EFEEE8" cx="761.435" cy="563.259" rx="1.85" ry="1.57"/>
											<path fill="#EFEEE8" d="M777.143,563.258c0,0.863-0.824,1.568-1.845,1.568c-1.022,0-1.854-0.702-1.854-1.568
												c0-0.865,0.825-1.565,1.854-1.565C776.316,561.691,777.143,562.393,777.143,563.258z"/>
											<ellipse fill="#EFEEE8" cx="789.157" cy="563.259" rx="1.852" ry="1.57"/>
											<ellipse fill="#EFEEE8" cx="803.017" cy="563.259" rx="1.851" ry="1.57"/>
											<ellipse fill="#EFEEE8" cx="816.881" cy="563.259" rx="1.849" ry="1.57"/>
											<ellipse fill="#EFEEE8" cx="830.74" cy="563.259" rx="1.851" ry="1.57"/>
											<ellipse fill="#EFEEE8" cx="844.601" cy="563.259" rx="1.848" ry="1.57"/>
											<path fill="#EFEEE8" d="M860.308,563.258c0,0.863-0.823,1.568-1.85,1.568c-1.019,0-1.849-0.702-1.849-1.568
												c0-0.865,0.828-1.565,1.849-1.565C859.483,561.691,860.308,562.393,860.308,563.258z"/>
										</g>
										<ellipse fill="#EFEEE8" cx="872.322" cy="563.259" rx="1.851" ry="1.57"/>
									</g>
									<g>
										<g>
											<ellipse fill="#EFEEE8" cx="712.924" cy="571.104" rx="1.85" ry="1.568"/>
											<ellipse fill="#EFEEE8" cx="726.782" cy="571.104" rx="1.853" ry="1.568"/>
											<path fill="#EFEEE8" d="M742.49,571.104c0,0.864-0.827,1.568-1.849,1.568c-1.022,0-1.853-0.703-1.853-1.568
												c0-0.866,0.826-1.567,1.853-1.567C741.662,569.532,742.49,570.236,742.49,571.104z"/>
											<ellipse fill="#EFEEE8" cx="754.507" cy="571.104" rx="1.852" ry="1.568"/>
											<ellipse fill="#EFEEE8" cx="768.366" cy="571.104" rx="1.85" ry="1.568"/>
											<ellipse fill="#EFEEE8" cx="782.225" cy="571.104" rx="1.851" ry="1.568"/>
											<ellipse fill="#EFEEE8" cx="796.09" cy="571.104" rx="1.849" ry="1.568"/>
											<ellipse fill="#EFEEE8" cx="809.946" cy="571.104" rx="1.854" ry="1.568"/>
											<ellipse fill="#EFEEE8" cx="823.81" cy="571.104" rx="1.851" ry="1.568"/>
											<path fill="#EFEEE8" d="M839.521,571.104c0,0.864-0.831,1.568-1.852,1.568c-1.021,0-1.851-0.703-1.851-1.568
												c0-0.866,0.824-1.567,1.851-1.567C838.688,569.532,839.521,570.236,839.521,571.104z"/>
											<ellipse fill="#EFEEE8" cx="851.531" cy="571.104" rx="1.85" ry="1.568"/>
											<ellipse fill="#EFEEE8" cx="865.392" cy="571.104" rx="1.849" ry="1.568"/>
										</g>
										<ellipse fill="#EFEEE8" cx="879.257" cy="571.104" rx="1.847" ry="1.568"/>
									</g>
								</g>
							</g>
						</g>
					</g>
				</g>
			</g>
		</g>
	</g>
</g>
<path fill="#E6E7E8" d="M1218.252,215.812c0-2.551-2.187-4.918-5.906-4.918h-269.66c-3.729,0-6.528,2.367-6.528,4.918v505.123
	c0,2.551,2.806,4.62,6.528,4.62h269.659c3.725,0,5.905-2.069,5.905-4.62L1218.252,215.812L1218.252,215.812z"/>
<rect x="935.5" y="360.153" fill="#555455" width="283.396" height="5.162"/>
<g>
	<path fill="#828181" d="M959.097,352.692c0,0-2.539-35.826-3.204-38.28c-0.63-2.339-1.484-8.833-4.73-9.366
		c0,0-0.171-0.04-0.252-0.029c-0.087-0.007-0.247,0.042-0.247,0.042c-3.181,0.691-3.351,7.212-3.73,9.575
		c-0.408,2.479,0.806,38.343,0.806,38.343c0.809,1.014,4.212,1.188,5.504,1.214l0.002,0.021c0,0,0.095-0.005,0.25-0.018
		c0.153,0.002,0.247,0.002,0.247,0.002l-0.004-0.021C955.018,354.081,958.396,353.742,959.097,352.692z"/>
</g>
<g>
	<path fill="#828181" d="M947.386,374.531c0,0,0.281,62.903,0.785,67.236c0.487,4.126,0.93,15.548,4.136,16.632
		c0,0,0.169,0.076,0.253,0.064c0.082,0.016,0.249-0.063,0.249-0.063c3.221-1.064,3.802-12.48,4.338-16.605
		c0.56-4.329,1.604-67.229,1.604-67.229c-0.737-1.813-4.134-2.271-5.422-2.383v-0.032c0,0-0.092,0.003-0.247,0.016
		c-0.154-0.014-0.255-0.016-0.255-0.016v0.03C951.55,372.281,948.148,372.724,947.386,374.531z"/>
</g>
</svg>
