<?xml version="1.0" encoding="utf-8"?>
<!-- Generator: Adobe Illustrator 16.0.0, SVG Export Plug-In . SVG Version: 6.00 Build 0)  -->
<!DOCTYPE svg PUBLIC "-//W3C//DTD SVG 1.1//EN" "http://www.w3.org/Graphics/SVG/1.1/DTD/svg11.dtd">
<svg version="1.1" id="Layer_1" xmlns="http://www.w3.org/2000/svg" xmlns:xlink="http://www.w3.org/1999/xlink" x="0px" y="0px"
	 width="206.105px" height="602.189px" viewBox="0 0 206.105 602.189" enable-background="new 0 0 206.105 602.189"
	 xml:space="preserve">
<g display="none">
	<path display="inline" fill="#392913" d="M150.316,567.833c0,0,2.604,4.532,13.188,3.514c10.582-1.021,17.975-2.311,21.385,1.794
		c3.406,4.104-1.284,22.889-1.284,22.889s-39.438,5.744-58.931-3.786c0,0-7.168,6.58-10.197,2.496
		c-3.028-4.087,1.302-29.604,1.302-29.604L150.316,567.833z"/>
	<path display="inline" fill="#392913" d="M50.089,565.537c0,0-6.314,5.115-17.253,6.837c-10.935,1.723-17.115,0.77-20.441,3.147
		c-3.329,2.377-3.329,18.065-2.854,21.396c0.475,3.326,38.686,9.984,61.896,0c0,0,11.322,2.376,13.702-1.427
		c2.376-3.805,0.848-29.048-2.858-29.953C78.573,564.629,50.089,565.537,50.089,565.537"/>
	<g display="inline">
		<path fill="#2A4452" d="M38.108,335.036l6.881,233.896c0,0,22.967,8.394,40.547,1.549c0,0,0-33.123,4.535-64.918
			s20.979-98.257,20.41-104.881c0,0,2.839-9.274,3.972,4.857c1.136,14.13,1.505,65.23-1.666,82.103
			c-2.516,13.374,1.1,78.201,1.1,78.201s38.891,12.58,42.296-1.552c0,0,17.164-89.137,18.141-98.981
			c1.193-12.099,2.265-107.642,0-110.731c-2.27-3.092-6-20.139-6-20.139l-80.517,3.532L38.108,335.036z"/>
	</g>
	<path display="inline" fill="#ECEDED" d="M129.435,11.066c0,0,43.859,7.845,52.774,33.163
		c8.915,25.317-11.411,57.767-11.411,57.767s-24.604,2.14-27.101,0C141.202,99.856,129.435,11.066,129.435,11.066"/>
	<path display="inline" fill="#ECEDED" d="M59.544,11.066c0,0-31.379-1.07-43.859,20.326c-12.48,21.395,1.782,56.696,6.774,64.186
		c4.992,7.488,13.907,16.045,18.899,11.41C46.351,102.352,59.544,11.066,59.544,11.066"/>
	<path display="inline" fill="#F3CBB6" d="M96.272,0.012C77.702,0.337,48.489,5.36,40.646,26.042
		c-7.847,20.683-12.838,44.573-4.992,77.022h-3.948c0,0-2.114-14.977-7.105-18.542C19.608,80.956,2.134,80.244,2.847,97.36
		c0.713,17.116,16.047,21.751,28.526,13.55c0,0,7.06,32.614,11.478,36.116c24.805,19.667,98.356,16.778,110.476,4.488
		c7.615-7.724,16.047-37.396,14.62-45.953c0,0,1.07,9.628,9.628,10.341c8.559,0.713,16.76-6.775,16.403-19.255
		c-0.356-12.48-8.201-19.256-15.333-18.899c-7.132,0.357-14.62,10.099-12.48,20.326l-4.636,1.426c0,0,4.278-31.022,1.426-49.564
		C160.103,31.393,136.923-0.702,96.272,0.012"/>
	<path display="inline" fill="#F6F6F6" d="M113.389,53.813c0,0,1.068-11.696,2.496-12.865c1.427-1.17,26.857,0.301,37.44,12.865
		l-3.209,4.679C150.117,58.492,131.575,51.182,113.389,53.813"/>
	<path display="inline" fill="#F6F6F6" d="M80.715,55.765c0,0-1.606-10.164-3.564-12.47c-2.505-1.091-22.627,0.264-35.659,10.029
		l3.565,6.235C45.056,59.56,59.319,54.68,80.715,55.765"/>
	<path display="inline" fill="#682A12" d="M77.451,130.343c0,0,22.561,6.013,41.304,0c0,0-5.248,14.322-18.784,15.224
		C86.435,146.469,78.146,135.754,77.451,130.343"/>
	<path display="inline" fill="#CB9785" d="M116.322,113.662c0,0,1.248,0.871,3.22,2.479c1.967,1.608,4.676,3.961,7.336,7.112
		c1.317,1.58,2.615,3.371,3.699,5.386c1.057,2.021,1.926,4.292,2.116,6.71c0.224,2.4-0.313,4.905-1.507,6.905
		c-1.166,2.025-2.818,3.598-4.523,4.771c0,0,0.168-0.181,0.492-0.535c0.336-0.337,0.803-0.872,1.375-1.594
		c0.557-0.73,1.214-1.66,1.771-2.854c0.568-1.181,1.033-2.635,1.132-4.304c0.254-3.352-1.174-7.421-3.921-11.474
		C124.784,122.187,120.921,117.994,116.322,113.662"/>
	<path display="inline" fill="#CB9785" d="M72.148,117.724c0,0-0.298,1.226-1.079,3.153c-0.791,1.907-1.9,4.579-3.17,7.637
		c-1.183,3.045-2.516,6.566-2.637,10.127c-0.011,0.88,0.084,1.75,0.302,2.576c0.234,0.819,0.64,1.566,1.161,2.224
		c1.091,1.29,2.678,2.125,4.26,2.646c0,0-0.197-0.027-0.579-0.083c-0.39-0.039-0.953-0.158-1.69-0.393
		c-0.713-0.265-1.633-0.635-2.498-1.436c-0.877-0.771-1.665-1.98-2.027-3.481c-0.719-3.034,0.099-6.75,1.646-10.549
		c0.775-1.918,1.758-3.887,2.859-5.929C69.782,122.159,71.079,120.092,72.148,117.724"/>
	<path display="inline" fill="#CB9785" d="M123.481,106.917c0,0,0.164,0.194,0.466,0.55c0.32,0.338,0.674,0.923,1.312,1.473
		c1.136,1.208,3.024,2.697,5.558,3.26c2.51,0.65,5.504,0.255,8.449-0.407c2.951-0.689,5.932-1.579,8.676-2.077
		c0,0-0.588,0.313-1.729,0.828c-1.141,0.519-2.814,1.28-5.07,2.061c-1.138,0.372-2.414,0.769-3.873,1.024
		c-1.444,0.29-3.096,0.407-4.849,0.188c-1.742-0.216-3.623-0.862-5.172-2.118C125.686,110.472,124.451,108.791,123.481,106.917"/>
	<path display="inline" fill="#CB9785" d="M58.19,110.089c0,0,0.203,0.098,0.574,0.277c0.363,0.191,0.901,0.443,1.606,0.684
		c1.392,0.509,3.42,1.009,5.767,1.087c2.339,0.103,4.989-0.235,7.403-1.22c2.447-0.923,4.488-2.67,5.854-4.7
		c0,0-0.151,0.556-0.623,1.584c-0.529,0.979-1.529,2.42-3.396,3.617c-1.844,1.174-4.498,2.122-7.604,2.057
		C64.714,113.456,61.091,112.53,58.19,110.089"/>
	<path display="inline" fill="#CB9785" d="M59.231,27.704c0,0,0.583,0.162,1.655,0.459c1.072,0.284,2.656,0.601,4.654,0.833
		c2.006,0.188,4.427,0.253,7.146,0.073c2.717-0.173,5.723-0.584,8.926-1.117c3.206-0.523,6.605-1.183,10.168-1.689
		c1.78-0.313,3.615-0.308,5.452-0.439c1.839-0.074,3.695-0.275,5.544-0.166c1.848,0.053,3.701,0.107,5.539,0.16
		c1.834,0.1,3.649,0.277,5.441,0.421c3.59,0.286,7.057,0.711,10.34,1.102c0,0-1.563-0.021-4.535-0.063
		c-1.484-0.038-3.32-0.084-5.49-0.139c-2.17-0.018-4.672-0.216-7.48-0.147c-1.401,0-2.885,0-4.442,0.001
		c-1.561-0.041-3.178,0.177-4.877,0.25c-1.695,0.141-3.48,0.12-5.304,0.43c-1.836,0.272-3.743,0.558-5.721,0.851
		c-3.959,0.598-8.231,1.262-12.821,1.405C68.862,30.084,63.918,29.585,59.231,27.704"/>
	<path display="inline" fill="#F3CBB6" d="M80.454,155.637c0,0-2.594,14.977,0,16.64c2.599,1.663,16.354,9.984,28.996,9.508
		c12.646-0.474,16.176-9.984,16.176-9.984s-3.903-16.162-4.461-19.491C120.606,148.979,80.454,155.637,80.454,155.637"/>
	<g display="inline">
		<path fill="#FFFFFF" d="M124.841,85.355c0,0,11.102-10.112,18.991,1.973C143.832,87.328,135.757,90.905,124.841,85.355z"/>
		<g>
			<path fill="#414A43" d="M127.917,82.874c0.886-2.786,4.153-2.689,6.087-1.965c1.932,0.724,2.776,2.273,1.907,4.901
				c-0.643,1.938-3.475,3.078-5.409,2.353C128.569,87.439,127.298,84.82,127.917,82.874z"/>
			<path fill="#252528" d="M130.231,83.504c0.301-0.865,1.732-1.029,2.604-0.705c0.863,0.329,1.21,1.281,0.908,2.146
				c-0.307,0.867-1.469,1.292-2.338,0.964C130.541,85.585,129.93,84.369,130.231,83.504"/>
			<path fill="#FFFFFF" d="M130.93,83.478c-0.145,0.232-0.528,0.204-0.731,0.064c-0.203-0.144-0.221-0.433-0.078-0.667
				c0.146-0.231,0.479-0.294,0.684-0.151C131.003,82.864,131.076,83.246,130.93,83.478z"/>
		</g>
		<g>
			<path fill="#E5B098" d="M143.832,87.328c0,0,1.183,6.49-1.229,9.867c-0.122,0.17-0.248,0.337-0.377,0.5
				c-4.604,5.83-13.964,7.56-17.387-12.34C135.757,90.905,143.832,87.328,143.832,87.328z"/>
			<path fill="#E5B098" d="M128.294,76.229c6.119-4.733,17.235-5.089,15.538,11.099c-7.891-12.085-18.991-1.973-18.991-1.973
				S124.62,79.067,128.294,76.229z"/>
		</g>
	</g>
	<g display="inline">
		<path fill="#FFFFFF" d="M75.31,85.27c0,0-11.285-10.546-23.495,3.329C51.814,88.599,66.062,91.374,75.31,85.27z"/>
		<g>
			<path fill="#414A43" d="M57.016,83.159c0.886-2.785,4.156-2.688,6.087-1.961c1.937,0.723,2.774,2.27,1.906,4.899
				c-0.642,1.939-3.474,3.078-5.404,2.354C57.669,87.725,56.403,85.106,57.016,83.159z"/>
			<path fill="#252528" d="M59.331,83.791c0.308-0.867,1.732-1.03,2.607-0.706c0.866,0.326,1.207,1.28,0.904,2.146
				c-0.306,0.868-1.466,1.292-2.336,0.964C59.64,85.871,59.028,84.655,59.331,83.791"/>
			<path fill="#FFFFFF" d="M60.036,83.763c-0.148,0.232-0.538,0.202-0.738,0.064c-0.202-0.143-0.218-0.434-0.076-0.667
				c0.148-0.229,0.479-0.292,0.683-0.152C60.107,83.149,60.175,83.533,60.036,83.763z"/>
		</g>
		<g>
			<path fill="#E5B098" d="M75.31,85.27c-4.473,17.653-14.81,17.766-20.228,12.952c-3.25-2.89-3.269-9.623-3.269-9.623
				S66.062,91.374,75.31,85.27z"/>
			<path fill="#E5B098" d="M51.814,88.599c0.477-15.566,13.452-17.313,20.042-13.318c4.479,2.716,3.453,9.989,3.453,9.989
				S64.024,74.724,51.814,88.599z"/>
		</g>
	</g>
	<path display="inline" fill="#E5B098" d="M82.368,115.917c-1.629,1.917-3.568,10.972,8.918,7.182c0,0,7.492,10.506,15.872-0.689
		c0,0,2.565,0.619,4.482,0.273c4.458-0.809,9.164-3.929-3.196-11.338c0,0-1.913-8.529-5.259-16.667
		c-1.006-2.447-2.821-5.63-3.934-5.616c-1.045,0.013-3.149-0.451-4.518,1.894c-2.665,4.563-4.902,6.679-7.373,21.466
		C87.362,112.419,84.165,113.803,82.368,115.917z"/>
	<g display="inline">
		<path fill="#F3CBB6" d="M195.405,354.147c0,0-1.497,26.675-0.3,31.096c1.191,4.422,0.896,8.22-1.491,11.011
			c-2.392,2.794-8.205,12.022-8.205,12.022s-4.046,5.425-20.175,4.263c0,0-9.036-4.654,7.358-8.057
			c0.664-0.137,3.479,0.036,3.991-0.317c2.191-1.516,2.685-8.508,2.685-8.508s0.004-6.908-4.477-6.21c0,0-2.392,5.646-1.792,7.736
			c0.597,2.095,0.299,10.645-7.169,7.619c0,0-1.062-7.786-1.046-10.235c0.035-4.502,1.344-16.458,1.944-17.623
			c0.595-1.161,6.479-5.805,10.064-8.131c0,0,0.984-2.566-0.211-13.036l6.274-5.117L195.405,354.147z"/>
		<path fill="#5C4B43" d="M195.294,365.837c0,0-16.328-4.347-18.814,1.236l-5.376-19.692l25.688-1.242L195.294,365.837z"/>
		<path fill="#6C5A50" d="M166.109,181.118c13.432,1.431,29.473,11.011,32.657,34.119c3.9,28.307,1.808,54.598,1.808,54.598
			l4.779,59.554c0,0,3.979,15.509-6.374,16.751c-10.354,1.239-31.646,4.129-36.425-2.696c-4.779-6.826-4.996-10.33-8.979-24.6
			c-3.98-14.27-3.186-89.951-3.186-89.951l-18.321-42.806l-6.443-14.286C125.626,171.8,163.146,180.803,166.109,181.118z"/>
	</g>
	<g display="inline">
		<path fill="#F3CBB6" d="M10.708,356.967c0,0,1.495,26.678,0.301,31.096c-1.194,4.421-0.896,8.222,1.494,11.01
			c2.39,2.792,8.519,12.149,8.519,12.149s3.354,6.404,19.483,5.242c0,0,8.777-4.164-7.614-7.563
			c-0.666-0.136-3.342-3.759-3.855-4.115c-2.189-1.516-1.244-5.617-1.244-5.617s-0.35-6.84,4.129-6.144c0,0,1.793,4.887,1.194,6.979
			c-0.597,2.095-0.296,10.645,7.173,7.618c0,0,1.062-7.785,1.041-10.234c-0.033-4.502-1.342-16.458-1.94-17.623
			c-0.597-1.161-4.58-5.346-8.164-7.672c0,0-2.888-3.028-1.693-13.495l-6.272-5.12L10.708,356.967z"/>
		<path fill="#5C4B43" d="M10.812,366.33c0,0,16.328-4.343,18.815,1.24l5.375-19.696l-25.688-1.238L10.812,366.33z"/>
		<path fill="#6C5A50" d="M40,181.614c-13.437,1.429-29.476,11.011-32.661,34.119c-3.901,28.306-1.807,54.598-1.807,54.598
			l-4.781,59.556c0,0-3.979,15.506,6.377,16.749c10.353,1.238,31.645,4.126,36.425-2.697c4.778-6.825,4.997-10.329,8.978-24.599
			c3.982-14.271,3.186-89.952,3.186-89.952l18.321-42.805l5.452-15.777C79.488,170.804,42.958,181.297,40,181.614z"/>
	</g>
	<path display="inline" fill="#847367" d="M125.626,171.8c0,0,47.65,31.479,39.688,78.016c0,0,35.847,85.095,3.188,103.71
		c0,0-46.197,25.931-131.431,0c0,0-31.383-15.501,8.444-99.27c0,0-1.589-56.407,33.975-83.451
		C79.488,170.804,101.729,185.763,125.626,171.8z"/>
	<g display="inline">
		<path fill="#CB9785" d="M118.317,130.496c0,0-9.367-1.077-12.072-0.639c-0.92,0.148-6.764,1.099-7.695,1.127
			c-0.958,0.03-10.692-1.409-11.651-1.413c-4.234-0.021-7.386,0.533-9.708,0.771c0,0,14.136,4.693,24.394,3.788
			C107.736,133.585,115.108,132.225,118.317,130.496z"/>
		<path fill="#E5B098" d="M117.534,132.76c0,0-12.072,22.179-39.563,1.031C77.972,133.791,101.075,166.58,117.534,132.76z"/>
	</g>
	<path display="inline" d="M134.743,58.632c-14.271,0-25.839,11.568-25.839,25.84c0,14.271,11.568,25.839,25.839,25.839
		c14.271,0,25.839-11.568,25.839-25.839C160.582,70.2,149.014,58.632,134.743,58.632z M134.743,104.269
		c-10.934,0-19.798-8.863-19.798-19.798c0-10.936,8.864-19.799,19.798-19.799c10.935,0,19.798,8.863,19.798,19.799
		C154.541,95.406,145.677,104.269,134.743,104.269z"/>
	<path display="inline" d="M62.313,58.632c-14.271,0-25.839,11.568-25.839,25.84c0,14.271,11.567,25.839,25.839,25.839
		c14.271,0,25.839-11.568,25.839-25.839C88.152,70.2,76.584,58.632,62.313,58.632z M62.313,104.269
		c-10.935,0-19.798-8.863-19.798-19.798c0-10.936,8.863-19.799,19.798-19.799c10.934,0,19.798,8.863,19.798,19.799
		C82.111,95.406,73.247,104.269,62.313,104.269z"/>
	<path display="inline" fill="#1D1D1B" d="M82.142,77.981c0,0,15.334-7.81,29.239,0v5.973c0,0-16.76-6.201-29.239,2.297V77.981z"/>
	<path display="inline" fill="#1D1D1B" d="M27.842,88.446l10.264,0.012v-5l-16.327-0.189c0,0,1.976,0.681,3.611,2.044
		C26.153,85.949,27.842,88.446,27.842,88.446z"/>
	<path display="inline" fill="#1D1D1B" d="M168.171,85.32l-11.065,0.137v-5l15.317-0.188c0,0-0.465,0.349-1.894,1.927
		C169.267,83.592,168.171,85.32,168.171,85.32z"/>
</g>
<g>
	<path fill="#9E9E9E" d="M33.23,24.796c-10.153,8.788-16.217,25.75-12.128,46.788c4.084,21.029,18.32,58.098-19.171,57.406
		c0,0,18.716,18.462,34.597,11.281c0,0-11.374,23.703-28,24.032c0,0,31.649,25.459,53.433,1.275c0,0,5.592,9.554,19.685,15.927
		c11.901,5.386,44.95,2.365,56.037-14.117c0,0,30.374,21.11,53.544,8.557c0,0-26.789-9.753-26.124-24.65
		c0,0,36.678-2.446,42.114-17.402c0,0-25.621-1.313-25.184-21.966c0.446-20.654,15.611-46.346-9.944-81.626
		C146.531-4.976,87.369-9.398,65.125,16.762C65.125,16.762,43.381,16.012,33.23,24.796z"/>
	<path fill="#F3CBB6" d="M162.438,322.753v-87.98c0-12.462-10.647-22.563-22.565-22.563c-32.028,0-21.494-37.077-21.494-37.077
		H84.617c0,0,9.328,37.077-21.495,37.077c-13.442,0-22.564,10.101-22.564,22.563v87.98c0,9.401,5.754,17.452,13.93,20.846
		c-6.469,10.14-10.272,22.458-10.272,35.756c-0.087,1.831,0.02,3.945,0.288,6.289c0.399,4.37,1.213,8.606,2.393,12.668
		c7.555,31.078,28.318,78.29,28.318,78.29c-9.426,19.447,10.864,85.759,10.864,85.759l-29.331,26.683
		c-4.047,2.34-7.638,4.305-7.638,6.725c0,2.421,0.004,6.948,6.21,6.948l0.101-0.02v0.02c10.672,0,45.472-18.236,45.472-18.236
		s33.097,17.73,45.812,18.21l0.136,0.026c0.064,0,0.119-0.01,0.188-0.012c0.065,0.002,0.14,0.012,0.205,0.012v-0.022
		c5.797-0.195,5.813-4.559,5.813-6.928c0-2.42-2.979-4.598-7.168-6.696l-30.086-26.352c0,0,19.287-64.844,10.774-86.118
		c0,0,34.798-74.684,32.216-97.247c0-13.296-3.807-25.616-10.273-35.754C156.685,340.205,162.438,332.154,162.438,322.753z"/>
	<path fill="#E5B098" d="M89.843,213.954c0.407,0.276,0.798,0.659,1.168,1.17c7.526,10.524,15.577,4.568,23.076-2.962
		c-0.515-7.471-0.675-17.178-0.19-29.833l-24.988,3.612C88.909,185.942,90.916,200.132,89.843,213.954z"/>
	<path fill="#F3CBB6" d="M165.656,100.829c0,32.73-13.848,69.354-39.115,81.067c-8.66,4.014-14.659,10.102-23.726,10.102
		c-9.072,0-14.562-6.256-23.479-9.667c-24.351-9.307-39.365-48.773-39.365-81.502c0-44.31,4.887-80.23,62.844-80.23
		C165.656,20.599,165.656,56.518,165.656,100.829z"/>
	<path fill="none" stroke="#A3897A" stroke-width="1.6701" stroke-miterlimit="10" d="M58.744,242.598l3.079,6.686
		c0,0-13.769,16.408-3.079,29.78l9.85,35.254l-14.108,29.278"/>
	<path fill="none" stroke="#A3897A" stroke-width="1.6701" stroke-miterlimit="10" d="M143.435,242.598l-3.08,6.686
		c0,0,13.769,16.408,3.08,29.78l-9.854,35.254l14.107,29.278"/>
	<g>
		<polyline fill="none" stroke="#A3897A" stroke-width="1.6701" stroke-miterlimit="10" points="85.694,387.254 100.89,398.195 
			114.696,387.254 		"/>
		
			<line fill="none" stroke="#A3897A" stroke-width="1.6701" stroke-miterlimit="10" x1="100.89" y1="584.479" x2="100.89" y2="398.195"/>
	</g>
	
		<ellipse fill="none" stroke="#A3897A" stroke-width="1.6701" stroke-miterlimit="10" cx="100.89" cy="339.238" rx="2.188" ry="4.359"/>
	<path fill="#F1D2AD" d="M139.513,293.095l-5.933,21.223L139.513,293.095z"/>
	<path fill="#F1D2AD" d="M148.667,343.87l5.148,10.079C152.368,350.408,150.663,347.03,148.667,343.87z"/>
	<path fill="#F1D2AD" d="M148.667,343.87l-0.143-0.281c-0.006,0.004-0.008,0.008-0.017,0.01
		C148.565,343.686,148.614,343.784,148.667,343.87z"/>
	<path fill="#F1D2AD" d="M153.985,354.286l-0.17-0.337c0.047,0.115,0.097,0.229,0.141,0.345
		C153.961,354.294,153.985,354.286,153.985,354.286z"/>
	<path fill="#F1D2AD" d="M54.168,343.452l-3.565,7.197c0.005,0.004,0.011,0.004,0.018,0.008c1.159-2.449,2.436-4.814,3.868-7.059
		C54.377,343.552,54.273,343.499,54.168,343.452z"/>
	<path fill="#F1D2AD" d="M68.595,314.318l-14.427,29.134c0.106,0.047,0.209,0.103,0.32,0.146L68.595,314.318z"/>
	<path fill="#FEFBED" d="M148.565,343.686"/>
	<g>
		<path fill="none" d="M82.99,290.96c1.073,0.139,2.19,0.243,3.284,0.358C85.18,291.203,84.063,291.099,82.99,290.96z"/>
		<path fill="none" d="M50.796,258.378c0.036-0.076,0.076-0.146,0.113-0.219c-0.028,0.055-0.058,0.105-0.084,0.158
			C50.814,258.336,50.807,258.359,50.796,258.378z"/>
		<path fill="none" d="M54.985,251.832c-0.018,0.023-0.033,0.041-0.051,0.063C54.95,251.872,54.967,251.855,54.985,251.832z"/>
		<path fill="none" d="M89.53,291.669c1.386,0.122,2.818,0.196,4.237,0.284C92.348,291.865,90.916,291.791,89.53,291.669z"/>
		<path fill="none" d="M96.345,292.121c2.316,0.104,4.669,0.158,7.062,0.158C101.015,292.279,98.661,292.225,96.345,292.121z"/>
		<path fill="none" d="M51.989,256.158c-0.064,0.108-0.125,0.216-0.188,0.327C51.863,256.376,51.925,256.265,51.989,256.158z"/>
		<path fill="none" d="M56.299,250.296c0.007-0.008,0.015-0.018,0.022-0.025c-0.011,0.013-0.034,0.04-0.045,0.053
			C56.282,250.315,56.292,250.304,56.299,250.296z"/>
		<path fill="none" d="M54.229,284.7c0.061,0.019,0.126,0.034,0.185,0.053c0.171,0.013,0.345,0.124,0.516,0.152
			C54.704,284.836,54.455,284.768,54.229,284.7z"/>
		<path fill="none" d="M50.041,260.062c0-0.002,0.002-0.003,0.004-0.007c0.007-0.02,0.017-0.039,0.023-0.058
			C50.06,260.02,50.049,260.039,50.041,260.062z"/>
		<path fill="none" d="M56.695,249.871c-0.012,0.014-0.168,0.174-0.375,0.4h0.001C56.527,250.045,56.683,249.883,56.695,249.871z"/>
		<path fill="none" d="M159.188,271.974c-0.07,0.261-0.164,0.522-0.251,0.783c0.053-0.143,0.121-0.286,0.168-0.429
			C159.141,272.209,159.154,272.092,159.188,271.974z"/>
		<path fill="none" d="M159.672,269.565c-0.059,0.517-0.167,1.033-0.281,1.551c0.071-0.315,0.173-0.633,0.223-0.948
			C159.645,269.967,159.651,269.767,159.672,269.565z"/>
		<path fill="none" d="M159.768,267.211c-0.005-0.153,0.009-0.313,0-0.464c-0.009-0.182-0.045-0.359-0.058-0.539
			C159.734,266.542,159.761,266.874,159.768,267.211z"/>
		<path fill="none" d="M159.694,269.334c0.022-0.255,0.061-0.512,0.074-0.768c0.013-0.232-0.005-0.458,0-0.691
			C159.761,268.362,159.743,268.847,159.694,269.334z"/>
		<path fill="none" d="M159.57,264.949c-0.034-0.238-0.069-0.475-0.114-0.709C159.497,264.476,159.536,264.712,159.57,264.949z"/>
		<path fill="none" d="M76.74,290.04c0.816,0.136,1.665,0.247,2.495,0.37C78.406,290.285,77.555,290.176,76.74,290.04z"/>
		<path fill="none" d="M65.187,287.689c0.354,0.088,0.729,0.165,1.087,0.246C65.916,287.854,65.541,287.776,65.187,287.689z"/>
		<path fill="none" d="M70.802,288.937c0.575,0.118,1.181,0.218,1.765,0.333C71.982,289.155,71.377,289.055,70.802,288.937z"/>
		<path fill="none" d="M59.909,286.342c0.152,0.041,0.315,0.081,0.469,0.12C60.226,286.423,60.061,286.383,59.909,286.342z"/>
		<path fill="#FEFBED" d="M176.296,233.794c-0.04-0.692-0.034-1.376-0.148-2.048c-0.389-2.29-1.162-4.466-2.332-6.483
			c-0.321-0.551-0.641-1.097-1.014-1.622c-1.382-1.968-3.107-3.745-5.104-5.285c-0.57-0.44-1.149-0.861-1.753-1.261
			c-4.669-3.054-10.455-4.885-16.532-4.885c-0.691,0-1.325-0.04-1.983-0.064l-9.376-0.034c-34.328,37.899-69.192,0.096-69.192,0.096
			h-7.452c-1.322,0-2.691,0.098-4.161,0.098c-7.242,0-13.423,1.995-18.058,5.36c-0.582,0.424-1.146,0.84-1.675,1.303
			c-1.911,1.664-3.473,3.578-4.668,5.687c-0.314,0.554-0.61,1.108-0.87,1.683c-0.977,2.159-1.51,4.48-1.688,6.915
			c-0.036,0.505-0.031,1.004-0.031,1.521v0.584v7.782v2.152v3.791v1.765v2.228v2.153v2.646v1.823v3.314v2.152v0.53v1.036v1.828
			v4.387v2.155v0.381v1.946v5.455v1.452v0.701v1.13v6.653v0.281c0-0.053,0.132-0.087,0.218-0.138c3.65,1.934,13.938,7,28.764,11.167
			l0.7,2.112l2.707,8.079c0,0-0.13,0.216-0.347,0.58c-0.226,0.382-0.549,0.93-0.97,1.648c-0.966,1.641-2.389,4.069-4.038,6.897
			c-0.312,0.531-0.631,1.084-0.958,1.646c-1.246,2.143-2.582,4.452-3.92,6.778c-0.315,0.55-0.628,1.097-0.939,1.646
			c-1.313,2.288-2.603,4.557-3.781,6.668c-0.318,0.562-0.623,1.114-0.924,1.647c-2.422,4.364-4.229,7.794-4.533,8.826
			c56.256,24.024,121.563,4.346,124.086,3.641c-1.063-2.141-3.941-7.166-7.322-12.948c-0.318-0.542-0.643-1.093-0.97-1.648
			c-1.248-2.123-2.534-4.313-3.824-6.484c-0.321-0.55-0.649-1.097-0.974-1.645c-1.37-2.305-2.706-4.556-3.944-6.631
			c-0.338-0.564-0.667-1.112-0.989-1.648c-1.665-2.796-3.094-5.173-4.055-6.775c-0.436-0.729-0.771-1.281-0.997-1.655
			c-0.201-0.344-0.325-0.542-0.325-0.542l2.861-8.194l0.753-2.157c9.142-2.771,18.492-6.575,27.933-11.649
			c-0.935-0.333-2.156-0.729-3.56-1.109c2.049,0.287,3.989,0.83,5.661,1.749c0.104-0.052-0.14-0.005-0.047-0.052l0.032-6.742v-1.132
			v-0.701v-1.45v-5.458v-1.944v-0.381v-2.154v-4.388v-1.828v-1.036v-0.53v-2.152v-3.314v-1.823v-2.646v-2.153v-2.227v-1.766v-3.791
			v-2.152L176.296,233.794z M54.229,284.7c0.226,0.068,0.475,0.136,0.701,0.206c-0.169-0.028-0.344-0.139-0.516-0.152
			C54.356,284.734,54.29,284.719,54.229,284.7z M50.041,260.062c0.008-0.022,0.02-0.042,0.027-0.065
			c-0.008,0.019-0.017,0.039-0.023,0.058C50.043,260.059,50.041,260.06,50.041,260.062z M56.695,249.871
			c-0.012,0.014-0.168,0.174-0.374,0.4H56.32c-0.007,0.008-0.016,0.019-0.022,0.025c-0.006,0.008-0.017,0.019-0.022,0.027
			c0.011-0.013,0.033-0.04,0.045-0.053C56.527,250.045,56.683,249.883,56.695,249.871z M54.933,251.894
			c0.018-0.022,0.033-0.04,0.051-0.063C54.967,251.855,54.95,251.872,54.933,251.894z M51.801,256.485
			c0.063-0.111,0.124-0.219,0.188-0.327C51.925,256.265,51.863,256.376,51.801,256.485z M50.796,258.378
			c0.011-0.019,0.019-0.042,0.028-0.062c0.027-0.053,0.057-0.104,0.084-0.158C50.872,258.232,50.832,258.301,50.796,258.378z
			 M103.407,292.279c-2.392,0-4.747-0.056-7.063-0.158C98.661,292.225,101.015,292.279,103.407,292.279z M93.767,291.953
			c-1.419-0.088-2.851-0.16-4.237-0.284C90.916,291.791,92.348,291.865,93.767,291.953z M86.274,291.322
			c-1.094-0.118-2.21-0.222-3.284-0.359C84.063,291.099,85.18,291.203,86.274,291.322z M79.236,290.41
			c-0.83-0.123-1.679-0.234-2.495-0.37C77.555,290.176,78.406,290.285,79.236,290.41z M72.567,289.27
			c-0.584-0.113-1.19-0.213-1.765-0.333C71.377,289.055,71.982,289.155,72.567,289.27z M66.275,287.935
			c-0.358-0.081-0.734-0.158-1.087-0.246C65.541,287.776,65.916,287.854,66.275,287.935z M60.378,286.462
			c-0.153-0.039-0.317-0.079-0.469-0.12C60.061,286.383,60.226,286.423,60.378,286.462z M159.188,271.974
			c-0.034,0.118-0.047,0.235-0.083,0.354c-0.047,0.143-0.115,0.286-0.168,0.429C159.024,272.495,159.118,272.235,159.188,271.974z
			 M159.672,269.565c-0.022,0.203-0.026,0.402-0.059,0.604c-0.05,0.314-0.151,0.632-0.223,0.948
			C159.505,270.598,159.613,270.081,159.672,269.565z M159.694,269.334c0.049-0.487,0.067-0.973,0.074-1.459
			c-0.005,0.232,0.013,0.458,0,0.691C159.755,268.823,159.717,269.078,159.694,269.334z M159.768,267.211
			c-0.007-0.337-0.034-0.668-0.058-1.002c0.013,0.179,0.049,0.356,0.058,0.539C159.777,266.898,159.763,267.058,159.768,267.211z
			 M159.456,264.24c0.045,0.235,0.08,0.472,0.114,0.709C159.536,264.712,159.497,264.476,159.456,264.24z"/>
	</g>
	<g>
		<g>
			<path fill="#6A7994" d="M102.601,398.195l-18.25-10.941L102.601,398.195l16.576-10.941L102.601,398.195V540.04h24.972
				c5.813-20.816,12.146-50.356,5.863-63.44c0,0,41.783-74.682,38.681-97.245c0-8.921-2.098-17.382-5.796-25.059
				c-0.742,0.227-67.829,20.386-124.085-3.639c-4.895,8.599-7.692,18.344-7.692,28.697c-0.106,1.831,0.023,3.945,0.345,6.289
				c0.48,4.37,1.459,8.606,2.875,12.668c9.071,31.078,34.001,78.29,34.001,78.29c-7.038,12.102-0.272,42.319,5.846,63.438h24.99
				V398.195z"/>
			<path fill="#91A7CB" d="M102.601,553.487h20.963c1.176-3.697,2.577-8.312,4.009-13.447h-24.972V553.487z"/>
			<path fill="#91A7CB" d="M102.601,553.487V540.04h-24.99c1.496,5.153,2.954,9.774,4.158,13.447H102.601z"/>
		</g>
		<polygon fill="#4A5871" points="118.204,387.971 116.845,386.54 100.914,397.053 83.336,386.514 82.059,387.995 99.851,398.662 
			99.851,553.481 102.039,553.481 102.039,398.637 		"/>
	</g>
	<g>
		<path fill="#B64F4A" d="M81.263,155.799c0,0,8.102,2.079,13.298,0c0,0,9.35-2.309,17.867,0.923c0,0,8.31,0.861,12.467-0.862
			c0,0-5.818,21.131-21.816,20.714C103.079,176.574,87.683,177.449,81.263,155.799z"/>
		<path fill="#F5F6F6" d="M85.285,158.275c0,0,19.322,5.402,34.935,0c0,0-0.623,10.18-17.142,10.803
			C103.079,169.077,88.609,169.077,85.285,158.275z"/>
	</g>
	<path fill="#9E1F63" d="M82.835,570.901c3.912,0,8.887-0.729,17.941-3.71v-5.768c-6.747,2.223-12.233,3.449-15.157,3.799
		c2.663-2.292,2.693-7.482,2.146-11.735h-6.018c0.355,2.81,0.373,6.662-0.114,7.687l-30.787,25.522
		c-1.47,0.833-6.577,3.515-6.577,8.527c-0.007-0.003-0.012-0.007-0.012-0.009l-0.003,1.938v3.363c0,0,1.229,3.813,7.339,3.813
		c0.3,0,0.604-0.008,0.921-0.025c6.399-0.351,18.233-4.69,48.262-18.056v-8.185c-3.956,1.761-8.156,3.617-12.374,5.456
		c-0.722-4.888-3.218-8.206-6.588-10.479c-1.183-0.799-2.417-1.339-3.62-1.706l1.023-0.847
		C80.167,570.742,81.35,570.901,82.835,570.901z M65.4,581.913c1.863,0.156,5.643,2.141,6.838,8.438
		c-1.573,0.64-3.087,1.237-4.558,1.81c-0.308-2.23-1.68-3.791-3.398-5.259c-0.879-0.747-1.854-1.302-2.837-1.712L65.4,581.913z
		 M52.043,597.024c-0.581,0.025-1.262-0.034-1.978-0.14c-0.087-2.523,2.663-4.88,4.01-5.599l2.121-1.757
		c1.757,0.108,5.56,1.545,5.684,4.798C57.457,595.902,53.958,596.918,52.043,597.024z M78.366,577.485
		c1.997,1.371,4.175,4.436,4.441,8.449c-1.487,0.636-2.964,1.262-4.426,1.875c-1.009-5.723-4.597-8.6-7.874-10.118l2.668-2.079
		C74.373,575.512,76.224,576.018,78.366,577.485z"/>
	<path fill="#9E1F63" d="M123.135,570.487l1.022,0.847c-1.204,0.367-2.438,0.905-3.621,1.706c-3.366,2.273-5.863,5.592-6.584,10.479
		c-4.22-1.839-8.417-3.695-12.381-5.456v8.185c30.034,13.365,41.869,17.705,48.268,18.056c0.314,0.02,0.618,0.025,0.923,0.025
		c6.105,0,7.34-3.813,7.34-3.813v-3.363l-0.002-1.938c-0.008,0.002-0.019,0.006-0.019,0.006c-0.004-5.01-5.113-7.691-6.574-8.524
		l-30.793-25.525c-0.486-1.021-0.469-4.874-0.109-7.684h-6.022c-0.547,4.251-0.519,9.443,2.149,11.733
		c-2.927-0.348-8.414-1.574-15.161-3.797v5.768c9.06,2.979,14.034,3.706,17.941,3.706
		C121.003,570.901,122.185,570.742,123.135,570.487z M140.908,585.187c-0.982,0.412-1.963,0.967-2.837,1.714
		c-1.724,1.468-3.097,3.028-3.401,5.259c-1.469-0.574-2.982-1.172-4.555-1.81c1.194-6.301,4.974-8.284,6.833-8.439L140.908,585.187z
		 M140.469,594.33c0.123-3.256,3.93-4.692,5.687-4.801l2.124,1.757c1.346,0.721,4.098,3.077,4.006,5.601
		c-0.706,0.105-1.396,0.165-1.977,0.138C148.388,596.918,144.895,595.902,140.469,594.33z M129.175,575.612l2.669,2.079
		c-3.278,1.519-6.864,4.394-7.878,10.118c-1.456-0.613-2.935-1.239-4.423-1.875c0.267-4.014,2.442-7.078,4.441-8.449
		C126.127,576.018,127.979,575.512,129.175,575.612z"/>
	<g>
		<path fill="#3C2517" d="M144.718,84.087c7.688,0.632,11.112,2.433,12.003,2.921c5.44,2.986,8.351,7.463,9.651,9.834
			c-9.192-8.791-17.231-9.986-20.734-10.184c-3.446-0.193-10.148,0.146-17.354,2.538c-4.897,1.627-10.305,4.292-11.305,2.894
			c-0.32-0.446-0.067-1.131,0.045-1.434C118.917,85.694,132.687,83.1,144.718,84.087z"/>
		<path fill="#939598" d="M64.432,84.087c-7.688,0.632-11.112,2.433-12.003,2.921c-5.44,2.986-8.348,7.463-9.651,9.834
			c9.192-8.791,17.23-9.986,20.735-10.184c3.446-0.193,10.148,0.146,17.352,2.538c4.899,1.627,10.307,4.292,11.309,2.894
			c0.317-0.446,0.068-1.131-0.048-1.434C90.234,85.694,76.464,83.1,64.432,84.087z"/>
	</g>
	<path fill="#F3CBB6" d="M163.393,104.89c-5.201,8.969-5.698,25.994-1.409,30.139c4.29,4.145,11.982,0.239,17.187-8.729
		c5.2-8.964,4.87-20.532,0.582-24.678C175.465,97.477,168.594,95.928,163.393,104.89z"/>
	<path fill="#F3CBB6" d="M45.391,106.714c5.2,8.968,5.697,25.995,1.409,30.138c-4.292,4.144-11.985,0.24-17.189-8.73
		c-5.202-8.966-4.869-20.533-0.58-24.678C33.316,99.301,40.187,97.749,45.391,106.714z"/>
	<polygon fill="#CB9785" points="161.64,107.345 161.566,105.91 155.212,107.678 	"/>
	<path fill="#B0B0B0" d="M170.249,56.854c4.387,10.703,3.756,21.361,3.756,21.393l0,0c0,7.676-1.528,18.138-7.633,27.585
		c0.178-1.345-46.72-12.805-59.566-18.307C90.8,80.671,83.798,70.305,79.723,65.084c-1.877,12.747-6.937,18.102-11.251,20.688
		c-7.342,4.398-14.614,2.583-20.287,8.148c-4.342,4.258-4.951,10.241-4.82,14.516c-2.806-4.489-15.246-25.474-7.369-49.701
		c8.788-27.034,38.438-44.501,68.276-44.195C138.231,14.888,162.651,38.308,170.249,56.854z"/>
	<g>
		<path fill="#F8FCFA" d="M153.497,108.274c0,0-9.241,9.146-16.091,9.146c-6.846,0-14.994-6.95-14.994-6.95
			s8.24-10.569,15.085-10.569C144.344,99.901,153.497,108.274,153.497,108.274z"/>
		<circle fill="#8B5E3C" cx="137.407" cy="109.306" r="6.757"/>
		<path d="M140.429,109.305c0,1.669-1.356,3.023-3.022,3.023c-1.671,0-3.025-1.354-3.025-3.023c0-1.671,1.354-3.023,3.025-3.023
			C139.073,106.282,140.429,107.635,140.429,109.305z"/>
		<circle fill="#F8FCFA" cx="140.297" cy="107.722" r="1.889"/>
	</g>
	<g>
		<path fill="#F8FCFA" d="M55.577,109.305c0,0,9.651,10.02,16.497,10.02c6.85,0,14.879-8.353,14.879-8.353
			s-8.313-9.712-15.162-9.712C64.944,101.26,55.577,109.305,55.577,109.305z"/>
		<circle fill="#8B5E3C" cx="71.882" cy="110.663" r="6.757"/>
		<circle cx="71.882" cy="110.663" r="3.021"/>
		<circle fill="#F8FCFA" cx="73.965" cy="108.274" r="1.89"/>
	</g>
	<polygon fill="#CB9785" points="161.155,112.543 161.635,111.191 155.572,109.031 	"/>
	<polygon fill="#CB9785" points="47.43,108.783 47.505,107.349 53.861,109.115 	"/>
	<polygon fill="#CB9785" points="47.918,113.98 47.436,112.628 53.501,110.47 	"/>
	<path fill="#CB9785" d="M123.76,150.569c3.92-0.192,7.203,2.156,7.366,5.261c0,0-1.218-1.85-2.982-3.046
		C127.125,152.097,123.76,150.569,123.76,150.569z"/>
	<path fill="#CB9785" d="M82.267,150.569c-3.919-0.192-7.201,2.156-7.366,5.261c0,0,1.218-1.85,2.984-3.046
		C78.902,152.097,82.267,150.569,82.267,150.569z"/>
	<path fill="none" stroke="#BCBEC0" stroke-width="1.6701" stroke-miterlimit="10" d="M88.98,47.976
		c0,21.82,34.41,39.479,76.932,39.479"/>
	<path fill="none" stroke="#BCBEC0" stroke-width="1.6701" stroke-miterlimit="10" d="M98.596,36.437
		c0,21.316,28.554,38.566,63.842,38.566"/>
	<path fill="none" stroke="#BCBEC0" stroke-width="1.6701" stroke-miterlimit="10" d="M68.862,49.494
		c0,17.96-11.663,32.495-26.076,32.495"/>
	<path fill="none" stroke="#BCBEC0" stroke-width="1.6701" stroke-miterlimit="10" d="M55.823,47.976
		c0,12.589-7.09,22.775-15.854,22.775"/>
	<path fill="#CB9785" d="M103.692,180.339c-1.932,0.013-3.317-0.131-4.76,0.205c-2.549,0.591-4.518,1.812-4.518,1.812
		c3.404-3.625,7.023-4.235,10.831-3.24c1.973,0.517,5.862,1.929,6.198,3.277C111.444,182.392,106.069,180.32,103.692,180.339z"/>
	<path fill="#CB9785" d="M157.92,129.947c0,0,0.028,0.748,0.07,1.994c0.049,0.633-0.057,1.378-0.131,2.228
		c-0.042,0.86-0.276,1.78-0.514,2.776c-0.096,0.502-0.279,0.999-0.481,1.5c-0.198,0.502-0.386,1.023-0.618,1.535
		c-0.569,0.968-1.066,2.031-1.848,2.9c-1.381,1.878-3.33,3.237-5.113,4.186c0,0,0.308-0.395,0.92-1.067
		c0.641-0.636,1.46-1.686,2.483-2.989C154.659,140.322,156.888,136.132,157.92,129.947"/>
	<path fill="#CB9785" d="M47.774,126.448c0,0,0.017,0.181,0.047,0.504c0.025,0.325,0.069,0.801,0.153,1.386
		c0.155,1.17,0.437,2.802,0.992,4.574c0.541,1.777,1.4,3.673,2.61,5.324c1.205,1.657,2.811,2.984,4.5,3.959
		c0.073-0.076-2.057,0.082-4.735-2.276c-1.28-1.179-2.552-3.005-3.241-5.365C47.384,132.219,47.2,129.388,47.774,126.448"/>
	<path fill="#E5B098" d="M92.52,142.123c-1.259,1.646-0.808,5.646,6.086,4.684c0,0,4.774,7.232,10.422-0.265
		c0,0,13.853-2.345,0.988-7.5c0,0-3.688-21.565-6.563-21.62c-3.656-0.073-5.461,12.069-7.281,22.081
		C96.174,139.502,93.222,141.203,92.52,142.123z"/>
	<path fill="#D39785" d="M55.577,109.305c0,0,14.304,27.378,31.376,1.667C72.074,126.177,55.577,109.305,55.577,109.305z"/>
	<path fill="#D39785" d="M153.644,108.662c0,0-13.348,25.768-31.378,1.667C139.252,124.094,153.644,108.662,153.644,108.662z"/>
	<path fill="#E5B098" d="M80.67,102.548c-7.623-4.218-17.495-6.332-25.093,6.756c21.451-10.429,31.376,1.667,31.376,1.667
		S86.088,105.543,80.67,102.548z"/>
	<path fill="#E5B098" d="M129.004,101.308c7.621-4.216,16.896-6.121,24.495,6.966c-21.452-10.428-30.776,1.458-30.776,1.458
		S123.585,104.306,129.004,101.308z"/>
	<path fill="#AA1E2E" d="M155.08,89.424h-32.118c-7.339,0-13.308,5.967-13.308,13.304v0.869c-4.213-0.857-8.056-0.503-10.776,0.044
		v-0.913c0-7.336-5.967-13.304-13.305-13.304H53.455c-7.335,0-13.306,5.967-13.306,13.304v15.487
		c0,7.335,5.971,13.304,13.306,13.304h32.119c7.337,0,13.305-5.969,13.305-13.304v-7.266c2.062-0.561,6.29-1.343,10.776-0.024v7.291
		c0,7.335,5.97,13.304,13.307,13.304h32.12c7.338,0,13.305-5.969,13.305-13.304v-15.486
		C168.385,95.391,162.418,89.424,155.08,89.424z M93.538,118.215c0,4.389-3.573,7.961-7.964,7.961H53.455
		c-4.391,0-7.963-3.573-7.963-7.961v-15.486c0-4.39,3.573-7.963,7.963-7.963h32.119c4.39,0,7.964,3.573,7.964,7.963V118.215z
		 M163.042,118.215c0,4.389-3.571,7.961-7.962,7.961h-32.118c-4.392,0-7.964-3.573-7.964-7.961v-15.486
		c0-4.39,3.572-7.963,7.964-7.963h32.118c4.391,0,7.962,3.573,7.962,7.963V118.215z"/>
	<path fill="#FDB515" d="M105.334,260.062c-0.843,0-1.699-0.034-2.568-0.105c-29.889-2.383-33.833-46.404-33.905-48.177l5.097-1.6
		c0.017,0.384,4.452,42.069,29.265,44.047c11.016,0.881,16.731-5.087,19.582-10.249c5.45-9.859,8.271-26.289,8.321-32.915
		l5.423,0.997c0,11.269-1.952,22.471-8.712,34.7C123.057,255.403,115.131,260.062,105.334,260.062z"/>
</g>
</svg>
