<?xml version="1.0" encoding="utf-8"?>
<!-- Generator: Adobe Illustrator 16.0.0, SVG Export Plug-In . SVG Version: 6.00 Build 0)  -->
<!DOCTYPE svg PUBLIC "-//W3C//DTD SVG 1.1//EN" "http://www.w3.org/Graphics/SVG/1.1/DTD/svg11.dtd">
<svg version="1.1" id="Layer_1" xmlns="http://www.w3.org/2000/svg" xmlns:xlink="http://www.w3.org/1999/xlink" x="0px" y="0px"
	 width="1920px" height="1080px" viewBox="-310 -240 1920 1080" enable-background="new -310 -240 1920 1080" xml:space="preserve">
<rect x="-307.621" y="-309.741" fill="#E4DBCD" width="1917.621" height="1412.472"/>
<g>
	<path fill="#FCCAB4" d="M1294.941,645.464c-0.104,1.17,51.543-5.92,51.543-5.92s-7.154-27.367,11.328-36.73
		c0,0-19.448-10.872-19.678-35.639c0,0-24.453-2.94-33.724-15.049l-57.549,2.102l4.795-38.358l24.336-10.859
		c0,0,21.811-5.896,73.305,10.801c40.416,13.113,36.651,5.403,51.57,47.461c9.814,27.7,42.801,85.721,46.124,94.836
		c3.319,9.128-9.366,27.479-20.798,47.581c-11.43,20.108-63.948,129.526-67.578,147.364c-3.624,17.834-68.362,9.535-68.362,9.535
		L1294.941,645.464z"/>
	<path fill="#FCCAB4" d="M5.059,632.767c0.103,1.167-51.542-5.922-51.542-5.922s7.149-27.364-11.329-36.732
		c0,0,19.445-10.866,19.681-35.631c0,0,24.45-2.942,33.722-15.056l57.548,2.104l-4.794-38.356l-24.34-10.863
		c0,0-21.812-5.896-73.302,10.802c-40.417,13.111-36.655,5.403-51.57,47.464c-9.82,27.695-42.802,85.713-46.124,94.834
		c-3.322,9.126,9.362,27.478,20.796,47.585c11.427,20.104,63.947,129.521,67.578,147.36c3.624,17.833,68.361,9.537,68.361,9.537
		L5.059,632.767z"/>
	<g>
		<path fill="#754C29" d="M1349.594,1228.316c0,46.459-49.898,84.103-111.437,84.103H62.972
			c-61.545,0-111.438-37.644-111.438-84.103V-66.384c0-46.451,49.896-84.102,111.438-84.102H1238.16
			c61.537,0,111.437,37.651,111.437,84.102L1349.594,1228.316L1349.594,1228.316z"/>
		<rect x="11.096" y="-81.364" fill="#FFFFFF" width="1278.94" height="1301.217"/>
	</g>
	<path fill="#818181" d="M732.03-161.753v-11.091c0-12.78-9.863-23.098-21.744-23.098h-119.44
		c-11.886,0-21.742,10.316-21.742,23.098v11.091H732.03z"/>
	<path fill="#818181" d="M784.497-162.635h-43.192h-9.275H569.102h-6.813h-45.656c-11.89,0-21.743,10.319-21.743,22.942v88.702
		c0,12.631,9.856,23.099,21.743,23.099h267.864c11.887,0,21.742-10.466,21.742-23.099v-88.7
		C806.241-152.316,796.384-162.635,784.497-162.635L784.497-162.635z"/>
	<path fill="#FCCAB4" d="M50.67,478.867c1.976,13.595,17.975,171.606,18.818,201.923c0.842,30.331-11.118,62.827-17.737,83.023
		c-6.617,20.207,0.644,99.16,1.796,111.544c1.152,12.375-102.773-28.498-102.773-28.498l-20.294-184.216l69.715-54.108
		c0,0,2.844-65.686,3.226-90.935c0.378-25.249,7.411-54.955,25.012-57.449C49.542,457.175,50.67,478.867,50.67,478.867z"/>
	<path fill="#FCCAB4" d="M1253.055,507.967c-2.039,12.561-18.587,158.523-19.46,186.534c-0.873,28.012,11.493,58.03,18.344,76.696
		c6.845,18.664-0.672,91.597-1.857,103.038c-1.188,11.433,106.283-26.322,106.283-26.322l20.987-170.182l-72.102-49.979
		c0,0-2.938-60.671-3.333-84.005c-0.392-23.327-7.663-50.767-25.865-53.071C1254.221,487.929,1253.055,507.967,1253.055,507.967z"/>
</g>
</svg>
