<?xml version="1.0" encoding="utf-8"?>
<!-- Generator: Adobe Illustrator 16.0.0, SVG Export Plug-In . SVG Version: 6.00 Build 0)  -->
<!DOCTYPE svg PUBLIC "-//W3C//DTD SVG 1.1//EN" "http://www.w3.org/Graphics/SVG/1.1/DTD/svg11.dtd">
<svg version="1.1" id="Layer_1" xmlns="http://www.w3.org/2000/svg" xmlns:xlink="http://www.w3.org/1999/xlink" x="0px" y="0px"
	 width="1350px" height="600px" viewBox="0 100 1350 600" enable-background="new 0 100 1350 600" xml:space="preserve">
<rect x="-1.5" y="98.5" fill="#F7FDEA" width="1354.5" height="503.5"/>
<rect x="-1" y="602" fill="#E4DBCD" width="1354" height="104.5"/>
<g>
	<g>
		<rect x="546.301" y="152.315" fill="#754C29" width="258.869" height="450.429"/>
		<g>
			<rect x="526.029" y="132.044" width="20.27" height="470.7"/>
			<path d="M546.845,603.289h-21.357V131.5h21.357V603.289L546.845,603.289z M526.573,602.202h19.185V132.588h-19.185V602.202z"/>
		</g>
		<g>
			<rect x="805.168" y="132.071" width="20.27" height="470.673"/>
			<path d="M825.983,603.289h-21.361V131.527h21.362L825.983,603.289L825.983,603.289z M805.713,602.202h19.182V132.615h-19.182
				V602.202L805.713,602.202z"/>
		</g>
		<g>
			<polygon points="526.029,132.044 546.301,152.315 805.168,152.315 825.464,132.044 			"/>
			<path d="M805.392,152.86H546.075l-21.356-21.36h302.063L805.392,152.86z M546.525,151.771h258.418l19.208-19.184H527.343
				L546.525,151.771z"/>
		</g>
	</g>
	<rect x="670.594" y="208.72" fill="none" width="13.094" height="32.733"/>
	<g enable-background="new    ">
		<path d="M677.863,205.573c0,0.559-0.1,1.056-0.293,1.495c-0.193,0.438-0.469,0.808-0.82,1.107c-0.355,0.301-0.779,0.53-1.277,0.69
			c-0.496,0.16-1.05,0.24-1.655,0.24c-0.318,0-0.621-0.021-0.908-0.06c-0.288-0.041-0.545-0.09-0.773-0.152
			c-0.229-0.062-0.416-0.122-0.563-0.183c-0.146-0.061-0.241-0.111-0.286-0.152c-0.046-0.04-0.079-0.083-0.1-0.13
			c-0.021-0.049-0.039-0.106-0.052-0.172c-0.014-0.066-0.021-0.15-0.026-0.25c-0.005-0.101-0.009-0.222-0.009-0.358
			c0-0.15,0.007-0.275,0.017-0.38c0.011-0.103,0.027-0.187,0.051-0.251c0.023-0.064,0.052-0.109,0.083-0.135
			c0.032-0.026,0.069-0.04,0.112-0.04c0.053,0,0.134,0.032,0.243,0.091c0.108,0.06,0.252,0.129,0.431,0.204s0.396,0.143,0.65,0.203
			c0.256,0.061,0.561,0.091,0.917,0.091c0.308,0,0.588-0.032,0.842-0.097c0.251-0.063,0.467-0.166,0.64-0.306
			c0.178-0.141,0.312-0.317,0.409-0.529c0.095-0.213,0.142-0.468,0.142-0.766c0-0.255-0.039-0.481-0.117-0.681
			c-0.082-0.2-0.208-0.368-0.376-0.505c-0.171-0.138-0.39-0.242-0.662-0.312c-0.272-0.069-0.601-0.103-0.989-0.103
			c-0.307,0-0.588,0.015-0.841,0.048c-0.251,0.032-0.49,0.049-0.713,0.049c-0.153,0-0.265-0.039-0.33-0.116
			c-0.066-0.077-0.1-0.22-0.1-0.426v-4.481c0-0.213,0.041-0.366,0.123-0.458s0.213-0.14,0.395-0.14h4.888
			c0.049,0,0.094,0.016,0.135,0.048c0.043,0.032,0.078,0.083,0.107,0.152c0.031,0.068,0.051,0.16,0.064,0.274s0.02,0.25,0.02,0.411
			c0,0.319-0.027,0.551-0.084,0.693c-0.055,0.145-0.135,0.216-0.242,0.216h-3.667v2.209c0.187-0.022,0.372-0.035,0.554-0.04
			c0.183-0.006,0.376-0.009,0.578-0.009c0.558,0,1.054,0.065,1.487,0.197c0.436,0.13,0.797,0.32,1.092,0.574
			c0.297,0.253,0.521,0.567,0.674,0.941C677.787,204.644,677.863,205.079,677.863,205.573z"/>
	</g>
	<g>
		<g>
			<circle fill="#9D9FA2" cx="674.469" cy="218.585" r="3.005"/>
			<path fill="#47403D" d="M674.469,222.132c-1.956,0-3.547-1.592-3.547-3.548c0-1.958,1.591-3.55,3.547-3.55
				c1.958,0,3.55,1.591,3.55,3.55C678.02,220.542,676.428,222.132,674.469,222.132z M674.469,216.123
				c-1.356,0-2.459,1.104-2.459,2.463c0,1.356,1.103,2.461,2.459,2.461c1.357,0,2.462-1.105,2.462-2.461
				C676.932,217.227,675.826,216.123,674.469,216.123z"/>
		</g>
	</g>
	<g>
		<path d="M797.483,413.023c0,0.312-0.253,0.563-0.563,0.563H778.9c-0.311,0-0.563-0.252-0.563-0.563v-42.232
			c0-0.311,0.252-0.564,0.563-0.564h18.02c0.311,0,0.563,0.252,0.563,0.564V413.023L797.483,413.023z"/>
		<path fill="#F8F088" d="M789.447,397.567c0-0.944-0.765-1.71-1.706-1.71c-0.944,0-1.708,0.766-1.708,1.71
			c0,0.539,0.256,0.891,0.649,1.205l-0.333,2.426h2.782l-0.335-2.426C789.191,398.458,789.447,398.107,789.447,397.567z"/>
		<path stroke="#3C2415" stroke-width="0.5631" stroke-miterlimit="10" d="M790.444,379.466c0-1.702-1.04-2.763-2.672-2.763h-9.296
			c-1.632,0-3.235,1.061-3.235,2.763v8.516c0,1.702,1.604,3.361,3.235,3.361h9.296c1.631,0,2.672-1.659,2.672-3.361V379.466z"/>
		<path fill="#3C2415" d="M782.279,380.596c0-1.393-0.646-2.483-1.136-2.483h-2.775c-0.486,0-1.156,1.09-1.156,2.483v6.966
			c0,1.393,0.669,2.375,1.156,2.375h2.775c0.488,0,1.136-0.982,1.136-2.375V380.596z"/>
	</g>
</g>
</svg>
