<?xml version="1.0" encoding="utf-8"?>
<!-- Generator: Adobe Illustrator 16.0.0, SVG Export Plug-In . SVG Version: 6.00 Build 0)  -->
<!DOCTYPE svg PUBLIC "-//W3C//DTD SVG 1.1//EN" "http://www.w3.org/Graphics/SVG/1.1/DTD/svg11.dtd">
<svg version="1.1" id="Layer_1" xmlns="http://www.w3.org/2000/svg" xmlns:xlink="http://www.w3.org/1999/xlink" x="0px" y="0px"
	 width="1350px" height="600px" viewBox="0 0 1350 600" enable-background="new 0 0 1350 600" xml:space="preserve">
<rect x="-1" y="97" fill="#F7FDEA" width="1355" height="504"/>
<rect x="0" y="601" fill="#E4DBCD" width="1354" height="104.5"/>
<rect x="714.437" y="164.5" fill="#FFFFFF" width="61.063" height="436"/>
<g>
	<g>
		<g>
			<rect x="493.977" y="155.937" fill="#010101" width="20.003" height="444.891"/>
			<path fill="#010101" d="M514.519,601.345h-21.078V155.422h21.078V601.345z M494.514,600.314h18.931V156.451h-18.931V600.314z"/>
		</g>
		<g>
			<rect x="769.438" y="155.962" fill="#010101" width="20.005" height="444.867"/>
			<path fill="#010101" d="M789.98,601.345h-21.077V155.449h21.077V601.345z M769.976,600.314h18.932V156.476h-18.932V600.314z"/>
		</g>
		<g>
			<polygon fill="#010101" points="493.977,155.937 513.981,175.094 769.438,175.094 789.469,155.937 			"/>
			<path fill="#010101" d="M769.661,175.61h-255.9l-21.078-20.188h298.083L769.661,175.61z M514.202,174.583h255.014l18.959-18.131
				H495.273L514.202,174.583z"/>
		</g>
		<polygon fill="#764E2A" points="733.319,627.771 513.981,600.827 513.981,175.094 733.924,118.004 		"/>
	</g>
	<polygon fill="none" points="619.5,256.672 632.36,255.509 629.321,224.709 616.461,225.872 	"/>
	<g enable-background="new    ">
		<path fill="#010101" d="M625.016,234.138c0,0.528-0.095,0.999-0.287,1.414s-0.462,0.763-0.81,1.047
			c-0.351,0.284-0.771,0.501-1.26,0.652c-0.491,0.15-1.035,0.225-1.634,0.225c-0.313,0-0.614-0.018-0.896-0.057
			c-0.284-0.037-0.538-0.085-0.764-0.144c-0.225-0.057-0.411-0.114-0.555-0.173c-0.144-0.057-0.238-0.104-0.283-0.144
			c-0.044-0.037-0.077-0.079-0.098-0.124c-0.02-0.045-0.039-0.1-0.051-0.163c-0.014-0.063-0.022-0.143-0.028-0.238
			c-0.005-0.096-0.008-0.209-0.008-0.338c0-0.14,0.005-0.26,0.016-0.359c0.011-0.097,0.028-0.177,0.052-0.236
			c0.023-0.061,0.052-0.103,0.083-0.128c0.032-0.025,0.068-0.038,0.11-0.038c0.053,0,0.132,0.028,0.239,0.088
			c0.107,0.057,0.25,0.122,0.427,0.19c0.174,0.07,0.389,0.136,0.641,0.193c0.251,0.057,0.555,0.086,0.904,0.086
			c0.305,0,0.582-0.03,0.831-0.09c0.249-0.061,0.461-0.157,0.633-0.291c0.173-0.133,0.308-0.3,0.401-0.501
			c0.096-0.201,0.141-0.442,0.141-0.724c0-0.241-0.039-0.457-0.118-0.645c-0.078-0.188-0.2-0.349-0.369-0.478
			c-0.166-0.131-0.386-0.229-0.653-0.294s-0.592-0.098-0.976-0.098c-0.304,0-0.58,0.016-0.83,0.044
			c-0.25,0.03-0.483,0.045-0.704,0.045c-0.152,0-0.26-0.036-0.327-0.108c-0.065-0.073-0.1-0.208-0.1-0.404v-4.235
			c0-0.199,0.042-0.345,0.122-0.433c0.083-0.089,0.211-0.132,0.392-0.132h4.823c0.046,0,0.092,0.015,0.135,0.045
			c0.041,0.031,0.075,0.078,0.104,0.144c0.028,0.065,0.05,0.151,0.064,0.261c0.012,0.108,0.017,0.237,0.017,0.388
			c0,0.301-0.028,0.521-0.083,0.656c-0.055,0.135-0.135,0.204-0.238,0.204h-3.62v2.086c0.185-0.02,0.367-0.032,0.548-0.037
			c0.181-0.006,0.371-0.008,0.57-0.008c0.551,0,1.04,0.061,1.468,0.185c0.428,0.123,0.786,0.304,1.076,0.542
			c0.292,0.239,0.515,0.535,0.665,0.889C624.94,233.26,625.016,233.669,625.016,234.138z"/>
	</g>
	<g>
		<polygon fill="#F3F3F3" points="523.987,377.066 695.552,391.086 695.552,254.582 525.2,262.99 		"/>
		<polygon opacity="0.9" fill="#F8E9CE" enable-background="new    " points="625.404,383.182 627.326,382.5 620.962,381.967 
			574.384,378.064 568.019,377.531 569.608,378.507 567.738,378.936 569.303,380.032 567.365,380.803 568.938,381.862 
			566.957,382.841 568.515,383.972 566.563,384.809 568.229,385.4 572.839,385.788 619.418,389.69 626.384,390.271 624.937,389.396 
			626.02,389.222 624.337,387.923 625.628,387.279 624.733,386.535 626.67,385.772 625.099,384.706 627.047,383.903 		"/>
		<polygon opacity="0.9" fill="#F8E9CE" enable-background="new    " points="648.449,258.834 650.705,258.036 643.234,257.407 
			588.572,252.831 581.102,252.205 582.967,253.349 580.773,253.852 582.607,255.14 580.334,256.043 582.18,257.287 
			579.857,258.432 581.686,259.761 579.394,260.744 581.352,261.439 586.761,261.893 641.422,266.47 649.598,267.155 647.9,266.126 
			649.169,265.922 647.194,264.4 648.709,263.644 647.659,262.771 649.934,261.873 648.092,260.624 650.375,259.683 		"/>
	</g>
	<g>
		<g>
			<ellipse fill="#9D9FA2" cx="622.091" cy="248.88" rx="2.965" ry="2.841"/>
			<path fill="#48413E" d="M622.092,252.234c-1.933,0-3.503-1.504-3.503-3.352c0-1.853,1.57-3.355,3.503-3.355
				c1.93,0,3.502,1.504,3.502,3.355C625.594,250.73,624.021,252.234,622.092,252.234z M622.092,246.554
				c-1.34,0-2.43,1.043-2.43,2.328c0,1.282,1.088,2.325,2.43,2.325c1.339,0,2.429-1.045,2.429-2.325
				C624.519,247.598,623.43,246.554,622.092,246.554z"/>
		</g>
	</g>
	<g>
		<path fill="#010101" d="M725.323,404.271c0,0.344-1.537,1.195-1.892,1.195H703.45c-0.355,0-0.181-0.854-0.181-1.195v-45.949
			c0-0.341-0.178-1.313,0.181-1.313h19.981c0.354,0,1.893,0.975,1.893,1.313L725.323,404.271L725.323,404.271z"/>
		<path fill="#F8F189" d="M715.474,388.107c0-1.033-0.873-1.873-1.953-1.873s-1.953,0.841-1.953,1.873c0,0.594,0.292,1.06,0.742,1.4
			l-0.38,2.741h3.184l-0.383-2.741C715.183,389.168,715.474,388.699,715.474,388.107z"/>
		<path fill="#010101" stroke="#3C2517" stroke-width="1.102" stroke-miterlimit="10" d="M717.052,368.268
			c0-1.862-1.63-2.998-3.492-2.998h-10.639c-1.864,0-3.511,1.135-3.511,2.998v9.337c0,1.864,1.645,3.083,3.511,3.083h10.639
			c1.863,0,3.492-1.217,3.492-3.083V368.268z"/>
		<path fill="#3C2517" d="M707.682,369.506c0-1.526-1.149-3.688-1.71-3.688h-3.178c-0.557,0-0.627,2.161-0.627,3.688v7.639
			c0,1.524,0.07,2.993,0.627,2.993h3.178c0.561,0,1.71-1.469,1.71-2.993V369.506z"/>
	</g>
</g>
<g>
	<path fill="#AB1F25" d="M557.097,333.895h-7.947l-0.466-14.743h-4.818l-0.38,14.743h-13.444v-8.958h5.58
		c0.112-0.587,0.211-2.484,0.296-5.691c-0.028-0.063-0.126-0.093-0.296-0.093v-9.007h21.01L557.097,333.895z"/>
	<path fill="#AB1F25" d="M578.98,309.667l-4.078,25.736l-7.422-1.557l2.688-15.569c-7.17,0-10.813-0.195-10.929-0.583l0.824-16.103
		l7.506,0.391l-0.348,7.685H578.98z"/>
	<path fill="#AB1F25" d="M608.455,333.847h-27.234v-9.131l14.863,0.198c0-3.293,0.074-5.621,0.223-6.984H581.8l-0.044-9.433
		l12.415,0.399c7.357,0.199,11.214,0.266,11.57,0.199l-0.712,15.619h3.427L608.455,333.847L608.455,333.847z"/>
	<path fill="#AB1F25" d="M632.007,308.478c0,4.467-0.091,7.451-0.273,8.951c-0.578,3.682-1.398,9.207-2.464,16.571l-7.878-1.43
		l2.21-15.502c-0.576,0.138-1.503,0.207-2.778,0.207c-1.581,0-3.646-0.103-6.198-0.308c-1.275-0.103-2.537-0.221-3.782-0.357v-8.951
		L632.007,308.478z M620.24,344.076h-8.028l-0.729-22.146h7.981L620.24,344.076z"/>
	<path fill="#AB1F25" d="M664.268,333.899h-8.785l-0.515-16.293h-5.327l-0.42,16.293h-14.858v-9.901h6.168
		c0.124-0.647,0.232-2.744,0.327-6.29c-0.032-0.067-0.141-0.102-0.327-0.102v-9.956h23.221L664.268,333.899z"/>
	<path fill="#AB1F25" d="M689.498,334.92h-8.275v-18.507l-14.591-0.429v-9.066l22.435,0.269L689.498,334.92z M675.765,319.578
		l-0.716,14.805l-8.133-0.537l0.768-14.805L675.765,319.578z"/>
</g>
</svg>
