<?xml version="1.0" encoding="utf-8"?>
<!-- Generator: Adobe Illustrator 16.0.0, SVG Export Plug-In . SVG Version: 6.00 Build 0)  -->
<!DOCTYPE svg PUBLIC "-//W3C//DTD SVG 1.1//EN" "http://www.w3.org/Graphics/SVG/1.1/DTD/svg11.dtd">
<svg version="1.1" id="Layer_1" xmlns="http://www.w3.org/2000/svg" xmlns:xlink="http://www.w3.org/1999/xlink" x="0px" y="0px"
	 width="1350px" height="600px" viewBox="0 0 1350 600" enable-background="new 0 0 1350 600" xml:space="preserve">
<rect x="-1" y="-2" fill="#F7FDEA" width="1355" height="504"/>
<rect x="0" y="499.896" fill="#E4DBCD" width="1354" height="104.5"/>
<rect x="714.437" y="73.396" fill="#FFFFFF" width="61.063" height="436"/>
<g>
	<g>
		<g>
			<rect x="493.977" y="64.832" fill="#010101" width="20.003" height="444.891"/>
			<path fill="#010101" d="M514.519,510.24h-21.078V64.318h21.078V510.24z M494.514,509.209h18.931V65.347h-18.931V509.209z"/>
		</g>
		<g>
			<rect x="769.438" y="64.858" fill="#010101" width="20.005" height="444.866"/>
			<path fill="#010101" d="M789.98,510.24h-21.077V64.345h21.077V510.24z M769.976,509.209h18.932V65.371h-18.932V509.209z"/>
		</g>
		<g>
			<polygon fill="#010101" points="493.977,64.832 513.981,83.99 769.438,83.99 789.469,64.832 			"/>
			<path fill="#010101" d="M769.661,84.505H513.761l-21.078-20.188h298.083L769.661,84.505z M514.202,83.479h255.015l18.959-18.131
				H495.273L514.202,83.479z"/>
		</g>
		<polygon fill="#764E2A" points="733.319,536.666 513.981,509.722 513.981,83.99 733.925,26.9 		"/>
	</g>
	<polygon fill="none" points="619.5,165.568 632.36,164.405 629.321,133.605 616.462,134.768 	"/>
	<g enable-background="new    ">
		<path fill="#010101" d="M625.016,143.033c0,0.528-0.095,0.999-0.287,1.414s-0.462,0.763-0.81,1.047
			c-0.352,0.284-0.771,0.501-1.261,0.652c-0.491,0.149-1.034,0.225-1.634,0.225c-0.313,0-0.614-0.018-0.896-0.057
			c-0.284-0.037-0.538-0.085-0.765-0.145c-0.225-0.057-0.411-0.113-0.555-0.173c-0.144-0.057-0.238-0.104-0.283-0.144
			c-0.044-0.037-0.077-0.079-0.098-0.124s-0.039-0.101-0.051-0.163c-0.015-0.063-0.022-0.144-0.028-0.238
			c-0.005-0.096-0.008-0.209-0.008-0.338c0-0.14,0.005-0.26,0.016-0.359c0.011-0.097,0.028-0.177,0.052-0.235
			c0.023-0.062,0.053-0.104,0.083-0.128c0.032-0.025,0.068-0.038,0.11-0.038c0.053,0,0.132,0.027,0.239,0.088
			c0.106,0.057,0.25,0.122,0.427,0.189c0.174,0.07,0.389,0.137,0.641,0.193c0.251,0.057,0.556,0.086,0.904,0.086
			c0.305,0,0.582-0.03,0.831-0.09c0.249-0.061,0.461-0.157,0.633-0.291c0.173-0.133,0.308-0.3,0.401-0.501
			c0.096-0.201,0.141-0.442,0.141-0.724c0-0.241-0.039-0.457-0.118-0.646c-0.078-0.188-0.2-0.349-0.369-0.478
			c-0.166-0.132-0.386-0.229-0.652-0.294c-0.268-0.065-0.592-0.099-0.977-0.099c-0.304,0-0.58,0.017-0.83,0.044
			c-0.25,0.03-0.482,0.045-0.704,0.045c-0.151,0-0.26-0.036-0.326-0.107c-0.065-0.073-0.101-0.208-0.101-0.404v-4.235
			c0-0.198,0.042-0.345,0.122-0.433c0.083-0.089,0.211-0.132,0.393-0.132h4.822c0.047,0,0.093,0.015,0.136,0.045
			c0.041,0.031,0.074,0.078,0.104,0.144c0.028,0.065,0.05,0.151,0.064,0.262c0.012,0.107,0.017,0.236,0.017,0.388
			c0,0.301-0.028,0.521-0.083,0.656c-0.055,0.135-0.135,0.204-0.238,0.204h-3.619v2.086c0.185-0.021,0.366-0.032,0.548-0.037
			c0.181-0.006,0.371-0.008,0.569-0.008c0.552,0,1.04,0.061,1.469,0.185c0.428,0.123,0.786,0.304,1.075,0.542
			c0.292,0.239,0.516,0.535,0.665,0.889C624.94,142.156,625.016,142.565,625.016,143.033z"/>
	</g>
	<g>
		<polygon fill="#F3F3F3" points="523.987,285.961 695.552,299.982 695.552,163.478 525.2,171.885 		"/>
		<polygon opacity="0.9" fill="#F8E9CE" enable-background="new    " points="625.404,292.077 627.326,291.396 620.963,290.863 
			574.385,286.959 568.019,286.426 569.608,287.403 567.738,287.831 569.303,288.927 567.365,289.698 568.938,290.757 
			566.957,291.737 568.515,292.867 566.563,293.704 568.229,294.295 572.84,294.683 619.419,298.585 626.385,299.166 
			624.937,298.291 626.02,298.117 624.338,296.819 625.629,296.174 624.733,295.43 626.671,294.667 625.099,293.601 
			627.048,292.798 		"/>
		<polygon opacity="0.9" fill="#F8E9CE" enable-background="new    " points="648.449,167.73 650.705,166.932 643.234,166.303 
			588.572,161.727 581.102,161.101 582.968,162.244 580.773,162.747 582.607,164.035 580.334,164.939 582.18,166.183 
			579.857,167.327 581.686,168.656 579.394,169.64 581.352,170.334 586.761,170.788 641.423,175.365 649.598,176.05 647.9,175.022 
			649.17,174.818 647.194,173.295 648.709,172.539 647.659,171.666 649.934,170.769 648.093,169.52 650.375,168.578 		"/>
	</g>
	<g>
		<g>
			<ellipse fill="#9D9FA2" cx="622.092" cy="157.776" rx="2.965" ry="2.841"/>
			<path fill="#48413E" d="M622.093,161.129c-1.934,0-3.503-1.504-3.503-3.352c0-1.854,1.569-3.355,3.503-3.355
				c1.93,0,3.502,1.504,3.502,3.355C625.594,159.625,624.021,161.129,622.093,161.129z M622.093,155.449
				c-1.341,0-2.431,1.043-2.431,2.328c0,1.282,1.088,2.325,2.431,2.325c1.339,0,2.429-1.045,2.429-2.325
				C624.519,156.493,623.43,155.449,622.093,155.449z"/>
		</g>
	</g>
	<g>
		<path fill="#010101" d="M725.323,313.166c0,0.344-1.537,1.195-1.892,1.195H703.45c-0.354,0-0.181-0.854-0.181-1.195v-45.949
			c0-0.341-0.178-1.313,0.181-1.313h19.981c0.354,0,1.893,0.975,1.893,1.313L725.323,313.166L725.323,313.166z"/>
		<path fill="#F8F189" d="M715.474,297.002c0-1.033-0.873-1.873-1.953-1.873s-1.953,0.841-1.953,1.873c0,0.594,0.292,1.06,0.742,1.4
			l-0.38,2.74h3.184l-0.383-2.74C715.183,298.064,715.474,297.594,715.474,297.002z"/>
		<path fill="#010101" stroke="#3C2517" stroke-width="1.102" stroke-miterlimit="10" d="M717.052,277.163
			c0-1.862-1.63-2.998-3.492-2.998h-10.639c-1.864,0-3.512,1.135-3.512,2.998v9.337c0,1.864,1.646,3.083,3.512,3.083h10.639
			c1.863,0,3.492-1.217,3.492-3.083V277.163z"/>
		<path fill="#3C2517" d="M707.682,278.402c0-1.526-1.149-3.688-1.71-3.688h-3.178c-0.558,0-0.627,2.161-0.627,3.688v7.639
			c0,1.524,0.069,2.993,0.627,2.993h3.178c0.561,0,1.71-1.469,1.71-2.993V278.402z"/>
	</g>
</g>
<g>
	<path fill="#AB1F25" d="M557.097,242.79h-7.947l-0.466-14.743h-4.818l-0.38,14.743h-13.443v-8.958h5.579
		c0.112-0.587,0.212-2.484,0.297-5.691c-0.028-0.063-0.126-0.093-0.297-0.093v-9.007h21.011L557.097,242.79z"/>
	<path fill="#AB1F25" d="M578.98,218.562l-4.078,25.736l-7.422-1.557l2.688-15.569c-7.17,0-10.813-0.195-10.929-0.583l0.824-16.103
		l7.506,0.391l-0.348,7.685H578.98L578.98,218.562z"/>
	<path fill="#AB1F25" d="M608.455,242.742h-27.233v-9.131l14.862,0.197c0-3.293,0.074-5.62,0.224-6.983h-14.507l-0.044-9.434
		l12.415,0.399c7.356,0.199,11.214,0.266,11.569,0.199l-0.712,15.619h3.427L608.455,242.742L608.455,242.742z"/>
	<path fill="#AB1F25" d="M632.008,217.373c0,4.467-0.092,7.451-0.273,8.951c-0.578,3.682-1.397,9.207-2.464,16.571l-7.878-1.431
		l2.21-15.502c-0.576,0.138-1.503,0.207-2.778,0.207c-1.581,0-3.646-0.103-6.197-0.308c-1.275-0.104-2.537-0.222-3.782-0.357v-8.951
		L632.008,217.373z M620.24,252.971h-8.027l-0.729-22.146h7.981L620.24,252.971z"/>
	<path fill="#AB1F25" d="M664.268,242.794h-8.785l-0.515-16.293h-5.327l-0.42,16.293h-14.858v-9.901h6.168
		c0.124-0.646,0.232-2.743,0.327-6.29c-0.032-0.066-0.141-0.102-0.327-0.102v-9.956h23.222L664.268,242.794z"/>
	<path fill="#AB1F25" d="M689.498,243.816h-8.274v-18.508l-14.591-0.429v-9.065l22.435,0.269L689.498,243.816z M675.765,228.473
		l-0.716,14.806l-8.134-0.537l0.769-14.805L675.765,228.473z"/>
</g>
</svg>
