<?xml version="1.0" encoding="utf-8"?>
<!-- Generator: Adobe Illustrator 16.0.0, SVG Export Plug-In . SVG Version: 6.00 Build 0)  -->
<!DOCTYPE svg PUBLIC "-//W3C//DTD SVG 1.1//EN" "http://www.w3.org/Graphics/SVG/1.1/DTD/svg11.dtd">
<svg version="1.1" id="Layer_1" xmlns="http://www.w3.org/2000/svg" xmlns:xlink="http://www.w3.org/1999/xlink" x="0px" y="0px"
	 width="1350px" height="600px" viewBox="0 100 1350 600" enable-background="new 0 100 1350 600" xml:space="preserve">
<rect x="-1" y="97" fill="#F7FDEA" width="1355" height="504"/>
<rect y="601" fill="#E4DBCD" width="1354" height="104.5"/>
<rect x="714.437" y="164.5" fill="#FFFFFF" width="61.063" height="436"/>
<g>
	<g>
		<g>
			<g>
				<rect x="493.977" y="155.937" fill="#010101" width="20.003" height="444.891"/>
				<path fill="#010101" d="M514.519,601.345h-21.078V155.422h21.078V601.345z M494.514,600.314h18.931V156.451h-18.931V600.314z"/>
			</g>
			<g>
				<rect x="769.438" y="155.962" fill="#010101" width="20.005" height="444.868"/>
				<path fill="#010101" d="M789.98,601.345h-21.077V155.449h21.077V601.345z M769.976,600.314h18.932V156.476h-18.932V600.314z"/>
			</g>
			<g>
				<polygon fill="#010101" points="493.977,155.937 513.981,175.094 769.438,175.094 789.468,155.937 				"/>
				<path fill="#010101" d="M769.661,175.61H513.76l-21.078-20.188h298.083L769.661,175.61z M514.202,174.583h255.013l18.959-18.131
					H495.273L514.202,174.583z"/>
			</g>
			<polygon fill="#764E2A" points="733.319,627.771 513.981,600.828 513.981,175.094 733.923,118.004 			"/>
		</g>
		<polygon fill="none" points="619.5,256.672 632.36,255.509 629.321,224.709 616.46,225.872 		"/>
		<g enable-background="new    ">
			<path fill="#010101" d="M625.016,234.138c0,0.528-0.095,0.999-0.287,1.414s-0.462,0.763-0.81,1.047
				c-0.35,0.284-0.77,0.501-1.259,0.652c-0.492,0.151-1.036,0.225-1.634,0.225c-0.314,0-0.614-0.018-0.897-0.057
				c-0.284-0.037-0.538-0.085-0.763-0.143c-0.225-0.057-0.412-0.115-0.555-0.173c-0.144-0.057-0.238-0.105-0.283-0.144
				c-0.044-0.037-0.077-0.079-0.098-0.124c-0.019-0.045-0.039-0.099-0.051-0.163c-0.013-0.063-0.022-0.142-0.028-0.238
				c-0.005-0.096-0.008-0.209-0.008-0.338c0-0.14,0.005-0.26,0.016-0.359c0.011-0.097,0.028-0.177,0.052-0.237
				c0.023-0.06,0.051-0.102,0.083-0.128c0.032-0.025,0.068-0.038,0.11-0.038c0.053,0,0.132,0.029,0.239,0.088
				c0.108,0.057,0.25,0.122,0.427,0.191c0.174,0.07,0.389,0.135,0.641,0.193c0.251,0.057,0.554,0.086,0.904,0.086
				c0.305,0,0.582-0.03,0.831-0.09c0.249-0.061,0.461-0.157,0.633-0.291c0.173-0.133,0.307-0.3,0.401-0.501
				c0.096-0.201,0.141-0.442,0.141-0.724c0-0.241-0.039-0.457-0.118-0.644c-0.078-0.189-0.201-0.349-0.369-0.478
				c-0.167-0.131-0.386-0.229-0.654-0.294c-0.267-0.064-0.592-0.097-0.975-0.097c-0.304,0-0.581,0.015-0.831,0.044
				c-0.249,0.03-0.483,0.045-0.704,0.045c-0.152,0-0.259-0.037-0.327-0.109c-0.065-0.073-0.099-0.208-0.099-0.404v-4.235
				c0-0.2,0.042-0.345,0.122-0.433c0.083-0.089,0.211-0.132,0.391-0.132h4.824c0.045,0,0.091,0.015,0.134,0.045
				c0.041,0.031,0.076,0.078,0.105,0.144c0.028,0.065,0.05,0.151,0.064,0.26c0.012,0.109,0.017,0.238,0.017,0.388
				c0,0.301-0.028,0.521-0.083,0.656c-0.055,0.135-0.135,0.204-0.238,0.204h-3.621v2.086c0.185-0.019,0.368-0.032,0.548-0.037
				c0.181-0.006,0.371-0.008,0.571-0.008c0.55,0,1.04,0.061,1.467,0.185c0.428,0.123,0.787,0.304,1.077,0.542
				c0.292,0.239,0.514,0.535,0.665,0.889C624.94,233.26,625.016,233.669,625.016,234.138z"/>
		</g>
		<g>
			<polygon fill="#F3F3F3" points="523.987,377.066 695.551,391.086 695.551,254.582 525.2,262.99 			"/>
			<polygon opacity="0.9" fill="#F8E9CE" enable-background="new    " points="625.404,383.182 627.326,382.5 620.961,381.967 
				574.383,378.064 568.019,377.532 569.608,378.507 567.738,378.936 569.303,380.033 567.365,380.803 568.938,381.862 
				566.957,382.841 568.515,383.972 566.563,384.809 568.229,385.4 572.838,385.789 619.417,389.69 626.383,390.271 
				624.937,389.396 626.02,389.222 624.336,387.923 625.627,387.279 624.733,386.536 626.669,385.772 625.099,384.707 
				627.046,383.903 			"/>
			<polygon opacity="0.9" fill="#F8E9CE" enable-background="new    " points="648.449,258.834 650.705,258.036 643.234,257.407 
				588.572,252.831 581.102,252.205 582.966,253.349 580.773,253.852 582.607,255.14 580.334,256.043 582.18,257.287 
				579.857,258.432 581.686,259.761 579.394,260.744 581.352,261.439 586.761,261.893 641.421,266.47 649.598,267.155 
				647.9,266.126 649.168,265.922 647.194,264.4 648.709,263.644 647.659,262.771 649.934,261.873 648.091,260.624 650.374,259.683 
							"/>
		</g>
		<g>
			<g>
				<ellipse fill="#9D9FA2" cx="622.09" cy="248.88" rx="2.965" ry="2.841"/>
				<path fill="#48413E" d="M622.091,252.234c-1.932,0-3.503-1.504-3.503-3.352c0-1.852,1.571-3.355,3.503-3.355
					c1.93,0,3.502,1.504,3.502,3.355C625.593,250.73,624.021,252.234,622.091,252.234z M622.091,246.554
					c-1.34,0-2.429,1.043-2.429,2.328c0,1.282,1.088,2.325,2.429,2.325c1.339,0,2.429-1.045,2.429-2.325
					C624.519,247.598,623.43,246.554,622.091,246.554z"/>
			</g>
		</g>
		<g>
			<path fill="#010101" d="M725.323,404.271c0,0.344-1.537,1.195-1.892,1.195H703.45c-0.356,0-0.181-0.854-0.181-1.195v-45.949
				c0-0.341-0.178-1.314,0.181-1.314h19.981c0.355,0,1.893,0.975,1.893,1.314L725.323,404.271L725.323,404.271z"/>
			<path fill="#F8F189" d="M715.474,388.107c0-1.033-0.873-1.873-1.953-1.873s-1.953,0.841-1.953,1.873
				c0,0.594,0.292,1.06,0.742,1.4l-0.38,2.742h3.184l-0.383-2.742C715.183,389.168,715.474,388.7,715.474,388.107z"/>
			<path fill="#010101" stroke="#3C2517" stroke-width="1.102" stroke-miterlimit="10" d="M717.052,368.268
				c0-1.862-1.63-2.998-3.492-2.998h-10.639c-1.864,0-3.51,1.135-3.51,2.998v9.337c0,1.864,1.644,3.083,3.51,3.083h10.639
				c1.863,0,3.492-1.217,3.492-3.083V368.268z"/>
			<path fill="#3C2517" d="M707.682,369.506c0-1.526-1.149-3.688-1.71-3.688h-3.178c-0.556,0-0.627,2.161-0.627,3.688v7.639
				c0,1.524,0.071,2.993,0.627,2.993h3.178c0.561,0,1.71-1.469,1.71-2.993V369.506z"/>
		</g>
	</g>
	<g>
		<path fill="#AC1F25" d="M562.058,340.529h-8.619v-17.614c-0.616,0.073-2.35,0.054-5.204-0.054
			c-3.504-0.178-5.78-0.268-6.828-0.268c-1.662,0-2.601,0.107-2.819,0.322v-9.396l23.47,0.641c0.254,2.221,0.38,5.319,0.38,9.291
			c0,2.613-0.064,5.953-0.19,10.015C562.121,337.53,562.058,339.884,562.058,340.529z"/>
		<path fill="#AC1F25" d="M588.748,340.529h-23.135v-10.06h13.094v-7.53H565.17v-10.003c2.735,0,6.658-0.047,11.763-0.138
			c5.103-0.091,9.043-0.136,11.816-0.136L588.748,340.529L588.748,340.529L588.748,340.529z"/>
		<path fill="#AC1F25" d="M632.688,314.383c0,3.601-0.248,8.998-0.737,16.194c-0.491,6.937-0.737,10.139-0.737,9.615l-35.246,1.238
			c-2.574-12.458-3.86-21.437-3.86-26.938v-0.619l9.876-1.122l2.213,18.556c1.285,0,2.572,0,3.858,0v-18.949h9.933v18.498
			c-0.04,0,1.134,0,3.517,0l1.305-18.105l9.876,0.563L632.688,314.383L632.688,314.383L632.688,314.383z"/>
		<path fill="#AC1F25" d="M650.328,340.529h-9.964v-19.095c-0.117-0.157-0.751-0.195-1.897-0.118
			c-1.701,0.118-2.432,0.176-2.194,0.176v-9.871c3.477-0.391,8.164-0.489,14.055-0.293V340.529L650.328,340.529z"/>
		<path fill="#AC1F25" d="M682.937,341.729h-10.481v-20.707l-18.475-0.48v-10.144l28.412,0.3L682.937,341.729z M665.55,324.563
			l-0.909,16.564l-10.3-0.598l0.968-16.565L665.55,324.563z"/>
	</g>
</g>
</svg>
