<?xml version="1.0" encoding="utf-8"?>
<!-- Generator: Adobe Illustrator 16.0.0, SVG Export Plug-In . SVG Version: 6.00 Build 0)  -->
<!DOCTYPE svg PUBLIC "-//W3C//DTD SVG 1.1//EN" "http://www.w3.org/Graphics/SVG/1.1/DTD/svg11.dtd">
<svg version="1.1" id="Layer_1" xmlns="http://www.w3.org/2000/svg" xmlns:xlink="http://www.w3.org/1999/xlink" x="0px" y="0px"
	 width="337.111px" height="386.699px" viewBox="0 0 337.111 386.699" enable-background="new 0 0 337.111 386.699"
	 xml:space="preserve">
<g>
	<polygon fill="#F2F2F2" points="336.61,251.426 0.001,251.076 0.513,13.183 337.124,13.534 	"/>
	<polygon opacity="0.9" fill="#F9E9CE" enable-background="new    " points="225.216,253.448 229.1,251.971 216.237,250.813 
		122.097,242.339 109.234,241.182 112.446,243.3 108.668,244.231 111.828,246.613 107.913,248.285 111.091,250.585 107.091,252.709 
		110.238,255.166 106.293,256.983 109.66,258.271 118.976,259.109 213.117,267.583 227.199,268.85 224.274,266.946 226.46,266.565 
		223.061,263.748 225.669,262.35 223.861,260.734 227.776,259.075 224.602,256.765 228.532,255.02 	"/>
	<polygon opacity="0.9" fill="#F9E9CE" enable-background="new    " points="241.054,12.267 244.937,10.79 232.074,9.631 
		137.934,1.158 125.071,0 128.283,2.118 124.505,3.049 127.665,5.432 123.75,7.104 126.928,9.403 122.928,11.527 126.075,13.984 
		122.13,15.802 125.497,17.089 134.813,17.928 228.953,26.4 243.035,27.667 240.111,25.765 242.297,25.383 238.897,22.567 
		241.506,21.169 239.697,19.554 243.613,17.894 240.439,15.584 244.369,13.838 	"/>
</g>
</svg>
