<?xml version="1.0" encoding="utf-8"?>
<!-- Generator: Adobe Illustrator 16.0.0, SVG Export Plug-In . SVG Version: 6.00 Build 0)  -->
<!DOCTYPE svg PUBLIC "-//W3C//DTD SVG 1.1//EN" "http://www.w3.org/Graphics/SVG/1.1/DTD/svg11.dtd">
<svg version="1.1" id="Layer_1" xmlns="http://www.w3.org/2000/svg" xmlns:xlink="http://www.w3.org/1999/xlink" x="0px" y="0px"
	 width="133.273px" height="54.948px" viewBox="432.608 151.189 133.273 54.948"
	 enable-background="new 432.608 151.189 133.273 54.948" xml:space="preserve">
<g>
	<path fill="#FFFFFF" d="M464.378,191.139c-3.876,1.49-7.897,0.408-13.972-4.96c-6.073-5.367-13.137-9.463-16.242-6.214
		c-3.107,3.249-0.989,13.419,1.412,17.091c2.4,3.673,9.263,4.971,25.55,4.964C477.415,202.013,480.775,190.841,464.378,191.139z"/>
	<path fill="#FEDA3E" d="M561.625,180.695c0.48,4.482-6.871,12.832-38.496,16.786c-31.626,3.954-75.77,6.023-77.652,3.199
		c-1.648-2.473,31.76-15.383,55.488-20.73c0.286,2.913,1.078,5.023,3.049,4.555c3.295-0.785,15.064-2.825,19.93-3.766
		c4.115-0.797,4.188-2.381,4.303-4.465C546.063,175.014,561.125,176.029,561.625,180.695z"/>
	
		<ellipse transform="matrix(-0.9846 0.175 -0.175 -0.9846 1137.7605 262.5979)" fill="#FEDA3E" cx="557.302" cy="181.465" rx="8.628" ry="2.672"/>
	<path fill="#F1F2F2" d="M559.465,162.459c0.239,5.166,0.959,11.479,2.16,18.236c1.202,6.759,2.701,12.933,4.257,17.866
		c-0.239-5.167-0.96-11.479-2.161-18.238C562.52,173.565,561.021,167.392,559.465,162.459z"/>
	<path fill="#FFFFFF" d="M538.912,165.873c1.102-0.058,1.1,0.641-0.823,1.007c-1.923,0.366-20.413,4.577-22.793,4.76
		c-2.38,0.184-9.429,0.641-14.097-0.641s-27.004-8.604-28.834-9.337c-1.83-0.732-3.204-0.915-1.189-1.831
		c2.014-0.916,26.912-7.415,30.756-8.055c3.844-0.641,7.049-1.19,9.336,0.824c2.289,2.013,17.76,11.351,18.949,12.448
		C531.406,166.148,536.521,166,538.912,165.873z"/>
	<polygon fill="#FFFFFF" points="496.841,164.137 494.555,164.388 497.58,199.208 499.867,198.956 	"/>
	
		<rect x="514.288" y="159.714" transform="matrix(-0.994 0.1091 -0.1091 -0.994 1047.2776 299.8275)" fill="#FFFFFF" width="2.301" height="37.689"/>
	<polygon fill="#F5DF74" points="512.238,159.947 499.145,198.722 499.867,198.956 512.961,160.182 	"/>
	<polygon fill="#F5DF74" points="496.202,164.546 516.367,197.41 517.006,197 496.841,164.137 	"/>
	<g>
		<path fill="#FFFFFF" d="M524.975,169.041l-1.813,0.177l1.264,11.419c0.721-0.163,1.301-0.354,1.768-0.571L524.975,169.041z"/>
		<path fill="#FFFFFF" d="M535.797,166.989l-1.811,0.177l0.965,8.739c0.615-0.024,1.225-0.044,1.826-0.063L535.797,166.989z"/>
		<polygon fill="#F5DF74" points="533.986,167.166 531.537,176.064 532.016,176.039 534.418,167.307 		"/>
		<polygon fill="#F5DF74" points="524.614,169.434 528.498,176.256 529.001,176.222 524.997,169.188 		"/>
	</g>
	<path fill="#FFFFFF" d="M533.383,195.972c-4.626-0.33-17.292-0.219-23.131,0.112c-5.838,0.33-13.658,2.422-20.046,4.405
		c-6.39,1.983-13.218,4.406-13.547,5.177c-0.331,0.771,3.192,0.44,7.709,0.11c4.516-0.33,22.25-3.524,25.554-3.854
		C513.227,201.589,535.366,196.303,533.383,195.972z"/>
</g>
</svg>
