<?xml version="1.0" encoding="utf-8"?>
<!-- Generator: Adobe Illustrator 16.0.0, SVG Export Plug-In . SVG Version: 6.00 Build 0)  -->
<!DOCTYPE svg PUBLIC "-//W3C//DTD SVG 1.1//EN" "http://www.w3.org/Graphics/SVG/1.1/DTD/svg11.dtd">
<svg version="1.1" id="Layer_1" xmlns="http://www.w3.org/2000/svg" xmlns:xlink="http://www.w3.org/1999/xlink" x="0px" y="0px"
	 width="992px" height="644px" viewBox="0 0 992 644" enable-background="new 0 0 992 644" xml:space="preserve">
<rect x="-5.013" y="-25.5" fill="#8CC9DB" width="998.352" height="673.138"/>
<g>
	<g>
		<rect x="365.059" y="614.136" fill="#808285" width="629.278" height="33.502"/>
		<g>
			<path fill="#FFFFFF" d="M984.449,633.031h-24.464v-4.297h24.464V633.031z M935.524,633.031H911.58v-4.297h23.944V633.031
				L935.524,633.031z M885.555,633.031h-23.423v-4.297h23.423V633.031z M837.672,633.031h-23.424v-4.297h23.424V633.031z
				 M788.223,633.031H764.28v-4.297h23.944L788.223,633.031L788.223,633.031z M740.339,633.031h-25.505v-4.297h25.505V633.031z
				 M691.412,633.031h-25.505v-4.297h25.505V633.031z M641.967,633.031H616.98v-4.297h24.985L641.967,633.031L641.967,633.031z
				 M593.037,633.031h-23.94v-4.297h23.94V633.031z M544.113,633.031h-24.466v-4.297h24.466V633.031L544.113,633.031z
				 M496.224,633.031h-24.463v-4.297h24.463V633.031z M446.259,633.031h-24.462v-4.297h24.462V633.031z M398.372,633.031h-24.464
				v-4.297h24.465L398.372,633.031L398.372,633.031z"/>
		</g>
	</g>
	<rect x="364.541" y="605.595" fill="#BCBEC0" width="628.798" height="8.605"/>
	<rect x="364.541" y="605.595" fill="#D5DEDE" width="628.798" height="2.188"/>
</g>
<g>
	<g>
		<rect x="-26.353" y="614.136" fill="#808285" width="629.278" height="33.502"/>
		<g>
			<path fill="#FFFFFF" d="M593.037,633.031h-24.463v-4.297h24.463V633.031z M544.113,633.031h-23.945v-4.297h23.945V633.031z
				 M494.142,633.031h-23.423v-4.297h23.423V633.031z M446.259,633.031h-23.422v-4.297h23.422V633.031z M396.809,633.031h-23.942
				v-4.297h23.942V633.031L396.809,633.031z M348.925,633.031h-25.504v-4.297h25.504V633.031z M299.999,633.031h-25.503v-4.297
				h25.503V633.031z M250.552,633.031h-24.984v-4.297h24.984V633.031z M201.627,633.031h-23.943v-4.297h23.943V633.031
				L201.627,633.031z M152.698,633.031h-24.462v-4.297h24.462V633.031z M104.814,633.031H80.35v-4.297h24.464V633.031z
				 M54.845,633.031H30.384v-4.297h24.464L54.845,633.031L54.845,633.031z M6.959,633.031h-24.461v-4.297H6.959V633.031z"/>
		</g>
	</g>
	<rect x="-26.871" y="605.595" fill="#BCBEC0" width="628.798" height="8.605"/>
	<rect x="-26.871" y="605.595" fill="#D5DEDE" width="628.798" height="2.188"/>
</g>
<rect x="325.216" y="42.138" display="none" fill="#8CC9DB" width="322.002" height="574"/>
<g display="none">
	<g display="inline">
		<rect x="325.496" y="589.638" fill="#808285" width="322" height="24"/>
		<g>
			<path fill="#FFFFFF" d="M642.495,603.638h-12v-4h12V603.638z M617.495,603.638h-12v-4h12V603.638z M591.495,603.638h-12v-4h12
				V603.638z M567.495,603.638h-12v-4h12V603.638z M541.495,603.638h-11v-4h11V603.638z M517.495,603.638h-13v-4h13V603.638z
				 M492.495,603.638h-13v-4h13V603.638z M466.496,603.638h-13v-4h13V603.638z M442.496,603.638h-13v-4h13V603.638z
				 M416.496,603.638h-13v-4h13V603.638z M392.496,603.638h-13v-4h13V603.638z M366.496,603.638h-12v-4h12V603.638z
				 M342.496,603.638h-13v-4h13V603.638z"/>
		</g>
	</g>
	<rect x="324.716" y="583.768" display="inline" fill="#BCBEC0" width="322.344" height="6.114"/>
	<rect x="324.716" y="583.768" display="inline" fill="#D5DEDE" width="322.344" height="1.555"/>
</g>
<g>
	<g>
		<rect x="1063.694" y="5.511" fill="#75C1D2" width="78.553" height="217.869"/>
		<rect x="963.999" y="5.515" fill="#75C1D2" width="78.553" height="217.862"/>
		<rect x="175.021" y="42.444" fill="#75C1D2" width="78.551" height="217.869"/>
		<rect x="493.56" y="-53.905" fill="#75C1D2" width="116.563" height="368.56"/>
		<polygon fill="#75C1D2" points="752.489,108.242 752.489,410.678 913.978,410.678 913.978,108.242 836.741,36.072 		"/>
		<polygon fill="#75C1D2" points="-128.651,88.935 -128.651,336.782 3.947,336.782 3.947,88.935 -59.471,29.789 		"/>
		<polygon fill="#50A7AE" points="1171.075,254.535 1171.075,175.754 998.611,175.754 998.831,135.73 934.495,135.73 
			934.495,200.105 818.696,200.105 818.696,227.337 741.497,227.337 741.497,130.784 687.456,130.784 687.456,254.535 
			538.104,254.535 538.104,175.754 368.145,175.754 368.361,135.73 304.029,135.73 304.029,200.105 188.227,200.105 
			188.227,227.337 136.129,227.337 136.129,368.864 35.662,368.864 35.662,254.535 -92.357,254.535 -92.357,175.754 
			-131.082,175.754 -131.082,608.602 1231.051,608.678 1231.051,254.916 		"/>
	</g>
	<rect x="406.871" y="76.992" fill="#50A7AE" width="97.063" height="117.488"/>
</g>
<g>
	<rect x="191.773" y="164.781" fill="#D1D3D4" width="190.454" height="440.622"/>
	<rect x="340.055" y="509.989" fill="#939598" width="21.515" height="95.418"/>
	<rect x="215.269" y="509.989" fill="#939598" width="21.515" height="95.418"/>
	<rect x="340.055" y="163.613" fill="#939598" width="21.515" height="314.22"/>
	<rect x="215.269" y="164.781" fill="#939598" width="21.515" height="314.218"/>
	<polygon fill="#808285" points="382.421,512.438 191.584,512.438 181.033,499.588 392.971,499.588 	"/>
	<polygon fill="#808285" points="382.421,469.69 191.584,469.69 181.033,456.844 392.971,456.844 	"/>
	<polygon fill="#808285" points="382.421,424.69 191.584,424.69 181.033,411.846 392.971,411.846 	"/>
	<polygon fill="#808285" points="382.421,379.692 191.586,379.692 181.033,366.842 392.971,366.842 	"/>
	<polygon fill="#808285" points="382.421,334.69 191.586,334.69 181.033,321.84 392.971,321.84 	"/>
	<polygon fill="#808285" points="382.421,290.812 191.586,290.812 181.035,277.969 392.971,277.969 	"/>
	<polygon fill="#808285" points="382.421,245.81 191.587,245.81 181.035,232.971 392.971,232.971 	"/>
	<polygon fill="#808285" points="382.421,200.814 191.587,200.814 181.037,187.972 392.971,187.972 	"/>
	<polygon fill="#BCBEC0" points="398.382,502.034 176.994,502.034 172.939,498.885 172.939,479.963 176.292,476.635 
		398.382,476.635 401,480.112 401,498.885 	"/>
	<polygon fill="#BCBEC0" points="398.382,457.321 176.994,457.321 172.939,454.165 172.939,435.243 176.292,431.913 
		398.382,431.913 401,435.391 401,454.165 	"/>
	<polygon fill="#BCBEC0" points="398.382,412.602 176.994,412.602 172.939,409.448 172.939,390.526 176.292,387.198 
		398.382,387.198 401,390.676 401,409.448 	"/>
	<polygon fill="#BCBEC0" points="398.382,367.885 176.994,367.885 172.939,364.733 172.939,345.811 176.292,342.483 
		398.382,342.483 401,345.959 401,364.733 	"/>
	<polygon fill="#BCBEC0" points="398.382,323.172 176.994,323.172 172.939,320.018 172.939,301.091 176.292,297.761 
		398.382,297.761 401,301.24 401,320.018 	"/>
	<polygon fill="#BCBEC0" points="398.382,278.453 176.994,278.453 172.939,275.301 172.939,256.375 176.292,253.047 
		398.382,253.047 401,256.526 401,275.301 	"/>
	<polygon fill="#BCBEC0" points="398.382,233.736 176.994,233.736 172.939,230.58 172.939,211.655 176.292,208.328 398.382,208.328 
		401,211.804 401,230.58 	"/>
	<polygon fill="#BCBEC0" points="398.382,189.017 176.994,189.017 172.939,185.866 172.939,166.943 176.292,163.613 
		398.382,163.613 401,167.09 401,185.866 	"/>
	<rect x="261.762" y="540.768" fill="#4BB5AB" width="50.481" height="64.646"/>
</g>
<g>
	<path fill="#FAFBFC" d="M625.554,195.965v412.362h18.631h39.028h18.516h39.036h18.519h39.032h18.899V195.965H625.554z
		 M683.215,552.436h-39.028v-53.678h39.028V552.436z M683.215,481.78h-39.028v-53.672h39.028V481.78z M683.215,411.135h-39.028
		v-53.674h39.028V411.135z M683.215,340.477h-39.028v-53.676h39.028V340.477z M683.215,269.823h-39.028v-53.669h39.028V269.823z
		 M740.756,552.436h-39.026v-53.678h39.027L740.756,552.436L740.756,552.436z M740.756,481.78h-39.026v-53.672h39.027
		L740.756,481.78L740.756,481.78z M740.756,411.135h-39.026v-53.674h39.027L740.756,411.135L740.756,411.135z M740.756,340.477
		h-39.026v-53.676h39.027L740.756,340.477L740.756,340.477z M740.756,269.823h-39.026v-53.669h39.027L740.756,269.823
		L740.756,269.823z M798.301,552.436H759.26v-53.678h39.041V552.436L798.301,552.436z M798.301,481.78H759.26v-53.672h39.041V481.78
		L798.301,481.78z M798.301,411.135H759.26v-53.674h39.041V411.135L798.301,411.135z M798.301,340.477H759.26v-53.676h39.041
		V340.477L798.301,340.477z M798.301,269.823H759.26v-53.669h39.041V269.823L798.301,269.823z"/>
	<polygon fill="#805B24" points="817.78,201.502 830.907,175.527 609.926,175.717 624.185,201.502 634.692,201.502 804.587,201.502 
			"/>
	<path fill="#6D4D42" d="M644.185,269.823h39.028v-53.669h-39.028V269.823L644.185,269.823z M650.689,225.098h26.018v35.788h-26.018
		V225.098z"/>
	<rect x="650.689" y="225.098" fill="#EBF7F8" width="26.018" height="35.788"/>
	<path fill="#6D4D42" d="M701.729,269.823h39.027v-53.669h-39.027V269.823z M708.236,225.098h26.02v35.788h-26.02V225.098z"/>
	<rect x="708.236" y="225.098" fill="#EBF7F8" width="26.02" height="35.788"/>
	<path fill="#6D4D42" d="M759.269,269.823h39.032v-53.669h-39.032V269.823L759.269,269.823z M765.773,225.098h26.021v35.788h-26.021
		V225.098z"/>
	<rect x="765.773" y="225.098" fill="#EBF7F8" width="26.021" height="35.788"/>
	<path fill="#6D4D42" d="M644.185,340.477h39.028v-53.676h-39.028V340.477L644.185,340.477z M650.689,295.753h26.018v35.786h-26.018
		V295.753z"/>
	<rect x="650.689" y="295.753" fill="#EBF7F8" width="26.018" height="35.786"/>
	<path fill="#6D4D42" d="M701.729,340.477h39.027v-53.676h-39.027V340.477z M708.236,295.753h26.02v35.786h-26.02V295.753z"/>
	<rect x="708.236" y="295.753" fill="#EBF7F8" width="26.02" height="35.786"/>
	<path fill="#6D4D42" d="M759.269,340.477h39.032v-53.676h-39.032V340.477L759.269,340.477z M765.773,295.753h26.021v35.786h-26.021
		V295.753z"/>
	<rect x="765.773" y="295.753" fill="#EBF7F8" width="26.021" height="35.786"/>
	<path fill="#6D4D42" d="M644.185,411.135h39.028v-53.674h-39.028V411.135L644.185,411.135z M650.689,366.399h26.018v35.789h-26.018
		V366.399z"/>
	<rect x="650.689" y="366.399" fill="#EBF7F8" width="26.018" height="35.789"/>
	<path fill="#6D4D42" d="M701.729,411.135h39.027v-53.674h-39.027V411.135z M708.236,366.399h26.02v35.789h-26.02V366.399z"/>
	<rect x="708.236" y="366.399" fill="#EBF7F8" width="26.02" height="35.789"/>
	<path fill="#6D4D42" d="M759.269,411.135h39.032v-53.674h-39.032V411.135L759.269,411.135z M765.773,366.399h26.021v35.789h-26.021
		V366.399z"/>
	<rect x="765.773" y="366.399" fill="#EBF7F8" width="26.021" height="35.789"/>
	<path fill="#6D4D42" d="M644.185,481.78h39.028v-53.672h-39.028V481.78L644.185,481.78z M650.689,437.051h26.018v35.789h-26.018
		V437.051z"/>
	<rect x="650.689" y="437.051" fill="#EBF7F8" width="26.018" height="35.789"/>
	<path fill="#6D4D42" d="M701.729,481.78h39.027v-53.672h-39.027V481.78z M708.236,437.051h26.02v35.789h-26.02V437.051z"/>
	<rect x="708.236" y="437.051" fill="#EBF7F8" width="26.02" height="35.789"/>
	<path fill="#6D4D42" d="M759.269,481.78h39.032v-53.672h-39.032V481.78L759.269,481.78z M765.773,437.051h26.021v35.789h-26.021
		V437.051z"/>
	<rect x="765.773" y="437.051" fill="#EBF7F8" width="26.021" height="35.789"/>
	<path fill="#6D4D42" d="M644.185,552.436h39.028v-53.678h-39.028V552.436L644.185,552.436z M650.689,507.702h26.018v35.789h-26.018
		V507.702z"/>
	<rect x="650.689" y="507.702" fill="#EBF7F8" width="26.018" height="35.789"/>
	<path fill="#6D4D42" d="M701.729,552.436h39.027v-53.678h-39.027V552.436z M708.236,507.702h26.02v35.789h-26.02V507.702z"/>
	<rect x="708.236" y="507.702" fill="#EBF7F8" width="26.02" height="35.789"/>
	<path fill="#6D4D42" d="M759.269,552.436h39.032v-53.678h-39.032V552.436L759.269,552.436z M765.773,507.702h26.021v35.789h-26.021
		V507.702z"/>
	<rect x="765.773" y="507.702" fill="#EBF7F8" width="26.021" height="35.789"/>
</g>
<g>
	<rect x="438.404" y="157.724" fill="#F58E89" width="141.634" height="447.827"/>
	<rect x="429.248" y="132.389" fill="#3D4A3D" width="159.946" height="15.846"/>
	<rect x="434.689" y="148.093" fill="#EC6562" width="149.065" height="9.9"/>
	<rect x="434.689" y="385.913" fill="#EC6562" width="149.065" height="9.896"/>
	<rect x="434.689" y="305.001" fill="#EC6562" width="149.065" height="9.896"/>
	<rect x="434.689" y="224.081" fill="#EC6562" width="149.065" height="9.9"/>
	<rect x="434.689" y="466.825" fill="#EC6562" width="149.065" height="9.9"/>
	<g>
		<rect x="458.444" y="246.376" fill="#5C5C60" width="27.724" height="35.91"/>
		<g>
			<rect x="461.307" y="249.385" fill="#ADCDD9" width="8.837" height="7.875"/>
			<rect x="474.464" y="249.385" fill="#ADCDD9" width="8.834" height="7.875"/>
		</g>
		<g>
			<rect x="461.307" y="260.444" fill="#ADCDD9" width="8.837" height="7.875"/>
			<rect x="474.464" y="260.444" fill="#ADCDD9" width="8.834" height="7.875"/>
		</g>
		<g>
			<rect x="461.307" y="271.507" fill="#ADCDD9" width="8.837" height="7.87"/>
			<rect x="474.464" y="271.507" fill="#ADCDD9" width="8.834" height="7.87"/>
		</g>
		<rect x="455.142" y="282.283" fill="#576A8A" width="34.323" height="5.827"/>
		<polygon fill="#445772" points="481.707,293.939 462.899,293.939 458.444,288.111 486.168,288.111 		"/>
	</g>
	<g>
		<rect x="532.278" y="245.99" fill="#5C5C60" width="27.727" height="35.91"/>
		<g>
			<rect x="535.143" y="248.998" fill="#ADCDD9" width="8.837" height="7.871"/>
			<rect x="548.302" y="248.998" fill="#ADCDD9" width="8.834" height="7.871"/>
		</g>
		<g>
			<rect x="535.143" y="260.059" fill="#ADCDD9" width="8.837" height="7.872"/>
			<rect x="548.302" y="260.059" fill="#ADCDD9" width="8.834" height="7.872"/>
		</g>
		<g>
			<rect x="535.143" y="271.118" fill="#ADCDD9" width="8.837" height="7.87"/>
			<rect x="548.302" y="271.118" fill="#ADCDD9" width="8.834" height="7.87"/>
		</g>
		<rect x="528.976" y="281.902" fill="#576A8A" width="34.326" height="5.824"/>
		<polygon fill="#445772" points="555.545,293.553 536.737,293.553 532.278,287.725 560.005,287.725 		"/>
	</g>
	<g>
		<rect x="458.444" y="168.072" fill="#5C5C60" width="27.724" height="35.914"/>
		<g>
			<rect x="461.307" y="171.084" fill="#ADCDD9" width="8.837" height="7.875"/>
			<rect x="474.464" y="171.084" fill="#ADCDD9" width="8.834" height="7.875"/>
		</g>
		<g>
			<rect x="461.307" y="182.145" fill="#ADCDD9" width="8.837" height="7.873"/>
			<rect x="474.464" y="182.145" fill="#ADCDD9" width="8.834" height="7.873"/>
		</g>
		<g>
			<rect x="461.307" y="193.205" fill="#ADCDD9" width="8.837" height="7.874"/>
			<rect x="474.464" y="193.205" fill="#ADCDD9" width="8.834" height="7.874"/>
		</g>
		<rect x="455.142" y="203.986" fill="#576A8A" width="34.323" height="5.822"/>
		<polygon fill="#445772" points="481.707,215.634 462.899,215.634 458.444,209.808 486.168,209.808 		"/>
	</g>
	<g>
		<rect x="532.283" y="168.072" fill="#5C5C60" width="27.722" height="35.914"/>
		<g>
			<rect x="535.143" y="171.084" fill="#ADCDD9" width="8.838" height="7.875"/>
			<rect x="548.302" y="171.084" fill="#ADCDD9" width="8.833" height="7.875"/>
		</g>
		<g>
			<rect x="535.143" y="182.145" fill="#ADCDD9" width="8.838" height="7.873"/>
			<rect x="548.302" y="182.145" fill="#ADCDD9" width="8.833" height="7.873"/>
		</g>
		<g>
			<rect x="535.143" y="193.205" fill="#ADCDD9" width="8.838" height="7.874"/>
			<rect x="548.302" y="193.205" fill="#ADCDD9" width="8.833" height="7.874"/>
		</g>
		<rect x="528.976" y="203.986" fill="#576A8A" width="34.326" height="5.822"/>
		<polygon fill="#445772" points="555.545,215.634 536.737,215.634 532.283,209.808 560.005,209.808 		"/>
	</g>
	<g>
		<rect x="458.444" y="402.01" fill="#5C5C60" width="27.724" height="35.914"/>
		<g>
			<rect x="461.307" y="405.018" fill="#ADCDD9" width="8.837" height="7.873"/>
			<rect x="474.464" y="405.018" fill="#ADCDD9" width="8.834" height="7.873"/>
		</g>
		<g>
			<rect x="461.307" y="416.077" fill="#ADCDD9" width="8.837" height="7.877"/>
			<rect x="474.464" y="416.077" fill="#ADCDD9" width="8.834" height="7.877"/>
		</g>
		<g>
			<rect x="461.307" y="427.141" fill="#ADCDD9" width="8.837" height="7.871"/>
			<rect x="474.464" y="427.141" fill="#ADCDD9" width="8.834" height="7.871"/>
		</g>
		<rect x="455.142" y="437.924" fill="#576A8A" width="34.323" height="5.826"/>
		<polygon fill="#445772" points="481.707,449.573 462.899,449.573 458.444,443.75 486.168,443.75 		"/>
	</g>
	<g>
		<rect x="532.278" y="401.883" fill="#5C5C60" width="27.727" height="35.916"/>
		<g>
			<rect x="535.143" y="404.895" fill="#ADCDD9" width="8.837" height="7.873"/>
			<rect x="548.302" y="404.895" fill="#ADCDD9" width="8.834" height="7.873"/>
		</g>
		<g>
			<rect x="535.143" y="415.954" fill="#ADCDD9" width="8.837" height="7.875"/>
			<rect x="548.302" y="415.954" fill="#ADCDD9" width="8.834" height="7.875"/>
		</g>
		<g>
			<rect x="535.143" y="427.014" fill="#ADCDD9" width="8.837" height="7.873"/>
			<rect x="548.302" y="427.014" fill="#ADCDD9" width="8.834" height="7.873"/>
		</g>
		<rect x="528.976" y="437.793" fill="#576A8A" width="34.326" height="5.823"/>
		<polygon fill="#445772" points="555.545,449.444 536.737,449.444 532.278,443.618 560.005,443.618 		"/>
	</g>
	<g>
		<rect x="458.444" y="479.827" fill="#5C5C60" width="27.724" height="35.918"/>
		<g>
			<rect x="461.307" y="482.84" fill="#ADCDD9" width="8.837" height="7.875"/>
			<rect x="474.464" y="482.84" fill="#ADCDD9" width="8.834" height="7.875"/>
		</g>
		<g>
			<rect x="461.307" y="493.899" fill="#ADCDD9" width="8.837" height="7.873"/>
			<rect x="474.464" y="493.899" fill="#ADCDD9" width="8.834" height="7.873"/>
		</g>
		<g>
			<rect x="461.307" y="504.959" fill="#ADCDD9" width="8.837" height="7.875"/>
			<rect x="474.464" y="504.959" fill="#ADCDD9" width="8.834" height="7.875"/>
		</g>
		<rect x="455.142" y="515.739" fill="#576A8A" width="34.323" height="5.824"/>
		<polygon fill="#445772" points="481.707,527.389 462.899,527.389 458.444,521.565 486.168,521.565 		"/>
	</g>
	<g>
		<rect x="532.278" y="479.827" fill="#5C5C60" width="27.727" height="35.918"/>
		<g>
			<rect x="535.143" y="482.84" fill="#ADCDD9" width="8.837" height="7.875"/>
			<rect x="548.302" y="482.84" fill="#ADCDD9" width="8.834" height="7.875"/>
		</g>
		<g>
			<rect x="535.143" y="493.899" fill="#ADCDD9" width="8.837" height="7.873"/>
			<rect x="548.302" y="493.899" fill="#ADCDD9" width="8.834" height="7.873"/>
		</g>
		<g>
			<rect x="535.143" y="504.959" fill="#ADCDD9" width="8.837" height="7.875"/>
			<rect x="548.302" y="504.959" fill="#ADCDD9" width="8.834" height="7.875"/>
		</g>
		<rect x="528.976" y="515.739" fill="#576A8A" width="34.326" height="5.824"/>
		<polygon fill="#445772" points="555.545,527.389 536.737,527.389 532.278,521.565 560.005,521.565 		"/>
	</g>
	<g>
		<rect x="458.444" y="324.19" fill="#5C5C60" width="27.724" height="35.914"/>
		<g>
			<rect x="461.307" y="327.202" fill="#ADCDD9" width="8.837" height="7.875"/>
			<rect x="474.464" y="327.202" fill="#ADCDD9" width="8.834" height="7.875"/>
		</g>
		<g>
			<rect x="461.307" y="338.264" fill="#ADCDD9" width="8.837" height="7.875"/>
			<rect x="474.464" y="338.264" fill="#ADCDD9" width="8.834" height="7.875"/>
		</g>
		<g>
			<rect x="461.307" y="349.323" fill="#ADCDD9" width="8.837" height="7.877"/>
			<rect x="474.464" y="349.323" fill="#ADCDD9" width="8.834" height="7.877"/>
		</g>
		<rect x="455.142" y="360.102" fill="#576A8A" width="34.323" height="5.824"/>
		<polygon fill="#445772" points="481.707,371.752 462.899,371.752 458.444,365.928 486.168,365.928 		"/>
	</g>
	<g>
		<rect x="532.278" y="323.936" fill="#5C5C60" width="27.727" height="35.914"/>
		<g>
			<rect x="535.143" y="326.944" fill="#ADCDD9" width="8.837" height="7.875"/>
			<rect x="548.302" y="326.944" fill="#ADCDD9" width="8.834" height="7.875"/>
		</g>
		<g>
			<rect x="535.143" y="338.01" fill="#ADCDD9" width="8.837" height="7.873"/>
			<rect x="548.302" y="338.01" fill="#ADCDD9" width="8.834" height="7.873"/>
		</g>
		<g>
			<rect x="535.143" y="349.069" fill="#ADCDD9" width="8.837" height="7.873"/>
			<rect x="548.302" y="349.069" fill="#ADCDD9" width="8.834" height="7.873"/>
		</g>
		<rect x="528.976" y="359.846" fill="#576A8A" width="34.326" height="5.826"/>
		<polygon fill="#445772" points="555.545,371.497 536.737,371.497 532.278,365.672 560.005,365.672 		"/>
	</g>
	<g>
		<g>
			<rect x="494.219" y="538.174" fill="#445772" width="30.012" height="61.604"/>
			<path fill="#454343" d="M525.169,600.68H493.28v-63.408h31.888L525.169,600.68L525.169,600.68z M495.152,598.872h28.136v-59.795
				h-28.136V598.872L495.152,598.872z"/>
		</g>
		<g>
			<path fill="#576A8A" d="M521.133,595.856H497.55v-16.822h23.583V595.856L521.133,595.856z M498.385,595.045h21.905V579.84
				h-21.905V595.045z"/>
		</g>
		<g>
			<path fill="#576A8A" d="M520.714,577.969h-22.744V542.78h22.744V577.969z M498.905,577.067h20.867v-33.381h-20.867V577.067
				L498.905,577.067z"/>
		</g>
	</g>
	<rect x="479.588" y="600.401" fill="#ADAFB8" width="59.267" height="5.248"/>
	<path fill="#EC6562" d="M457.761,486.35"/>
</g>
</svg>
