<?xml version="1.0" encoding="utf-8"?>
<!-- Generator: Adobe Illustrator 16.0.0, SVG Export Plug-In . SVG Version: 6.00 Build 0)  -->
<!DOCTYPE svg PUBLIC "-//W3C//DTD SVG 1.1//EN" "http://www.w3.org/Graphics/SVG/1.1/DTD/svg11.dtd">
<svg version="1.1" id="Layer_1" xmlns="http://www.w3.org/2000/svg" xmlns:xlink="http://www.w3.org/1999/xlink" x="0px" y="0px"
	 width="992px" height="644px" viewBox="0 0 992 644" enable-background="new 0 0 992 644" xml:space="preserve">
<rect x="-5.013" y="-25.5" fill="#8CC9DB" width="998.351" height="673.138"/>
<g>
	<g>
		<rect x="365.059" y="614.136" fill="#808285" width="629.278" height="33.502"/>
		<g>
			<path fill="#FFFFFF" d="M984.449,633.032h-24.464v-4.297h24.464V633.032z M935.524,633.032H911.58v-4.297h23.944V633.032
				L935.524,633.032z M885.555,633.032h-23.423v-4.297h23.423V633.032z M837.671,633.032h-23.423v-4.297h23.423V633.032z
				 M788.223,633.032H764.28v-4.297h23.944L788.223,633.032L788.223,633.032z M740.338,633.032h-25.504v-4.297h25.504V633.032z
				 M691.412,633.032h-25.505v-4.297h25.505V633.032z M641.966,633.032H616.98v-4.297h24.985V633.032z M593.037,633.032h-23.941
				v-4.297h23.941V633.032z M544.113,633.032h-24.466v-4.297h24.466V633.032L544.113,633.032z M496.224,633.032h-24.463v-4.297
				h24.463V633.032z M446.258,633.032h-24.462v-4.297h24.462V633.032z M398.372,633.032h-24.464v-4.297h24.465L398.372,633.032
				L398.372,633.032z"/>
		</g>
	</g>
	<rect x="364.541" y="605.595" fill="#BCBEC0" width="628.797" height="8.606"/>
	<rect x="364.541" y="605.595" fill="#D5DEDE" width="628.797" height="2.188"/>
</g>
<g>
	<g>
		<rect x="-26.353" y="614.136" fill="#808285" width="629.278" height="33.502"/>
		<g>
			<path fill="#FFFFFF" d="M593.037,633.032h-24.463v-4.297h24.463V633.032z M544.113,633.032h-23.945v-4.297h23.945V633.032z
				 M494.142,633.032h-23.423v-4.297h23.423V633.032z M446.258,633.032h-23.422v-4.297h23.422V633.032z M396.809,633.032h-23.942
				v-4.297h23.942V633.032L396.809,633.032z M348.925,633.032h-25.504v-4.297h25.504V633.032z M299.999,633.032h-25.503v-4.297
				h25.503V633.032z M250.552,633.032h-24.984v-4.297h24.984V633.032z M201.627,633.032h-23.944v-4.297h23.944V633.032
				L201.627,633.032z M152.698,633.032h-24.462v-4.297h24.462V633.032z M104.814,633.032H80.35v-4.297h24.464V633.032z
				 M54.845,633.032H30.384v-4.297h24.463L54.845,633.032L54.845,633.032z M6.959,633.032h-24.461v-4.297H6.959V633.032z"/>
		</g>
	</g>
	<rect x="-26.871" y="605.595" fill="#BCBEC0" width="628.797" height="8.606"/>
	<rect x="-26.871" y="605.595" fill="#D5DEDE" width="628.797" height="2.188"/>
</g>
<rect x="325.216" y="42.138" display="none" fill="#8CC9DB" width="322.001" height="574"/>
<path fill="#FFFFFF" d="M696.802,165.156c-2.666,0-5.08,1.111-6.845,2.91c0.011-0.218,0.021-0.438,0.021-0.659
	c0-7.896-6.635-14.307-14.814-14.307c-5.793,0-10.81,3.214-13.241,7.896c-2.558-1.766-5.896-2.835-9.562-2.835
	c-8.021,0-14.521,5.125-14.521,11.443c0,0.198,0.008,0.396,0.021,0.59c-5.338,2.28-8.905,6.433-8.905,11.175
	c0,7.197,8.229,13.032,18.368,13.032c4.054,0,5.561-2.152,8.598-3.729c1.868,1.563,6.659,3.755,9.479,3.755
	c2.604,0,4.979-0.825,6.802-2.188c2.432,2.84,6.51,4.703,11.128,4.703c7.442,0,13.479-4.975,13.479-10.943
	c0-0.214-0.011-0.771-0.023-0.771c0.012,0,0.018,0,0.023,0c5.398,0,9.778-4.418,9.778-10.038
	C706.581,169.573,702.202,165.156,696.802,165.156z"/>
<path fill="#FFFFFF" d="M679.351,61.089c-3.229,0-6.149,1.348-8.288,3.522c0.016-0.268,0.021-0.53,0.021-0.798
	c0-9.569-8.034-17.326-17.941-17.326c-7.02,0-13.091,3.895-16.04,9.563c-3.093-2.138-7.144-3.436-11.575-3.436
	c-9.711,0-17.584,6.207-17.584,13.861c0,0.235,0.009,0.478,0.021,0.715c-6.465,2.76-10.786,7.788-10.786,13.527
	c0,8.721,9.961,15.786,22.247,15.786c4.904,0,6.729-2.606,10.406-4.52c2.267,1.896,8.065,4.547,11.479,4.547
	c3.153,0,6.032-0.998,8.237-2.646c2.938,3.438,7.879,5.693,13.473,5.693c9.021,0,16.325-5.813,16.325-13.043
	c0-0.258-0.013-0.723-0.028-0.723c0.013,0,0.021,0,0.028,0c6.539,0,11.845-5.563,11.845-12.369
	C691.195,66.654,685.891,61.089,679.351,61.089z"/>
<path fill="#FFFFFF" d="M372.409,124.488c-2.972,0-5.66,1.294-7.625,3.392c0.013-0.254,0.02-0.512,0.02-0.77
	c0-9.204-7.392-16.665-16.507-16.665c-6.457,0-12.045,3.742-14.758,9.196c-2.847-2.054-6.571-3.303-10.65-3.303
	c-8.937,0-16.181,5.97-16.181,13.332c0,0.229,0.009,0.459,0.021,0.688c-5.946,2.653-9.925,7.489-9.925,13.017
	c0,8.386,9.165,15.183,20.469,15.183c4.515,0,6.191-2.509,9.576-4.345c2.082,1.825,7.421,4.374,10.563,4.374
	c2.9,0,5.551-0.96,7.58-2.545c2.707,3.309,7.249,5.479,12.396,5.479c8.296,0,15.021-5.886,15.021-12.841
	c0-0.249-0.013-0.989-0.027-0.989c0.01,0,0.02,0,0.027,0c6.017,0,10.896-5.058,10.896-11.604
	C383.306,129.544,378.427,124.488,372.409,124.488z"/>
<g>
	<rect x="191.773" y="164.781" fill="#D1D3D4" width="190.454" height="440.622"/>
	<rect x="340.055" y="509.989" fill="#939598" width="21.515" height="95.418"/>
	<rect x="215.269" y="509.989" fill="#939598" width="21.515" height="95.418"/>
	<rect x="340.055" y="163.613" fill="#939598" width="21.515" height="314.22"/>
	<rect x="215.269" y="164.781" fill="#939598" width="21.515" height="314.218"/>
	<polygon fill="#808285" points="382.421,512.438 191.584,512.438 181.033,499.588 392.971,499.588 	"/>
	<polygon fill="#808285" points="382.421,469.69 191.584,469.69 181.033,456.844 392.971,456.844 	"/>
	<polygon fill="#808285" points="382.421,424.69 191.584,424.69 181.033,411.846 392.971,411.846 	"/>
	<polygon fill="#808285" points="382.421,379.692 191.586,379.692 181.033,366.842 392.971,366.842 	"/>
	<polygon fill="#808285" points="382.421,334.69 191.586,334.69 181.033,321.84 392.971,321.84 	"/>
	<polygon fill="#808285" points="382.421,290.812 191.586,290.812 181.035,277.969 392.971,277.969 	"/>
	<polygon fill="#808285" points="382.421,245.81 191.587,245.81 181.035,232.971 392.971,232.971 	"/>
	<polygon fill="#808285" points="382.421,200.814 191.587,200.814 181.037,187.972 392.971,187.972 	"/>
	<polygon fill="#BCBEC0" points="398.382,502.035 176.994,502.035 172.939,498.885 172.939,479.963 176.292,476.635 
		398.382,476.635 401,480.112 401,498.885 	"/>
	<polygon fill="#BCBEC0" points="398.382,457.321 176.994,457.321 172.939,454.166 172.939,435.244 176.292,431.914 
		398.382,431.914 401,435.391 401,454.166 	"/>
	<polygon fill="#BCBEC0" points="398.382,412.602 176.994,412.602 172.939,409.449 172.939,390.526 176.292,387.198 
		398.382,387.198 401,390.676 401,409.449 	"/>
	<polygon fill="#BCBEC0" points="398.382,367.885 176.994,367.885 172.939,364.733 172.939,345.811 176.292,342.483 
		398.382,342.483 401,345.959 401,364.733 	"/>
	<polygon fill="#BCBEC0" points="398.382,323.172 176.994,323.172 172.939,320.018 172.939,301.091 176.292,297.761 
		398.382,297.761 401,301.24 401,320.018 	"/>
	<polygon fill="#BCBEC0" points="398.382,278.453 176.994,278.453 172.939,275.301 172.939,256.375 176.292,253.047 
		398.382,253.047 401,256.526 401,275.301 	"/>
	<polygon fill="#BCBEC0" points="398.382,233.736 176.994,233.736 172.939,230.58 172.939,211.655 176.292,208.328 398.382,208.328 
		401,211.804 401,230.58 	"/>
	<polygon fill="#BCBEC0" points="398.382,189.017 176.994,189.017 172.939,185.866 172.939,166.943 176.292,163.613 
		398.382,163.613 401,167.09 401,185.866 	"/>
	<rect x="261.762" y="540.768" fill="#4BB5AB" width="50.482" height="64.646"/>
</g>
<g>
	<path fill="#FAFBFC" d="M625.554,195.965v412.363h18.631h39.028h18.516h39.036h18.519h39.032h18.899V195.965H625.554z
		 M683.214,552.436h-39.028v-53.678h39.028V552.436z M683.214,481.78h-39.028v-53.672h39.028V481.78z M683.214,411.135h-39.028
		v-53.674h39.028V411.135z M683.214,340.477h-39.028v-53.676h39.028V340.477z M683.214,269.823h-39.028v-53.669h39.028V269.823z
		 M740.755,552.436h-39.026v-53.678h39.027L740.755,552.436L740.755,552.436z M740.755,481.78h-39.026v-53.672h39.027
		L740.755,481.78L740.755,481.78z M740.755,411.135h-39.026v-53.674h39.027L740.755,411.135L740.755,411.135z M740.755,340.477
		h-39.026v-53.676h39.027L740.755,340.477L740.755,340.477z M740.755,269.823h-39.026v-53.669h39.027L740.755,269.823
		L740.755,269.823z M798.3,552.436h-39.041v-53.678H798.3V552.436L798.3,552.436z M798.3,481.78h-39.041v-53.672H798.3V481.78
		L798.3,481.78z M798.3,411.135h-39.041v-53.674H798.3V411.135L798.3,411.135z M798.3,340.477h-39.041v-53.676H798.3V340.477
		L798.3,340.477z M798.3,269.823h-39.041v-53.669H798.3V269.823L798.3,269.823z"/>
	<polygon fill="#805B24" points="817.78,201.502 830.907,175.527 609.925,175.717 624.185,201.502 634.692,201.502 804.586,201.502 
			"/>
	<path fill="#6D4D42" d="M644.185,269.823h39.028v-53.669h-39.028V269.823L644.185,269.823z M650.689,225.098h26.017v35.788h-26.017
		V225.098z"/>
	<rect x="650.689" y="225.098" fill="#EBF7F8" width="26.017" height="35.788"/>
	<path fill="#6D4D42" d="M701.729,269.823h39.027v-53.669h-39.027V269.823z M708.236,225.098h26.019v35.788h-26.019V225.098z"/>
	<rect x="708.236" y="225.098" fill="#EBF7F8" width="26.019" height="35.788"/>
	<path fill="#6D4D42" d="M759.269,269.823h39.032v-53.669h-39.032V269.823L759.269,269.823z M765.773,225.098h26.02v35.788h-26.02
		V225.098z"/>
	<rect x="765.773" y="225.098" fill="#EBF7F8" width="26.02" height="35.788"/>
	<path fill="#6D4D42" d="M644.185,340.477h39.028v-53.676h-39.028V340.477L644.185,340.477z M650.689,295.753h26.017v35.787h-26.017
		V295.753z"/>
	<rect x="650.689" y="295.753" fill="#EBF7F8" width="26.017" height="35.787"/>
	<path fill="#6D4D42" d="M701.729,340.477h39.027v-53.676h-39.027V340.477z M708.236,295.753h26.019v35.787h-26.019V295.753z"/>
	<rect x="708.236" y="295.753" fill="#EBF7F8" width="26.019" height="35.787"/>
	<path fill="#6D4D42" d="M759.269,340.477h39.032v-53.676h-39.032V340.477L759.269,340.477z M765.773,295.753h26.02v35.787h-26.02
		V295.753z"/>
	<rect x="765.773" y="295.753" fill="#EBF7F8" width="26.02" height="35.787"/>
	<path fill="#6D4D42" d="M644.185,411.135h39.028v-53.674h-39.028V411.135L644.185,411.135z M650.689,366.399h26.017v35.789h-26.017
		V366.399z"/>
	<rect x="650.689" y="366.399" fill="#EBF7F8" width="26.017" height="35.789"/>
	<path fill="#6D4D42" d="M701.729,411.135h39.027v-53.674h-39.027V411.135z M708.236,366.399h26.019v35.789h-26.019V366.399z"/>
	<rect x="708.236" y="366.399" fill="#EBF7F8" width="26.019" height="35.789"/>
	<path fill="#6D4D42" d="M759.269,411.135h39.032v-53.674h-39.032V411.135L759.269,411.135z M765.773,366.399h26.02v35.789h-26.02
		V366.399z"/>
	<rect x="765.773" y="366.399" fill="#EBF7F8" width="26.02" height="35.789"/>
	<path fill="#6D4D42" d="M644.185,481.78h39.028v-53.672h-39.028V481.78L644.185,481.78z M650.689,437.051h26.017v35.789h-26.017
		V437.051z"/>
	<rect x="650.689" y="437.051" fill="#EBF7F8" width="26.017" height="35.789"/>
	<path fill="#6D4D42" d="M701.729,481.78h39.027v-53.672h-39.027V481.78z M708.236,437.051h26.019v35.789h-26.019V437.051z"/>
	<rect x="708.236" y="437.051" fill="#EBF7F8" width="26.019" height="35.789"/>
	<path fill="#6D4D42" d="M759.269,481.78h39.032v-53.672h-39.032V481.78L759.269,481.78z M765.773,437.051h26.02v35.789h-26.02
		V437.051z"/>
	<rect x="765.773" y="437.051" fill="#EBF7F8" width="26.02" height="35.789"/>
	<path fill="#6D4D42" d="M644.185,552.436h39.028v-53.678h-39.028V552.436L644.185,552.436z M650.689,507.703h26.017v35.789h-26.017
		V507.703z"/>
	<rect x="650.689" y="507.703" fill="#EBF7F8" width="26.017" height="35.789"/>
	<path fill="#6D4D42" d="M701.729,552.436h39.027v-53.678h-39.027V552.436z M708.236,507.703h26.019v35.789h-26.019V507.703z"/>
	<rect x="708.236" y="507.703" fill="#EBF7F8" width="26.019" height="35.789"/>
	<path fill="#6D4D42" d="M759.269,552.436h39.032v-53.678h-39.032V552.436L759.269,552.436z M765.773,507.703h26.02v35.789h-26.02
		V507.703z"/>
	<rect x="765.773" y="507.703" fill="#EBF7F8" width="26.02" height="35.789"/>
</g>
<g>
	<rect x="438.404" y="157.724" fill="#F58E89" width="141.634" height="447.827"/>
	<rect x="429.248" y="132.389" fill="#3D4A3D" width="159.946" height="15.846"/>
	<rect x="434.689" y="148.093" fill="#EC6562" width="149.065" height="9.9"/>
	<rect x="434.689" y="385.914" fill="#EC6562" width="149.065" height="9.896"/>
	<rect x="434.689" y="305.001" fill="#EC6562" width="149.065" height="9.896"/>
	<rect x="434.689" y="224.081" fill="#EC6562" width="149.065" height="9.901"/>
	<rect x="434.689" y="466.826" fill="#EC6562" width="149.065" height="9.9"/>
	<g>
		<rect x="458.444" y="246.376" fill="#5C5C60" width="27.723" height="35.91"/>
		<g>
			<rect x="461.307" y="249.385" fill="#ADCDD9" width="8.837" height="7.875"/>
			<rect x="474.463" y="249.385" fill="#ADCDD9" width="8.834" height="7.875"/>
		</g>
		<g>
			<rect x="461.307" y="260.444" fill="#ADCDD9" width="8.837" height="7.875"/>
			<rect x="474.463" y="260.444" fill="#ADCDD9" width="8.834" height="7.875"/>
		</g>
		<g>
			<rect x="461.307" y="271.507" fill="#ADCDD9" width="8.837" height="7.87"/>
			<rect x="474.463" y="271.507" fill="#ADCDD9" width="8.834" height="7.87"/>
		</g>
		<rect x="455.142" y="282.283" fill="#576A8A" width="34.323" height="5.828"/>
		<polygon fill="#445772" points="481.707,293.939 462.899,293.939 458.444,288.111 486.167,288.111 		"/>
	</g>
	<g>
		<rect x="532.278" y="245.99" fill="#5C5C60" width="27.726" height="35.911"/>
		<g>
			<rect x="535.143" y="248.998" fill="#ADCDD9" width="8.837" height="7.871"/>
			<rect x="548.301" y="248.998" fill="#ADCDD9" width="8.834" height="7.871"/>
		</g>
		<g>
			<rect x="535.143" y="260.059" fill="#ADCDD9" width="8.837" height="7.872"/>
			<rect x="548.301" y="260.059" fill="#ADCDD9" width="8.834" height="7.872"/>
		</g>
		<g>
			<rect x="535.143" y="271.118" fill="#ADCDD9" width="8.837" height="7.871"/>
			<rect x="548.301" y="271.118" fill="#ADCDD9" width="8.834" height="7.871"/>
		</g>
		<rect x="528.976" y="281.902" fill="#576A8A" width="34.326" height="5.824"/>
		<polygon fill="#445772" points="555.544,293.553 536.737,293.553 532.278,287.725 560.004,287.725 		"/>
	</g>
	<g>
		<rect x="458.444" y="168.072" fill="#5C5C60" width="27.723" height="35.914"/>
		<g>
			<rect x="461.307" y="171.084" fill="#ADCDD9" width="8.837" height="7.875"/>
			<rect x="474.463" y="171.084" fill="#ADCDD9" width="8.834" height="7.875"/>
		</g>
		<g>
			<rect x="461.307" y="182.145" fill="#ADCDD9" width="8.837" height="7.873"/>
			<rect x="474.463" y="182.145" fill="#ADCDD9" width="8.834" height="7.873"/>
		</g>
		<g>
			<rect x="461.307" y="193.205" fill="#ADCDD9" width="8.837" height="7.874"/>
			<rect x="474.463" y="193.205" fill="#ADCDD9" width="8.834" height="7.874"/>
		</g>
		<rect x="455.142" y="203.986" fill="#576A8A" width="34.323" height="5.822"/>
		<polygon fill="#445772" points="481.707,215.634 462.899,215.634 458.444,209.808 486.167,209.808 		"/>
	</g>
	<g>
		<rect x="532.283" y="168.072" fill="#5C5C60" width="27.721" height="35.914"/>
		<g>
			<rect x="535.143" y="171.084" fill="#ADCDD9" width="8.838" height="7.875"/>
			<rect x="548.301" y="171.084" fill="#ADCDD9" width="8.833" height="7.875"/>
		</g>
		<g>
			<rect x="535.143" y="182.145" fill="#ADCDD9" width="8.838" height="7.873"/>
			<rect x="548.301" y="182.145" fill="#ADCDD9" width="8.833" height="7.873"/>
		</g>
		<g>
			<rect x="535.143" y="193.205" fill="#ADCDD9" width="8.838" height="7.874"/>
			<rect x="548.301" y="193.205" fill="#ADCDD9" width="8.833" height="7.874"/>
		</g>
		<rect x="528.976" y="203.986" fill="#576A8A" width="34.326" height="5.822"/>
		<polygon fill="#445772" points="555.544,215.634 536.737,215.634 532.283,209.808 560.004,209.808 		"/>
	</g>
	<g>
		<rect x="458.444" y="402.01" fill="#5C5C60" width="27.723" height="35.914"/>
		<g>
			<rect x="461.307" y="405.018" fill="#ADCDD9" width="8.837" height="7.873"/>
			<rect x="474.463" y="405.018" fill="#ADCDD9" width="8.834" height="7.873"/>
		</g>
		<g>
			<rect x="461.307" y="416.078" fill="#ADCDD9" width="8.837" height="7.877"/>
			<rect x="474.463" y="416.078" fill="#ADCDD9" width="8.834" height="7.877"/>
		</g>
		<g>
			<rect x="461.307" y="427.141" fill="#ADCDD9" width="8.837" height="7.871"/>
			<rect x="474.463" y="427.141" fill="#ADCDD9" width="8.834" height="7.871"/>
		</g>
		<rect x="455.142" y="437.924" fill="#576A8A" width="34.323" height="5.826"/>
		<polygon fill="#445772" points="481.707,449.574 462.899,449.574 458.444,443.75 486.167,443.75 		"/>
	</g>
	<g>
		<rect x="532.278" y="401.883" fill="#5C5C60" width="27.726" height="35.916"/>
		<g>
			<rect x="535.143" y="404.895" fill="#ADCDD9" width="8.837" height="7.873"/>
			<rect x="548.301" y="404.895" fill="#ADCDD9" width="8.834" height="7.873"/>
		</g>
		<g>
			<rect x="535.143" y="415.955" fill="#ADCDD9" width="8.837" height="7.875"/>
			<rect x="548.301" y="415.955" fill="#ADCDD9" width="8.834" height="7.875"/>
		</g>
		<g>
			<rect x="535.143" y="427.014" fill="#ADCDD9" width="8.837" height="7.873"/>
			<rect x="548.301" y="427.014" fill="#ADCDD9" width="8.834" height="7.873"/>
		</g>
		<rect x="528.976" y="437.793" fill="#576A8A" width="34.326" height="5.824"/>
		<polygon fill="#445772" points="555.544,449.444 536.737,449.444 532.278,443.619 560.004,443.619 		"/>
	</g>
	<g>
		<rect x="458.444" y="479.828" fill="#5C5C60" width="27.723" height="35.918"/>
		<g>
			<rect x="461.307" y="482.84" fill="#ADCDD9" width="8.837" height="7.875"/>
			<rect x="474.463" y="482.84" fill="#ADCDD9" width="8.834" height="7.875"/>
		</g>
		<g>
			<rect x="461.307" y="493.899" fill="#ADCDD9" width="8.837" height="7.873"/>
			<rect x="474.463" y="493.899" fill="#ADCDD9" width="8.834" height="7.873"/>
		</g>
		<g>
			<rect x="461.307" y="504.959" fill="#ADCDD9" width="8.837" height="7.875"/>
			<rect x="474.463" y="504.959" fill="#ADCDD9" width="8.834" height="7.875"/>
		</g>
		<rect x="455.142" y="515.739" fill="#576A8A" width="34.323" height="5.824"/>
		<polygon fill="#445772" points="481.707,527.389 462.899,527.389 458.444,521.565 486.167,521.565 		"/>
	</g>
	<g>
		<rect x="532.278" y="479.828" fill="#5C5C60" width="27.726" height="35.918"/>
		<g>
			<rect x="535.143" y="482.84" fill="#ADCDD9" width="8.837" height="7.875"/>
			<rect x="548.301" y="482.84" fill="#ADCDD9" width="8.834" height="7.875"/>
		</g>
		<g>
			<rect x="535.143" y="493.899" fill="#ADCDD9" width="8.837" height="7.873"/>
			<rect x="548.301" y="493.899" fill="#ADCDD9" width="8.834" height="7.873"/>
		</g>
		<g>
			<rect x="535.143" y="504.959" fill="#ADCDD9" width="8.837" height="7.875"/>
			<rect x="548.301" y="504.959" fill="#ADCDD9" width="8.834" height="7.875"/>
		</g>
		<rect x="528.976" y="515.739" fill="#576A8A" width="34.326" height="5.824"/>
		<polygon fill="#445772" points="555.544,527.389 536.737,527.389 532.278,521.565 560.004,521.565 		"/>
	</g>
	<g>
		<rect x="458.444" y="324.19" fill="#5C5C60" width="27.723" height="35.914"/>
		<g>
			<rect x="461.307" y="327.203" fill="#ADCDD9" width="8.837" height="7.875"/>
			<rect x="474.463" y="327.203" fill="#ADCDD9" width="8.834" height="7.875"/>
		</g>
		<g>
			<rect x="461.307" y="338.264" fill="#ADCDD9" width="8.837" height="7.875"/>
			<rect x="474.463" y="338.264" fill="#ADCDD9" width="8.834" height="7.875"/>
		</g>
		<g>
			<rect x="461.307" y="349.323" fill="#ADCDD9" width="8.837" height="7.877"/>
			<rect x="474.463" y="349.323" fill="#ADCDD9" width="8.834" height="7.877"/>
		</g>
		<rect x="455.142" y="360.102" fill="#576A8A" width="34.323" height="5.824"/>
		<polygon fill="#445772" points="481.707,371.752 462.899,371.752 458.444,365.928 486.167,365.928 		"/>
	</g>
	<g>
		<rect x="532.278" y="323.936" fill="#5C5C60" width="27.726" height="35.914"/>
		<g>
			<rect x="535.143" y="326.944" fill="#ADCDD9" width="8.837" height="7.875"/>
			<rect x="548.301" y="326.944" fill="#ADCDD9" width="8.834" height="7.875"/>
		</g>
		<g>
			<rect x="535.143" y="338.01" fill="#ADCDD9" width="8.837" height="7.873"/>
			<rect x="548.301" y="338.01" fill="#ADCDD9" width="8.834" height="7.873"/>
		</g>
		<g>
			<rect x="535.143" y="349.069" fill="#ADCDD9" width="8.837" height="7.873"/>
			<rect x="548.301" y="349.069" fill="#ADCDD9" width="8.834" height="7.873"/>
		</g>
		<rect x="528.976" y="359.846" fill="#576A8A" width="34.326" height="5.826"/>
		<polygon fill="#445772" points="555.544,371.498 536.737,371.498 532.278,365.672 560.004,365.672 		"/>
	</g>
	<g>
		<g>
			<rect x="494.218" y="538.174" fill="#445772" width="30.012" height="61.605"/>
			<path fill="#454343" d="M525.168,600.68H493.28v-63.408h31.888V600.68z M495.152,598.873h28.136v-59.795h-28.136V598.873z"/>
		</g>
		<g>
			<path fill="#576A8A" d="M521.132,595.856h-23.583v-16.822h23.583V595.856L521.132,595.856z M498.385,595.045h21.906V579.84
				h-21.906V595.045z"/>
		</g>
		<g>
			<path fill="#576A8A" d="M520.713,577.969h-22.744V542.78h22.744V577.969z M498.905,577.067h20.867v-33.381h-20.867V577.067
				L498.905,577.067z"/>
		</g>
	</g>
	<rect x="479.587" y="600.401" fill="#ADAFB8" width="59.267" height="5.248"/>
	<path fill="#EC6562" d="M457.761,486.35"/>
</g>
<g display="none">
	<g display="inline">
		<rect x="325.496" y="589.638" fill="#808285" width="322" height="24"/>
		<g>
			<path fill="#FFFFFF" d="M642.495,603.638h-12v-4h12V603.638z M617.495,603.638h-12v-4h12V603.638z M591.495,603.638h-12v-4h12
				V603.638z M567.495,603.638h-12v-4h12V603.638z M541.495,603.638h-11v-4h11V603.638z M517.495,603.638h-13v-4h13V603.638z
				 M492.495,603.638h-13v-4h13V603.638z M466.496,603.638h-13v-4h13V603.638z M442.496,603.638h-13v-4h13V603.638z
				 M416.496,603.638h-13v-4h13V603.638z M392.496,603.638h-13v-4h13V603.638z M366.496,603.638h-12v-4h12V603.638z
				 M342.496,603.638h-13v-4h13V603.638z"/>
		</g>
	</g>
	<rect x="324.716" y="583.768" display="inline" fill="#BCBEC0" width="322.343" height="6.114"/>
	<rect x="324.716" y="583.768" display="inline" fill="#D5DEDE" width="322.343" height="1.555"/>
</g>
<g>
	<path fill="#FFFFFF" d="M458.639,68.074c-4.818,1.852-9.815,0.508-17.369-6.165c-7.548-6.672-16.329-11.764-20.188-7.725
		s-1.227,16.681,1.756,21.245c2.982,4.568,11.517,6.182,31.761,6.172C474.845,81.591,479.021,67.705,458.639,68.074z"/>
	<path fill="#FEDA3E" d="M579.521,55.092c0.595,5.569-8.542,15.951-47.854,20.866c-39.312,4.916-94.187,7.484-96.522,3.975
		c-2.048-3.074,39.479-19.123,68.976-25.768c0.354,3.62,1.339,6.242,3.79,5.663c4.096-0.977,18.724-3.512,24.773-4.684
		c5.115-0.989,5.206-2.959,5.352-5.55C560.177,48.03,578.9,49.291,579.521,55.092z"/>
	
		<ellipse transform="matrix(0.1753 0.9845 -0.9845 0.1753 528.7069 -519.0346)" fill="#FEDA3E" cx="574.149" cy="56.052" rx="3.321" ry="10.724"/>
	<path fill="#F1F2F2" d="M576.837,32.424c0.295,6.421,1.191,14.271,2.685,22.667c1.492,8.402,3.356,16.077,5.293,22.208
		c-0.298-6.423-1.193-14.27-2.687-22.671C580.634,46.228,578.77,38.555,576.837,32.424z"/>
	<path fill="#FFFFFF" d="M551.29,36.668c1.373-0.073,1.369,0.797-1.021,1.252c-2.393,0.454-25.373,5.689-28.332,5.917
		c-2.961,0.231-11.722,0.798-17.523-0.798c-5.803-1.595-33.567-10.695-35.842-11.606c-2.274-0.91-3.982-1.138-1.477-2.275
		c2.503-1.14,33.453-9.217,38.23-10.014c4.778-0.799,8.763-1.479,11.604,1.022c2.846,2.504,22.078,14.113,23.555,15.474
		C541.96,37.01,548.316,36.826,551.29,36.668z"/>
	<polygon fill="#FFFFFF" points="498.993,34.51 496.15,34.822 499.912,78.105 502.755,77.792 	"/>
	
		<rect x="520.691" y="29.043" transform="matrix(0.994 -0.1092 0.1092 0.994 -2.6067 57.3076)" fill="#FFFFFF" width="2.863" height="46.84"/>
	<polygon fill="#F5DF74" points="518.132,29.301 501.856,77.5 502.755,77.792 519.028,29.594 	"/>
	<polygon fill="#F5DF74" points="498.198,35.018 523.264,75.87 524.057,75.36 498.993,34.51 	"/>
	<g>
		<path fill="#FFFFFF" d="M533.964,40.606l-2.254,0.221l1.574,14.193c0.896-0.202,1.615-0.439,2.197-0.707L533.964,40.606z"/>
		<path fill="#FFFFFF" d="M547.416,38.054l-2.253,0.222l1.201,10.861c0.764-0.027,1.524-0.055,2.268-0.078L547.416,38.054z"/>
		<polygon fill="#F5DF74" points="545.166,38.275 542.122,49.335 542.716,49.304 545.702,38.45 		"/>
		<polygon fill="#F5DF74" points="533.517,41.094 538.344,49.574 538.969,49.532 533.994,40.788 		"/>
	</g>
	<path fill="#FFFFFF" d="M544.415,74.082c-5.749-0.408-21.493-0.273-28.754,0.139c-7.257,0.41-16.976,3.013-24.917,5.476
		c-7.944,2.463-16.432,5.478-16.84,6.436c-0.411,0.959,3.968,0.546,9.583,0.136c5.616-0.409,27.658-4.379,31.765-4.79
		C519.36,81.064,546.882,74.494,544.415,74.082z"/>
</g>
</svg>
