<?xml version="1.0" encoding="utf-8"?>
<!-- Generator: Adobe Illustrator 16.0.0, SVG Export Plug-In . SVG Version: 6.00 Build 0)  -->
<!DOCTYPE svg PUBLIC "-//W3C//DTD SVG 1.1//EN" "http://www.w3.org/Graphics/SVG/1.1/DTD/svg11.dtd">
<svg version="1.1" id="Layer_1" xmlns="http://www.w3.org/2000/svg" xmlns:xlink="http://www.w3.org/1999/xlink" x="0px" y="0px"
	 width="992px" height="644px" viewBox="0 0 992 644" enable-background="new 0 0 992 644" xml:space="preserve">
<rect x="-5.013" y="-25.5" fill="#8CC9DB" width="998.353" height="673.138"/>
<g>
	<g>
		<rect x="365.059" y="614.136" fill="#808285" width="629.278" height="33.502"/>
		<g>
			<path fill="#FFFFFF" d="M984.449,633.031h-24.464v-4.297h24.464V633.031z M935.524,633.031H911.58v-4.297h23.944V633.031
				L935.524,633.031z M885.555,633.031h-23.423v-4.297h23.423V633.031z M837.673,633.031h-23.425v-4.297h23.425V633.031z
				 M788.223,633.031H764.28v-4.297h23.944L788.223,633.031L788.223,633.031z M740.34,633.031h-25.506v-4.297h25.506V633.031z
				 M691.412,633.031h-25.505v-4.297h25.505V633.031z M641.968,633.031H616.98v-4.297h24.985L641.968,633.031L641.968,633.031z
				 M593.037,633.031h-23.939v-4.297h23.939V633.031z M544.113,633.031h-24.466v-4.297h24.466V633.031L544.113,633.031z
				 M496.224,633.031h-24.463v-4.297h24.463V633.031z M446.26,633.031h-24.462v-4.297h24.462V633.031z M398.372,633.031h-24.464
				v-4.297h24.465L398.372,633.031L398.372,633.031z"/>
		</g>
	</g>
	<rect x="364.541" y="605.595" fill="#BCBEC0" width="628.799" height="8.604"/>
	<rect x="364.541" y="605.595" fill="#D5DEDE" width="628.799" height="2.188"/>
</g>
<g>
	<g>
		<rect x="-26.353" y="614.136" fill="#808285" width="629.278" height="33.502"/>
		<g>
			<path fill="#FFFFFF" d="M593.037,633.031h-24.463v-4.297h24.463V633.031z M544.113,633.031h-23.945v-4.297h23.945V633.031z
				 M494.142,633.031h-23.423v-4.297h23.423V633.031z M446.26,633.031h-23.422v-4.297h23.422V633.031z M396.809,633.031h-23.942
				v-4.297h23.942V633.031L396.809,633.031z M348.925,633.031h-25.504v-4.297h25.504V633.031z M299.999,633.031h-25.503v-4.297
				h25.503V633.031z M250.552,633.031h-24.984v-4.297h24.984V633.031z M201.627,633.031h-23.942v-4.297h23.942V633.031
				L201.627,633.031z M152.698,633.031h-24.462v-4.297h24.462V633.031z M104.814,633.031H80.35v-4.297h24.464V633.031z
				 M54.845,633.031H30.384v-4.297h24.465L54.845,633.031L54.845,633.031z M6.959,633.031h-24.461v-4.297H6.959V633.031z"/>
		</g>
	</g>
	<rect x="-26.871" y="605.595" fill="#BCBEC0" width="628.799" height="8.604"/>
	<rect x="-26.871" y="605.595" fill="#D5DEDE" width="628.799" height="2.188"/>
</g>
<rect x="325.216" y="42.138" display="none" fill="#8CC9DB" width="322.003" height="574"/>
<g display="none">
	<g display="inline">
		<rect x="325.496" y="589.638" fill="#808285" width="322" height="24"/>
		<g>
			<path fill="#FFFFFF" d="M642.495,603.638h-12v-4h12V603.638z M617.495,603.638h-12v-4h12V603.638z M591.495,603.638h-12v-4h12
				V603.638z M567.495,603.638h-12v-4h12V603.638z M541.495,603.638h-11v-4h11V603.638z M517.495,603.638h-13v-4h13V603.638z
				 M492.495,603.638h-13v-4h13V603.638z M466.496,603.638h-13v-4h13V603.638z M442.496,603.638h-13v-4h13V603.638z
				 M416.496,603.638h-13v-4h13V603.638z M392.496,603.638h-13v-4h13V603.638z M366.496,603.638h-12v-4h12V603.638z
				 M342.496,603.638h-13v-4h13V603.638z"/>
		</g>
	</g>
	<rect x="324.716" y="583.768" display="inline" fill="#BCBEC0" width="322.345" height="6.114"/>
	<rect x="324.716" y="583.768" display="inline" fill="#D5DEDE" width="322.345" height="1.555"/>
</g>
<g>
	<g>
		<rect x="1063.694" y="5.511" fill="#75C1D2" width="78.553" height="217.869"/>
		<rect x="964" y="5.515" fill="#75C1D2" width="78.553" height="217.862"/>
		<rect x="175.021" y="42.444" fill="#75C1D2" width="78.551" height="217.869"/>
		<rect x="493.56" y="-53.905" fill="#75C1D2" width="116.563" height="368.56"/>
		<polygon fill="#75C1D2" points="752.489,108.242 752.489,410.678 913.978,410.678 913.978,108.242 836.741,36.072 		"/>
		<polygon fill="#75C1D2" points="-128.651,88.935 -128.651,336.781 3.947,336.781 3.947,88.935 -59.471,29.789 		"/>
		<polygon fill="#50A7AE" points="1171.075,254.535 1171.075,175.754 998.611,175.754 998.831,135.73 934.495,135.73 
			934.495,200.105 818.696,200.105 818.696,227.337 741.497,227.337 741.497,130.784 687.456,130.784 687.456,254.535 
			538.104,254.535 538.104,175.754 368.145,175.754 368.361,135.73 304.029,135.73 304.029,200.105 188.227,200.105 
			188.227,227.337 136.129,227.337 136.129,368.864 35.662,368.864 35.662,254.535 -92.357,254.535 -92.357,175.754 
			-131.082,175.754 -131.082,608.602 1231.052,608.678 1231.052,254.916 		"/>
	</g>
	<rect x="406.871" y="76.992" fill="#50A7AE" width="97.063" height="117.487"/>
</g>
<g>
	<rect x="191.773" y="168.781" fill="#D1D3D4" width="190.454" height="440.622"/>
	<rect x="340.055" y="513.989" fill="#939598" width="21.515" height="95.418"/>
	<rect x="215.269" y="513.989" fill="#939598" width="21.515" height="95.418"/>
	<rect x="340.055" y="167.613" fill="#939598" width="21.515" height="314.22"/>
	<rect x="215.269" y="168.781" fill="#939598" width="21.515" height="314.218"/>
	<polygon fill="#808285" points="382.421,516.438 191.584,516.438 181.033,503.588 392.971,503.588 	"/>
	<polygon fill="#808285" points="382.421,473.69 191.584,473.69 181.033,460.844 392.971,460.844 	"/>
	<polygon fill="#808285" points="382.421,428.69 191.584,428.69 181.033,415.846 392.971,415.846 	"/>
	<polygon fill="#808285" points="382.421,383.692 191.586,383.692 181.033,370.842 392.971,370.842 	"/>
	<polygon fill="#808285" points="382.421,338.69 191.586,338.69 181.033,325.84 392.971,325.84 	"/>
	<polygon fill="#808285" points="382.421,294.812 191.586,294.812 181.035,281.969 392.971,281.969 	"/>
	<polygon fill="#808285" points="382.421,249.81 191.587,249.81 181.035,236.971 392.971,236.971 	"/>
	<polygon fill="#808285" points="382.421,204.814 191.587,204.814 181.037,191.972 392.971,191.972 	"/>
	<polygon fill="#BCBEC0" points="398.382,506.033 176.994,506.033 172.939,502.885 172.939,483.963 176.292,480.635 
		398.382,480.635 401,484.112 401,502.885 	"/>
	<polygon fill="#BCBEC0" points="398.382,461.321 176.994,461.321 172.939,458.164 172.939,439.242 176.292,435.912 
		398.382,435.912 401,439.391 401,458.164 	"/>
	<polygon fill="#BCBEC0" points="398.382,416.602 176.994,416.602 172.939,413.448 172.939,394.526 176.292,391.198 
		398.382,391.198 401,394.676 401,413.448 	"/>
	<polygon fill="#BCBEC0" points="398.382,371.885 176.994,371.885 172.939,368.733 172.939,349.811 176.292,346.483 
		398.382,346.483 401,349.959 401,368.733 	"/>
	<polygon fill="#BCBEC0" points="398.382,327.172 176.994,327.172 172.939,324.018 172.939,305.091 176.292,301.761 
		398.382,301.761 401,305.24 401,324.018 	"/>
	<polygon fill="#BCBEC0" points="398.382,282.453 176.994,282.453 172.939,279.301 172.939,260.375 176.292,257.047 
		398.382,257.047 401,260.526 401,279.301 	"/>
	<polygon fill="#BCBEC0" points="398.382,237.736 176.994,237.736 172.939,234.58 172.939,215.655 176.292,212.328 398.382,212.328 
		401,215.804 401,234.58 	"/>
	<polygon fill="#BCBEC0" points="398.382,193.017 176.994,193.017 172.939,189.866 172.939,170.943 176.292,167.613 
		398.382,167.613 401,171.09 401,189.866 	"/>
	<rect x="261.762" y="544.768" fill="#4BB5AB" width="50.48" height="64.646"/>
</g>
<g>
	<path fill="#FAFBFC" d="M625.554,196.965v412.361h18.631h39.028h18.516h39.036h18.519h39.032h18.899V196.965H625.554z
		 M683.216,553.436h-39.028v-53.678h39.028V553.436z M683.216,482.78h-39.028v-53.672h39.028V482.78z M683.216,412.135h-39.028
		v-53.674h39.028V412.135z M683.216,341.477h-39.028v-53.676h39.028V341.477z M683.216,270.823h-39.028v-53.669h39.028V270.823z
		 M740.757,553.436H701.73v-53.678h39.027L740.757,553.436L740.757,553.436z M740.757,482.78H701.73v-53.672h39.027L740.757,482.78
		L740.757,482.78z M740.757,412.135H701.73v-53.674h39.027L740.757,412.135L740.757,412.135z M740.757,341.477H701.73v-53.676
		h39.027L740.757,341.477L740.757,341.477z M740.757,270.823H701.73v-53.669h39.027L740.757,270.823L740.757,270.823z
		 M798.302,553.436H759.26v-53.678h39.041V553.436L798.302,553.436z M798.302,482.78H759.26v-53.672h39.041V482.78L798.302,482.78z
		 M798.302,412.135H759.26v-53.674h39.041V412.135L798.302,412.135z M798.302,341.477H759.26v-53.676h39.041V341.477
		L798.302,341.477z M798.302,270.823H759.26v-53.669h39.041V270.823L798.302,270.823z"/>
	<polygon fill="#805B24" points="817.78,202.502 830.907,176.527 609.927,176.717 624.185,202.502 634.692,202.502 804.588,202.502 
			"/>
	<path fill="#6D4D42" d="M644.185,270.823h39.028v-53.669h-39.028V270.823L644.185,270.823z M650.689,226.098h26.018v35.788h-26.018
		V226.098z"/>
	<rect x="650.689" y="226.098" fill="#EBF7F8" width="26.018" height="35.788"/>
	<path fill="#6D4D42" d="M701.729,270.823h39.027v-53.669h-39.027V270.823z M708.236,226.098h26.021v35.788h-26.021V226.098z"/>
	<rect x="708.236" y="226.098" fill="#EBF7F8" width="26.021" height="35.788"/>
	<path fill="#6D4D42" d="M759.269,270.823h39.032v-53.669h-39.032V270.823L759.269,270.823z M765.773,226.098h26.021v35.788h-26.021
		V226.098z"/>
	<rect x="765.773" y="226.098" fill="#EBF7F8" width="26.021" height="35.788"/>
	<path fill="#6D4D42" d="M644.185,341.477h39.028v-53.676h-39.028V341.477L644.185,341.477z M650.689,296.753h26.018v35.785h-26.018
		V296.753z"/>
	<rect x="650.689" y="296.753" fill="#EBF7F8" width="26.018" height="35.785"/>
	<path fill="#6D4D42" d="M701.729,341.477h39.027v-53.676h-39.027V341.477z M708.236,296.753h26.021v35.785h-26.021V296.753z"/>
	<rect x="708.236" y="296.753" fill="#EBF7F8" width="26.021" height="35.785"/>
	<path fill="#6D4D42" d="M759.269,341.477h39.032v-53.676h-39.032V341.477L759.269,341.477z M765.773,296.753h26.021v35.785h-26.021
		V296.753z"/>
	<rect x="765.773" y="296.753" fill="#EBF7F8" width="26.021" height="35.785"/>
	<path fill="#6D4D42" d="M644.185,412.135h39.028v-53.674h-39.028V412.135L644.185,412.135z M650.689,367.399h26.018v35.789h-26.018
		V367.399z"/>
	<rect x="650.689" y="367.399" fill="#EBF7F8" width="26.018" height="35.789"/>
	<path fill="#6D4D42" d="M701.729,412.135h39.027v-53.674h-39.027V412.135z M708.236,367.399h26.021v35.789h-26.021V367.399z"/>
	<rect x="708.236" y="367.399" fill="#EBF7F8" width="26.021" height="35.789"/>
	<path fill="#6D4D42" d="M759.269,412.135h39.032v-53.674h-39.032V412.135L759.269,412.135z M765.773,367.399h26.021v35.789h-26.021
		V367.399z"/>
	<rect x="765.773" y="367.399" fill="#EBF7F8" width="26.021" height="35.789"/>
	<path fill="#6D4D42" d="M644.185,482.78h39.028v-53.672h-39.028V482.78L644.185,482.78z M650.689,438.051h26.018v35.789h-26.018
		V438.051z"/>
	<rect x="650.689" y="438.051" fill="#EBF7F8" width="26.018" height="35.789"/>
	<path fill="#6D4D42" d="M701.729,482.78h39.027v-53.672h-39.027V482.78z M708.236,438.051h26.021v35.789h-26.021V438.051z"/>
	<rect x="708.236" y="438.051" fill="#EBF7F8" width="26.021" height="35.789"/>
	<path fill="#6D4D42" d="M759.269,482.78h39.032v-53.672h-39.032V482.78L759.269,482.78z M765.773,438.051h26.021v35.789h-26.021
		V438.051z"/>
	<rect x="765.773" y="438.051" fill="#EBF7F8" width="26.021" height="35.789"/>
	<path fill="#6D4D42" d="M644.185,553.436h39.028v-53.678h-39.028V553.436L644.185,553.436z M650.689,508.701h26.018v35.789h-26.018
		V508.701z"/>
	<rect x="650.689" y="508.701" fill="#EBF7F8" width="26.018" height="35.789"/>
	<path fill="#6D4D42" d="M701.729,553.436h39.027v-53.678h-39.027V553.436z M708.236,508.701h26.021v35.789h-26.021V508.701z"/>
	<rect x="708.236" y="508.701" fill="#EBF7F8" width="26.021" height="35.789"/>
	<path fill="#6D4D42" d="M759.269,553.436h39.032v-53.678h-39.032V553.436L759.269,553.436z M765.773,508.701h26.021v35.789h-26.021
		V508.701z"/>
	<rect x="765.773" y="508.701" fill="#EBF7F8" width="26.021" height="35.789"/>
</g>
<g>
	<rect x="438.404" y="161.724" fill="#F58E89" width="141.634" height="447.827"/>
	<rect x="429.248" y="136.389" fill="#3D4A3D" width="159.946" height="15.846"/>
	<rect x="434.689" y="152.093" fill="#EC6562" width="149.065" height="9.9"/>
	<rect x="434.689" y="389.912" fill="#EC6562" width="149.065" height="9.896"/>
	<rect x="434.689" y="309.001" fill="#EC6562" width="149.065" height="9.896"/>
	<rect x="434.689" y="228.081" fill="#EC6562" width="149.065" height="9.899"/>
	<rect x="434.689" y="470.824" fill="#EC6562" width="149.065" height="9.9"/>
	<g>
		<rect x="458.444" y="250.376" fill="#5C5C60" width="27.725" height="35.91"/>
		<g>
			<rect x="461.307" y="253.385" fill="#ADCDD9" width="8.837" height="7.875"/>
			<rect x="474.465" y="253.385" fill="#ADCDD9" width="8.834" height="7.875"/>
		</g>
		<g>
			<rect x="461.307" y="264.444" fill="#ADCDD9" width="8.837" height="7.875"/>
			<rect x="474.465" y="264.444" fill="#ADCDD9" width="8.834" height="7.875"/>
		</g>
		<g>
			<rect x="461.307" y="275.507" fill="#ADCDD9" width="8.837" height="7.87"/>
			<rect x="474.465" y="275.507" fill="#ADCDD9" width="8.834" height="7.87"/>
		</g>
		<rect x="455.142" y="286.283" fill="#576A8A" width="34.323" height="5.826"/>
		<polygon fill="#445772" points="481.707,297.939 462.899,297.939 458.444,292.111 486.169,292.111 		"/>
	</g>
	<g>
		<rect x="532.278" y="249.99" fill="#5C5C60" width="27.728" height="35.909"/>
		<g>
			<rect x="535.143" y="252.998" fill="#ADCDD9" width="8.837" height="7.871"/>
			<rect x="548.302" y="252.998" fill="#ADCDD9" width="8.834" height="7.871"/>
		</g>
		<g>
			<rect x="535.143" y="264.059" fill="#ADCDD9" width="8.837" height="7.872"/>
			<rect x="548.302" y="264.059" fill="#ADCDD9" width="8.834" height="7.872"/>
		</g>
		<g>
			<rect x="535.143" y="275.118" fill="#ADCDD9" width="8.837" height="7.869"/>
			<rect x="548.302" y="275.118" fill="#ADCDD9" width="8.834" height="7.869"/>
		</g>
		<rect x="528.976" y="285.902" fill="#576A8A" width="34.326" height="5.824"/>
		<polygon fill="#445772" points="555.546,297.553 536.737,297.553 532.278,291.725 560.006,291.725 		"/>
	</g>
	<g>
		<rect x="458.444" y="172.072" fill="#5C5C60" width="27.725" height="35.914"/>
		<g>
			<rect x="461.307" y="175.084" fill="#ADCDD9" width="8.837" height="7.875"/>
			<rect x="474.465" y="175.084" fill="#ADCDD9" width="8.834" height="7.875"/>
		</g>
		<g>
			<rect x="461.307" y="186.145" fill="#ADCDD9" width="8.837" height="7.873"/>
			<rect x="474.465" y="186.145" fill="#ADCDD9" width="8.834" height="7.873"/>
		</g>
		<g>
			<rect x="461.307" y="197.205" fill="#ADCDD9" width="8.837" height="7.874"/>
			<rect x="474.465" y="197.205" fill="#ADCDD9" width="8.834" height="7.874"/>
		</g>
		<rect x="455.142" y="207.986" fill="#576A8A" width="34.323" height="5.822"/>
		<polygon fill="#445772" points="481.707,219.634 462.899,219.634 458.444,213.808 486.169,213.808 		"/>
	</g>
	<g>
		<rect x="532.283" y="172.072" fill="#5C5C60" width="27.723" height="35.914"/>
		<g>
			<rect x="535.143" y="175.084" fill="#ADCDD9" width="8.838" height="7.875"/>
			<rect x="548.302" y="175.084" fill="#ADCDD9" width="8.833" height="7.875"/>
		</g>
		<g>
			<rect x="535.143" y="186.145" fill="#ADCDD9" width="8.838" height="7.873"/>
			<rect x="548.302" y="186.145" fill="#ADCDD9" width="8.833" height="7.873"/>
		</g>
		<g>
			<rect x="535.143" y="197.205" fill="#ADCDD9" width="8.838" height="7.874"/>
			<rect x="548.302" y="197.205" fill="#ADCDD9" width="8.833" height="7.874"/>
		</g>
		<rect x="528.976" y="207.986" fill="#576A8A" width="34.326" height="5.822"/>
		<polygon fill="#445772" points="555.546,219.634 536.737,219.634 532.283,213.808 560.006,213.808 		"/>
	</g>
	<g>
		<rect x="458.444" y="406.01" fill="#5C5C60" width="27.725" height="35.914"/>
		<g>
			<rect x="461.307" y="409.018" fill="#ADCDD9" width="8.837" height="7.873"/>
			<rect x="474.465" y="409.018" fill="#ADCDD9" width="8.834" height="7.873"/>
		</g>
		<g>
			<rect x="461.307" y="420.076" fill="#ADCDD9" width="8.837" height="7.877"/>
			<rect x="474.465" y="420.076" fill="#ADCDD9" width="8.834" height="7.877"/>
		</g>
		<g>
			<rect x="461.307" y="431.141" fill="#ADCDD9" width="8.837" height="7.871"/>
			<rect x="474.465" y="431.141" fill="#ADCDD9" width="8.834" height="7.871"/>
		</g>
		<rect x="455.142" y="441.924" fill="#576A8A" width="34.323" height="5.826"/>
		<polygon fill="#445772" points="481.707,453.573 462.899,453.573 458.444,447.75 486.169,447.75 		"/>
	</g>
	<g>
		<rect x="532.278" y="405.883" fill="#5C5C60" width="27.728" height="35.916"/>
		<g>
			<rect x="535.143" y="408.895" fill="#ADCDD9" width="8.837" height="7.873"/>
			<rect x="548.302" y="408.895" fill="#ADCDD9" width="8.834" height="7.873"/>
		</g>
		<g>
			<rect x="535.143" y="419.953" fill="#ADCDD9" width="8.837" height="7.875"/>
			<rect x="548.302" y="419.953" fill="#ADCDD9" width="8.834" height="7.875"/>
		</g>
		<g>
			<rect x="535.143" y="431.014" fill="#ADCDD9" width="8.837" height="7.873"/>
			<rect x="548.302" y="431.014" fill="#ADCDD9" width="8.834" height="7.873"/>
		</g>
		<rect x="528.976" y="441.793" fill="#576A8A" width="34.326" height="5.822"/>
		<polygon fill="#445772" points="555.546,453.444 536.737,453.444 532.278,447.617 560.006,447.617 		"/>
	</g>
	<g>
		<rect x="458.444" y="483.826" fill="#5C5C60" width="27.725" height="35.918"/>
		<g>
			<rect x="461.307" y="486.84" fill="#ADCDD9" width="8.837" height="7.875"/>
			<rect x="474.465" y="486.84" fill="#ADCDD9" width="8.834" height="7.875"/>
		</g>
		<g>
			<rect x="461.307" y="497.899" fill="#ADCDD9" width="8.837" height="7.873"/>
			<rect x="474.465" y="497.899" fill="#ADCDD9" width="8.834" height="7.873"/>
		</g>
		<g>
			<rect x="461.307" y="508.959" fill="#ADCDD9" width="8.837" height="7.875"/>
			<rect x="474.465" y="508.959" fill="#ADCDD9" width="8.834" height="7.875"/>
		</g>
		<rect x="455.142" y="519.739" fill="#576A8A" width="34.323" height="5.824"/>
		<polygon fill="#445772" points="481.707,531.389 462.899,531.389 458.444,525.565 486.169,525.565 		"/>
	</g>
	<g>
		<rect x="532.278" y="483.826" fill="#5C5C60" width="27.728" height="35.918"/>
		<g>
			<rect x="535.143" y="486.84" fill="#ADCDD9" width="8.837" height="7.875"/>
			<rect x="548.302" y="486.84" fill="#ADCDD9" width="8.834" height="7.875"/>
		</g>
		<g>
			<rect x="535.143" y="497.899" fill="#ADCDD9" width="8.837" height="7.873"/>
			<rect x="548.302" y="497.899" fill="#ADCDD9" width="8.834" height="7.873"/>
		</g>
		<g>
			<rect x="535.143" y="508.959" fill="#ADCDD9" width="8.837" height="7.875"/>
			<rect x="548.302" y="508.959" fill="#ADCDD9" width="8.834" height="7.875"/>
		</g>
		<rect x="528.976" y="519.739" fill="#576A8A" width="34.326" height="5.824"/>
		<polygon fill="#445772" points="555.546,531.389 536.737,531.389 532.278,525.565 560.006,525.565 		"/>
	</g>
	<g>
		<rect x="458.444" y="328.19" fill="#5C5C60" width="27.725" height="35.914"/>
		<g>
			<rect x="461.307" y="331.201" fill="#ADCDD9" width="8.837" height="7.875"/>
			<rect x="474.465" y="331.201" fill="#ADCDD9" width="8.834" height="7.875"/>
		</g>
		<g>
			<rect x="461.307" y="342.264" fill="#ADCDD9" width="8.837" height="7.875"/>
			<rect x="474.465" y="342.264" fill="#ADCDD9" width="8.834" height="7.875"/>
		</g>
		<g>
			<rect x="461.307" y="353.323" fill="#ADCDD9" width="8.837" height="7.877"/>
			<rect x="474.465" y="353.323" fill="#ADCDD9" width="8.834" height="7.877"/>
		</g>
		<rect x="455.142" y="364.102" fill="#576A8A" width="34.323" height="5.824"/>
		<polygon fill="#445772" points="481.707,375.752 462.899,375.752 458.444,369.928 486.169,369.928 		"/>
	</g>
	<g>
		<rect x="532.278" y="327.936" fill="#5C5C60" width="27.728" height="35.914"/>
		<g>
			<rect x="535.143" y="330.944" fill="#ADCDD9" width="8.837" height="7.875"/>
			<rect x="548.302" y="330.944" fill="#ADCDD9" width="8.834" height="7.875"/>
		</g>
		<g>
			<rect x="535.143" y="342.01" fill="#ADCDD9" width="8.837" height="7.873"/>
			<rect x="548.302" y="342.01" fill="#ADCDD9" width="8.834" height="7.873"/>
		</g>
		<g>
			<rect x="535.143" y="353.069" fill="#ADCDD9" width="8.837" height="7.873"/>
			<rect x="548.302" y="353.069" fill="#ADCDD9" width="8.834" height="7.873"/>
		</g>
		<rect x="528.976" y="363.846" fill="#576A8A" width="34.326" height="5.826"/>
		<polygon fill="#445772" points="555.546,375.496 536.737,375.496 532.278,369.672 560.006,369.672 		"/>
	</g>
	<g>
		<g>
			<rect x="494.219" y="542.174" fill="#445772" width="30.012" height="61.604"/>
			<path fill="#454343" d="M525.17,604.68h-31.89v-63.408h31.888L525.17,604.68L525.17,604.68z M495.152,602.871h28.136v-59.795
				h-28.136V602.871L495.152,602.871z"/>
		</g>
		<g>
			<path fill="#576A8A" d="M521.134,599.856h-23.583v-16.822h23.583V599.856L521.134,599.856z M498.385,599.045h21.905V583.84
				h-21.905V599.045L498.385,599.045z"/>
		</g>
		<g>
			<path fill="#576A8A" d="M520.715,581.969H497.97V546.78h22.744V581.969z M498.905,581.067h20.867v-33.381h-20.867V581.067
				L498.905,581.067z"/>
		</g>
	</g>
	<rect x="479.589" y="604.401" fill="#ADAFB8" width="59.267" height="5.248"/>
	<path fill="#EC6562" d="M457.761,490.35"/>
</g>
</svg>
