<?xml version="1.0" encoding="utf-8"?>
<!-- Generator: Adobe Illustrator 16.0.0, SVG Export Plug-In . SVG Version: 6.00 Build 0)  -->
<!DOCTYPE svg PUBLIC "-//W3C//DTD SVG 1.1//EN" "http://www.w3.org/Graphics/SVG/1.1/DTD/svg11.dtd">
<svg version="1.1" id="Layer_1" xmlns="http://www.w3.org/2000/svg" xmlns:xlink="http://www.w3.org/1999/xlink" x="0px" y="0px"
	 width="320px" height="568px" viewBox="0 0 320 568" enable-background="new 0 0 320 568" xml:space="preserve">
<rect x="0.5" y="0.5" fill="#8CC9DB" width="322" height="574"/>
<path fill="#FFFFFF" d="M311.277,221.517c-2.666,0-5.08,1.111-6.844,2.91c0.01-0.218,0.019-0.438,0.019-0.659
	c0-7.9-6.634-14.307-14.815-14.307c-5.793,0-10.809,3.214-13.242,7.896c-2.556-1.764-5.897-2.835-9.56-2.835
	c-8.021,0-14.521,5.125-14.521,11.445c0,0.198,0.008,0.395,0.02,0.59c-5.338,2.28-8.906,6.431-8.906,11.173
	c0,7.199,8.227,13.034,18.369,13.034c4.053,0,5.559-2.154,8.596-3.729c1.869,1.565,6.66,3.755,9.479,3.755
	c2.604,0,4.979-0.825,6.802-2.186c2.43,2.839,6.508,4.704,11.127,4.704c7.443,0,13.479-4.975,13.479-10.945
	c0-0.214-0.011-0.771-0.024-0.771c0.01,0,0.016,0,0.024,0c5.399,0,9.778-4.418,9.778-10.038
	C321.057,225.935,316.678,221.517,311.277,221.517z"/>
<path fill="#FFFFFF" d="M331.214,55.854c-3.228,0-6.151,1.346-8.288,3.524c0.014-0.266,0.021-0.53,0.021-0.798
	c0-9.569-8.035-17.326-17.942-17.326c-7.019,0-13.091,3.893-16.04,9.563c-3.093-2.136-7.143-3.434-11.576-3.434
	c-9.711,0-17.584,6.207-17.584,13.861c0,0.238,0.008,0.478,0.023,0.715c-6.465,2.76-10.787,7.788-10.787,13.529
	c0,8.719,9.961,15.786,22.247,15.786c4.905,0,6.729-2.608,10.407-4.518c2.266,1.896,8.066,4.547,11.479,4.547
	c3.153,0,6.032-0.998,8.237-2.646c2.939,3.438,7.879,5.695,13.473,5.695c9.018,0,16.325-5.813,16.325-13.043
	c0-0.258-0.012-0.723-0.03-0.723c0.012,0,0.021,0,0.03,0c6.539,0,11.843-5.564,11.843-12.369
	C343.057,61.418,337.753,55.854,331.214,55.854z"/>
<path fill="#FFFFFF" d="M67.491,127.276c-2.971,0-5.66,1.294-7.625,3.39c0.012-0.254,0.019-0.51,0.019-0.768
	c0-9.204-7.391-16.665-16.507-16.665c-6.457,0-12.044,3.744-14.757,9.198c-2.846-2.054-6.572-3.303-10.652-3.303
	c-8.935,0-16.179,5.97-16.179,13.332c0,0.229,0.008,0.459,0.022,0.688c-5.947,2.655-9.925,7.491-9.925,13.015
	c0,8.386,9.165,15.183,20.469,15.183c4.514,0,6.192-2.509,9.576-4.345c2.082,1.825,7.421,4.374,10.562,4.374
	c2.901,0,5.55-0.96,7.58-2.545c2.707,3.309,7.249,5.479,12.396,5.479c8.296,0,15.021-5.886,15.021-12.841
	c0-0.249-0.012-0.991-0.028-0.991c0.009,0,0.019,0,0.028,0c6.016,0,10.896-5.056,10.896-11.602
	C78.388,132.332,73.509,127.276,67.491,127.276z"/>
<g>
	<rect x="8.649" y="299.912" fill="#D1D3D4" width="104.775" height="242.401"/>
	<rect x="90.223" y="489.822" fill="#939598" width="11.836" height="52.492"/>
	<rect x="21.575" y="489.822" fill="#939598" width="11.836" height="52.492"/>
	<rect x="90.223" y="299.27" fill="#939598" width="11.836" height="172.862"/>
	<rect x="21.575" y="299.912" fill="#939598" width="11.836" height="172.861"/>
	<polygon fill="#808285" points="113.53,491.168 8.545,491.168 2.74,484.101 119.334,484.101 	"/>
	<polygon fill="#808285" points="113.53,467.652 8.545,467.652 2.74,460.585 119.334,460.585 	"/>
	<polygon fill="#808285" points="113.53,442.896 8.545,442.896 2.741,435.829 119.334,435.829 	"/>
	<polygon fill="#808285" points="113.53,418.141 8.546,418.141 2.741,411.073 119.334,411.073 	"/>
	<polygon fill="#808285" points="113.53,393.384 8.546,393.384 2.741,386.316 119.334,386.316 	"/>
	<polygon fill="#808285" points="113.53,369.246 8.546,369.246 2.742,362.181 119.334,362.181 	"/>
	<polygon fill="#808285" points="113.53,344.49 8.547,344.49 2.742,337.425 119.334,337.425 	"/>
	<polygon fill="#808285" points="113.53,319.736 8.547,319.736 2.743,312.669 119.334,312.669 	"/>
	<polygon fill="#BCBEC0" points="122.31,485.447 0.518,485.447 -1.712,483.713 -1.712,473.304 0.133,471.473 122.31,471.473 
		123.751,473.385 123.751,483.713 	"/>
	<polygon fill="#BCBEC0" points="122.31,460.847 0.518,460.847 -1.712,459.113 -1.712,448.702 0.133,446.871 122.31,446.871 
		123.751,448.784 123.751,459.113 	"/>
	<polygon fill="#BCBEC0" points="122.31,436.246 0.518,436.246 -1.712,434.513 -1.712,424.102 0.133,422.271 122.31,422.271 
		123.751,424.185 123.751,434.513 	"/>
	<polygon fill="#BCBEC0" points="122.31,411.646 0.518,411.646 -1.712,409.912 -1.712,399.502 0.133,397.67 122.31,397.67 
		123.751,399.584 123.751,409.912 	"/>
	<polygon fill="#BCBEC0" points="122.31,387.047 0.518,387.047 -1.712,385.313 -1.712,374.901 0.133,373.07 122.31,373.07 
		123.751,374.983 123.751,385.313 	"/>
	<polygon fill="#BCBEC0" points="122.31,362.447 0.518,362.447 -1.712,360.712 -1.712,350.302 0.133,348.471 122.31,348.471 
		123.751,350.383 123.751,360.712 	"/>
	<polygon fill="#BCBEC0" points="122.31,337.847 0.518,337.847 -1.712,336.111 -1.712,325.7 0.133,323.869 122.31,323.869 
		123.751,325.782 123.751,336.111 	"/>
	<polygon fill="#BCBEC0" points="122.31,313.245 0.518,313.245 -1.712,311.512 -1.712,301.102 0.133,299.27 122.31,299.27 
		123.751,301.183 123.751,311.512 	"/>
	<rect x="47.152" y="506.754" fill="#4BB5AB" width="27.771" height="35.563"/>
</g>
<g>
	<path fill="#FAFBFC" d="M226.285,317.068v226.854h10.249h21.471h10.185h21.474h10.187h21.473h10.398V317.068H226.285z
		 M258.005,513.172h-21.471v-29.53h21.471V513.172z M258.005,474.304h-21.471v-29.528h21.471V474.304z M258.005,435.438h-21.471
		v-29.528h21.471V435.438z M258.005,396.568h-21.471v-29.529h21.471V396.568z M258.005,357.7h-21.471v-29.527h21.471V357.7z
		 M289.66,513.172h-21.471v-29.53h21.471V513.172z M289.66,474.304h-21.471v-29.528h21.471V474.304z M289.66,435.438h-21.471
		v-29.528h21.471V435.438z M289.66,396.568h-21.471v-29.529h21.471V396.568z M289.66,357.7h-21.471v-29.527h21.471V357.7z
		 M321.316,513.172h-21.475v-29.53h21.475V513.172L321.316,513.172z M321.316,474.304h-21.475v-29.528h21.475V474.304
		L321.316,474.304z M321.316,435.438h-21.475v-29.528h21.475V435.438L321.316,435.438z M321.316,396.568h-21.475v-29.529h21.475
		V396.568L321.316,396.568z M321.316,357.7h-21.475v-29.527h21.475V357.7L321.316,357.7z"/>
	<polygon fill="#805B24" points="332.034,320.114 339.255,305.825 217.686,305.928 225.531,320.114 231.311,320.114 
		324.773,320.114 	"/>
	<path fill="#6D4D42" d="M236.534,357.7h21.471v-29.527h-21.471V357.7z M240.111,333.095h14.313v19.688h-14.313V333.095z"/>
	<rect x="240.111" y="333.095" fill="#EBF7F8" width="14.313" height="19.688"/>
	<path fill="#6D4D42" d="M268.189,357.7h21.471v-29.527h-21.471V357.7z M271.77,333.095h14.313v19.688H271.77V333.095z"/>
	<rect x="271.77" y="333.095" fill="#EBF7F8" width="14.313" height="19.688"/>
	<path fill="#6D4D42" d="M299.846,357.7h21.471v-29.527h-21.471V357.7L299.846,357.7z M303.424,333.095h14.313v19.688h-14.313
		V333.095z"/>
	<rect x="303.424" y="333.095" fill="#EBF7F8" width="14.313" height="19.688"/>
	<path fill="#6D4D42" d="M236.534,396.568h21.471v-29.529h-21.471V396.568z M240.111,371.963h14.313v19.687h-14.313V371.963z"/>
	<rect x="240.111" y="371.963" fill="#EBF7F8" width="14.313" height="19.687"/>
	<path fill="#6D4D42" d="M268.189,396.568h21.471v-29.529h-21.471V396.568z M271.77,371.963h14.313v19.687H271.77V371.963z"/>
	<rect x="271.77" y="371.963" fill="#EBF7F8" width="14.313" height="19.687"/>
	<path fill="#6D4D42" d="M299.846,396.568h21.471v-29.529h-21.471V396.568L299.846,396.568z M303.424,371.963h14.313v19.687h-14.313
		V371.963z"/>
	<rect x="303.424" y="371.963" fill="#EBF7F8" width="14.313" height="19.687"/>
	<path fill="#6D4D42" d="M236.534,435.438h21.471v-29.528h-21.471V435.438z M240.111,410.829h14.313v19.687h-14.313V410.829z"/>
	<rect x="240.111" y="410.829" fill="#EBF7F8" width="14.313" height="19.687"/>
	<path fill="#6D4D42" d="M268.189,435.438h21.471v-29.528h-21.471V435.438z M271.77,410.829h14.313v19.687H271.77V410.829z"/>
	<rect x="271.77" y="410.829" fill="#EBF7F8" width="14.313" height="19.687"/>
	<path fill="#6D4D42" d="M299.846,435.438h21.471v-29.528h-21.471V435.438L299.846,435.438z M303.424,410.829h14.313v19.687h-14.313
		V410.829z"/>
	<rect x="303.424" y="410.829" fill="#EBF7F8" width="14.313" height="19.687"/>
	<path fill="#6D4D42" d="M236.534,474.304h21.471v-29.528h-21.471V474.304z M240.111,449.697h14.313v19.686h-14.313V449.697z"/>
	<rect x="240.111" y="449.697" fill="#EBF7F8" width="14.313" height="19.686"/>
	<path fill="#6D4D42" d="M268.189,474.304h21.471v-29.528h-21.471V474.304z M271.77,449.697h14.313v19.686H271.77V449.697z"/>
	<rect x="271.77" y="449.697" fill="#EBF7F8" width="14.313" height="19.686"/>
	<path fill="#6D4D42" d="M299.846,474.304h21.471v-29.528h-21.471V474.304L299.846,474.304z M303.424,449.697h14.313v19.686h-14.313
		V449.697z"/>
	<rect x="303.424" y="449.697" fill="#EBF7F8" width="14.313" height="19.686"/>
	<path fill="#6D4D42" d="M236.534,513.172h21.471v-29.53h-21.471V513.172z M240.111,488.564h14.313v19.687h-14.313V488.564z"/>
	<rect x="240.111" y="488.564" fill="#EBF7F8" width="14.313" height="19.687"/>
	<path fill="#6D4D42" d="M268.189,513.172h21.471v-29.53h-21.471V513.172z M271.77,488.564h14.313v19.687H271.77V488.564z"/>
	<rect x="271.77" y="488.564" fill="#EBF7F8" width="14.313" height="19.687"/>
	<path fill="#6D4D42" d="M299.846,513.172h21.471v-29.53h-21.471V513.172L299.846,513.172z M303.424,488.564h14.313v19.687h-14.313
		V488.564z"/>
	<rect x="303.424" y="488.564" fill="#EBF7F8" width="14.313" height="19.687"/>
</g>
<g>
	<rect x="132.328" y="296.031" fill="#F58E89" width="77.917" height="246.363"/>
	<rect x="127.291" y="282.092" fill="#3D4A3D" width="87.991" height="8.717"/>
	<rect x="130.284" y="290.732" fill="#EC6562" width="82.005" height="5.447"/>
	<rect x="130.284" y="421.564" fill="#EC6562" width="82.005" height="5.444"/>
	<rect x="130.284" y="377.05" fill="#EC6562" width="82.005" height="5.446"/>
	<rect x="130.284" y="332.535" fill="#EC6562" width="82.005" height="5.447"/>
	<rect x="130.284" y="466.076" fill="#EC6562" width="82.005" height="5.448"/>
	<g>
		<rect x="143.352" y="344.799" fill="#5C5C60" width="15.251" height="19.756"/>
		<g>
			<rect x="144.928" y="346.455" fill="#ADCDD9" width="4.861" height="4.332"/>
			<rect x="152.165" y="346.455" fill="#ADCDD9" width="4.861" height="4.332"/>
		</g>
		<g>
			<rect x="144.928" y="352.539" fill="#ADCDD9" width="4.861" height="4.333"/>
			<rect x="152.165" y="352.539" fill="#ADCDD9" width="4.861" height="4.333"/>
		</g>
		<g>
			<rect x="144.928" y="358.625" fill="#ADCDD9" width="4.861" height="4.33"/>
			<rect x="152.165" y="358.625" fill="#ADCDD9" width="4.861" height="4.33"/>
		</g>
		<rect x="141.536" y="364.555" fill="#576A8A" width="18.882" height="3.205"/>
		<polygon fill="#445772" points="156.15,370.965 145.804,370.965 143.352,367.76 158.603,367.76 		"/>
	</g>
	<g>
		<rect x="183.971" y="344.587" fill="#5C5C60" width="15.252" height="19.756"/>
		<g>
			<rect x="185.547" y="346.243" fill="#ADCDD9" width="4.861" height="4.331"/>
			<rect x="192.784" y="346.243" fill="#ADCDD9" width="4.862" height="4.331"/>
		</g>
		<g>
			<rect x="185.547" y="352.327" fill="#ADCDD9" width="4.861" height="4.332"/>
			<rect x="192.784" y="352.327" fill="#ADCDD9" width="4.862" height="4.332"/>
		</g>
		<g>
			<rect x="185.547" y="358.411" fill="#ADCDD9" width="4.861" height="4.331"/>
			<rect x="192.784" y="358.411" fill="#ADCDD9" width="4.862" height="4.331"/>
		</g>
		<rect x="182.154" y="364.343" fill="#576A8A" width="18.884" height="3.204"/>
		<polygon fill="#445772" points="196.77,370.753 186.424,370.753 183.971,367.547 199.223,367.547 		"/>
	</g>
	<g>
		<rect x="143.352" y="301.723" fill="#5C5C60" width="15.251" height="19.756"/>
		<g>
			<rect x="144.928" y="303.379" fill="#ADCDD9" width="4.861" height="4.332"/>
			<rect x="152.165" y="303.379" fill="#ADCDD9" width="4.861" height="4.332"/>
		</g>
		<g>
			<rect x="144.928" y="309.464" fill="#ADCDD9" width="4.861" height="4.331"/>
			<rect x="152.165" y="309.464" fill="#ADCDD9" width="4.861" height="4.331"/>
		</g>
		<g>
			<rect x="144.928" y="315.548" fill="#ADCDD9" width="4.861" height="4.332"/>
			<rect x="152.165" y="315.548" fill="#ADCDD9" width="4.861" height="4.332"/>
		</g>
		<rect x="141.536" y="321.479" fill="#576A8A" width="18.882" height="3.204"/>
		<polygon fill="#445772" points="156.15,327.888 145.804,327.888 143.352,324.683 158.603,324.683 		"/>
	</g>
	<g>
		<rect x="183.973" y="301.723" fill="#5C5C60" width="15.25" height="19.756"/>
		<g>
			<rect x="185.547" y="303.379" fill="#ADCDD9" width="4.862" height="4.332"/>
			<rect x="192.785" y="303.379" fill="#ADCDD9" width="4.861" height="4.332"/>
		</g>
		<g>
			<rect x="185.547" y="309.464" fill="#ADCDD9" width="4.862" height="4.331"/>
			<rect x="192.785" y="309.464" fill="#ADCDD9" width="4.861" height="4.331"/>
		</g>
		<g>
			<rect x="185.547" y="315.548" fill="#ADCDD9" width="4.862" height="4.332"/>
			<rect x="192.785" y="315.548" fill="#ADCDD9" width="4.861" height="4.332"/>
		</g>
		<rect x="182.154" y="321.479" fill="#576A8A" width="18.884" height="3.204"/>
		<polygon fill="#445772" points="196.77,327.888 186.424,327.888 183.973,324.683 199.223,324.683 		"/>
	</g>
	<g>
		<rect x="143.352" y="430.419" fill="#5C5C60" width="15.251" height="19.757"/>
		<g>
			<rect x="144.928" y="432.074" fill="#ADCDD9" width="4.861" height="4.333"/>
			<rect x="152.165" y="432.074" fill="#ADCDD9" width="4.861" height="4.333"/>
		</g>
		<g>
			<rect x="144.928" y="438.159" fill="#ADCDD9" width="4.861" height="4.333"/>
			<rect x="152.165" y="438.159" fill="#ADCDD9" width="4.861" height="4.333"/>
		</g>
		<g>
			<rect x="144.928" y="444.244" fill="#ADCDD9" width="4.861" height="4.331"/>
			<rect x="152.165" y="444.244" fill="#ADCDD9" width="4.861" height="4.331"/>
		</g>
		<rect x="141.536" y="450.176" fill="#576A8A" width="18.882" height="3.205"/>
		<polygon fill="#445772" points="156.15,456.584 145.804,456.584 143.352,453.381 158.603,453.381 		"/>
	</g>
	<g>
		<rect x="183.971" y="430.349" fill="#5C5C60" width="15.252" height="19.758"/>
		<g>
			<rect x="185.547" y="432.005" fill="#ADCDD9" width="4.861" height="4.332"/>
			<rect x="192.784" y="432.005" fill="#ADCDD9" width="4.862" height="4.332"/>
		</g>
		<g>
			<rect x="185.547" y="438.09" fill="#ADCDD9" width="4.861" height="4.332"/>
			<rect x="192.784" y="438.09" fill="#ADCDD9" width="4.862" height="4.332"/>
		</g>
		<g>
			<rect x="185.547" y="444.173" fill="#ADCDD9" width="4.861" height="4.333"/>
			<rect x="192.784" y="444.173" fill="#ADCDD9" width="4.862" height="4.333"/>
		</g>
		<rect x="182.154" y="450.104" fill="#576A8A" width="18.884" height="3.205"/>
		<polygon fill="#445772" points="196.77,456.514 186.424,456.514 183.971,453.31 199.223,453.31 		"/>
	</g>
	<g>
		<rect x="143.352" y="473.229" fill="#5C5C60" width="15.251" height="19.759"/>
		<g>
			<rect x="144.928" y="474.886" fill="#ADCDD9" width="4.861" height="4.332"/>
			<rect x="152.165" y="474.886" fill="#ADCDD9" width="4.861" height="4.332"/>
		</g>
		<g>
			<rect x="144.928" y="480.97" fill="#ADCDD9" width="4.861" height="4.332"/>
			<rect x="152.165" y="480.97" fill="#ADCDD9" width="4.861" height="4.332"/>
		</g>
		<g>
			<rect x="144.928" y="487.055" fill="#ADCDD9" width="4.861" height="4.333"/>
			<rect x="152.165" y="487.055" fill="#ADCDD9" width="4.861" height="4.333"/>
		</g>
		<rect x="141.536" y="492.985" fill="#576A8A" width="18.882" height="3.204"/>
		<polygon fill="#445772" points="156.15,499.394 145.804,499.394 143.352,496.189 158.603,496.189 		"/>
	</g>
	<g>
		<rect x="183.971" y="473.229" fill="#5C5C60" width="15.252" height="19.759"/>
		<g>
			<rect x="185.547" y="474.886" fill="#ADCDD9" width="4.861" height="4.332"/>
			<rect x="192.784" y="474.886" fill="#ADCDD9" width="4.862" height="4.332"/>
		</g>
		<g>
			<rect x="185.547" y="480.97" fill="#ADCDD9" width="4.861" height="4.332"/>
			<rect x="192.784" y="480.97" fill="#ADCDD9" width="4.862" height="4.332"/>
		</g>
		<g>
			<rect x="185.547" y="487.055" fill="#ADCDD9" width="4.861" height="4.333"/>
			<rect x="192.784" y="487.055" fill="#ADCDD9" width="4.862" height="4.333"/>
		</g>
		<rect x="182.154" y="492.985" fill="#576A8A" width="18.884" height="3.204"/>
		<polygon fill="#445772" points="196.77,499.394 186.424,499.394 183.971,496.189 199.223,496.189 		"/>
	</g>
	<g>
		<rect x="143.352" y="387.608" fill="#5C5C60" width="15.251" height="19.758"/>
		<g>
			<rect x="144.928" y="389.267" fill="#ADCDD9" width="4.861" height="4.332"/>
			<rect x="152.165" y="389.267" fill="#ADCDD9" width="4.861" height="4.332"/>
		</g>
		<g>
			<rect x="144.928" y="395.35" fill="#ADCDD9" width="4.861" height="4.333"/>
			<rect x="152.165" y="395.35" fill="#ADCDD9" width="4.861" height="4.333"/>
		</g>
		<g>
			<rect x="144.928" y="401.435" fill="#ADCDD9" width="4.861" height="4.333"/>
			<rect x="152.165" y="401.435" fill="#ADCDD9" width="4.861" height="4.333"/>
		</g>
		<rect x="141.536" y="407.365" fill="#576A8A" width="18.882" height="3.204"/>
		<polygon fill="#445772" points="156.15,413.774 145.804,413.774 143.352,410.57 158.603,410.57 		"/>
	</g>
	<g>
		<rect x="183.971" y="387.467" fill="#5C5C60" width="15.252" height="19.757"/>
		<g>
			<rect x="185.547" y="389.123" fill="#ADCDD9" width="4.861" height="4.333"/>
			<rect x="192.784" y="389.123" fill="#ADCDD9" width="4.862" height="4.333"/>
		</g>
		<g>
			<rect x="185.547" y="395.209" fill="#ADCDD9" width="4.861" height="4.332"/>
			<rect x="192.784" y="395.209" fill="#ADCDD9" width="4.862" height="4.332"/>
		</g>
		<g>
			<rect x="185.547" y="401.293" fill="#ADCDD9" width="4.861" height="4.332"/>
			<rect x="192.784" y="401.293" fill="#ADCDD9" width="4.862" height="4.332"/>
		</g>
		<rect x="182.154" y="407.224" fill="#576A8A" width="18.884" height="3.205"/>
		<polygon fill="#445772" points="196.77,413.633 186.424,413.633 183.971,410.429 199.223,410.429 		"/>
	</g>
	<g>
		<g>
			<rect x="163.031" y="505.326" fill="#445772" width="16.511" height="33.891"/>
			<path fill="#454343" d="M180.059,539.712h-17.543v-34.881h17.543V539.712z M163.547,538.72h15.479v-32.896h-15.479V538.72z"/>
		</g>
		<g>
			<path fill="#576A8A" d="M177.838,537.06h-12.973v-9.255h12.973V537.06L177.838,537.06z M165.326,536.615h12.051v-8.367h-12.051
				V536.615z"/>
		</g>
		<g>
			<path fill="#576A8A" d="M177.607,527.22h-12.512v-19.36h12.512V527.22z M165.611,526.723h11.479v-18.365h-11.479V526.723z"/>
		</g>
	</g>
	<rect x="154.984" y="539.561" fill="#ADAFB8" width="32.605" height="2.886"/>
	<path fill="#EC6562" d="M142.976,476.818"/>
</g>
<g>
	<g>
		<rect x="0.78" y="548" fill="#808285" width="322" height="24"/>
		<g>
			<path fill="#FFFFFF" d="M317.779,562h-12v-4h12V562z M292.779,562h-12v-4h12V562z M266.779,562h-12v-4h12V562z M242.779,562h-12
				v-4h12V562z M216.779,562h-11v-4h11V562z M192.779,562h-13v-4h13V562z M167.779,562h-13v-4h13V562z M141.78,562h-13v-4h13V562z
				 M117.78,562h-13v-4h13V562z M91.78,562h-13v-4h13V562z M67.78,562h-13v-4h13V562z M41.78,562h-12v-4h12V562z M17.78,562h-13v-4
				h13V562z"/>
		</g>
	</g>
	<rect y="542.13" fill="#BCBEC0" width="322.342" height="6.116"/>
	<rect y="542.13" fill="#D5DEDE" width="322.342" height="1.555"/>
</g>
<g>
	<path fill="#FFFFFF" d="M116.109,80.28c-3.876,1.49-7.897,0.408-13.973-4.96C96.064,69.952,89,65.857,85.895,69.106
		c-3.106,3.249-0.988,13.419,1.412,17.091c2.4,3.673,9.264,4.971,25.551,4.964C129.146,91.154,132.506,79.982,116.109,80.28z"/>
	<path fill="#FEDA3E" d="M213.355,69.835c0.48,4.482-6.87,12.832-38.495,16.786c-31.626,3.954-75.771,6.023-77.652,3.199
		c-1.648-2.473,31.76-15.383,55.488-20.729c0.286,2.912,1.078,5.022,3.049,4.555c3.295-0.785,15.063-2.825,19.93-3.767
		c4.115-0.797,4.188-2.381,4.303-4.465C197.794,64.155,212.855,65.169,213.355,69.835z"/>
	
		<ellipse transform="matrix(0.1751 0.9846 -0.9846 0.1751 241.9318 -147.5504)" fill="#FEDA3E" cx="209.016" cy="70.596" rx="2.672" ry="8.628"/>
	<path fill="#F1F2F2" d="M211.196,51.6c0.238,5.166,0.959,11.479,2.159,18.235c1.202,6.76,2.701,12.934,4.258,17.866
		c-0.239-5.167-0.96-11.479-2.161-18.238C214.251,62.705,212.752,56.532,211.196,51.6z"/>
	<path fill="#FFFFFF" d="M190.643,55.014c1.103-0.059,1.101,0.641-0.822,1.007c-1.924,0.366-20.413,4.577-22.793,4.76
		c-2.381,0.185-9.43,0.641-14.098-0.641c-4.668-1.282-27.004-8.604-28.834-9.337s-3.204-0.915-1.188-1.831
		c2.014-0.916,26.912-7.415,30.756-8.056s7.049-1.189,9.336,0.824c2.289,2.013,17.76,11.352,18.949,12.448
		C183.137,55.288,188.252,55.141,190.643,55.014z"/>
	<polygon fill="#FFFFFF" points="148.572,53.278 146.286,53.529 149.311,88.349 151.598,88.097 	"/>
	
		<rect x="166.031" y="48.872" transform="matrix(0.994 -0.109 0.109 0.994 -6.3866 18.6323)" fill="#FFFFFF" width="2.302" height="37.688"/>
	<polygon fill="#F5DF74" points="163.969,49.087 150.876,87.863 151.598,88.097 164.692,49.323 	"/>
	<polygon fill="#F5DF74" points="147.933,53.687 168.098,86.551 168.737,86.141 148.572,53.278 	"/>
	<g>
		<path fill="#FFFFFF" d="M176.706,58.182l-1.813,0.177l1.265,11.419c0.721-0.163,1.301-0.354,1.768-0.571L176.706,58.182z"/>
		<path fill="#FFFFFF" d="M187.528,56.129l-1.812,0.178l0.965,8.738c0.615-0.023,1.226-0.044,1.826-0.063L187.528,56.129z"/>
		<polygon fill="#F5DF74" points="185.717,56.307 183.268,65.204 183.747,65.18 186.149,56.448 		"/>
		<polygon fill="#F5DF74" points="176.345,58.574 180.229,65.397 180.732,65.363 176.728,58.328 		"/>
	</g>
	<path fill="#FFFFFF" d="M185.114,85.113c-4.626-0.33-17.292-0.219-23.131,0.112c-5.839,0.33-13.658,2.422-20.047,4.404
		c-6.39,1.983-13.218,4.406-13.547,5.178c-0.331,0.771,3.192,0.439,7.709,0.109s22.25-3.523,25.555-3.854
		C164.958,90.73,187.097,85.444,185.114,85.113z"/>
</g>
</svg>
