<?xml version="1.0" encoding="utf-8"?>
<!-- Generator: Adobe Illustrator 16.0.0, SVG Export Plug-In . SVG Version: 6.00 Build 0)  -->
<!DOCTYPE svg PUBLIC "-//W3C//DTD SVG 1.1//EN" "http://www.w3.org/Graphics/SVG/1.1/DTD/svg11.dtd">
<svg version="1.1" id="Layer_1" xmlns="http://www.w3.org/2000/svg" xmlns:xlink="http://www.w3.org/1999/xlink" x="0px" y="0px"
	 width="480px" height="568px" viewBox="-80 0 480 568" enable-background="new -80 0 480 568" xml:space="preserve">
<rect x="-79.935" y="0" fill="#FEFED3" width="479.935" height="568.5"/>
<rect x="-76.107" y="465.082" fill="#F3BD57" width="476.107" height="103.418"/>
<g>
	<path fill="#404040" d="M235.513,327.057H84.488c-1.205,0-2.189-0.984-2.189-2.188V238.12c0-1.205,0.984-2.188,2.189-2.188h151.024
		c1.202,0,2.188,0.985,2.188,2.188v86.748C237.701,326.073,236.715,327.057,235.513,327.057z"/>
	<rect x="151.151" y="325.793" fill="#404040" width="17.697" height="27.047"/>
	<rect x="87.383" y="241.536" fill="#FFFFFF" width="145.233" height="78.528"/>
	<g>
		<rect x="87.383" y="241.536" fill="#D7DF23" width="145.233" height="4.504"/>
		<g>
			<polygon fill="#FFFFFF" points="121.817,246.411 103.69,246.411 105.278,243.239 120.229,243.239 			"/>
		</g>
	</g>
	<ellipse fill="#404040" cx="160.001" cy="352.129" rx="33.876" ry="7.493"/>
</g>
<g>
</g>
<g>
	<rect x="8.749" y="350.079" fill="#AE8D6A" width="302.502" height="14.163"/>
	<rect x="288.144" y="363.441" fill="#AE8D6A" width="13.558" height="131.685"/>
	<rect x="19.171" y="363.44" fill="#AE8D6A" width="13.557" height="131.686"/>
	<rect x="19.311" y="362.628" fill="#AE8D6A" width="281.381" height="22.989"/>
	<g>
		<rect x="209.564" y="364.757" fill="#8B6B4D" width="78.579" height="17.898"/>
		<rect x="211.446" y="365.69" fill="#AE8D6A" width="74.818" height="16.029"/>
	</g>
	<g>
		<rect x="121.366" y="364.108" fill="#8B6B4D" width="78.578" height="17.897"/>
		<rect x="123.246" y="365.039" fill="#AE8D6A" width="74.818" height="16.032"/>
	</g>
	<g>
		<rect x="33.166" y="364.108" fill="#8B6B4D" width="78.578" height="17.897"/>
		<rect x="35.045" y="365.039" fill="#AE8D6A" width="74.819" height="16.032"/>
	</g>
	<circle fill="#E0C6AC" cx="248.855" cy="373.707" r="2.648"/>
	<circle fill="#E0C6AC" cx="160.087" cy="373.707" r="2.647"/>
	<circle fill="#E0C6AC" cx="72.455" cy="373.707" r="2.648"/>
</g>
<g>
	<rect x="-80.893" y="96.229" fill="#401E36" width="176.274" height="10.862"/>
	
		<rect x="63.723" y="44.688" transform="matrix(-0.9941 0.1085 -0.1085 -0.9941 143.2994 133.995)" fill="#AE262B" width="8.561" height="52.419"/>
	<polygon fill="#00A651" points="76.377,96.891 84.867,96.132 78.646,48.741 70.159,49.504 	"/>
	<rect x="-15.73" y="53.028" fill="#D11D51" width="11.05" height="43.202"/>
	<rect x="-3.63" y="80.185" fill="#BE6744" width="67.75" height="16.044"/>
	<rect x="10.083" y="72.465" fill="#401E36" width="52.952" height="7.89"/>
	<rect x="-3.871" y="64.421" fill="#00AEEF" width="66.471" height="7.888"/>
</g>
<g>
	<circle cx="160" cy="85.608" r="38.352"/>
	<path fill="#FFFFFF" d="M167.833,53.383L167.833,53.383c-0.494-0.121-0.991-0.229-1.494-0.327
		c-0.113-0.022-0.228-0.041-0.341-0.061c-0.388-0.071-0.773-0.14-1.166-0.197c-0.301-0.043-0.604-0.078-0.904-0.115
		c-0.207-0.024-0.413-0.054-0.623-0.074c-9.569-0.972-19.484,2.205-26.817,9.538c-12.95,12.952-12.95,33.95,0,46.901l0.028-0.028
		c6.007,6.023,14.31,9.752,23.486,9.752c18.316,0,33.165-14.849,33.165-33.164C193.167,69.991,182.368,56.903,167.833,53.383z"/>
	<circle cx="159.971" cy="85.605" r="2.597"/>
	<path d="M161.416,86.719c-0.782,0-1.417-0.498-1.417-1.11l0,0c0-0.613,0.634-1.111,1.417-1.111h26.04
		c0.781,0,1.418,0.498,1.418,1.111l0,0c0,0.612-0.637,1.11-1.418,1.11H161.416z"/>
	<path d="M158.429,85.606c0.434-0.433,1.138-0.433,1.571,0.002l0,0c0.433,0.433,0.433,1.135,0,1.568l-12.929,12.928
		c-0.434,0.433-1.137,0.433-1.57,0l0,0c-0.434-0.435-0.434-1.136,0-1.57L158.429,85.606z"/>
</g>
</svg>
