<?xml version="1.0" encoding="utf-8"?>
<!-- Generator: Adobe Illustrator 16.0.0, SVG Export Plug-In . SVG Version: 6.00 Build 0)  -->
<!DOCTYPE svg PUBLIC "-//W3C//DTD SVG 1.1//EN" "http://www.w3.org/Graphics/SVG/1.1/DTD/svg11.dtd">
<svg version="1.1" id="Layer_1" xmlns="http://www.w3.org/2000/svg" xmlns:xlink="http://www.w3.org/1999/xlink" x="0px" y="0px"
	 width="1350px" height="630px" viewBox="-483 -181.431 1350 630" enable-background="new -483 -181.431 1350 630"
	 xml:space="preserve">
<rect x="-497.737" y="-185.931" fill="#8CC9DC" width="1377.237" height="639"/>
<g>
	<rect x="-178.096" y="-217.189" fill="#F58E89" width="737.951" height="669.881"/>
	<rect x="-197.455" y="326.454" fill="#EC6562" width="776.671" height="53.627"/>
	<rect x="-197.458" y="-111.743" fill="#EC6562" width="776.679" height="53.625"/>
	<g>
		<rect x="-90.888" y="-234.742" fill="#576A8A" width="178.829" height="31.543"/>
		<polygon fill="#445772" points="47.524,-171.65 -50.467,-171.65 -73.69,-203.198 70.747,-203.198 		"/>
	</g>
	<g>
		<rect x="293.818" y="-236.834" fill="#576A8A" width="178.828" height="31.544"/>
		<polygon fill="#445772" points="432.226,-173.739 334.241,-173.739 311.017,-205.29 455.45,-205.29 		"/>
	</g>
	<g>
		<rect x="-73.69" y="413.626" fill="#5C5C60" width="144.439" height="194.491"/>
		<g>
			<rect x="-58.763" y="429.939" fill="#ADCDD9" width="46.041" height="42.646"/>
			<rect x="9.779" y="429.939" fill="#ADCDD9" width="46.041" height="42.646"/>
		</g>
	</g>
	<g>
		<rect x="311.017" y="412.928" fill="#5C5C60" width="144.434" height="194.489"/>
		<g>
			<rect x="325.944" y="429.24" fill="#ADCDD9" width="46.039" height="42.648"/>
			<rect x="394.484" y="429.24" fill="#ADCDD9" width="46.043" height="42.648"/>
		</g>
	</g>
	<g>
		<rect x="-73.69" y="-7.799" fill="#5C5C60" width="144.439" height="194.488"/>
		<g>
			<rect x="-58.763" y="8.516" fill="#ADCDD9" width="46.041" height="42.644"/>
			<rect x="9.779" y="8.516" fill="#ADCDD9" width="46.041" height="42.644"/>
		</g>
		<g>
			<rect x="-58.763" y="68.407" fill="#ADCDD9" width="46.041" height="42.647"/>
			<rect x="9.779" y="68.407" fill="#ADCDD9" width="46.041" height="42.647"/>
		</g>
		<g>
			<rect x="-58.763" y="128.297" fill="#ADCDD9" width="46.041" height="42.654"/>
			<rect x="9.779" y="128.297" fill="#ADCDD9" width="46.041" height="42.654"/>
		</g>
		<rect x="-90.888" y="186.69" fill="#576A8A" width="178.829" height="31.542"/>
		<polygon fill="#445772" points="47.524,249.778 -50.467,249.778 -73.69,218.232 70.747,218.232 		"/>
	</g>
	<g>
		<rect x="311.017" y="-9.195" fill="#5C5C60" width="144.434" height="194.492"/>
		<g>
			<rect x="325.944" y="7.119" fill="#ADCDD9" width="46.039" height="42.65"/>
			<rect x="394.484" y="7.119" fill="#ADCDD9" width="46.043" height="42.65"/>
		</g>
		<g>
			<polygon fill="#ADCDD9" points="371.983,109.663 325.944,109.663 371.983,67.014 			"/>
			<rect x="394.484" y="67.014" fill="#ADCDD9" width="46.043" height="42.649"/>
			<rect x="326.479" y="67.014" fill="#ADCDD9" width="46.044" height="42.649"/>
		</g>
		<g>
			<rect x="325.944" y="126.908" fill="#ADCDD9" width="46.039" height="42.646"/>
			<rect x="394.484" y="126.908" fill="#ADCDD9" width="46.043" height="42.646"/>
		</g>
		<rect x="293.818" y="185.295" fill="#576A8A" width="178.828" height="31.545"/>
		<polygon fill="#445772" points="432.226,248.382 334.241,248.382 311.017,216.84 455.45,216.84 		"/>
	</g>
</g>
</svg>
