<?xml version="1.0" encoding="utf-8"?>
<!-- Generator: Adobe Illustrator 16.0.0, SVG Export Plug-In . SVG Version: 6.00 Build 0)  -->
<!DOCTYPE svg PUBLIC "-//W3C//DTD SVG 1.1//EN" "http://www.w3.org/Graphics/SVG/1.1/DTD/svg11.dtd">
<svg version="1.1" id="Layer_1" xmlns="http://www.w3.org/2000/svg" xmlns:xlink="http://www.w3.org/1999/xlink" x="0px" y="0px"
	 width="1350px" height="630px" viewBox="0 0 1350 630" enable-background="new 0 0 1350 630" xml:space="preserve">
<rect x="-5.639" y="-2" fill="#8CC9DC" width="1360.639" height="643.264"/>
<g>
	<rect x="369.654" y="-1.8" fill="#F58E89" width="606.05" height="632.407"/>
	<rect x="353.754" y="15.339" fill="#EC6562" width="637.853" height="42.916"/>
	<g>
		<rect x="455.396" y="85.725" fill="#5C5C60" width="118.624" height="155.641"/>
		<g>
			<rect x="467.659" y="98.774" fill="#ADCDD9" width="37.808" height="34.13"/>
			<rect x="523.947" y="98.774" fill="#ADCDD9" width="37.811" height="34.13"/>
		</g>
		<g>
			<rect x="467.659" y="146.71" fill="#ADCDD9" width="37.808" height="34.129"/>
			<rect x="523.947" y="146.71" fill="#ADCDD9" width="37.811" height="34.129"/>
		</g>
		<g>
			<rect x="467.659" y="194.641" fill="#ADCDD9" width="37.808" height="34.13"/>
			<rect x="523.947" y="194.641" fill="#ADCDD9" width="37.811" height="34.13"/>
		</g>
		<rect x="441.274" y="241.365" fill="#576A8A" width="146.865" height="25.246"/>
		<polygon fill="#445772" points="554.946,291.852 474.47,291.852 455.396,266.61 574.019,266.61 		"/>
	</g>
	<g>
		<rect x="771.346" y="85.725" fill="#5C5C60" width="118.614" height="155.641"/>
		<g>
			<rect x="783.604" y="98.774" fill="#ADCDD9" width="37.808" height="34.13"/>
			<rect x="839.894" y="98.774" fill="#ADCDD9" width="37.812" height="34.13"/>
		</g>
		<g>
			<rect x="783.604" y="146.71" fill="#ADCDD9" width="37.808" height="34.129"/>
			<rect x="839.894" y="146.71" fill="#ADCDD9" width="37.812" height="34.129"/>
		</g>
		<g>
			<rect x="783.604" y="194.641" fill="#ADCDD9" width="37.808" height="34.13"/>
			<rect x="839.894" y="194.641" fill="#ADCDD9" width="37.812" height="34.13"/>
		</g>
		<rect x="757.218" y="241.365" fill="#576A8A" width="146.866" height="25.246"/>
		<polygon fill="#445772" points="870.888,291.852 790.416,291.852 771.346,266.61 889.96,266.61 		"/>
	</g>
	<g>
		<g>
			<rect x="608.472" y="338.598" fill="#445772" width="128.419" height="266.969"/>
			<path fill="#454343" d="M740.906,609.475h-136.45v-274.78h136.45V609.475z M612.483,601.655h120.398V342.509H612.483V601.655z"/>
		</g>
		<g>
			<path fill="#576A8A" d="M723.638,588.58H622.729v-72.91h100.909V588.58z M626.32,585.084h93.729v-65.923H626.32V585.084
				L626.32,585.084z"/>
		</g>
		<g>
			<path fill="#576A8A" d="M721.846,511.06h-97.32V358.546h97.32V511.06z M628.537,507.148h89.287V362.453h-89.287V507.148
				L628.537,507.148z"/>
		</g>
	</g>
	<rect x="545.873" y="608.279" fill="#ADAFB8" width="253.612" height="22.721"/>
	<path fill="#EC6562" d="M452.477,113.997"/>
</g>
</svg>
