<?xml version="1.0" encoding="utf-8"?>
<!-- Generator: Adobe Illustrator 16.0.0, SVG Export Plug-In . SVG Version: 6.00 Build 0)  -->
<!DOCTYPE svg PUBLIC "-//W3C//DTD SVG 1.1//EN" "http://www.w3.org/Graphics/SVG/1.1/DTD/svg11.dtd">
<svg version="1.1" id="Layer_1" xmlns="http://www.w3.org/2000/svg" xmlns:xlink="http://www.w3.org/1999/xlink" x="0px" y="0px"
	 width="1350px" height="630px" viewBox="-480.5 -194.071 1350 630" enable-background="new -480.5 -194.071 1350 630"
	 xml:space="preserve">
<rect x="-507" y="-205.571" fill="#8CC9DC" width="1393" height="659"/>
<g>
	<rect x="-187.116" y="-40.797" fill="#F58E89" width="773.151" height="491.657"/>
	<rect x="-237.099" y="-184.571" fill="#3D4A3D" width="873.121" height="89.904"/>
	<rect x="-207.396" y="-95.455" fill="#EC6562" width="813.717" height="56.189"/>
	<rect x="-207.401" y="335.697" fill="#EC6562" width="813.726" height="56.183"/>
	<g>
		<rect x="-77.732" y="17.895" fill="#5C5C60" width="151.332" height="203.764"/>
		<g>
			<rect x="-62.091" y="34.983" fill="#ADCDD9" width="48.238" height="44.677"/>
			<rect x="9.718" y="34.983" fill="#ADCDD9" width="48.237" height="44.677"/>
		</g>
		<g>
			<rect x="-62.091" y="97.732" fill="#ADCDD9" width="48.238" height="44.676"/>
			<rect x="9.718" y="97.732" fill="#ADCDD9" width="48.237" height="44.676"/>
		</g>
		<g>
			<rect x="-62.091" y="160.487" fill="#ADCDD9" width="48.238" height="44.677"/>
			<rect x="9.718" y="160.487" fill="#ADCDD9" width="48.237" height="44.677"/>
		</g>
		<rect x="-95.748" y="221.654" fill="#576A8A" width="187.361" height="33.046"/>
		<polygon fill="#445772" points="49.264,287.756 -53.398,287.756 -77.732,254.7 73.6,254.7 		"/>
	</g>
	<g>
		<rect x="325.332" y="17.895" fill="#5C5C60" width="151.329" height="203.764"/>
		<g>
			<rect x="340.964" y="34.983" fill="#ADCDD9" width="48.238" height="44.677"/>
			<rect x="412.777" y="34.983" fill="#ADCDD9" width="48.232" height="44.677"/>
		</g>
		<g>
			<rect x="340.964" y="97.734" fill="#ADCDD9" width="48.238" height="44.674"/>
			<rect x="412.777" y="97.734" fill="#ADCDD9" width="48.232" height="44.674"/>
		</g>
		<g>
			<rect x="340.964" y="160.487" fill="#ADCDD9" width="48.238" height="44.677"/>
			<rect x="412.777" y="160.487" fill="#ADCDD9" width="48.232" height="44.677"/>
		</g>
		<rect x="307.313" y="221.654" fill="#576A8A" width="187.358" height="33.046"/>
		<polygon fill="#445772" points="452.322,287.756 349.665,287.756 325.332,254.7 476.664,254.7 		"/>
	</g>
</g>
</svg>
