<?xml version="1.0" encoding="utf-8"?>
<!-- Generator: Adobe Illustrator 16.0.0, SVG Export Plug-In . SVG Version: 6.00 Build 0)  -->
<!DOCTYPE svg PUBLIC "-//W3C//DTD SVG 1.1//EN" "http://www.w3.org/Graphics/SVG/1.1/DTD/svg11.dtd">
<svg version="1.1" id="Layer_1" xmlns="http://www.w3.org/2000/svg" xmlns:xlink="http://www.w3.org/1999/xlink" x="0px" y="0px"
	 width="440px" height="528px" viewBox="-217.834 -339.071 768 920" enable-background="new -217.834 -339.071 768 920"
	 xml:space="preserve">
<g>
	<rect x="-213.762" y="-130.909" fill="#F58E89" width="766.848" height="711.839"/>
	<rect x="-263.334" y="-339.07" fill="#3D4A3D" width="866" height="130.17"/>
	<rect x="-233.873" y="-210.048" fill="#EC6562" width="807.08" height="81.355"/>
	<rect x="-233.877" y="414.192" fill="#EC6562" width="807.09" height="81.345"/>
	<g>
		<rect x="-105.267" y="-45.936" fill="#5C5C60" width="150.095" height="295.014"/>
		<g>
			<rect x="-89.755" y="-21.193" fill="#ADCDD9" width="47.844" height="64.684"/>
			<rect x="-18.529" y="-21.193" fill="#ADCDD9" width="47.843" height="64.684"/>
		</g>
		<g>
			<rect x="-89.755" y="69.658" fill="#ADCDD9" width="47.844" height="64.684"/>
			<rect x="-18.529" y="69.658" fill="#ADCDD9" width="47.843" height="64.684"/>
		</g>
		<g>
			<rect x="-89.755" y="160.515" fill="#ADCDD9" width="47.844" height="64.685"/>
			<rect x="-18.529" y="160.515" fill="#ADCDD9" width="47.843" height="64.685"/>
		</g>
		<rect x="-123.135" y="249.074" fill="#576A8A" width="185.832" height="47.849"/>
		<polygon fill="#445772" points="20.694,344.779 -81.133,344.779 -105.267,296.923 44.829,296.923 		"/>
	</g>
	<g>
		<rect x="294.512" y="-45.936" fill="#5C5C60" width="150.094" height="295.014"/>
		<g>
			<rect x="310.016" y="-21.193" fill="#ADCDD9" width="47.847" height="64.684"/>
			<rect x="381.244" y="-21.193" fill="#ADCDD9" width="47.841" height="64.684"/>
		</g>
		<g>
			<rect x="310.016" y="69.661" fill="#ADCDD9" width="47.847" height="64.684"/>
			<rect x="381.244" y="69.661" fill="#ADCDD9" width="47.841" height="64.684"/>
		</g>
		<g>
			<rect x="310.016" y="160.515" fill="#ADCDD9" width="47.847" height="64.685"/>
			<rect x="381.244" y="160.515" fill="#ADCDD9" width="47.841" height="64.685"/>
		</g>
		<rect x="276.637" y="249.074" fill="#576A8A" width="185.829" height="47.849"/>
		<polygon fill="#445772" points="420.465,344.779 318.646,344.779 294.512,296.923 444.606,296.923 		"/>
	</g>
</g>
</svg>
