<?xml version="1.0" encoding="utf-8"?>
<!-- Generator: Adobe Illustrator 16.0.0, SVG Export Plug-In . SVG Version: 6.00 Build 0)  -->
<!DOCTYPE svg PUBLIC "-//W3C//DTD SVG 1.1//EN" "http://www.w3.org/Graphics/SVG/1.1/DTD/svg11.dtd">
<svg version="1.1" id="Layer_1" xmlns="http://www.w3.org/2000/svg" xmlns:xlink="http://www.w3.org/1999/xlink" x="0px" y="0px"
	 width="768px" height="920px" viewBox="-236.86 -326.431 768 920" enable-background="new -236.86 -326.431 768 920"
	 xml:space="preserve">
<g>
	<rect x="-232.369" y="-328.934" fill="#F58E89" width="762.011" height="920.914"/>
	<rect x="-252.358" y="418.434" fill="#EC6562" width="801.993" height="73.724"/>
	<rect x="-252.361" y="-183.974" fill="#EC6562" width="802" height="73.721"/>
	<g>
		<rect x="-142.316" y="-353.065" fill="#576A8A" width="184.659" height="43.364"/>
		<polygon fill="#445772" points="0.609,-266.329 -100.577,-266.329 -124.559,-309.7 24.589,-309.7 		"/>
	</g>
	<g>
		<rect x="254.934" y="-355.94" fill="#576A8A" width="184.658" height="43.364"/>
		<polygon fill="#445772" points="397.851,-269.2 296.676,-269.2 272.69,-312.576 421.834,-312.576 		"/>
	</g>
	<g>
		<rect x="-124.559" y="538.274" fill="#5C5C60" width="149.15" height="267.367"/>
		<g>
			<rect x="-109.144" y="560.697" fill="#ADCDD9" width="47.542" height="58.629"/>
			<rect x="-38.369" y="560.697" fill="#ADCDD9" width="47.542" height="58.629"/>
		</g>
	</g>
	<g>
		<rect x="272.69" y="537.313" fill="#5C5C60" width="149.146" height="267.369"/>
		<g>
			<rect x="288.105" y="559.739" fill="#ADCDD9" width="47.54" height="58.628"/>
			<rect x="358.879" y="559.739" fill="#ADCDD9" width="47.545" height="58.628"/>
		</g>
	</g>
	<g>
		<rect x="-124.559" y="-41.077" fill="#5C5C60" width="149.15" height="267.371"/>
		<g>
			<rect x="-109.144" y="-18.649" fill="#ADCDD9" width="47.542" height="58.626"/>
			<rect x="-38.369" y="-18.649" fill="#ADCDD9" width="47.542" height="58.626"/>
		</g>
		<g>
			<rect x="-109.144" y="63.687" fill="#ADCDD9" width="47.542" height="58.629"/>
			<rect x="-38.369" y="63.687" fill="#ADCDD9" width="47.542" height="58.629"/>
		</g>
		<g>
			<rect x="-109.144" y="146.02" fill="#ADCDD9" width="47.542" height="58.634"/>
			<rect x="-38.369" y="146.02" fill="#ADCDD9" width="47.542" height="58.634"/>
		</g>
		<rect x="-142.316" y="226.294" fill="#576A8A" width="184.659" height="43.362"/>
		<polygon fill="#445772" points="0.609,313.025 -100.577,313.025 -124.559,269.656 24.589,269.656 		"/>
	</g>
	<g>
		<rect x="272.69" y="-42.996" fill="#5C5C60" width="149.146" height="267.372"/>
		<g>
			<rect x="288.105" y="-20.568" fill="#ADCDD9" width="47.54" height="58.631"/>
			<rect x="358.879" y="-20.568" fill="#ADCDD9" width="47.545" height="58.631"/>
		</g>
		<g>
			<polygon fill="#ADCDD9" points="335.645,120.403 288.105,120.403 335.645,61.771 			"/>
			<rect x="358.879" y="61.771" fill="#ADCDD9" width="47.545" height="58.631"/>
			<rect x="288.656" y="61.771" fill="#ADCDD9" width="47.545" height="58.631"/>
		</g>
		<g>
			<rect x="288.105" y="144.111" fill="#ADCDD9" width="47.54" height="58.628"/>
			<rect x="358.879" y="144.111" fill="#ADCDD9" width="47.545" height="58.628"/>
		</g>
		<rect x="254.934" y="224.376" fill="#576A8A" width="184.658" height="43.368"/>
		<polygon fill="#445772" points="397.851,311.104 296.676,311.104 272.69,267.744 421.834,267.744 		"/>
	</g>
</g>
</svg>
