<?xml version="1.0" encoding="utf-8"?>
<!-- Generator: Adobe Illustrator 16.0.0, SVG Export Plug-In . SVG Version: 6.00 Build 0)  -->
<!DOCTYPE svg PUBLIC "-//W3C//DTD SVG 1.1//EN" "http://www.w3.org/Graphics/SVG/1.1/DTD/svg11.dtd">
<svg version="1.1" id="Layer_1" xmlns="http://www.w3.org/2000/svg" xmlns:xlink="http://www.w3.org/1999/xlink" x="0px" y="0px"
	 width="440px" height="528px" viewBox="-229.139 -302.334 768 920" enable-background="new -229.139 -302.334 768 920"
	 xml:space="preserve">
<g>
	<rect x="-224.597" y="-302.334" fill="#F58E89" width="763.915" height="919.434"/>
	<rect x="-244.639" y="-277.415" fill="#EC6562" width="804" height="62.397"/>
	<g>
		<rect x="-116.521" y="-175.087" fill="#5C5C60" width="149.521" height="226.279"/>
		<g>
			<rect x="-101.065" y="-156.112" fill="#ADCDD9" width="47.658" height="49.619"/>
			<rect x="-30.112" y="-156.112" fill="#ADCDD9" width="47.658" height="49.619"/>
		</g>
		<g>
			<rect x="-101.065" y="-86.423" fill="#ADCDD9" width="47.658" height="49.621"/>
			<rect x="-30.112" y="-86.423" fill="#ADCDD9" width="47.658" height="49.621"/>
		</g>
		<g>
			<rect x="-101.065" y="-16.736" fill="#ADCDD9" width="47.658" height="49.619"/>
			<rect x="-30.112" y="-16.736" fill="#ADCDD9" width="47.658" height="49.619"/>
		</g>
		<rect x="-134.322" y="51.192" fill="#576A8A" width="185.123" height="36.703"/>
		<polygon fill="#445772" points="8.958,124.593 -92.479,124.593 -116.521,87.895 33,87.895 		"/>
	</g>
	<g>
		<rect x="281.725" y="-175.087" fill="#5C5C60" width="149.516" height="226.279"/>
		<g>
			<rect x="297.177" y="-156.112" fill="#ADCDD9" width="47.657" height="49.619"/>
			<rect x="368.129" y="-156.112" fill="#ADCDD9" width="47.662" height="49.619"/>
		</g>
		<g>
			<rect x="297.177" y="-86.423" fill="#ADCDD9" width="47.657" height="49.621"/>
			<rect x="368.129" y="-86.423" fill="#ADCDD9" width="47.662" height="49.621"/>
		</g>
		<g>
			<rect x="297.177" y="-16.736" fill="#ADCDD9" width="47.657" height="49.619"/>
			<rect x="368.129" y="-16.736" fill="#ADCDD9" width="47.662" height="49.619"/>
		</g>
		<rect x="263.922" y="51.192" fill="#576A8A" width="185.123" height="36.703"/>
		<polygon fill="#445772" points="407.196,124.593 305.764,124.593 281.725,87.895 431.238,87.895 		"/>
	</g>
	<g>
		<g>
			<rect x="76.427" y="192.554" fill="#445772" width="161.87" height="388.138"/>
			<path fill="#454343" d="M243.357,586.371H71.365V186.882h171.992V586.371z M81.485,575.005h151.758V198.247H81.485V575.005z"/>
		</g>
		<g>
			<path fill="#576A8A" d="M221.594,555.996H94.398V449.992h127.195V555.996L221.594,555.996z M98.927,550.91h118.145v-95.838
				H98.927V550.91z"/>
		</g>
		<g>
			<path fill="#576A8A" d="M219.332,443.291H96.662V221.558h122.669V443.291z M101.722,437.603h112.542V227.24H101.722V437.603z"/>
		</g>
	</g>
	<rect x="-2.475" y="584.635" fill="#ADAFB8" width="319.672" height="33.03"/>
	<path fill="#EC6562" d="M-120.202-133.982"/>
</g>
</svg>
