<?xml version="1.0" encoding="utf-8"?>
<!-- Generator: Adobe Illustrator 16.0.0, SVG Export Plug-In . SVG Version: 6.00 Build 0)  -->
<!DOCTYPE svg PUBLIC "-//W3C//DTD SVG 1.1//EN" "http://www.w3.org/Graphics/SVG/1.1/DTD/svg11.dtd">
<svg version="1.1" id="Layer_1" xmlns="http://www.w3.org/2000/svg" xmlns:xlink="http://www.w3.org/1999/xlink" x="0px" y="0px"
	 width="691px" height="255px" viewBox="0 0 691 255" enable-background="new 0 0 691 255" xml:space="preserve">
<g>
	<path fill-rule="evenodd" clip-rule="evenodd" fill="#FFFFFF" d="M453.641,114.763c-7.938,3.052-16.172,0.836-28.611-10.157
		c-12.438-10.99-26.9-19.379-33.263-12.726c-6.364,6.653-2.025,27.479,2.892,34.999c4.918,7.521,18.97,10.18,52.324,10.166
		C480.338,137.03,487.218,114.152,453.641,114.763z"/>
	<path fill-rule="evenodd" clip-rule="evenodd" fill="#FEDA3E" d="M652.788,93.376c0.985,9.179-14.071,26.278-78.836,34.374
		c-64.764,8.096-155.165,12.334-159.021,6.551c-3.376-5.063,65.039-31.501,113.634-42.451c0.585,5.966,2.207,10.287,6.241,9.327
		c6.749-1.606,30.851-5.785,40.813-7.712c8.43-1.633,8.577-4.876,8.812-9.145C620.919,81.741,651.764,83.82,652.788,93.376z"/>
	
		<ellipse transform="matrix(-0.175 -0.9846 0.9846 -0.175 663.117 745.5388)" fill-rule="evenodd" clip-rule="evenodd" fill="#FEDA3E" cx="643.901" cy="94.957" rx="5.473" ry="17.668"/>
	<path fill-rule="evenodd" clip-rule="evenodd" fill="#F1F2F2" d="M648.363,56.029c0.49,10.58,1.966,23.508,4.425,37.347
		c2.461,13.842,5.53,26.483,8.717,36.586c-0.49-10.582-1.966-23.508-4.425-37.349C654.618,78.773,651.55,66.131,648.363,56.029z"/>
	<path fill-rule="evenodd" clip-rule="evenodd" fill="#FFFFFF" d="M606.275,63.021c2.254-0.118,2.25,1.313-1.687,2.063
		c-3.937,0.75-41.803,9.373-46.677,9.748s-19.308,1.313-28.868-1.313c-9.56-2.624-55.299-17.62-59.049-19.12
		c-3.747-1.499-6.561-1.875-2.436-3.749c4.123-1.875,55.111-15.184,62.984-16.496c7.872-1.312,14.434-2.437,19.12,1.687
		c4.688,4.124,36.366,23.245,38.804,25.493C590.904,63.584,601.377,63.28,606.275,63.021z"/>
	<polygon fill-rule="evenodd" clip-rule="evenodd" fill="#FFFFFF" points="520.119,59.466 515.436,59.98 521.632,131.287 
		526.317,130.77 	"/>
	
		<rect x="555.865" y="50.396" transform="matrix(0.994 -0.1092 0.1092 0.994 -6.3794 61.4918)" fill-rule="evenodd" clip-rule="evenodd" fill="#FFFFFF" width="4.713" height="77.184"/>
	<polygon fill="#F5DF74" points="551.652,50.886 524.838,130.29 526.317,130.77 553.132,51.367 	"/>
	<polygon fill="#F5DF74" points="518.812,60.305 560.105,127.605 561.413,126.765 520.119,59.466 	"/>
	<g>
		<path fill-rule="evenodd" clip-rule="evenodd" fill="#FFFFFF" d="M577.732,69.508l-3.71,0.361l2.587,23.386
			c1.474-0.333,2.661-0.726,3.621-1.169L577.732,69.508z"/>
		<path fill-rule="evenodd" clip-rule="evenodd" fill="#FFFFFF" d="M599.896,65.307l-3.71,0.362l1.979,17.896
			c1.259-0.05,2.505-0.091,3.737-0.127L599.896,65.307z"/>
		<polygon fill="#F5DF74" points="596.187,65.669 591.172,83.893 592.152,83.84 597.072,65.957 		"/>
		<polygon fill="#F5DF74" points="576.995,70.313 584.949,84.284 585.979,84.214 577.779,69.81 		"/>
	</g>
	<path fill-rule="evenodd" clip-rule="evenodd" fill="#FFFFFF" d="M594.952,124.66c-9.474-0.676-35.412-0.449-47.368,0.229
		c-11.955,0.676-27.971,4.961-41.054,9.021c-13.083,4.062-27.067,9.023-27.743,10.603c-0.678,1.579,6.54,0.901,15.789,0.226
		c9.248-0.677,45.563-7.218,52.33-7.894C553.675,136.164,599.014,125.338,594.952,124.66z"/>
	
		<polyline fill-rule="evenodd" clip-rule="evenodd" fill="none" stroke="#FFFFFF" stroke-width="1.8348" stroke-miterlimit="22.9256" points="
		355.889,76.186 410.884,114.1 355.889,152.014 	"/>
	<polygon fill-rule="evenodd" clip-rule="evenodd" fill="#FFF2DC" points="357.23,26 34.507,26 73.684,118.748 34.507,216.63 
		357.23,216.63 	"/>
</g>
</svg>
