<?xml version="1.0" encoding="utf-8"?>
<!-- Generator: Adobe Illustrator 16.0.0, SVG Export Plug-In . SVG Version: 6.00 Build 0)  -->
<!DOCTYPE svg PUBLIC "-//W3C//DTD SVG 1.1//EN" "http://www.w3.org/Graphics/SVG/1.1/DTD/svg11.dtd">
<svg version="1.1" id="Layer_1" xmlns="http://www.w3.org/2000/svg" xmlns:xlink="http://www.w3.org/1999/xlink" x="0px" y="0px"
	 width="1439.5px" height="461.921px" viewBox="-239.5 393.079 1439.5 461.921"
	 enable-background="new -239.5 393.079 1439.5 461.921" xml:space="preserve">
<rect x="-0.5" y="-1.5" display="none" fill="#8CC9DB" stroke="#000000" stroke-miterlimit="10" width="1200" height="904"/>
<g>
	<rect x="30.293" y="456.838" fill="#D1D3D4" width="171.668" height="397.162"/>
	<rect x="163.948" y="767.994" fill="#939598" width="19.393" height="86.006"/>
	<rect x="51.472" y="767.994" fill="#939598" width="19.393" height="86.006"/>
	<rect x="163.948" y="455.783" fill="#939598" width="19.393" height="283.227"/>
	<rect x="51.472" y="456.838" fill="#939598" width="19.393" height="283.225"/>
	<polygon fill="#808285" points="202.136,770.199 30.122,770.199 20.611,758.62 211.646,758.62 	"/>
	<polygon fill="#808285" points="202.136,731.67 30.122,731.67 20.612,720.09 211.646,720.09 	"/>
	<polygon fill="#808285" points="202.136,691.107 30.122,691.107 20.613,679.53 211.646,679.53 	"/>
	<polygon fill="#808285" points="202.136,650.548 30.123,650.548 20.613,638.97 211.646,638.97 	"/>
	<polygon fill="#808285" points="202.136,609.984 30.123,609.984 20.614,598.405 211.646,598.405 	"/>
	<polygon fill="#808285" points="202.136,570.438 30.125,570.438 20.615,558.859 211.646,558.859 	"/>
	<polygon fill="#808285" points="202.136,529.877 30.125,529.877 20.615,518.299 211.646,518.299 	"/>
	<polygon fill="#808285" points="202.136,489.316 30.126,489.316 20.616,477.737 211.646,477.737 	"/>
	<polygon fill="#BCBEC0" points="216.521,760.825 16.971,760.825 13.317,757.984 13.317,740.93 16.34,737.93 216.521,737.93 
		218.883,741.063 218.883,757.984 	"/>
	<polygon fill="#BCBEC0" points="216.521,720.52 16.971,720.52 13.317,717.679 13.317,700.621 16.34,697.621 216.521,697.621 
		218.883,700.756 218.883,717.679 	"/>
	<polygon fill="#BCBEC0" points="216.521,680.215 16.971,680.215 13.317,677.371 13.317,660.315 16.34,657.316 216.521,657.316 
		218.883,660.45 218.883,677.371 	"/>
	<polygon fill="#BCBEC0" points="216.521,639.906 16.971,639.906 13.317,637.067 13.317,620.009 16.34,617.008 216.521,617.008 
		218.883,620.145 218.883,637.067 	"/>
	<polygon fill="#BCBEC0" points="216.521,599.604 16.971,599.604 13.317,596.761 13.317,579.702 16.34,576.702 216.521,576.702 
		218.883,579.837 218.883,596.761 	"/>
	<polygon fill="#BCBEC0" points="216.521,559.296 16.971,559.296 13.317,556.452 13.317,539.396 16.34,536.396 216.521,536.396 
		218.883,539.53 218.883,556.452 	"/>
	<polygon fill="#BCBEC0" points="216.521,518.989 16.971,518.989 13.317,516.146 13.317,499.09 16.34,496.09 216.521,496.09 
		218.883,499.225 218.883,516.146 	"/>
	<polygon fill="#BCBEC0" points="216.521,478.683 16.971,478.683 13.317,475.842 13.317,458.783 16.34,455.783 216.521,455.783 
		218.883,458.918 218.883,475.842 	"/>
	<rect x="93.377" y="795.735" fill="#4BB5AB" width="45.501" height="58.266"/>
</g>
<g>
	<path fill="#FAFBFC" d="M489.799,483.307V855h16.792h35.179h16.688h35.18h16.687h35.182h17.042V483.307H489.799z M541.768,804.613
		h-35.18v-48.386h35.18V804.613z M541.768,740.931h-35.18v-48.384h35.18V740.931z M541.768,677.246h-35.18v-48.38h35.18V677.246z
		 M541.768,613.564h-35.18v-48.383h35.18V613.564z M541.768,549.883h-35.18v-48.382h35.18V549.883z M593.635,804.613h-35.179
		v-48.386h35.179V804.613z M593.635,740.931h-35.179v-48.384h35.179V740.931z M593.635,677.246h-35.179v-48.38h35.179V677.246z
		 M593.635,613.564h-35.179v-48.383h35.179V613.564z M593.635,549.883h-35.179v-48.382h35.179V549.883z M645.502,804.613H610.32
		v-48.386h35.182V804.613L645.502,804.613z M645.502,740.931H610.32v-48.384h35.182V740.931L645.502,740.931z M645.502,677.246
		H610.32v-48.38h35.182V677.246L645.502,677.246z M645.502,613.564H610.32v-48.383h35.182V613.564L645.502,613.564z
		 M645.502,549.883H610.32v-48.382h35.182V549.883L645.502,549.883z"/>
	<polygon fill="#805B24" points="663.062,488.298 674.893,464.887 475.708,465.055 488.561,488.298 498.032,488.298 
		651.164,488.298 	"/>
	<path fill="#6D4D42" d="M506.591,549.883h35.18v-48.382h-35.18V549.883z M512.451,509.566h23.456v32.254h-23.456V509.566z"/>
	<rect x="512.451" y="509.566" fill="#EBF7F8" width="23.456" height="32.254"/>
	<path fill="#6D4D42" d="M558.457,549.883h35.179v-48.382h-35.179V549.883z M564.321,509.566h23.449v32.254h-23.449V509.566z"/>
	<rect x="564.321" y="509.566" fill="#EBF7F8" width="23.449" height="32.254"/>
	<path fill="#6D4D42" d="M610.32,549.883h35.182v-48.382H610.32V549.883z M616.185,509.566h23.452v32.254h-23.452V509.566z"/>
	<rect x="616.185" y="509.566" fill="#EBF7F8" width="23.452" height="32.254"/>
	<path fill="#6D4D42" d="M506.591,613.564h35.18v-48.383h-35.18V613.564z M512.451,573.247h23.456v32.255h-23.456V573.247z"/>
	<rect x="512.451" y="573.247" fill="#EBF7F8" width="23.456" height="32.255"/>
	<path fill="#6D4D42" d="M558.457,613.564h35.179v-48.383h-35.179V613.564z M564.321,573.247h23.449v32.255h-23.449V573.247z"/>
	<rect x="564.321" y="573.247" fill="#EBF7F8" width="23.449" height="32.255"/>
	<path fill="#6D4D42" d="M610.32,613.564h35.182v-48.383H610.32V613.564z M616.185,573.247h23.452v32.255h-23.452V573.247z"/>
	<rect x="616.185" y="573.247" fill="#EBF7F8" width="23.452" height="32.255"/>
	<path fill="#6D4D42" d="M506.591,677.246h35.18v-48.38h-35.18V677.246z M512.451,636.931h23.456v32.253h-23.456V636.931z"/>
	<rect x="512.451" y="636.931" fill="#EBF7F8" width="23.456" height="32.253"/>
	<path fill="#6D4D42" d="M558.457,677.246h35.179v-48.38h-35.179V677.246z M564.321,636.931h23.449v32.253h-23.449V636.931z"/>
	<rect x="564.321" y="636.931" fill="#EBF7F8" width="23.449" height="32.253"/>
	<path fill="#6D4D42" d="M610.32,677.246h35.182v-48.38H610.32V677.246z M616.185,636.931h23.452v32.253h-23.452V636.931z"/>
	<rect x="616.185" y="636.931" fill="#EBF7F8" width="23.452" height="32.253"/>
	<path fill="#6D4D42" d="M506.591,740.931h35.18v-48.384h-35.18V740.931z M512.451,700.612h23.456v32.253h-23.456V700.612z"/>
	<rect x="512.451" y="700.612" fill="#EBF7F8" width="23.456" height="32.253"/>
	<path fill="#6D4D42" d="M558.457,740.931h35.179v-48.384h-35.179V740.931z M564.321,700.612h23.449v32.253h-23.449V700.612z"/>
	<rect x="564.321" y="700.612" fill="#EBF7F8" width="23.449" height="32.253"/>
	<path fill="#6D4D42" d="M610.32,740.931h35.182v-48.384H610.32V740.931z M616.185,700.612h23.452v32.253h-23.452V700.612z"/>
	<rect x="616.185" y="700.612" fill="#EBF7F8" width="23.452" height="32.253"/>
	<path fill="#6D4D42" d="M506.591,804.613h35.18v-48.386h-35.18V804.613z M512.451,764.295h23.456v32.255h-23.456V764.295z"/>
	<rect x="512.451" y="764.295" fill="#EBF7F8" width="23.456" height="32.255"/>
	<path fill="#6D4D42" d="M558.457,804.613h35.179v-48.386h-35.179V804.613z M564.321,764.295h23.449v32.255h-23.449V764.295z"/>
	<rect x="564.321" y="764.295" fill="#EBF7F8" width="23.449" height="32.255"/>
	<path fill="#6D4D42" d="M610.32,804.613h35.182v-48.386H610.32V804.613z M616.185,764.295h23.452v32.255h-23.452V764.295z"/>
	<rect x="616.185" y="764.295" fill="#EBF7F8" width="23.452" height="32.255"/>
</g>
<g>
	<g>
		<rect x="941.553" y="402.207" fill="#74665F" width="35.77" height="23.154"/>
		<rect x="941.553" y="463.048" fill="#74665F" width="35.77" height="23.155"/>
		<rect x="941.553" y="523.892" fill="#74665F" width="35.77" height="23.155"/>
		<rect x="941.553" y="584.734" fill="#74665F" width="35.77" height="23.154"/>
		<rect x="941.553" y="645.574" fill="#74665F" width="35.77" height="23.156"/>
		<rect x="941.553" y="706.419" fill="#74665F" width="35.77" height="23.153"/>
		<rect x="941.553" y="767.259" fill="#74665F" width="35.77" height="23.161"/>
	</g>
	<rect x="967.152" y="402.207" fill="#94847C" width="160.297" height="455.793"/>
	<g>
		<rect x="1057.259" y="425.362" fill="#AB8E80" width="33.271" height="33.178"/>
		<rect x="1057.259" y="470.697" fill="#AB8E80" width="33.271" height="33.183"/>
		<rect x="1057.259" y="516.035" fill="#AB8E80" width="33.271" height="33.184"/>
		<rect x="1057.259" y="561.375" fill="#AB8E80" width="33.271" height="33.183"/>
		<rect x="1057.259" y="606.714" fill="#AB8E80" width="33.271" height="33.179"/>
		<rect x="1057.259" y="652.053" fill="#AB8E80" width="33.271" height="33.178"/>
		<rect x="1057.259" y="697.388" fill="#AB8E80" width="33.271" height="33.183"/>
		<rect x="1057.259" y="742.729" fill="#AB8E80" width="33.271" height="33.181"/>
		<rect x="1057.259" y="788.064" fill="#AB8E80" width="33.271" height="33.185"/>
	</g>
	<g>
		<rect x="991.87" y="425.362" fill="#FFF3E7" width="38.134" height="19.016"/>
		<rect x="987.777" y="444.377" fill="#74665F" width="46.317" height="4.526"/>
	</g>
	<g>
		<rect x="991.87" y="470.697" fill="#FFF3E7" width="38.134" height="19.017"/>
		<rect x="987.777" y="489.713" fill="#74665F" width="46.317" height="4.53"/>
	</g>
	<g>
		<rect x="991.87" y="516.035" fill="#FFF3E7" width="38.134" height="19.016"/>
		<rect x="987.777" y="535.051" fill="#74665F" width="46.317" height="4.531"/>
	</g>
	<g>
		<rect x="991.87" y="561.375" fill="#FFF3E7" width="38.134" height="19.015"/>
		<rect x="987.777" y="580.39" fill="#74665F" width="46.317" height="4.529"/>
	</g>
	<g>
		<rect x="991.87" y="606.714" fill="#FFF3E7" width="38.134" height="19.014"/>
		<rect x="987.777" y="625.729" fill="#74665F" width="46.317" height="4.528"/>
	</g>
	<g>
		<rect x="991.87" y="652.053" fill="#FFF3E7" width="38.134" height="19.017"/>
		<rect x="987.777" y="671.068" fill="#74665F" width="46.317" height="4.527"/>
	</g>
	<g>
		<rect x="991.87" y="697.388" fill="#FFF3E7" width="38.134" height="19.017"/>
		<rect x="987.777" y="716.403" fill="#74665F" width="46.317" height="4.529"/>
	</g>
	<g>
		<rect x="991.87" y="742.729" fill="#FFF3E7" width="38.134" height="19.014"/>
		<rect x="987.777" y="761.74" fill="#74665F" width="46.317" height="4.533"/>
	</g>
	<g>
		<rect x="991.87" y="788.064" fill="#FFF3E7" width="38.134" height="19.016"/>
		<rect x="987.777" y="807.079" fill="#74665F" width="46.317" height="4.528"/>
	</g>
</g>
<g>
	<rect x="-209.625" y="438.587" fill="#E1E1E0" width="192.249" height="415.728"/>
	<rect x="-142.581" y="395.394" fill="#BEBDBD" width="58.159" height="458.921"/>
	<rect x="-193.964" y="455.136" fill="#FEC111" width="38.945" height="40.311"/>
	<rect x="-193.964" y="506.643" fill="#FEC111" width="38.945" height="40.31"/>
	<rect x="-193.964" y="558.152" fill="#FEC111" width="38.945" height="40.307"/>
	<rect x="-193.964" y="609.657" fill="#FEC111" width="38.945" height="40.311"/>
	<rect x="-193.964" y="661.165" fill="#FEC111" width="38.945" height="40.308"/>
	<rect x="-193.964" y="712.671" fill="#FEC111" width="38.945" height="40.31"/>
	<rect x="-193.964" y="764.178" fill="#FEC111" width="38.945" height="40.309"/>
	<rect x="-69.337" y="455.136" fill="#FEC111" width="38.946" height="40.312"/>
	<rect x="-69.337" y="506.644" fill="#FEC111" width="38.946" height="40.309"/>
	<rect x="-69.337" y="558.152" fill="#FEC111" width="38.946" height="40.307"/>
	<rect x="-69.337" y="609.657" fill="#FEC111" width="38.946" height="40.311"/>
	<rect x="-69.337" y="661.165" fill="#FEC111" width="38.946" height="40.308"/>
	<rect x="-69.337" y="712.671" fill="#FEC111" width="38.946" height="40.31"/>
	<rect x="-69.337" y="764.178" fill="#FEC111" width="38.946" height="40.309"/>
</g>
<g>
	<rect x="729.15" y="589.597" fill="#E1E1E0" width="151.502" height="262.555"/>
	<rect x="723.364" y="577.485" fill="#FAFBFC" width="163.073" height="12.11"/>
	<g>
		<g>
			<rect x="742.228" y="602.24" fill="#80CBC4" width="31.625" height="45.961"/>
		</g>
	</g>
	<g>
		<g>
			<rect x="789.522" y="602.24" fill="#80CBC4" width="31.627" height="45.961"/>
		</g>
	</g>
	<g>
		<g>
			<rect x="836.816" y="602.24" fill="#80CBC4" width="31.623" height="45.961"/>
		</g>
	</g>
	<g>
		<g>
			<rect x="742.228" y="659.02" fill="#80CBC4" width="31.625" height="45.962"/>
		</g>
	</g>
	<g>
		<g>
			<rect x="789.522" y="659.02" fill="#80CBC4" width="31.627" height="45.962"/>
		</g>
	</g>
	<g>
		<g>
			<rect x="836.816" y="659.02" fill="#80CBC4" width="31.623" height="45.962"/>
		</g>
	</g>
	<g>
		<g>
			<rect x="742.228" y="715.797" fill="#80CBC4" width="31.625" height="45.961"/>
		</g>
	</g>
	<g>
		<g>
			<rect x="789.522" y="715.797" fill="#80CBC4" width="31.627" height="45.961"/>
		</g>
	</g>
	<g>
		<g>
			<rect x="836.816" y="715.797" fill="#80CBC4" width="31.623" height="45.961"/>
		</g>
	</g>
	<g>
		<rect x="773.013" y="784.456" fill="#80CBC4" width="30.832" height="67.693"/>
		<g>
			<rect x="805.96" y="784.456" fill="#80CBC4" width="30.828" height="67.693"/>
		</g>
		<rect x="803.845" y="784.456" fill="#4BB5AB" width="2.114" height="67.693"/>
	</g>
	<rect x="767.787" y="778.938" fill="#FAFBFC" width="74.229" height="5.521"/>
</g>
<g>
	<rect x="281.866" y="448.84" fill="#F58E89" width="127.663" height="403.652"/>
	<rect x="273.615" y="426" fill="#3D4A3D" width="144.17" height="14.281"/>
	<rect x="278.52" y="440.156" fill="#EC6562" width="134.359" height="8.926"/>
	<rect x="278.52" y="654.518" fill="#EC6562" width="134.359" height="8.927"/>
	<rect x="278.52" y="581.584" fill="#EC6562" width="134.36" height="8.925"/>
	<rect x="278.52" y="508.65" fill="#EC6562" width="134.36" height="8.926"/>
	<rect x="278.52" y="727.45" fill="#EC6562" width="134.359" height="8.927"/>
	<g>
		<rect x="299.93" y="528.741" fill="#5C5C60" width="24.986" height="32.37"/>
		<g>
			<rect x="302.513" y="531.457" fill="#ADCDD9" width="7.965" height="7.099"/>
			<rect x="314.368" y="531.457" fill="#ADCDD9" width="7.965" height="7.099"/>
		</g>
		<g>
			<rect x="302.513" y="541.426" fill="#ADCDD9" width="7.965" height="7.1"/>
			<rect x="314.368" y="541.426" fill="#ADCDD9" width="7.965" height="7.1"/>
		</g>
		<g>
			<rect x="302.513" y="551.396" fill="#ADCDD9" width="7.965" height="7.098"/>
			<rect x="314.368" y="551.396" fill="#ADCDD9" width="7.965" height="7.098"/>
		</g>
		<rect x="296.954" y="561.112" fill="#576A8A" width="30.938" height="5.25"/>
		<polygon fill="#445772" points="320.9,571.613 303.949,571.613 299.93,566.362 324.916,566.362 		"/>
	</g>
	<g>
		<rect x="366.483" y="528.395" fill="#5C5C60" width="24.986" height="32.37"/>
		<g>
			<rect x="369.066" y="531.109" fill="#ADCDD9" width="7.964" height="7.099"/>
			<rect x="380.921" y="531.109" fill="#ADCDD9" width="7.966" height="7.099"/>
		</g>
		<g>
			<rect x="369.066" y="541.077" fill="#ADCDD9" width="7.964" height="7.099"/>
			<rect x="380.921" y="541.077" fill="#ADCDD9" width="7.966" height="7.099"/>
		</g>
		<g>
			<rect x="369.066" y="551.047" fill="#ADCDD9" width="7.964" height="7.098"/>
			<rect x="380.921" y="551.047" fill="#ADCDD9" width="7.966" height="7.098"/>
		</g>
		<rect x="363.507" y="560.765" fill="#576A8A" width="30.938" height="5.249"/>
		<polygon fill="#445772" points="387.451,571.266 370.499,571.266 366.483,566.014 391.469,566.014 		"/>
	</g>
	<g>
		<rect x="299.93" y="458.162" fill="#5C5C60" width="24.986" height="32.37"/>
		<g>
			<rect x="302.513" y="460.879" fill="#ADCDD9" width="7.965" height="7.098"/>
			<rect x="314.368" y="460.879" fill="#ADCDD9" width="7.965" height="7.098"/>
		</g>
		<g>
			<rect x="302.513" y="470.848" fill="#ADCDD9" width="7.965" height="7.098"/>
			<rect x="314.368" y="470.848" fill="#ADCDD9" width="7.965" height="7.098"/>
		</g>
		<g>
			<rect x="302.513" y="480.816" fill="#ADCDD9" width="7.965" height="7.098"/>
			<rect x="314.368" y="480.816" fill="#ADCDD9" width="7.965" height="7.098"/>
		</g>
		<rect x="296.954" y="490.532" fill="#576A8A" width="30.938" height="5.25"/>
		<polygon fill="#445772" points="320.9,501.033 303.949,501.033 299.93,495.782 324.916,495.782 		"/>
	</g>
	<g>
		<rect x="366.484" y="458.162" fill="#5C5C60" width="24.985" height="32.37"/>
		<g>
			<rect x="369.066" y="460.879" fill="#ADCDD9" width="7.966" height="7.098"/>
			<rect x="380.922" y="460.879" fill="#ADCDD9" width="7.966" height="7.098"/>
		</g>
		<g>
			<rect x="369.066" y="470.848" fill="#ADCDD9" width="7.966" height="7.098"/>
			<rect x="380.922" y="470.848" fill="#ADCDD9" width="7.966" height="7.098"/>
		</g>
		<g>
			<rect x="369.066" y="480.816" fill="#ADCDD9" width="7.966" height="7.098"/>
			<rect x="380.922" y="480.816" fill="#ADCDD9" width="7.966" height="7.098"/>
		</g>
		<rect x="363.507" y="490.532" fill="#576A8A" width="30.938" height="5.25"/>
		<polygon fill="#445772" points="387.451,501.033 370.5,501.033 366.484,495.782 391.469,495.782 		"/>
	</g>
	<g>
		<rect x="299.93" y="669.026" fill="#5C5C60" width="24.986" height="32.37"/>
		<g>
			<rect x="302.513" y="671.74" fill="#ADCDD9" width="7.965" height="7.1"/>
			<rect x="314.368" y="671.74" fill="#ADCDD9" width="7.965" height="7.1"/>
		</g>
		<g>
			<rect x="302.513" y="681.71" fill="#ADCDD9" width="7.965" height="7.099"/>
			<rect x="314.368" y="681.71" fill="#ADCDD9" width="7.965" height="7.099"/>
		</g>
		<g>
			<rect x="302.513" y="691.68" fill="#ADCDD9" width="7.965" height="7.099"/>
			<rect x="314.368" y="691.68" fill="#ADCDD9" width="7.965" height="7.099"/>
		</g>
		<rect x="296.954" y="701.396" fill="#576A8A" width="30.938" height="5.25"/>
		<polygon fill="#445772" points="320.9,711.896 303.949,711.896 299.93,706.646 324.916,706.646 		"/>
	</g>
	<g>
		<rect x="366.483" y="668.91" fill="#5C5C60" width="24.986" height="32.369"/>
		<g>
			<rect x="369.066" y="671.625" fill="#ADCDD9" width="7.964" height="7.099"/>
			<rect x="380.921" y="671.625" fill="#ADCDD9" width="7.966" height="7.099"/>
		</g>
		<g>
			<rect x="369.066" y="681.594" fill="#ADCDD9" width="7.964" height="7.1"/>
			<rect x="380.921" y="681.594" fill="#ADCDD9" width="7.966" height="7.1"/>
		</g>
		<g>
			<rect x="369.066" y="691.563" fill="#ADCDD9" width="7.964" height="7.1"/>
			<rect x="380.921" y="691.563" fill="#ADCDD9" width="7.966" height="7.1"/>
		</g>
		<rect x="363.507" y="701.28" fill="#576A8A" width="30.938" height="5.251"/>
		<polygon fill="#445772" points="387.451,711.781 370.499,711.781 366.483,706.531 391.469,706.531 		"/>
	</g>
	<g>
		<rect x="299.93" y="739.168" fill="#5C5C60" width="24.986" height="32.369"/>
		<g>
			<rect x="302.513" y="741.883" fill="#ADCDD9" width="7.965" height="7.099"/>
			<rect x="314.368" y="741.883" fill="#ADCDD9" width="7.965" height="7.099"/>
		</g>
		<g>
			<rect x="302.513" y="751.852" fill="#ADCDD9" width="7.965" height="7.1"/>
			<rect x="314.368" y="751.852" fill="#ADCDD9" width="7.965" height="7.1"/>
		</g>
		<g>
			<rect x="302.513" y="761.821" fill="#ADCDD9" width="7.965" height="7.1"/>
			<rect x="314.368" y="761.821" fill="#ADCDD9" width="7.965" height="7.1"/>
		</g>
		<rect x="296.954" y="771.537" fill="#576A8A" width="30.938" height="5.251"/>
		<polygon fill="#445772" points="320.9,782.038 303.949,782.038 299.93,776.788 324.916,776.788 		"/>
	</g>
	<g>
		<rect x="366.483" y="739.168" fill="#5C5C60" width="24.986" height="32.369"/>
		<g>
			<rect x="369.066" y="741.883" fill="#ADCDD9" width="7.964" height="7.099"/>
			<rect x="380.921" y="741.883" fill="#ADCDD9" width="7.966" height="7.099"/>
		</g>
		<g>
			<rect x="369.066" y="751.852" fill="#ADCDD9" width="7.964" height="7.1"/>
			<rect x="380.921" y="751.852" fill="#ADCDD9" width="7.966" height="7.1"/>
		</g>
		<g>
			<rect x="369.066" y="761.821" fill="#ADCDD9" width="7.964" height="7.1"/>
			<rect x="380.921" y="761.821" fill="#ADCDD9" width="7.966" height="7.1"/>
		</g>
		<rect x="363.507" y="771.537" fill="#576A8A" width="30.938" height="5.251"/>
		<polygon fill="#445772" points="387.451,782.038 370.499,782.038 366.483,776.788 391.469,776.788 		"/>
	</g>
	<g>
		<rect x="299.93" y="598.885" fill="#5C5C60" width="24.986" height="32.37"/>
		<g>
			<rect x="302.513" y="601.6" fill="#ADCDD9" width="7.965" height="7.1"/>
			<rect x="314.368" y="601.6" fill="#ADCDD9" width="7.965" height="7.1"/>
		</g>
		<g>
			<rect x="302.513" y="611.568" fill="#ADCDD9" width="7.965" height="7.099"/>
			<rect x="314.368" y="611.568" fill="#ADCDD9" width="7.965" height="7.099"/>
		</g>
		<g>
			<rect x="302.513" y="621.536" fill="#ADCDD9" width="7.965" height="7.1"/>
			<rect x="314.368" y="621.536" fill="#ADCDD9" width="7.965" height="7.1"/>
		</g>
		<rect x="296.954" y="631.255" fill="#576A8A" width="30.938" height="5.25"/>
		<polygon fill="#445772" points="320.9,641.756 303.949,641.756 299.93,636.505 324.916,636.505 		"/>
	</g>
	<g>
		<rect x="366.483" y="598.652" fill="#5C5C60" width="24.986" height="32.369"/>
		<g>
			<rect x="369.066" y="601.366" fill="#ADCDD9" width="7.964" height="7.1"/>
			<rect x="380.921" y="601.366" fill="#ADCDD9" width="7.966" height="7.1"/>
		</g>
		<g>
			<rect x="369.066" y="611.336" fill="#ADCDD9" width="7.964" height="7.099"/>
			<rect x="380.921" y="611.336" fill="#ADCDD9" width="7.966" height="7.099"/>
		</g>
		<g>
			<rect x="369.066" y="621.305" fill="#ADCDD9" width="7.964" height="7.1"/>
			<rect x="380.921" y="621.305" fill="#ADCDD9" width="7.966" height="7.1"/>
		</g>
		<rect x="363.507" y="631.021" fill="#576A8A" width="30.938" height="5.252"/>
		<polygon fill="#445772" points="387.451,641.523 370.499,641.523 366.483,636.273 391.469,636.273 		"/>
	</g>
	<g>
		<g>
			<rect x="332.173" y="791.761" fill="#445772" width="27.053" height="55.524"/>
			<path fill="#454343" d="M360.072,848.098h-28.743v-57.148h28.742L360.072,848.098L360.072,848.098z M333.02,846.472h25.36
				v-53.896h-25.36V846.472z"/>
		</g>
		<g>
			<path fill="#576A8A" d="M356.434,843.753h-21.257v-15.164h21.257V843.753z M335.934,843.025h19.744v-13.71h-19.744V843.025z"/>
		</g>
		<g>
			<path fill="#576A8A" d="M356.056,827.63h-20.5v-31.72h20.5V827.63z M336.402,826.816h18.81v-30.095h-18.81V826.816z"/>
		</g>
	</g>
	<rect x="318.99" y="847.85" fill="#ADAFB8" width="53.422" height="4.727"/>
	<path fill="#EC6562" d="M299.315,745.049"/>
</g>
<path display="none" fill="#FFFFFF" d="M1089.045,245.011c-6.354,0-12.112,2.468-16.317,6.466c0.024-0.484,0.041-0.973,0.041-1.464
	c0-17.558-15.815-31.792-35.322-31.792c-13.817,0-25.772,7.145-31.578,17.547c-6.091-3.919-14.063-6.3-22.793-6.3
	c-19.12,0-34.618,11.387-34.618,25.434c0,0.439,0.017,0.876,0.047,1.312c-12.727,5.067-21.239,14.29-21.239,24.83
	c0,15.997,19.612,28.965,43.803,28.965c9.658,0,13.252-4.787,20.492-8.289c4.456,3.481,15.879,8.346,22.602,8.346
	c6.208,0,11.877-1.834,16.221-4.855c5.793,6.311,15.51,10.451,26.523,10.451c17.752,0,32.144-10.754,32.144-24.02
	c0-0.476-0.023-0.946-0.062-1.415c0.021,0,0.04,0.002,0.062,0.002c12.874,0,23.314-10.122,23.314-22.606
	C1112.363,255.136,1101.918,245.011,1089.045,245.011z"/>
<path display="none" fill="#FFFFFF" d="M172.044,256.011c-6.354,0-12.111,2.468-16.316,6.466c0.023-0.484,0.041-0.973,0.041-1.464
	c0-17.558-15.816-31.792-35.323-31.792c-13.817,0-25.773,7.145-31.578,17.547c-6.091-3.919-14.062-6.3-22.793-6.3
	c-19.12,0-34.618,11.387-34.618,25.434c0,0.439,0.017,0.876,0.046,1.312c-12.726,5.067-21.238,14.29-21.238,24.83
	c0,15.996,19.611,28.965,43.803,28.965c9.658,0,13.251-4.787,20.492-8.289c4.456,3.481,15.879,8.346,22.601,8.346
	c6.208,0,11.877-1.834,16.22-4.855c5.793,6.311,15.511,10.451,26.524,10.451c17.752,0,32.143-10.754,32.143-24.021
	c0-0.477-0.023-0.945-0.061-1.415c0.021,0,0.04,0.002,0.061,0.002c12.874,0,23.315-10.122,23.315-22.605
	C195.361,266.137,184.918,256.011,172.044,256.011z"/>
<path display="none" fill="#FFFFFF" d="M659.045,103.011c-6.354,0-12.112,2.468-16.317,6.466c0.024-0.484,0.041-0.973,0.041-1.464
	c0-17.558-15.815-31.792-35.322-31.792c-13.816,0-25.772,7.144-31.578,17.547c-6.091-3.919-14.063-6.3-22.793-6.3
	c-19.12,0-34.618,11.387-34.618,25.434c0,0.439,0.017,0.876,0.047,1.312c-12.727,5.067-21.239,14.29-21.239,24.83
	c0,15.997,19.612,28.965,43.804,28.965c9.657,0,13.251-4.787,20.491-8.289c4.456,3.482,15.879,8.345,22.602,8.345
	c6.208,0,11.877-1.834,16.221-4.855c5.793,6.311,15.51,10.452,26.523,10.452c17.752,0,32.144-10.755,32.144-24.021
	c0-0.476-0.023-0.946-0.062-1.415c0.021,0,0.04,0.002,0.062,0.002c12.874,0,23.314-10.122,23.314-22.606
	C682.361,113.135,671.919,103.011,659.045,103.011z"/>
<g display="none">
	<g display="inline">
		<rect x="-3" y="862" fill="#808285" width="1209" height="39"/>
		<g>
			<path fill="#FFFFFF" d="M1187,884h-47v-5h47V884z M1093,884h-46v-5h46V884z M997,884h-45v-5h45V884z M905,884h-45v-5h45V884z
				 M810,884h-46v-5h46V884z M718,884h-49v-5h49V884z M624,884h-49v-5h49V884z M529,884h-48v-5h48V884z M435,884h-46v-5h46V884z
				 M341,884h-47v-5h47V884z M249,884h-47v-5h47V884z M153,884h-47v-5h47V884z M61,884H14v-5h47V884z"/>
		</g>
	</g>
	<rect x="-4" y="852.059" display="inline" fill="#BCBEC0" width="1208.076" height="10.023"/>
	<rect x="-4" y="852.059" display="inline" fill="#D5DEDE" width="1208.076" height="2.55"/>
</g>
</svg>
