<?xml version="1.0" encoding="utf-8"?>
<!-- Generator: Adobe Illustrator 16.0.0, SVG Export Plug-In . SVG Version: 6.00 Build 0)  -->
<!DOCTYPE svg PUBLIC "-//W3C//DTD SVG 1.1//EN" "http://www.w3.org/Graphics/SVG/1.1/DTD/svg11.dtd">
<svg version="1.1" id="Layer_1" xmlns="http://www.w3.org/2000/svg" xmlns:xlink="http://www.w3.org/1999/xlink" x="0px" y="0px"
	 width="1920px" height="1080px" viewBox="-479.75 63.75 1920 1080" enable-background="new -479.75 63.75 1920 1080"
	 xml:space="preserve">
<rect x="-0.5" y="-1.5" display="none" fill="#8CC9DB" stroke="#000000" stroke-miterlimit="10" width="1200" height="904"/>
<g>
	<rect x="46.893" y="413.945" fill="#D1D3D4" width="171.668" height="397.162"/>
	<rect x="180.549" y="725.101" fill="#939598" width="19.393" height="86.006"/>
	<rect x="68.072" y="725.101" fill="#939598" width="19.393" height="86.006"/>
	<rect x="180.549" y="412.89" fill="#939598" width="19.393" height="283.227"/>
	<rect x="68.072" y="413.945" fill="#939598" width="19.393" height="283.225"/>
	<polygon fill="#808285" points="218.736,727.306 46.722,727.306 37.211,715.727 228.246,715.727 	"/>
	<polygon fill="#808285" points="218.736,688.777 46.722,688.777 37.212,677.197 228.246,677.197 	"/>
	<polygon fill="#808285" points="218.736,648.213 46.722,648.213 37.213,636.636 228.246,636.636 	"/>
	<polygon fill="#808285" points="218.736,607.655 46.723,607.655 37.213,596.076 228.246,596.076 	"/>
	<polygon fill="#808285" points="218.736,567.09 46.723,567.09 37.214,555.511 228.246,555.511 	"/>
	<polygon fill="#808285" points="218.736,527.544 46.725,527.544 37.215,515.965 228.246,515.965 	"/>
	<polygon fill="#808285" points="218.736,486.984 46.725,486.984 37.215,475.406 228.246,475.406 	"/>
	<polygon fill="#808285" points="218.736,446.422 46.726,446.422 37.217,434.843 228.246,434.843 	"/>
	<polygon fill="#BCBEC0" points="233.121,717.932 33.571,717.932 29.917,715.09 29.917,698.036 32.94,695.036 233.121,695.036 
		235.483,698.169 235.483,715.09 	"/>
	<polygon fill="#BCBEC0" points="233.121,677.626 33.571,677.626 29.917,674.785 29.917,657.728 32.94,654.728 233.121,654.728 
		235.483,657.863 235.483,674.785 	"/>
	<polygon fill="#BCBEC0" points="233.121,637.322 33.571,637.322 29.917,634.478 29.917,617.421 32.94,614.422 233.121,614.422 
		235.483,617.557 235.483,634.478 	"/>
	<polygon fill="#BCBEC0" points="233.121,597.012 33.571,597.012 29.917,594.173 29.917,577.115 32.94,574.115 233.121,574.115 
		235.483,577.251 235.483,594.173 	"/>
	<polygon fill="#BCBEC0" points="233.121,556.71 33.571,556.71 29.917,553.867 29.917,536.809 32.94,533.809 233.121,533.809 
		235.483,536.944 235.483,553.867 	"/>
	<polygon fill="#BCBEC0" points="233.121,516.403 33.571,516.403 29.917,513.559 29.917,496.502 32.94,493.502 233.121,493.502 
		235.483,496.636 235.483,513.559 	"/>
	<polygon fill="#BCBEC0" points="233.121,476.095 33.571,476.095 29.917,473.252 29.917,456.197 32.94,453.197 233.121,453.197 
		235.483,456.331 235.483,473.252 	"/>
	<polygon fill="#BCBEC0" points="233.121,435.789 33.571,435.789 29.917,432.948 29.917,415.89 32.94,412.89 233.121,412.89 
		235.483,416.025 235.483,432.948 	"/>
	<rect x="109.977" y="752.841" fill="#4BB5AB" width="45.501" height="58.266"/>
</g>
<g>
	<path fill="#FAFBFC" d="M498.598,440.413v371.693h16.792h35.179h16.688h35.18h16.687h35.182h17.042V440.413H498.598z
		 M550.568,761.719h-35.18v-48.386h35.18V761.719z M550.568,698.037h-35.18v-48.384h35.18V698.037z M550.568,634.353h-35.18v-48.38
		h35.18V634.353z M550.568,570.67h-35.18v-48.383h35.18V570.67z M550.568,506.99h-35.18v-48.382h35.18V506.99z M602.435,761.719
		h-35.179v-48.386h35.179V761.719z M602.435,698.037h-35.179v-48.384h35.179V698.037z M602.435,634.353h-35.179v-48.38h35.179
		V634.353z M602.435,570.67h-35.179v-48.383h35.179V570.67z M602.435,506.99h-35.179v-48.382h35.179V506.99z M654.302,761.719
		H619.12v-48.386h35.182V761.719L654.302,761.719z M654.302,698.037H619.12v-48.384h35.182V698.037L654.302,698.037z
		 M654.302,634.353H619.12v-48.38h35.182V634.353L654.302,634.353z M654.302,570.67H619.12v-48.383h35.182V570.67L654.302,570.67z
		 M654.302,506.99H619.12v-48.382h35.182V506.99L654.302,506.99z"/>
	<polygon fill="#805B24" points="671.862,445.405 683.693,421.993 484.508,422.161 497.361,445.405 506.832,445.405 
		659.964,445.405 	"/>
	<path fill="#6D4D42" d="M515.39,506.99h35.18v-48.382h-35.18V506.99z M521.251,466.672h23.456v32.254h-23.456V466.672z"/>
	<rect x="521.251" y="466.672" fill="#EBF7F8" width="23.456" height="32.254"/>
	<path fill="#6D4D42" d="M567.257,506.99h35.179v-48.382h-35.179V506.99z M573.121,466.672h23.449v32.254h-23.449V466.672z"/>
	<rect x="573.121" y="466.672" fill="#EBF7F8" width="23.449" height="32.254"/>
	<path fill="#6D4D42" d="M619.12,506.99h35.182v-48.382H619.12V506.99z M624.985,466.672h23.452v32.254h-23.452V466.672z"/>
	<rect x="624.985" y="466.672" fill="#EBF7F8" width="23.452" height="32.254"/>
	<path fill="#6D4D42" d="M515.39,570.67h35.18v-48.383h-35.18V570.67z M521.251,530.354h23.456v32.255h-23.456V530.354z"/>
	<rect x="521.251" y="530.354" fill="#EBF7F8" width="23.456" height="32.255"/>
	<path fill="#6D4D42" d="M567.257,570.67h35.179v-48.383h-35.179V570.67z M573.121,530.354h23.449v32.255h-23.449V530.354z"/>
	<rect x="573.121" y="530.354" fill="#EBF7F8" width="23.449" height="32.255"/>
	<path fill="#6D4D42" d="M619.12,570.67h35.182v-48.383H619.12V570.67z M624.985,530.354h23.452v32.255h-23.452V530.354z"/>
	<rect x="624.985" y="530.354" fill="#EBF7F8" width="23.452" height="32.255"/>
	<path fill="#6D4D42" d="M515.39,634.353h35.18v-48.38h-35.18V634.353z M521.251,594.037h23.456v32.253h-23.456V594.037z"/>
	<rect x="521.251" y="594.037" fill="#EBF7F8" width="23.456" height="32.253"/>
	<path fill="#6D4D42" d="M567.257,634.353h35.179v-48.38h-35.179V634.353z M573.121,594.037h23.449v32.253h-23.449V594.037z"/>
	<rect x="573.121" y="594.037" fill="#EBF7F8" width="23.449" height="32.253"/>
	<path fill="#6D4D42" d="M619.12,634.353h35.182v-48.38H619.12V634.353z M624.985,594.037h23.452v32.253h-23.452V594.037z"/>
	<rect x="624.985" y="594.037" fill="#EBF7F8" width="23.452" height="32.253"/>
	<path fill="#6D4D42" d="M515.39,698.037h35.18v-48.384h-35.18V698.037z M521.251,657.718h23.456v32.253h-23.456V657.718z"/>
	<rect x="521.251" y="657.718" fill="#EBF7F8" width="23.456" height="32.253"/>
	<path fill="#6D4D42" d="M567.257,698.037h35.179v-48.384h-35.179V698.037z M573.121,657.718h23.449v32.253h-23.449V657.718z"/>
	<rect x="573.121" y="657.718" fill="#EBF7F8" width="23.449" height="32.253"/>
	<path fill="#6D4D42" d="M619.12,698.037h35.182v-48.384H619.12V698.037z M624.985,657.718h23.452v32.253h-23.452V657.718z"/>
	<rect x="624.985" y="657.718" fill="#EBF7F8" width="23.452" height="32.253"/>
	<path fill="#6D4D42" d="M515.39,761.719h35.18v-48.386h-35.18V761.719z M521.251,721.402h23.456v32.255h-23.456V721.402z"/>
	<rect x="521.251" y="721.402" fill="#EBF7F8" width="23.456" height="32.255"/>
	<path fill="#6D4D42" d="M567.257,761.719h35.179v-48.386h-35.179V761.719z M573.121,721.402h23.449v32.255h-23.449V721.402z"/>
	<rect x="573.121" y="721.402" fill="#EBF7F8" width="23.449" height="32.255"/>
	<path fill="#6D4D42" d="M619.12,761.719h35.182v-48.386H619.12V761.719z M624.985,721.402h23.452v32.255h-23.452V721.402z"/>
	<rect x="624.985" y="721.402" fill="#EBF7F8" width="23.452" height="32.255"/>
</g>
<g>
	<g>
		<rect x="941.553" y="359.314" fill="#74665F" width="35.77" height="23.154"/>
		<rect x="941.553" y="420.155" fill="#74665F" width="35.77" height="23.155"/>
		<rect x="941.553" y="480.998" fill="#74665F" width="35.77" height="23.155"/>
		<rect x="941.553" y="541.84" fill="#74665F" width="35.77" height="23.154"/>
		<rect x="941.553" y="602.681" fill="#74665F" width="35.77" height="23.156"/>
		<rect x="941.553" y="663.526" fill="#74665F" width="35.77" height="23.153"/>
		<rect x="941.553" y="724.365" fill="#74665F" width="35.77" height="23.161"/>
	</g>
	<rect x="967.152" y="359.314" fill="#94847C" width="160.297" height="455.793"/>
	<g>
		<rect x="1057.259" y="382.468" fill="#AB8E80" width="33.271" height="33.178"/>
		<rect x="1057.259" y="427.803" fill="#AB8E80" width="33.271" height="33.183"/>
		<rect x="1057.259" y="473.142" fill="#AB8E80" width="33.271" height="33.184"/>
		<rect x="1057.259" y="518.482" fill="#AB8E80" width="33.271" height="33.183"/>
		<rect x="1057.259" y="563.821" fill="#AB8E80" width="33.271" height="33.179"/>
		<rect x="1057.259" y="609.159" fill="#AB8E80" width="33.271" height="33.178"/>
		<rect x="1057.259" y="654.494" fill="#AB8E80" width="33.271" height="33.183"/>
		<rect x="1057.259" y="699.835" fill="#AB8E80" width="33.271" height="33.181"/>
		<rect x="1057.259" y="745.17" fill="#AB8E80" width="33.271" height="33.185"/>
	</g>
	<g>
		<rect x="991.87" y="382.468" fill="#FFF3E7" width="38.134" height="19.016"/>
		<rect x="987.777" y="401.484" fill="#74665F" width="46.317" height="4.526"/>
	</g>
	<g>
		<rect x="991.87" y="427.803" fill="#FFF3E7" width="38.134" height="19.017"/>
		<rect x="987.777" y="446.82" fill="#74665F" width="46.317" height="4.53"/>
	</g>
	<g>
		<rect x="991.87" y="473.142" fill="#FFF3E7" width="38.134" height="19.016"/>
		<rect x="987.777" y="492.157" fill="#74665F" width="46.317" height="4.531"/>
	</g>
	<g>
		<rect x="991.87" y="518.482" fill="#FFF3E7" width="38.134" height="19.015"/>
		<rect x="987.777" y="537.496" fill="#74665F" width="46.317" height="4.529"/>
	</g>
	<g>
		<rect x="991.87" y="563.821" fill="#FFF3E7" width="38.134" height="19.014"/>
		<rect x="987.777" y="582.835" fill="#74665F" width="46.317" height="4.528"/>
	</g>
	<g>
		<rect x="991.87" y="609.159" fill="#FFF3E7" width="38.134" height="19.017"/>
		<rect x="987.777" y="628.174" fill="#74665F" width="46.317" height="4.527"/>
	</g>
	<g>
		<rect x="991.87" y="654.494" fill="#FFF3E7" width="38.134" height="19.017"/>
		<rect x="987.777" y="673.509" fill="#74665F" width="46.317" height="4.529"/>
	</g>
	<g>
		<rect x="991.87" y="699.835" fill="#FFF3E7" width="38.134" height="19.014"/>
		<rect x="987.777" y="718.847" fill="#74665F" width="46.317" height="4.533"/>
	</g>
	<g>
		<rect x="991.87" y="745.17" fill="#FFF3E7" width="38.134" height="19.016"/>
		<rect x="987.777" y="764.186" fill="#74665F" width="46.317" height="4.528"/>
	</g>
</g>
<g>
	<rect x="-213.625" y="395.694" fill="#E1E1E0" width="192.249" height="415.728"/>
	<rect x="-146.581" y="352.5" fill="#BEBDBD" width="58.159" height="458.921"/>
	<rect x="-197.964" y="412.242" fill="#FEC111" width="38.945" height="40.311"/>
	<rect x="-197.964" y="463.749" fill="#FEC111" width="38.945" height="40.31"/>
	<rect x="-197.964" y="515.258" fill="#FEC111" width="38.945" height="40.307"/>
	<rect x="-197.964" y="566.764" fill="#FEC111" width="38.945" height="40.311"/>
	<rect x="-197.964" y="618.272" fill="#FEC111" width="38.945" height="40.308"/>
	<rect x="-197.964" y="669.778" fill="#FEC111" width="38.945" height="40.31"/>
	<rect x="-197.964" y="721.284" fill="#FEC111" width="38.945" height="40.309"/>
	<rect x="-73.337" y="412.242" fill="#FEC111" width="38.946" height="40.312"/>
	<rect x="-73.337" y="463.75" fill="#FEC111" width="38.946" height="40.309"/>
	<rect x="-73.337" y="515.258" fill="#FEC111" width="38.946" height="40.307"/>
	<rect x="-73.337" y="566.764" fill="#FEC111" width="38.946" height="40.311"/>
	<rect x="-73.337" y="618.272" fill="#FEC111" width="38.946" height="40.308"/>
	<rect x="-73.337" y="669.778" fill="#FEC111" width="38.946" height="40.31"/>
	<rect x="-73.337" y="721.284" fill="#FEC111" width="38.946" height="40.309"/>
</g>
<g>
	<rect x="735.551" y="546.703" fill="#E1E1E0" width="151.502" height="262.555"/>
	<rect x="729.764" y="534.591" fill="#FAFBFC" width="163.073" height="12.11"/>
	<g>
		<g>
			<rect x="748.629" y="559.347" fill="#80CBC4" width="31.625" height="45.961"/>
		</g>
	</g>
	<g>
		<g>
			<rect x="795.923" y="559.347" fill="#80CBC4" width="31.627" height="45.961"/>
		</g>
	</g>
	<g>
		<g>
			<rect x="843.217" y="559.347" fill="#80CBC4" width="31.623" height="45.961"/>
		</g>
	</g>
	<g>
		<g>
			<rect x="748.629" y="616.126" fill="#80CBC4" width="31.625" height="45.962"/>
		</g>
	</g>
	<g>
		<g>
			<rect x="795.923" y="616.126" fill="#80CBC4" width="31.627" height="45.962"/>
		</g>
	</g>
	<g>
		<g>
			<rect x="843.217" y="616.126" fill="#80CBC4" width="31.623" height="45.962"/>
		</g>
	</g>
	<g>
		<g>
			<rect x="748.629" y="672.904" fill="#80CBC4" width="31.625" height="45.961"/>
		</g>
	</g>
	<g>
		<g>
			<rect x="795.923" y="672.904" fill="#80CBC4" width="31.627" height="45.961"/>
		</g>
	</g>
	<g>
		<g>
			<rect x="843.217" y="672.904" fill="#80CBC4" width="31.623" height="45.961"/>
		</g>
	</g>
	<g>
		<rect x="779.414" y="741.563" fill="#80CBC4" width="30.832" height="67.693"/>
		<g>
			<rect x="812.36" y="741.563" fill="#80CBC4" width="30.828" height="67.693"/>
		</g>
		<rect x="810.246" y="741.563" fill="#4BB5AB" width="2.114" height="67.693"/>
	</g>
	<rect x="774.187" y="736.044" fill="#FAFBFC" width="74.229" height="5.521"/>
</g>
<g>
	<rect x="291.066" y="405.947" fill="#F58E89" width="127.663" height="403.652"/>
	<rect x="282.815" y="383.107" fill="#3D4A3D" width="144.17" height="14.281"/>
	<rect x="287.719" y="397.263" fill="#EC6562" width="134.359" height="8.926"/>
	<rect x="287.719" y="611.624" fill="#EC6562" width="134.359" height="8.927"/>
	<rect x="287.719" y="538.691" fill="#EC6562" width="134.36" height="8.925"/>
	<rect x="287.719" y="465.756" fill="#EC6562" width="134.36" height="8.926"/>
	<rect x="287.719" y="684.557" fill="#EC6562" width="134.359" height="8.927"/>
	<g>
		<rect x="309.13" y="485.848" fill="#5C5C60" width="24.986" height="32.37"/>
		<g>
			<rect x="311.713" y="488.564" fill="#ADCDD9" width="7.965" height="7.099"/>
			<rect x="323.568" y="488.564" fill="#ADCDD9" width="7.965" height="7.099"/>
		</g>
		<g>
			<rect x="311.713" y="498.532" fill="#ADCDD9" width="7.965" height="7.1"/>
			<rect x="323.568" y="498.532" fill="#ADCDD9" width="7.965" height="7.1"/>
		</g>
		<g>
			<rect x="311.713" y="508.502" fill="#ADCDD9" width="7.965" height="7.098"/>
			<rect x="323.568" y="508.502" fill="#ADCDD9" width="7.965" height="7.098"/>
		</g>
		<rect x="306.154" y="518.218" fill="#576A8A" width="30.938" height="5.25"/>
		<polygon fill="#445772" points="330.099,528.719 313.149,528.719 309.13,523.468 334.116,523.468 		"/>
	</g>
	<g>
		<rect x="375.682" y="485.501" fill="#5C5C60" width="24.986" height="32.37"/>
		<g>
			<rect x="378.265" y="488.215" fill="#ADCDD9" width="7.964" height="7.099"/>
			<rect x="390.121" y="488.215" fill="#ADCDD9" width="7.966" height="7.099"/>
		</g>
		<g>
			<rect x="378.265" y="498.184" fill="#ADCDD9" width="7.964" height="7.099"/>
			<rect x="390.121" y="498.184" fill="#ADCDD9" width="7.966" height="7.099"/>
		</g>
		<g>
			<rect x="378.265" y="508.154" fill="#ADCDD9" width="7.964" height="7.098"/>
			<rect x="390.121" y="508.154" fill="#ADCDD9" width="7.966" height="7.098"/>
		</g>
		<rect x="372.707" y="517.871" fill="#576A8A" width="30.938" height="5.249"/>
		<polygon fill="#445772" points="396.651,528.372 379.699,528.372 375.682,523.12 400.669,523.12 		"/>
	</g>
	<g>
		<rect x="309.13" y="415.269" fill="#5C5C60" width="24.986" height="32.37"/>
		<g>
			<rect x="311.713" y="417.986" fill="#ADCDD9" width="7.965" height="7.098"/>
			<rect x="323.568" y="417.986" fill="#ADCDD9" width="7.965" height="7.098"/>
		</g>
		<g>
			<rect x="311.713" y="427.954" fill="#ADCDD9" width="7.965" height="7.098"/>
			<rect x="323.568" y="427.954" fill="#ADCDD9" width="7.965" height="7.098"/>
		</g>
		<g>
			<rect x="311.713" y="437.922" fill="#ADCDD9" width="7.965" height="7.098"/>
			<rect x="323.568" y="437.922" fill="#ADCDD9" width="7.965" height="7.098"/>
		</g>
		<rect x="306.154" y="447.639" fill="#576A8A" width="30.938" height="5.25"/>
		<polygon fill="#445772" points="330.099,458.14 313.149,458.14 309.13,452.889 334.116,452.889 		"/>
	</g>
	<g>
		<rect x="375.683" y="415.269" fill="#5C5C60" width="24.985" height="32.37"/>
		<g>
			<rect x="378.265" y="417.986" fill="#ADCDD9" width="7.966" height="7.098"/>
			<rect x="390.122" y="417.986" fill="#ADCDD9" width="7.966" height="7.098"/>
		</g>
		<g>
			<rect x="378.265" y="427.954" fill="#ADCDD9" width="7.966" height="7.098"/>
			<rect x="390.122" y="427.954" fill="#ADCDD9" width="7.966" height="7.098"/>
		</g>
		<g>
			<rect x="378.265" y="437.922" fill="#ADCDD9" width="7.966" height="7.098"/>
			<rect x="390.122" y="437.922" fill="#ADCDD9" width="7.966" height="7.098"/>
		</g>
		<rect x="372.707" y="447.639" fill="#576A8A" width="30.938" height="5.25"/>
		<polygon fill="#445772" points="396.651,458.14 379.7,458.14 375.683,452.889 400.669,452.889 		"/>
	</g>
	<g>
		<rect x="309.13" y="626.132" fill="#5C5C60" width="24.986" height="32.37"/>
		<g>
			<rect x="311.713" y="628.847" fill="#ADCDD9" width="7.965" height="7.1"/>
			<rect x="323.568" y="628.847" fill="#ADCDD9" width="7.965" height="7.1"/>
		</g>
		<g>
			<rect x="311.713" y="638.817" fill="#ADCDD9" width="7.965" height="7.099"/>
			<rect x="323.568" y="638.817" fill="#ADCDD9" width="7.965" height="7.099"/>
		</g>
		<g>
			<rect x="311.713" y="648.786" fill="#ADCDD9" width="7.965" height="7.099"/>
			<rect x="323.568" y="648.786" fill="#ADCDD9" width="7.965" height="7.099"/>
		</g>
		<rect x="306.154" y="658.502" fill="#576A8A" width="30.938" height="5.25"/>
		<polygon fill="#445772" points="330.099,669.002 313.149,669.002 309.13,663.752 334.116,663.752 		"/>
	</g>
	<g>
		<rect x="375.682" y="626.017" fill="#5C5C60" width="24.986" height="32.369"/>
		<g>
			<rect x="378.265" y="628.732" fill="#ADCDD9" width="7.964" height="7.099"/>
			<rect x="390.121" y="628.732" fill="#ADCDD9" width="7.966" height="7.099"/>
		</g>
		<g>
			<rect x="378.265" y="638.7" fill="#ADCDD9" width="7.964" height="7.1"/>
			<rect x="390.121" y="638.7" fill="#ADCDD9" width="7.966" height="7.1"/>
		</g>
		<g>
			<rect x="378.265" y="648.669" fill="#ADCDD9" width="7.964" height="7.1"/>
			<rect x="390.121" y="648.669" fill="#ADCDD9" width="7.966" height="7.1"/>
		</g>
		<rect x="372.707" y="658.386" fill="#576A8A" width="30.938" height="5.251"/>
		<polygon fill="#445772" points="396.651,668.887 379.699,668.887 375.682,663.637 400.669,663.637 		"/>
	</g>
	<g>
		<rect x="309.13" y="696.275" fill="#5C5C60" width="24.986" height="32.369"/>
		<g>
			<rect x="311.713" y="698.99" fill="#ADCDD9" width="7.965" height="7.099"/>
			<rect x="323.568" y="698.99" fill="#ADCDD9" width="7.965" height="7.099"/>
		</g>
		<g>
			<rect x="311.713" y="708.958" fill="#ADCDD9" width="7.965" height="7.1"/>
			<rect x="323.568" y="708.958" fill="#ADCDD9" width="7.965" height="7.1"/>
		</g>
		<g>
			<rect x="311.713" y="718.927" fill="#ADCDD9" width="7.965" height="7.1"/>
			<rect x="323.568" y="718.927" fill="#ADCDD9" width="7.965" height="7.1"/>
		</g>
		<rect x="306.154" y="728.644" fill="#576A8A" width="30.938" height="5.251"/>
		<polygon fill="#445772" points="330.099,739.145 313.149,739.145 309.13,733.895 334.116,733.895 		"/>
	</g>
	<g>
		<rect x="375.682" y="696.275" fill="#5C5C60" width="24.986" height="32.369"/>
		<g>
			<rect x="378.265" y="698.99" fill="#ADCDD9" width="7.964" height="7.099"/>
			<rect x="390.121" y="698.99" fill="#ADCDD9" width="7.966" height="7.099"/>
		</g>
		<g>
			<rect x="378.265" y="708.958" fill="#ADCDD9" width="7.964" height="7.1"/>
			<rect x="390.121" y="708.958" fill="#ADCDD9" width="7.966" height="7.1"/>
		</g>
		<g>
			<rect x="378.265" y="718.927" fill="#ADCDD9" width="7.964" height="7.1"/>
			<rect x="390.121" y="718.927" fill="#ADCDD9" width="7.966" height="7.1"/>
		</g>
		<rect x="372.707" y="728.644" fill="#576A8A" width="30.938" height="5.251"/>
		<polygon fill="#445772" points="396.651,739.145 379.699,739.145 375.682,733.895 400.669,733.895 		"/>
	</g>
	<g>
		<rect x="309.13" y="555.991" fill="#5C5C60" width="24.986" height="32.37"/>
		<g>
			<rect x="311.713" y="558.706" fill="#ADCDD9" width="7.965" height="7.1"/>
			<rect x="323.568" y="558.706" fill="#ADCDD9" width="7.965" height="7.1"/>
		</g>
		<g>
			<rect x="311.713" y="568.674" fill="#ADCDD9" width="7.965" height="7.099"/>
			<rect x="323.568" y="568.674" fill="#ADCDD9" width="7.965" height="7.099"/>
		</g>
		<g>
			<rect x="311.713" y="578.643" fill="#ADCDD9" width="7.965" height="7.1"/>
			<rect x="323.568" y="578.643" fill="#ADCDD9" width="7.965" height="7.1"/>
		</g>
		<rect x="306.154" y="588.362" fill="#576A8A" width="30.938" height="5.25"/>
		<polygon fill="#445772" points="330.099,598.863 313.149,598.863 309.13,593.612 334.116,593.612 		"/>
	</g>
	<g>
		<rect x="375.682" y="555.758" fill="#5C5C60" width="24.986" height="32.369"/>
		<g>
			<rect x="378.265" y="558.473" fill="#ADCDD9" width="7.964" height="7.1"/>
			<rect x="390.121" y="558.473" fill="#ADCDD9" width="7.966" height="7.1"/>
		</g>
		<g>
			<rect x="378.265" y="568.443" fill="#ADCDD9" width="7.964" height="7.099"/>
			<rect x="390.121" y="568.443" fill="#ADCDD9" width="7.966" height="7.099"/>
		</g>
		<g>
			<rect x="378.265" y="578.411" fill="#ADCDD9" width="7.964" height="7.1"/>
			<rect x="390.121" y="578.411" fill="#ADCDD9" width="7.966" height="7.1"/>
		</g>
		<rect x="372.707" y="588.127" fill="#576A8A" width="30.938" height="5.252"/>
		<polygon fill="#445772" points="396.651,598.629 379.699,598.629 375.682,593.379 400.669,593.379 		"/>
	</g>
	<g>
		<g>
			<rect x="341.373" y="748.867" fill="#445772" width="27.053" height="55.524"/>
			<path fill="#454343" d="M369.271,805.204h-28.743v-57.148h28.742L369.271,805.204L369.271,805.204z M342.219,803.578h25.36
				v-53.896h-25.36V803.578z"/>
		</g>
		<g>
			<path fill="#576A8A" d="M365.634,800.86h-21.257v-15.164h21.257V800.86z M345.134,800.131h19.744v-13.71h-19.744V800.131z"/>
		</g>
		<g>
			<path fill="#576A8A" d="M365.256,784.737h-20.5v-31.72h20.5V784.737z M345.601,783.922h18.81v-30.095h-18.81V783.922z"/>
		</g>
	</g>
	<rect x="328.19" y="804.956" fill="#ADAFB8" width="53.422" height="4.727"/>
	<path fill="#EC6562" d="M308.514,702.156"/>
</g>
<path fill="#FFFFFF" d="M1089.045,245.011c-6.354,0-12.112,2.468-16.317,6.466c0.024-0.484,0.041-0.973,0.041-1.464
	c0-17.558-15.815-31.792-35.322-31.792c-13.817,0-25.772,7.145-31.578,17.547c-6.091-3.919-14.063-6.3-22.793-6.3
	c-19.12,0-34.618,11.387-34.618,25.434c0,0.439,0.017,0.876,0.047,1.312c-12.727,5.067-21.239,14.29-21.239,24.83
	c0,15.997,19.612,28.965,43.803,28.965c9.658,0,13.252-4.787,20.492-8.289c4.456,3.481,15.879,8.346,22.602,8.346
	c6.208,0,11.877-1.834,16.221-4.855c5.793,6.311,15.51,10.451,26.523,10.451c17.752,0,32.144-10.754,32.144-24.02
	c0-0.476-0.023-0.946-0.062-1.415c0.021,0,0.04,0.002,0.062,0.002c12.874,0,23.314-10.122,23.314-22.606
	C1112.363,255.136,1101.918,245.011,1089.045,245.011z"/>
<path fill="#FFFFFF" d="M172.044,256.011c-6.354,0-12.111,2.468-16.316,6.466c0.023-0.484,0.041-0.973,0.041-1.464
	c0-17.558-15.816-31.792-35.323-31.792c-13.817,0-25.773,7.145-31.578,17.547c-6.091-3.919-14.062-6.3-22.793-6.3
	c-19.12,0-34.618,11.387-34.618,25.434c0,0.439,0.017,0.876,0.046,1.312c-12.726,5.067-21.238,14.29-21.238,24.83
	c0,15.996,19.611,28.965,43.803,28.965c9.658,0,13.251-4.787,20.492-8.289c4.456,3.481,15.879,8.346,22.601,8.346
	c6.208,0,11.877-1.834,16.22-4.855c5.793,6.311,15.511,10.451,26.524,10.451c17.752,0,32.143-10.754,32.143-24.021
	c0-0.477-0.023-0.945-0.061-1.415c0.021,0,0.04,0.002,0.061,0.002c12.874,0,23.315-10.122,23.315-22.605
	C195.361,266.137,184.918,256.011,172.044,256.011z"/>
<path fill="#FFFFFF" d="M659.045,103.011c-6.354,0-12.112,2.468-16.317,6.466c0.024-0.484,0.041-0.973,0.041-1.464
	c0-17.558-15.815-31.792-35.322-31.792c-13.816,0-25.772,7.144-31.578,17.547c-6.091-3.919-14.063-6.3-22.793-6.3
	c-19.12,0-34.618,11.387-34.618,25.434c0,0.439,0.017,0.876,0.047,1.312c-12.727,5.067-21.239,14.29-21.239,24.83
	c0,15.997,19.612,28.965,43.804,28.965c9.657,0,13.251-4.787,20.491-8.289c4.456,3.482,15.879,8.345,22.602,8.345
	c6.208,0,11.877-1.834,16.221-4.855c5.793,6.311,15.51,10.452,26.523,10.452c17.752,0,32.144-10.755,32.144-24.021
	c0-0.476-0.023-0.946-0.062-1.415c0.021,0,0.04,0.002,0.062,0.002c12.874,0,23.314-10.122,23.314-22.606
	C682.361,113.135,671.919,103.011,659.045,103.011z"/>
<rect x="-479.75" y="63.75" fill="#8CC9DB" width="1918.077" height="1080"/>
<g>
	<g>
		<rect x="1196.117" y="409.887" fill="#75C1D2" width="110.183" height="265.075"/>
		<rect x="1056.277" y="409.89" fill="#75C1D2" width="110.184" height="265.069"/>
		<rect x="-50.393" y="454.823" fill="#75C1D2" width="110.183" height="265.076"/>
		<rect x="396.409" y="337.597" fill="#75C1D2" width="163.5" height="448.417"/>
		<polygon fill="#75C1D2" points="759.603,534.878 759.603,902.847 986.116,902.847 986.116,534.878 877.781,447.074 		"/>
		<polygon fill="#75C1D2" points="-476.34,511.388 -476.34,812.945 -290.351,812.945 -290.351,511.388 -379.304,439.429 		"/>
		<polygon fill="#50A7AE" points="1346.737,712.87 1346.737,617.022 1104.827,617.022 1105.135,568.326 1014.895,568.326 
			1014.895,646.645 852.468,646.645 852.468,679.782 744.181,679.782 744.181,562.306 668.38,562.306 668.38,712.87 458.891,712.87 
			458.891,617.022 220.496,617.022 220.8,568.326 130.565,568.326 130.565,646.645 -31.865,646.645 -31.865,679.782 
			-104.943,679.782 -104.943,851.972 -245.865,851.972 -245.865,712.87 -425.432,712.87 -425.432,617.022 -479.75,617.022 
			-479.75,1143.654 1430.861,1143.75 1430.861,713.336 		"/>
	</g>
	<rect x="274.815" y="496.858" fill="#50A7AE" width="136.145" height="142.949"/>
</g>
<g>
	<g>
		<rect x="231.25" y="1104.75" fill="#808285" width="1209" height="39"/>
		<g>
			<path fill="#FFFFFF" d="M1421.25,1126.75h-47v-5h47V1126.75z M1327.25,1126.75h-46v-5h46V1126.75z M1231.25,1126.75h-45v-5h45
				V1126.75z M1139.25,1126.75h-45v-5h45V1126.75z M1044.25,1126.75h-46v-5h46V1126.75z M952.25,1126.75h-49v-5h49V1126.75z
				 M858.25,1126.75h-49v-5h49V1126.75z M763.25,1126.75h-48v-5h48V1126.75z M669.25,1126.75h-46v-5h46V1126.75z M575.25,1126.75
				h-47v-5h47V1126.75z M483.25,1126.75h-47v-5h47V1126.75z M387.25,1126.75h-47v-5h47V1126.75z M295.25,1126.75h-47v-5h47V1126.75z
				"/>
		</g>
	</g>
	<rect x="230.25" y="1094.809" fill="#BCBEC0" width="1208.076" height="10.023"/>
	<rect x="230.25" y="1094.809" fill="#D5DEDE" width="1208.076" height="2.55"/>
</g>
<g>
	<g>
		<rect x="-520.75" y="1104.75" fill="#808285" width="1209" height="39"/>
		<g>
			<path fill="#FFFFFF" d="M669.25,1126.75h-47v-5h47V1126.75z M575.25,1126.75h-46v-5h46V1126.75z M479.25,1126.75h-45v-5h45
				V1126.75z M387.25,1126.75h-45v-5h45V1126.75z M292.25,1126.75h-46v-5h46V1126.75z M200.25,1126.75h-49v-5h49V1126.75z
				 M106.25,1126.75h-49v-5h49V1126.75z M11.25,1126.75h-48v-5h48V1126.75z M-82.75,1126.75h-46v-5h46V1126.75z M-176.75,1126.75
				h-47v-5h47V1126.75z M-268.75,1126.75h-47v-5h47V1126.75z M-364.75,1126.75h-47v-5h47V1126.75z M-456.75,1126.75h-47v-5h47
				V1126.75z"/>
		</g>
	</g>
	<rect x="-521.75" y="1094.809" fill="#BCBEC0" width="1208.076" height="10.023"/>
	<rect x="-521.75" y="1094.809" fill="#D5DEDE" width="1208.076" height="2.55"/>
</g>
</svg>
