<?xml version="1.0" encoding="utf-8"?>
<!-- Generator: Adobe Illustrator 16.0.0, SVG Export Plug-In . SVG Version: 6.00 Build 0)  -->
<!DOCTYPE svg PUBLIC "-//W3C//DTD SVG 1.1//EN" "http://www.w3.org/Graphics/SVG/1.1/DTD/svg11.dtd">
<svg version="1.1" id="Layer_1" xmlns="http://www.w3.org/2000/svg" xmlns:xlink="http://www.w3.org/1999/xlink" x="0px" y="0px"
	 width="1350px" height="800px" viewBox="0 0 1350 800" enable-background="new 0 0 1350 800" xml:space="preserve">
<rect x="1.5" y="-1.5" fill="#8CC9DB" width="1357.5" height="813"/>
<g>
	<rect x="334.048" y="349.838" fill="#D1D3D4" width="171.668" height="397.162"/>
	<rect x="467.703" y="660.995" fill="#939598" width="19.392" height="86.005"/>
	<rect x="355.226" y="660.995" fill="#939598" width="19.393" height="86.005"/>
	<rect x="467.703" y="348.784" fill="#939598" width="19.392" height="283.226"/>
	<rect x="355.226" y="349.838" fill="#939598" width="19.393" height="283.225"/>
	<polygon fill="#808285" points="505.89,663.2 333.877,663.2 324.365,651.621 515.4,651.621 	"/>
	<polygon fill="#808285" points="505.89,624.67 333.877,624.67 324.366,613.09 515.4,613.09 	"/>
	<polygon fill="#808285" points="505.89,584.107 333.877,584.107 324.367,572.53 515.4,572.53 	"/>
	<polygon fill="#808285" points="505.89,543.548 333.878,543.548 324.367,531.97 515.4,531.97 	"/>
	<polygon fill="#808285" points="505.89,502.984 333.878,502.984 324.368,491.405 515.4,491.405 	"/>
	<polygon fill="#808285" points="505.89,463.438 333.88,463.438 324.369,451.859 515.4,451.859 	"/>
	<polygon fill="#808285" points="505.89,422.877 333.88,422.877 324.369,411.299 515.4,411.299 	"/>
	<polygon fill="#808285" points="505.89,382.316 333.881,382.316 324.371,370.737 515.4,370.737 	"/>
	<polygon fill="#BCBEC0" points="520.275,653.826 320.725,653.826 317.071,650.984 317.071,633.93 320.094,630.93 520.275,630.93 
		522.637,634.063 522.637,650.984 	"/>
	<polygon fill="#BCBEC0" points="520.275,613.52 320.725,613.52 317.071,610.679 317.071,593.622 320.094,590.622 520.275,590.622 
		522.637,593.756 522.637,610.679 	"/>
	<polygon fill="#BCBEC0" points="520.275,573.215 320.725,573.215 317.071,570.372 317.071,553.315 320.094,550.316 
		520.275,550.316 522.637,553.451 522.637,570.372 	"/>
	<polygon fill="#BCBEC0" points="520.275,532.906 320.725,532.906 317.071,530.067 317.071,513.009 320.094,510.008 
		520.275,510.008 522.637,513.145 522.637,530.067 	"/>
	<polygon fill="#BCBEC0" points="520.275,492.604 320.725,492.604 317.071,489.761 317.071,472.703 320.094,469.703 
		520.275,469.703 522.637,472.837 522.637,489.761 	"/>
	<polygon fill="#BCBEC0" points="520.275,452.296 320.725,452.296 317.071,449.453 317.071,432.396 320.094,429.396 
		520.275,429.396 522.637,432.53 522.637,449.453 	"/>
	<polygon fill="#BCBEC0" points="520.275,411.989 320.725,411.989 317.071,409.146 317.071,392.09 320.094,389.09 520.275,389.09 
		522.637,392.225 522.637,409.146 	"/>
	<polygon fill="#BCBEC0" points="520.275,371.683 320.725,371.683 317.071,368.842 317.071,351.784 320.094,348.784 
		520.275,348.784 522.637,351.918 522.637,368.842 	"/>
	<rect x="397.132" y="688.735" fill="#4BB5AB" width="45.501" height="58.265"/>
</g>
<g>
	<path fill="#FAFBFC" d="M714.026,373.26v371.693h16.792h35.179h16.688h35.18h16.688h35.182h17.042V373.26H714.026z
		 M765.997,694.566h-35.182v-48.389h35.182V694.566z M765.997,630.884h-35.182V582.5h35.182V630.884z M765.997,567.2h-35.182v-48.38
		h35.182V567.2z M765.997,503.518h-35.182v-48.385h35.182V503.518z M765.997,439.836h-35.182v-48.382h35.182V439.836z
		 M817.863,694.566h-35.18v-48.389h35.18V694.566z M817.863,630.884h-35.18V582.5h35.18V630.884z M817.863,567.2h-35.18v-48.38
		h35.18V567.2z M817.863,503.518h-35.18v-48.385h35.18V503.518z M817.863,439.836h-35.18v-48.382h35.18V439.836z M869.729,694.566
		h-35.182v-48.389h35.182V694.566L869.729,694.566z M869.729,630.884h-35.182V582.5h35.182V630.884L869.729,630.884z M869.729,567.2
		h-35.182v-48.38h35.182V567.2L869.729,567.2z M869.729,503.518h-35.182v-48.385h35.182V503.518L869.729,503.518z M869.729,439.836
		h-35.182v-48.382h35.182V439.836L869.729,439.836z"/>
	<polygon fill="#805B24" points="887.291,378.251 899.122,354.84 699.936,355.008 712.79,378.251 722.261,378.251 875.393,378.251 	
		"/>
	<path fill="#6D4D42" d="M730.818,439.836H766v-48.382h-35.182V439.836z M736.68,399.52h23.456v32.255H736.68V399.52z"/>
	<rect x="736.68" y="399.52" fill="#EBF7F8" width="23.456" height="32.255"/>
	<path fill="#6D4D42" d="M782.685,439.836h35.18v-48.382h-35.18V439.836z M788.55,399.52h23.449v32.255H788.55V399.52z"/>
	<rect x="788.55" y="399.52" fill="#EBF7F8" width="23.449" height="32.255"/>
	<path fill="#6D4D42" d="M834.549,439.836h35.181v-48.382h-35.181V439.836L834.549,439.836z M840.413,399.52h23.452v32.255h-23.452
		V399.52z"/>
	<rect x="840.413" y="399.52" fill="#EBF7F8" width="23.452" height="32.255"/>
	<path fill="#6D4D42" d="M730.818,503.518H766v-48.385h-35.182V503.518z M736.68,463.201h23.456v32.254H736.68V463.201z"/>
	<rect x="736.68" y="463.201" fill="#EBF7F8" width="23.456" height="32.254"/>
	<path fill="#6D4D42" d="M782.685,503.518h35.18v-48.385h-35.18V503.518z M788.55,463.201h23.449v32.254H788.55V463.201z"/>
	<rect x="788.55" y="463.201" fill="#EBF7F8" width="23.449" height="32.254"/>
	<path fill="#6D4D42" d="M834.549,503.518h35.181v-48.385h-35.181V503.518L834.549,503.518z M840.413,463.201h23.452v32.254h-23.452
		V463.201z"/>
	<rect x="840.413" y="463.201" fill="#EBF7F8" width="23.452" height="32.254"/>
	<path fill="#6D4D42" d="M730.818,567.2H766v-48.38h-35.182V567.2z M736.68,526.884h23.456v32.253H736.68V526.884z"/>
	<rect x="736.68" y="526.884" fill="#EBF7F8" width="23.456" height="32.253"/>
	<path fill="#6D4D42" d="M782.685,567.2h35.18v-48.38h-35.18V567.2z M788.55,526.884h23.449v32.253H788.55V526.884z"/>
	<rect x="788.55" y="526.884" fill="#EBF7F8" width="23.449" height="32.253"/>
	<path fill="#6D4D42" d="M834.549,567.2h35.181v-48.38h-35.181V567.2L834.549,567.2z M840.413,526.884h23.452v32.253h-23.452
		V526.884z"/>
	<rect x="840.413" y="526.884" fill="#EBF7F8" width="23.452" height="32.253"/>
	<path fill="#6D4D42" d="M730.818,630.884H766V582.5h-35.182V630.884z M736.68,590.565h23.456v32.253H736.68V590.565z"/>
	<rect x="736.68" y="590.565" fill="#EBF7F8" width="23.456" height="32.253"/>
	<path fill="#6D4D42" d="M782.685,630.884h35.18V582.5h-35.18V630.884z M788.55,590.565h23.449v32.253H788.55V590.565z"/>
	<rect x="788.55" y="590.565" fill="#EBF7F8" width="23.449" height="32.253"/>
	<path fill="#6D4D42" d="M834.549,630.884h35.181V582.5h-35.181V630.884L834.549,630.884z M840.413,590.565h23.452v32.253h-23.452
		V590.565z"/>
	<rect x="840.413" y="590.565" fill="#EBF7F8" width="23.452" height="32.253"/>
	<path fill="#6D4D42" d="M730.818,694.566H766v-48.389h-35.182V694.566z M736.68,654.248h23.456v32.255H736.68V654.248z"/>
	<rect x="736.68" y="654.248" fill="#EBF7F8" width="23.456" height="32.255"/>
	<path fill="#6D4D42" d="M782.685,694.566h35.18v-48.389h-35.18V694.566z M788.55,654.248h23.449v32.255H788.55V654.248z"/>
	<rect x="788.55" y="654.248" fill="#EBF7F8" width="23.449" height="32.255"/>
	<path fill="#6D4D42" d="M834.549,694.566h35.181v-48.389h-35.181V694.566L834.549,694.566z M840.413,654.248h23.452v32.255h-23.452
		V654.248z"/>
	<rect x="840.413" y="654.248" fill="#EBF7F8" width="23.452" height="32.255"/>
</g>
<g>
	<g>
		<rect x="1088.053" y="289.208" fill="#74665F" width="35.771" height="23.154"/>
		<rect x="1088.053" y="350.048" fill="#74665F" width="35.771" height="23.156"/>
		<rect x="1088.053" y="410.892" fill="#74665F" width="35.771" height="23.155"/>
		<rect x="1088.053" y="471.734" fill="#74665F" width="35.771" height="23.151"/>
		<rect x="1088.053" y="532.575" fill="#74665F" width="35.771" height="23.156"/>
		<rect x="1088.053" y="593.419" fill="#74665F" width="35.771" height="23.154"/>
		<rect x="1088.053" y="654.259" fill="#74665F" width="35.771" height="23.161"/>
	</g>
	<rect x="1113.652" y="289.208" fill="#94847C" width="160.297" height="455.792"/>
	<g>
		<rect x="1203.758" y="312.362" fill="#AB8E80" width="33.271" height="33.178"/>
		<rect x="1203.758" y="357.697" fill="#AB8E80" width="33.271" height="33.182"/>
		<rect x="1203.758" y="403.036" fill="#AB8E80" width="33.271" height="33.183"/>
		<rect x="1203.758" y="448.376" fill="#AB8E80" width="33.271" height="33.182"/>
		<rect x="1203.758" y="493.714" fill="#AB8E80" width="33.271" height="33.179"/>
		<rect x="1203.758" y="539.053" fill="#AB8E80" width="33.271" height="33.178"/>
		<rect x="1203.758" y="584.388" fill="#AB8E80" width="33.271" height="33.186"/>
		<rect x="1203.758" y="629.729" fill="#AB8E80" width="33.271" height="33.184"/>
		<rect x="1203.758" y="675.064" fill="#AB8E80" width="33.271" height="33.184"/>
	</g>
	<g>
		<rect x="1138.37" y="312.362" fill="#FFF3E7" width="38.133" height="19.015"/>
		<rect x="1134.277" y="331.377" fill="#74665F" width="46.314" height="4.527"/>
	</g>
	<g>
		<rect x="1138.37" y="357.697" fill="#FFF3E7" width="38.133" height="19.016"/>
		<rect x="1134.277" y="376.713" fill="#74665F" width="46.314" height="4.531"/>
	</g>
	<g>
		<rect x="1138.37" y="403.036" fill="#FFF3E7" width="38.133" height="19.015"/>
		<rect x="1134.277" y="422.051" fill="#74665F" width="46.314" height="4.532"/>
	</g>
	<g>
		<rect x="1138.37" y="448.376" fill="#FFF3E7" width="38.133" height="19.014"/>
		<rect x="1134.277" y="467.39" fill="#74665F" width="46.314" height="4.529"/>
	</g>
	<g>
		<rect x="1138.37" y="493.714" fill="#FFF3E7" width="38.133" height="19.014"/>
		<rect x="1134.277" y="512.729" fill="#74665F" width="46.314" height="4.528"/>
	</g>
	<g>
		<rect x="1138.37" y="539.053" fill="#FFF3E7" width="38.133" height="19.02"/>
		<rect x="1134.277" y="558.068" fill="#74665F" width="46.314" height="4.524"/>
	</g>
	<g>
		<rect x="1138.37" y="584.388" fill="#FFF3E7" width="38.133" height="19.02"/>
		<rect x="1134.277" y="603.403" fill="#74665F" width="46.314" height="4.526"/>
	</g>
	<g>
		<rect x="1138.37" y="629.729" fill="#FFF3E7" width="38.133" height="19.017"/>
		<rect x="1134.277" y="648.741" fill="#74665F" width="46.314" height="4.533"/>
	</g>
	<g>
		<rect x="1138.37" y="675.064" fill="#FFF3E7" width="38.133" height="19.016"/>
		<rect x="1134.277" y="694.08" fill="#74665F" width="46.314" height="4.528"/>
	</g>
</g>
<g>
	<rect x="91.5" y="330.273" fill="#E1E1E0" width="192.249" height="415.727"/>
	<rect x="158.544" y="287.08" fill="#BEBDBD" width="58.159" height="458.92"/>
	<rect x="107.161" y="346.822" fill="#FEC111" width="38.945" height="40.31"/>
	<rect x="107.161" y="398.329" fill="#FEC111" width="38.945" height="40.309"/>
	<rect x="107.161" y="449.837" fill="#FEC111" width="38.945" height="40.307"/>
	<rect x="107.161" y="501.343" fill="#FEC111" width="38.945" height="40.313"/>
	<rect x="107.161" y="552.851" fill="#FEC111" width="38.945" height="40.311"/>
	<rect x="107.161" y="604.357" fill="#FEC111" width="38.945" height="40.309"/>
	<rect x="107.161" y="655.864" fill="#FEC111" width="38.945" height="40.308"/>
	<rect x="231.788" y="346.822" fill="#FEC111" width="38.946" height="40.311"/>
	<rect x="231.788" y="398.33" fill="#FEC111" width="38.946" height="40.308"/>
	<rect x="231.788" y="449.837" fill="#FEC111" width="38.946" height="40.307"/>
	<rect x="231.788" y="501.343" fill="#FEC111" width="38.946" height="40.313"/>
	<rect x="231.788" y="552.851" fill="#FEC111" width="38.946" height="40.311"/>
	<rect x="231.788" y="604.357" fill="#FEC111" width="38.946" height="40.309"/>
	<rect x="231.788" y="655.864" fill="#FEC111" width="38.946" height="40.308"/>
</g>
<g>
	<rect x="914.315" y="482.597" fill="#E1E1E0" width="151.502" height="262.558"/>
	<rect x="908.529" y="470.485" fill="#FAFBFC" width="163.073" height="12.107"/>
	<g>
		<g>
			<rect x="927.394" y="495.241" fill="#80CBC4" width="31.625" height="45.961"/>
		</g>
	</g>
	<g>
		<g>
			<rect x="974.687" y="495.241" fill="#80CBC4" width="31.627" height="45.961"/>
		</g>
	</g>
	<g>
		<g>
			<rect x="1021.981" y="495.241" fill="#80CBC4" width="31.623" height="45.961"/>
		</g>
	</g>
	<g>
		<g>
			<rect x="927.394" y="552.02" fill="#80CBC4" width="31.625" height="45.965"/>
		</g>
	</g>
	<g>
		<g>
			<rect x="974.687" y="552.02" fill="#80CBC4" width="31.627" height="45.965"/>
		</g>
	</g>
	<g>
		<g>
			<rect x="1021.981" y="552.02" fill="#80CBC4" width="31.623" height="45.965"/>
		</g>
	</g>
	<g>
		<g>
			<rect x="927.394" y="608.797" fill="#80CBC4" width="31.625" height="45.961"/>
		</g>
	</g>
	<g>
		<g>
			<rect x="974.687" y="608.797" fill="#80CBC4" width="31.627" height="45.961"/>
		</g>
	</g>
	<g>
		<g>
			<rect x="1021.981" y="608.797" fill="#80CBC4" width="31.623" height="45.961"/>
		</g>
	</g>
	<g>
		<rect x="958.178" y="677.457" fill="#80CBC4" width="30.832" height="67.693"/>
		<g>
			<rect x="991.124" y="677.457" fill="#80CBC4" width="30.829" height="67.693"/>
		</g>
		<rect x="989.01" y="677.457" fill="#4BB5AB" width="2.114" height="67.693"/>
	</g>
	<rect x="952.952" y="671.938" fill="#FAFBFC" width="74.229" height="5.521"/>
</g>
<g>
	<rect x="555.409" y="342.236" fill="#F58E89" width="127.661" height="403.652"/>
	<rect x="547.157" y="319.396" fill="#3D4A3D" width="144.172" height="14.281"/>
	<rect x="552.062" y="333.554" fill="#EC6562" width="134.36" height="8.927"/>
	<rect x="552.062" y="547.914" fill="#EC6562" width="134.36" height="8.929"/>
	<rect x="552.062" y="474.98" fill="#EC6562" width="134.361" height="8.925"/>
	<rect x="552.062" y="402.047" fill="#EC6562" width="134.361" height="8.926"/>
	<rect x="552.062" y="620.848" fill="#EC6562" width="134.36" height="8.927"/>
	<g>
		<rect x="573.472" y="422.139" fill="#5C5C60" width="24.987" height="32.37"/>
		<g>
			<rect x="576.055" y="424.854" fill="#ADCDD9" width="7.966" height="7.099"/>
			<rect x="587.911" y="424.854" fill="#ADCDD9" width="7.965" height="7.099"/>
		</g>
		<g>
			<rect x="576.055" y="434.822" fill="#ADCDD9" width="7.966" height="7.102"/>
			<rect x="587.911" y="434.822" fill="#ADCDD9" width="7.965" height="7.102"/>
		</g>
		<g>
			<rect x="576.055" y="444.793" fill="#ADCDD9" width="7.966" height="7.098"/>
			<rect x="587.911" y="444.793" fill="#ADCDD9" width="7.965" height="7.098"/>
		</g>
		<rect x="570.497" y="454.509" fill="#576A8A" width="30.937" height="5.25"/>
		<polygon fill="#445772" points="594.441,465.01 577.491,465.01 573.472,459.759 598.459,459.759 		"/>
	</g>
	<g>
		<rect x="640.024" y="421.791" fill="#5C5C60" width="24.986" height="32.37"/>
		<g>
			<rect x="642.607" y="424.506" fill="#ADCDD9" width="7.964" height="7.098"/>
			<rect x="654.464" y="424.506" fill="#ADCDD9" width="7.966" height="7.098"/>
		</g>
		<g>
			<rect x="642.607" y="434.475" fill="#ADCDD9" width="7.964" height="7.099"/>
			<rect x="654.464" y="434.475" fill="#ADCDD9" width="7.966" height="7.099"/>
		</g>
		<g>
			<rect x="642.607" y="444.443" fill="#ADCDD9" width="7.964" height="7.098"/>
			<rect x="654.464" y="444.443" fill="#ADCDD9" width="7.966" height="7.098"/>
		</g>
		<rect x="637.05" y="454.161" fill="#576A8A" width="30.938" height="5.249"/>
		<polygon fill="#445772" points="660.994,464.662 644.042,464.662 640.024,459.41 665.012,459.41 		"/>
	</g>
	<g>
		<rect x="573.472" y="351.56" fill="#5C5C60" width="24.987" height="32.37"/>
		<g>
			<rect x="576.055" y="354.275" fill="#ADCDD9" width="7.966" height="7.098"/>
			<rect x="587.911" y="354.275" fill="#ADCDD9" width="7.965" height="7.098"/>
		</g>
		<g>
			<rect x="576.055" y="364.244" fill="#ADCDD9" width="7.966" height="7.1"/>
			<rect x="587.911" y="364.244" fill="#ADCDD9" width="7.965" height="7.1"/>
		</g>
		<g>
			<rect x="576.055" y="374.213" fill="#ADCDD9" width="7.966" height="7.098"/>
			<rect x="587.911" y="374.213" fill="#ADCDD9" width="7.965" height="7.098"/>
		</g>
		<rect x="570.497" y="383.93" fill="#576A8A" width="30.937" height="5.25"/>
		<polygon fill="#445772" points="594.441,394.431 577.491,394.431 573.472,389.18 598.459,389.18 		"/>
	</g>
	<g>
		<rect x="640.025" y="351.56" fill="#5C5C60" width="24.985" height="32.37"/>
		<g>
			<rect x="642.607" y="354.275" fill="#ADCDD9" width="7.966" height="7.098"/>
			<rect x="654.465" y="354.275" fill="#ADCDD9" width="7.965" height="7.098"/>
		</g>
		<g>
			<rect x="642.607" y="364.244" fill="#ADCDD9" width="7.966" height="7.1"/>
			<rect x="654.465" y="364.244" fill="#ADCDD9" width="7.965" height="7.1"/>
		</g>
		<g>
			<rect x="642.607" y="374.213" fill="#ADCDD9" width="7.966" height="7.098"/>
			<rect x="654.465" y="374.213" fill="#ADCDD9" width="7.965" height="7.098"/>
		</g>
		<rect x="637.05" y="383.93" fill="#576A8A" width="30.938" height="5.25"/>
		<polygon fill="#445772" points="660.994,394.431 644.043,394.431 640.025,389.18 665.012,389.18 		"/>
	</g>
	<g>
		<rect x="573.472" y="562.423" fill="#5C5C60" width="24.987" height="32.37"/>
		<g>
			<rect x="576.055" y="565.138" fill="#ADCDD9" width="7.966" height="7.1"/>
			<rect x="587.911" y="565.138" fill="#ADCDD9" width="7.965" height="7.1"/>
		</g>
		<g>
			<rect x="576.055" y="575.106" fill="#ADCDD9" width="7.966" height="7.099"/>
			<rect x="587.911" y="575.106" fill="#ADCDD9" width="7.965" height="7.099"/>
		</g>
		<g>
			<rect x="576.055" y="585.076" fill="#ADCDD9" width="7.966" height="7.101"/>
			<rect x="587.911" y="585.076" fill="#ADCDD9" width="7.965" height="7.101"/>
		</g>
		<rect x="570.497" y="594.793" fill="#576A8A" width="30.937" height="5.25"/>
		<polygon fill="#445772" points="594.441,605.293 577.491,605.293 573.472,600.043 598.459,600.043 		"/>
	</g>
	<g>
		<rect x="640.024" y="562.308" fill="#5C5C60" width="24.986" height="32.369"/>
		<g>
			<rect x="642.607" y="565.021" fill="#ADCDD9" width="7.964" height="7.099"/>
			<rect x="654.464" y="565.021" fill="#ADCDD9" width="7.966" height="7.099"/>
		</g>
		<g>
			<rect x="642.607" y="574.99" fill="#ADCDD9" width="7.964" height="7.102"/>
			<rect x="654.464" y="574.99" fill="#ADCDD9" width="7.966" height="7.102"/>
		</g>
		<g>
			<rect x="642.607" y="584.959" fill="#ADCDD9" width="7.964" height="7.102"/>
			<rect x="654.464" y="584.959" fill="#ADCDD9" width="7.966" height="7.102"/>
		</g>
		<rect x="637.05" y="594.677" fill="#576A8A" width="30.938" height="5.251"/>
		<polygon fill="#445772" points="660.994,605.178 644.042,605.178 640.024,599.928 665.012,599.928 		"/>
	</g>
	<g>
		<rect x="573.472" y="632.564" fill="#5C5C60" width="24.987" height="32.369"/>
		<g>
			<rect x="576.055" y="635.279" fill="#ADCDD9" width="7.966" height="7.101"/>
			<rect x="587.911" y="635.279" fill="#ADCDD9" width="7.965" height="7.101"/>
		</g>
		<g>
			<rect x="576.055" y="645.248" fill="#ADCDD9" width="7.966" height="7.102"/>
			<rect x="587.911" y="645.248" fill="#ADCDD9" width="7.965" height="7.102"/>
		</g>
		<g>
			<rect x="576.055" y="655.218" fill="#ADCDD9" width="7.966" height="7.1"/>
			<rect x="587.911" y="655.218" fill="#ADCDD9" width="7.965" height="7.1"/>
		</g>
		<rect x="570.497" y="664.935" fill="#576A8A" width="30.937" height="5.251"/>
		<polygon fill="#445772" points="594.441,675.436 577.491,675.436 573.472,670.186 598.459,670.186 		"/>
	</g>
	<g>
		<rect x="640.024" y="632.564" fill="#5C5C60" width="24.986" height="32.369"/>
		<g>
			<rect x="642.607" y="635.279" fill="#ADCDD9" width="7.964" height="7.101"/>
			<rect x="654.464" y="635.279" fill="#ADCDD9" width="7.966" height="7.101"/>
		</g>
		<g>
			<rect x="642.607" y="645.248" fill="#ADCDD9" width="7.964" height="7.102"/>
			<rect x="654.464" y="645.248" fill="#ADCDD9" width="7.966" height="7.102"/>
		</g>
		<g>
			<rect x="642.607" y="655.218" fill="#ADCDD9" width="7.964" height="7.1"/>
			<rect x="654.464" y="655.218" fill="#ADCDD9" width="7.966" height="7.1"/>
		</g>
		<rect x="637.05" y="664.935" fill="#576A8A" width="30.938" height="5.251"/>
		<polygon fill="#445772" points="660.994,675.436 644.042,675.436 640.024,670.186 665.012,670.186 		"/>
	</g>
	<g>
		<rect x="573.472" y="492.281" fill="#5C5C60" width="24.987" height="32.37"/>
		<g>
			<rect x="576.055" y="494.996" fill="#ADCDD9" width="7.966" height="7.102"/>
			<rect x="587.911" y="494.996" fill="#ADCDD9" width="7.965" height="7.102"/>
		</g>
		<g>
			<rect x="576.055" y="504.965" fill="#ADCDD9" width="7.966" height="7.1"/>
			<rect x="587.911" y="504.965" fill="#ADCDD9" width="7.965" height="7.1"/>
		</g>
		<g>
			<rect x="576.055" y="514.934" fill="#ADCDD9" width="7.966" height="7.1"/>
			<rect x="587.911" y="514.934" fill="#ADCDD9" width="7.965" height="7.1"/>
		</g>
		<rect x="570.497" y="524.651" fill="#576A8A" width="30.937" height="5.25"/>
		<polygon fill="#445772" points="594.441,535.152 577.491,535.152 573.472,529.901 598.459,529.901 		"/>
	</g>
	<g>
		<rect x="640.024" y="492.049" fill="#5C5C60" width="24.986" height="32.369"/>
		<g>
			<rect x="642.607" y="494.764" fill="#ADCDD9" width="7.964" height="7.1"/>
			<rect x="654.464" y="494.764" fill="#ADCDD9" width="7.966" height="7.1"/>
		</g>
		<g>
			<rect x="642.607" y="504.732" fill="#ADCDD9" width="7.964" height="7.099"/>
			<rect x="654.464" y="504.732" fill="#ADCDD9" width="7.966" height="7.099"/>
		</g>
		<g>
			<rect x="642.607" y="514.701" fill="#ADCDD9" width="7.964" height="7.102"/>
			<rect x="654.464" y="514.701" fill="#ADCDD9" width="7.966" height="7.102"/>
		</g>
		<rect x="637.05" y="524.418" fill="#576A8A" width="30.938" height="5.252"/>
		<polygon fill="#445772" points="660.994,534.92 644.042,534.92 640.024,529.67 665.012,529.67 		"/>
	</g>
	<g>
		<g>
			<rect x="605.716" y="685.157" fill="#445772" width="27.052" height="55.524"/>
			<path fill="#454343" d="M633.613,741.494h-28.742v-57.147h28.74L633.613,741.494L633.613,741.494z M606.562,739.868h25.361
				v-53.896h-25.361V739.868z"/>
		</g>
		<g>
			<path fill="#576A8A" d="M629.976,737.149H608.72v-15.164h21.256V737.149L629.976,737.149z M609.476,736.422h19.745v-13.71
				h-19.745V736.422z"/>
		</g>
		<g>
			<path fill="#576A8A" d="M629.598,721.026h-20.5v-31.72h20.5V721.026z M609.943,720.213h18.812v-30.097h-18.812V720.213z"/>
		</g>
	</g>
	<rect x="592.532" y="741.246" fill="#ADAFB8" width="53.424" height="4.729"/>
	<path fill="#EC6562" d="M572.856,638.445"/>
</g>
<path fill="#FFFFFF" d="M1552.072,337.261c-5.701,0-10.869,2.215-14.644,5.803c0.021-0.435,0.036-0.873,0.036-1.313
	c0-15.756-14.189-28.529-31.694-28.529c-12.399,0-23.129,6.411-28.338,15.746c-5.468-3.517-12.62-5.654-20.453-5.654
	c-17.158,0-31.065,10.219-31.065,22.824c0,0.394,0.015,0.786,0.041,1.176c-11.42,4.548-19.06,12.824-19.06,22.282
	c0,14.355,17.6,25.992,39.31,25.992c8.665,0,11.892-4.295,18.387-7.438c3.999,3.125,14.251,7.491,20.284,7.491
	c5.571,0,10.658-1.646,14.556-4.358c5.198,5.664,13.919,9.379,23.803,9.379c15.931,0,28.844-9.65,28.844-21.555
	c0-0.427-0.02-0.85-0.054-1.27c0.018,0,0.035,0.001,0.054,0.001c11.553,0,20.923-9.083,20.923-20.287
	C1573.001,346.347,1563.625,337.261,1552.072,337.261z"/>
<path fill="#FFFFFF" d="M1553.102,447.536c-5.768,0-10.994,2.239-14.811,5.869c0.021-0.44,0.037-0.884,0.037-1.329
	c0-15.936-14.355-28.855-32.061-28.855c-12.541,0-23.394,6.484-28.662,15.926c-5.528-3.557-12.763-5.717-20.688-5.717
	c-17.354,0-31.421,10.334-31.421,23.084c0,0.397,0.015,0.795,0.042,1.189c-11.551,4.6-19.277,12.97-19.277,22.537
	c0,14.519,17.801,26.289,39.758,26.289c8.766,0,12.026-4.344,18.6-7.522c4.044,3.161,14.412,7.576,20.514,7.576
	c5.635,0,10.78-1.665,14.723-4.408c5.258,5.729,14.078,9.487,24.074,9.487c16.111,0,29.174-9.762,29.174-21.803
	c0-0.433-0.021-0.856-0.056-1.284c0.019,0,0.036,0.001,0.056,0.001c11.685,0,21.162-9.188,21.162-20.518
	S1564.786,447.536,1553.102,447.536z"/>
<path fill="#FFFFFF" d="M1545.479,205.361c-5.963,0-11.366,2.316-15.313,6.068c0.023-0.455,0.039-0.913,0.039-1.374
	c0-16.477-14.84-29.834-33.146-29.834c-12.967,0-24.187,6.704-29.634,16.466c-5.716-3.678-13.196-5.912-21.39-5.912
	c-17.942,0-32.486,10.686-32.486,23.868c0,0.412,0.016,0.822,0.043,1.23c-11.94,4.756-19.932,13.41-19.932,23.301
	c0,15.012,18.405,27.181,41.107,27.181c9.063,0,12.437-4.492,19.229-7.779c4.182,3.268,14.903,7.832,21.212,7.832
	c5.826,0,11.146-1.721,15.221-4.557c5.438,5.922,14.557,9.809,24.893,9.809c16.658,0,30.163-10.092,30.163-22.541
	c0-0.447-0.021-0.888-0.058-1.328c0.021,0,0.037,0.001,0.058,0.001c12.081,0,21.88-9.499,21.88-21.215
	C1567.361,214.862,1557.562,205.361,1545.479,205.361z"/>
<g>
	<g>
		<rect x="1.122" y="756.219" fill="#808285" width="1356.378" height="43.781"/>
		<g>
			<path fill="#FFFFFF" d="M1336.184,780.916h-52.729v-5.613h52.729V780.916z M1230.725,780.916h-51.606v-5.613h51.606V780.916z
				 M1123.022,780.916h-50.485v-5.613h50.485V780.916z M1019.808,780.916h-50.484v-5.613h50.484V780.916z M913.228,780.916H861.62
				v-5.613h51.606L913.228,780.916L913.228,780.916z M810.013,780.916h-54.974v-5.613h54.974V780.916z M704.554,780.916h-54.973
				v-5.613h54.973V780.916z M597.973,780.916h-53.851v-5.613h53.851V780.916z M492.515,780.916h-51.608v-5.613h51.608V780.916z
				 M387.056,780.916h-52.729v-5.613h52.729V780.916z M283.841,780.916h-52.729v-5.613h52.729V780.916z M176.138,780.916h-52.729
				v-5.613h52.729V780.916z M72.923,780.916H20.194v-5.613h52.729V780.916z"/>
		</g>
	</g>
	<rect y="745.059" fill="#BCBEC0" width="1355.341" height="11.252"/>
	<rect y="745.059" fill="#D5DEDE" width="1355.341" height="2.864"/>
</g>
</svg>
