<?xml version="1.0" encoding="utf-8"?>
<!-- Generator: Adobe Illustrator 16.0.0, SVG Export Plug-In . SVG Version: 6.00 Build 0)  -->
<!DOCTYPE svg PUBLIC "-//W3C//DTD SVG 1.1//EN" "http://www.w3.org/Graphics/SVG/1.1/DTD/svg11.dtd">
<svg version="1.1" id="Layer_1" xmlns="http://www.w3.org/2000/svg" xmlns:xlink="http://www.w3.org/1999/xlink" x="0px" y="0px"
	 width="768px" height="568px" viewBox="0 0 768 568" enable-background="new 0 0 768 568" xml:space="preserve">
<g id="Layer_1_1_">
	<rect x="-3.635" y="2.052" fill="#DEEAF6" width="771.258" height="565.949"/>
	<g display="none">
		<g display="inline">
			<rect x="341.015" y="367.588" fill="#BCBEC0" width="101.065" height="19.637"/>
			<rect x="344.767" y="371.391" fill="#101E28" width="82.459" height="6.603"/>
			<circle fill="#808285" cx="435.291" cy="374.275" r="3.702"/>
			<circle fill="#808285" cx="424.623" cy="383.448" r="2.091"/>
			<circle fill="#808285" cx="418.355" cy="383.449" r="2.092"/>
			<circle fill="#808285" cx="413.502" cy="382.323" r="0.562"/>
			<circle fill="#808285" cx="413.502" cy="384.671" r="0.562"/>
			<circle fill="#808285" cx="346.108" cy="383.888" r="0.563"/>
			<circle fill="#808285" cx="349.243" cy="383.888" r="0.563"/>
			<circle fill="#808285" cx="352.379" cy="383.888" r="0.563"/>
			<circle fill="#808285" cx="355.513" cy="383.888" r="0.563"/>
			<circle fill="#808285" cx="358.646" cy="383.888" r="0.563"/>
			<circle fill="#808285" cx="361.781" cy="383.888" r="0.563"/>
		</g>
		<g display="inline">
			<path d="M576.064,328.732c0,0.866-0.699,1.566-1.564,1.566h-27.391c-0.865,0-1.566-0.7-1.566-1.566v-55.955
				c0-0.865,0.701-1.565,1.566-1.565H574.5c0.865,0,1.564,0.701,1.564,1.565V328.732L576.064,328.732z"/>
			<circle fill="#1D1D1B" cx="560.414" cy="284.908" r="9.783"/>
			<circle fill="#414042" cx="560.412" cy="284.908" r="6.652"/>
			<circle fill="#1D1D1B" cx="560.414" cy="316.213" r="9.783"/>
			<circle fill="#414042" cx="560.412" cy="316.213" r="6.652"/>
		</g>
		<g display="inline">
			<path d="M220.834,328.733c0,0.865-0.701,1.565-1.565,1.565h-27.39c-0.866,0-1.567-0.7-1.567-1.565v-55.956
				c0-0.865,0.702-1.565,1.567-1.565h27.39c0.864,0,1.565,0.701,1.565,1.565V328.733z"/>
			<circle fill="#1D1D1B" cx="205.182" cy="284.909" r="9.782"/>
			<circle fill="#414042" cx="205.182" cy="284.909" r="6.652"/>
			<circle fill="#1D1D1B" cx="205.182" cy="316.213" r="9.783"/>
			<circle fill="#414042" cx="205.182" cy="316.213" r="6.652"/>
		</g>
		<path display="inline" fill="#FFFFFF" d="M578.402,423.367c0,0.776-0.754,1.451-1.402,1.451H189.88
			c-0.647,0-1.037-0.67-1.037-1.451v-34.793c0-0.777,0.39-2.074,1.037-2.074H577c0.65,0,1.402,1.297,1.402,2.074V423.367
			L578.402,423.367z"/>
		<path display="inline" fill="#FFFFFF" d="M578.402,386.61c0,0.307-0.754-0.109-1.402-0.109h-21.158
			c-0.648,0-1.707,0.416-1.707,0.109v-25.533c0-0.305,1.059-0.121,1.707-0.121H577c0.648,0,1.402-0.187,1.402,0.121V386.61z"/>
		<path display="inline" fill="#FFFFFF" d="M213.111,386.61c0,0.307-1.421-0.109-2.072-0.109H189.88
			c-0.647,0-1.037,0.416-1.037,0.109v-25.533c0-0.305,0.39-0.121,1.037-0.121h21.159c0.65,0,2.072-0.187,2.072,0.121V386.61z"/>
		
			<rect x="192.037" y="389.694" display="inline" fill="#FFFFFF" stroke="#F1F2F2" stroke-miterlimit="10" width="123.892" height="29.377"/>
		
			<rect x="319.76" y="389.694" display="inline" fill="#FFFFFF" stroke="#F1F2F2" stroke-miterlimit="10" width="126.447" height="29.377"/>
		
			<rect x="450.039" y="389.694" display="inline" fill="#FFFFFF" stroke="#F1F2F2" stroke-miterlimit="10" width="125.17" height="29.377"/>
		<g display="inline">
			<rect x="265.477" y="369.897" fill="#8DC63F" width="21.713" height="15.325"/>
			<path fill="#AA6A41" d="M270.594,377.762"/>
			<g>
				<path fill="#FCC19C" d="M278.234,375.082l0.48,2.021c0,0,0.365,0.781,1.343,0.031l0.165-1.59l0.193-0.981L278.234,375.082z"/>
				<path opacity="0.4" fill="#F8A27F" enable-background="new    " d="M278.36,375.604c0,0,0.99,1.962,1.903-0.299L278.36,375.604z
					"/>
				<path fill="#FCC19C" d="M277.644,373.903c0,0-0.205,0.405-0.479-0.297c-0.271-0.703,0.045-1.113,0.504-0.605L277.644,373.903z"
					/>
				<path opacity="0.4" fill="#F8A481" enable-background="new    " d="M277.267,373.543c-0.05-0.186-0.027-0.449,0.046-0.475
					c0.066-0.023,0.187,0.178,0.248,0.336c0.012,0.026-0.021,0.106-0.013,0.135c0.011,0.053,0.058,0.053,0.061,0.098
					c0.006,0.123-0.093,0.076-0.149,0.092C277.385,373.754,277.39,374.01,277.267,373.543z"/>
				<path fill="#FCC19C" d="M280.872,371.967c-0.062,0.771-0.011,1.781-0.15,2.332c-0.139,0.551-0.277,0.76-0.386,0.965
					c-0.08,0.15-0.358,0.367-0.599,0.502c-0.187,0.099-0.342,0.14-0.424,0.136c-0.454-0.023-0.96-0.009-1.25-0.64
					c-0.253-0.555-0.548-0.979-0.436-1.809c0.082-0.603-0.22-1.318-0.097-1.57c0.106-0.231,0.337-0.574,0.561-0.701
					c0.356-0.202,1.838-0.241,2.192-0.034C280.553,371.301,280.886,371.766,280.872,371.967z"/>
				<path fill="#C19B91" d="M279.581,373.36c0,0,0.357-0.576,0.715-0.043C280.296,373.317,280.077,373.569,279.581,373.36z"/>
				<path fill="#F8A27F" d="M278.002,373.317c0.081,0.157,0.465,0.34,0.715,0.043"/>
				<path fill="#F8A27F" d="M279.594,373.36c0.081,0.157,0.466,0.27,0.714-0.027"/>
				<polygon fill="#FFFFFF" points="278.47,374.83 279.104,374.854 279.76,374.858 279.115,375.213 				"/>
				<path fill="#FFFFFF" d="M279.581,373.36c0,0,0.271-0.355,0.715-0.043C280.296,373.317,280.077,373.569,279.581,373.36z"/>
				<g>
					<path fill="#3F3E40" d="M280.093,373.264c-0.022-0.104-0.15-0.116-0.226-0.1c-0.075,0.021-0.126,0.063-0.104,0.168
						c0.015,0.076,0.125,0.129,0.199,0.109C280.038,373.42,280.107,373.338,280.093,373.264z"/>
					<path fill="#1B181C" d="M279.997,373.276c-0.008-0.033-0.061-0.045-0.092-0.037c-0.033,0.01-0.05,0.043-0.042,0.078
						c0.007,0.032,0.049,0.055,0.082,0.043C279.977,373.354,280.005,373.309,279.997,373.276"/>
					<path fill="#FFFFFF" d="M279.944,373.295c0.008,0.021,0.038,0.021,0.06,0.01c0.018-0.008,0.023-0.03,0.017-0.049
						c-0.009-0.021-0.034-0.027-0.052-0.018C279.946,373.248,279.936,373.276,279.944,373.295z"/>
				</g>
				<path fill="#F8A27F" d="M280.296,373.317c-0.357-0.533-0.715,0.043-0.715,0.043S279.852,373.004,280.296,373.317z"/>
				<path fill="#C19B91" d="M278.716,373.36c0,0-0.358-0.576-0.714-0.043C278.002,373.317,278.223,373.569,278.716,373.36z"/>
				<path fill="#FFFFFF" d="M278.716,373.36c0,0-0.298-0.438-0.714-0.043C278.002,373.317,278.223,373.569,278.716,373.36z"/>
				<g>
					<path fill="#3F3E40" d="M278.162,373.264c0.021-0.104,0.149-0.116,0.223-0.1c0.076,0.021,0.125,0.063,0.103,0.164
						c-0.016,0.076-0.124,0.131-0.198,0.106C278.216,373.418,278.145,373.338,278.162,373.264z"/>
					<path fill="#1B181C" d="M278.258,373.274c0.007-0.029,0.057-0.041,0.09-0.031c0.034,0.008,0.049,0.039,0.042,0.076
						c-0.007,0.03-0.047,0.053-0.082,0.043C278.276,373.352,278.249,373.309,278.258,373.274"/>
					<path fill="#FFFFFF" d="M278.308,373.295c-0.006,0.019-0.037,0.021-0.058,0.01c-0.018-0.01-0.024-0.03-0.018-0.049
						c0.011-0.021,0.035-0.027,0.055-0.02C278.305,373.248,278.317,373.274,278.308,373.295z"/>
				</g>
				<path fill="#F8A27F" d="M278.002,373.317c0.355-0.533,0.715,0.043,0.715,0.043S278.417,372.949,278.002,373.317z"/>
				<path d="M280.236,372.756c-0.054-0.043-0.508-0.041-0.57-0.041c-0.036,0-0.032,0.062-0.034,0.101
					c-0.002,0.036,0.014,0.086,0.08,0.09c0.016,0.002,0.311-0.051,0.434-0.063c0.078-0.012,0.362,0.15,0.385,0.14
					C280.569,372.963,280.244,372.764,280.236,372.756z"/>
				<path d="M278.13,372.68c0.057-0.039,0.509,0,0.57,0.004c0.036,0.002,0.027,0.063,0.027,0.103c0,0.041-0.022,0.088-0.086,0.084
					c-0.018,0-0.307-0.076-0.428-0.101c-0.079-0.014-0.374,0.125-0.396,0.113C277.777,372.86,278.12,372.686,278.13,372.68z"/>
				<path fill="none" d="M279.061,375.09l0.233-0.016l0.522-0.244c0,0-0.403,0.035-0.531,0.039c-0.05,0.002-0.194,0.027-0.194,0.027
					s-0.17-0.035-0.227-0.033c-0.115,0.01-0.448-0.062-0.448-0.062l0.439,0.256L279.061,375.09z"/>
				<path fill="#F9B6B4" d="M279.293,375.076l-0.234,0.014l-0.204-0.029l-0.44-0.254c0,0,0.339,0.42,0.44,0.435
					c0.133,0.018,0.406,0.028,0.536,0.004c0.111-0.025,0.424-0.408,0.424-0.408L279.293,375.076z"/>
				<path fill="#F8A27F" d="M278.864,374.864c0.056-0.002,0.227,0.033,0.227,0.033s0.144-0.025,0.194-0.027
					c0.128-0.004,0.531-0.039,0.531-0.039s-0.419-0.109-0.548-0.113c-0.056,0-0.179,0.062-0.179,0.062s-0.148-0.068-0.199-0.063
					c-0.133,0.01-0.474,0.086-0.474,0.086S278.751,374.871,278.864,374.864z"/>
				<path fill="#FCC19C" d="M280.755,373.903c0,0,0.207,0.405,0.48-0.297c0.273-0.701-0.068-1.082-0.414-0.623L280.755,373.903z"/>
				<path opacity="0.4" fill="#F8A481" enable-background="new    " d="M281.135,373.446c0.05-0.187,0.027-0.451-0.048-0.476
					c-0.064-0.021-0.186,0.177-0.247,0.336c-0.01,0.025,0.021,0.107,0.013,0.134c-0.013,0.051-0.06,0.051-0.063,0.098
					c-0.004,0.123,0.096,0.078,0.149,0.092C281.017,373.655,281.01,373.91,281.135,373.446z"/>
				<path d="M278.26,371.737c0.025-0.047,0.331,0.461,0.563,0.539c-0.065-0.082-0.097-0.181-0.082-0.285
					c0.185,0.207,0.411,0.311,0.65,0.444c-0.025-0.106-0.123-0.213-0.1-0.329c0.102,0.073,0.228,0.108,0.347,0.155
					c0.001-0.084-0.018-0.188,0.069-0.237c0.043,0.079,0.181,0.106,0.266,0.145c0.015-0.119,0.021-0.271,0.081-0.383
					c0.242,0.119,0.453,0.178,0.539,0.438c0.073,0.22,0.11,0.437,0.112,0.664v0.394l0.028,0.069c0,0,0.241-0.788,0.106-1.811
					c0,0,0.134-0.838-1.645-0.924c-1.376-0.063-1.821,0.586-1.821,1.271c0,0-0.012,1.041,0.28,1.484l0.042-0.062
					c0,0-0.035-1.092-0.015-1.012C277.682,372.299,278.195,371.867,278.26,371.737z"/>
				<path fill="#1C75BC" d="M278.596,376.602c0,0,0.695,1.546,1.519-0.034c0,0,0.856-0.146,1.28-0.072
					c0.422,0.07,0.775,0.006,1.206,1.067c0.431,1.063,0.41,1.66,0.41,1.66s-0.732,0.593-1.481,0.494c0,0,0.169,2.017,0.217,2.406
					c0.045,0.391,0.038,1.223,0.077,1.719c0.033,0.437,0.094,0.789,0.111,0.933c0,0-2.128,1.788-5.224,0.102
					c-0.078-0.119,0.345-5.322,0.345-5.322s-0.741,0.244-1.441-0.459c0,0,0.429-1.336,0.768-1.905c0,0,0.19-0.394,0.798-0.359
					C277.786,376.856,278.596,376.602,278.596,376.602z"/>
				<path fill="#FCC19C" d="M275.77,379.24c0.53,0.264,1.116,0.313,1.116,0.313s-0.088,0.308-0.17,0.584
					c-0.052,0.166-0.144,0.355-0.115,0.693c0.04,0.5-0.195,1.926-0.175,2.412c0.006,0.082,0.018,0.164,0.033,0.24
					c0.082,0.247,0.146,0.393,0.188,0.473c0.026,0.045,0.047,0.08,0.064,0.102c0.147,0.099,0.269,0.361,0.297,0.41
					c0.028,0.051,0.069,0.512,0.093,0.717c0.01,0.113,0.008,0.47,0.008,0.47c-0.277,0.166-0.33-0.224-0.317-0.318
					c0.016-0.098-0.081-0.313-0.081-0.313c-0.179-0.017-0.218,0.27-0.218,0.27s0.1,0.313,0.193,0.371
					c0.021,0.018,0.112,0.072,0.139,0.076c0.654,0.092,0.342,0.262,0.342,0.262c-0.623,0.115-0.801-0.221-0.801-0.221
					s-0.276-0.291-0.382-0.406s-0.137-0.291-0.11-0.494c0.008-0.068-0.002-0.244-0.016-0.451c-0.012-0.053-0.068-0.293-0.064-0.396
					c0.007-0.109-0.107-1.037-0.107-1.037C275.393,381.742,275.77,379.24,275.77,379.24z"/>
				<path fill="#FCC19C" d="M282.915,379.313c-0.535,0.269-1.063,0.378-1.063,0.378s0.045,0.159,0.125,0.428
					c0.048,0.164,0.136,0.348,0.104,0.68c-0.048,0.49,0.167,1.887,0.139,2.365c-0.007,0.082-0.021,0.158-0.037,0.231
					c-0.086,0.244-0.152,0.39-0.194,0.47c-0.027,0.043-0.048,0.078-0.065,0.1c-0.148,0.098-0.274,0.359-0.304,0.408
					c-0.03,0.047-0.078,0.504-0.105,0.701c-0.013,0.108-0.014,0.459-0.014,0.459c0.273,0.158,0.333-0.224,0.32-0.314
					c-0.012-0.096,0.083-0.309,0.083-0.309c0.179-0.019,0.216,0.258,0.216,0.258s-0.106,0.311-0.199,0.371
					c-0.021,0.016-0.115,0.072-0.139,0.076c-0.657,0.096-0.346,0.262-0.346,0.262c0.621,0.104,0.806-0.229,0.806-0.229
					s0.278-0.288,0.387-0.401c0.107-0.121,0.141-0.289,0.119-0.488c-0.006-0.065,0.004-0.24,0.023-0.442
					c0.011-0.054,0.072-0.291,0.066-0.394c-0.004-0.104,0.125-1.016,0.125-1.016C283.275,381.676,282.915,379.313,282.915,379.313z"
					/>
				<path fill="#256AB4" d="M280.016,378.699c0,0-0.021,0.858,0.076,1.231c0,0,0.699,0.08,1.048-0.141c0,0-0.121-0.992-0.023-1.199
					C281.117,378.588,280.69,378.778,280.016,378.699z"/>
				<path fill="#256AB4" d="M279.581,377.213c0,0-0.195,0.064-0.256,0.064c-0.052,0-0.246-0.08-0.246-0.08s0.066,0.826,0.055,1.838
					c0,0,0.211,0.188,0.511,0L279.581,377.213z"/>
				<g>
					<circle fill="#282929" cx="279.363" cy="377.777" r="0.128"/>
				</g>
				<g>
					<circle fill="#282929" cx="279.363" cy="378.347" r="0.128"/>
				</g>
				<g opacity="0.4">
					<path id="XMLID_2_" fill="#F8A27F" d="M278.726,374.379c0,0,0.121,0.09,0.184,0.094c0.027,0,0.063,0.002,0.089,0.006l0,0l0,0
						c0.031-0.004,0.065-0.006,0.091-0.006c0.063-0.004,0.179-0.094,0.179-0.094c-0.105-0.012-0.191-0.018-0.272-0.012l0,0
						C278.917,374.362,278.831,374.367,278.726,374.379z"/>
					<path id="XMLID_1_" fill="#F8A27F" d="M278.836,374.137c-0.018,0.037-0.089,0.174-0.089,0.174l0.117-0.028l0.042-0.152
						l0.065-0.672C278.946,373.574,278.852,374.106,278.836,374.137z"/>
				</g>
			</g>
			<g>
				<path fill="#FCC19C" d="M277.255,384.43c0,0,0.065,0.701,0.159,0.933c0.095,0.227-0.334,0.938-0.701,1.02
					c-0.203,0.045-0.082-1.086-0.082-1.086l0.102-1.039L277.255,384.43z"/>
				<path fill="#F15A29" d="M273.102,377.592c0,0-1.981,0.347-1.963,0.795c0.066,1.642,1.125,1.658,1.203,2.563
					c0.234,2.731-0.507,3.785-0.507,3.785s0.585,0.227,2.468,0.227c1.881,0,2.204-0.186,2.269-0.266l0.854,0.727
					c0,0,0.154-2.524-0.353-5.783c-0.196-1.256-0.313-1.58-0.507-1.68c-0.192-0.1-1.396-0.268-1.396-0.268L273.102,377.592z"/>
				<path fill="#FCC19C" d="M273.66,376.283c0,0,0.259,1.02-0.301,1.34l0.971,2.404l0.851-2.388c0,0-0.419-0.075-0.325-1.45
					L273.66,376.283z"/>
				<path opacity="0.4" fill="#F8A27F" enable-background="new    " d="M273.705,377.031c0.019,0.004,0.037,0.018,0.055,0.028
					c0.359,0.279,0.746,0.121,1.105-0.079c-0.025-0.197-0.032-0.457-0.011-0.793l-1.195,0.096
					C273.66,376.283,273.754,376.662,273.705,377.031z"/>
				<path fill="#FCC19C" d="M276.07,373.803c-0.023-0.18-0.063-0.385-0.157-0.731c0,0-1.193-0.525-1.617-0.525
					c-0.423,0.004-1.609,0.525-1.609,0.525c-0.092,0.348-0.134,0.555-0.157,0.731c-0.042,0.33-0.081,1.359,0.17,1.84
					c0.207,0.398,1.12,1.455,1.596,1.412c0,0,0.002,0.006,0.004,0.002c0.001,0.004,0.002,0.007,0.006,0.007
					c0.473,0.036,1.429-1,1.594-1.423C276.104,375.121,276.115,374.129,276.07,373.803z"/>
				<path fill="#F8A27F" d="M274.639,374.912c0.094,0.18,0.667,0.342,0.869-0.078"/>
				<g>
					<path fill="#FFFFFF" d="M274.633,374.891c0,0,0.222-0.637,0.879-0.057c0,0-0.175,0.211-0.463,0.197
						C274.932,375.028,274.766,375,274.633,374.891z"/>
					<circle fill="#36469D" cx="275.086" cy="374.845" r="0.187"/>
					<circle fill="#251619" cx="275.086" cy="374.843" r="0.077"/>
					<circle fill="#FFFFFF" cx="275.003" cy="374.805" r="0.051"/>
					<g>
						<path fill="#251619" d="M274.633,374.891c-0.011,0.009,0.103-0.299,0.431-0.334c0.143-0.006,0.29,0.08,0.363,0.142
							c0.079,0.071,0.104,0.139,0.104,0.139s-0.059-0.037-0.142-0.084c-0.087-0.053-0.195-0.08-0.321-0.08
							C274.827,374.664,274.633,374.903,274.633,374.891z"/>
					</g>
				</g>
				<path fill="#F8A27F" d="M273.914,374.912c-0.091,0.18-0.667,0.342-0.869-0.078"/>
				<g>
					<path fill="#FFFFFF" d="M273.923,374.891c0,0-0.225-0.637-0.878-0.057c0,0,0.173,0.211,0.463,0.197
						C273.624,375.028,273.79,375,273.923,374.891z"/>
					<circle fill="#36469D" cx="273.471" cy="374.845" r="0.187"/>
					<circle fill="#251619" cx="273.471" cy="374.843" r="0.077"/>
					<circle fill="#FFFFFF" cx="273.552" cy="374.804" r="0.05"/>
					<g>
						<path fill="#251619" d="M273.923,374.891c0,0.013-0.19-0.229-0.433-0.215c-0.125-0.006-0.236,0.025-0.322,0.078
							c-0.083,0.045-0.142,0.084-0.142,0.084s0.024-0.07,0.104-0.139c0.074-0.064,0.221-0.146,0.364-0.14
							C273.823,374.588,273.937,374.901,273.923,374.891z"/>
					</g>
				</g>
				<g>
					<path fill="#AA6A41" d="M275.625,374.551c0,0-0.002-0.002-0.007-0.01c-0.002-0.008-0.01-0.018-0.018-0.029
						c-0.02-0.026-0.048-0.061-0.089-0.088c-0.021-0.018-0.043-0.031-0.069-0.045c-0.027-0.012-0.056-0.027-0.083-0.033
						c-0.029-0.01-0.063-0.02-0.093-0.021c-0.033-0.004-0.632,0.098-0.632,0.098l-0.007,0.002c-0.049,0.017-0.099-0.012-0.114-0.057
						c-0.014-0.045,0.007-0.092,0.046-0.109c0,0,0.005-0.004,0.016-0.012c0.007-0.002,0.021-0.01,0.034-0.014
						c0.034-0.017,0.081-0.029,0.139-0.046c0.027-0.008,0.061-0.016,0.092-0.018c0.032-0.008,0.07-0.016,0.107-0.018
						c0.039-0.004,0.075-0.007,0.112-0.007h0.026l0.019,0.007l0.015,0.004l0.061,0.008c0.038,0.008,0.079,0.014,0.119,0.027
						c0.037,0.014,0.075,0.026,0.108,0.045c0.03,0.021,0.063,0.039,0.089,0.063c0.027,0.023,0.05,0.045,0.069,0.068
						c0.039,0.047,0.06,0.09,0.073,0.125c0.006,0.014,0.01,0.026,0.012,0.035c0.002,0.01,0.002,0.014,0.002,0.014
						c0.004,0.01-0.002,0.018-0.009,0.018C275.637,374.561,275.628,374.555,275.625,374.551z"/>
					<path fill="#AA6A41" d="M272.645,374.551c0,0,0.001-0.002,0.007-0.01c0.003-0.008,0.01-0.018,0.02-0.029
						c0.018-0.026,0.047-0.061,0.09-0.088c0.019-0.018,0.042-0.031,0.067-0.045c0.026-0.012,0.053-0.027,0.084-0.033
						c0.03-0.01,0.061-0.02,0.092-0.021c0.032-0.004,0.634,0.098,0.634,0.098l0.007,0.002c0.047,0.017,0.097-0.012,0.115-0.057
						c0.013-0.045-0.007-0.092-0.049-0.109c0,0-0.005-0.004-0.014-0.012c-0.007-0.002-0.023-0.01-0.037-0.014
						c-0.032-0.017-0.079-0.029-0.137-0.046c-0.028-0.008-0.06-0.016-0.092-0.018c-0.032-0.008-0.07-0.016-0.11-0.018
						c-0.037-0.004-0.074-0.007-0.109-0.007h-0.027l-0.017,0.007l-0.017,0.004l-0.059,0.008c-0.041,0.008-0.081,0.014-0.119,0.027
						s-0.076,0.026-0.108,0.045c-0.034,0.021-0.064,0.039-0.091,0.063c-0.027,0.024-0.05,0.045-0.068,0.068
						c-0.038,0.047-0.06,0.09-0.074,0.125c-0.005,0.014-0.01,0.026-0.013,0.035c-0.002,0.01-0.002,0.014-0.002,0.014
						c-0.001,0.01,0.002,0.018,0.011,0.018C272.637,374.561,272.643,374.555,272.645,374.551z"/>
				</g>
				<g>
					<g>
						<path fill="#F8A27F" d="M274.034,375.428c-0.037,0.043-0.055,0.097-0.046,0.148c-0.001,0.055,0.047,0.082,0.09,0.08h-0.002
							c0.009-0.004,0.028-0.021,0.059,0.01l0.001,0.002c0.04,0.035,0.099,0.053,0.16,0.064c-0.061-0.002-0.125-0.004-0.184-0.05l0,0
							c0.004-0.004-0.005-0.008-0.026,0.011h-0.003c-0.073,0.018-0.134-0.058-0.119-0.117
							C273.965,375.51,273.992,375.465,274.034,375.428z"/>
					</g>
					<g>
						<path fill="#F8A27F" d="M274.555,375.428c0.042,0.037,0.07,0.082,0.07,0.15c0.015,0.061-0.049,0.133-0.12,0.115h-0.004
							c-0.034-0.019-0.01-0.019-0.034,0l-0.054,0.024c-0.039,0.013-0.081,0.013-0.119,0.019c0.039-0.013,0.075-0.019,0.107-0.029
							l0.048-0.031c0.008-0.018,0.061-0.028,0.062-0.014h-0.003c0.045,0,0.093-0.025,0.092-0.08
							C274.611,375.526,274.592,375.471,274.555,375.428z"/>
					</g>
				</g>
				<g>
					<g>
						<path fill="#BE1E2D" d="M274.489,375.977c-0.12,0-0.18,0.072-0.18,0.072s-0.061-0.072-0.18-0.072
							c-0.122,0-0.187,0.193-0.383,0.164c0,0,0.2,0.447,0.562,0.447c0.358,0,0.601-0.447,0.601-0.447
							C274.74,376.149,274.607,375.977,274.489,375.977z"/>
						<path fill="#FFFFFF" d="M273.83,376.19c0,0,0.182,0.266,0.492,0.266c0.312,0,0.489-0.26,0.489-0.26s-0.248-0.066-0.514-0.066
							C274.029,376.129,273.83,376.19,273.83,376.19z"/>
					</g>
				</g>
				<g>
					<path fill="#EF4136" d="M271.815,384.66c0,0,0.119-0.256,0.232-0.668c0.099-0.416,0.211-0.984,0.204-1.563
						c0.015-0.289,0.002-0.575-0.035-0.844c-0.024-0.27-0.046-0.52-0.105-0.729c-0.091-0.427-0.154-0.712-0.154-0.712
						s0.073,0.283,0.181,0.703c0.065,0.207,0.098,0.459,0.133,0.729c0.048,0.27,0.072,0.561,0.068,0.852
						c0.028,0.584-0.062,1.164-0.147,1.597c-0.098,0.428-0.214,0.705-0.214,0.705L271.815,384.66z"/>
				</g>
				<g>
					<path fill="#EF4136" d="M276.536,384.764c0,0-0.097-0.264-0.157-0.688c-0.026-0.213-0.106-0.455-0.099-0.724
						c-0.009-0.264-0.018-0.549-0.027-0.829c-0.052-0.564,0.11-1.123,0.137-1.541c0.053-0.418,0.089-0.697,0.089-0.697
						s-0.025,0.281-0.062,0.701c-0.01,0.422-0.15,0.977-0.076,1.535c0.021,0.278,0.041,0.561,0.059,0.821
						c0.002,0.263,0.092,0.494,0.123,0.699c0.073,0.404,0.181,0.67,0.181,0.67L276.536,384.764z"/>
				</g>
				<g>
					<path fill="#EF4136" d="M273.93,381.098c0,0-0.105,0.058-0.267,0.134c-0.081,0.038-0.178,0.073-0.298,0.077
						c-0.117,0.021-0.242,0.029-0.366-0.014c-0.251-0.066-0.424-0.273-0.51-0.428c-0.089-0.162-0.093-0.289-0.098-0.285
						c0,0,0.046,0.113,0.153,0.248c0.096,0.141,0.269,0.313,0.49,0.348c0.104,0.047,0.213,0.049,0.318,0.037
						c0.106,0.01,0.206-0.016,0.29-0.047C273.811,381.119,273.93,381.098,273.93,381.098z"/>
				</g>
				<g>
					<path fill="#EF4136" d="M276.357,380.578c0,0-0.009,0.125-0.099,0.285c-0.086,0.155-0.261,0.362-0.511,0.428
						c-0.124,0.045-0.246,0.033-0.363,0.016c-0.117-0.002-0.217-0.034-0.299-0.078c-0.166-0.077-0.268-0.133-0.268-0.133
						s0.12,0.025,0.287,0.072c0.082,0.031,0.181,0.057,0.289,0.047c0.107,0.012,0.218,0.01,0.322-0.037
						c0.221-0.035,0.395-0.207,0.489-0.346C276.31,380.694,276.357,380.578,276.357,380.578z"/>
				</g>
				<path fill="#FBD578" d="M276.599,373.129c0,0-0.24-1.166-1.238-1.029c0,0-0.9-0.803-2.125-0.424c0,0-0.731,0.229-1.138,1.113
					c0,0-0.199,0.479-0.405,0.666c-0.122,0.106-0.476-0.195-0.603,0.172c-0.053,0.158-0.048,0.336,0.032,0.484
					c0.044,0.078,0.106,0.151,0.2,0.186c0,0-0.021,0.023-0.05,0.055c-0.304,0.38-0.065,0.953,0.417,0.99
					c0.06,0.008,0.122,0,0.182-0.018c0,0,0.076,1.121,1.199,0.84c0,0-0.518-0.846-0.446-0.918c0.149-0.146,0.516-0.16,0.625-0.973
					c0.025-0.183,0.068-0.359,0.133-0.531c0.171-0.445,0.553-1.09,1.303-0.967c0,0,0.551,0.065,0.793,0.463
					c0.073,0.119,0.106,0.262,0.102,0.397c-0.005,0.258,0.02,1.002,0.483,1.162l0,0c0,0-0.135,0.818-0.555,1.355
					c-0.069,0.084,1.061,0.194,1.115-0.765c0,0,0.146-0.069,0.331-0.27c0.164-0.185,0.221-0.787,0.091-1.23
					C276.941,373.531,276.664,373.33,276.599,373.129z"/>
				<g>
					<circle fill="#FFFFFF" cx="274.573" cy="378.297" r="0.105"/>
					<circle fill="#FFFFFF" cx="273.56" cy="378" r="0.105"/>
					<circle fill="#FFFFFF" cx="274.346" cy="378.347" r="0.106"/>
					<circle fill="#FFFFFF" cx="274.086" cy="378.347" r="0.104"/>
					<circle fill="#FFFFFF" cx="273.706" cy="378.131" r="0.105"/>
					<path fill="#FFFFFF" d="M273.869,378.174c0.058,0,0.104,0.047,0.104,0.104c0,0.061-0.046,0.104-0.104,0.104
						s-0.105-0.045-0.105-0.104C273.764,378.221,273.811,378.174,273.869,378.174z"/>
					<circle fill="#FFFFFF" cx="273.456" cy="377.811" r="0.105"/>
					<circle fill="#FFFFFF" cx="273.353" cy="377.656" r="0.105"/>
					<circle fill="#FFFFFF" cx="275.215" cy="377.747" r="0.106"/>
					<circle fill="#FFFFFF" cx="275.07" cy="377.917" r="0.104"/>
					<circle fill="#FFFFFF" cx="274.916" cy="378.055" r="0.105"/>
					<circle fill="#FFFFFF" cx="274.747" cy="378.181" r="0.106"/>
					<path fill="#FFFFFF" d="M274.312,379.086"/>
				</g>
				<path fill="none" stroke="#F8A27F" stroke-width="0.0333" stroke-miterlimit="10" d="M273.73,375.981
					c-0.06-0.017-0.17,0.096-0.152,0.151"/>
				<path fill="none" stroke="#F8A27F" stroke-width="0.0333" stroke-miterlimit="10" d="M274.97,376.03
					c0.056-0.017,0.168,0.096,0.152,0.153"/>
			</g>
			<path fill="#FBB791" d="M271.709,379.19c0,0-0.119,0.334,0,0.346c0.122,0.014,0.307-0.031,0.307-0.031
				S271.298,379.877,271.709,379.19z"/>
			<g>
				<g>
					<path fill="#00A79D" d="M273.418,385.619c-0.279,0.17-0.728-0.252-0.798-0.473c-0.02-0.063,0.008-0.158,0.061-0.248
						c0.004-0.013,0.01-0.021,0.014-0.027c0.074-0.121,0.111-0.318-0.077-0.605c-0.099-0.151-0.174-0.297-0.235-0.434
						c-0.332-0.77,0.118-0.896,0.118-0.896c1.667,0.354,1.024,1.892,0.71,2.191C273.182,385.151,273.595,385.512,273.418,385.619z"
						/>
					<path fill="#00A79D" d="M272.817,383.481c-0.082,0.11-0.174,0.211-0.272,0.293c-0.22,0.186-0.474,0.291-0.743,0.291
						c-0.833,0.002-1.513-1.005-1.513-2.248c-0.001-1.244,0.676-2.25,1.51-2.25c0.833,0,1.512,1.006,1.513,2.248
						C273.312,382.477,273.121,383.069,272.817,383.481z"/>
					<path fill="#00A79D" d="M270.538,382.573c0,0-0.168,0.776,0.623,1.655c0.232,0.253,0.227,0.453,0.172,0.585
						c-0.043,0.11-0.06,0.221-0.029,0.284c0.103,0.207,0.612,0.556,0.863,0.349c0.157-0.138-0.306-0.427-0.285-0.455
						c0.18-0.234,0.462-1.062-0.021-1.701C271.63,382.975,271.223,382.707,270.538,382.573z"/>
					<path fill="#FCC19C" d="M273.905,381.992l-0.438,0.274c0,0-0.025,0.312,0.084,0.425c0.107,0.11,0.092-0.127,0.092-0.127
						s0.01,0.391,0.212,0.293C274.058,382.76,274.2,382.24,273.905,381.992z"/>
					<path fill="#00A79D" d="M272.805,380.112c0,0,1.339,0.541,1.224,2.051c-0.006,0.086-0.561,0.102-0.561,0.102
						s-0.21-1.508-1.49-1.229L272.805,380.112z"/>
					<circle fill="#603913" cx="271.96" cy="380.881" r="0.111"/>
					<circle fill="#603913" cx="272.004" cy="381.229" r="0.111"/>
				</g>
				<path fill="#FCC19C" d="M271.861,383.26c0,0,0.572,0.17,0.788,0.063c0.219-0.107,0.314,0.008,0.228,0.104
					c-0.243,0.265-0.543,0.07-0.543,0.07s0.443,0.146,0.647,0.043c0.146-0.074,0.17-0.008,0.17-0.008s0.13,0.41-0.082,0.588
					c-0.209,0.174-0.95,0.344-1.414-0.174L271.861,383.26z"/>
				<path fill="#FBB791" d="M273.175,378.871c-0.16,0.178-0.246,0.561-0.169,0.67c0.079,0.113,0.27,0.061,0.428-0.117
					c0.159-0.182,0.202-0.445,0.125-0.557C273.481,378.758,273.332,378.69,273.175,378.871z"/>
				<path fill="#F15A29" d="M272.286,377.633c0,0-2.363,2.531-2.726,3.801c-0.396,1.388-0.099,1.177,2.067,2.576l0.421-0.729
					c0,0-1.617-0.752-1.651-1.57c-0.024-0.559,1.206-2.189,1.889-2.486"/>
				<path fill="#FBB791" d="M270.367,378.955c0.158,0.18,0.247,0.559,0.168,0.672c-0.077,0.115-0.268,0.063-0.427-0.117
					c-0.158-0.182-0.203-0.444-0.126-0.557C270.061,378.842,270.207,378.776,270.367,378.955z"/>
				<g>
					<path fill="#00A79D" d="M270.995,380.057c0,0-1.425,1.166-1.19,2.072c0.11,0.414,0.484,0.17,0.484,0.17
						s0.411-0.858,0.949-1.026L270.995,380.057z"/>
					<path fill="#FCC19C" d="M269.823,382.09l0.461,0.228c0,0,0.058,0.307-0.037,0.43c-0.096,0.125-0.105-0.115-0.105-0.115
						s0.032,0.392-0.18,0.314C269.75,382.873,269.556,382.367,269.823,382.09z"/>
				</g>
				<path fill="#FCC19C" d="M271.733,376.75c0.921,0,1.67,0.492,1.67,1.57c0,1.08-0.666,2.287-1.588,2.287s-1.64-1.134-1.741-2.209
					C269.973,377.303,270.813,376.75,271.733,376.75z"/>
				<g>
					<path fill="#FFFFFF" d="M271.359,379.209c0,0-0.165,0.125-0.357,0.119c-0.21-0.004-0.202-0.078-0.202-0.078
						s-0.05-0.277,0.156-0.326c0.021-0.008,0.043-0.01,0.07-0.01C271.193,378.914,271.34,379.049,271.359,379.209z"/>
					<path fill="#1C75BC" d="M271.227,379.276c0,0-0.001,0.006-0.004,0.008c-0.04,0.02-0.075,0.028-0.12,0.037
						c-0.151,0.024-0.247-0.017-0.247-0.017s-0.006-0.114,0.018-0.196l0.045-0.095c0.013-0.018,0.029-0.035,0.049-0.049l0,0
						c0.002,0,0.008-0.004,0.009-0.006c0.004,0,0.006,0,0.009,0l0.023-0.004h0.005h0.002h0.002h0.008
						c0.027,0,0.052,0.004,0.079,0.012c0.012,0.002,0.027,0.008,0.038,0.012C271.22,379.039,271.235,379.153,271.227,379.276z"/>
					<path fill="#754E35" d="M271.358,379.166c-0.003-0.014-0.006-0.029-0.013-0.047c0-0.012-0.005-0.021-0.008-0.029
						c-0.005-0.012-0.008-0.022-0.015-0.029c-0.011-0.021-0.026-0.045-0.044-0.067c-0.017-0.023-0.039-0.041-0.066-0.06
						c-0.052-0.032-0.12-0.057-0.186-0.059l-0.013,0.002h-0.003h-0.001l-0.002,0.002l-0.005,0.002h-0.006
						c-0.044-0.002-0.11,0.031-0.151,0.074c-0.042,0.037-0.052,0.072-0.052,0.072s-0.021,0.051-0.021,0.076
						c-0.002,0.024,0,0.045,0.002,0.063c0.001,0.019,0.005,0.035,0.01,0.049c0.002,0.015,0.008,0.021,0.011,0.027
						c0.002,0.008,0.002,0.012,0.002,0.012s0-0.018,0.003-0.043c0-0.012,0.001-0.026,0.004-0.045
						c0.002-0.01,0.002-0.016,0.005-0.027c0.002-0.01,0.004-0.02,0.008-0.028c0.002-0.013,0.005-0.021,0.01-0.029
						c0.005-0.01,0.01-0.021,0.015-0.027c0.006-0.012,0.014-0.022,0.021-0.028c0.008-0.006,0.016-0.017,0.026-0.021
						c0.01-0.005,0.018-0.016,0.029-0.018c0.01-0.008,0.021-0.013,0.032-0.015l0.016-0.004c0.004-0.002,0.009-0.002,0.013-0.002
						s0.006-0.002,0.009-0.002l0.023-0.004h0.005h0.002h0.003h0.008c0.027,0,0.052,0.006,0.079,0.012
						c0.013,0.002,0.027,0.011,0.038,0.013c0.01,0.008,0.022,0.012,0.033,0.016c0.022,0.014,0.043,0.025,0.062,0.043
						c0.008,0.006,0.017,0.014,0.025,0.023c0.008,0.006,0.015,0.016,0.021,0.022c0.005,0.008,0.009,0.01,0.013,0.017
						c0.003,0.004,0.003,0.008,0.008,0.012c0.005,0.01,0.011,0.018,0.016,0.022c0.009,0.021,0.018,0.027,0.024,0.043
						c0.011,0.023,0.019,0.037,0.019,0.037S271.359,379.19,271.358,379.166z"/>
				</g>
				<g>
					<path fill="#FFFFFF" d="M272.731,379.121c0,0-0.161,0.123-0.349,0.117c-0.205-0.004-0.198-0.076-0.198-0.076
						s-0.047-0.269,0.155-0.318c0.019-0.006,0.041-0.008,0.066-0.008C272.567,378.834,272.712,378.967,272.731,379.121z"/>
					<path fill="#1C75BC" d="M272.6,379.186c0,0,0,0.003-0.006,0.009c-0.036,0.018-0.072,0.026-0.115,0.032
						c-0.149,0.029-0.241-0.014-0.241-0.014s-0.006-0.113,0.021-0.199l0.042-0.088c0.013-0.018,0.029-0.029,0.048-0.043l0,0
						c0.005,0,0.006-0.004,0.009-0.004c0.002,0,0.006,0,0.01,0l0.022-0.006h0.005h0.001h0.011c0.025,0,0.051,0.006,0.075,0.014
						c0.015,0,0.027,0.004,0.038,0.01C272.594,378.955,272.608,379.067,272.6,379.186z"/>
					<path fill="#754E35" d="M272.717,379.033c-0.002-0.015-0.005-0.021-0.009-0.029c-0.004-0.012-0.009-0.021-0.016-0.029
						c-0.006-0.014-0.014-0.026-0.026-0.041c0,0-0.028-0.039-0.071-0.071c-0.049-0.035-0.114-0.066-0.157-0.063
						c-0.012-0.002,0,0-0.034-0.002h-0.014h-0.004l0,0h-0.003h-0.006l-0.022,0.002c-0.007,0.004-0.013,0-0.023,0.004l-0.024,0.008
						c-0.011,0.005-0.02,0.005-0.025,0.007l-0.026,0.016c-0.013,0.008-0.027,0.021-0.04,0.027c-0.005,0.006-0.01,0.014-0.017,0.021
						c-0.003,0.006-0.009,0.012-0.014,0.021c-0.007,0.014-0.018,0.024-0.021,0.039c-0.01,0.024-0.015,0.053-0.016,0.077
						c-0.001,0.023,0,0.043,0.003,0.063c0.002,0.02,0.005,0.035,0.009,0.045c0.004,0.016,0.006,0.027,0.009,0.029
						c0.004,0.008,0.006,0.012,0.006,0.012s0-0.014,0.001-0.041c0.002-0.012,0.002-0.025,0.005-0.045
						c0-0.01,0.002-0.018,0.004-0.025c0.002-0.01,0.006-0.02,0.009-0.026c0-0.011,0.005-0.021,0.01-0.029
						c0.002-0.012,0.009-0.021,0.013-0.027c0.005-0.012,0.013-0.021,0.021-0.024c0.008-0.006,0.016-0.021,0.024-0.025
						c0.009-0.004,0.019-0.014,0.028-0.018c0.012-0.004,0.023-0.011,0.033-0.011l0.016-0.006c0.002,0,0.009,0,0.013,0
						c0.002,0,0.006,0,0.01,0l0.022-0.004h0.005h0.001h0.011c0.026,0,0.051,0.004,0.076,0.01c0.014,0.003,0.027,0.007,0.038,0.011
						c0.012,0.006,0.022,0.012,0.034,0.016c0.021,0.017,0.041,0.027,0.057,0.041c0.01,0.006,0.018,0.014,0.026,0.025
						c0.009,0.006,0.016,0.016,0.021,0.022c0.004,0.004,0.006,0.01,0.009,0.015c0.004,0.002,0.008,0.006,0.011,0.01
						c0.005,0.01,0.01,0.018,0.015,0.026c0.01,0.015,0.018,0.025,0.023,0.039c0.013,0.023,0.02,0.033,0.02,0.033
						s0-0.014-0.004-0.039C272.727,379.067,272.722,379.051,272.717,379.033z"/>
				</g>
				<ellipse fill="#FBAB2F" cx="271.8" cy="380.04" rx="0.483" ry="0.298"/>
				<path fill="#FFFFFF" d="M271.627,379.996c0,0-0.199,0.356,0.106,0.359c0.307,0.004,0.24-0.351,0.231-0.359
					c-0.012-0.01-0.083,0-0.083,0s-0.013,0.287-0.147,0.268c-0.134-0.022-0.037-0.272-0.037-0.272L271.627,379.996z"/>
				<path fill="#AA6A41" d="M273.336,377.346c-0.009-0.02-0.018-0.032-0.027-0.051c-0.024-0.039-0.051-0.08-0.081-0.113
					c-0.619-0.789-2.599-0.455-2.954,0.052c-0.564,0.813-0.018,1.952-0.018,1.952c0.049,0.197,0.299,0.212,0.299,0.212
					c-0.373-0.382-0.212-0.996-0.212-0.996c0.301-0.232,0.506-0.507,0.641-0.765c0.077,0.242,0.322,0.631,1.133,0.59
					c0,0-0.715-0.071-0.744-0.479c0,0,0.621,0.465,1.008,0.385c0,0-0.445-0.129-0.54-0.358c0,0,0.317,0.17,0.666,0.202
					c0.051,0.007,0.268,0.027,0.326,0.046c0.024,0.022,0.526,1.008,0.268,1.157c0,0,0.117,0.197,0.168,0.002
					C273.27,379.182,273.665,378.002,273.336,377.346z"/>
			</g>
			<circle fill="#FFFFFF" cx="270.919" cy="379.057" r="0.051"/>
			<circle fill="#FFFFFF" cx="272.3" cy="378.992" r="0.051"/>
			<path opacity="0.4" fill="none" stroke="#F8A481" stroke-width="0.039" stroke-miterlimit="10" enable-background="new    " d="
				M279.787,374.717c0.092,0.008,0.159,0.09,0.152,0.187"/>
			<path opacity="0.4" fill="none" stroke="#F8A481" stroke-width="0.039" stroke-miterlimit="10" enable-background="new    " d="
				M278.444,374.668c-0.091,0.008-0.16,0.09-0.152,0.186"/>
			<path fill="#FBB791" d="M271.684,379.258c0,0-0.102,0.285,0,0.295c0.105,0.011,0.265-0.026,0.265-0.026
				S271.332,379.85,271.684,379.258z"/>
			<g>
				<path fill="#754C29" d="M262.923,366.065V386.5h25.545v-20.436L262.923,366.065L262.923,366.065z M287.191,372.494v9.447v3.28
					h-20.436v-15.325h20.436V372.494z"/>
			</g>
		</g>
		<g display="inline">
			<rect x="489.93" y="370.865" fill="#9AD7D6" width="50.756" height="16.246"/>
			<rect x="487.641" y="366.489" fill="#68C7C2" width="55.34" height="6.356"/>
			<rect x="507.639" y="377.643" fill="#68C7C2" width="14.521" height="4.384"/>
			<rect x="509.008" y="378.352" fill="#CCEAEA" width="11.783" height="2.968"/>
		</g>
		<path display="inline" fill="#FFFFFF" d="M578.402,360.262c0,0.404-0.527,0.693-1.176,0.693H189.546
			c-0.647,0-0.704-0.289-0.704-0.693v-29.734c0-0.405,0.056-0.225,0.704-0.225h387.681c0.647,0,1.176-0.183,1.176,0.225V360.262z"/>
	</g>
	<g display="none">
		<ellipse display="inline" fill="#58595B" cx="384.645" cy="329.901" rx="41.418" ry="6.377"/>
		<g display="inline">
			<g>
				<path fill="#6D6E71" d="M391.424,326.841c0,0-5.84,1.313-7.865,1.313c-1.875,0-7.734-1.313-7.734-1.313v-14.12h15.599V326.841z"
					/>
				<path d="M479.813,309.615c0,0-71.773,5.267-96.029,5.267c-23.84,0-96.35-5.267-96.35-5.267v-108.23h192.379V309.615
					L479.813,309.615z"/>
				<rect x="293.286" y="206.359" fill="#414042" width="181.953" height="91.344"/>
			</g>
			<path fill="#E6E7E8" d="M388.494,306.073c0,2.942-2.5,5.33-5.588,5.33c-3.086,0-5.584-2.388-5.584-5.33
				c0-2.947,2.498-5.332,5.584-5.332C385.994,300.74,388.494,303.126,388.494,306.073z"/>
		</g>
	</g>
	<g id="Layer_3">
		<rect x="-2.83" y="376.505" fill="#DEB283" width="770.83" height="191.799"/>
	</g>
</g>
<g id="Layer_2">
	<g>
		<g>
			<g>
				<path d="M522.904,238.462c0,0-103.934,7.989-139.05,7.989c-34.521,0-139.513-7.989-139.513-7.989V74.247h278.563V238.462z"/>
				<rect x="252.812" y="81.792" fill="#414042" width="263.467" height="138.598"/>
			</g>
			<path fill="#E6E7E8" d="M390.674,233.088c0,4.464-3.619,8.084-8.092,8.084c-4.468,0-8.086-3.62-8.086-8.084
				c0-4.473,3.618-8.092,8.086-8.092C387.055,224.996,390.674,228.614,390.674,233.088z"/>
		</g>
	</g>
	<g>
		<g>
			<rect x="327.943" y="329.288" fill="#BCBEC0" width="132.002" height="25.646"/>
			<rect x="332.843" y="334.255" fill="#101E28" width="107.698" height="8.617"/>
			<circle fill="#808285" cx="451.074" cy="338.02" r="4.834"/>
			<circle fill="#808285" cx="437.143" cy="350" r="2.732"/>
			<circle fill="#808285" cx="428.955" cy="350.001" r="2.733"/>
			<path fill="#808285" d="M421.883,348.53c0,0.403,0.328,0.733,0.734,0.733c0.404,0,0.734-0.33,0.734-0.733
				c0-0.405-0.33-0.736-0.734-0.736C422.211,347.792,421.883,348.124,421.883,348.53z"/>
			<circle fill="#808285" cx="422.617" cy="351.599" r="0.736"/>
			<circle fill="#808285" cx="334.596" cy="350.576" r="0.736"/>
			<circle fill="#808285" cx="338.691" cy="350.576" r="0.736"/>
			<circle fill="#808285" cx="342.784" cy="350.576" r="0.736"/>
			<circle fill="#808285" cx="346.878" cy="350.576" r="0.736"/>
			<circle fill="#808285" cx="350.972" cy="350.576" r="0.736"/>
			<circle fill="#808285" cx="355.067" cy="350.576" r="0.736"/>
		</g>
		<g>
			<path d="M634.938,276.87c0,1.131-0.914,2.046-2.043,2.046h-35.775c-1.129,0-2.045-0.916-2.045-2.046v-73.08
				c0-1.129,0.916-2.044,2.045-2.044h35.775c1.129,0,2.043,0.915,2.043,2.044V276.87z"/>
			<circle fill="#1D1D1B" cx="614.496" cy="219.632" r="12.776"/>
			<circle fill="#414042" cx="614.496" cy="219.632" r="8.688"/>
			<circle fill="#1D1D1B" cx="614.496" cy="260.518" r="12.776"/>
			<circle fill="#414042" cx="614.496" cy="260.518" r="8.688"/>
		</g>
		<g>
			<path d="M170.977,277.508c0,1.13-0.916,2.045-2.045,2.045h-35.774c-1.129,0-2.044-0.915-2.044-2.045v-73.081
				c0-1.129,0.915-2.044,2.044-2.044h35.774c1.129,0,2.045,0.915,2.045,2.044V277.508z"/>
			<circle fill="#1D1D1B" cx="150.534" cy="220.269" r="12.777"/>
			<circle fill="#414042" cx="150.534" cy="220.269" r="8.688"/>
			<circle fill="#1D1D1B" cx="150.534" cy="261.154" r="12.777"/>
			<circle fill="#414042" cx="150.534" cy="261.154" r="8.688"/>
		</g>
		<path fill="#FFFFFF" d="M637.99,402.142c0,1.018-0.986,1.892-1.832,1.892H130.549c-0.847,0-1.293-0.874-1.293-1.892v-45.444
			c0-1.018,0.447-2.155,1.293-2.155h505.609c0.846,0,1.832,1.139,1.832,2.155V402.142z"/>
		<path fill="#FFFFFF" d="M637.99,354.13c0,0.4-0.986,0.411-1.832,0.411h-27.635c-0.851,0-1.611-0.011-1.611-0.411v-33.35
			c0-0.399,0.762-0.771,1.611-0.771h27.635c0.848,0,1.832,0.371,1.832,0.771V354.13L637.99,354.13z"/>
		<path fill="#FFFFFF" d="M160.332,354.13c0,0.4-1.3,0.411-2.148,0.411h-27.635c-0.847,0-1.293-0.011-1.293-0.411v-33.35
			c0-0.399,0.447-0.771,1.293-0.771h27.635c0.848,0,2.148,0.371,2.148,0.771V354.13z"/>
		
			<rect x="132.133" y="359.145" fill="#FFFFFF" stroke="#F1F2F2" stroke-width="2" stroke-miterlimit="10" width="162.864" height="36.832"/>
		
			<rect x="300.176" y="359.145" fill="#FFFFFF" stroke="#F1F2F2" stroke-width="2" stroke-miterlimit="10" width="164.015" height="36.832"/>
		
			<rect x="471.096" y="359.145" fill="#FFFFFF" stroke="#F1F2F2" stroke-width="2" stroke-miterlimit="10" width="162.865" height="36.832"/>
		<g>
			<rect x="228.816" y="331.522" fill="#8DC63F" width="28.774" height="19.565"/>
			<path fill="#AA6A41" d="M235.965,342.576"/>
			<g>
				<path fill="#FCC19C" d="M245.948,339.074l0.625,2.636c0,0,0.478,1.021,1.753,0.044l0.214-2.077l0.253-1.276L245.948,339.074z"/>
				<path opacity="0.4" fill="#F8A27F" enable-background="new    " d="M246.109,339.755c0,0,1.295,2.563,2.486-0.392
					L246.109,339.755z"/>
				<path fill="#FCC19C" d="M245.177,337.531c0,0-0.271,0.533-0.626-0.387c-0.355-0.918,0.059-1.457,0.656-0.791L245.177,337.531z"
					/>
				<path opacity="0.4" fill="#F8A481" enable-background="new    " d="M244.684,337.067c-0.065-0.243-0.038-0.59,0.061-0.62
					c0.084-0.027,0.244,0.229,0.324,0.437c0.014,0.037-0.026,0.143-0.017,0.181c0.016,0.064,0.076,0.064,0.081,0.127
					c0.008,0.159-0.123,0.098-0.193,0.122C244.837,337.341,244.844,337.672,244.684,337.067z"/>
				<path fill="#FCC19C" d="M249.39,335.005c-0.082,1.01-0.012,2.328-0.196,3.046c-0.184,0.719-0.36,0.992-0.503,1.26
					c-0.104,0.199-0.467,0.481-0.783,0.654c-0.243,0.13-0.444,0.182-0.551,0.176c-0.595-0.024-1.257-0.004-1.637-0.834
					c-0.331-0.72-0.713-1.271-0.565-2.359c0.106-0.783-0.288-1.722-0.132-2.056c0.141-0.3,0.444-0.747,0.737-0.913
					c0.463-0.263,2.399-0.315,2.861-0.047C248.974,334.137,249.411,334.743,249.39,335.005z"/>
				<path fill="#C19B91" d="M247.706,336.824c0,0,0.468-0.754,0.933-0.06C248.638,336.768,248.351,337.097,247.706,336.824z"/>
				<path fill="#F8A27F" d="M245.643,336.768c0.106,0.206,0.607,0.443,0.934,0.058"/>
				<path fill="#F8A27F" d="M247.721,336.824c0.105,0.205,0.61,0.35,0.935-0.037"/>
				<polygon fill="#FFFFFF" points="246.253,338.747 247.083,338.777 247.938,338.779 247.095,339.245 				"/>
				<path fill="#FFFFFF" d="M247.706,336.824c0,0,0.352-0.465,0.933-0.06C248.638,336.768,248.351,337.097,247.706,336.824z"/>
				<g>
					<path fill="#3F3E40" d="M248.374,336.698c-0.027-0.139-0.197-0.154-0.294-0.13c-0.098,0.023-0.164,0.081-0.135,0.216
						c0.021,0.098,0.163,0.169,0.262,0.144C248.303,336.904,248.394,336.799,248.374,336.698z"/>
					<path fill="#1B181C" d="M248.248,336.714c-0.011-0.043-0.079-0.057-0.121-0.047c-0.044,0.013-0.065,0.058-0.057,0.101
						c0.011,0.043,0.064,0.071,0.109,0.061C248.223,336.813,248.259,336.759,248.248,336.714"/>
					<path fill="#FFFFFF" d="M248.18,336.74c0.01,0.023,0.051,0.023,0.077,0.013c0.024-0.013,0.031-0.04,0.021-0.063
						c-0.011-0.025-0.044-0.033-0.068-0.022C248.183,336.679,248.168,336.714,248.18,336.74z"/>
				</g>
				<path fill="#F8A27F" d="M248.638,336.768c-0.464-0.695-0.933,0.058-0.933,0.058S248.057,336.36,248.638,336.768z"/>
				<path fill="#C19B91" d="M246.576,336.824c0,0-0.469-0.754-0.934-0.06C245.643,336.768,245.93,337.097,246.576,336.824z"/>
				<path fill="#FFFFFF" d="M246.576,336.824c0,0-0.391-0.572-0.934-0.06C245.643,336.768,245.93,337.097,246.576,336.824z"/>
				<g>
					<path fill="#3F3E40" d="M245.85,336.698c0.027-0.139,0.197-0.154,0.292-0.13c0.097,0.023,0.162,0.081,0.132,0.215
						c-0.019,0.097-0.161,0.166-0.257,0.142C245.921,336.901,245.83,336.797,245.85,336.698z"/>
					<path fill="#1B181C" d="M245.975,336.714c0.01-0.044,0.078-0.059,0.12-0.047c0.044,0.012,0.065,0.055,0.055,0.098
						c-0.009,0.043-0.063,0.069-0.107,0.061C246,336.813,245.964,336.759,245.975,336.714"/>
					<path fill="#FFFFFF" d="M246.044,336.739c-0.012,0.022-0.052,0.025-0.076,0.015c-0.024-0.013-0.033-0.04-0.021-0.065
						c0.011-0.022,0.045-0.032,0.068-0.021C246.04,336.679,246.054,336.714,246.044,336.739z"/>
				</g>
				<path fill="#F8A27F" d="M245.643,336.768c0.465-0.695,0.934,0.058,0.934,0.058S246.186,336.286,245.643,336.768z"/>
				<path d="M248.561,336.039c-0.07-0.063-0.665-0.057-0.746-0.058c-0.046-0.003-0.041,0.077-0.045,0.129
					c-0.004,0.053,0.019,0.116,0.106,0.123c0.021,0,0.407-0.067,0.569-0.085c0.101-0.014,0.47,0.198,0.5,0.184
					C248.998,336.311,248.57,336.046,248.561,336.039z"/>
				<path d="M245.81,335.938c0.074-0.055,0.666-0.002,0.746,0.003c0.046,0.005,0.035,0.082,0.035,0.134
					c0,0.053-0.029,0.114-0.116,0.109c-0.021,0-0.398-0.097-0.559-0.129c-0.101-0.019-0.488,0.158-0.516,0.146
					C245.35,336.172,245.799,335.945,245.81,335.938z"/>
				<path fill="none" d="M247.024,339.085l0.307-0.021l0.682-0.32c0,0-0.526,0.047-0.694,0.054
					c-0.063,0.003-0.255,0.033-0.255,0.033s-0.22-0.049-0.293-0.041c-0.15,0.011-0.584-0.08-0.584-0.08l0.574,0.333L247.024,339.085
					z"/>
				<path fill="#F9B6B4" d="M247.331,339.065l-0.308,0.021l-0.264-0.042l-0.574-0.333c0,0,0.441,0.551,0.574,0.567
					c0.171,0.021,0.532,0.038,0.699,0.003c0.146-0.031,0.554-0.536,0.554-0.536L247.331,339.065z"/>
				<path fill="#F8A27F" d="M246.769,338.788c0.074-0.006,0.293,0.043,0.293,0.043s0.191-0.03,0.255-0.033
					c0.168-0.007,0.694-0.054,0.694-0.054s-0.548-0.145-0.714-0.146c-0.074,0-0.235,0.08-0.235,0.08s-0.192-0.087-0.26-0.083
					c-0.173,0.015-0.618,0.113-0.618,0.113S246.619,338.801,246.769,338.788z"/>
				<path fill="#FCC19C" d="M249.239,337.531c0,0,0.269,0.533,0.625-0.387c0.358-0.918-0.088-1.414-0.54-0.815L249.239,337.531z"/>
				<path opacity="0.4" fill="#F8A481" enable-background="new    " d="M249.735,336.938c0.063-0.244,0.035-0.588-0.063-0.619
					c-0.083-0.029-0.245,0.228-0.324,0.437c-0.014,0.036,0.027,0.142,0.017,0.177c-0.016,0.068-0.077,0.068-0.08,0.127
					c-0.006,0.16,0.123,0.1,0.195,0.123C249.578,337.212,249.573,337.542,249.735,336.938z"/>
				<path d="M245.981,334.707c0.031-0.063,0.43,0.604,0.736,0.703c-0.086-0.11-0.129-0.234-0.109-0.371
					c0.24,0.269,0.539,0.405,0.85,0.576c-0.034-0.139-0.158-0.272-0.131-0.43c0.134,0.098,0.298,0.146,0.455,0.206
					c0.002-0.111-0.022-0.252,0.091-0.313c0.057,0.106,0.235,0.142,0.347,0.193c0.019-0.157,0.025-0.358,0.104-0.5
					c0.317,0.152,0.592,0.228,0.704,0.57c0.092,0.283,0.142,0.564,0.144,0.863l0.003,0.511l0.036,0.089c0,0,0.317-1.028,0.136-2.362
					c0,0,0.18-1.096-2.146-1.204c-1.799-0.081-2.376,0.765-2.376,1.658c0,0-0.016,1.361,0.362,1.942l0.057-0.081
					c0,0-0.048-1.426-0.019-1.321C245.225,335.439,245.895,334.875,245.981,334.707z"/>
				<path fill="#1C75BC" d="M246.419,341.059c0,0,0.907,2.017,1.985-0.047c0,0,1.119-0.187,1.671-0.094
					c0.552,0.091,1.014,0.008,1.577,1.396c0.561,1.386,0.534,2.167,0.534,2.167s-0.955,0.771-1.933,0.646
					c0,0,0.218,2.63,0.281,3.141c0.062,0.511,0.049,1.596,0.1,2.243c0.046,0.566,0.123,1.031,0.145,1.214
					c0,0-2.778,2.337-6.822,0.135c-0.1-0.155,0.449-6.955,0.449-6.955s-0.966,0.323-1.882-0.599c0,0,0.56-1.747,1.003-2.488
					c0,0,0.249-0.513,1.042-0.471C245.359,341.391,246.419,341.059,246.419,341.059z"/>
				<path fill="#FCC19C" d="M242.727,344.505c0.691,0.349,1.458,0.411,1.458,0.411s-0.115,0.402-0.223,0.762
					c-0.068,0.22-0.187,0.469-0.149,0.907c0.055,0.654-0.255,2.517-0.228,3.15c0.005,0.108,0.021,0.212,0.043,0.311
					c0.108,0.325,0.191,0.515,0.245,0.62c0.033,0.058,0.062,0.102,0.083,0.132c0.192,0.129,0.352,0.475,0.389,0.538
					c0.038,0.067,0.092,0.667,0.123,0.936c0.016,0.145,0.01,0.61,0.01,0.61c-0.36,0.215-0.429-0.288-0.414-0.417
					c0.019-0.127-0.104-0.406-0.104-0.406c-0.233-0.019-0.286,0.349-0.286,0.349s0.13,0.412,0.251,0.491
					c0.029,0.019,0.149,0.092,0.184,0.096c0.854,0.122,0.447,0.344,0.447,0.344c-0.814,0.15-1.049-0.286-1.049-0.286
					s-0.358-0.382-0.498-0.535c-0.139-0.154-0.177-0.377-0.144-0.645c0.011-0.089,0-0.32-0.02-0.591
					c-0.015-0.067-0.086-0.387-0.082-0.517c0.007-0.143-0.142-1.354-0.142-1.354C242.235,347.774,242.727,344.505,242.727,344.505z"
					/>
				<path fill="#FCC19C" d="M252.06,344.599c-0.697,0.35-1.387,0.495-1.387,0.495s0.057,0.206,0.16,0.558
					c0.063,0.215,0.18,0.457,0.137,0.888c-0.064,0.641,0.217,2.465,0.18,3.087c-0.008,0.107-0.024,0.208-0.048,0.306
					c-0.114,0.318-0.2,0.506-0.254,0.61c-0.034,0.058-0.064,0.101-0.084,0.131c-0.195,0.127-0.359,0.47-0.397,0.532
					c-0.04,0.066-0.101,0.657-0.136,0.919c-0.018,0.142-0.019,0.6-0.019,0.6c0.356,0.206,0.434-0.289,0.419-0.413
					c-0.016-0.122,0.11-0.398,0.11-0.398c0.232-0.023,0.279,0.336,0.279,0.336s-0.137,0.406-0.26,0.484
					c-0.027,0.02-0.148,0.093-0.183,0.097c-0.857,0.129-0.452,0.343-0.452,0.343c0.812,0.136,1.052-0.295,1.052-0.295
					s0.364-0.381,0.505-0.531c0.142-0.153,0.184-0.372,0.155-0.636c-0.009-0.083,0.006-0.313,0.028-0.577
					c0.016-0.067,0.093-0.382,0.087-0.508c-0.004-0.142,0.163-1.33,0.163-1.33C252.527,347.686,252.06,344.599,252.06,344.599z"/>
				<path fill="#256AB4" d="M248.273,343.797c0,0-0.026,1.122,0.098,1.611c0,0,0.911,0.102,1.369-0.188c0,0-0.158-1.297-0.032-1.567
					C249.709,343.651,249.152,343.902,248.273,343.797z"/>
				<path fill="#256AB4" d="M247.706,341.858c0,0-0.257,0.083-0.334,0.083c-0.069,0-0.324-0.104-0.324-0.104
					s0.086,1.079,0.072,2.397c0,0,0.275,0.249,0.667,0L247.706,341.858z"/>
				<g>
					<path fill="#282929" d="M247.586,342.593c-0.001,0.093-0.075,0.163-0.167,0.163c-0.092-0.001-0.165-0.072-0.165-0.163
						c0-0.089,0.074-0.163,0.167-0.163C247.513,342.43,247.586,342.506,247.586,342.593z"/>
				</g>
				<g>
					<path fill="#282929" d="M247.586,343.337c-0.001,0.089-0.075,0.165-0.167,0.165c-0.092-0.003-0.165-0.076-0.165-0.165
						s0.074-0.164,0.167-0.164C247.513,343.173,247.586,343.247,247.586,343.337z"/>
				</g>
				<g opacity="0.4">
					<path id="XMLID_4_" fill="#F8A27F" d="M246.587,338.156c0,0,0.158,0.118,0.24,0.122c0.036,0.001,0.08,0.004,0.118,0.009l0,0
						l0,0c0.04-0.005,0.084-0.008,0.118-0.009c0.083-0.004,0.234-0.122,0.234-0.122c-0.139-0.017-0.251-0.021-0.354-0.02l0,0
						C246.838,338.133,246.727,338.14,246.587,338.156z"/>
					<path id="XMLID_3_" fill="#F8A27F" d="M246.731,337.842c-0.022,0.048-0.115,0.225-0.115,0.225l0.154-0.036l0.056-0.198
						l0.085-0.885C246.877,337.104,246.752,337.798,246.731,337.842z"/>
				</g>
			</g>
			<g>
				<path fill="#FCC19C" d="M244.666,351.283c0,0,0.084,0.916,0.208,1.212c0.124,0.3-0.434,1.23-0.915,1.334
					c-0.264,0.058-0.107-1.418-0.107-1.418l0.135-1.354L244.666,351.283z"/>
				<path fill="#F15A29" d="M239.241,342.353c0,0-2.587,0.449-2.563,1.041c0.087,2.146,1.471,2.165,1.572,3.347
					c0.304,3.566-0.664,4.942-0.664,4.942s0.765,0.293,3.222,0.293c2.458,0,2.878-0.236,2.965-0.347l1.116,0.951
					c0,0,0.2-3.297-0.463-7.554c-0.254-1.645-0.408-2.065-0.661-2.196c-0.251-0.131-1.82-0.348-1.82-0.348L239.241,342.353z"/>
				<path fill="#FCC19C" d="M239.971,340.645c0,0,0.34,1.33-0.395,1.749l1.269,3.141l1.111-3.121c0,0-0.547-0.097-0.421-1.892
					L239.971,340.645z"/>
				<path opacity="0.4" fill="#F8A27F" enable-background="new    " d="M240.03,341.618c0.024,0.009,0.049,0.023,0.072,0.04
					c0.471,0.365,0.974,0.157,1.443-0.104c-0.031-0.258-0.042-0.597-0.011-1.035l-1.564,0.125
					C239.971,340.645,240.097,341.137,240.03,341.618z"/>
				<path fill="#FCC19C" d="M243.12,337.403c-0.029-0.233-0.084-0.502-0.205-0.956c0,0-1.558-0.688-2.114-0.688
					c-0.552,0.003-2.099,0.688-2.099,0.688c-0.121,0.454-0.176,0.723-0.205,0.956c-0.058,0.43-0.104,1.774,0.222,2.402
					c0.272,0.524,1.463,1.899,2.083,1.85c0.002,0,0.004,0.004,0.006,0.003c0.003,0.001,0.006,0.002,0.008,0.002
					c0.62,0.051,1.869-1.307,2.084-1.854C243.165,339.125,243.178,337.832,243.12,337.403z"/>
				<path fill="#F8A27F" d="M241.251,338.852c0.121,0.236,0.872,0.447,1.135-0.101"/>
				<g>
					<path fill="#FFFFFF" d="M241.243,338.824c0,0,0.291-0.833,1.144-0.073c0,0-0.225,0.275-0.604,0.259
						C241.633,339.003,241.416,338.967,241.243,338.824z"/>
					<circle fill="#36469D" cx="241.834" cy="338.761" r="0.244"/>
					<circle fill="#251619" cx="241.834" cy="338.762" r="0.101"/>
					<path fill="#FFFFFF" d="M241.792,338.721c-0.004,0.036-0.037,0.063-0.074,0.056c-0.036-0.001-0.061-0.036-0.057-0.073
						c0.005-0.035,0.04-0.061,0.076-0.056C241.772,338.653,241.798,338.684,241.792,338.721z"/>
					<g>
						<path fill="#251619" d="M241.243,338.824c0,0,0.025-0.088,0.109-0.197c0.083-0.107,0.25-0.229,0.451-0.236
							c0.064-0.005,0.092,0.007,0.14,0.012c0.043,0.008,0.093,0.026,0.136,0.04c0.085,0.031,0.149,0.086,0.201,0.132
							c0.1,0.097,0.132,0.182,0.132,0.182s-0.075-0.051-0.187-0.105c-0.057-0.029-0.125-0.05-0.192-0.073
							c-0.036-0.009-0.063-0.021-0.105-0.023l-0.119-0.008c-0.15-0.002-0.296,0.072-0.398,0.144
							C241.305,338.758,241.243,338.824,241.243,338.824z"/>
					</g>
				</g>
				<path fill="#F8A27F" d="M240.306,338.852c-0.121,0.236-0.873,0.447-1.135-0.101"/>
				<g>
					<path fill="#FFFFFF" d="M240.314,338.824c0,0-0.291-0.833-1.144-0.073c0,0,0.225,0.275,0.604,0.259
						C239.925,339.003,240.142,338.967,240.314,338.824z"/>
					<circle fill="#36469D" cx="239.723" cy="338.761" r="0.244"/>
					<circle fill="#251619" cx="239.724" cy="338.761" r="0.1"/>
					<path fill="#FFFFFF" d="M239.765,338.721c0.005,0.036,0.04,0.063,0.075,0.056c0.037-0.001,0.061-0.036,0.056-0.073
						c-0.004-0.035-0.038-0.061-0.074-0.056C239.785,338.653,239.761,338.684,239.765,338.721z"/>
					<g>
						<path fill="#251619" d="M240.314,338.824c0,0-0.061-0.069-0.165-0.139c-0.102-0.072-0.249-0.145-0.4-0.143l-0.12,0.008
							c-0.042,0.003-0.071,0.016-0.105,0.023c-0.067,0.021-0.137,0.044-0.192,0.073c-0.113,0.054-0.188,0.105-0.188,0.105
							s0.032-0.085,0.133-0.183c0.053-0.045,0.115-0.102,0.202-0.133c0.043-0.013,0.094-0.032,0.137-0.038
							c0.046-0.006,0.075-0.017,0.138-0.012c0.202,0.006,0.371,0.126,0.453,0.234C240.29,338.737,240.314,338.824,240.314,338.824z"
							/>
					</g>
				</g>
				<g>
					<path fill="#AA6A41" d="M242.54,338.38c0,0-0.005-0.005-0.01-0.013c-0.006-0.01-0.014-0.022-0.026-0.038
						c-0.024-0.034-0.061-0.077-0.116-0.117c-0.025-0.021-0.056-0.042-0.088-0.061c-0.035-0.017-0.071-0.033-0.11-0.046
						c-0.039-0.011-0.079-0.021-0.122-0.024c-0.042-0.009-0.827,0.126-0.827,0.126l-0.009,0.003
						c-0.061,0.021-0.127-0.013-0.149-0.074c-0.019-0.059,0.008-0.119,0.06-0.145c0,0,0.007-0.003,0.019-0.008
						c0.013-0.005,0.029-0.015,0.049-0.021c0.043-0.019,0.104-0.04,0.18-0.059c0.037-0.011,0.078-0.02,0.122-0.022
						c0.041-0.01,0.091-0.021,0.141-0.022c0.052-0.004,0.098-0.009,0.145-0.009h0.035l0.023,0.009l0.02,0.006l0.078,0.011
						c0.052,0.01,0.104,0.02,0.154,0.038c0.049,0.015,0.098,0.034,0.141,0.059c0.042,0.024,0.084,0.054,0.118,0.082
						c0.036,0.028,0.065,0.058,0.09,0.087c0.049,0.063,0.078,0.12,0.096,0.16c0.008,0.021,0.013,0.037,0.016,0.049
						c0.004,0.014,0.004,0.019,0.004,0.019c0.002,0.012-0.004,0.021-0.015,0.021C242.551,338.392,242.543,338.389,242.54,338.38z"/>
					<path fill="#AA6A41" d="M238.646,338.38c0,0,0.003-0.005,0.009-0.013c0.006-0.01,0.014-0.022,0.026-0.038
						c0.024-0.034,0.061-0.077,0.116-0.117c0.026-0.021,0.056-0.042,0.088-0.061c0.035-0.017,0.07-0.033,0.109-0.046
						c0.038-0.011,0.08-0.021,0.123-0.024c0.042-0.009,0.827,0.126,0.827,0.126l0.01,0.003c0.061,0.021,0.127-0.013,0.15-0.074
						c0.018-0.059-0.009-0.119-0.063-0.145c0,0-0.006-0.003-0.017-0.008c-0.012-0.005-0.029-0.015-0.049-0.021
						c-0.044-0.019-0.104-0.04-0.179-0.059c-0.037-0.011-0.079-0.02-0.122-0.022c-0.042-0.01-0.091-0.021-0.141-0.022
						c-0.051-0.004-0.098-0.009-0.145-0.009h-0.035l-0.023,0.009l-0.02,0.006l-0.078,0.011c-0.053,0.01-0.104,0.02-0.154,0.038
						c-0.05,0.015-0.099,0.034-0.142,0.059c-0.044,0.024-0.083,0.054-0.12,0.082c-0.035,0.028-0.063,0.058-0.089,0.087
						c-0.049,0.063-0.079,0.12-0.095,0.16c-0.009,0.021-0.012,0.037-0.017,0.049c-0.003,0.014-0.004,0.019-0.004,0.019
						c-0.002,0.012,0.004,0.021,0.014,0.021C238.636,338.392,238.644,338.389,238.646,338.38z"/>
				</g>
				<g>
					<g>
						<path fill="#F8A27F" d="M240.461,339.525c-0.04,0.063-0.075,0.129-0.064,0.193c0.003,0.034,0.02,0.068,0.04,0.081
							c0.022,0.016,0.055,0.023,0.083,0.024h-0.003c0.014-0.001,0.001-0.001,0.04-0.017c0.048,0.019,0.028,0.027,0.043,0.037
							c0.014,0.016,0.033,0.024,0.057,0.036c0.046,0.019,0.093,0.036,0.144,0.044c-0.052,0.008-0.106,0.006-0.155-0.013
							c-0.024-0.007-0.055-0.02-0.077-0.038c-0.004-0.008-0.031-0.029-0.009-0.019c0.014-0.006-0.018,0.016-0.029,0.019h-0.003l0,0
							c-0.043,0.006-0.088-0.003-0.123-0.036c-0.036-0.036-0.044-0.076-0.046-0.114C240.35,339.639,240.404,339.569,240.461,339.525
							z"/>
					</g>
					<g>
						<path fill="#F8A27F" d="M241.141,339.525c0.059,0.044,0.111,0.113,0.105,0.197c-0.001,0.04-0.011,0.08-0.047,0.115
							c-0.035,0.032-0.079,0.041-0.122,0.037l0,0l-0.004-0.002c-0.012-0.001-0.042-0.021-0.029-0.02
							c0.023-0.012-0.004,0.014-0.009,0.019c-0.022,0.021-0.051,0.032-0.076,0.04c-0.051,0.019-0.107,0.02-0.158,0.013
							c0.052-0.009,0.099-0.026,0.146-0.044c0.023-0.012,0.042-0.021,0.058-0.038c0.014-0.008-0.006-0.019,0.043-0.035
							c0.037,0.015,0.024,0.014,0.039,0.017h-0.004c0.029-0.002,0.062-0.01,0.083-0.024c0.02-0.013,0.038-0.047,0.04-0.082
							C241.217,339.654,241.182,339.587,241.141,339.525z"/>
					</g>
				</g>
				<g>
					<g>
						<path fill="#BE1E2D" d="M241.054,340.242c-0.157,0-0.236,0.091-0.236,0.091s-0.078-0.091-0.235-0.091
							c-0.157,0-0.243,0.252-0.5,0.212c0,0,0.263,0.584,0.734,0.584c0.47,0,0.789-0.584,0.789-0.584
							C241.383,340.465,241.211,340.242,241.054,340.242z"/>
						<path fill="#FFFFFF" d="M240.195,340.521c0,0,0.234,0.346,0.638,0.346c0.407,0,0.64-0.34,0.64-0.34s-0.324-0.083-0.673-0.083
							C240.454,340.442,240.195,340.521,240.195,340.521z"/>
					</g>
				</g>
				<g>
					<path fill="#EF4136" d="M237.563,351.582c0,0,0.044-0.086,0.098-0.236c0.063-0.146,0.125-0.37,0.206-0.637
						c0.037-0.136,0.062-0.285,0.097-0.443c0.034-0.154,0.072-0.321,0.085-0.499c0.021-0.173,0.042-0.354,0.063-0.537
						c0.025-0.184,0.011-0.372,0.019-0.559c0.003-0.188,0.005-0.377,0.008-0.563c-0.019-0.185-0.036-0.367-0.053-0.541
						c-0.018-0.178-0.035-0.348-0.049-0.507c-0.013-0.162-0.061-0.311-0.086-0.448c-0.121-0.555-0.202-0.923-0.202-0.923
						s0.095,0.365,0.237,0.916c0.03,0.137,0.085,0.282,0.103,0.443c0.022,0.162,0.046,0.333,0.07,0.509
						c0.024,0.179,0.048,0.359,0.074,0.544c0.004,0.188,0.008,0.379,0.014,0.566c0,0.19,0.021,0.381,0.003,0.567
						c-0.015,0.188-0.03,0.372-0.043,0.55c-0.007,0.18-0.041,0.349-0.068,0.512c-0.03,0.16-0.05,0.315-0.083,0.454
						c-0.071,0.279-0.128,0.513-0.189,0.674c-0.054,0.163-0.091,0.248-0.091,0.248L237.563,351.582z"/>
				</g>
				<g>
					<path fill="#EF4136" d="M243.728,351.721c0,0-0.031-0.084-0.074-0.246c-0.05-0.158-0.092-0.388-0.151-0.659
						c-0.035-0.274-0.106-0.595-0.12-0.941c-0.031-0.348-0.054-0.716-0.043-1.085c-0.009-0.371,0.014-0.737,0.049-1.081
						c0.025-0.346,0.053-0.665,0.109-0.938c0.091-0.541,0.154-0.905,0.154-0.905s-0.047,0.364-0.118,0.912
						c-0.046,0.271-0.06,0.591-0.072,0.937c-0.021,0.343-0.03,0.708-0.006,1.074c0.003,0.367,0.04,0.729,0.084,1.068
						c0.027,0.342,0.11,0.65,0.154,0.92c0.069,0.264,0.119,0.486,0.171,0.633c0.045,0.148,0.08,0.234,0.08,0.234L243.728,351.721z"
						/>
				</g>
				<g>
					<path fill="#EF4136" d="M240.323,346.929c0,0-0.034,0.021-0.093,0.056c-0.061,0.03-0.136,0.094-0.25,0.133
						c-0.111,0.044-0.245,0.093-0.396,0.107c-0.15,0.02-0.316,0.015-0.479-0.026c-0.324-0.101-0.564-0.356-0.667-0.57
						c-0.109-0.217-0.125-0.374-0.125-0.374s0.061,0.146,0.2,0.328c0.132,0.18,0.356,0.392,0.636,0.467
						c0.138,0.04,0.285,0.054,0.423,0.043c0.14-0.012,0.269-0.026,0.378-0.06C240.172,346.979,240.323,346.929,240.323,346.929z"/>
				</g>
				<g>
					<path fill="#EF4136" d="M243.493,346.253c0,0-0.014,0.16-0.125,0.375c-0.054,0.106-0.137,0.225-0.249,0.329
						c-0.114,0.105-0.261,0.187-0.42,0.24c-0.161,0.039-0.327,0.048-0.479,0.028c-0.151-0.018-0.285-0.065-0.395-0.109
						c-0.113-0.036-0.191-0.104-0.253-0.132c-0.058-0.036-0.092-0.056-0.092-0.056s0.152,0.05,0.373,0.104
						c0.111,0.031,0.241,0.047,0.38,0.06c0.138,0.011,0.285-0.004,0.422-0.044c0.28-0.074,0.504-0.283,0.636-0.467
						C243.433,346.401,243.493,346.253,243.493,346.253z"/>
				</g>
				<path fill="#FBD578" d="M243.811,336.523c0,0-0.312-1.523-1.618-1.342c0,0-1.175-1.048-2.775-0.552c0,0-0.953,0.294-1.487,1.453
					c0,0-0.257,0.625-0.527,0.864c-0.157,0.141-0.624-0.255-0.787,0.225c-0.072,0.208-0.063,0.438,0.043,0.633
					c0.056,0.103,0.137,0.199,0.26,0.243c0,0-0.027,0.026-0.066,0.07c-0.398,0.494-0.086,1.247,0.545,1.296
					c0.08,0.007,0.16,0,0.238-0.023c0,0,0.097,1.464,1.568,1.095c0,0-0.679-1.104-0.585-1.193c0.197-0.195,0.674-0.209,0.82-1.27
					c0.034-0.238,0.086-0.471,0.173-0.694c0.223-0.581,0.722-1.423,1.7-1.265c0,0,0.718,0.088,1.037,0.604
					c0.095,0.158,0.137,0.341,0.134,0.521c-0.008,0.338,0.024,1.307,0.63,1.519l0,0c0,0-0.18,1.066-0.725,1.767
					c-0.087,0.114,1.386,0.257,1.458-0.994c0,0,0.192-0.096,0.43-0.354c0.215-0.236,0.291-1.027,0.12-1.604
					C244.257,337.048,243.893,336.787,243.811,336.523z"/>
				<g>
					<circle fill="#FFFFFF" cx="241.164" cy="343.273" r="0.137"/>
					<circle fill="#FFFFFF" cx="239.841" cy="342.884" r="0.137"/>
					<path fill="#FFFFFF" d="M241.003,343.336c0,0.077-0.062,0.139-0.137,0.139c-0.075,0-0.137-0.062-0.137-0.139
						c0-0.073,0.062-0.135,0.137-0.135C240.941,343.201,241.003,343.263,241.003,343.336z"/>
					<path fill="#FFFFFF" d="M240.667,343.336c0,0.077-0.061,0.139-0.136,0.139c-0.076,0-0.137-0.062-0.137-0.139
						c0-0.073,0.062-0.135,0.137-0.135C240.604,343.2,240.667,343.263,240.667,343.336z"/>
					<circle fill="#FFFFFF" cx="240.031" cy="343.058" r="0.137"/>
					<circle fill="#FFFFFF" cx="240.245" cy="343.248" r="0.137"/>
					<path fill="#FFFFFF" d="M239.841,342.641c0,0.077-0.06,0.138-0.137,0.138c-0.076,0-0.136-0.061-0.136-0.138
						c0-0.074,0.06-0.135,0.136-0.135S239.841,342.566,239.841,342.641z"/>
					<circle fill="#FFFFFF" cx="239.57" cy="342.434" r="0.137"/>
					<circle fill="#FFFFFF" cx="242.002" cy="342.558" r="0.138"/>
					<circle fill="#FFFFFF" cx="241.812" cy="342.779" r="0.137"/>
					<circle fill="#FFFFFF" cx="241.612" cy="342.957" r="0.137"/>
					<circle fill="#FFFFFF" cx="241.392" cy="343.121" r="0.138"/>
					<path fill="#FFFFFF" d="M240.824,344.304"/>
				</g>
				<path fill="none" stroke="#F8A27F" stroke-width="0.0965" stroke-miterlimit="10" d="M240.063,340.245
					c-0.078-0.02-0.222,0.126-0.2,0.202"/>
				<path fill="none" stroke="#F8A27F" stroke-width="0.0965" stroke-miterlimit="10" d="M241.681,340.313
					c0.075-0.021,0.221,0.122,0.198,0.199"/>
			</g>
			<path fill="#FBB791" d="M237.425,344.441c0,0-0.156,0.435,0,0.447c0.157,0.017,0.4-0.041,0.4-0.041
				S236.887,345.34,237.425,344.441z"/>
			<g>
				<g>
					<path fill="#00A79D" d="M239.654,352.836c-0.365,0.222-0.951-0.329-1.042-0.618c-0.026-0.082,0.009-0.205,0.077-0.325
						c0.005-0.013,0.012-0.023,0.019-0.033c0.096-0.157,0.144-0.417-0.101-0.792c-0.129-0.198-0.229-0.387-0.306-0.563
						c-0.433-1.002,0.154-1.171,0.154-1.171c2.177,0.465,1.338,2.471,0.927,2.861C239.348,352.227,239.887,352.698,239.654,352.836z
						"/>
					<path fill="#00A79D" d="M238.872,350.042c-0.109,0.146-0.229,0.276-0.356,0.384c-0.288,0.241-0.618,0.381-0.971,0.381
						c-1.091,0-1.974-1.313-1.976-2.938c0-1.622,0.883-2.938,1.973-2.938s1.973,1.315,1.975,2.937
						C239.518,348.73,239.268,349.502,238.872,350.042z"/>
					<path fill="#00A79D" d="M235.894,348.856c0,0-0.221,1.016,0.815,2.162c0.301,0.33,0.294,0.595,0.226,0.765
						c-0.06,0.145-0.083,0.289-0.041,0.372c0.135,0.27,0.8,0.722,1.126,0.45c0.208-0.179-0.399-0.559-0.368-0.596
						c0.232-0.306,0.603-1.384-0.026-2.222C237.322,349.382,236.788,349.035,235.894,348.856z"/>
					<path fill="#FCC19C" d="M240.29,348.1l-0.568,0.357c0,0-0.031,0.408,0.109,0.556c0.141,0.147,0.12-0.165,0.12-0.165
						s0.012,0.51,0.276,0.384C240.492,349.106,240.677,348.422,240.29,348.1z"/>
					<path fill="#00A79D" d="M238.855,345.642c0,0,1.749,0.706,1.599,2.68c-0.01,0.116-0.732,0.136-0.732,0.136
						s-0.275-1.969-1.95-1.607L238.855,345.642z"/>
					<path fill="#603913" d="M237.893,346.678c-0.017,0.075-0.092,0.128-0.17,0.11c-0.078-0.014-0.13-0.09-0.112-0.169
						c0.016-0.078,0.091-0.129,0.169-0.112C237.858,346.523,237.907,346.598,237.893,346.678z"/>
					<circle fill="#603913" cx="237.811" cy="347.101" r="0.144"/>
				</g>
				<path fill="#FCC19C" d="M237.624,349.754c0,0,0.747,0.224,1.029,0.082c0.283-0.141,0.411,0.01,0.295,0.136
					c-0.318,0.346-0.708,0.093-0.708,0.093s0.576,0.189,0.846,0.056c0.193-0.098,0.221-0.01,0.221-0.01s0.167,0.536-0.108,0.767
					c-0.274,0.229-1.241,0.451-1.848-0.226L237.624,349.754z"/>
				<path fill="#FBB791" d="M239.338,344.023c-0.206,0.232-0.321,0.73-0.219,0.879c0.101,0.146,0.353,0.079,0.559-0.154
					c0.206-0.236,0.264-0.578,0.163-0.725C239.738,343.874,239.545,343.788,239.338,344.023z"/>
				<path fill="#F15A29" d="M238.178,342.403c0,0-3.088,3.309-3.562,4.964c-0.515,1.812-0.13,1.536,2.698,3.365l0.553-0.957
					c0,0-2.111-0.979-2.158-2.053c-0.032-0.729,1.574-2.858,2.468-3.247"/>
				<path fill="#FBB791" d="M235.671,344.132c0.207,0.233,0.324,0.731,0.22,0.88c-0.101,0.147-0.35,0.077-0.558-0.153
					c-0.207-0.234-0.265-0.577-0.164-0.727C235.273,343.985,235.464,343.899,235.671,344.132z"/>
				<g>
					<path fill="#00A79D" d="M236.49,345.571c0,0-1.861,1.521-1.551,2.707c0.143,0.542,0.633,0.22,0.633,0.22
						s0.537-1.119,1.237-1.34L236.49,345.571z"/>
					<path fill="#FCC19C" d="M234.962,348.227l0.603,0.299c0,0,0.075,0.396-0.049,0.56c-0.125,0.162-0.137-0.15-0.137-0.15
						s0.043,0.51-0.234,0.41C234.868,349.247,234.611,348.589,234.962,348.227z"/>
				</g>
				<path fill="#FCC19C" d="M237.456,341.25c1.203,0,2.177,0.643,2.179,2.053c0,1.411-0.87,2.989-2.073,2.99
					c-1.204,0-2.142-1.48-2.274-2.889C235.155,341.973,236.252,341.25,237.456,341.25z"/>
				<g>
					<path fill="#FFFFFF" d="M236.968,344.462c0,0-0.216,0.165-0.467,0.158c-0.276-0.009-0.266-0.103-0.266-0.103
						s-0.065-0.358,0.204-0.427c0.027-0.01,0.057-0.013,0.09-0.013C236.749,344.079,236.943,344.253,236.968,344.462z"/>
					<path fill="#1C75BC" d="M236.793,344.551c0,0-0.001,0.005-0.006,0.011c-0.049,0.021-0.095,0.037-0.156,0.049
						c-0.199,0.032-0.323-0.021-0.323-0.021s-0.009-0.146,0.023-0.257l0.059-0.122c0.018-0.024,0.041-0.046,0.065-0.063
						c0,0,0,0,0.001,0c0.003-0.002,0.008-0.005,0.011-0.008c0.005,0,0.008-0.002,0.012-0.002l0.029-0.003h0.006l0.005-0.001h0.004
						l0.009,0.001c0.034,0,0.07,0.005,0.103,0.014c0.016,0.003,0.034,0.011,0.05,0.017
						C236.787,344.242,236.804,344.39,236.793,344.551z"/>
					<path fill="#754E35" d="M236.963,344.408c-0.001-0.02-0.007-0.04-0.015-0.063c-0.002-0.013-0.006-0.024-0.011-0.038
						s-0.011-0.026-0.019-0.042c-0.014-0.026-0.032-0.057-0.058-0.084c-0.022-0.029-0.053-0.056-0.085-0.079
						c-0.07-0.043-0.156-0.072-0.244-0.072h-0.017h-0.005h-0.002l-0.003,0.002l-0.007,0.001h-0.007
						c-0.059-0.001-0.145,0.045-0.2,0.098c-0.052,0.049-0.067,0.096-0.067,0.096s-0.026,0.066-0.027,0.094
						c-0.002,0.034,0,0.062,0.004,0.086c0.001,0.025,0.008,0.046,0.013,0.062c0.003,0.02,0.009,0.032,0.013,0.042
						c0.004,0.007,0.005,0.013,0.005,0.013s0-0.021,0.002-0.056c0.001-0.018,0.003-0.037,0.006-0.061
						c0.001-0.012,0.004-0.022,0.006-0.035c0.003-0.012,0.005-0.026,0.011-0.039c0.003-0.013,0.008-0.027,0.013-0.041
						c0.004-0.014,0.013-0.024,0.019-0.038s0.017-0.025,0.025-0.035c0.012-0.01,0.02-0.021,0.032-0.027
						c0.013-0.01,0.023-0.021,0.04-0.024c0.012-0.008,0.027-0.014,0.043-0.017l0.021-0.005c0.003-0.001,0.011-0.003,0.016-0.003
						c0.003,0,0.008-0.001,0.011-0.001l0.029-0.003h0.007l0.003-0.002h0.004l0.009,0.002c0.034,0,0.069,0.004,0.103,0.012
						c0.016,0.005,0.034,0.012,0.05,0.018c0.014,0.004,0.029,0.012,0.043,0.019c0.028,0.017,0.056,0.033,0.079,0.054
						c0.012,0.009,0.022,0.021,0.033,0.032c0.012,0.01,0.021,0.021,0.027,0.03c0.005,0.007,0.01,0.013,0.015,0.018
						c0.003,0.005,0.006,0.011,0.01,0.015c0.007,0.012,0.015,0.021,0.02,0.031c0.012,0.021,0.023,0.036,0.031,0.054
						c0.015,0.031,0.025,0.048,0.025,0.048S236.967,344.441,236.963,344.408z"/>
				</g>
				<g>
					<path fill="#FFFFFF" d="M238.759,344.348c0,0-0.211,0.16-0.457,0.154c-0.267-0.007-0.259-0.097-0.259-0.097
						s-0.063-0.354,0.201-0.42c0.026-0.008,0.056-0.011,0.088-0.011C238.545,343.973,238.734,344.146,238.759,344.348z"/>
					<path fill="#1C75BC" d="M238.587,344.436c0,0,0,0.005-0.005,0.011c-0.048,0.021-0.094,0.035-0.152,0.046
						c-0.194,0.034-0.315-0.019-0.315-0.019s-0.009-0.149,0.026-0.262l0.057-0.114c0.016-0.022,0.037-0.043,0.061-0.059l0,0
						c0.004-0.003,0.008-0.006,0.011-0.008c0.004,0,0.009,0,0.011,0l0.029-0.004l0.006-0.002h0.004h0.012
						c0.034,0,0.068,0.006,0.099,0.016c0.017,0.003,0.035,0.008,0.047,0.012C238.581,344.132,238.598,344.275,238.587,344.436z"/>
					<path fill="#754E35" d="M238.74,344.235c-0.002-0.014-0.007-0.024-0.012-0.038c-0.006-0.014-0.011-0.027-0.019-0.04
						c-0.008-0.019-0.019-0.036-0.032-0.056c0,0-0.039-0.052-0.094-0.093c-0.064-0.049-0.149-0.085-0.206-0.08
						c-0.015-0.003,0,0-0.045-0.005h-0.016l-0.006,0.002h-0.001h-0.004h-0.006l-0.029,0.004c-0.011,0.002-0.017,0-0.03,0.003
						l-0.033,0.013c-0.012,0.003-0.023,0.006-0.032,0.01l-0.031,0.015c-0.019,0.011-0.036,0.025-0.052,0.038
						c-0.008,0.006-0.014,0.017-0.023,0.024c-0.005,0.009-0.011,0.016-0.016,0.023c-0.011,0.019-0.021,0.036-0.028,0.054
						c-0.011,0.035-0.018,0.066-0.02,0.101c-0.002,0.03,0.001,0.058,0.005,0.083c0.001,0.024,0.007,0.044,0.012,0.062
						c0.005,0.017,0.011,0.028,0.014,0.036c0.003,0.011,0.005,0.015,0.005,0.015s0-0.021,0.002-0.055
						c0.001-0.015,0.003-0.035,0.007-0.059c0-0.012,0.004-0.022,0.007-0.036c0.001-0.013,0.005-0.026,0.009-0.039
						c0.003-0.013,0.008-0.024,0.014-0.038c0.004-0.013,0.011-0.023,0.017-0.037c0.008-0.014,0.016-0.023,0.025-0.035
						c0.012-0.01,0.02-0.021,0.032-0.028c0.012-0.006,0.023-0.02,0.037-0.024c0.014-0.005,0.028-0.011,0.043-0.013l0.02-0.006
						c0.005-0.002,0.011-0.002,0.017-0.002c0.004,0,0.008-0.001,0.011-0.001l0.029-0.003l0.006-0.002h0.004h0.011
						c0.034,0,0.068,0.006,0.1,0.015c0.017,0.003,0.034,0.009,0.047,0.013c0.016,0.009,0.032,0.013,0.045,0.021
						c0.027,0.016,0.055,0.031,0.078,0.052c0.012,0.01,0.021,0.021,0.031,0.029c0.011,0.012,0.02,0.021,0.029,0.033
						c0.004,0.004,0.007,0.01,0.012,0.015c0.005,0.007,0.009,0.01,0.012,0.016c0.006,0.012,0.014,0.021,0.02,0.03
						c0.011,0.021,0.023,0.035,0.029,0.051c0.015,0.03,0.024,0.048,0.024,0.048s0-0.021-0.004-0.054
						C238.751,344.277,238.747,344.258,238.74,344.235z"/>
				</g>
				<path fill="#FBAB2F" d="M238.174,345.549c0,0.216-0.283,0.391-0.632,0.391s-0.632-0.176-0.632-0.391
					c0-0.213,0.282-0.39,0.632-0.39C237.891,345.159,238.173,345.334,238.174,345.549z"/>
				<path fill="#FFFFFF" d="M237.317,345.493c0,0-0.259,0.467,0.141,0.472c0.398,0.005,0.313-0.461,0.298-0.472
					c-0.013-0.012-0.108,0-0.108,0s-0.016,0.375-0.192,0.348c-0.177-0.024-0.048-0.354-0.048-0.354L237.317,345.493z"/>
				<path fill="#AA6A41" d="M239.55,342.031c-0.012-0.022-0.024-0.044-0.037-0.067c-0.031-0.053-0.064-0.103-0.104-0.146
					c-0.811-1.03-3.397-0.599-3.858,0.065c-0.741,1.066-0.026,2.556-0.026,2.556c0.067,0.255,0.392,0.275,0.392,0.275
					c-0.487-0.501-0.275-1.306-0.275-1.306c0.393-0.304,0.657-0.66,0.836-0.995c0.099,0.318,0.421,0.822,1.481,0.771
					c0,0-0.934-0.095-0.973-0.627c0,0,0.813,0.608,1.319,0.503c0,0-0.582-0.169-0.706-0.473c0,0,0.414,0.222,0.87,0.266
					c0.067,0.007,0.347,0.035,0.423,0.063c0.032,0.026,0.688,1.317,0.351,1.512c0,0,0.152,0.257,0.218,0.003
					C239.461,344.43,239.977,342.888,239.55,342.031z"/>
			</g>
			<path fill="#FFFFFF" d="M236.326,344.252c-0.007,0.039,0.015,0.076,0.052,0.083c0.035,0.007,0.071-0.021,0.078-0.056
				c0.007-0.037-0.015-0.076-0.05-0.082C236.37,344.191,236.334,344.213,236.326,344.252z"/>
			<path fill="#FFFFFF" d="M238.133,344.167c-0.007,0.038,0.014,0.076,0.05,0.082c0.035,0.006,0.07-0.019,0.077-0.056
				c0.007-0.04-0.013-0.076-0.049-0.082C238.176,344.102,238.141,344.127,238.133,344.167z"/>
			<path opacity="0.4" fill="none" stroke="#F8A481" stroke-width="0.1129" stroke-miterlimit="10" enable-background="new    " d="
				M247.972,338.598c0.121,0.013,0.209,0.12,0.2,0.242"/>
			<path opacity="0.4" fill="none" stroke="#F8A481" stroke-width="0.1129" stroke-miterlimit="10" enable-background="new    " d="
				M246.223,338.533c-0.12,0.011-0.21,0.119-0.199,0.242"/>
			<path fill="#FBB791" d="M237.393,344.529c0,0-0.135,0.373,0,0.387c0.135,0.013,0.343-0.036,0.343-0.036
				S236.931,345.3,237.393,344.529z"/>
			<g>
				<path fill="#754C29" d="M227.089,329.22v24.746h33.378V329.22H227.089z M257.59,335.694v12.342v3.053h-28.199v-19.565h28.199
					V335.694z"/>
			</g>
		</g>
		<g>
			<rect x="522.439" y="333.567" fill="#9AD7D6" width="66.291" height="21.216"/>
			<rect x="519.447" y="327.848" fill="#68C7C2" width="72.279" height="8.305"/>
			<rect x="545.568" y="342.423" fill="#68C7C2" width="18.961" height="5.72"/>
			<rect x="547.357" y="343.346" fill="#CCEAEA" width="15.387" height="3.873"/>
		</g>
		<path fill="#FFFFFF" d="M637.99,319.275c0,0.847-0.688,1.313-1.537,1.313H130.602c-0.848,0-1.346-0.466-1.346-1.313v-38.244
			c0-0.848,0.498-1.305,1.346-1.305h505.851c0.85,0,1.537,0.457,1.537,1.305V319.275L637.99,319.275z"/>
	</g>
</g>
</svg>
