<?xml version="1.0" encoding="utf-8"?>
<!-- Generator: Adobe Illustrator 16.0.0, SVG Export Plug-In . SVG Version: 6.00 Build 0)  -->
<!DOCTYPE svg PUBLIC "-//W3C//DTD SVG 1.1//EN" "http://www.w3.org/Graphics/SVG/1.1/DTD/svg11.dtd">
<svg version="1.1" xmlns="http://www.w3.org/2000/svg" xmlns:xlink="http://www.w3.org/1999/xlink" x="0px" y="0px" width="480px"
	 height="568px" viewBox="-80 0 480 568" enable-background="new -80 0 480 568" xml:space="preserve">
<g id="Layer_2">
	<g>
		<g>
			<g>
				<g>
					<rect x="370.458" y="471.236" fill="#F7F3EB" width="29.542" height="15.607"/>
					<rect x="370.458" y="487.156" fill="#F7F3EB" width="29.542" height="15.919"/>
					<rect x="370.458" y="503.387" fill="#F7F3EB" width="29.542" height="15.919"/>
				</g>
				<g>
					<rect x="340.916" y="471.236" fill="#F7F3EB" width="28.95" height="15.607"/>
					<rect x="340.916" y="487.156" fill="#F7F3EB" width="28.95" height="15.919"/>
					<rect x="340.916" y="503.387" fill="#F7F3EB" width="28.95" height="15.919"/>
				</g>
				<g>
					<rect x="310.192" y="471.236" fill="#F7F3EB" width="29.543" height="15.607"/>
					<rect x="310.192" y="487.156" fill="#F7F3EB" width="29.543" height="15.919"/>
					<rect x="310.192" y="503.387" fill="#F7F3EB" width="29.543" height="15.919"/>
				</g>
				<g>
					<rect x="280.65" y="471.236" fill="#F7F3EB" width="28.951" height="15.607"/>
					<rect x="280.65" y="487.156" fill="#F7F3EB" width="28.951" height="15.919"/>
					<rect x="280.65" y="503.387" fill="#F7F3EB" width="28.951" height="15.919"/>
				</g>
				<g>
					<rect x="249.927" y="471.236" fill="#F7F3EB" width="29.542" height="15.607"/>
					<rect x="249.927" y="487.156" fill="#F7F3EB" width="29.542" height="15.919"/>
					<rect x="249.927" y="503.387" fill="#F7F3EB" width="29.542" height="15.919"/>
				</g>
				<g>
					<rect x="219.794" y="471.236" fill="#F7F3EB" width="30.133" height="15.607"/>
					<rect x="219.794" y="487.156" fill="#F7F3EB" width="30.133" height="15.919"/>
					<rect x="219.794" y="503.387" fill="#F7F3EB" width="30.133" height="15.919"/>
				</g>
				<g>
					<rect x="189.07" y="471.236" fill="#F7F3EB" width="30.132" height="15.607"/>
					<rect x="189.07" y="487.156" fill="#F7F3EB" width="30.132" height="15.919"/>
					<rect x="189.07" y="503.387" fill="#F7F3EB" width="30.132" height="15.919"/>
				</g>
				<g>
					<rect x="160.117" y="471.236" fill="#F7F3EB" width="28.36" height="15.607"/>
					<rect x="160.117" y="487.156" fill="#F7F3EB" width="28.36" height="15.919"/>
					<rect x="160.117" y="503.387" fill="#F7F3EB" width="28.36" height="15.919"/>
				</g>
				<g>
					<rect x="129.394" y="471.236" fill="#F7F3EB" width="29.542" height="15.607"/>
					<rect x="129.394" y="487.156" fill="#F7F3EB" width="29.542" height="15.919"/>
					<rect x="129.394" y="503.387" fill="#F7F3EB" width="29.542" height="15.919"/>
				</g>
				<g>
					<rect x="99.261" y="471.236" fill="#F7F3EB" width="29.542" height="15.607"/>
					<rect x="99.261" y="487.156" fill="#F7F3EB" width="29.542" height="15.919"/>
					<rect x="99.261" y="503.387" fill="#F7F3EB" width="29.542" height="15.919"/>
				</g>
				<g>
					<rect x="68.537" y="471.236" fill="#F7F3EB" width="30.133" height="15.607"/>
					<rect x="68.537" y="487.156" fill="#F7F3EB" width="30.133" height="15.919"/>
					<rect x="68.537" y="503.387" fill="#F7F3EB" width="30.133" height="15.919"/>
				</g>
				<g>
					<rect x="39.585" y="471.236" fill="#F7F3EB" width="28.361" height="15.607"/>
					<rect x="39.585" y="487.156" fill="#F7F3EB" width="28.361" height="15.919"/>
					<rect x="39.585" y="503.387" fill="#F7F3EB" width="28.361" height="15.919"/>
				</g>
				<g>
					<rect x="8.862" y="471.236" fill="#F7F3EB" width="30.134" height="15.607"/>
					<rect x="8.862" y="487.156" fill="#F7F3EB" width="30.134" height="15.919"/>
					<rect x="8.862" y="503.387" fill="#F7F3EB" width="30.134" height="15.919"/>
				</g>
				<g>
					<rect x="-21.271" y="471.236" fill="#F7F3EB" width="29.542" height="15.607"/>
					<rect x="-21.271" y="487.156" fill="#F7F3EB" width="29.542" height="15.919"/>
					<rect x="-21.271" y="503.387" fill="#F7F3EB" width="29.542" height="15.919"/>
				</g>
				<g>
					<rect x="-50.813" y="471.236" fill="#F7F3EB" width="28.951" height="15.607"/>
					<rect x="-50.813" y="487.156" fill="#F7F3EB" width="28.951" height="15.919"/>
					<rect x="-50.813" y="503.387" fill="#F7F3EB" width="28.951" height="15.919"/>
				</g>
				<g>
					<rect x="-81.537" y="471.236" fill="#F7F3EB" width="30.134" height="15.607"/>
					<rect x="-81.537" y="487.156" fill="#F7F3EB" width="30.134" height="15.919"/>
					<rect x="-81.537" y="503.387" fill="#F7F3EB" width="30.134" height="15.919"/>
				</g>
			</g>
		</g>
		<g>
			<g>
				<g>
					<rect x="370.458" y="422.541" fill="#F7F3EB" width="29.542" height="15.607"/>
					<rect x="370.458" y="438.46" fill="#F7F3EB" width="29.542" height="15.92"/>
					<rect x="370.458" y="454.692" fill="#F7F3EB" width="29.542" height="16.232"/>
				</g>
				<g>
					<rect x="340.916" y="422.541" fill="#F7F3EB" width="28.95" height="15.607"/>
					<rect x="340.916" y="438.46" fill="#F7F3EB" width="28.95" height="15.92"/>
					<rect x="340.916" y="454.692" fill="#F7F3EB" width="28.95" height="16.232"/>
				</g>
				<g>
					<rect x="310.192" y="422.541" fill="#F7F3EB" width="29.543" height="15.607"/>
					<rect x="310.192" y="438.46" fill="#F7F3EB" width="29.543" height="15.92"/>
					<rect x="310.192" y="454.692" fill="#F7F3EB" width="29.543" height="16.232"/>
				</g>
				<g>
					<rect x="280.65" y="422.541" fill="#F7F3EB" width="28.951" height="15.607"/>
					<rect x="280.65" y="438.46" fill="#F7F3EB" width="28.951" height="15.92"/>
					<rect x="280.65" y="454.692" fill="#F7F3EB" width="28.951" height="16.232"/>
				</g>
				<g>
					<rect x="249.927" y="422.541" fill="#F7F3EB" width="29.542" height="15.607"/>
					<rect x="249.927" y="438.46" fill="#F7F3EB" width="29.542" height="15.92"/>
					<rect x="249.927" y="454.692" fill="#F7F3EB" width="29.542" height="16.232"/>
				</g>
				<g>
					<rect x="219.794" y="422.541" fill="#F7F3EB" width="30.133" height="15.607"/>
					<rect x="219.794" y="438.46" fill="#F7F3EB" width="30.133" height="15.92"/>
					<rect x="219.794" y="454.692" fill="#F7F3EB" width="30.133" height="16.232"/>
				</g>
				<g>
					<rect x="189.07" y="422.541" fill="#F7F3EB" width="30.132" height="15.607"/>
					<rect x="189.07" y="438.46" fill="#F7F3EB" width="30.132" height="15.92"/>
					<rect x="189.07" y="454.692" fill="#F7F3EB" width="30.132" height="16.232"/>
				</g>
				<g>
					<rect x="160.117" y="422.541" fill="#F7F3EB" width="28.36" height="15.607"/>
					<rect x="160.117" y="438.46" fill="#F7F3EB" width="28.36" height="15.92"/>
					<rect x="160.117" y="454.692" fill="#F7F3EB" width="28.36" height="16.232"/>
				</g>
				<g>
					<rect x="129.394" y="422.541" fill="#F7F3EB" width="29.542" height="15.607"/>
					<rect x="129.394" y="438.46" fill="#F7F3EB" width="29.542" height="15.92"/>
					<rect x="129.394" y="454.692" fill="#F7F3EB" width="29.542" height="16.232"/>
				</g>
				<g>
					<rect x="99.261" y="422.541" fill="#F7F3EB" width="29.542" height="15.607"/>
					<rect x="99.261" y="438.46" fill="#F7F3EB" width="29.542" height="15.92"/>
					<rect x="99.261" y="454.692" fill="#F7F3EB" width="29.542" height="16.232"/>
				</g>
				<g>
					<rect x="68.537" y="422.541" fill="#F7F3EB" width="30.133" height="15.607"/>
					<rect x="68.537" y="438.46" fill="#F7F3EB" width="30.133" height="15.92"/>
					<rect x="68.537" y="454.692" fill="#F7F3EB" width="30.133" height="16.232"/>
				</g>
				<g>
					<rect x="39.585" y="422.541" fill="#F7F3EB" width="28.361" height="15.607"/>
					<rect x="39.585" y="438.46" fill="#F7F3EB" width="28.361" height="15.92"/>
					<rect x="39.585" y="454.692" fill="#F7F3EB" width="28.361" height="16.232"/>
				</g>
				<g>
					<rect x="8.862" y="422.541" fill="#F7F3EB" width="30.134" height="15.607"/>
					<rect x="8.862" y="438.46" fill="#F7F3EB" width="30.134" height="15.92"/>
					<rect x="8.862" y="454.692" fill="#F7F3EB" width="30.134" height="16.232"/>
				</g>
				<g>
					<rect x="-21.271" y="422.541" fill="#F7F3EB" width="29.542" height="15.607"/>
					<rect x="-21.271" y="438.46" fill="#F7F3EB" width="29.542" height="15.92"/>
					<rect x="-21.271" y="454.692" fill="#F7F3EB" width="29.542" height="16.232"/>
				</g>
				<g>
					<rect x="-50.813" y="422.541" fill="#F7F3EB" width="28.951" height="15.607"/>
					<rect x="-50.813" y="438.46" fill="#F7F3EB" width="28.951" height="15.92"/>
					<rect x="-50.813" y="454.692" fill="#F7F3EB" width="28.951" height="16.232"/>
				</g>
				<g>
					<rect x="-81.537" y="422.541" fill="#F7F3EB" width="30.134" height="15.607"/>
					<rect x="-81.537" y="438.46" fill="#F7F3EB" width="30.134" height="15.92"/>
					<rect x="-81.537" y="454.692" fill="#F7F3EB" width="30.134" height="16.232"/>
				</g>
			</g>
		</g>
		<g>
			<g>
				<g>
					<rect x="370.458" y="519.617" fill="#F7F3EB" width="29.542" height="16.232"/>
					<rect x="370.458" y="536.161" fill="#F7F3EB" width="29.542" height="15.92"/>
					<rect x="370.458" y="552.393" fill="#F7F3EB" width="29.542" height="15.607"/>
				</g>
				<g>
					<rect x="340.916" y="519.617" fill="#F7F3EB" width="28.95" height="16.232"/>
					<rect x="340.916" y="536.161" fill="#F7F3EB" width="28.95" height="15.92"/>
					<rect x="340.916" y="552.393" fill="#F7F3EB" width="28.95" height="15.607"/>
				</g>
				<g>
					<rect x="310.192" y="519.617" fill="#F7F3EB" width="29.543" height="16.232"/>
					<rect x="310.192" y="536.161" fill="#F7F3EB" width="29.543" height="15.92"/>
					<rect x="310.192" y="552.393" fill="#F7F3EB" width="29.543" height="15.607"/>
				</g>
				<g>
					<rect x="280.65" y="519.617" fill="#F7F3EB" width="28.951" height="16.232"/>
					<rect x="280.65" y="536.161" fill="#F7F3EB" width="28.951" height="15.92"/>
					<rect x="280.65" y="552.393" fill="#F7F3EB" width="28.951" height="15.607"/>
				</g>
				<g>
					<rect x="249.927" y="519.617" fill="#F7F3EB" width="29.542" height="16.232"/>
					<rect x="249.927" y="536.161" fill="#F7F3EB" width="29.542" height="15.92"/>
					<rect x="249.927" y="552.393" fill="#F7F3EB" width="29.542" height="15.607"/>
				</g>
				<g>
					<rect x="219.794" y="519.617" fill="#F7F3EB" width="30.133" height="16.232"/>
					<rect x="219.794" y="536.161" fill="#F7F3EB" width="30.133" height="15.92"/>
					<rect x="219.794" y="552.393" fill="#F7F3EB" width="30.133" height="15.607"/>
				</g>
				<g>
					<rect x="189.07" y="519.617" fill="#F7F3EB" width="30.132" height="16.232"/>
					<rect x="189.07" y="536.161" fill="#F7F3EB" width="30.132" height="15.92"/>
					<rect x="189.07" y="552.393" fill="#F7F3EB" width="30.132" height="15.607"/>
				</g>
				<g>
					<rect x="160.117" y="519.617" fill="#F7F3EB" width="28.36" height="16.232"/>
					<rect x="160.117" y="536.161" fill="#F7F3EB" width="28.36" height="15.92"/>
					<rect x="160.117" y="552.393" fill="#F7F3EB" width="28.36" height="15.607"/>
				</g>
				<g>
					<rect x="129.394" y="519.617" fill="#F7F3EB" width="29.542" height="16.232"/>
					<rect x="129.394" y="536.161" fill="#F7F3EB" width="29.542" height="15.92"/>
					<rect x="129.394" y="552.393" fill="#F7F3EB" width="29.542" height="15.607"/>
				</g>
				<g>
					<rect x="99.261" y="519.617" fill="#F7F3EB" width="29.542" height="16.232"/>
					<rect x="99.261" y="536.161" fill="#F7F3EB" width="29.542" height="15.92"/>
					<rect x="99.261" y="552.393" fill="#F7F3EB" width="29.542" height="15.607"/>
				</g>
				<g>
					<rect x="68.537" y="519.617" fill="#F7F3EB" width="30.133" height="16.232"/>
					<rect x="68.537" y="536.161" fill="#F7F3EB" width="30.133" height="15.92"/>
					<rect x="68.537" y="552.393" fill="#F7F3EB" width="30.133" height="15.607"/>
				</g>
				<g>
					<rect x="39.585" y="519.617" fill="#F7F3EB" width="28.361" height="16.232"/>
					<rect x="39.585" y="536.161" fill="#F7F3EB" width="28.361" height="15.92"/>
					<rect x="39.585" y="552.393" fill="#F7F3EB" width="28.361" height="15.607"/>
				</g>
				<g>
					<rect x="8.862" y="519.617" fill="#F7F3EB" width="30.134" height="16.232"/>
					<rect x="8.862" y="536.161" fill="#F7F3EB" width="30.134" height="15.92"/>
					<rect x="8.862" y="552.393" fill="#F7F3EB" width="30.134" height="15.607"/>
				</g>
				<g>
					<rect x="-21.271" y="519.617" fill="#F7F3EB" width="29.542" height="16.232"/>
					<rect x="-21.271" y="536.161" fill="#F7F3EB" width="29.542" height="15.92"/>
					<rect x="-21.271" y="552.393" fill="#F7F3EB" width="29.542" height="15.607"/>
				</g>
				<g>
					<rect x="-50.813" y="519.617" fill="#F7F3EB" width="28.951" height="16.232"/>
					<rect x="-50.813" y="536.161" fill="#F7F3EB" width="28.951" height="15.92"/>
					<rect x="-50.813" y="552.393" fill="#F7F3EB" width="28.951" height="15.607"/>
				</g>
				<g>
					<rect x="-81.537" y="519.617" fill="#F7F3EB" width="30.134" height="16.232"/>
					<rect x="-81.537" y="536.161" fill="#F7F3EB" width="30.134" height="15.92"/>
					<rect x="-81.537" y="552.393" fill="#F7F3EB" width="30.134" height="15.607"/>
				</g>
			</g>
		</g>
	</g>
</g>
<g id="Layer_1">
	<g>
		<g>
			<g>
				<g>
					<rect x="365.616" y="119.5" fill="#C2B59B" width="34.384" height="26"/>
					<rect x="365.616" y="145.5" fill="#C2B59B" width="34.384" height="27"/>
					<rect x="365.616" y="173.5" fill="#C2B59B" width="34.384" height="26"/>
				</g>
				<g>
					<rect x="327.105" y="119.5" fill="#C2B59B" width="37.136" height="26"/>
					<rect x="327.105" y="145.5" fill="#C2B59B" width="37.136" height="27"/>
					<rect x="327.105" y="173.5" fill="#C2B59B" width="37.136" height="26"/>
				</g>
				<g>
					<rect x="291.347" y="119.5" fill="#C2B59B" width="34.385" height="26"/>
					<rect x="291.347" y="145.5" fill="#C2B59B" width="34.385" height="27"/>
					<rect x="291.347" y="173.5" fill="#C2B59B" width="34.385" height="26"/>
				</g>
				<g>
					<rect x="252.837" y="119.5" fill="#C2B59B" width="37.134" height="26"/>
					<rect x="252.837" y="145.5" fill="#C2B59B" width="37.134" height="27"/>
					<rect x="252.837" y="173.5" fill="#C2B59B" width="37.134" height="26"/>
				</g>
				<g>
					<rect x="217.077" y="119.5" fill="#C2B59B" width="35.76" height="26"/>
					<rect x="217.077" y="145.5" fill="#C2B59B" width="35.76" height="27"/>
					<rect x="217.077" y="173.5" fill="#C2B59B" width="35.76" height="26"/>
				</g>
				<g>
					<rect x="179.942" y="119.5" fill="#C2B59B" width="37.135" height="26"/>
					<rect x="179.942" y="145.5" fill="#C2B59B" width="37.135" height="27"/>
					<rect x="179.942" y="173.5" fill="#C2B59B" width="37.135" height="26"/>
				</g>
				<g>
					<rect x="144.184" y="119.5" fill="#C2B59B" width="34.384" height="26"/>
					<rect x="144.184" y="145.5" fill="#C2B59B" width="34.384" height="27"/>
					<rect x="144.184" y="173.5" fill="#C2B59B" width="34.384" height="26"/>
				</g>
				<g>
					<rect x="105.673" y="119.5" fill="#C2B59B" width="37.135" height="26"/>
					<rect x="105.673" y="145.5" fill="#C2B59B" width="37.135" height="27"/>
					<rect x="105.673" y="173.5" fill="#C2B59B" width="37.135" height="26"/>
				</g>
				<g>
					<rect x="69.914" y="119.5" fill="#C2B59B" width="34.384" height="26"/>
					<rect x="69.914" y="145.5" fill="#C2B59B" width="34.384" height="27"/>
					<rect x="69.914" y="173.5" fill="#C2B59B" width="34.384" height="26"/>
				</g>
				<g>
					<rect x="31.404" y="119.5" fill="#C2B59B" width="37.135" height="26"/>
					<rect x="31.404" y="145.5" fill="#C2B59B" width="37.135" height="27"/>
					<rect x="31.404" y="173.5" fill="#C2B59B" width="37.135" height="26"/>
				</g>
				<g>
					<rect x="-4.355" y="119.5" fill="#C2B59B" width="34.384" height="26"/>
					<rect x="-4.355" y="145.5" fill="#C2B59B" width="34.384" height="27"/>
					<rect x="-4.355" y="173.5" fill="#C2B59B" width="34.384" height="26"/>
				</g>
				<g>
					<rect x="-42.866" y="119.5" fill="#C2B59B" width="38.51" height="26"/>
					<rect x="-42.866" y="145.5" fill="#C2B59B" width="38.51" height="27"/>
					<rect x="-42.866" y="173.5" fill="#C2B59B" width="38.51" height="26"/>
				</g>
				<g>
					<rect x="-80" y="119.5" fill="#C2B59B" width="37.134" height="26"/>
					<rect x="-80" y="145.5" fill="#C2B59B" width="37.134" height="27"/>
					<rect x="-80" y="173.5" fill="#C2B59B" width="37.134" height="26"/>
				</g>
			</g>
		</g>
		<g>
			<g>
				<g>
					<rect x="365.616" y="35.5" fill="#C2B59B" width="34.384" height="28"/>
					<rect x="365.616" y="63.5" fill="#C2B59B" width="34.384" height="27"/>
					<rect x="365.616" y="90.5" fill="#C2B59B" width="34.384" height="28"/>
				</g>
				<g>
					<rect x="327.105" y="35.5" fill="#C2B59B" width="37.136" height="28"/>
					<rect x="327.105" y="63.5" fill="#C2B59B" width="37.136" height="27"/>
					<rect x="327.105" y="90.5" fill="#C2B59B" width="37.136" height="28"/>
				</g>
				<g>
					<rect x="291.347" y="35.5" fill="#C2B59B" width="34.385" height="28"/>
					<rect x="291.347" y="63.5" fill="#C2B59B" width="34.385" height="27"/>
					<rect x="291.347" y="90.5" fill="#C2B59B" width="34.385" height="28"/>
				</g>
				<g>
					<rect x="252.837" y="35.5" fill="#C2B59B" width="37.134" height="28"/>
					<rect x="252.837" y="63.5" fill="#C2B59B" width="37.134" height="27"/>
					<rect x="252.837" y="90.5" fill="#C2B59B" width="37.134" height="28"/>
				</g>
				<g>
					<rect x="217.077" y="35.5" fill="#C2B59B" width="35.76" height="28"/>
					<rect x="217.077" y="63.5" fill="#C2B59B" width="35.76" height="27"/>
					<rect x="217.077" y="90.5" fill="#C2B59B" width="35.76" height="28"/>
				</g>
				<g>
					<rect x="179.942" y="35.5" fill="#C2B59B" width="37.135" height="28"/>
					<rect x="179.942" y="63.5" fill="#C2B59B" width="37.135" height="27"/>
					<rect x="179.942" y="90.5" fill="#C2B59B" width="37.135" height="28"/>
				</g>
				<g>
					<rect x="144.184" y="35.5" fill="#C2B59B" width="34.384" height="28"/>
					<rect x="144.184" y="63.5" fill="#C2B59B" width="34.384" height="27"/>
					<rect x="144.184" y="90.5" fill="#C2B59B" width="34.384" height="28"/>
				</g>
				<g>
					<rect x="105.673" y="35.5" fill="#C2B59B" width="37.135" height="28"/>
					<rect x="105.673" y="63.5" fill="#C2B59B" width="37.135" height="27"/>
					<rect x="105.673" y="90.5" fill="#C2B59B" width="37.135" height="28"/>
				</g>
				<g>
					<rect x="69.914" y="35.5" fill="#C2B59B" width="34.384" height="28"/>
					<rect x="69.914" y="63.5" fill="#C2B59B" width="34.384" height="27"/>
					<rect x="69.914" y="90.5" fill="#C2B59B" width="34.384" height="28"/>
				</g>
				<g>
					<rect x="31.404" y="35.5" fill="#C2B59B" width="37.135" height="28"/>
					<rect x="31.404" y="63.5" fill="#C2B59B" width="37.135" height="27"/>
					<rect x="31.404" y="90.5" fill="#C2B59B" width="37.135" height="28"/>
				</g>
				<g>
					<rect x="-4.355" y="35.5" fill="#C2B59B" width="34.384" height="28"/>
					<rect x="-4.355" y="63.5" fill="#C2B59B" width="34.384" height="27"/>
					<rect x="-4.355" y="90.5" fill="#C2B59B" width="34.384" height="28"/>
				</g>
				<g>
					<rect x="-42.866" y="35.5" fill="#C2B59B" width="38.51" height="28"/>
					<rect x="-42.866" y="63.5" fill="#C2B59B" width="38.51" height="27"/>
					<rect x="-42.866" y="90.5" fill="#C2B59B" width="38.51" height="28"/>
				</g>
				<g>
					<rect x="-80" y="35.5" fill="#C2B59B" width="37.134" height="28"/>
					<rect x="-80" y="63.5" fill="#C2B59B" width="37.134" height="27"/>
					<rect x="-80" y="90.5" fill="#C2B59B" width="37.134" height="28"/>
				</g>
			</g>
		</g>
		<g>
			<g>
				<g>
					<rect x="365.616" y="199.5" fill="#C2B59B" width="34.384" height="29"/>
					<rect x="365.616" y="228.5" fill="#C2B59B" width="34.384" height="26"/>
					<rect x="365.616" y="255.5" fill="#C2B59B" width="34.384" height="27"/>
				</g>
				<g>
					<rect x="327.105" y="199.5" fill="#C2B59B" width="37.136" height="29"/>
					<rect x="327.105" y="228.5" fill="#C2B59B" width="37.136" height="26"/>
					<rect x="327.105" y="255.5" fill="#C2B59B" width="37.136" height="27"/>
				</g>
				<g>
					<rect x="291.347" y="199.5" fill="#C2B59B" width="34.385" height="29"/>
					<rect x="291.347" y="228.5" fill="#C2B59B" width="34.385" height="26"/>
					<rect x="291.347" y="255.5" fill="#C2B59B" width="34.385" height="27"/>
				</g>
				<g>
					<rect x="252.837" y="199.5" fill="#C2B59B" width="37.134" height="29"/>
					<rect x="252.837" y="228.5" fill="#C2B59B" width="37.134" height="26"/>
					<rect x="252.837" y="255.5" fill="#C2B59B" width="37.134" height="27"/>
				</g>
				<g>
					<rect x="217.077" y="199.5" fill="#C2B59B" width="35.76" height="29"/>
					<rect x="217.077" y="228.5" fill="#C2B59B" width="35.76" height="26"/>
					<rect x="217.077" y="255.5" fill="#C2B59B" width="35.76" height="27"/>
				</g>
				<g>
					<rect x="179.942" y="199.5" fill="#C2B59B" width="37.135" height="29"/>
					<rect x="179.942" y="228.5" fill="#C2B59B" width="37.135" height="26"/>
					<rect x="179.942" y="255.5" fill="#C2B59B" width="37.135" height="27"/>
				</g>
				<g>
					<rect x="144.184" y="199.5" fill="#C2B59B" width="34.384" height="29"/>
					<rect x="144.184" y="228.5" fill="#C2B59B" width="34.384" height="26"/>
					<rect x="144.184" y="255.5" fill="#C2B59B" width="34.384" height="27"/>
				</g>
				<g>
					<rect x="105.673" y="199.5" fill="#C2B59B" width="37.135" height="29"/>
					<rect x="105.673" y="228.5" fill="#C2B59B" width="37.135" height="26"/>
					<rect x="105.673" y="255.5" fill="#C2B59B" width="37.135" height="27"/>
				</g>
				<g>
					<rect x="69.914" y="199.5" fill="#C2B59B" width="34.384" height="29"/>
					<rect x="69.914" y="228.5" fill="#C2B59B" width="34.384" height="26"/>
					<rect x="69.914" y="255.5" fill="#C2B59B" width="34.384" height="27"/>
				</g>
				<g>
					<rect x="31.404" y="199.5" fill="#C2B59B" width="37.135" height="29"/>
					<rect x="31.404" y="228.5" fill="#C2B59B" width="37.135" height="26"/>
					<rect x="31.404" y="255.5" fill="#C2B59B" width="37.135" height="27"/>
				</g>
				<g>
					<rect x="-4.355" y="199.5" fill="#C2B59B" width="34.384" height="29"/>
					<rect x="-4.355" y="228.5" fill="#C2B59B" width="34.384" height="26"/>
					<rect x="-4.355" y="255.5" fill="#C2B59B" width="34.384" height="27"/>
				</g>
				<g>
					<rect x="-42.866" y="199.5" fill="#C2B59B" width="38.51" height="29"/>
					<rect x="-42.866" y="228.5" fill="#C2B59B" width="38.51" height="26"/>
					<rect x="-42.866" y="255.5" fill="#C2B59B" width="38.51" height="27"/>
				</g>
				<g>
					<rect x="-80" y="199.5" fill="#C2B59B" width="37.134" height="29"/>
					<rect x="-80" y="228.5" fill="#C2B59B" width="37.134" height="26"/>
					<rect x="-80" y="255.5" fill="#C2B59B" width="37.134" height="27"/>
				</g>
			</g>
		</g>
	</g>
	<g>
		<g>
			<rect x="-79.991" y="283.421" fill="#F7DB85" width="86.427" height="140.377"/>
			<rect x="193.219" y="283.421" fill="#F7DB85" width="79.55" height="140.377"/>
			<path fill="#3E2B15" d="M-3.788,291.792c0,0.847-0.592,1.53-1.321,1.53h-17.069c-0.73,0-1.322-0.687-1.322-1.53l0,0
				c0-0.847,0.591-1.529,1.322-1.529h17.069C-4.38,290.263-3.788,290.946-3.788,291.792L-3.788,291.792z"/>
			<path fill="#3E2B15" d="M216.769,291.792c0,0.847-0.595,1.53-1.322,1.53h-17.07c-0.729,0-1.321-0.687-1.321-1.53l0,0
				c0-0.847,0.593-1.529,1.321-1.529h17.07C216.174,290.263,216.769,290.946,216.769,291.792L216.769,291.792z"/>
			<rect x="114.389" y="283.421" fill="#F7DB85" width="79.554" height="140.377"/>
			<path fill="#3E2B15" d="M188.555,291.792c0,0.847-0.591,1.53-1.32,1.53h-17.07c-0.728,0-1.321-0.687-1.321-1.53l0,0
				c0-0.847,0.594-1.529,1.321-1.529h17.07C187.962,290.263,188.555,290.946,188.555,291.792L188.555,291.792z"/>
			<rect x="-79.991" y="273.895" fill="#3E2B15" width="480.991" height="9.526"/>
			<rect x="272.688" y="283.421" fill="#F7DB85" width="128.312" height="140.377"/>
			<rect x="272.688" y="299.182" fill="#3E2B15" width="128.312" height="2.348"/>
			<path fill="#3E2B15" d="M304.677,317.349c0,0.848-0.589,1.529-1.32,1.529h-17.071c-0.728,0-1.318-0.685-1.318-1.529l0,0
				c0-0.847,0.591-1.529,1.318-1.529h17.071C304.088,315.817,304.677,316.502,304.677,317.349L304.677,317.349z"/>
			<rect x="114.389" y="283.421" fill="#3E2B15" width="3.785" height="140.377"/>
			<rect x="269.385" y="283.421" fill="#3E2B15" width="3.781" height="140.377"/>
			<rect x="8.955" y="283.421" fill="#F7DB85" width="105.862" height="140.377"/>
			<path fill="#3E2B15" d="M71.487,291.792c0,0.847-0.6,1.53-1.345,1.53H52.773c-0.743,0-1.343-0.687-1.343-1.53l0,0
				c0-0.847,0.601-1.529,1.343-1.529h17.369C70.887,290.263,71.487,290.946,71.487,291.792L71.487,291.792z"/>
			<rect x="6.436" y="299.182" fill="#3E2B15" width="109.846" height="2.348"/>
			<rect x="5.886" y="283.421" fill="#3E2B15" width="3.783" height="140.377"/>
			<path fill="#3E2B15" d="M102.647,315.817c0,0.845-0.592,1.529-1.322,1.529h-17.07c-0.729,0-1.321-0.688-1.321-1.529l0,0
				c0-0.849,0.592-1.531,1.321-1.531h17.07C102.055,314.285,102.647,314.971,102.647,315.817L102.647,315.817z"/>
		</g>
		<g>
			<rect x="173.646" y="268.428" fill="#9AA1A5" width="39.501" height="5.164"/>
			<g>
				<path fill="#9AA1A5" d="M195.822,266.393h-5.579V238.51c0-8.479,6.202-15.384,13.828-15.384c7.629,0,13.833,6.901,13.833,15.384
					h-5.581c0-5.061-3.699-9.177-8.252-9.177c-4.548,0-8.249,4.116-8.249,9.177V266.393z"/>
			</g>
			<rect x="185.312" y="265.027" fill="#525A63" width="16.169" height="4.06"/>
		</g>
	</g>
	<g>
		<rect x="-80.298" y="-0.66" fill="#3E2B15" width="481.298" height="8.534"/>
		<rect x="281.67" y="7.097" fill="#F7DB85" width="119.33" height="125.752"/>
		<rect x="161.965" y="7.097" fill="#F7DB85" width="119.331" height="125.752"/>
		<path fill="#3E2B15" d="M310.814,121.283c0,0.758-0.599,1.37-1.336,1.37h-17.254c-0.74,0-1.336-0.612-1.336-1.37l0,0
			c0-0.759,0.596-1.371,1.336-1.371h17.254C310.216,119.912,310.814,120.525,310.814,121.283L310.814,121.283z"/>
		<path fill="#3E2B15" d="M259.538,119.912c0,0.758-0.597,1.371-1.334,1.371h-17.257c-0.737,0-1.336-0.613-1.336-1.371l0,0
			c0-0.759,0.599-1.371,1.336-1.371h17.257C258.941,118.541,259.538,119.154,259.538,119.912L259.538,119.912z"/>
		<rect x="39.714" y="6.597" fill="#F7DB85" width="119.331" height="125.753"/>
		<rect x="-79.991" y="6.597" fill="#F7DB85" width="119.331" height="125.753"/>
		<path fill="#3E2B15" d="M68.858,120.785c0,0.758-0.598,1.37-1.335,1.37H50.268c-0.737,0-1.334-0.612-1.334-1.37l0,0
			c0-0.759,0.597-1.372,1.334-1.372h17.256C68.26,119.413,68.858,120.027,68.858,120.785L68.858,120.785z"/>
		<path fill="#3E2B15" d="M17.581,119.413c0,0.759-0.598,1.372-1.336,1.372H-1.007c-0.738,0-1.338-0.613-1.338-1.372l0,0
			c0-0.759,0.6-1.37,1.338-1.37h17.253C16.983,118.043,17.581,118.655,17.581,119.413L17.581,119.413z"/>
		<rect x="158.043" y="6.817" fill="#3E2B15" width="3.824" height="125.751"/>
	</g>
	<g>
		<path fill="#F5F0E6" d="M109.975,214.813c0-1.275-0.733-2.283-1.862-2.283H-4.591c-1.129,0-2.484,1.008-2.484,2.283v40.044
			c0,1.274,1.355,2.87,2.484,2.87h112.704c1.13,0,1.862-1.596,1.862-2.87V214.813z"/>
		<path fill="#FFFFFF" d="M106.498,218.346c0-0.988-0.98-1.181-2.035-1.181H-0.561c-1.052,0-1.879,0.19-1.879,1.181v31.063
			c0,0.988,0.827,2.525,1.879,2.525h105.024c1.054,0,2.035-1.537,2.035-2.525V218.346L106.498,218.346z"/>
		<rect x="-6.477" y="256.976" fill="#F5F0E6" width="116.635" height="17.329"/>
		<g>
			<g>
				<g>
					<g>
						<path fill="#616262" d="M43.533,254.162h-29.66c-1.405,0-2.547-1.278-2.547-2.852v-5.052c0-1.573,1.143-2.851,2.547-2.851
							h29.66c1.405,0,2.548,1.275,2.548,2.851v5.052C46.081,252.884,44.938,254.162,43.533,254.162z M13.874,244.378
							c-0.93,0-1.683,0.843-1.683,1.882v5.051c0,1.04,0.753,1.885,1.683,1.885h29.66c0.929,0,1.682-0.845,1.682-1.885v-5.051
							c0-1.039-0.753-1.882-1.682-1.882H13.874z"/>
					</g>
					<g>
						<path fill="#4B4946" d="M43.015,249.79c0,1.46-1.059,2.644-2.363,2.644H16.754c-1.304,0-2.363-1.184-2.363-2.644v-0.248
							c0-1.459,1.06-2.644,2.363-2.644h23.897c1.305,0,2.363,1.185,2.363,2.644L43.015,249.79L43.015,249.79z"/>
					</g>
				</g>
				<g>
					<g>
						<path fill="#616262" d="M88.732,254.162H59.071c-1.406,0-2.549-1.278-2.549-2.852v-5.052c0-1.573,1.143-2.851,2.549-2.851
							h29.661c1.402,0,2.545,1.275,2.545,2.851v5.052C91.277,252.884,90.134,254.162,88.732,254.162z M59.071,244.378
							c-0.931,0-1.684,0.843-1.684,1.882v5.051c0,1.04,0.753,1.885,1.684,1.885h29.661c0.927,0,1.681-0.845,1.681-1.885v-5.051
							c0-1.039-0.753-1.882-1.681-1.882H59.071z"/>
					</g>
					<g>
						<path fill="#4B4946" d="M88.212,249.79c0,1.46-1.057,2.644-2.364,2.644H61.953c-1.306,0-2.364-1.184-2.364-2.644v-0.248
							c0-1.459,1.058-2.644,2.364-2.644h23.895c1.307,0,2.364,1.185,2.364,2.644V249.79z"/>
					</g>
				</g>
			</g>
			<g>
				<path fill="#7E7E7E" d="M101.505,259.135c0,1.603-1.16,2.901-2.592,2.901H3.69c-1.432,0-2.594-1.301-2.594-2.901v-6.479
					c0-1.604,1.162-2.9,2.594-2.9h95.223c1.432,0,2.592,1.298,2.592,2.9V259.135z"/>
			</g>
		</g>
		<rect x="-6.477" y="255.457" fill="#B4B4B4" width="116.635" height="5.992"/>
		<rect x="-6.834" y="255.457" opacity="0.1" fill="#FFFFFF" enable-background="new    " width="116.991" height="2.996"/>
		<g>
			<rect x="5.456" y="255.12" fill="#4B4946" width="91.691" height="15.503"/>
		</g>
		<g>
			<path fill="#7E7E7E" d="M27.298,265.917c-1.915,1.008-4.2,0.084-5.098-2.059c-0.899-2.145-0.076-4.696,1.839-5.703
				c1.917-1.008,4.2-0.087,5.099,2.057C30.038,262.355,29.214,264.911,27.298,265.917z"/>
			<path fill="#373636" d="M22.249,264.756c-0.359,0.188-0.787,0.019-0.954-0.385l0,0c-0.169-0.401-0.015-0.879,0.343-1.067
				l7.321-3.847c0.359-0.189,0.786-0.019,0.954,0.385l0,0c0.167,0.402,0.013,0.877-0.345,1.066L22.249,264.756z"/>
		</g>
		<g>
			<path fill="#7E7E7E" d="M77.019,265.917c-1.916,1.008-4.199,0.084-5.098-2.059c-0.898-2.145-0.076-4.696,1.84-5.703
				c1.915-1.008,4.198-0.087,5.099,2.057C79.758,262.356,78.935,264.911,77.019,265.917z"/>
			<path fill="#373636" d="M71.967,264.756c-0.359,0.188-0.786,0.019-0.954-0.385l0,0c-0.167-0.401-0.012-0.879,0.345-1.067
				l7.322-3.847c0.357-0.189,0.783-0.019,0.951,0.385l0,0c0.169,0.402,0.016,0.877-0.344,1.066L71.967,264.756z"/>
		</g>
		<rect x="1.096" y="252.655" fill="#6A655D" width="100.411" height="2.466"/>
	</g>
	<g>
		<g>
			<g>
				<ellipse fill="#1C75BC" cx="305.682" cy="245.8" rx="12.34" ry="1.391"/>
				<g>
					<g>
						<path d="M306.908,233.602c5.656-0.036,10.214-4.651,10.178-10.309c-0.037-5.657-4.652-10.214-10.311-10.177
							c-5.655,0.035-10.211,4.649-10.176,10.31C296.637,229.083,301.254,233.639,306.908,233.602z M302.154,229.803
							c-0.463,0.467-1.215,0.472-1.682,0.011c-0.47-0.463-0.475-1.215-0.013-1.684c0.461-0.468,1.215-0.472,1.683-0.012
							C302.609,228.583,302.613,229.335,302.154,229.803z M313.297,229.731c-0.461,0.467-1.215,0.473-1.682,0.011
							c-0.469-0.462-0.473-1.214-0.012-1.682c0.463-0.468,1.215-0.473,1.684-0.012C313.756,228.51,313.76,229.263,313.297,229.731z
							 M314.715,222.12c0.656-0.004,1.191,0.524,1.196,1.183c0.005,0.657-0.522,1.191-1.181,1.195
							c-0.656,0.007-1.192-0.523-1.197-1.181C313.529,222.661,314.059,222.124,314.715,222.12z M311.531,216.917
							c0.463-0.467,1.216-0.474,1.684-0.013c0.469,0.463,0.475,1.216,0.012,1.685c-0.463,0.468-1.217,0.472-1.684,0.011
							S311.07,217.383,311.531,216.917z M310.799,222.144c0.656-0.004,1.191,0.525,1.196,1.184c0.005,0.657-0.524,1.19-1.181,1.195
							c-0.658,0.004-1.193-0.522-1.197-1.183C309.611,222.684,310.141,222.149,310.799,222.144z M306.785,214.275
							c0.656-0.006,1.191,0.525,1.195,1.183c0.006,0.656-0.523,1.192-1.183,1.195c-0.655,0.006-1.19-0.522-1.196-1.182
							C305.598,214.815,306.127,214.28,306.785,214.275z M306.811,218.191c0.656-0.003,1.191,0.525,1.195,1.184
							c0.004,0.655-0.523,1.19-1.182,1.195c-0.658,0.006-1.191-0.524-1.195-1.182C305.623,218.731,306.152,218.196,306.811,218.191z
							 M306.836,222.169c0.656-0.005,1.191,0.523,1.195,1.183c0.006,0.656-0.525,1.192-1.182,1.198
							c-0.656,0.004-1.191-0.526-1.197-1.184C305.648,222.71,306.178,222.174,306.836,222.169z M306.861,226.118
							c0.656-0.006,1.191,0.524,1.197,1.183c0.004,0.657-0.527,1.192-1.186,1.196c-0.655,0.005-1.191-0.524-1.196-1.183
							C305.676,226.658,306.204,226.121,306.861,226.118z M306.885,230.034c0.656-0.005,1.192,0.522,1.197,1.184
							c0.006,0.655-0.523,1.19-1.184,1.195c-0.656,0.004-1.191-0.525-1.195-1.184S306.229,230.039,306.885,230.034z
							 M304.068,223.376c0.006,0.657-0.523,1.192-1.182,1.195c-0.656,0.007-1.191-0.522-1.195-1.181
							c-0.006-0.657,0.522-1.191,1.181-1.196C303.529,222.192,304.064,222.721,304.068,223.376z M300.389,216.989
							c0.461-0.469,1.215-0.473,1.684-0.012c0.468,0.462,0.472,1.215,0.01,1.684c-0.46,0.469-1.213,0.473-1.682,0.012
							C299.934,218.209,299.928,217.455,300.389,216.989z M298.956,222.221c0.655-0.005,1.192,0.524,1.196,1.181
							c0.004,0.658-0.525,1.193-1.182,1.198c-0.656,0.003-1.193-0.525-1.197-1.182C297.771,222.761,298.299,222.226,298.956,222.221
							z"/>
					</g>
					<rect x="306.103" y="232.939" transform="matrix(1 -0.0062 0.0062 1 -1.5049 1.9113)" width="1.73" height="20.621"/>
					<g>
						<path d="M307.178,274.996c1.555-0.011,2.787-1.32,2.699-2.875l-1.043-18.563l-3.594,0.022l-0.803,18.573
							C304.372,273.71,305.62,275.004,307.178,274.996z M307.152,271.335c0.625-0.005,1.135,0.499,1.141,1.122
							c0.002,0.627-0.5,1.137-1.125,1.14c-0.625,0.005-1.135-0.498-1.139-1.124C306.025,271.85,306.527,271.339,307.152,271.335z"/>
					</g>
				</g>
				<g>
					<g>
						<path d="M311.277,231.709l0.137,0.119c2.452,2.144,5.979,2.537,8.842,0.983c2.074-1.125,3.461-3.201,3.703-5.549l1.377-13.369
							l-15.096-1.556l-1.366,13.258C308.637,227.905,309.532,230.185,311.277,231.709z M320.59,215.732
							c0.057-0.559,0.559-0.966,1.115-0.906c0.559,0.058,0.967,0.558,0.908,1.116l-1.146,11.138
							c-0.059,0.561-0.559,0.968-1.119,0.908c-0.559-0.058-0.965-0.559-0.906-1.116L320.59,215.732z M316.539,215.314
							c0.059-0.558,0.559-0.966,1.117-0.906c0.558,0.059,0.966,0.559,0.906,1.117l-1.146,11.138
							c-0.059,0.561-0.559,0.966-1.115,0.907c-0.561-0.059-0.968-0.558-0.908-1.116L316.539,215.314z M312.488,214.897
							c0.059-0.559,0.559-0.966,1.115-0.906c0.562,0.059,0.969,0.558,0.908,1.116l-1.146,11.138
							c-0.059,0.561-0.559,0.968-1.118,0.907c-0.558-0.058-0.966-0.558-0.905-1.116L312.488,214.897z"/>
					</g>
					
						<rect x="313.805" y="233.019" transform="matrix(0.9947 0.1026 -0.1026 0.9947 26.6343 -31.0097)" width="1.732" height="20.618"/>
					<g>
						<path d="M311.422,274.881c1.549,0.158,2.916-1.012,2.998-2.565l0.986-18.563l-3.574-0.369l-2.822,18.376
							C308.773,273.298,309.873,274.72,311.422,274.881z M311.797,271.241c0.623,0.063,1.073,0.618,1.01,1.24
							c-0.063,0.621-0.619,1.073-1.24,1.011c-0.621-0.063-1.072-0.622-1.01-1.241C310.62,271.628,311.176,271.176,311.797,271.241z"
							/>
					</g>
				</g>
				<g>
					
						<rect x="298.721" y="225.473" transform="matrix(0.9997 -0.0264 0.0264 0.9997 -6.1896 7.9825)" width="1.889" height="26.556"/>
					<g>
						<path d="M294.877,226.298c0.008,0.284,0.119,0.557,0.314,0.764l3.32,3.486l1.891-0.048l3.348-3.529
							c0.211-0.224,0.322-0.52,0.314-0.822l-0.373-14.226c-0.033-1.291-1.938-1.219-1.903,0.05c0.032,1.269,0.16,6.104,0.16,6.104
							c0.013,0.465-0.354,0.851-0.815,0.86c-0.465,0.014-0.85-0.354-0.861-0.816c0,0-0.149-3.429-0.221-6.069
							c-0.035-1.374-1.988-1.247-1.975-0.096c0.029,2.352,0.113,6.221,0.113,6.221c0.012,0.464-0.354,0.85-0.816,0.86
							c-0.465,0.013-0.85-0.354-0.861-0.815c0,0-0.021-4.396-0.131-6.11c-0.08-1.277-1.91-1.265-1.877,0.001L294.877,226.298z"/>
					</g>
					<g>
						<path d="M300.711,273.45c1.557-0.041,2.762-1.376,2.645-2.928l-1.41-18.539l-3.594,0.096l-0.435,18.586
							C297.881,272.222,299.152,273.491,300.711,273.45z M300.613,269.792c0.625-0.017,1.146,0.478,1.16,1.104
							c0.018,0.623-0.476,1.146-1.101,1.16c-0.625,0.017-1.146-0.478-1.161-1.103C299.496,270.327,299.988,269.809,300.613,269.792z
							"/>
					</g>
				</g>
				<g>
					<path d="M284.09,228.068c0.711,4.216,4.707,7.054,8.922,6.338c4.602-0.776,7.377-5.56,6.014-10.021
						c-2.803-9.173-6.848-11.044-8.682-11.406c-0.563-0.11-1.154-0.063-1.674,0.174C283.514,215.502,283.998,227.529,284.09,228.068
						z"/>
					
						<rect x="293.533" y="232.376" transform="matrix(0.986 -0.1668 0.1668 0.986 -36.3521 52.4992)" width="1.727" height="20.617"/>
					<g>
						<path d="M299.689,273.984c1.537-0.26,2.541-1.752,2.205-3.271l-4.002-18.155l-3.543,0.6l2.185,18.462
							C296.717,273.165,298.154,274.243,299.689,273.984z M299.081,270.375c0.616-0.104,1.2,0.312,1.304,0.928
							s-0.311,1.2-0.928,1.304c-0.615,0.104-1.199-0.312-1.303-0.926C298.051,271.062,298.465,270.48,299.081,270.375z"/>
					</g>
				</g>
				<g>
					<path fill="#939598" d="M315.031,255.091l2.52-27.026l15.99,1.491c0.445-4.785-3.098-9.031-7.916-9.479
						s-9.087,3.065-9.533,7.854l-2.521,27.024L315.031,255.091z"/>
					<g>
						<path fill="#939598" d="M312.79,271.197c1.313,0.121,2.462-0.87,2.519-2.181l0.676-15.638l-3.031-0.282l-2.23,15.492
							C310.532,269.884,311.477,271.075,312.79,271.197z M313.077,268.129c0.526,0.049,0.914,0.514,0.864,1.036
							c-0.049,0.523-0.514,0.907-1.043,0.858c-0.525-0.049-0.914-0.513-0.865-1.037
							C312.082,268.463,312.551,268.081,313.077,268.129z"/>
					</g>
				</g>
			</g>
			<path fill="#27AAE1" d="M318.021,274.045c0,0-3.476,0.824-12.59,0.824c-9.117,0-12.093-0.824-12.093-0.824V245.8
				c0,0,4.532,0.823,12.203,0.823c7.67,0,12.479-0.823,12.479-0.823V274.045z"/>
		</g>
		<g>
			<g>
				<g>
					<g>
						<defs>
							<path id="SVGID_1_" d="M318.021,273.076c0,0-3.527,0.767-12.777,0.767c-9.256,0-12.273-0.767-12.273-0.767v-26.248
								c0,0,4.602,0.768,12.387,0.768c7.783,0,12.666-0.768,12.666-0.768L318.021,273.076L318.021,273.076z"/>
						</defs>
						<clipPath id="SVGID_2_">
							<use xlink:href="#SVGID_1_"  overflow="visible"/>
						</clipPath>
						<g clip-path="url(#SVGID_2_)">
							<g>
								<g>
									<ellipse fill="#EFEEE8" cx="277.891" cy="215.222" rx="1.06" ry="0.898"/>
									<ellipse fill="#EFEEE8" cx="285.824" cy="215.222" rx="1.059" ry="0.898"/>
									<ellipse fill="#EFEEE8" cx="293.758" cy="215.222" rx="1.059" ry="0.898"/>
									<ellipse fill="#EFEEE8" cx="301.689" cy="215.222" rx="1.058" ry="0.898"/>
									<ellipse fill="#EFEEE8" cx="309.623" cy="215.222" rx="1.057" ry="0.898"/>
									<path fill="#EFEEE8" d="M318.613,215.222c0,0.496-0.473,0.897-1.057,0.897c-0.586,0-1.06-0.401-1.06-0.897
										s0.474-0.897,1.06-0.897C318.141,214.324,318.613,214.726,318.613,215.222z"/>
									<ellipse fill="#EFEEE8" cx="325.488" cy="215.222" rx="1.059" ry="0.898"/>
								</g>
							</g>
							<g>
								<g>
									<ellipse fill="#EFEEE8" cx="281.857" cy="219.712" rx="1.058" ry="0.898"/>
									<ellipse fill="#EFEEE8" cx="289.791" cy="219.712" rx="1.059" ry="0.898"/>
									<path fill="#EFEEE8" d="M298.779,219.712c0,0.494-0.473,0.896-1.057,0.896s-1.06-0.402-1.06-0.896
										c0-0.495,0.474-0.898,1.06-0.898C298.307,218.814,298.779,219.216,298.779,219.712z"/>
									<ellipse fill="#EFEEE8" cx="305.656" cy="219.712" rx="1.059" ry="0.898"/>
									<ellipse fill="#EFEEE8" cx="313.59" cy="219.712" rx="1.059" ry="0.898"/>
									<ellipse fill="#EFEEE8" cx="321.521" cy="219.712" rx="1.058" ry="0.898"/>
									<ellipse fill="#EFEEE8" cx="329.454" cy="219.712" rx="1.06" ry="0.898"/>
								</g>
							</g>
							<g>
								<g>
									<ellipse fill="#EFEEE8" cx="277.891" cy="224.201" rx="1.06" ry="0.899"/>
									<ellipse fill="#EFEEE8" cx="285.824" cy="224.201" rx="1.059" ry="0.899"/>
									<ellipse fill="#EFEEE8" cx="293.758" cy="224.201" rx="1.059" ry="0.899"/>
									<ellipse fill="#EFEEE8" cx="301.689" cy="224.201" rx="1.058" ry="0.899"/>
									<ellipse fill="#EFEEE8" cx="309.623" cy="224.201" rx="1.057" ry="0.899"/>
									<path fill="#EFEEE8" d="M318.613,224.202c0,0.494-0.473,0.897-1.057,0.897c-0.586,0-1.06-0.403-1.06-0.897
										c0-0.497,0.474-0.897,1.06-0.897C318.141,223.303,318.613,223.705,318.613,224.202z"/>
									<ellipse fill="#EFEEE8" cx="325.488" cy="224.201" rx="1.059" ry="0.899"/>
								</g>
							</g>
							<g>
								<g>
									<path fill="#EFEEE8" d="M282.915,228.69c0,0.497-0.474,0.898-1.058,0.898s-1.06-0.401-1.06-0.898
										c0-0.495,0.476-0.896,1.06-0.896S282.915,228.195,282.915,228.69z"/>
									<path fill="#EFEEE8" d="M290.848,228.69c0,0.497-0.474,0.898-1.059,0.898c-0.584,0-1.059-0.401-1.059-0.898
										c0-0.495,0.474-0.896,1.059-0.896S290.848,228.195,290.848,228.69z"/>
									<path fill="#EFEEE8" d="M298.779,228.69c0,0.497-0.473,0.898-1.057,0.898s-1.06-0.401-1.06-0.898
										c0-0.495,0.474-0.896,1.06-0.896C298.307,227.793,298.779,228.195,298.779,228.69z"/>
									<path fill="#EFEEE8" d="M306.715,228.69c0,0.497-0.475,0.898-1.059,0.898s-1.059-0.401-1.059-0.898
										c0-0.495,0.475-0.896,1.059-0.896S306.715,228.195,306.715,228.69z"/>
									<path fill="#EFEEE8" d="M314.646,228.69c0,0.497-0.474,0.898-1.06,0.898c-0.584,0-1.058-0.401-1.058-0.898
										c0-0.495,0.474-0.896,1.058-0.896C314.174,227.794,314.646,228.195,314.646,228.69z"/>
									<path fill="#EFEEE8" d="M322.579,228.69c0,0.497-0.474,0.898-1.058,0.898s-1.06-0.401-1.06-0.898
										c0-0.495,0.474-0.896,1.06-0.896C322.105,227.794,322.579,228.195,322.579,228.69z"/>
									<path fill="#EFEEE8" d="M330.512,228.69c0,0.497-0.474,0.898-1.059,0.898c-0.584,0-1.059-0.401-1.059-0.898
										c0-0.495,0.475-0.896,1.059-0.896C330.039,227.793,330.512,228.195,330.512,228.69z"/>
								</g>
							</g>
							<g>
								<g>
									<ellipse fill="#EFEEE8" cx="277.891" cy="233.179" rx="1.06" ry="0.898"/>
									<ellipse fill="#EFEEE8" cx="285.824" cy="233.179" rx="1.059" ry="0.898"/>
									<ellipse fill="#EFEEE8" cx="293.758" cy="233.179" rx="1.059" ry="0.898"/>
									<ellipse fill="#EFEEE8" cx="301.689" cy="233.179" rx="1.058" ry="0.898"/>
									<ellipse fill="#EFEEE8" cx="309.623" cy="233.179" rx="1.057" ry="0.898"/>
									<path fill="#EFEEE8" d="M318.613,233.179c0,0.497-0.473,0.897-1.057,0.897c-0.586,0-1.06-0.4-1.06-0.897
										c0-0.495,0.474-0.898,1.06-0.898C318.141,232.281,318.613,232.683,318.613,233.179z"/>
									<ellipse fill="#EFEEE8" cx="325.488" cy="233.179" rx="1.059" ry="0.898"/>
								</g>
							</g>
							<g>
								<g>
									<ellipse fill="#EFEEE8" cx="281.857" cy="237.668" rx="1.058" ry="0.897"/>
									<ellipse fill="#EFEEE8" cx="289.791" cy="237.668" rx="1.059" ry="0.897"/>
									<path fill="#EFEEE8" d="M298.779,237.668c0,0.495-0.473,0.896-1.057,0.896s-1.06-0.4-1.06-0.896
										c0-0.496,0.474-0.896,1.06-0.896C298.307,236.772,298.779,237.172,298.779,237.668z"/>
									<ellipse fill="#EFEEE8" cx="305.656" cy="237.668" rx="1.059" ry="0.897"/>
									<ellipse fill="#EFEEE8" cx="313.59" cy="237.668" rx="1.059" ry="0.897"/>
									<ellipse fill="#EFEEE8" cx="321.521" cy="237.668" rx="1.058" ry="0.897"/>
									<ellipse fill="#EFEEE8" cx="329.454" cy="237.668" rx="1.06" ry="0.897"/>
								</g>
							</g>
							<g>
								<g>
									<path fill="#EFEEE8" d="M278.949,242.157c0,0.497-0.475,0.897-1.059,0.897s-1.06-0.4-1.06-0.897
										c0-0.494,0.476-0.896,1.06-0.896C278.475,241.26,278.949,241.663,278.949,242.157z"/>
									<path fill="#EFEEE8" d="M286.883,242.157c0,0.497-0.477,0.897-1.059,0.897c-0.584,0-1.059-0.4-1.059-0.897
										c0-0.494,0.473-0.896,1.059-0.896C286.407,241.26,286.883,241.663,286.883,242.157z"/>
									<path fill="#EFEEE8" d="M294.814,242.157c0,0.497-0.476,0.897-1.06,0.897s-1.06-0.4-1.06-0.897
										c0-0.494,0.474-0.896,1.06-0.896C294.342,241.26,294.814,241.663,294.814,242.157z"/>
									<path fill="#EFEEE8" d="M302.747,242.157c0,0.497-0.474,0.897-1.06,0.897c-0.584,0-1.056-0.4-1.056-0.897
										c0-0.494,0.472-0.896,1.056-0.896C302.273,241.26,302.747,241.663,302.747,242.157z"/>
									<path fill="#EFEEE8" d="M310.68,242.157c0,0.497-0.474,0.897-1.058,0.897s-1.058-0.4-1.058-0.897
										c0-0.494,0.474-0.896,1.058-0.896S310.68,241.663,310.68,242.157z"/>
									<path fill="#EFEEE8" d="M318.613,242.157c0,0.497-0.473,0.897-1.057,0.897c-0.586,0-1.06-0.4-1.06-0.897
										c0-0.494,0.474-0.896,1.06-0.896C318.141,241.26,318.613,241.663,318.613,242.157z"/>
									<path fill="#EFEEE8" d="M326.547,242.157c0,0.497-0.475,0.897-1.059,0.897s-1.059-0.4-1.059-0.897
										c0-0.494,0.475-0.896,1.059-0.896S326.547,241.663,326.547,242.157z"/>
								</g>
							</g>
							<g>
								<g>
									<ellipse fill="#EFEEE8" cx="281.857" cy="246.648" rx="1.058" ry="0.897"/>
									<ellipse fill="#EFEEE8" cx="289.791" cy="246.648" rx="1.059" ry="0.897"/>
									<path fill="#EFEEE8" d="M298.779,246.648c0,0.496-0.473,0.897-1.057,0.897s-1.06-0.401-1.06-0.897
										c0-0.497,0.474-0.898,1.06-0.898C298.307,245.75,298.779,246.151,298.779,246.648z"/>
									<ellipse fill="#EFEEE8" cx="305.656" cy="246.648" rx="1.059" ry="0.897"/>
									<ellipse fill="#EFEEE8" cx="313.59" cy="246.648" rx="1.059" ry="0.897"/>
									<ellipse fill="#EFEEE8" cx="321.521" cy="246.648" rx="1.058" ry="0.897"/>
									<ellipse fill="#EFEEE8" cx="329.454" cy="246.648" rx="1.06" ry="0.897"/>
								</g>
							</g>
							<g>
								<g>
									<ellipse fill="#EFEEE8" cx="277.891" cy="251.136" rx="1.06" ry="0.898"/>
									<ellipse fill="#EFEEE8" cx="285.824" cy="251.136" rx="1.059" ry="0.898"/>
									<ellipse fill="#EFEEE8" cx="293.758" cy="251.136" rx="1.059" ry="0.898"/>
									<ellipse fill="#EFEEE8" cx="301.689" cy="251.136" rx="1.058" ry="0.898"/>
									<ellipse fill="#EFEEE8" cx="309.623" cy="251.136" rx="1.057" ry="0.898"/>
									<path fill="#EFEEE8" d="M318.613,251.135c0,0.497-0.473,0.897-1.057,0.897c-0.586,0-1.06-0.4-1.06-0.897
										c0-0.495,0.474-0.896,1.06-0.896C318.141,250.239,318.613,250.64,318.613,251.135z"/>
									<ellipse fill="#EFEEE8" cx="325.488" cy="251.136" rx="1.059" ry="0.898"/>
								</g>
							</g>
							<g>
								<g>
									<ellipse fill="#EFEEE8" cx="281.857" cy="255.626" rx="1.058" ry="0.897"/>
									<ellipse fill="#EFEEE8" cx="289.791" cy="255.626" rx="1.059" ry="0.897"/>
									<path fill="#EFEEE8" d="M298.779,255.626c0,0.494-0.473,0.896-1.057,0.896s-1.06-0.4-1.06-0.896
										c0-0.496,0.474-0.899,1.06-0.899C298.307,254.727,298.779,255.129,298.779,255.626z"/>
									<ellipse fill="#EFEEE8" cx="305.656" cy="255.626" rx="1.059" ry="0.897"/>
									<ellipse fill="#EFEEE8" cx="313.59" cy="255.626" rx="1.059" ry="0.897"/>
									<ellipse fill="#EFEEE8" cx="321.521" cy="255.626" rx="1.058" ry="0.897"/>
									<ellipse fill="#EFEEE8" cx="329.454" cy="255.626" rx="1.06" ry="0.897"/>
								</g>
							</g>
							<g>
								<g>
									<ellipse fill="#EFEEE8" cx="277.891" cy="260.115" rx="1.06" ry="0.898"/>
									<ellipse fill="#EFEEE8" cx="285.824" cy="260.115" rx="1.059" ry="0.898"/>
									<ellipse fill="#EFEEE8" cx="293.758" cy="260.115" rx="1.059" ry="0.898"/>
									<ellipse fill="#EFEEE8" cx="301.689" cy="260.115" rx="1.058" ry="0.898"/>
									<ellipse fill="#EFEEE8" cx="309.623" cy="260.115" rx="1.057" ry="0.898"/>
									<path fill="#EFEEE8" d="M318.613,260.115c0,0.496-0.473,0.898-1.057,0.898c-0.586,0-1.06-0.402-1.06-0.898
										c0-0.495,0.474-0.896,1.06-0.896C318.141,259.216,318.613,259.619,318.613,260.115z"/>
									<ellipse fill="#EFEEE8" cx="325.488" cy="260.115" rx="1.059" ry="0.898"/>
								</g>
							</g>
							<g>
								<g>
									<path fill="#EFEEE8" d="M282.915,264.603c0,0.496-0.474,0.898-1.058,0.898s-1.06-0.402-1.06-0.898
										c0-0.494,0.476-0.896,1.06-0.896S282.915,264.109,282.915,264.603z"/>
									<path fill="#EFEEE8" d="M290.848,264.603c0,0.496-0.474,0.898-1.059,0.898c-0.584,0-1.059-0.402-1.059-0.898
										c0-0.494,0.474-0.896,1.059-0.896S290.848,264.109,290.848,264.603z"/>
									<path fill="#EFEEE8" d="M298.779,264.603c0,0.496-0.473,0.898-1.057,0.898s-1.06-0.402-1.06-0.898
										c0-0.494,0.474-0.896,1.06-0.896C298.307,263.707,298.779,264.109,298.779,264.603z"/>
									<path fill="#EFEEE8" d="M306.715,264.603c0,0.496-0.475,0.898-1.059,0.898s-1.059-0.402-1.059-0.898
										c0-0.494,0.475-0.896,1.059-0.896S306.715,264.109,306.715,264.603z"/>
									<path fill="#EFEEE8" d="M314.646,264.603c0,0.496-0.474,0.898-1.06,0.898c-0.584,0-1.058-0.402-1.058-0.898
										c0-0.494,0.474-0.896,1.058-0.896C314.174,263.707,314.646,264.109,314.646,264.603z"/>
									<path fill="#EFEEE8" d="M322.579,264.603c0,0.496-0.474,0.898-1.058,0.898s-1.06-0.402-1.06-0.898
										c0-0.494,0.474-0.896,1.06-0.896C322.105,263.707,322.579,264.109,322.579,264.603z"/>
									<path fill="#EFEEE8" d="M330.512,264.603c0,0.496-0.474,0.898-1.059,0.898c-0.584,0-1.059-0.402-1.059-0.898
										c0-0.494,0.475-0.896,1.059-0.896C330.039,263.707,330.512,264.109,330.512,264.603z"/>
								</g>
							</g>
							<g>
								<g>
									<ellipse fill="#EFEEE8" cx="277.891" cy="269.094" rx="1.06" ry="0.898"/>
									<ellipse fill="#EFEEE8" cx="285.824" cy="269.094" rx="1.059" ry="0.898"/>
									<ellipse fill="#EFEEE8" cx="293.758" cy="269.094" rx="1.059" ry="0.898"/>
									<ellipse fill="#EFEEE8" cx="301.689" cy="269.094" rx="1.058" ry="0.898"/>
									<ellipse fill="#EFEEE8" cx="309.623" cy="269.094" rx="1.057" ry="0.898"/>
									<path fill="#EFEEE8" d="M318.613,269.093c0,0.496-0.473,0.896-1.057,0.896c-0.586,0-1.06-0.4-1.06-0.896
										c0-0.494,0.474-0.897,1.06-0.897C318.141,268.196,318.613,268.599,318.613,269.093z"/>
									<ellipse fill="#EFEEE8" cx="325.488" cy="269.094" rx="1.059" ry="0.898"/>
								</g>
							</g>
							<g>
								<g>
									<ellipse fill="#EFEEE8" cx="281.857" cy="273.582" rx="1.058" ry="0.899"/>
									<ellipse fill="#EFEEE8" cx="289.791" cy="273.582" rx="1.059" ry="0.899"/>
									<path fill="#EFEEE8" d="M298.779,273.583c0,0.494-0.473,0.897-1.057,0.897s-1.06-0.403-1.06-0.897
										c0-0.495,0.474-0.896,1.06-0.896C298.307,272.685,298.779,273.086,298.779,273.583z"/>
									<ellipse fill="#EFEEE8" cx="305.656" cy="273.582" rx="1.059" ry="0.899"/>
									<ellipse fill="#EFEEE8" cx="313.59" cy="273.582" rx="1.059" ry="0.899"/>
									<ellipse fill="#EFEEE8" cx="321.521" cy="273.582" rx="1.058" ry="0.899"/>
									<ellipse fill="#EFEEE8" cx="329.454" cy="273.582" rx="1.06" ry="0.899"/>
								</g>
							</g>
							<g>
								<g>
									<ellipse fill="#EFEEE8" cx="277.891" cy="278.071" rx="1.06" ry="0.899"/>
									<ellipse fill="#EFEEE8" cx="285.824" cy="278.071" rx="1.059" ry="0.899"/>
									<ellipse fill="#EFEEE8" cx="293.758" cy="278.071" rx="1.059" ry="0.899"/>
									<ellipse fill="#EFEEE8" cx="301.689" cy="278.071" rx="1.058" ry="0.899"/>
									<ellipse fill="#EFEEE8" cx="309.623" cy="278.071" rx="1.057" ry="0.899"/>
									<path fill="#EFEEE8" d="M318.613,278.071c0,0.496-0.473,0.899-1.057,0.899c-0.586,0-1.06-0.403-1.06-0.899
										c0-0.494,0.474-0.896,1.06-0.896C318.141,277.173,318.613,277.576,318.613,278.071z"/>
									<ellipse fill="#EFEEE8" cx="325.488" cy="278.071" rx="1.059" ry="0.899"/>
								</g>
							</g>
							<g>
								<g>
									<ellipse fill="#EFEEE8" cx="281.857" cy="282.561" rx="1.058" ry="0.897"/>
									<ellipse fill="#EFEEE8" cx="289.791" cy="282.561" rx="1.059" ry="0.897"/>
									<path fill="#EFEEE8" d="M298.779,282.561c0,0.495-0.473,0.896-1.057,0.896s-1.06-0.4-1.06-0.896s0.474-0.896,1.06-0.896
										C298.307,281.664,298.779,282.065,298.779,282.561z"/>
									<ellipse fill="#EFEEE8" cx="305.656" cy="282.561" rx="1.059" ry="0.897"/>
									<ellipse fill="#EFEEE8" cx="313.59" cy="282.561" rx="1.059" ry="0.897"/>
									<ellipse fill="#EFEEE8" cx="321.521" cy="282.561" rx="1.058" ry="0.897"/>
									<ellipse fill="#EFEEE8" cx="329.454" cy="282.561" rx="1.06" ry="0.897"/>
								</g>
							</g>
							<g>
								<g>
									<path fill="#EFEEE8" d="M278.949,287.051c0,0.494-0.475,0.896-1.059,0.896s-1.06-0.401-1.06-0.896
										c0-0.498,0.476-0.898,1.06-0.898S278.949,286.553,278.949,287.051z"/>
									<path fill="#EFEEE8" d="M286.883,287.051c0,0.494-0.477,0.896-1.059,0.896c-0.584,0-1.059-0.401-1.059-0.896
										c0-0.498,0.473-0.898,1.059-0.898C286.407,286.152,286.883,286.553,286.883,287.051z"/>
									<path fill="#EFEEE8" d="M294.814,287.051c0,0.494-0.476,0.896-1.06,0.896s-1.06-0.401-1.06-0.896
										c0-0.498,0.474-0.898,1.06-0.898S294.814,286.553,294.814,287.051z"/>
									<path fill="#EFEEE8" d="M302.747,287.051c0,0.494-0.474,0.896-1.06,0.896c-0.584,0-1.056-0.401-1.056-0.896
										c0-0.498,0.472-0.898,1.056-0.898C302.273,286.152,302.747,286.553,302.747,287.051z"/>
									<path fill="#EFEEE8" d="M310.68,287.051c0,0.494-0.474,0.896-1.058,0.896s-1.058-0.401-1.058-0.896
										c0-0.498,0.474-0.898,1.058-0.898S310.68,286.553,310.68,287.051z"/>
									<path fill="#EFEEE8" d="M318.613,287.051c0,0.494-0.473,0.896-1.057,0.896c-0.586,0-1.06-0.401-1.06-0.896
										c0-0.498,0.474-0.898,1.06-0.898C318.141,286.152,318.613,286.553,318.613,287.051z"/>
									<path fill="#EFEEE8" d="M326.547,287.051c0,0.494-0.475,0.896-1.059,0.896s-1.059-0.401-1.059-0.896
										c0-0.498,0.475-0.898,1.059-0.898S326.547,286.553,326.547,287.051z"/>
								</g>
							</g>
							<g>
								<g>
									<path fill="#EFEEE8" d="M282.915,291.539c0,0.496-0.474,0.897-1.058,0.897s-1.06-0.401-1.06-0.897
										c0-0.494,0.476-0.896,1.06-0.896S282.915,291.045,282.915,291.539z"/>
									<path fill="#EFEEE8" d="M290.848,291.539c0,0.496-0.474,0.897-1.059,0.897c-0.584,0-1.059-0.401-1.059-0.897
										c0-0.494,0.474-0.896,1.059-0.896S290.848,291.045,290.848,291.539z"/>
									<path fill="#EFEEE8" d="M298.779,291.539c0,0.496-0.473,0.897-1.057,0.897s-1.06-0.401-1.06-0.897
										c0-0.494,0.474-0.896,1.06-0.896C298.307,290.641,298.779,291.045,298.779,291.539z"/>
									<path fill="#EFEEE8" d="M306.715,291.539c0,0.496-0.475,0.897-1.059,0.897s-1.059-0.401-1.059-0.897
										c0-0.494,0.475-0.896,1.059-0.896S306.715,291.045,306.715,291.539z"/>
									<path fill="#EFEEE8" d="M314.646,291.539c0,0.496-0.474,0.897-1.06,0.897c-0.584,0-1.058-0.401-1.058-0.897
										c0-0.494,0.474-0.896,1.058-0.896C314.174,290.643,314.646,291.045,314.646,291.539z"/>
									<path fill="#EFEEE8" d="M322.579,291.539c0,0.496-0.474,0.897-1.058,0.897s-1.06-0.401-1.06-0.897
										c0-0.494,0.474-0.896,1.06-0.896C322.105,290.643,322.579,291.045,322.579,291.539z"/>
									<path fill="#EFEEE8" d="M330.512,291.539c0,0.496-0.474,0.897-1.059,0.897c-0.584,0-1.059-0.401-1.059-0.897
										c0-0.494,0.475-0.896,1.059-0.896C330.039,290.641,330.512,291.045,330.512,291.539z"/>
								</g>
							</g>
							<g>
								<g>
									<ellipse fill="#EFEEE8" cx="277.891" cy="296.028" rx="1.06" ry="0.897"/>
									<ellipse fill="#EFEEE8" cx="285.824" cy="296.028" rx="1.059" ry="0.897"/>
									<ellipse fill="#EFEEE8" cx="293.758" cy="296.028" rx="1.059" ry="0.897"/>
									<ellipse fill="#EFEEE8" cx="301.689" cy="296.028" rx="1.058" ry="0.897"/>
									<ellipse fill="#EFEEE8" cx="309.623" cy="296.028" rx="1.057" ry="0.897"/>
									<path fill="#EFEEE8" d="M318.613,296.029c0,0.494-0.473,0.896-1.057,0.896c-0.586,0-1.06-0.402-1.06-0.896
										c0-0.495,0.474-0.896,1.06-0.896C318.141,295.131,318.613,295.533,318.613,296.029z"/>
									<ellipse fill="#EFEEE8" cx="325.488" cy="296.028" rx="1.059" ry="0.897"/>
								</g>
							</g>
							<g>
								<g>
									<ellipse fill="#EFEEE8" cx="281.857" cy="300.517" rx="1.058" ry="0.896"/>
									<ellipse fill="#EFEEE8" cx="289.791" cy="300.517" rx="1.059" ry="0.896"/>
									<path fill="#EFEEE8" d="M298.779,300.518c0,0.496-0.473,0.896-1.057,0.896s-1.06-0.399-1.06-0.896s0.474-0.898,1.06-0.898
										C298.307,299.618,298.779,300.021,298.779,300.518z"/>
									<ellipse fill="#EFEEE8" cx="305.656" cy="300.517" rx="1.059" ry="0.896"/>
									<ellipse fill="#EFEEE8" cx="313.59" cy="300.517" rx="1.059" ry="0.896"/>
									<ellipse fill="#EFEEE8" cx="321.521" cy="300.517" rx="1.058" ry="0.896"/>
									<ellipse fill="#EFEEE8" cx="329.454" cy="300.517" rx="1.06" ry="0.896"/>
								</g>
							</g>
							<g>
								<g>
									<ellipse fill="#EFEEE8" cx="277.891" cy="305.006" rx="1.06" ry="0.896"/>
									<ellipse fill="#EFEEE8" cx="285.824" cy="305.006" rx="1.059" ry="0.896"/>
									<ellipse fill="#EFEEE8" cx="293.758" cy="305.006" rx="1.059" ry="0.896"/>
									<ellipse fill="#EFEEE8" cx="301.689" cy="305.006" rx="1.058" ry="0.896"/>
									<ellipse fill="#EFEEE8" cx="309.623" cy="305.006" rx="1.057" ry="0.896"/>
									<path fill="#EFEEE8" d="M318.613,305.006c0,0.496-0.473,0.896-1.057,0.896c-0.586,0-1.06-0.399-1.06-0.896
										c0-0.494,0.474-0.896,1.06-0.896C318.141,304.109,318.613,304.512,318.613,305.006z"/>
									<ellipse fill="#EFEEE8" cx="325.488" cy="305.006" rx="1.059" ry="0.896"/>
								</g>
							</g>
							<g>
								<g>
									<ellipse fill="#EFEEE8" cx="281.857" cy="309.496" rx="1.058" ry="0.896"/>
									<ellipse fill="#EFEEE8" cx="289.791" cy="309.496" rx="1.059" ry="0.896"/>
									<path fill="#EFEEE8" d="M298.779,309.495c0,0.494-0.473,0.896-1.057,0.896s-1.06-0.402-1.06-0.896
										c0-0.495,0.474-0.896,1.06-0.896C298.307,308.598,298.779,309,298.779,309.495z"/>
									<ellipse fill="#EFEEE8" cx="305.656" cy="309.496" rx="1.059" ry="0.896"/>
									<ellipse fill="#EFEEE8" cx="313.59" cy="309.496" rx="1.059" ry="0.896"/>
									<ellipse fill="#EFEEE8" cx="321.521" cy="309.496" rx="1.058" ry="0.896"/>
									<ellipse fill="#EFEEE8" cx="329.454" cy="309.496" rx="1.06" ry="0.896"/>
								</g>
							</g>
							<g>
								<g>
									<ellipse fill="#EFEEE8" cx="277.891" cy="313.985" rx="1.06" ry="0.897"/>
									<ellipse fill="#EFEEE8" cx="285.824" cy="313.985" rx="1.059" ry="0.897"/>
									<ellipse fill="#EFEEE8" cx="293.758" cy="313.985" rx="1.059" ry="0.897"/>
									<ellipse fill="#EFEEE8" cx="301.689" cy="313.985" rx="1.058" ry="0.897"/>
									<ellipse fill="#EFEEE8" cx="309.623" cy="313.985" rx="1.057" ry="0.897"/>
									<path fill="#EFEEE8" d="M318.613,313.986c0,0.494-0.473,0.896-1.057,0.896c-0.586,0-1.06-0.402-1.06-0.896
										c0-0.498,0.474-0.896,1.06-0.896C318.141,313.088,318.613,313.488,318.613,313.986z"/>
									<ellipse fill="#EFEEE8" cx="325.488" cy="313.985" rx="1.059" ry="0.897"/>
								</g>
							</g>
							<g>
								<g>
									<ellipse fill="#EFEEE8" cx="281.857" cy="318.473" rx="1.058" ry="0.899"/>
									<path fill="#EFEEE8" d="M290.848,318.473c0,0.496-0.474,0.897-1.059,0.897c-0.584,0-1.059-0.401-1.059-0.897
										c0-0.494,0.474-0.896,1.059-0.896S290.848,317.979,290.848,318.473z"/>
									<path fill="#EFEEE8" d="M298.779,318.473c0,0.496-0.473,0.897-1.057,0.897s-1.06-0.401-1.06-0.897
										c0-0.494,0.474-0.896,1.06-0.896C298.307,317.575,298.779,317.979,298.779,318.473z"/>
									<ellipse fill="#EFEEE8" cx="305.656" cy="318.473" rx="1.059" ry="0.899"/>
									<ellipse fill="#EFEEE8" cx="313.59" cy="318.473" rx="1.059" ry="0.899"/>
									<ellipse fill="#EFEEE8" cx="321.521" cy="318.473" rx="1.058" ry="0.899"/>
									<ellipse fill="#EFEEE8" cx="329.454" cy="318.473" rx="1.06" ry="0.899"/>
								</g>
							</g>
							<g>
								<g>
									<ellipse fill="#EFEEE8" cx="277.891" cy="322.964" rx="1.06" ry="0.897"/>
									<ellipse fill="#EFEEE8" cx="285.824" cy="322.964" rx="1.059" ry="0.897"/>
									<ellipse fill="#EFEEE8" cx="293.758" cy="322.964" rx="1.059" ry="0.897"/>
									<ellipse fill="#EFEEE8" cx="301.689" cy="322.964" rx="1.058" ry="0.897"/>
									<ellipse fill="#EFEEE8" cx="309.623" cy="322.964" rx="1.057" ry="0.897"/>
									<path fill="#EFEEE8" d="M318.613,322.965c0,0.491-0.473,0.895-1.057,0.895c-0.586,0-1.06-0.402-1.06-0.895
										c0-0.496,0.474-0.898,1.06-0.898C318.141,322.066,318.613,322.469,318.613,322.965z"/>
									<ellipse fill="#EFEEE8" cx="325.488" cy="322.964" rx="1.059" ry="0.897"/>
								</g>
							</g>
							<g>
								<g>
									<ellipse fill="#EFEEE8" cx="281.857" cy="327.453" rx="1.058" ry="0.896"/>
									<ellipse fill="#EFEEE8" cx="289.791" cy="327.453" rx="1.059" ry="0.896"/>
									<path fill="#EFEEE8" d="M298.779,327.452c0,0.496-0.473,0.896-1.057,0.896s-1.06-0.4-1.06-0.896s0.474-0.896,1.06-0.896
										C298.307,326.557,298.779,326.956,298.779,327.452z"/>
									<ellipse fill="#EFEEE8" cx="305.656" cy="327.453" rx="1.059" ry="0.896"/>
									<ellipse fill="#EFEEE8" cx="313.59" cy="327.453" rx="1.059" ry="0.896"/>
									<ellipse fill="#EFEEE8" cx="321.521" cy="327.453" rx="1.058" ry="0.896"/>
									<ellipse fill="#EFEEE8" cx="329.454" cy="327.453" rx="1.06" ry="0.896"/>
								</g>
							</g>
							<g>
								<g>
									<ellipse fill="#EFEEE8" cx="277.891" cy="331.942" rx="1.06" ry="0.897"/>
									<ellipse fill="#EFEEE8" cx="285.824" cy="331.942" rx="1.059" ry="0.897"/>
									<ellipse fill="#EFEEE8" cx="293.758" cy="331.942" rx="1.059" ry="0.897"/>
									<ellipse fill="#EFEEE8" cx="301.689" cy="331.942" rx="1.058" ry="0.897"/>
									<ellipse fill="#EFEEE8" cx="309.623" cy="331.942" rx="1.057" ry="0.897"/>
									<path fill="#EFEEE8" d="M318.613,331.941c0,0.496-0.473,0.898-1.057,0.898c-0.586,0-1.06-0.402-1.06-0.898
										s0.474-0.895,1.06-0.895C318.141,331.045,318.613,331.445,318.613,331.941z"/>
									<ellipse fill="#EFEEE8" cx="325.488" cy="331.942" rx="1.059" ry="0.897"/>
								</g>
							</g>
							<g>
								<g>
									<ellipse fill="#EFEEE8" cx="281.857" cy="336.431" rx="1.058" ry="0.898"/>
									<ellipse fill="#EFEEE8" cx="289.791" cy="336.431" rx="1.059" ry="0.898"/>
									<path fill="#EFEEE8" d="M298.779,336.432c0,0.494-0.473,0.896-1.057,0.896s-1.06-0.401-1.06-0.896
										c0-0.496,0.474-0.898,1.06-0.898C298.307,335.532,298.779,335.936,298.779,336.432z"/>
									<ellipse fill="#EFEEE8" cx="305.656" cy="336.431" rx="1.059" ry="0.898"/>
									<ellipse fill="#EFEEE8" cx="313.59" cy="336.431" rx="1.059" ry="0.898"/>
									<ellipse fill="#EFEEE8" cx="321.521" cy="336.431" rx="1.058" ry="0.898"/>
									<ellipse fill="#EFEEE8" cx="329.454" cy="336.431" rx="1.06" ry="0.898"/>
								</g>
							</g>
						</g>
					</g>
				</g>
			</g>
		</g>
	</g>
</g>
</svg>
