<?xml version="1.0" encoding="utf-8"?>
<!-- Generator: Adobe Illustrator 16.0.0, SVG Export Plug-In . SVG Version: 6.00 Build 0)  -->
<!DOCTYPE svg PUBLIC "-//W3C//DTD SVG 1.1//EN" "http://www.w3.org/Graphics/SVG/1.1/DTD/svg11.dtd">
<svg version="1.1" id="Layer_1" xmlns="http://www.w3.org/2000/svg" xmlns:xlink="http://www.w3.org/1999/xlink" x="0px" y="0px"
	 width="480px" height="568px" viewBox="0 0 480 568" enable-background="new 0 0 480 568" xml:space="preserve">
<rect x="-169.039" y="-13.747" fill="#C5E0B4" width="820.399" height="462.436"/>
<g>
	<g>
		<g>
			<g>
				<rect x="444.232" y="151.764" fill="#C2B59B" width="35.768" height="28.609"/>
				<rect x="444.232" y="180.946" fill="#C2B59B" width="35.768" height="29.181"/>
				<rect x="444.232" y="210.699" fill="#C2B59B" width="35.768" height="29.181"/>
			</g>
			<g>
				<rect x="408.463" y="151.764" fill="#C2B59B" width="35.054" height="28.609"/>
				<rect x="408.463" y="180.946" fill="#C2B59B" width="35.054" height="29.181"/>
				<rect x="408.463" y="210.699" fill="#C2B59B" width="35.054" height="29.181"/>
			</g>
			<g>
				<rect x="371.264" y="151.764" fill="#C2B59B" width="35.769" height="28.609"/>
				<rect x="371.264" y="180.946" fill="#C2B59B" width="35.769" height="29.181"/>
				<rect x="371.264" y="210.699" fill="#C2B59B" width="35.769" height="29.181"/>
			</g>
			<g>
				<rect x="335.497" y="151.764" fill="#C2B59B" width="35.052" height="28.609"/>
				<rect x="335.497" y="180.946" fill="#C2B59B" width="35.052" height="29.181"/>
				<rect x="335.497" y="210.699" fill="#C2B59B" width="35.052" height="29.181"/>
			</g>
			<g>
				<rect x="298.298" y="151.764" fill="#C2B59B" width="35.768" height="28.609"/>
				<rect x="298.298" y="180.946" fill="#C2B59B" width="35.768" height="29.181"/>
				<rect x="298.298" y="210.699" fill="#C2B59B" width="35.768" height="29.181"/>
			</g>
			<g>
				<rect x="261.814" y="151.764" fill="#C2B59B" width="36.483" height="28.609"/>
				<rect x="261.814" y="180.946" fill="#C2B59B" width="36.483" height="29.181"/>
				<rect x="261.814" y="210.699" fill="#C2B59B" width="36.483" height="29.181"/>
			</g>
			<g>
				<rect x="224.615" y="151.764" fill="#C2B59B" width="36.483" height="28.609"/>
				<rect x="224.615" y="180.946" fill="#C2B59B" width="36.483" height="29.181"/>
				<rect x="224.615" y="210.699" fill="#C2B59B" width="36.483" height="29.181"/>
			</g>
			<g>
				<rect x="189.562" y="151.764" fill="#C2B59B" width="34.338" height="28.609"/>
				<rect x="189.562" y="180.946" fill="#C2B59B" width="34.338" height="29.181"/>
				<rect x="189.562" y="210.699" fill="#C2B59B" width="34.338" height="29.181"/>
			</g>
			<g>
				<rect x="152.364" y="151.764" fill="#C2B59B" width="35.768" height="28.609"/>
				<rect x="152.364" y="180.946" fill="#C2B59B" width="35.768" height="29.181"/>
				<rect x="152.364" y="210.699" fill="#C2B59B" width="35.768" height="29.181"/>
			</g>
			<g>
				<rect x="115.879" y="151.764" fill="#C2B59B" width="35.768" height="28.609"/>
				<rect x="115.879" y="180.946" fill="#C2B59B" width="35.768" height="29.181"/>
				<rect x="115.879" y="210.699" fill="#C2B59B" width="35.768" height="29.181"/>
			</g>
			<g>
				<rect x="78.68" y="151.764" fill="#C2B59B" width="36.483" height="28.609"/>
				<rect x="78.68" y="180.946" fill="#C2B59B" width="36.483" height="29.181"/>
				<rect x="78.68" y="210.699" fill="#C2B59B" width="36.483" height="29.181"/>
			</g>
			<g>
				<rect x="43.627" y="151.764" fill="#C2B59B" width="34.338" height="28.609"/>
				<rect x="43.627" y="180.946" fill="#C2B59B" width="34.338" height="29.181"/>
				<rect x="43.627" y="210.699" fill="#C2B59B" width="34.338" height="29.181"/>
			</g>
			<g>
				<rect x="6.428" y="151.764" fill="#C2B59B" width="36.484" height="28.609"/>
				<rect x="6.428" y="180.946" fill="#C2B59B" width="36.484" height="29.181"/>
				<rect x="6.428" y="210.699" fill="#C2B59B" width="36.484" height="29.181"/>
			</g>
			<g>
				<rect x="-30.055" y="151.764" fill="#C2B59B" width="35.768" height="28.609"/>
				<rect x="-30.055" y="180.946" fill="#C2B59B" width="35.768" height="29.181"/>
				<rect x="-30.055" y="210.699" fill="#C2B59B" width="35.768" height="29.181"/>
			</g>
			<g>
				<rect x="-65.823" y="151.764" fill="#C2B59B" width="35.052" height="28.609"/>
				<rect x="-65.823" y="180.946" fill="#C2B59B" width="35.052" height="29.181"/>
				<rect x="-65.823" y="210.699" fill="#C2B59B" width="35.052" height="29.181"/>
			</g>
			<g>
				<rect x="-103.022" y="151.764" fill="#C2B59B" width="36.484" height="28.609"/>
				<rect x="-103.022" y="180.946" fill="#C2B59B" width="36.484" height="29.181"/>
				<rect x="-103.022" y="210.699" fill="#C2B59B" width="36.484" height="29.181"/>
			</g>
		</g>
	</g>
	<g>
		<g>
			<g>
				<rect x="444.232" y="62.503" fill="#C2B59B" width="35.768" height="28.608"/>
				<rect x="444.232" y="91.684" fill="#C2B59B" width="35.768" height="29.181"/>
				<rect x="444.232" y="121.438" fill="#C2B59B" width="35.768" height="29.753"/>
			</g>
			<g>
				<rect x="408.463" y="62.503" fill="#C2B59B" width="35.054" height="28.608"/>
				<rect x="408.463" y="91.684" fill="#C2B59B" width="35.054" height="29.181"/>
				<rect x="408.463" y="121.438" fill="#C2B59B" width="35.054" height="29.753"/>
			</g>
			<g>
				<rect x="371.264" y="62.503" fill="#C2B59B" width="35.769" height="28.608"/>
				<rect x="371.264" y="91.684" fill="#C2B59B" width="35.769" height="29.181"/>
				<rect x="371.264" y="121.438" fill="#C2B59B" width="35.769" height="29.753"/>
			</g>
			<g>
				<rect x="335.497" y="62.503" fill="#C2B59B" width="35.052" height="28.608"/>
				<rect x="335.497" y="91.684" fill="#C2B59B" width="35.052" height="29.181"/>
				<rect x="335.497" y="121.438" fill="#C2B59B" width="35.052" height="29.753"/>
			</g>
			<g>
				<rect x="298.298" y="62.503" fill="#C2B59B" width="35.768" height="28.608"/>
				<rect x="298.298" y="91.684" fill="#C2B59B" width="35.768" height="29.181"/>
				<rect x="298.298" y="121.438" fill="#C2B59B" width="35.768" height="29.753"/>
			</g>
			<g>
				<rect x="261.814" y="62.503" fill="#C2B59B" width="36.483" height="28.608"/>
				<rect x="261.814" y="91.684" fill="#C2B59B" width="36.483" height="29.181"/>
				<rect x="261.814" y="121.438" fill="#C2B59B" width="36.483" height="29.753"/>
			</g>
			<g>
				<rect x="224.615" y="62.503" fill="#C2B59B" width="36.483" height="28.608"/>
				<rect x="224.615" y="91.684" fill="#C2B59B" width="36.483" height="29.181"/>
				<rect x="224.615" y="121.438" fill="#C2B59B" width="36.483" height="29.753"/>
			</g>
			<g>
				<rect x="189.562" y="62.503" fill="#C2B59B" width="34.338" height="28.608"/>
				<rect x="189.562" y="91.684" fill="#C2B59B" width="34.338" height="29.181"/>
				<rect x="189.562" y="121.438" fill="#C2B59B" width="34.338" height="29.753"/>
			</g>
			<g>
				<rect x="152.364" y="62.503" fill="#C2B59B" width="35.768" height="28.608"/>
				<rect x="152.364" y="91.684" fill="#C2B59B" width="35.768" height="29.181"/>
				<rect x="152.364" y="121.438" fill="#C2B59B" width="35.768" height="29.753"/>
			</g>
			<g>
				<rect x="115.879" y="62.503" fill="#C2B59B" width="35.768" height="28.608"/>
				<rect x="115.879" y="91.684" fill="#C2B59B" width="35.768" height="29.181"/>
				<rect x="115.879" y="121.438" fill="#C2B59B" width="35.768" height="29.753"/>
			</g>
			<g>
				<rect x="78.68" y="62.503" fill="#C2B59B" width="36.483" height="28.608"/>
				<rect x="78.68" y="91.684" fill="#C2B59B" width="36.483" height="29.181"/>
				<rect x="78.68" y="121.438" fill="#C2B59B" width="36.483" height="29.753"/>
			</g>
			<g>
				<rect x="43.627" y="62.503" fill="#C2B59B" width="34.338" height="28.608"/>
				<rect x="43.627" y="91.684" fill="#C2B59B" width="34.338" height="29.181"/>
				<rect x="43.627" y="121.438" fill="#C2B59B" width="34.338" height="29.753"/>
			</g>
			<g>
				<rect x="6.428" y="62.503" fill="#C2B59B" width="36.484" height="28.608"/>
				<rect x="6.428" y="91.684" fill="#C2B59B" width="36.484" height="29.181"/>
				<rect x="6.428" y="121.438" fill="#C2B59B" width="36.484" height="29.753"/>
			</g>
			<g>
				<rect x="-30.055" y="62.503" fill="#C2B59B" width="35.768" height="28.608"/>
				<rect x="-30.055" y="91.684" fill="#C2B59B" width="35.768" height="29.181"/>
				<rect x="-30.055" y="121.438" fill="#C2B59B" width="35.768" height="29.753"/>
			</g>
			<g>
				<rect x="-65.823" y="62.503" fill="#C2B59B" width="35.052" height="28.608"/>
				<rect x="-65.823" y="91.684" fill="#C2B59B" width="35.052" height="29.181"/>
				<rect x="-65.823" y="121.438" fill="#C2B59B" width="35.052" height="29.753"/>
			</g>
			<g>
				<rect x="-103.022" y="62.503" fill="#C2B59B" width="36.484" height="28.608"/>
				<rect x="-103.022" y="91.684" fill="#C2B59B" width="36.484" height="29.181"/>
				<rect x="-103.022" y="121.438" fill="#C2B59B" width="36.484" height="29.753"/>
			</g>
		</g>
	</g>
	<g>
		<g>
			<g>
				<rect x="444.232" y="240.451" fill="#C2B59B" width="35.768" height="29.755"/>
				<rect x="444.232" y="270.779" fill="#C2B59B" width="35.768" height="29.182"/>
				<rect x="444.232" y="300.532" fill="#C2B59B" width="35.768" height="28.609"/>
			</g>
			<g>
				<rect x="408.463" y="240.451" fill="#C2B59B" width="35.054" height="29.755"/>
				<rect x="408.463" y="270.779" fill="#C2B59B" width="35.054" height="29.182"/>
				<rect x="408.463" y="300.532" fill="#C2B59B" width="35.054" height="28.609"/>
			</g>
			<g>
				<rect x="371.264" y="240.451" fill="#C2B59B" width="35.769" height="29.755"/>
				<rect x="371.264" y="270.779" fill="#C2B59B" width="35.769" height="29.182"/>
				<rect x="371.264" y="300.532" fill="#C2B59B" width="35.769" height="28.609"/>
			</g>
			<g>
				<rect x="335.497" y="240.451" fill="#C2B59B" width="35.052" height="29.755"/>
				<rect x="335.497" y="270.779" fill="#C2B59B" width="35.052" height="29.182"/>
				<rect x="335.497" y="300.532" fill="#C2B59B" width="35.052" height="28.609"/>
			</g>
			<g>
				<rect x="298.298" y="240.451" fill="#C2B59B" width="35.768" height="29.755"/>
				<rect x="298.298" y="270.779" fill="#C2B59B" width="35.768" height="29.182"/>
				<rect x="298.298" y="300.532" fill="#C2B59B" width="35.768" height="28.609"/>
			</g>
			<g>
				<rect x="261.814" y="240.451" fill="#C2B59B" width="36.483" height="29.755"/>
				<rect x="261.814" y="270.779" fill="#C2B59B" width="36.483" height="29.182"/>
				<rect x="261.814" y="300.532" fill="#C2B59B" width="36.483" height="28.609"/>
			</g>
			<g>
				<rect x="224.615" y="240.451" fill="#C2B59B" width="36.483" height="29.755"/>
				<rect x="224.615" y="270.779" fill="#C2B59B" width="36.483" height="29.182"/>
				<rect x="224.615" y="300.532" fill="#C2B59B" width="36.483" height="28.609"/>
			</g>
			<g>
				<rect x="189.562" y="240.451" fill="#C2B59B" width="34.338" height="29.755"/>
				<rect x="189.562" y="270.779" fill="#C2B59B" width="34.338" height="29.182"/>
				<rect x="189.562" y="300.532" fill="#C2B59B" width="34.338" height="28.609"/>
			</g>
			<g>
				<rect x="152.364" y="240.451" fill="#C2B59B" width="35.768" height="29.755"/>
				<rect x="152.364" y="270.779" fill="#C2B59B" width="35.768" height="29.182"/>
				<rect x="152.364" y="300.532" fill="#C2B59B" width="35.768" height="28.609"/>
			</g>
			<g>
				<rect x="115.879" y="240.451" fill="#C2B59B" width="35.768" height="29.755"/>
				<rect x="115.879" y="270.779" fill="#C2B59B" width="35.768" height="29.182"/>
				<rect x="115.879" y="300.532" fill="#C2B59B" width="35.768" height="28.609"/>
			</g>
			<g>
				<rect x="78.68" y="240.451" fill="#C2B59B" width="36.483" height="29.755"/>
				<rect x="78.68" y="270.779" fill="#C2B59B" width="36.483" height="29.182"/>
				<rect x="78.68" y="300.532" fill="#C2B59B" width="36.483" height="28.609"/>
			</g>
			<g>
				<rect x="43.627" y="240.451" fill="#C2B59B" width="34.338" height="29.755"/>
				<rect x="43.627" y="270.779" fill="#C2B59B" width="34.338" height="29.182"/>
				<rect x="43.627" y="300.532" fill="#C2B59B" width="34.338" height="28.609"/>
			</g>
			<g>
				<rect x="6.428" y="240.451" fill="#C2B59B" width="36.484" height="29.755"/>
				<rect x="6.428" y="270.779" fill="#C2B59B" width="36.484" height="29.182"/>
				<rect x="6.428" y="300.532" fill="#C2B59B" width="36.484" height="28.609"/>
			</g>
			<g>
				<rect x="-30.055" y="240.451" fill="#C2B59B" width="35.768" height="29.755"/>
				<rect x="-30.055" y="270.779" fill="#C2B59B" width="35.768" height="29.182"/>
				<rect x="-30.055" y="300.532" fill="#C2B59B" width="35.768" height="28.609"/>
			</g>
			<g>
				<rect x="-65.823" y="240.451" fill="#C2B59B" width="35.052" height="29.755"/>
				<rect x="-65.823" y="270.779" fill="#C2B59B" width="35.052" height="29.182"/>
				<rect x="-65.823" y="300.532" fill="#C2B59B" width="35.052" height="28.609"/>
			</g>
			<g>
				<rect x="-103.022" y="240.451" fill="#C2B59B" width="36.484" height="29.755"/>
				<rect x="-103.022" y="270.779" fill="#C2B59B" width="36.484" height="29.182"/>
				<rect x="-103.022" y="300.532" fill="#C2B59B" width="36.484" height="28.609"/>
			</g>
		</g>
	</g>
</g>
<g>
	<g>
		<g>
			<g>
				<rect x="598.352" y="467.917" fill="#F7F3EB" width="50.119" height="16.117"/>
				<rect x="598.352" y="484.357" fill="#F7F3EB" width="50.119" height="16.439"/>
				<rect x="598.352" y="501.117" fill="#F7F3EB" width="50.119" height="16.439"/>
			</g>
			<g>
				<rect x="548.232" y="467.917" fill="#F7F3EB" width="49.118" height="16.117"/>
				<rect x="548.232" y="484.357" fill="#F7F3EB" width="49.118" height="16.439"/>
				<rect x="548.232" y="501.117" fill="#F7F3EB" width="49.118" height="16.439"/>
			</g>
			<g>
				<rect x="496.11" y="467.917" fill="#F7F3EB" width="50.119" height="16.117"/>
				<rect x="496.11" y="484.357" fill="#F7F3EB" width="50.119" height="16.439"/>
				<rect x="496.11" y="501.117" fill="#F7F3EB" width="50.119" height="16.439"/>
			</g>
			<g>
				<rect x="445.99" y="467.917" fill="#F7F3EB" width="49.116" height="16.117"/>
				<rect x="445.99" y="484.357" fill="#F7F3EB" width="49.116" height="16.439"/>
				<rect x="445.99" y="501.117" fill="#F7F3EB" width="49.116" height="16.439"/>
			</g>
			<g>
				<rect x="393.866" y="467.917" fill="#F7F3EB" width="50.119" height="16.117"/>
				<rect x="393.866" y="484.357" fill="#F7F3EB" width="50.119" height="16.439"/>
				<rect x="393.866" y="501.117" fill="#F7F3EB" width="50.119" height="16.439"/>
			</g>
			<g>
				<rect x="342.745" y="467.917" fill="#F7F3EB" width="51.122" height="16.117"/>
				<rect x="342.745" y="484.357" fill="#F7F3EB" width="51.122" height="16.439"/>
				<rect x="342.745" y="501.117" fill="#F7F3EB" width="51.122" height="16.439"/>
			</g>
			<g>
				<rect x="290.621" y="467.917" fill="#F7F3EB" width="51.122" height="16.117"/>
				<rect x="290.621" y="484.357" fill="#F7F3EB" width="51.122" height="16.439"/>
				<rect x="290.621" y="501.117" fill="#F7F3EB" width="51.122" height="16.439"/>
			</g>
			<g>
				<rect x="241.503" y="467.917" fill="#F7F3EB" width="48.115" height="16.117"/>
				<rect x="241.503" y="484.357" fill="#F7F3EB" width="48.115" height="16.439"/>
				<rect x="241.503" y="501.117" fill="#F7F3EB" width="48.115" height="16.439"/>
			</g>
			<g>
				<rect x="189.38" y="467.917" fill="#F7F3EB" width="50.119" height="16.117"/>
				<rect x="189.38" y="484.357" fill="#F7F3EB" width="50.119" height="16.439"/>
				<rect x="189.38" y="501.117" fill="#F7F3EB" width="50.119" height="16.439"/>
			</g>
			<g>
				<rect x="138.258" y="467.917" fill="#F7F3EB" width="50.12" height="16.117"/>
				<rect x="138.258" y="484.357" fill="#F7F3EB" width="50.12" height="16.439"/>
				<rect x="138.258" y="501.117" fill="#F7F3EB" width="50.12" height="16.439"/>
			</g>
			<g>
				<rect x="86.134" y="467.917" fill="#F7F3EB" width="51.122" height="16.117"/>
				<rect x="86.134" y="484.357" fill="#F7F3EB" width="51.122" height="16.439"/>
				<rect x="86.134" y="501.117" fill="#F7F3EB" width="51.122" height="16.439"/>
			</g>
			<g>
				<rect x="37.016" y="467.917" fill="#F7F3EB" width="48.115" height="16.117"/>
				<rect x="37.016" y="484.357" fill="#F7F3EB" width="48.115" height="16.439"/>
				<rect x="37.016" y="501.117" fill="#F7F3EB" width="48.115" height="16.439"/>
			</g>
			<g>
				<rect x="-15.108" y="467.917" fill="#F7F3EB" width="51.123" height="16.117"/>
				<rect x="-15.108" y="484.357" fill="#F7F3EB" width="51.123" height="16.439"/>
				<rect x="-15.108" y="501.117" fill="#F7F3EB" width="51.123" height="16.439"/>
			</g>
			<g>
				<rect x="-66.229" y="467.917" fill="#F7F3EB" width="50.119" height="16.117"/>
				<rect x="-66.229" y="484.357" fill="#F7F3EB" width="50.119" height="16.439"/>
				<rect x="-66.229" y="501.117" fill="#F7F3EB" width="50.119" height="16.439"/>
			</g>
			<g>
				<rect x="-116.348" y="467.917" fill="#F7F3EB" width="49.117" height="16.117"/>
				<rect x="-116.348" y="484.357" fill="#F7F3EB" width="49.117" height="16.439"/>
				<rect x="-116.348" y="501.117" fill="#F7F3EB" width="49.117" height="16.439"/>
			</g>
			<g>
				<rect x="-168.472" y="467.917" fill="#F7F3EB" width="51.123" height="16.117"/>
				<rect x="-168.472" y="484.357" fill="#F7F3EB" width="51.123" height="16.439"/>
				<rect x="-168.472" y="501.117" fill="#F7F3EB" width="51.123" height="16.439"/>
			</g>
		</g>
	</g>
	<g>
		<g>
			<g>
				<rect x="598.352" y="417.634" fill="#F7F3EB" width="50.119" height="16.116"/>
				<rect x="598.352" y="434.073" fill="#F7F3EB" width="50.119" height="16.438"/>
				<rect x="598.352" y="450.834" fill="#F7F3EB" width="50.119" height="16.762"/>
			</g>
			<g>
				<rect x="548.232" y="417.634" fill="#F7F3EB" width="49.118" height="16.116"/>
				<rect x="548.232" y="434.073" fill="#F7F3EB" width="49.118" height="16.438"/>
				<rect x="548.232" y="450.834" fill="#F7F3EB" width="49.118" height="16.762"/>
			</g>
			<g>
				<rect x="496.11" y="417.634" fill="#F7F3EB" width="50.119" height="16.116"/>
				<rect x="496.11" y="434.073" fill="#F7F3EB" width="50.119" height="16.438"/>
				<rect x="496.11" y="450.834" fill="#F7F3EB" width="50.119" height="16.762"/>
			</g>
			<g>
				<rect x="445.99" y="417.634" fill="#F7F3EB" width="49.116" height="16.116"/>
				<rect x="445.99" y="434.073" fill="#F7F3EB" width="49.116" height="16.438"/>
				<rect x="445.99" y="450.834" fill="#F7F3EB" width="49.116" height="16.762"/>
			</g>
			<g>
				<rect x="393.866" y="417.634" fill="#F7F3EB" width="50.119" height="16.116"/>
				<rect x="393.866" y="434.073" fill="#F7F3EB" width="50.119" height="16.438"/>
				<rect x="393.866" y="450.834" fill="#F7F3EB" width="50.119" height="16.762"/>
			</g>
			<g>
				<rect x="342.745" y="417.634" fill="#F7F3EB" width="51.122" height="16.116"/>
				<rect x="342.745" y="434.073" fill="#F7F3EB" width="51.122" height="16.438"/>
				<rect x="342.745" y="450.834" fill="#F7F3EB" width="51.122" height="16.762"/>
			</g>
			<g>
				<rect x="290.621" y="417.634" fill="#F7F3EB" width="51.122" height="16.116"/>
				<rect x="290.621" y="434.073" fill="#F7F3EB" width="51.122" height="16.438"/>
				<rect x="290.621" y="450.834" fill="#F7F3EB" width="51.122" height="16.762"/>
			</g>
			<g>
				<rect x="241.503" y="417.634" fill="#F7F3EB" width="48.115" height="16.116"/>
				<rect x="241.503" y="434.073" fill="#F7F3EB" width="48.115" height="16.438"/>
				<rect x="241.503" y="450.834" fill="#F7F3EB" width="48.115" height="16.762"/>
			</g>
			<g>
				<rect x="189.38" y="417.634" fill="#F7F3EB" width="50.119" height="16.116"/>
				<rect x="189.38" y="434.073" fill="#F7F3EB" width="50.119" height="16.438"/>
				<rect x="189.38" y="450.834" fill="#F7F3EB" width="50.119" height="16.762"/>
			</g>
			<g>
				<rect x="138.258" y="417.634" fill="#F7F3EB" width="50.12" height="16.116"/>
				<rect x="138.258" y="434.073" fill="#F7F3EB" width="50.12" height="16.438"/>
				<rect x="138.258" y="450.834" fill="#F7F3EB" width="50.12" height="16.762"/>
			</g>
			<g>
				<rect x="86.134" y="417.634" fill="#F7F3EB" width="51.122" height="16.116"/>
				<rect x="86.134" y="434.073" fill="#F7F3EB" width="51.122" height="16.438"/>
				<rect x="86.134" y="450.834" fill="#F7F3EB" width="51.122" height="16.762"/>
			</g>
			<g>
				<rect x="37.016" y="417.634" fill="#F7F3EB" width="48.115" height="16.116"/>
				<rect x="37.016" y="434.073" fill="#F7F3EB" width="48.115" height="16.438"/>
				<rect x="37.016" y="450.834" fill="#F7F3EB" width="48.115" height="16.762"/>
			</g>
			<g>
				<rect x="-15.108" y="417.634" fill="#F7F3EB" width="51.123" height="16.116"/>
				<rect x="-15.108" y="434.073" fill="#F7F3EB" width="51.123" height="16.438"/>
				<rect x="-15.108" y="450.834" fill="#F7F3EB" width="51.123" height="16.762"/>
			</g>
			<g>
				<rect x="-66.229" y="417.634" fill="#F7F3EB" width="50.119" height="16.116"/>
				<rect x="-66.229" y="434.073" fill="#F7F3EB" width="50.119" height="16.438"/>
				<rect x="-66.229" y="450.834" fill="#F7F3EB" width="50.119" height="16.762"/>
			</g>
			<g>
				<rect x="-116.348" y="417.634" fill="#F7F3EB" width="49.117" height="16.116"/>
				<rect x="-116.348" y="434.073" fill="#F7F3EB" width="49.117" height="16.438"/>
				<rect x="-116.348" y="450.834" fill="#F7F3EB" width="49.117" height="16.762"/>
			</g>
			<g>
				<rect x="-168.472" y="417.634" fill="#F7F3EB" width="51.123" height="16.116"/>
				<rect x="-168.472" y="434.073" fill="#F7F3EB" width="51.123" height="16.438"/>
				<rect x="-168.472" y="450.834" fill="#F7F3EB" width="51.123" height="16.762"/>
			</g>
		</g>
	</g>
	<g>
		<g>
			<g>
				<rect x="598.352" y="517.878" fill="#F7F3EB" width="50.119" height="16.762"/>
				<rect x="598.352" y="534.963" fill="#F7F3EB" width="50.119" height="16.438"/>
				<rect x="598.352" y="551.724" fill="#F7F3EB" width="50.119" height="16.116"/>
			</g>
			<g>
				<rect x="548.232" y="517.878" fill="#F7F3EB" width="49.118" height="16.762"/>
				<rect x="548.232" y="534.963" fill="#F7F3EB" width="49.118" height="16.438"/>
				<rect x="548.232" y="551.724" fill="#F7F3EB" width="49.118" height="16.116"/>
			</g>
			<g>
				<rect x="496.11" y="517.878" fill="#F7F3EB" width="50.119" height="16.762"/>
				<rect x="496.11" y="534.963" fill="#F7F3EB" width="50.119" height="16.438"/>
				<rect x="496.11" y="551.724" fill="#F7F3EB" width="50.119" height="16.116"/>
			</g>
			<g>
				<rect x="445.99" y="517.878" fill="#F7F3EB" width="49.116" height="16.762"/>
				<rect x="445.99" y="534.963" fill="#F7F3EB" width="49.116" height="16.438"/>
				<rect x="445.99" y="551.724" fill="#F7F3EB" width="49.116" height="16.116"/>
			</g>
			<g>
				<rect x="393.866" y="517.878" fill="#F7F3EB" width="50.119" height="16.762"/>
				<rect x="393.866" y="534.963" fill="#F7F3EB" width="50.119" height="16.438"/>
				<rect x="393.866" y="551.724" fill="#F7F3EB" width="50.119" height="16.116"/>
			</g>
			<g>
				<rect x="342.745" y="517.878" fill="#F7F3EB" width="51.122" height="16.762"/>
				<rect x="342.745" y="534.963" fill="#F7F3EB" width="51.122" height="16.438"/>
				<rect x="342.745" y="551.724" fill="#F7F3EB" width="51.122" height="16.116"/>
			</g>
			<g>
				<rect x="290.621" y="517.878" fill="#F7F3EB" width="51.122" height="16.762"/>
				<rect x="290.621" y="534.963" fill="#F7F3EB" width="51.122" height="16.438"/>
				<rect x="290.621" y="551.724" fill="#F7F3EB" width="51.122" height="16.116"/>
			</g>
			<g>
				<rect x="241.503" y="517.878" fill="#F7F3EB" width="48.115" height="16.762"/>
				<rect x="241.503" y="534.963" fill="#F7F3EB" width="48.115" height="16.438"/>
				<rect x="241.503" y="551.724" fill="#F7F3EB" width="48.115" height="16.116"/>
			</g>
			<g>
				<rect x="189.38" y="517.878" fill="#F7F3EB" width="50.119" height="16.762"/>
				<rect x="189.38" y="534.963" fill="#F7F3EB" width="50.119" height="16.438"/>
				<rect x="189.38" y="551.724" fill="#F7F3EB" width="50.119" height="16.116"/>
			</g>
			<g>
				<rect x="138.258" y="517.878" fill="#F7F3EB" width="50.12" height="16.762"/>
				<rect x="138.258" y="534.963" fill="#F7F3EB" width="50.12" height="16.438"/>
				<rect x="138.258" y="551.724" fill="#F7F3EB" width="50.12" height="16.116"/>
			</g>
			<g>
				<rect x="86.134" y="517.878" fill="#F7F3EB" width="51.122" height="16.762"/>
				<rect x="86.134" y="534.963" fill="#F7F3EB" width="51.122" height="16.438"/>
				<rect x="86.134" y="551.724" fill="#F7F3EB" width="51.122" height="16.116"/>
			</g>
			<g>
				<rect x="37.016" y="517.878" fill="#F7F3EB" width="48.115" height="16.762"/>
				<rect x="37.016" y="534.963" fill="#F7F3EB" width="48.115" height="16.438"/>
				<rect x="37.016" y="551.724" fill="#F7F3EB" width="48.115" height="16.116"/>
			</g>
			<g>
				<rect x="-15.108" y="517.878" fill="#F7F3EB" width="51.123" height="16.762"/>
				<rect x="-15.108" y="534.963" fill="#F7F3EB" width="51.123" height="16.438"/>
				<rect x="-15.108" y="551.724" fill="#F7F3EB" width="51.123" height="16.116"/>
			</g>
			<g>
				<rect x="-66.229" y="517.878" fill="#F7F3EB" width="50.119" height="16.762"/>
				<rect x="-66.229" y="534.963" fill="#F7F3EB" width="50.119" height="16.438"/>
				<rect x="-66.229" y="551.724" fill="#F7F3EB" width="50.119" height="16.116"/>
			</g>
			<g>
				<rect x="-116.348" y="517.878" fill="#F7F3EB" width="49.117" height="16.762"/>
				<rect x="-116.348" y="534.963" fill="#F7F3EB" width="49.117" height="16.438"/>
				<rect x="-116.348" y="551.724" fill="#F7F3EB" width="49.117" height="16.116"/>
			</g>
			<g>
				<rect x="-168.472" y="517.878" fill="#F7F3EB" width="51.123" height="16.762"/>
				<rect x="-168.472" y="534.963" fill="#F7F3EB" width="51.123" height="16.438"/>
				<rect x="-168.472" y="551.724" fill="#F7F3EB" width="51.123" height="16.116"/>
			</g>
		</g>
	</g>
</g>
<g>
	<g>
		<rect x="-106.96" y="247.499" fill="#F7DB85" width="105.576" height="167.683"/>
		<rect x="226.782" y="247.499" fill="#F7DB85" width="97.177" height="167.683"/>
		<path fill="#3E2B15" d="M-13.874,257.498c0,1.011-0.723,1.829-1.613,1.829h-20.851c-0.891,0-1.614-0.817-1.614-1.829l0,0
			c0-1.009,0.723-1.828,1.614-1.828h20.851C-14.597,255.671-13.874,256.49-13.874,257.498L-13.874,257.498z"/>
		<path fill="#3E2B15" d="M255.547,257.498c0,1.011-0.723,1.829-1.612,1.829h-20.853c-0.89,0-1.613-0.817-1.613-1.829l0,0
			c0-1.009,0.724-1.828,1.613-1.828h20.853C254.824,255.671,255.547,256.49,255.547,257.498L255.547,257.498z"/>
		<rect x="130.487" y="247.499" fill="#F7DB85" width="97.178" height="167.683"/>
		<path fill="#3E2B15" d="M221.084,257.498c0,1.011-0.724,1.829-1.613,1.829h-20.853c-0.89,0-1.613-0.817-1.613-1.829l0,0
			c0-1.009,0.723-1.828,1.613-1.828h20.853C220.361,255.671,221.084,256.49,221.084,257.498L221.084,257.498z"/>
		<rect x="-106.96" y="236.119" fill="#3E2B15" width="587.559" height="11.38"/>
		<rect x="323.859" y="247.499" fill="#F7DB85" width="156.739" height="167.683"/>
		<rect x="323.859" y="266.326" fill="#3E2B15" width="156.739" height="2.799"/>
		<path fill="#3E2B15" d="M414.268,257.498c0,1.011-0.724,1.829-1.614,1.829h-20.851c-0.891,0-1.613-0.817-1.613-1.829l0,0
			c0-1.009,0.723-1.828,1.613-1.828h20.851C413.544,255.671,414.268,256.49,414.268,257.498L414.268,257.498z"/>
		<path fill="#3E2B15" d="M362.933,288.026c0,1.01-0.722,1.828-1.612,1.828h-20.853c-0.89,0-1.611-0.818-1.611-1.828l0,0
			c0-1.01,0.722-1.828,1.611-1.828h20.853C362.213,286.196,362.933,287.014,362.933,288.026L362.933,288.026z"/>
		<rect x="130.488" y="247.499" fill="#3E2B15" width="4.62" height="167.683"/>
		<rect x="319.824" y="247.499" fill="#3E2B15" width="4.62" height="167.683"/>
		<rect x="1.693" y="247.499" fill="#F7DB85" width="129.317" height="167.683"/>
		<path fill="#3E2B15" d="M78.08,257.498c0,1.011-0.735,1.829-1.644,1.829H55.22c-0.906,0-1.642-0.817-1.642-1.829l0,0
			c0-1.009,0.735-1.828,1.642-1.828h21.216C77.344,255.671,78.08,256.49,78.08,257.498L78.08,257.498z"/>
		<rect x="-1.384" y="266.326" fill="#3E2B15" width="134.182" height="2.799"/>
		<rect x="-2.057" y="247.499" fill="#3E2B15" width="4.621" height="167.683"/>
		<path fill="#3E2B15" d="M116.142,286.196c0,1.01-0.723,1.83-1.613,1.83H93.677c-0.89,0-1.613-0.82-1.613-1.83l0,0
			c0-1.008,0.724-1.827,1.613-1.827h20.852C115.419,284.369,116.142,285.187,116.142,286.196L116.142,286.196z"/>
	</g>
	<g>
		<rect x="202.871" y="229.591" fill="#9AA1A5" width="48.255" height="6.167"/>
		<g>
			<path fill="#9AA1A5" d="M229.962,227.157h-6.814v-33.304c0-10.133,7.578-18.378,16.892-18.378
				c9.315,0,16.893,8.245,16.893,18.378h-6.813c0-6.046-4.521-10.962-10.078-10.962c-5.558,0-10.079,4.917-10.079,10.962
				L229.962,227.157L229.962,227.157z"/>
		</g>
		<rect x="217.123" y="225.528" fill="#525A63" width="19.75" height="4.848"/>
	</g>
</g>
<g>
	<rect x="-99.722" y="13.945" fill="#3E2B15" width="580.733" height="8.512"/>
	<rect x="337.03" y="21.681" fill="#F7DB85" width="143.981" height="125.432"/>
	<rect x="192.594" y="21.681" fill="#F7DB85" width="143.982" height="125.432"/>
	<path fill="#3E2B15" d="M372.194,135.578c0,0.755-0.722,1.367-1.611,1.367h-20.819c-0.889,0-1.61-0.612-1.61-1.367l0,0
		c0-0.756,0.722-1.368,1.61-1.368h20.819C371.472,134.21,372.194,134.823,372.194,135.578L372.194,135.578z"/>
	<path fill="#3E2B15" d="M310.324,134.21c0,0.754-0.721,1.368-1.61,1.368h-20.821c-0.891,0-1.611-0.614-1.611-1.368l0,0
		c0-0.757,0.721-1.369,1.611-1.369h20.821C309.603,132.842,310.324,133.454,310.324,134.21L310.324,134.21z"/>
	<rect x="45.086" y="21.184" fill="#F7DB85" width="143.983" height="125.433"/>
	<rect x="-99.35" y="21.184" fill="#F7DB85" width="143.983" height="125.433"/>
	<path fill="#3E2B15" d="M80.249,135.081c0,0.755-0.72,1.368-1.61,1.368H57.818c-0.89,0-1.611-0.613-1.611-1.368l0,0
		c0-0.757,0.721-1.368,1.611-1.368h20.821C79.529,133.713,80.249,134.324,80.249,135.081L80.249,135.081z"/>
	<path fill="#3E2B15" d="M18.379,133.713c0,0.755-0.721,1.368-1.61,1.368H-4.052c-0.89,0-1.611-0.614-1.611-1.368l0,0
		c0-0.757,0.721-1.369,1.611-1.369h20.821C17.658,132.344,18.379,132.957,18.379,133.713L18.379,133.713z"/>
	<rect x="187.862" y="21.403" fill="#3E2B15" width="4.612" height="125.432"/>
</g>
<g>
	<path fill="#E6E7E8" d="M672.866,58.755c0-1.784-1.485-3.44-4.016-3.44H485.484c-2.533,0-4.438,1.656-4.438,3.44V411.95
		c0,1.785,1.905,3.231,4.438,3.231H668.85c2.531,0,4.016-1.446,4.016-3.231V58.755z"/>
	<rect x="480.598" y="159.681" fill="#555455" width="192.704" height="3.609"/>
	<g>
		<path fill="#828181" d="M500.728,154.465c0,0-1.729-25.051-2.182-26.768c-0.429-1.635-1.01-6.177-3.217-6.549
			c0,0-0.116-0.028-0.171-0.021c-0.059-0.005-0.168,0.03-0.168,0.03c-2.162,0.484-2.278,5.043-2.538,6.695
			c-0.278,1.735,0.549,26.809,0.549,26.809c0.549,0.709,2.864,0.83,3.743,0.849v0.013c0,0,0.064-0.003,0.17-0.01
			c0.105,0.001,0.169,0,0.169,0l-0.003-0.014C497.953,155.439,500.249,155.201,500.728,154.465z"/>
	</g>
	<g>
		<path fill="#828181" d="M492.762,169.737c0,0,0.191,43.984,0.535,47.014c0.334,2.886,0.63,10.871,2.812,11.629
			c0,0,0.113,0.055,0.172,0.045c0.056,0.01,0.168-0.044,0.168-0.044c2.192-0.746,2.586-8.729,2.95-11.613
			c0.381-3.027,1.093-47.009,1.093-47.009c-0.504-1.267-2.81-1.59-3.687-1.665v-0.023c0,0-0.063,0.002-0.169,0.011
			c-0.107-0.009-0.171-0.011-0.171-0.011v0.022C495.591,168.164,493.28,168.472,492.762,169.737z"/>
	</g>
</g>
<g>
	<path fill="#F5F0E6" d="M27.219,202.942c0-1.23-1.126-2.312-2.216-2.312H-83.678c-1.088,0-2.396,1.082-2.396,2.312v38.613
		c0,1.23,1.308,2.561,2.396,2.561H25.004c1.09,0,2.216-1.33,2.216-2.561L27.219,202.942L27.219,202.942z"/>
	<path fill="#FFFFFF" d="M23.214,206.346c0-0.953-0.711-1.712-1.726-1.712H-79.79c-1.015,0-2.85,0.758-2.85,1.712v29.953
		c0,0.953,1.834,2.094,2.85,2.094H21.488c1.015,0,1.726-1.141,1.726-2.094L23.214,206.346L23.214,206.346z"/>
	<rect x="-85.495" y="243.6" fill="#F5F0E6" width="112.472" height="16.71"/>
	<g>
		<g>
			<g>
				<g>
					<path fill="#616262" d="M-37.27,240.886h-28.603c-1.354,0-2.457-1.233-2.457-2.749v-4.873c0-1.516,1.102-2.749,2.457-2.749
						h28.602c1.354,0,2.456,1.232,2.456,2.749v4.873C-34.813,239.654-35.915,240.886-37.27,240.886z M-65.872,231.449
						c-0.896,0-1.622,0.814-1.622,1.815v4.873c0,1.002,0.727,1.816,1.622,1.816h28.602c0.896,0,1.622-0.814,1.622-1.816v-4.873
						c0-1.001-0.726-1.815-1.622-1.815H-65.872z"/>
				</g>
				<g>
					<path fill="#4B4946" d="M-37.77,236.67c0,1.409-1.021,2.55-2.279,2.55h-23.043c-1.259,0-2.278-1.141-2.278-2.55v-0.239
						c0-1.407,1.02-2.55,2.278-2.55h23.043c1.259,0,2.279,1.143,2.279,2.55V236.67z"/>
				</g>
			</g>
			<g>
				<g>
					<path fill="#616262" d="M6.315,240.886h-28.602c-1.355,0-2.457-1.233-2.457-2.749v-4.873c0-1.516,1.102-2.749,2.457-2.749
						H6.315c1.354,0,2.456,1.232,2.456,2.749v4.873C8.771,239.654,7.67,240.886,6.315,240.886z M-22.287,231.449
						c-0.896,0-1.623,0.814-1.623,1.815v4.873c0,1.002,0.728,1.816,1.623,1.816H6.315c0.896,0,1.623-0.814,1.623-1.816v-4.873
						c0-1.001-0.727-1.815-1.623-1.815H-22.287z"/>
				</g>
				<g>
					<path fill="#4B4946" d="M5.815,236.67c0,1.409-1.021,2.55-2.279,2.55h-23.043c-1.258,0-2.279-1.141-2.279-2.55v-0.239
						c0-1.407,1.021-2.55,2.279-2.55H3.536c1.259,0,2.279,1.143,2.279,2.55V236.67z"/>
				</g>
			</g>
		</g>
		<g>
			<path fill="#7E7E7E" d="M18.636,245.682c0,1.545-1.119,2.798-2.501,2.798h-91.827c-1.381,0-2.501-1.252-2.501-2.798v-6.249
				c0-1.545,1.12-2.799,2.501-2.799h91.827c1.381,0,2.502,1.253,2.502,2.799L18.636,245.682L18.636,245.682z"/>
		</g>
	</g>
	<rect x="-85.495" y="242.134" fill="#B4B4B4" width="112.472" height="5.779"/>
	<rect x="-85.84" y="242.134" opacity="0.1" fill="#FFFFFF" enable-background="new    " width="112.817" height="2.891"/>
	<g>
		<rect x="-73.989" y="241.81" fill="#4B4946" width="88.421" height="14.951"/>
	</g>
	<g>
		<path fill="#7E7E7E" d="M-52.925,252.224c-1.848,0.971-4.049,0.083-4.917-1.985c-0.868-2.066-0.075-4.531,1.773-5.499
			c1.847-0.972,4.05-0.084,4.918,1.984C-50.284,248.789-51.078,251.253-52.925,252.224z"/>
		<path fill="#373636" d="M-57.796,251.103c-0.346,0.181-0.757,0.015-0.918-0.371l0,0c-0.163-0.385-0.015-0.846,0.33-1.028
			l7.06-3.711c0.345-0.182,0.756-0.015,0.919,0.372l0,0c0.163,0.387,0.013,0.846-0.333,1.029L-57.796,251.103z"/>
	</g>
	<g>
		<path fill="#7E7E7E" d="M-4.979,252.224c-1.848,0.971-4.049,0.083-4.916-1.985c-0.868-2.066-0.074-4.531,1.774-5.499
			c1.847-0.972,4.049-0.084,4.917,1.984C-2.338,248.789-3.131,251.253-4.979,252.224z"/>
		<path fill="#373636" d="M-9.849,251.103c-0.347,0.181-0.758,0.015-0.919-0.371l0,0c-0.163-0.385-0.014-0.846,0.33-1.028
			l7.06-3.711c0.345-0.182,0.756-0.015,0.919,0.372l0,0c0.163,0.387,0.013,0.846-0.333,1.029L-9.849,251.103z"/>
	</g>
	<rect x="-78.193" y="239.433" fill="#6A655D" width="96.83" height="2.376"/>
</g>
<g>
	<g>
		<g>
			<path fill="#243A4C" d="M-0.999,192.719v1.059c-0.336-0.043-0.674-0.081-1.012-0.115c-0.258-0.029-0.513-0.054-0.769-0.08
				c-0.164-0.015-0.325-0.029-0.486-0.044c-0.055-0.003-0.109-0.01-0.161-0.013c-0.192-0.017-0.386-0.029-0.579-0.043
				c-0.254-0.017-0.506-0.035-0.757-0.046c-0.104-0.007-0.208-0.011-0.311-0.017c-0.205-0.009-0.406-0.019-0.609-0.027
				c-0.256-0.008-0.51-0.015-0.764-0.019c-0.249-0.007-0.5-0.008-0.749-0.008h-0.009c-0.249,0-0.5,0.001-0.753,0.008
				c-0.251,0.004-0.508,0.011-0.764,0.019c-0.297,0.012-0.595,0.025-0.894,0.042c-0.168,0.009-0.335,0.017-0.502,0.029
				c-0.08,0.005-0.155,0.009-0.233,0.015c-0.214,0.014-0.431,0.029-0.647,0.048c-0.038,0.005-0.076,0.006-0.115,0.009
				c-0.183,0.016-0.366,0.031-0.549,0.05c-0.246,0.022-0.489,0.045-0.732,0.074c-0.337,0.035-0.673,0.075-1.011,0.116v-1.06
				c0-1.416,1.148-2.563,2.562-2.563h7.28C-2.149,190.156-0.999,191.302-0.999,192.719z"/>
			<path fill="#A2DDF5" d="M20.427,203.529c0,0.937-0.758,1.696-1.694,1.696h-0.724v24.08c0,1.414-1.145,2.56-2.562,2.56h-45.3
				c-1.416,0-2.562-1.147-2.562-2.56v-24.08h-0.721c-0.937,0-1.694-0.759-1.694-1.696c0-0.47,0.189-0.893,0.495-1.196
				c0.308-0.311,0.73-0.498,1.199-0.498h51.868C19.669,201.835,20.427,202.591,20.427,203.529z"/>
			<path fill="#89C9D7" d="M17.173,201.835h-48.747c0-3.571,9.693-7.144,19.184-8.172c0.246-0.027,0.487-0.052,0.731-0.075
				c0.184-0.019,0.368-0.034,0.55-0.049c0.04-0.004,0.078-0.005,0.116-0.01c0.215-0.019,0.433-0.035,0.647-0.048
				c0.078-0.007,0.154-0.01,0.234-0.015c0.167-0.012,0.335-0.021,0.502-0.028c0.299-0.017,0.596-0.029,0.894-0.042
				c0.257-0.009,0.512-0.015,0.764-0.019c0.254-0.007,0.503-0.009,0.754-0.009h0.008c0.249,0,0.499,0.002,0.749,0.009
				c0.254,0.004,0.508,0.011,0.764,0.019c0.203,0.008,0.405,0.017,0.607,0.026c0.105,0.006,0.207,0.01,0.311,0.017
				c0.254,0.012,0.506,0.029,0.757,0.046c0.194,0.013,0.387,0.026,0.579,0.043c0.055,0.005,0.107,0.01,0.164,0.013
				c0.16,0.013,0.322,0.027,0.485,0.044c0.254,0.025,0.51,0.048,0.769,0.079C7.483,194.692,17.173,198.263,17.173,201.835z"/>
			<rect x="-32.414" y="205.224" fill="#89C9D7" width="50.423" height="0.884"/>
		</g>
		<g>
			<path fill="#89C9D7" d="M-32.412,207.676v2.564h-4.257c-0.707,0-1.281-0.574-1.281-1.281v-0.004c0-0.706,0.574-1.28,1.281-1.28
				H-32.412z"/>
			<path fill="#89C9D7" d="M23.548,208.956v0.003c0,0.707-0.575,1.28-1.281,1.28h-4.259v-2.563h4.259
				C22.973,207.676,23.548,208.25,23.548,208.956z"/>
		</g>
	</g>
</g>
<g>
	<g>
		<g>
			<ellipse fill="#1C75BC" cx="398.163" cy="229.573" rx="13.46" ry="1.517"/>
			<g>
				<g>
					<path d="M399.502,216.269c6.17-0.041,11.141-5.075,11.101-11.244c-0.042-6.169-5.074-11.139-11.244-11.098
						c-6.168,0.04-11.138,5.072-11.098,11.243C388.3,211.339,393.335,216.309,399.502,216.269z M394.317,212.125
						c-0.505,0.51-1.326,0.515-1.834,0.012c-0.512-0.505-0.516-1.326-0.014-1.837c0.505-0.508,1.327-0.513,1.835-0.011
						C394.815,210.794,394.818,211.615,394.317,212.125z M406.47,212.045c-0.503,0.509-1.325,0.515-1.834,0.011
						c-0.511-0.502-0.516-1.324-0.012-1.833c0.503-0.511,1.324-0.516,1.835-0.013C406.97,210.715,406.974,211.536,406.47,212.045z
						 M408.016,203.745c0.718-0.004,1.301,0.573,1.306,1.29c0.006,0.717-0.57,1.301-1.289,1.305c-0.717,0.005-1.3-0.572-1.306-1.287
						C406.724,204.334,407.301,203.747,408.016,203.745z M404.546,198.069c0.505-0.508,1.326-0.515,1.835-0.011
						c0.511,0.503,0.515,1.325,0.012,1.834c-0.505,0.51-1.325,0.515-1.836,0.011C404.048,199.402,404.043,198.579,404.546,198.069z
						 M403.745,203.772c0.717-0.005,1.302,0.573,1.307,1.29c0.006,0.717-0.573,1.3-1.289,1.305c-0.718,0.005-1.301-0.572-1.307-1.29
						C402.451,204.361,403.028,203.777,403.745,203.772z M399.369,195.188c0.717-0.006,1.3,0.573,1.305,1.29
						c0.006,0.717-0.572,1.302-1.288,1.306c-0.719,0.006-1.302-0.572-1.308-1.289C398.073,195.778,398.65,195.194,399.369,195.188z
						 M399.396,199.46c0.715-0.005,1.298,0.573,1.304,1.289c0.006,0.716-0.572,1.3-1.289,1.305c-0.715,0.006-1.3-0.573-1.305-1.289
						S398.677,199.465,399.396,199.46z M399.423,203.799c0.717-0.004,1.302,0.573,1.306,1.291c0.006,0.716-0.573,1.301-1.289,1.307
						c-0.717,0.004-1.3-0.574-1.307-1.29C398.129,204.388,398.706,203.803,399.423,203.799z M399.45,208.105
						c0.716-0.005,1.301,0.574,1.308,1.291c0.004,0.717-0.574,1.3-1.291,1.306c-0.716,0.004-1.301-0.573-1.306-1.289
						C398.158,208.695,398.733,208.108,399.45,208.105z M399.477,212.377c0.717-0.004,1.303,0.571,1.307,1.29
						c0.007,0.717-0.572,1.302-1.29,1.306c-0.717,0.003-1.301-0.573-1.306-1.29C398.184,212.966,398.761,212.381,399.477,212.377z
						 M396.406,205.116c0.005,0.717-0.572,1.303-1.289,1.308c-0.717,0.005-1.3-0.574-1.306-1.29c-0.006-0.717,0.572-1.3,1.288-1.305
						C395.816,203.824,396.4,204.401,396.406,205.116z M392.392,198.149c0.503-0.511,1.324-0.515,1.834-0.012
						c0.512,0.503,0.515,1.325,0.011,1.834c-0.503,0.51-1.324,0.514-1.834,0.012C391.894,199.48,391.888,198.656,392.392,198.149z
						 M390.828,203.855c0.718-0.005,1.302,0.575,1.306,1.289c0.007,0.718-0.573,1.302-1.288,1.306
						c-0.718,0.004-1.301-0.573-1.306-1.289C389.535,204.444,390.113,203.862,390.828,203.855z"/>
				</g>
				<rect x="398.632" y="215.552" transform="matrix(-1 0.0065 -0.0065 -1 800.6099 451.0028)" width="1.887" height="22.49"/>
				<g>
					<path d="M399.797,261.414c1.696-0.011,3.038-1.442,2.944-3.136l-1.137-20.245l-3.92,0.026l-0.875,20.258
						C396.736,260.013,398.097,261.425,399.797,261.414z M399.769,257.423c0.681-0.004,1.237,0.544,1.241,1.226
						c0.005,0.682-0.544,1.238-1.226,1.242c-0.681,0.004-1.237-0.544-1.243-1.227C398.539,257.984,399.087,257.426,399.769,257.423z
						"/>
				</g>
			</g>
			<g>
				<g>
					<path d="M404.267,214.205l0.149,0.129c2.674,2.337,6.52,2.767,9.642,1.075c2.264-1.227,3.776-3.492,4.039-6.052l1.502-14.581
						l-16.463-1.696l-1.49,14.46C401.386,210.055,402.364,212.541,404.267,214.205z M414.422,196.778
						c0.063-0.609,0.608-1.053,1.22-0.989c0.609,0.063,1.055,0.607,0.989,1.219l-1.251,12.147c-0.063,0.61-0.608,1.054-1.22,0.991
						c-0.61-0.063-1.055-0.609-0.989-1.22L414.422,196.778z M410.006,196.322c0.063-0.609,0.608-1.054,1.22-0.988
						c0.609,0.062,1.054,0.608,0.989,1.219l-1.253,12.147c-0.063,0.611-0.608,1.054-1.218,0.99
						c-0.611-0.063-1.055-0.608-0.989-1.218L410.006,196.322z M405.589,195.868c0.062-0.611,0.608-1.054,1.217-0.99
						c0.611,0.063,1.057,0.608,0.99,1.219l-1.252,12.148c-0.063,0.609-0.609,1.054-1.22,0.99c-0.608-0.063-1.053-0.609-0.988-1.22
						L405.589,195.868z"/>
				</g>
				
					<rect x="407.029" y="215.606" transform="matrix(-0.9947 -0.1026 0.1026 -0.9947 790.5132 494.3681)" width="1.889" height="22.485"/>
				<g>
					<path d="M404.426,261.289c1.688,0.174,3.178-1.102,3.269-2.798l1.077-20.247l-3.898-0.402l-3.079,20.042
						C401.537,259.562,402.736,261.115,404.426,261.289z M404.835,257.319c0.68,0.069,1.169,0.675,1.101,1.354
						c-0.069,0.677-0.676,1.171-1.354,1.101c-0.68-0.07-1.171-0.677-1.102-1.354C403.55,257.742,404.157,257.248,404.835,257.319z"
						/>
				</g>
			</g>
			<g>
				
					<rect x="390.579" y="207.408" transform="matrix(-0.9997 0.0263 -0.0263 -0.9997 788.9183 433.408)" width="2.061" height="28.966"/>
				<g>
					<path d="M386.379,208.303c0.009,0.312,0.131,0.606,0.346,0.832l3.622,3.803l2.061-0.053l3.652-3.851
						c0.229-0.241,0.351-0.564,0.344-0.896l-0.407-15.516c-0.037-1.41-2.111-1.327-2.076,0.056c0.036,1.38,0.176,6.654,0.176,6.654
						c0.012,0.507-0.386,0.926-0.893,0.938c-0.507,0.014-0.926-0.385-0.938-0.891c0,0-0.166-3.74-0.24-6.622
						c-0.04-1.498-2.17-1.36-2.155-0.103c0.032,2.563,0.123,6.783,0.123,6.783c0.013,0.508-0.384,0.927-0.89,0.94
						c-0.508,0.013-0.926-0.384-0.939-0.891c0,0-0.024-4.794-0.143-6.664c-0.088-1.395-2.084-1.38-2.048,0.001L386.379,208.303z"/>
				</g>
				<g>
					<path d="M392.742,259.729c1.699-0.045,3.014-1.502,2.884-3.194l-1.539-20.218l-3.917,0.104l-0.475,20.271
						C389.655,258.388,391.045,259.774,392.742,259.729z M392.637,255.739c0.683-0.017,1.249,0.521,1.266,1.202
						c0.019,0.68-0.518,1.249-1.202,1.265c-0.679,0.019-1.247-0.519-1.266-1.201S391.956,255.759,392.637,255.739z"/>
				</g>
			</g>
			<g>
				<path d="M374.613,210.232c0.777,4.598,5.135,7.692,9.731,6.913c5.018-0.849,8.046-6.064,6.56-10.931
					c-3.056-10.004-7.469-12.046-9.47-12.44c-0.611-0.122-1.257-0.069-1.824,0.19C373.986,196.528,374.515,209.645,374.613,210.232z
					"/>
				
					<rect x="384.914" y="214.969" transform="matrix(-0.9859 0.1671 -0.1671 -0.9859 804.0854 384.7752)" width="1.885" height="22.488"/>
				<g>
					<path d="M391.63,260.31c1.675-0.281,2.771-1.91,2.404-3.567l-4.365-19.802l-3.862,0.653l2.38,20.135
						C388.385,259.418,389.956,260.594,391.63,260.31z M390.967,256.374c0.671-0.113,1.308,0.34,1.421,1.011
						c0.113,0.672-0.339,1.309-1.011,1.423c-0.673,0.113-1.309-0.34-1.422-1.01C389.842,257.124,390.294,256.49,390.967,256.374z"/>
				</g>
			</g>
			<g>
				<path fill="#939598" d="M408.361,239.705l2.749-29.476l17.44,1.628c0.485-5.219-3.38-9.85-8.634-10.34
					c-5.257-0.489-9.911,3.345-10.399,8.565l-2.75,29.476L408.361,239.705z"/>
				<g>
					<path fill="#939598" d="M405.919,257.271c1.433,0.133,2.684-0.951,2.747-2.378l0.734-17.054l-3.306-0.309l-2.434,16.897
						C403.454,255.84,404.484,257.139,405.919,257.271z M406.231,253.926c0.574,0.054,0.995,0.56,0.941,1.13
						c-0.052,0.572-0.562,0.991-1.137,0.938c-0.574-0.054-0.998-0.561-0.944-1.131C405.144,254.29,405.655,253.873,406.231,253.926z
						"/>
				</g>
			</g>
		</g>
		<path fill="#27AAE1" d="M411.623,260.379c0,0-3.789,0.899-13.73,0.899c-9.944,0-13.188-0.899-13.188-0.899v-30.806
			c0,0,4.941,0.898,13.309,0.898c8.365,0,13.61-0.898,13.61-0.898L411.623,260.379L411.623,260.379z"/>
	</g>
	<g>
		<g>
			<g>
				<g>
					<g>
						<defs>
							<path id="SVGID_1_" d="M411.623,259.321c0,0-3.847,0.835-13.937,0.835c-10.094,0-13.387-0.835-13.387-0.835v-28.627
								c0,0,5.018,0.835,13.508,0.835c8.493,0,13.815-0.835,13.815-0.835V259.321L411.623,259.321z"/>
						</defs>
						<clipPath id="SVGID_2_">
							<use xlink:href="#SVGID_1_"  overflow="visible"/>
						</clipPath>
						<g clip-path="url(#SVGID_2_)">
							<g>
								<g>
									<ellipse fill="#EFEEE8" cx="367.854" cy="196.222" rx="1.153" ry="0.98"/>
									<ellipse fill="#EFEEE8" cx="376.507" cy="196.222" rx="1.154" ry="0.98"/>
									<ellipse fill="#EFEEE8" cx="385.159" cy="196.222" rx="1.153" ry="0.98"/>
									<ellipse fill="#EFEEE8" cx="393.811" cy="196.222" rx="1.152" ry="0.98"/>
									<ellipse fill="#EFEEE8" cx="402.464" cy="196.222" rx="1.152" ry="0.98"/>
									<path fill="#EFEEE8" d="M412.268,196.222c0,0.541-0.516,0.979-1.151,0.979c-0.638,0-1.154-0.439-1.154-0.979
										c0-0.542,0.516-0.98,1.154-0.98C411.752,195.242,412.268,195.68,412.268,196.222z"/>
									<ellipse fill="#EFEEE8" cx="419.766" cy="196.222" rx="1.154" ry="0.98"/>
									<ellipse fill="#EFEEE8" cx="428.419" cy="196.222" rx="1.153" ry="0.98"/>
									<ellipse fill="#EFEEE8" cx="437.07" cy="196.222" rx="1.155" ry="0.98"/>
									<ellipse fill="#EFEEE8" cx="445.722" cy="196.222" rx="1.154" ry="0.98"/>
									<ellipse fill="#EFEEE8" cx="454.376" cy="196.222" rx="1.152" ry="0.98"/>
									<path fill="#EFEEE8" d="M464.179,196.222c0,0.541-0.514,0.979-1.153,0.979c-0.635,0-1.151-0.439-1.151-0.979
										c0-0.542,0.517-0.98,1.151-0.98C463.666,195.242,464.179,195.68,464.179,196.222z"/>
								</g>
								<ellipse fill="#EFEEE8" cx="471.679" cy="196.222" rx="1.153" ry="0.98"/>
							</g>
							<g>
								<g>
									<ellipse fill="#EFEEE8" cx="372.18" cy="201.12" rx="1.153" ry="0.979"/>
									<ellipse fill="#EFEEE8" cx="380.833" cy="201.12" rx="1.153" ry="0.979"/>
									<path fill="#EFEEE8" d="M390.637,201.12c0,0.54-0.517,0.979-1.152,0.979c-0.638,0-1.153-0.44-1.153-0.979
										c0-0.542,0.515-0.98,1.153-0.98C390.121,200.14,390.637,200.577,390.637,201.12z"/>
									<ellipse fill="#EFEEE8" cx="398.136" cy="201.12" rx="1.154" ry="0.979"/>
									<ellipse fill="#EFEEE8" cx="406.79" cy="201.12" rx="1.152" ry="0.979"/>
									<ellipse fill="#EFEEE8" cx="415.44" cy="201.12" rx="1.153" ry="0.979"/>
									<ellipse fill="#EFEEE8" cx="424.092" cy="201.12" rx="1.154" ry="0.979"/>
									<ellipse fill="#EFEEE8" cx="432.745" cy="201.12" rx="1.154" ry="0.979"/>
									<ellipse fill="#EFEEE8" cx="441.397" cy="201.12" rx="1.154" ry="0.979"/>
									<path fill="#EFEEE8" d="M451.203,201.12c0,0.54-0.519,0.979-1.153,0.979c-0.638,0-1.154-0.44-1.154-0.979
										c0-0.542,0.516-0.98,1.154-0.98C450.684,200.14,451.203,200.577,451.203,201.12z"/>
									<ellipse fill="#EFEEE8" cx="458.701" cy="201.12" rx="1.153" ry="0.979"/>
									<ellipse fill="#EFEEE8" cx="467.352" cy="201.12" rx="1.154" ry="0.979"/>
								</g>
								<ellipse fill="#EFEEE8" cx="476.006" cy="201.12" rx="1.154" ry="0.979"/>
							</g>
							<g>
								<g>
									<ellipse fill="#EFEEE8" cx="367.854" cy="206.015" rx="1.153" ry="0.98"/>
									<ellipse fill="#EFEEE8" cx="376.507" cy="206.015" rx="1.154" ry="0.98"/>
									<ellipse fill="#EFEEE8" cx="385.159" cy="206.015" rx="1.153" ry="0.98"/>
									<ellipse fill="#EFEEE8" cx="393.811" cy="206.015" rx="1.152" ry="0.98"/>
									<ellipse fill="#EFEEE8" cx="402.464" cy="206.015" rx="1.152" ry="0.98"/>
									<path fill="#EFEEE8" d="M412.268,206.015c0,0.541-0.516,0.98-1.151,0.98c-0.638,0-1.154-0.44-1.154-0.98
										c0-0.542,0.516-0.98,1.154-0.98C411.752,205.035,412.268,205.473,412.268,206.015z"/>
									<ellipse fill="#EFEEE8" cx="419.766" cy="206.015" rx="1.154" ry="0.98"/>
									<ellipse fill="#EFEEE8" cx="428.419" cy="206.015" rx="1.153" ry="0.98"/>
									<ellipse fill="#EFEEE8" cx="437.07" cy="206.015" rx="1.155" ry="0.98"/>
									<ellipse fill="#EFEEE8" cx="445.722" cy="206.015" rx="1.154" ry="0.98"/>
									<ellipse fill="#EFEEE8" cx="454.376" cy="206.015" rx="1.152" ry="0.98"/>
									<path fill="#EFEEE8" d="M464.179,206.015c0,0.541-0.514,0.98-1.153,0.98c-0.635,0-1.151-0.44-1.151-0.98
										c0-0.542,0.517-0.98,1.151-0.98C463.666,205.035,464.179,205.473,464.179,206.015z"/>
								</g>
								<ellipse fill="#EFEEE8" cx="471.679" cy="206.015" rx="1.153" ry="0.98"/>
							</g>
							<g>
								<g>
									<path fill="#EFEEE8" d="M373.334,210.911c0,0.542-0.517,0.98-1.153,0.98c-0.636,0-1.153-0.438-1.153-0.98
										c0-0.541,0.517-0.978,1.153-0.978C372.816,209.933,373.334,210.371,373.334,210.911z"/>
									<path fill="#EFEEE8" d="M381.986,210.911c0,0.542-0.517,0.98-1.154,0.98c-0.635,0-1.152-0.438-1.152-0.98
										c0-0.541,0.517-0.978,1.152-0.978C381.469,209.933,381.986,210.371,381.986,210.911z"/>
									<path fill="#EFEEE8" d="M390.637,210.911c0,0.542-0.517,0.98-1.152,0.98c-0.638,0-1.153-0.438-1.153-0.98
										c0-0.541,0.515-0.978,1.153-0.978C390.121,209.933,390.637,210.371,390.637,210.911z"/>
									<path fill="#EFEEE8" d="M399.291,210.911c0,0.542-0.518,0.98-1.154,0.98s-1.154-0.438-1.154-0.98
										c0-0.541,0.518-0.978,1.154-0.978S399.291,210.371,399.291,210.911z"/>
									<path fill="#EFEEE8" d="M407.942,210.911c0,0.542-0.517,0.98-1.153,0.98c-0.639,0-1.151-0.438-1.151-0.98
										c0-0.541,0.513-0.978,1.151-0.978C407.426,209.933,407.942,210.371,407.942,210.911z"/>
									<path fill="#EFEEE8" d="M416.594,210.911c0,0.542-0.516,0.98-1.153,0.98c-0.637,0-1.152-0.438-1.152-0.98
										c0-0.541,0.516-0.978,1.152-0.978C416.078,209.933,416.594,210.371,416.594,210.911z"/>
									<path fill="#EFEEE8" d="M425.246,210.911c0,0.542-0.517,0.98-1.154,0.98c-0.636,0-1.153-0.438-1.153-0.98
										c0-0.541,0.519-0.978,1.153-0.978C424.729,209.933,425.246,210.371,425.246,210.911z"/>
									<path fill="#EFEEE8" d="M433.898,210.911c0,0.542-0.516,0.98-1.153,0.98s-1.155-0.438-1.155-0.98
										c0-0.541,0.517-0.978,1.155-0.978C433.383,209.933,433.898,210.371,433.898,210.911z"/>
									<path fill="#EFEEE8" d="M442.551,210.911c0,0.542-0.519,0.98-1.155,0.98s-1.152-0.438-1.152-0.98
										c0-0.541,0.516-0.978,1.152-0.978S442.551,210.371,442.551,210.911z"/>
									<path fill="#EFEEE8" d="M451.203,210.911c0,0.542-0.519,0.98-1.153,0.98c-0.638,0-1.154-0.438-1.154-0.98
										c0-0.541,0.516-0.978,1.154-0.978C450.684,209.933,451.203,210.371,451.203,210.911z"/>
									<path fill="#EFEEE8" d="M459.855,210.911c0,0.542-0.517,0.98-1.153,0.98s-1.154-0.438-1.154-0.98
										c0-0.541,0.517-0.978,1.154-0.978C459.338,209.933,459.855,210.371,459.855,210.911z"/>
									<path fill="#EFEEE8" d="M468.507,210.911c0,0.542-0.517,0.98-1.154,0.98c-0.637,0-1.153-0.438-1.153-0.98
										c0-0.541,0.517-0.978,1.153-0.978C467.99,209.933,468.507,210.371,468.507,210.911z"/>
								</g>
								<path fill="#EFEEE8" d="M477.16,210.911c0,0.542-0.517,0.98-1.155,0.98c-0.636,0-1.153-0.438-1.153-0.98
									c0-0.541,0.518-0.978,1.153-0.978C476.642,209.933,477.16,210.371,477.16,210.911z"/>
							</g>
							<g>
								<g>
									<ellipse fill="#EFEEE8" cx="367.854" cy="215.808" rx="1.153" ry="0.979"/>
									<ellipse fill="#EFEEE8" cx="376.507" cy="215.808" rx="1.154" ry="0.979"/>
									<ellipse fill="#EFEEE8" cx="385.159" cy="215.808" rx="1.153" ry="0.979"/>
									<ellipse fill="#EFEEE8" cx="393.811" cy="215.808" rx="1.152" ry="0.979"/>
									<ellipse fill="#EFEEE8" cx="402.464" cy="215.808" rx="1.152" ry="0.979"/>
									<path fill="#EFEEE8" d="M412.268,215.807c0,0.542-0.516,0.98-1.151,0.98c-0.638,0-1.154-0.438-1.154-0.98
										s0.516-0.979,1.154-0.979C411.752,214.828,412.268,215.265,412.268,215.807z"/>
									<ellipse fill="#EFEEE8" cx="419.766" cy="215.808" rx="1.154" ry="0.979"/>
									<ellipse fill="#EFEEE8" cx="428.419" cy="215.808" rx="1.153" ry="0.979"/>
									<ellipse fill="#EFEEE8" cx="437.07" cy="215.808" rx="1.155" ry="0.979"/>
									<ellipse fill="#EFEEE8" cx="445.722" cy="215.808" rx="1.154" ry="0.979"/>
									<ellipse fill="#EFEEE8" cx="454.376" cy="215.808" rx="1.152" ry="0.979"/>
									<path fill="#EFEEE8" d="M464.179,215.807c0,0.542-0.514,0.98-1.153,0.98c-0.635,0-1.151-0.438-1.151-0.98
										s0.517-0.979,1.151-0.979C463.666,214.828,464.179,215.265,464.179,215.807z"/>
								</g>
								<ellipse fill="#EFEEE8" cx="471.679" cy="215.808" rx="1.153" ry="0.979"/>
							</g>
							<g>
								<g>
									<ellipse fill="#EFEEE8" cx="372.18" cy="220.704" rx="1.153" ry="0.979"/>
									<ellipse fill="#EFEEE8" cx="380.833" cy="220.704" rx="1.153" ry="0.979"/>
									<path fill="#EFEEE8" d="M390.637,220.704c0,0.541-0.517,0.979-1.152,0.979c-0.638,0-1.153-0.438-1.153-0.979
										c0-0.542,0.515-0.979,1.153-0.979C390.121,219.725,390.637,220.162,390.637,220.704z"/>
									<ellipse fill="#EFEEE8" cx="398.136" cy="220.704" rx="1.154" ry="0.979"/>
									<ellipse fill="#EFEEE8" cx="406.79" cy="220.704" rx="1.152" ry="0.979"/>
									<ellipse fill="#EFEEE8" cx="415.44" cy="220.704" rx="1.153" ry="0.979"/>
									<ellipse fill="#EFEEE8" cx="424.092" cy="220.704" rx="1.154" ry="0.979"/>
									<ellipse fill="#EFEEE8" cx="432.745" cy="220.704" rx="1.154" ry="0.979"/>
									<path fill="#EFEEE8" d="M442.551,220.704c0,0.541-0.519,0.979-1.155,0.979s-1.152-0.438-1.152-0.979
										c0-0.542,0.516-0.979,1.152-0.979S442.551,220.162,442.551,220.704z"/>
									<path fill="#EFEEE8" d="M451.203,220.704c0,0.541-0.519,0.979-1.153,0.979c-0.638,0-1.154-0.438-1.154-0.979
										c0-0.542,0.516-0.979,1.154-0.979C450.684,219.725,451.203,220.162,451.203,220.704z"/>
									<ellipse fill="#EFEEE8" cx="458.701" cy="220.704" rx="1.153" ry="0.979"/>
									<ellipse fill="#EFEEE8" cx="467.352" cy="220.704" rx="1.154" ry="0.979"/>
								</g>
								<ellipse fill="#EFEEE8" cx="476.006" cy="220.704" rx="1.154" ry="0.979"/>
							</g>
							<g>
								<g>
									<path fill="#EFEEE8" d="M369.008,225.6c0,0.542-0.516,0.979-1.154,0.979c-0.636,0-1.152-0.438-1.152-0.979
										c0-0.541,0.516-0.979,1.152-0.979C368.492,224.621,369.008,225.059,369.008,225.6z"/>
									<path fill="#EFEEE8" d="M377.66,225.6c0,0.542-0.518,0.979-1.153,0.979c-0.637,0-1.153-0.438-1.153-0.979
										c0-0.541,0.517-0.979,1.153-0.979C377.142,224.621,377.66,225.059,377.66,225.6z"/>
									<path fill="#EFEEE8" d="M386.312,225.6c0,0.542-0.517,0.979-1.153,0.979c-0.638,0-1.155-0.438-1.155-0.979
										c0-0.541,0.517-0.979,1.155-0.979C385.796,224.621,386.312,225.059,386.312,225.6z"/>
									<path fill="#EFEEE8" d="M394.963,225.6c0,0.542-0.516,0.979-1.152,0.979s-1.152-0.438-1.152-0.979
										c0-0.541,0.515-0.979,1.152-0.979C394.447,224.621,394.963,225.059,394.963,225.6z"/>
									<path fill="#EFEEE8" d="M403.616,225.6c0,0.542-0.517,0.979-1.151,0.979c-0.638,0-1.154-0.438-1.154-0.979
										c0-0.541,0.517-0.979,1.154-0.979C403.098,224.621,403.616,225.059,403.616,225.6z"/>
									<path fill="#EFEEE8" d="M412.268,225.6c0,0.542-0.516,0.979-1.151,0.979c-0.638,0-1.154-0.438-1.154-0.979
										c0-0.541,0.516-0.979,1.154-0.979C411.752,224.621,412.268,225.059,412.268,225.6z"/>
									<path fill="#EFEEE8" d="M420.921,225.6c0,0.542-0.517,0.979-1.154,0.979c-0.636,0-1.153-0.438-1.153-0.979
										c0-0.541,0.518-0.979,1.153-0.979C420.403,224.621,420.921,225.059,420.921,225.6z"/>
									<path fill="#EFEEE8" d="M429.572,225.6c0,0.542-0.516,0.979-1.153,0.979s-1.153-0.438-1.153-0.979
										c0-0.541,0.516-0.979,1.153-0.979S429.572,225.059,429.572,225.6z"/>
									<path fill="#EFEEE8" d="M438.225,225.6c0,0.542-0.517,0.979-1.155,0.979c-0.637,0-1.153-0.438-1.153-0.979
										c0-0.541,0.517-0.979,1.153-0.979C437.709,224.621,438.225,225.059,438.225,225.6z"/>
									<path fill="#EFEEE8" d="M446.877,225.6c0,0.542-0.517,0.979-1.154,0.979c-0.637,0-1.152-0.438-1.152-0.979
										c0-0.541,0.516-0.979,1.152-0.979C446.36,224.621,446.877,225.059,446.877,225.6z"/>
									<path fill="#EFEEE8" d="M455.528,225.6c0,0.542-0.515,0.979-1.153,0.979c-0.637,0-1.152-0.438-1.152-0.979
										c0-0.541,0.516-0.979,1.152-0.979C455.013,224.621,455.528,225.059,455.528,225.6z"/>
									<path fill="#EFEEE8" d="M464.179,225.6c0,0.542-0.514,0.979-1.153,0.979c-0.635,0-1.151-0.438-1.151-0.979
										c0-0.541,0.517-0.979,1.151-0.979C463.666,224.621,464.179,225.059,464.179,225.6z"/>
								</g>
								<path fill="#EFEEE8" d="M472.833,225.6c0,0.542-0.517,0.979-1.154,0.979c-0.637,0-1.153-0.438-1.153-0.979
									c0-0.541,0.517-0.979,1.153-0.979C472.316,224.621,472.833,225.059,472.833,225.6z"/>
							</g>
							<g>
								<g>
									<ellipse fill="#EFEEE8" cx="372.18" cy="230.497" rx="1.153" ry="0.979"/>
									<ellipse fill="#EFEEE8" cx="380.833" cy="230.497" rx="1.153" ry="0.979"/>
									<path fill="#EFEEE8" d="M390.637,230.497c0,0.542-0.517,0.979-1.152,0.979c-0.638,0-1.153-0.438-1.153-0.979
										c0-0.543,0.515-0.98,1.153-0.98C390.121,229.517,390.637,229.953,390.637,230.497z"/>
									<ellipse fill="#EFEEE8" cx="398.136" cy="230.497" rx="1.154" ry="0.979"/>
									<ellipse fill="#EFEEE8" cx="406.79" cy="230.497" rx="1.152" ry="0.979"/>
									<ellipse fill="#EFEEE8" cx="415.44" cy="230.497" rx="1.153" ry="0.979"/>
									<ellipse fill="#EFEEE8" cx="424.092" cy="230.497" rx="1.154" ry="0.979"/>
									<ellipse fill="#EFEEE8" cx="432.745" cy="230.497" rx="1.154" ry="0.979"/>
									<ellipse fill="#EFEEE8" cx="441.397" cy="230.497" rx="1.154" ry="0.979"/>
									<path fill="#EFEEE8" d="M451.203,230.497c0,0.542-0.519,0.979-1.153,0.979c-0.638,0-1.154-0.438-1.154-0.979
										c0-0.543,0.516-0.98,1.154-0.98C450.684,229.517,451.203,229.953,451.203,230.497z"/>
									<ellipse fill="#EFEEE8" cx="458.701" cy="230.497" rx="1.153" ry="0.979"/>
									<ellipse fill="#EFEEE8" cx="467.352" cy="230.497" rx="1.154" ry="0.979"/>
								</g>
								<ellipse fill="#EFEEE8" cx="476.006" cy="230.497" rx="1.154" ry="0.979"/>
							</g>
							<g>
								<g>
									<ellipse fill="#EFEEE8" cx="367.854" cy="235.392" rx="1.153" ry="0.979"/>
									<ellipse fill="#EFEEE8" cx="376.507" cy="235.392" rx="1.154" ry="0.979"/>
									<ellipse fill="#EFEEE8" cx="385.159" cy="235.392" rx="1.153" ry="0.979"/>
									<ellipse fill="#EFEEE8" cx="393.811" cy="235.392" rx="1.152" ry="0.979"/>
									<ellipse fill="#EFEEE8" cx="402.464" cy="235.392" rx="1.152" ry="0.979"/>
									<path fill="#EFEEE8" d="M412.268,235.391c0,0.542-0.516,0.979-1.151,0.979c-0.638,0-1.154-0.437-1.154-0.979
										c0-0.541,0.516-0.978,1.154-0.978C411.752,234.413,412.268,234.851,412.268,235.391z"/>
									<ellipse fill="#EFEEE8" cx="419.766" cy="235.392" rx="1.154" ry="0.979"/>
									<ellipse fill="#EFEEE8" cx="428.419" cy="235.392" rx="1.153" ry="0.979"/>
									<ellipse fill="#EFEEE8" cx="437.07" cy="235.392" rx="1.155" ry="0.979"/>
									<ellipse fill="#EFEEE8" cx="445.722" cy="235.392" rx="1.154" ry="0.979"/>
									<ellipse fill="#EFEEE8" cx="454.376" cy="235.392" rx="1.152" ry="0.979"/>
									<path fill="#EFEEE8" d="M464.179,235.391c0,0.542-0.514,0.979-1.153,0.979c-0.635,0-1.151-0.437-1.151-0.979
										c0-0.541,0.517-0.978,1.151-0.978C463.666,234.413,464.179,234.851,464.179,235.391z"/>
								</g>
								<ellipse fill="#EFEEE8" cx="471.679" cy="235.392" rx="1.153" ry="0.979"/>
							</g>
							<g>
								<g>
									<ellipse fill="#EFEEE8" cx="372.18" cy="240.29" rx="1.153" ry="0.979"/>
									<ellipse fill="#EFEEE8" cx="380.833" cy="240.29" rx="1.153" ry="0.979"/>
									<path fill="#EFEEE8" d="M390.637,240.29c0,0.54-0.517,0.979-1.152,0.979c-0.638,0-1.153-0.438-1.153-0.979
										c0-0.542,0.515-0.98,1.153-0.98C390.121,239.309,390.637,239.747,390.637,240.29z"/>
									<ellipse fill="#EFEEE8" cx="398.136" cy="240.29" rx="1.154" ry="0.979"/>
									<ellipse fill="#EFEEE8" cx="406.79" cy="240.29" rx="1.152" ry="0.979"/>
									<ellipse fill="#EFEEE8" cx="415.44" cy="240.29" rx="1.153" ry="0.979"/>
									<ellipse fill="#EFEEE8" cx="424.092" cy="240.29" rx="1.154" ry="0.979"/>
									<ellipse fill="#EFEEE8" cx="432.745" cy="240.29" rx="1.154" ry="0.979"/>
									<ellipse fill="#EFEEE8" cx="441.397" cy="240.29" rx="1.154" ry="0.979"/>
									<path fill="#EFEEE8" d="M451.203,240.29c0,0.54-0.519,0.979-1.153,0.979c-0.638,0-1.154-0.438-1.154-0.979
										c0-0.542,0.516-0.98,1.154-0.98C450.684,239.309,451.203,239.747,451.203,240.29z"/>
									<ellipse fill="#EFEEE8" cx="458.701" cy="240.29" rx="1.153" ry="0.979"/>
									<ellipse fill="#EFEEE8" cx="467.352" cy="240.29" rx="1.154" ry="0.979"/>
								</g>
								<ellipse fill="#EFEEE8" cx="476.006" cy="240.29" rx="1.154" ry="0.979"/>
							</g>
							<g>
								<g>
									<ellipse fill="#EFEEE8" cx="367.854" cy="245.185" rx="1.153" ry="0.979"/>
									<ellipse fill="#EFEEE8" cx="376.507" cy="245.185" rx="1.154" ry="0.979"/>
									<ellipse fill="#EFEEE8" cx="385.159" cy="245.185" rx="1.153" ry="0.979"/>
									<ellipse fill="#EFEEE8" cx="393.811" cy="245.185" rx="1.152" ry="0.979"/>
									<ellipse fill="#EFEEE8" cx="402.464" cy="245.185" rx="1.152" ry="0.979"/>
									<path fill="#EFEEE8" d="M412.268,245.185c0,0.541-0.516,0.979-1.151,0.979c-0.638,0-1.154-0.438-1.154-0.979
										c0-0.542,0.516-0.98,1.154-0.98C411.752,244.205,412.268,244.643,412.268,245.185z"/>
									<ellipse fill="#EFEEE8" cx="419.766" cy="245.185" rx="1.154" ry="0.979"/>
									<ellipse fill="#EFEEE8" cx="428.419" cy="245.185" rx="1.153" ry="0.979"/>
									<ellipse fill="#EFEEE8" cx="437.07" cy="245.185" rx="1.155" ry="0.979"/>
									<ellipse fill="#EFEEE8" cx="445.722" cy="245.185" rx="1.154" ry="0.979"/>
									<ellipse fill="#EFEEE8" cx="454.376" cy="245.185" rx="1.152" ry="0.979"/>
									<path fill="#EFEEE8" d="M464.179,245.185c0,0.541-0.514,0.979-1.153,0.979c-0.635,0-1.151-0.438-1.151-0.979
										c0-0.542,0.517-0.98,1.151-0.98C463.666,244.205,464.179,244.643,464.179,245.185z"/>
								</g>
								<ellipse fill="#EFEEE8" cx="471.679" cy="245.185" rx="1.153" ry="0.979"/>
							</g>
							<g>
								<g>
									<path fill="#EFEEE8" d="M373.334,250.08c0,0.542-0.517,0.98-1.153,0.98c-0.636,0-1.153-0.439-1.153-0.98
										c0-0.54,0.517-0.979,1.153-0.979C372.816,249.102,373.334,249.54,373.334,250.08z"/>
									<path fill="#EFEEE8" d="M381.986,250.08c0,0.542-0.517,0.98-1.154,0.98c-0.635,0-1.152-0.439-1.152-0.98
										c0-0.54,0.517-0.979,1.152-0.979C381.469,249.102,381.986,249.54,381.986,250.08z"/>
									<path fill="#EFEEE8" d="M390.637,250.08c0,0.542-0.517,0.98-1.152,0.98c-0.638,0-1.153-0.439-1.153-0.98
										c0-0.54,0.515-0.979,1.153-0.979C390.121,249.102,390.637,249.54,390.637,250.08z"/>
									<path fill="#EFEEE8" d="M399.291,250.08c0,0.542-0.518,0.98-1.154,0.98s-1.154-0.439-1.154-0.98
										c0-0.54,0.518-0.979,1.154-0.979S399.291,249.54,399.291,250.08z"/>
									<path fill="#EFEEE8" d="M407.942,250.08c0,0.542-0.517,0.98-1.153,0.98c-0.639,0-1.151-0.439-1.151-0.98
										c0-0.54,0.513-0.979,1.151-0.979C407.426,249.102,407.942,249.54,407.942,250.08z"/>
									<path fill="#EFEEE8" d="M416.594,250.08c0,0.542-0.516,0.98-1.153,0.98c-0.637,0-1.152-0.439-1.152-0.98
										c0-0.54,0.516-0.979,1.152-0.979C416.078,249.102,416.594,249.54,416.594,250.08z"/>
									<path fill="#EFEEE8" d="M425.246,250.08c0,0.542-0.517,0.98-1.154,0.98c-0.636,0-1.153-0.439-1.153-0.98
										c0-0.54,0.519-0.979,1.153-0.979C424.729,249.102,425.246,249.54,425.246,250.08z"/>
									<path fill="#EFEEE8" d="M433.898,250.08c0,0.542-0.516,0.98-1.153,0.98s-1.155-0.439-1.155-0.98
										c0-0.54,0.517-0.979,1.155-0.979C433.383,249.102,433.898,249.54,433.898,250.08z"/>
									<path fill="#EFEEE8" d="M442.551,250.08c0,0.542-0.519,0.98-1.155,0.98s-1.152-0.439-1.152-0.98
										c0-0.54,0.516-0.979,1.152-0.979S442.551,249.54,442.551,250.08z"/>
									<path fill="#EFEEE8" d="M451.203,250.08c0,0.542-0.519,0.98-1.153,0.98c-0.638,0-1.154-0.439-1.154-0.98
										c0-0.54,0.516-0.979,1.154-0.979C450.684,249.102,451.203,249.54,451.203,250.08z"/>
									<path fill="#EFEEE8" d="M459.855,250.08c0,0.542-0.517,0.98-1.153,0.98s-1.154-0.439-1.154-0.98
										c0-0.54,0.517-0.979,1.154-0.979C459.338,249.102,459.855,249.54,459.855,250.08z"/>
									<path fill="#EFEEE8" d="M468.507,250.08c0,0.542-0.517,0.98-1.154,0.98c-0.637,0-1.153-0.439-1.153-0.98
										c0-0.54,0.517-0.979,1.153-0.979C467.99,249.102,468.507,249.54,468.507,250.08z"/>
								</g>
								<path fill="#EFEEE8" d="M477.16,250.08c0,0.542-0.517,0.98-1.155,0.98c-0.636,0-1.153-0.439-1.153-0.98
									c0-0.54,0.518-0.979,1.153-0.979C476.642,249.102,477.16,249.54,477.16,250.08z"/>
							</g>
							<g>
								<g>
									<ellipse fill="#EFEEE8" cx="367.854" cy="254.979" rx="1.153" ry="0.979"/>
									<ellipse fill="#EFEEE8" cx="376.507" cy="254.979" rx="1.154" ry="0.979"/>
									<ellipse fill="#EFEEE8" cx="385.159" cy="254.979" rx="1.153" ry="0.979"/>
									<ellipse fill="#EFEEE8" cx="393.811" cy="254.979" rx="1.152" ry="0.979"/>
									<ellipse fill="#EFEEE8" cx="402.464" cy="254.979" rx="1.152" ry="0.979"/>
									<path fill="#EFEEE8" d="M412.268,254.979c0,0.539-0.516,0.979-1.151,0.979c-0.638,0-1.154-0.439-1.154-0.979
										c0-0.54,0.516-0.98,1.154-0.98C411.752,253.999,412.268,254.438,412.268,254.979z"/>
									<ellipse fill="#EFEEE8" cx="419.766" cy="254.979" rx="1.154" ry="0.979"/>
									<ellipse fill="#EFEEE8" cx="428.419" cy="254.979" rx="1.153" ry="0.979"/>
									<ellipse fill="#EFEEE8" cx="437.07" cy="254.979" rx="1.155" ry="0.979"/>
									<ellipse fill="#EFEEE8" cx="445.722" cy="254.979" rx="1.154" ry="0.979"/>
									<ellipse fill="#EFEEE8" cx="454.376" cy="254.979" rx="1.152" ry="0.979"/>
									<path fill="#EFEEE8" d="M464.179,254.979c0,0.539-0.514,0.979-1.153,0.979c-0.635,0-1.151-0.439-1.151-0.979
										c0-0.54,0.517-0.98,1.151-0.98C463.666,253.999,464.179,254.438,464.179,254.979z"/>
								</g>
								<ellipse fill="#EFEEE8" cx="471.679" cy="254.979" rx="1.153" ry="0.979"/>
							</g>
							<g>
								<g>
									<ellipse fill="#EFEEE8" cx="372.18" cy="259.873" rx="1.153" ry="0.98"/>
									<ellipse fill="#EFEEE8" cx="380.833" cy="259.873" rx="1.153" ry="0.98"/>
									<path fill="#EFEEE8" d="M390.637,259.873c0,0.54-0.517,0.98-1.152,0.98c-0.638,0-1.153-0.44-1.153-0.98
										s0.515-0.979,1.153-0.979C390.121,258.894,390.637,259.332,390.637,259.873z"/>
									<ellipse fill="#EFEEE8" cx="398.136" cy="259.873" rx="1.154" ry="0.98"/>
									<ellipse fill="#EFEEE8" cx="406.79" cy="259.873" rx="1.152" ry="0.98"/>
									<ellipse fill="#EFEEE8" cx="415.44" cy="259.873" rx="1.153" ry="0.98"/>
									<ellipse fill="#EFEEE8" cx="424.092" cy="259.873" rx="1.154" ry="0.98"/>
									<ellipse fill="#EFEEE8" cx="432.745" cy="259.873" rx="1.154" ry="0.98"/>
									<path fill="#EFEEE8" d="M442.551,259.873c0,0.54-0.519,0.98-1.155,0.98s-1.152-0.44-1.152-0.98s0.516-0.979,1.152-0.979
										S442.551,259.332,442.551,259.873z"/>
									<path fill="#EFEEE8" d="M451.203,259.873c0,0.54-0.519,0.98-1.153,0.98c-0.638,0-1.154-0.44-1.154-0.98
										s0.516-0.979,1.154-0.979C450.684,258.894,451.203,259.332,451.203,259.873z"/>
									<ellipse fill="#EFEEE8" cx="458.701" cy="259.873" rx="1.153" ry="0.98"/>
									<ellipse fill="#EFEEE8" cx="467.352" cy="259.873" rx="1.154" ry="0.98"/>
								</g>
								<ellipse fill="#EFEEE8" cx="476.006" cy="259.873" rx="1.154" ry="0.98"/>
							</g>
							<g>
								<g>
									<ellipse fill="#EFEEE8" cx="367.854" cy="264.769" rx="1.153" ry="0.981"/>
									<ellipse fill="#EFEEE8" cx="376.507" cy="264.769" rx="1.154" ry="0.981"/>
									<ellipse fill="#EFEEE8" cx="385.159" cy="264.769" rx="1.153" ry="0.981"/>
									<ellipse fill="#EFEEE8" cx="393.811" cy="264.769" rx="1.152" ry="0.981"/>
									<ellipse fill="#EFEEE8" cx="402.464" cy="264.769" rx="1.152" ry="0.981"/>
									<path fill="#EFEEE8" d="M412.268,264.769c0,0.541-0.516,0.981-1.151,0.981c-0.638,0-1.154-0.44-1.154-0.981
										c0-0.542,0.516-0.979,1.154-0.979C411.752,263.79,412.268,264.228,412.268,264.769z"/>
									<ellipse fill="#EFEEE8" cx="419.766" cy="264.769" rx="1.154" ry="0.981"/>
									<ellipse fill="#EFEEE8" cx="428.419" cy="264.769" rx="1.153" ry="0.981"/>
									<ellipse fill="#EFEEE8" cx="437.07" cy="264.769" rx="1.155" ry="0.981"/>
									<ellipse fill="#EFEEE8" cx="445.722" cy="264.769" rx="1.154" ry="0.981"/>
									<ellipse fill="#EFEEE8" cx="454.376" cy="264.769" rx="1.152" ry="0.981"/>
									<path fill="#EFEEE8" d="M464.179,264.769c0,0.541-0.514,0.981-1.153,0.981c-0.635,0-1.151-0.44-1.151-0.981
										c0-0.542,0.517-0.979,1.151-0.979C463.666,263.79,464.179,264.228,464.179,264.769z"/>
								</g>
								<ellipse fill="#EFEEE8" cx="471.679" cy="264.769" rx="1.153" ry="0.981"/>
							</g>
							<g>
								<g>
									<ellipse fill="#EFEEE8" cx="372.18" cy="269.666" rx="1.153" ry="0.978"/>
									<ellipse fill="#EFEEE8" cx="380.833" cy="269.666" rx="1.153" ry="0.978"/>
									<path fill="#EFEEE8" d="M390.637,269.666c0,0.541-0.517,0.978-1.152,0.978c-0.638,0-1.153-0.437-1.153-0.978
										c0-0.542,0.515-0.978,1.153-0.978C390.121,268.688,390.637,269.124,390.637,269.666z"/>
									<ellipse fill="#EFEEE8" cx="398.136" cy="269.666" rx="1.154" ry="0.978"/>
									<ellipse fill="#EFEEE8" cx="406.79" cy="269.666" rx="1.152" ry="0.978"/>
									<ellipse fill="#EFEEE8" cx="415.44" cy="269.666" rx="1.153" ry="0.978"/>
									<ellipse fill="#EFEEE8" cx="424.092" cy="269.666" rx="1.154" ry="0.978"/>
									<ellipse fill="#EFEEE8" cx="432.745" cy="269.666" rx="1.154" ry="0.978"/>
									<ellipse fill="#EFEEE8" cx="441.397" cy="269.666" rx="1.154" ry="0.978"/>
									<path fill="#EFEEE8" d="M451.203,269.666c0,0.541-0.519,0.978-1.153,0.978c-0.638,0-1.154-0.437-1.154-0.978
										c0-0.542,0.516-0.978,1.154-0.978C450.684,268.688,451.203,269.124,451.203,269.666z"/>
									<ellipse fill="#EFEEE8" cx="458.701" cy="269.666" rx="1.153" ry="0.978"/>
									<ellipse fill="#EFEEE8" cx="467.352" cy="269.666" rx="1.154" ry="0.978"/>
								</g>
								<ellipse fill="#EFEEE8" cx="476.006" cy="269.666" rx="1.154" ry="0.978"/>
							</g>
							<g>
								<g>
									<path fill="#EFEEE8" d="M369.008,274.563c0,0.54-0.516,0.979-1.154,0.979c-0.636,0-1.152-0.438-1.152-0.979
										c0-0.543,0.516-0.979,1.152-0.979C368.492,273.584,369.008,274.02,369.008,274.563z"/>
									<path fill="#EFEEE8" d="M377.66,274.563c0,0.54-0.518,0.979-1.153,0.979c-0.637,0-1.153-0.438-1.153-0.979
										c0-0.543,0.517-0.979,1.153-0.979C377.142,273.584,377.66,274.02,377.66,274.563z"/>
									<path fill="#EFEEE8" d="M386.312,274.563c0,0.54-0.517,0.979-1.153,0.979c-0.638,0-1.155-0.438-1.155-0.979
										c0-0.543,0.517-0.979,1.155-0.979C385.796,273.584,386.312,274.02,386.312,274.563z"/>
									<path fill="#EFEEE8" d="M394.963,274.563c0,0.54-0.516,0.979-1.152,0.979s-1.152-0.438-1.152-0.979
										c0-0.543,0.515-0.979,1.152-0.979C394.447,273.584,394.963,274.02,394.963,274.563z"/>
									<path fill="#EFEEE8" d="M403.616,274.563c0,0.54-0.517,0.979-1.151,0.979c-0.638,0-1.154-0.438-1.154-0.979
										c0-0.543,0.517-0.979,1.154-0.979C403.098,273.584,403.616,274.02,403.616,274.563z"/>
									<path fill="#EFEEE8" d="M412.268,274.563c0,0.54-0.516,0.979-1.151,0.979c-0.638,0-1.154-0.438-1.154-0.979
										c0-0.543,0.516-0.979,1.154-0.979C411.752,273.584,412.268,274.02,412.268,274.563z"/>
									<path fill="#EFEEE8" d="M420.921,274.563c0,0.54-0.517,0.979-1.154,0.979c-0.636,0-1.153-0.438-1.153-0.979
										c0-0.543,0.518-0.979,1.153-0.979C420.403,273.584,420.921,274.02,420.921,274.563z"/>
									<path fill="#EFEEE8" d="M429.572,274.563c0,0.54-0.516,0.979-1.153,0.979s-1.153-0.438-1.153-0.979
										c0-0.543,0.516-0.979,1.153-0.979S429.572,274.02,429.572,274.563z"/>
									<path fill="#EFEEE8" d="M438.225,274.563c0,0.54-0.517,0.979-1.155,0.979c-0.637,0-1.153-0.438-1.153-0.979
										c0-0.543,0.517-0.979,1.153-0.979C437.709,273.584,438.225,274.02,438.225,274.563z"/>
									<path fill="#EFEEE8" d="M446.877,274.563c0,0.54-0.517,0.979-1.154,0.979c-0.637,0-1.152-0.438-1.152-0.979
										c0-0.543,0.516-0.979,1.152-0.979C446.36,273.584,446.877,274.02,446.877,274.563z"/>
									<path fill="#EFEEE8" d="M455.528,274.563c0,0.54-0.515,0.979-1.153,0.979c-0.637,0-1.152-0.438-1.152-0.979
										c0-0.543,0.516-0.979,1.152-0.979C455.013,273.584,455.528,274.02,455.528,274.563z"/>
									<path fill="#EFEEE8" d="M464.179,274.563c0,0.54-0.514,0.979-1.153,0.979c-0.635,0-1.151-0.438-1.151-0.979
										c0-0.543,0.517-0.979,1.151-0.979C463.666,273.584,464.179,274.02,464.179,274.563z"/>
								</g>
								<path fill="#EFEEE8" d="M472.833,274.563c0,0.54-0.517,0.979-1.154,0.979c-0.637,0-1.153-0.438-1.153-0.979
									c0-0.543,0.517-0.979,1.153-0.979C472.316,273.584,472.833,274.02,472.833,274.563z"/>
							</g>
							<g>
								<g>
									<path fill="#EFEEE8" d="M373.334,279.458c0,0.541-0.517,0.98-1.153,0.98c-0.636,0-1.153-0.44-1.153-0.98
										c0-0.539,0.517-0.979,1.153-0.979C372.816,278.48,373.334,278.919,373.334,279.458z"/>
									<path fill="#EFEEE8" d="M381.986,279.458c0,0.541-0.517,0.98-1.154,0.98c-0.635,0-1.152-0.44-1.152-0.98
										c0-0.539,0.517-0.979,1.152-0.979C381.469,278.48,381.986,278.919,381.986,279.458z"/>
									<path fill="#EFEEE8" d="M390.637,279.458c0,0.541-0.517,0.98-1.152,0.98c-0.638,0-1.153-0.44-1.153-0.98
										c0-0.539,0.515-0.979,1.153-0.979C390.121,278.48,390.637,278.919,390.637,279.458z"/>
									<path fill="#EFEEE8" d="M399.291,279.458c0,0.541-0.518,0.98-1.154,0.98s-1.154-0.44-1.154-0.98
										c0-0.539,0.518-0.979,1.154-0.979S399.291,278.919,399.291,279.458z"/>
									<path fill="#EFEEE8" d="M407.942,279.458c0,0.541-0.517,0.98-1.153,0.98c-0.639,0-1.151-0.44-1.151-0.98
										c0-0.539,0.513-0.979,1.151-0.979C407.426,278.48,407.942,278.919,407.942,279.458z"/>
									<path fill="#EFEEE8" d="M416.594,279.458c0,0.541-0.516,0.98-1.153,0.98c-0.637,0-1.152-0.44-1.152-0.98
										c0-0.539,0.516-0.979,1.152-0.979C416.078,278.48,416.594,278.919,416.594,279.458z"/>
									<path fill="#EFEEE8" d="M425.246,279.458c0,0.541-0.517,0.98-1.154,0.98c-0.636,0-1.153-0.44-1.153-0.98
										c0-0.539,0.519-0.979,1.153-0.979C424.729,278.48,425.246,278.919,425.246,279.458z"/>
									<path fill="#EFEEE8" d="M433.898,279.458c0,0.541-0.516,0.98-1.153,0.98s-1.155-0.44-1.155-0.98
										c0-0.539,0.517-0.979,1.155-0.979C433.383,278.48,433.898,278.919,433.898,279.458z"/>
									<path fill="#EFEEE8" d="M442.551,279.458c0,0.541-0.519,0.98-1.155,0.98s-1.152-0.44-1.152-0.98
										c0-0.539,0.516-0.979,1.152-0.979S442.551,278.919,442.551,279.458z"/>
									<path fill="#EFEEE8" d="M451.203,279.458c0,0.541-0.519,0.98-1.153,0.98c-0.638,0-1.154-0.44-1.154-0.98
										c0-0.539,0.516-0.979,1.154-0.979C450.684,278.48,451.203,278.919,451.203,279.458z"/>
									<path fill="#EFEEE8" d="M459.855,279.458c0,0.541-0.517,0.98-1.153,0.98s-1.154-0.44-1.154-0.98
										c0-0.539,0.517-0.979,1.154-0.979C459.338,278.48,459.855,278.919,459.855,279.458z"/>
									<path fill="#EFEEE8" d="M468.507,279.458c0,0.541-0.517,0.98-1.154,0.98c-0.637,0-1.153-0.44-1.153-0.98
										c0-0.539,0.517-0.979,1.153-0.979C467.99,278.48,468.507,278.919,468.507,279.458z"/>
								</g>
								<path fill="#EFEEE8" d="M477.16,279.458c0,0.541-0.517,0.98-1.155,0.98c-0.636,0-1.153-0.44-1.153-0.98
									c0-0.539,0.518-0.979,1.153-0.979C476.642,278.48,477.16,278.919,477.16,279.458z"/>
							</g>
							<g>
								<g>
									<ellipse fill="#EFEEE8" cx="367.854" cy="284.355" rx="1.153" ry="0.979"/>
									<ellipse fill="#EFEEE8" cx="376.507" cy="284.355" rx="1.154" ry="0.979"/>
									<ellipse fill="#EFEEE8" cx="385.159" cy="284.355" rx="1.153" ry="0.979"/>
									<ellipse fill="#EFEEE8" cx="393.811" cy="284.355" rx="1.152" ry="0.979"/>
									<ellipse fill="#EFEEE8" cx="402.464" cy="284.355" rx="1.152" ry="0.979"/>
									<path fill="#EFEEE8" d="M412.268,284.355c0,0.54-0.516,0.979-1.151,0.979c-0.638,0-1.154-0.438-1.154-0.979
										c0-0.541,0.516-0.978,1.154-0.978C411.752,283.377,412.268,283.814,412.268,284.355z"/>
									<ellipse fill="#EFEEE8" cx="419.766" cy="284.355" rx="1.154" ry="0.979"/>
									<ellipse fill="#EFEEE8" cx="428.419" cy="284.355" rx="1.153" ry="0.979"/>
									<ellipse fill="#EFEEE8" cx="437.07" cy="284.355" rx="1.155" ry="0.979"/>
									<ellipse fill="#EFEEE8" cx="445.722" cy="284.355" rx="1.154" ry="0.979"/>
									<ellipse fill="#EFEEE8" cx="454.376" cy="284.355" rx="1.152" ry="0.979"/>
									<path fill="#EFEEE8" d="M464.179,284.355c0,0.54-0.514,0.979-1.153,0.979c-0.635,0-1.151-0.438-1.151-0.979
										c0-0.541,0.517-0.978,1.151-0.978C463.666,283.377,464.179,283.814,464.179,284.355z"/>
								</g>
								<ellipse fill="#EFEEE8" cx="471.679" cy="284.355" rx="1.153" ry="0.979"/>
							</g>
							<g>
								<g>
									<ellipse fill="#EFEEE8" cx="372.18" cy="289.252" rx="1.153" ry="0.979"/>
									<ellipse fill="#EFEEE8" cx="380.833" cy="289.252" rx="1.153" ry="0.979"/>
									<path fill="#EFEEE8" d="M390.637,289.252c0,0.539-0.517,0.979-1.152,0.979c-0.638,0-1.153-0.439-1.153-0.979
										c0-0.541,0.515-0.981,1.153-0.981C390.121,288.271,390.637,288.71,390.637,289.252z"/>
									<ellipse fill="#EFEEE8" cx="398.136" cy="289.252" rx="1.154" ry="0.979"/>
									<ellipse fill="#EFEEE8" cx="406.79" cy="289.252" rx="1.152" ry="0.979"/>
									<ellipse fill="#EFEEE8" cx="415.44" cy="289.252" rx="1.153" ry="0.979"/>
									<ellipse fill="#EFEEE8" cx="424.092" cy="289.252" rx="1.154" ry="0.979"/>
									<ellipse fill="#EFEEE8" cx="432.745" cy="289.252" rx="1.154" ry="0.979"/>
									<ellipse fill="#EFEEE8" cx="441.397" cy="289.252" rx="1.154" ry="0.979"/>
									<path fill="#EFEEE8" d="M451.203,289.252c0,0.539-0.519,0.979-1.153,0.979c-0.638,0-1.154-0.439-1.154-0.979
										c0-0.541,0.516-0.981,1.154-0.981C450.684,288.271,451.203,288.71,451.203,289.252z"/>
									<ellipse fill="#EFEEE8" cx="458.701" cy="289.252" rx="1.153" ry="0.979"/>
									<ellipse fill="#EFEEE8" cx="467.352" cy="289.252" rx="1.154" ry="0.979"/>
								</g>
								<ellipse fill="#EFEEE8" cx="476.006" cy="289.252" rx="1.154" ry="0.979"/>
							</g>
							<g>
								<g>
									<ellipse fill="#EFEEE8" cx="367.854" cy="294.148" rx="1.153" ry="0.978"/>
									<ellipse fill="#EFEEE8" cx="376.507" cy="294.148" rx="1.154" ry="0.978"/>
									<ellipse fill="#EFEEE8" cx="385.159" cy="294.148" rx="1.153" ry="0.978"/>
									<ellipse fill="#EFEEE8" cx="393.811" cy="294.148" rx="1.152" ry="0.978"/>
									<ellipse fill="#EFEEE8" cx="402.464" cy="294.148" rx="1.152" ry="0.978"/>
									<path fill="#EFEEE8" d="M412.268,294.148c0,0.539-0.516,0.978-1.151,0.978c-0.638,0-1.154-0.438-1.154-0.978
										c0-0.541,0.516-0.979,1.154-0.979C411.752,293.168,412.268,293.607,412.268,294.148z"/>
									<ellipse fill="#EFEEE8" cx="419.766" cy="294.148" rx="1.154" ry="0.978"/>
									<ellipse fill="#EFEEE8" cx="428.419" cy="294.148" rx="1.153" ry="0.978"/>
									<ellipse fill="#EFEEE8" cx="437.07" cy="294.148" rx="1.155" ry="0.978"/>
									<ellipse fill="#EFEEE8" cx="445.722" cy="294.148" rx="1.154" ry="0.978"/>
									<ellipse fill="#EFEEE8" cx="454.376" cy="294.148" rx="1.152" ry="0.978"/>
									<path fill="#EFEEE8" d="M464.179,294.148c0,0.539-0.514,0.978-1.153,0.978c-0.635,0-1.151-0.438-1.151-0.978
										c0-0.541,0.517-0.979,1.151-0.979C463.666,293.168,464.179,293.607,464.179,294.148z"/>
								</g>
								<ellipse fill="#EFEEE8" cx="471.679" cy="294.148" rx="1.153" ry="0.978"/>
							</g>
							<g>
								<g>
									<ellipse fill="#EFEEE8" cx="372.18" cy="299.043" rx="1.153" ry="0.979"/>
									<ellipse fill="#EFEEE8" cx="380.833" cy="299.043" rx="1.153" ry="0.979"/>
									<path fill="#EFEEE8" d="M390.637,299.043c0,0.54-0.517,0.979-1.152,0.979c-0.638,0-1.153-0.438-1.153-0.979
										c0-0.542,0.515-0.979,1.153-0.979C390.121,298.065,390.637,298.502,390.637,299.043z"/>
									<ellipse fill="#EFEEE8" cx="398.136" cy="299.043" rx="1.154" ry="0.979"/>
									<ellipse fill="#EFEEE8" cx="406.79" cy="299.043" rx="1.152" ry="0.979"/>
									<ellipse fill="#EFEEE8" cx="415.44" cy="299.043" rx="1.153" ry="0.979"/>
									<ellipse fill="#EFEEE8" cx="424.092" cy="299.043" rx="1.154" ry="0.979"/>
									<ellipse fill="#EFEEE8" cx="432.745" cy="299.043" rx="1.154" ry="0.979"/>
									<ellipse fill="#EFEEE8" cx="441.397" cy="299.043" rx="1.154" ry="0.979"/>
									<path fill="#EFEEE8" d="M451.203,299.043c0,0.54-0.519,0.979-1.153,0.979c-0.638,0-1.154-0.438-1.154-0.979
										c0-0.542,0.516-0.979,1.154-0.979C450.684,298.065,451.203,298.502,451.203,299.043z"/>
									<ellipse fill="#EFEEE8" cx="458.701" cy="299.043" rx="1.153" ry="0.979"/>
									<ellipse fill="#EFEEE8" cx="467.352" cy="299.043" rx="1.154" ry="0.979"/>
								</g>
								<ellipse fill="#EFEEE8" cx="476.006" cy="299.043" rx="1.154" ry="0.979"/>
							</g>
							<g>
								<g>
									<ellipse fill="#EFEEE8" cx="367.854" cy="303.94" rx="1.153" ry="0.979"/>
									<ellipse fill="#EFEEE8" cx="376.507" cy="303.94" rx="1.154" ry="0.979"/>
									<ellipse fill="#EFEEE8" cx="385.159" cy="303.94" rx="1.153" ry="0.979"/>
									<ellipse fill="#EFEEE8" cx="393.811" cy="303.94" rx="1.152" ry="0.979"/>
									<ellipse fill="#EFEEE8" cx="402.464" cy="303.94" rx="1.152" ry="0.979"/>
									<path fill="#EFEEE8" d="M412.268,303.941c0,0.54-0.516,0.979-1.151,0.979c-0.638,0-1.154-0.438-1.154-0.979
										c0-0.542,0.516-0.979,1.154-0.979C411.752,302.961,412.268,303.399,412.268,303.941z"/>
									<ellipse fill="#EFEEE8" cx="419.766" cy="303.94" rx="1.154" ry="0.979"/>
									<ellipse fill="#EFEEE8" cx="428.419" cy="303.94" rx="1.153" ry="0.979"/>
									<ellipse fill="#EFEEE8" cx="437.07" cy="303.94" rx="1.155" ry="0.979"/>
									<ellipse fill="#EFEEE8" cx="445.722" cy="303.94" rx="1.154" ry="0.979"/>
									<ellipse fill="#EFEEE8" cx="454.376" cy="303.94" rx="1.152" ry="0.979"/>
									<path fill="#EFEEE8" d="M464.179,303.941c0,0.54-0.514,0.979-1.153,0.979c-0.635,0-1.151-0.438-1.151-0.979
										c0-0.542,0.517-0.979,1.151-0.979C463.666,302.961,464.179,303.399,464.179,303.941z"/>
								</g>
								<ellipse fill="#EFEEE8" cx="471.679" cy="303.94" rx="1.153" ry="0.979"/>
							</g>
							<g>
								<g>
									<ellipse fill="#EFEEE8" cx="372.18" cy="308.835" rx="1.153" ry="0.979"/>
									<path fill="#EFEEE8" d="M381.986,308.836c0,0.54-0.517,0.979-1.154,0.979c-0.635,0-1.152-0.438-1.152-0.979
										c0-0.541,0.517-0.979,1.152-0.979C381.469,307.858,381.986,308.295,381.986,308.836z"/>
									<path fill="#EFEEE8" d="M390.637,308.836c0,0.54-0.517,0.979-1.152,0.979c-0.638,0-1.153-0.438-1.153-0.979
										c0-0.541,0.515-0.979,1.153-0.979C390.121,307.858,390.637,308.295,390.637,308.836z"/>
									<ellipse fill="#EFEEE8" cx="398.136" cy="308.835" rx="1.154" ry="0.979"/>
									<ellipse fill="#EFEEE8" cx="406.79" cy="308.835" rx="1.152" ry="0.979"/>
									<ellipse fill="#EFEEE8" cx="415.44" cy="308.835" rx="1.153" ry="0.979"/>
									<ellipse fill="#EFEEE8" cx="424.092" cy="308.835" rx="1.154" ry="0.979"/>
									<ellipse fill="#EFEEE8" cx="432.745" cy="308.835" rx="1.154" ry="0.979"/>
									<path fill="#EFEEE8" d="M442.551,308.836c0,0.54-0.519,0.979-1.155,0.979s-1.152-0.438-1.152-0.979
										c0-0.541,0.516-0.979,1.152-0.979S442.551,308.295,442.551,308.836z"/>
									<path fill="#EFEEE8" d="M451.203,308.836c0,0.54-0.519,0.979-1.153,0.979c-0.638,0-1.154-0.438-1.154-0.979
										c0-0.541,0.516-0.979,1.154-0.979C450.684,307.858,451.203,308.295,451.203,308.836z"/>
									<ellipse fill="#EFEEE8" cx="458.701" cy="308.835" rx="1.153" ry="0.979"/>
									<ellipse fill="#EFEEE8" cx="467.352" cy="308.835" rx="1.154" ry="0.979"/>
								</g>
								<ellipse fill="#EFEEE8" cx="476.006" cy="308.835" rx="1.154" ry="0.979"/>
							</g>
							<g>
								<g>
									<ellipse fill="#EFEEE8" cx="367.854" cy="313.733" rx="1.153" ry="0.979"/>
									<ellipse fill="#EFEEE8" cx="376.507" cy="313.733" rx="1.154" ry="0.979"/>
									<ellipse fill="#EFEEE8" cx="385.159" cy="313.733" rx="1.153" ry="0.979"/>
									<ellipse fill="#EFEEE8" cx="393.811" cy="313.733" rx="1.152" ry="0.979"/>
									<ellipse fill="#EFEEE8" cx="402.464" cy="313.733" rx="1.152" ry="0.979"/>
									<path fill="#EFEEE8" d="M412.268,313.733c0,0.54-0.516,0.979-1.151,0.979c-0.638,0-1.154-0.438-1.154-0.979
										s0.516-0.979,1.154-0.979C411.752,312.754,412.268,313.193,412.268,313.733z"/>
									<ellipse fill="#EFEEE8" cx="419.766" cy="313.733" rx="1.154" ry="0.979"/>
									<ellipse fill="#EFEEE8" cx="428.419" cy="313.733" rx="1.153" ry="0.979"/>
									<ellipse fill="#EFEEE8" cx="437.07" cy="313.733" rx="1.155" ry="0.979"/>
									<ellipse fill="#EFEEE8" cx="445.722" cy="313.733" rx="1.154" ry="0.979"/>
									<ellipse fill="#EFEEE8" cx="454.376" cy="313.733" rx="1.152" ry="0.979"/>
									<path fill="#EFEEE8" d="M464.179,313.733c0,0.54-0.514,0.979-1.153,0.979c-0.635,0-1.151-0.438-1.151-0.979
										s0.517-0.979,1.151-0.979C463.666,312.754,464.179,313.193,464.179,313.733z"/>
								</g>
								<ellipse fill="#EFEEE8" cx="471.679" cy="313.733" rx="1.153" ry="0.979"/>
							</g>
							<g>
								<g>
									<ellipse fill="#EFEEE8" cx="372.18" cy="318.629" rx="1.153" ry="0.979"/>
									<ellipse fill="#EFEEE8" cx="380.833" cy="318.629" rx="1.153" ry="0.979"/>
									<path fill="#EFEEE8" d="M390.637,318.629c0,0.54-0.517,0.979-1.152,0.979c-0.638,0-1.153-0.438-1.153-0.979
										c0-0.541,0.515-0.979,1.153-0.979C390.121,317.651,390.637,318.088,390.637,318.629z"/>
									<ellipse fill="#EFEEE8" cx="398.136" cy="318.629" rx="1.154" ry="0.979"/>
									<ellipse fill="#EFEEE8" cx="406.79" cy="318.629" rx="1.152" ry="0.979"/>
									<ellipse fill="#EFEEE8" cx="415.44" cy="318.629" rx="1.153" ry="0.979"/>
									<ellipse fill="#EFEEE8" cx="424.092" cy="318.629" rx="1.154" ry="0.979"/>
									<ellipse fill="#EFEEE8" cx="432.745" cy="318.629" rx="1.154" ry="0.979"/>
									<ellipse fill="#EFEEE8" cx="441.397" cy="318.629" rx="1.154" ry="0.979"/>
									<path fill="#EFEEE8" d="M451.203,318.629c0,0.54-0.519,0.979-1.153,0.979c-0.638,0-1.154-0.438-1.154-0.979
										c0-0.541,0.516-0.979,1.154-0.979C450.684,317.651,451.203,318.088,451.203,318.629z"/>
									<ellipse fill="#EFEEE8" cx="458.701" cy="318.629" rx="1.153" ry="0.979"/>
									<ellipse fill="#EFEEE8" cx="467.352" cy="318.629" rx="1.154" ry="0.979"/>
								</g>
								<ellipse fill="#EFEEE8" cx="476.006" cy="318.629" rx="1.154" ry="0.979"/>
							</g>
							<g>
								<g>
									<ellipse fill="#EFEEE8" cx="367.854" cy="323.524" rx="1.153" ry="0.979"/>
									<ellipse fill="#EFEEE8" cx="376.507" cy="323.524" rx="1.154" ry="0.979"/>
									<ellipse fill="#EFEEE8" cx="385.159" cy="323.524" rx="1.153" ry="0.979"/>
									<ellipse fill="#EFEEE8" cx="393.811" cy="323.524" rx="1.152" ry="0.979"/>
									<ellipse fill="#EFEEE8" cx="402.464" cy="323.524" rx="1.152" ry="0.979"/>
									<path fill="#EFEEE8" d="M412.268,323.525c0,0.54-0.516,0.979-1.151,0.979c-0.638,0-1.154-0.438-1.154-0.979
										c0-0.541,0.516-0.979,1.154-0.979C411.752,322.546,412.268,322.984,412.268,323.525z"/>
									<ellipse fill="#EFEEE8" cx="419.766" cy="323.524" rx="1.154" ry="0.979"/>
									<ellipse fill="#EFEEE8" cx="428.419" cy="323.524" rx="1.153" ry="0.979"/>
									<ellipse fill="#EFEEE8" cx="437.07" cy="323.524" rx="1.155" ry="0.979"/>
									<ellipse fill="#EFEEE8" cx="445.722" cy="323.524" rx="1.154" ry="0.979"/>
									<ellipse fill="#EFEEE8" cx="454.376" cy="323.524" rx="1.152" ry="0.979"/>
									<path fill="#EFEEE8" d="M464.179,323.525c0,0.54-0.514,0.979-1.153,0.979c-0.635,0-1.151-0.438-1.151-0.979
										c0-0.541,0.517-0.979,1.151-0.979C463.666,322.546,464.179,322.984,464.179,323.525z"/>
								</g>
								<ellipse fill="#EFEEE8" cx="471.679" cy="323.524" rx="1.153" ry="0.979"/>
							</g>
							<g>
								<g>
									<ellipse fill="#EFEEE8" cx="372.18" cy="328.421" rx="1.153" ry="0.979"/>
									<ellipse fill="#EFEEE8" cx="380.833" cy="328.421" rx="1.153" ry="0.979"/>
									<path fill="#EFEEE8" d="M390.637,328.421c0,0.54-0.517,0.979-1.152,0.979c-0.638,0-1.153-0.439-1.153-0.979
										s0.515-0.979,1.153-0.979C390.121,327.442,390.637,327.881,390.637,328.421z"/>
									<ellipse fill="#EFEEE8" cx="398.136" cy="328.421" rx="1.154" ry="0.979"/>
									<ellipse fill="#EFEEE8" cx="406.79" cy="328.421" rx="1.152" ry="0.979"/>
									<ellipse fill="#EFEEE8" cx="415.44" cy="328.421" rx="1.153" ry="0.979"/>
									<ellipse fill="#EFEEE8" cx="424.092" cy="328.421" rx="1.154" ry="0.979"/>
									<ellipse fill="#EFEEE8" cx="432.745" cy="328.421" rx="1.154" ry="0.979"/>
									<ellipse fill="#EFEEE8" cx="441.397" cy="328.421" rx="1.154" ry="0.979"/>
									<path fill="#EFEEE8" d="M451.203,328.421c0,0.54-0.519,0.979-1.153,0.979c-0.638,0-1.154-0.439-1.154-0.979
										s0.516-0.979,1.154-0.979C450.684,327.442,451.203,327.881,451.203,328.421z"/>
									<ellipse fill="#EFEEE8" cx="458.701" cy="328.421" rx="1.153" ry="0.979"/>
									<ellipse fill="#EFEEE8" cx="467.352" cy="328.421" rx="1.154" ry="0.979"/>
								</g>
								<ellipse fill="#EFEEE8" cx="476.006" cy="328.421" rx="1.154" ry="0.979"/>
							</g>
						</g>
					</g>
				</g>
			</g>
		</g>
	</g>
</g>
<g>
	<rect x="509.38" y="169.48" fill="#FFFFFF" width="155.4" height="172.381"/>
	<rect x="509.38" y="169.48" fill="#F69799" width="155.4" height="18.636"/>
	<ellipse fill="#72C7AC" cx="523.763" cy="176.979" rx="5.717" ry="5.357"/>
	<ellipse fill="#D35264" cx="644.881" cy="183.086" rx="6.035" ry="5.653"/>
</g>
</svg>
