<?xml version="1.0" encoding="utf-8"?>
<!-- Generator: Adobe Illustrator 16.0.0, SVG Export Plug-In . SVG Version: 6.00 Build 0)  -->
<!DOCTYPE svg PUBLIC "-//W3C//DTD SVG 1.1//EN" "http://www.w3.org/Graphics/SVG/1.1/DTD/svg11.dtd">
<svg version="1.1" id="Layer_1" xmlns="http://www.w3.org/2000/svg" xmlns:xlink="http://www.w3.org/1999/xlink" x="0px" y="0px"
	 width="375px" height="645.874px" viewBox="196.5 122.224 375 645.874" enable-background="new 196.5 122.224 375 645.874"
	 xml:space="preserve">
<g>
	<g>
		<path fill="#754C29" d="M563.425,730.012c0,19.606-12.803,35.496-28.594,35.496H233.299c-15.791,0-28.593-15.89-28.593-35.496
			V183.578c0-19.606,12.802-35.495,28.593-35.495h301.532c15.79,0,28.594,15.891,28.594,35.495V730.012L563.425,730.012z"/>
		<rect x="235.06" y="187.417" fill="#FFFFFF" width="298.011" height="538.756"/>
	</g>
	<path fill="#818181" d="M420.647,141.669v-5.011c0-5.773-4.485-10.435-9.887-10.435h-54.317c-5.405,0-9.888,4.661-9.888,10.435
		v5.011H420.647z"/>
	<path fill="#818181" d="M444.508,141.933h-19.643h-4.218h-74.091h-3.097h-20.764c-5.407,0-9.889,4.661-9.889,10.365v40.073
		c0,5.706,4.482,10.436,9.889,10.436h121.813c5.404,0,9.89-4.73,9.89-10.436v-40.073
		C454.398,146.594,449.913,141.933,444.508,141.933L444.508,141.933z"/>
</g>
</svg>
