<?xml version="1.0" encoding="utf-8"?>
<!-- Generator: Adobe Illustrator 16.0.0, SVG Export Plug-In . SVG Version: 6.00 Build 0)  -->
<!DOCTYPE svg PUBLIC "-//W3C//DTD SVG 1.1//EN" "http://www.w3.org/Graphics/SVG/1.1/DTD/svg11.dtd">
<svg version="1.1" id="Layer_1" xmlns="http://www.w3.org/2000/svg" xmlns:xlink="http://www.w3.org/1999/xlink" x="0px" y="0px"
	 width="1024px" height="768px" viewBox="0 0 1024 768" enable-background="new 0 0 1024 768" xml:space="preserve">
<rect x="0" y="1.751" fill="#F7FDEA" width="1024" height="586.228"/>
<g>
	<g>
		<rect x="386.732" y="153.512" fill="#754C29" width="250.342" height="435.595"/>
		<g>
			<rect x="367.129" y="133.908" width="19.604" height="455.198"/>
			<path d="M387.258,589.633h-20.654V133.385h20.654V589.633z M367.654,588.582h18.553V134.433h-18.553V588.582z"/>
		</g>
		<g>
			<rect x="637.074" y="133.935" width="19.602" height="455.172"/>
			<path d="M657.203,589.633h-20.654V133.41h20.654V589.633L657.203,589.633z M637.601,588.582h18.555V134.462h-18.555V588.582
				L637.601,588.582z"/>
		</g>
		<g>
			<polygon points="367.129,133.908 386.732,153.512 637.074,153.512 656.701,133.908 			"/>
			<path d="M637.293,154.04H386.515l-20.656-20.655h292.116L637.293,154.04z M386.948,152.986h249.903l18.578-18.553H368.399
				L386.948,152.986z"/>
		</g>
	</g>
	<rect x="506.934" y="208.061" fill="none" width="12.662" height="31.655"/>
	<g enable-background="new    ">
		<path d="M514.215,217.708c0,0.539-0.098,1.02-0.281,1.444c-0.189,0.426-0.455,0.781-0.797,1.072s-0.752,0.511-1.237,0.667
			c-0.479,0.154-1.012,0.23-1.597,0.23c-0.31,0-0.604-0.021-0.88-0.06c-0.277-0.037-0.526-0.085-0.748-0.145
			c-0.221-0.059-0.4-0.118-0.543-0.176c-0.14-0.062-0.234-0.108-0.277-0.147c-0.043-0.041-0.076-0.081-0.097-0.126
			c-0.019-0.047-0.036-0.103-0.05-0.167c-0.012-0.065-0.021-0.146-0.026-0.244c-0.006-0.097-0.009-0.212-0.009-0.347
			c0-0.146,0.005-0.267,0.017-0.366c0.011-0.099,0.026-0.181,0.05-0.243c0.024-0.061,0.051-0.104,0.082-0.129
			c0.029-0.026,0.066-0.039,0.108-0.039c0.05,0,0.129,0.03,0.234,0.087c0.107,0.06,0.243,0.124,0.417,0.197
			c0.17,0.072,0.382,0.14,0.63,0.197c0.246,0.06,0.541,0.087,0.886,0.087c0.299,0,0.57-0.03,0.813-0.091
			c0.245-0.063,0.45-0.163,0.621-0.299c0.171-0.134,0.302-0.307,0.393-0.511c0.094-0.206,0.14-0.453,0.14-0.74
			c0-0.248-0.037-0.468-0.118-0.657c-0.074-0.194-0.195-0.359-0.362-0.491c-0.167-0.133-0.376-0.233-0.64-0.301
			c-0.263-0.068-0.582-0.102-0.956-0.102c-0.298,0-0.571,0.017-0.814,0.047c-0.242,0.029-0.474,0.046-0.689,0.046
			c-0.148,0-0.257-0.036-0.321-0.113c-0.063-0.074-0.096-0.21-0.096-0.412v-4.333c0-0.206,0.039-0.354,0.121-0.444
			c0.078-0.089,0.204-0.133,0.381-0.133h4.726c0.043,0,0.09,0.015,0.133,0.047c0.039,0.029,0.076,0.079,0.102,0.146
			c0.029,0.067,0.051,0.155,0.064,0.267c0.012,0.111,0.02,0.241,0.02,0.396c0,0.31-0.027,0.532-0.082,0.671
			c-0.055,0.14-0.131,0.208-0.232,0.208h-3.55v2.136c0.181-0.021,0.359-0.033,0.536-0.037c0.177-0.005,0.363-0.009,0.558-0.009
			c0.539,0,1.019,0.063,1.438,0.188c0.418,0.126,0.772,0.313,1.055,0.557c0.285,0.244,0.504,0.547,0.65,0.911
			C514.136,216.807,514.215,217.229,514.215,217.708z"/>
	</g>
	<g>
		<g>
			<circle fill="#9D9FA2" cx="510.932" cy="230.288" r="2.907"/>
			<path fill="#47403D" d="M510.932,233.719c-1.894,0-3.431-1.539-3.431-3.431c0-1.895,1.538-3.433,3.431-3.433
				c1.888,0,3.429,1.539,3.429,3.433C514.361,232.183,512.822,233.719,510.932,233.719z M510.932,227.909
				c-1.313,0-2.381,1.068-2.381,2.381c0,1.312,1.067,2.378,2.381,2.378c1.307,0,2.378-1.067,2.378-2.378
				C513.312,228.977,512.239,227.909,510.932,227.909z"/>
		</g>
	</g>
	<g>
		<path d="M628.994,405.199c0,0.299-0.242,0.541-0.545,0.541h-17.602c-0.303,0-0.543-0.244-0.543-0.541v-40.694
			c0-0.3,0.244-0.544,0.543-0.544h17.602c0.303,0,0.545,0.244,0.545,0.544V405.199z"/>
		<path fill="#F8F088" d="M621.871,390.686c0-0.914-0.74-1.648-1.648-1.648c-0.914,0-1.65,0.738-1.65,1.648
			c0,0.523,0.248,0.588,0.625,0.895l-0.316,2.07h2.689l-0.32-2.07C621.625,391.278,621.871,391.209,621.871,390.686z"/>
		<path stroke="#3C2415" stroke-width="0.8234" stroke-miterlimit="10" d="M622.945,373.182c0-1.645-1.115-3.174-2.693-3.174h-8.988
			c-1.578,0-2.609,1.53-2.609,3.174v8.235c0,1.646,1.031,3.983,2.609,3.983h8.988c1.58,0,2.693-2.337,2.693-3.983V373.182z"/>
		<path fill="#3C2415" d="M614.701,374.275c0-1.349-0.389-2.615-0.857-2.615h-2.688c-0.471,0-1.951,1.269-1.951,2.615v6.738
			c0,1.347,1.482,2.741,1.951,2.741h2.688c0.469,0,0.857-1.396,0.857-2.741V374.275z"/>
	</g>
</g>
<g>
	<polygon fill="#F2F2F2" points="417.957,365.848 594.521,366.022 594.785,245.449 418.218,245.278 	"/>
	<polygon opacity="0.9" fill="#F9E9CE" enable-background="new    " points="536.092,367.047 538.127,366.297 531.383,365.71 
		482.001,361.415 475.253,360.827 476.94,361.903 474.956,362.374 476.614,363.58 474.562,364.429 476.228,365.596 474.131,366.672 
		475.781,367.915 473.711,368.838 475.478,369.49 480.364,369.916 529.746,374.211 537.129,374.85 535.599,373.887 536.742,373.693 
		534.961,372.267 536.328,371.56 535.379,370.74 537.433,369.897 535.769,368.725 537.832,367.843 	"/>
	<polygon opacity="0.9" fill="#F9E9CE" enable-background="new    " points="544.396,244.81 546.439,244.059 539.687,243.474 
		490.307,239.177 483.562,238.591 485.246,239.665 483.265,240.139 484.922,241.344 482.868,242.191 484.537,243.358 
		482.436,244.435 484.086,245.679 482.018,246.601 483.785,247.252 488.67,247.676 538.051,251.971 545.439,252.615 
		543.902,251.649 545.051,251.456 543.267,250.029 544.636,249.323 543.685,248.501 545.738,247.661 544.074,246.489 
		546.135,245.603 	"/>
</g>
<g>
	<path fill="#AD1F2D" d="M507.45,291.495l-6.123,5.93l-10.221-10.623l-1.773,9.798h-8.466l2.937-16.23
		c0.369,0.032,0.679,0.013,0.926-0.061l-3.015-3.199l6.183-5.939l9.306,9.672c0.024-0.033,0.061-0.095,0.109-0.19
		c0.329-1.669,0.789-4.301,1.384-7.895h8.516l-2.799,15.438L507.45,291.495z"/>
	<path fill="#AD1F2D" d="M531.773,272.662l-4.525,25.479l-8.24-1.542l2.982-15.412c-7.961,0-12.002-0.195-12.131-0.578l0.914-15.941
		l8.333,0.387l-0.383,7.606L531.773,272.662L531.773,272.662z"/>
	<path fill="#AD1F2D" d="M466.38,338.387h-7.657v-15.796c-0.545,0.063-2.087,0.048-4.623-0.05c-3.114-0.162-5.14-0.243-6.069-0.243
		c-1.477,0-2.313,0.098-2.504,0.291v-8.428l20.854,0.577c0.225,1.99,0.338,4.769,0.338,8.333c0,2.343-0.058,5.339-0.168,8.98
		C466.436,335.702,466.38,337.811,466.38,338.387z"/>
	<path fill="#AD1F2D" d="M489.068,338.387h-20.085v-8.813h11.368v-6.6h-11.752v-8.765c2.377,0,5.779-0.04,10.21-0.12
		s7.849-0.12,10.26-0.12L489.068,338.387L489.068,338.387z"/>
	<path fill="#AD1F2D" d="M525.857,315.996c0,3.083-0.207,7.706-0.623,13.869c-0.42,5.941-0.629,8.685-0.629,8.235l-29.908,1.059
		c-2.183-10.671-3.274-18.361-3.274-23.073v-0.528l8.381-0.962l1.877,15.894c1.091,0,2.185,0,3.273,0V314.26h8.43v15.846
		c-0.033,0,0.963,0,2.984,0l1.109-15.508l8.375,0.482L525.857,315.996L525.857,315.996z"/>
	<path fill="#AD1F2D" d="M539.73,338.387h-8.094v-15.651c-0.098-0.128-0.609-0.161-1.537-0.096
		c-1.383,0.096-1.977,0.146-1.785,0.146v-8.093c2.83-0.32,6.631-0.401,11.416-0.24V338.387L539.73,338.387z"/>
	<path fill="#AD1F2D" d="M565.16,339.354h-8.33v-16.615l-14.691-0.386v-8.139l22.588,0.24L565.16,339.354z M551.338,325.58
		l-0.721,13.294l-8.188-0.482l0.77-13.292L551.338,325.58z"/>
</g>
<rect x="0" y="588.647" fill="#E4DBCD" width="1024" height="177.604"/>
</svg>
