<?xml version="1.0" encoding="utf-8"?>
<!-- Generator: Adobe Illustrator 16.0.0, SVG Export Plug-In . SVG Version: 6.00 Build 0)  -->
<!DOCTYPE svg PUBLIC "-//W3C//DTD SVG 1.1//EN" "http://www.w3.org/Graphics/SVG/1.1/DTD/svg11.dtd">
<svg version="1.1" id="Layer_1" xmlns="http://www.w3.org/2000/svg" xmlns:xlink="http://www.w3.org/1999/xlink" x="0px" y="0px"
	 width="1024px" height="768px" viewBox="0 0 1024 768" enable-background="new 0 0 1024 768" xml:space="preserve">
<rect x="0" y="590.296" fill="#E4DBCD" width="1024" height="178.454"/>
<rect x="0" y="-0.75" fill="#F7FDEA" width="1024" height="589.032"/>
<rect x="595.189" y="99.212" fill="#FFFFFF" width="60.379" height="492.426"/>
<g>
	<g>
		<g>
			<rect x="365.158" y="150.093" width="19.88" height="442.71"/>
			<path d="M385.572,593.315h-20.947V149.58h20.947V593.315z M365.691,592.29h18.814V150.603h-18.814V592.29z"/>
		</g>
		<g>
			<rect x="638.927" y="150.117" width="19.882" height="442.686"/>
			<path d="M659.344,593.315h-20.948v-443.71h20.948V593.315z M639.46,592.29h18.82V150.627h-18.82V592.29z"/>
		</g>
		<g>
			<polygon points="365.158,150.093 385.039,169.154 638.927,169.154 658.831,150.093 			"/>
			<path d="M639.147,169.667H384.821l-20.947-20.089h296.252L639.147,169.667z M385.26,168.646h253.444l18.841-18.043H366.447
				L385.26,168.646z"/>
		</g>
		<polygon fill="#754C29" points="603.029,619.612 385.039,592.802 385.039,169.154 603.629,112.344 		"/>
	</g>
	<polygon fill="none" points="489.909,250.331 502.692,249.175 499.672,218.528 486.889,219.683 	"/>
	<g enable-background="new    ">
		<path d="M495.392,227.908c0,0.524-0.097,0.993-0.285,1.405c-0.189,0.413-0.459,0.761-0.807,1.043
			c-0.347,0.282-0.763,0.499-1.251,0.649c-0.486,0.149-1.026,0.225-1.621,0.225c-0.313,0-0.609-0.02-0.892-0.057
			c-0.282-0.036-0.535-0.084-0.76-0.144c-0.223-0.057-0.408-0.114-0.552-0.171c-0.143-0.057-0.236-0.104-0.281-0.143
			c-0.044-0.039-0.076-0.079-0.098-0.124s-0.038-0.099-0.052-0.162c-0.013-0.062-0.021-0.142-0.025-0.236
			c-0.006-0.094-0.01-0.207-0.01-0.337c0-0.14,0.005-0.258,0.018-0.355c0.01-0.097,0.026-0.176,0.05-0.236
			c0.024-0.06,0.051-0.102,0.082-0.128c0.032-0.025,0.068-0.037,0.11-0.037c0.052,0,0.131,0.028,0.237,0.085
			c0.106,0.059,0.247,0.122,0.423,0.192c0.175,0.07,0.388,0.134,0.639,0.19c0.25,0.058,0.55,0.086,0.898,0.086
			c0.303,0,0.576-0.03,0.824-0.09c0.248-0.061,0.458-0.155,0.63-0.29c0.174-0.133,0.306-0.297,0.399-0.498
			c0.094-0.199,0.141-0.439,0.141-0.72c0-0.241-0.04-0.454-0.116-0.641c-0.078-0.188-0.2-0.347-0.368-0.477
			c-0.168-0.131-0.383-0.228-0.649-0.292s-0.589-0.097-0.97-0.097c-0.302,0-0.577,0.015-0.824,0.045
			c-0.248,0.031-0.48,0.045-0.701,0.045c-0.149,0-0.26-0.036-0.324-0.107c-0.064-0.074-0.098-0.207-0.098-0.402v-4.215
			c0-0.2,0.04-0.344,0.121-0.432c0.08-0.087,0.209-0.132,0.388-0.132h4.794c0.046,0,0.092,0.016,0.134,0.045
			s0.075,0.076,0.104,0.144c0.028,0.063,0.049,0.15,0.063,0.259c0.013,0.108,0.02,0.236,0.02,0.386c0,0.3-0.026,0.52-0.083,0.652
			c-0.055,0.136-0.134,0.204-0.239,0.204h-3.597v2.076c0.184-0.02,0.364-0.032,0.544-0.036c0.181-0.005,0.369-0.007,0.566-0.007
			c0.547,0,1.032,0.062,1.459,0.183c0.424,0.123,0.78,0.303,1.069,0.541c0.289,0.236,0.51,0.533,0.66,0.886
			C495.316,227.034,495.392,227.443,495.392,227.908z"/>
	</g>
	<g>
		<polygon fill="#F2F2F2" points="394.985,370.135 565.494,384.088 565.494,248.254 396.19,256.62 		"/>
		<polygon opacity="0.9" fill="#F9E9CE" enable-background="new    " points="495.779,376.222 497.688,375.543 491.362,375.013 
			445.07,371.13 438.745,370.598 440.324,371.57 438.467,371.997 440.021,373.089 438.096,373.855 439.66,374.908 437.688,375.881 
			439.239,377.008 437.298,377.841 438.955,378.429 443.536,378.816 489.827,382.698 496.752,383.276 495.313,382.406 
			496.392,382.231 494.717,380.94 496,380.299 495.111,379.56 497.035,378.799 495.474,377.74 497.409,376.941 		"/>
		<polygon opacity="0.9" fill="#F9E9CE" enable-background="new    " points="518.682,252.483 520.924,251.688 513.499,251.065 
			459.172,246.51 451.749,245.886 453.601,247.025 451.421,247.527 453.243,248.808 450.986,249.706 452.821,250.944 
			450.511,252.083 452.329,253.406 450.051,254.384 451.996,255.074 457.37,255.528 511.698,260.083 519.825,260.766 
			518.136,259.742 519.396,259.536 517.435,258.023 518.941,257.271 517.898,256.402 520.158,255.508 518.326,254.266 
			520.594,253.328 		"/>
	</g>
	<g>
		<g>
			<ellipse fill="#9D9FA2" cx="492.483" cy="242.578" rx="2.947" ry="2.828"/>
			<path fill="#47403D" d="M492.484,245.916c-1.921,0-3.48-1.497-3.48-3.334c0-1.844,1.561-3.34,3.48-3.34
				c1.918,0,3.479,1.494,3.479,3.34C495.964,244.421,494.402,245.916,492.484,245.916z M492.484,240.264
				c-1.331,0-2.414,1.039-2.414,2.317c0,1.271,1.083,2.313,2.414,2.313c1.333,0,2.414-1.039,2.414-2.313
				C494.898,241.302,493.817,240.264,492.484,240.264z"/>
		</g>
	</g>
	<g>
		<path d="M595.084,397.209c0,0.339-1.525,1.188-1.879,1.188h-19.859c-0.356,0-0.181-0.849-0.181-1.188v-45.725
			c0-0.339-0.176-1.307,0.181-1.307h19.857c0.354,0,1.879,0.97,1.879,1.307v45.725H595.084z"/>
		<path fill="#F8F088" d="M585.293,381.124c0-1.029-0.868-1.862-1.938-1.862c-1.074,0-1.944,0.833-1.944,1.862
			c0,0.588,0.294,1.054,0.739,1.393l-0.378,2.729h3.163l-0.379-2.729C585.003,382.18,585.293,381.711,585.293,381.124z"/>
		<path stroke="#3C2415" stroke-width="0.9418" stroke-miterlimit="10" d="M586.864,361.381c0-1.854-1.621-2.984-3.473-2.984
			h-10.574c-1.854,0-3.487,1.131-3.487,2.984v9.29c0,1.856,1.633,3.071,3.487,3.071h10.574c1.853,0,3.473-1.213,3.473-3.071V361.381
			L586.864,361.381z"/>
		<path fill="#3C2415" d="M577.55,362.614c0-1.518-1.142-3.668-1.697-3.668h-3.158c-0.553,0-0.623,2.15-0.623,3.668v7.603
			c0,1.518,0.07,2.978,0.623,2.978h3.158c0.557,0,1.697-1.46,1.697-2.978V362.614z"/>
	</g>
</g>
<g>
	<path fill="#AB1F25" d="M427.567,328.846h-7.947l-0.466-14.743h-4.818l-0.38,14.743h-13.444v-8.958h5.58
		c0.112-0.587,0.211-2.484,0.296-5.691c-0.028-0.063-0.126-0.093-0.296-0.093v-9.007h21.01L427.567,328.846z"/>
	<path fill="#AB1F25" d="M449.45,304.618l-4.078,25.736l-7.422-1.557l2.688-15.569c-7.17,0-10.813-0.195-10.929-0.583l0.824-16.103
		l7.506,0.391l-0.348,7.685H449.45z"/>
	<path fill="#AB1F25" d="M478.926,328.798h-27.234v-9.131l14.863,0.198c0-3.293,0.074-5.621,0.223-6.984H452.27l-0.044-9.433
		l12.415,0.399c7.357,0.199,11.214,0.266,11.57,0.199l-0.712,15.619h3.427L478.926,328.798L478.926,328.798z"/>
	<path fill="#AB1F25" d="M502.477,303.429c0,4.467-0.091,7.451-0.273,8.951c-0.578,3.682-1.398,9.207-2.464,16.571l-7.878-1.43
		l2.21-15.502c-0.576,0.138-1.503,0.207-2.778,0.207c-1.581,0-3.646-0.103-6.198-0.308c-1.275-0.103-2.537-0.221-3.782-0.357v-8.951
		L502.477,303.429z M490.711,339.028h-8.028l-0.729-22.146h7.981L490.711,339.028z"/>
	<path fill="#AB1F25" d="M534.738,328.85h-8.785l-0.515-16.293h-5.327l-0.42,16.293h-14.858v-9.901h6.168
		c0.124-0.647,0.232-2.744,0.327-6.29c-0.032-0.067-0.141-0.102-0.327-0.102v-9.956h23.221L534.738,328.85z"/>
	<path fill="#AB1F25" d="M559.968,329.871h-8.275v-18.507l-14.591-0.429v-9.066l22.436,0.269L559.968,329.871z M546.236,314.53
		l-0.717,14.805l-8.133-0.537l0.768-14.805L546.236,314.53z"/>
</g>
</svg>
