<?xml version="1.0" encoding="utf-8"?>
<!-- Generator: Adobe Illustrator 16.0.0, SVG Export Plug-In . SVG Version: 6.00 Build 0)  -->
<!DOCTYPE svg PUBLIC "-//W3C//DTD SVG 1.1//EN" "http://www.w3.org/Graphics/SVG/1.1/DTD/svg11.dtd">
<svg version="1.1" id="Layer_1" xmlns="http://www.w3.org/2000/svg" xmlns:xlink="http://www.w3.org/1999/xlink" x="0px" y="0px"
	 width="1024px" height="768px" viewBox="-352 -100 1024 768" enable-background="new -352 -100 1024 768" xml:space="preserve">
<rect x="-352" y="491.046" fill="#E4DBCD" width="1024" height="178.454"/>
<rect x="-352" y="-100" fill="#F7FDEA" width="1024" height="589.033"/>
<rect x="243.189" y="-0.038" fill="#FFFFFF" width="60.379" height="492.426"/>
<g>
	<g>
		<g>
			<rect x="13.158" y="50.843" width="19.88" height="442.71"/>
			<path d="M33.572,494.065H12.625V50.33h20.947V494.065z M13.691,493.041h18.815V51.353H13.691V493.041z"/>
		</g>
		<g>
			<rect x="286.927" y="50.867" width="19.882" height="442.686"/>
			<path d="M307.344,494.065h-20.948V50.355h20.948V494.065z M287.46,493.041h18.82V51.377h-18.82V493.041z"/>
		</g>
		<g>
			<polygon points="13.158,50.843 33.039,69.904 286.927,69.904 306.831,50.843 			"/>
			<path d="M287.147,70.417H32.821L11.874,50.328h296.252L287.147,70.417z M33.26,69.396h253.445l18.841-18.043H14.447L33.26,69.396
				z"/>
		</g>
		<polygon fill="#754C29" points="251.029,520.362 33.039,493.552 33.039,69.904 251.629,13.094 		"/>
	</g>
	<polygon fill="none" points="137.909,151.081 150.692,149.925 147.672,119.278 134.889,120.433 	"/>
	<g enable-background="new    ">
		<path d="M143.392,128.658c0,0.525-0.096,0.994-0.285,1.406c-0.189,0.413-0.459,0.76-0.806,1.043
			c-0.347,0.282-0.763,0.499-1.251,0.649c-0.487,0.15-1.027,0.225-1.622,0.225c-0.313,0-0.609-0.02-0.891-0.057
			c-0.282-0.036-0.535-0.084-0.76-0.143c-0.223-0.057-0.408-0.115-0.552-0.171c-0.142-0.057-0.236-0.104-0.281-0.143
			c-0.044-0.039-0.076-0.079-0.098-0.124c-0.021-0.045-0.038-0.099-0.051-0.162c-0.013-0.062-0.022-0.142-0.026-0.236
			c-0.006-0.094-0.009-0.207-0.009-0.337c0-0.14,0.004-0.258,0.017-0.356c0.01-0.096,0.026-0.176,0.05-0.236
			c0.024-0.06,0.051-0.102,0.082-0.128c0.032-0.025,0.068-0.037,0.11-0.037c0.052,0,0.131,0.028,0.238,0.085
			c0.106,0.058,0.247,0.122,0.422,0.192c0.175,0.07,0.388,0.134,0.639,0.191c0.25,0.057,0.55,0.086,0.899,0.086
			c0.302,0,0.576-0.031,0.824-0.09c0.248-0.061,0.458-0.156,0.63-0.29c0.173-0.133,0.305-0.297,0.399-0.498
			c0.094-0.2,0.141-0.44,0.141-0.72c0-0.241-0.04-0.454-0.117-0.641c-0.078-0.188-0.2-0.346-0.368-0.476
			c-0.168-0.131-0.383-0.228-0.649-0.292c-0.267-0.065-0.589-0.097-0.97-0.097c-0.302,0-0.577,0.015-0.824,0.045
			c-0.248,0.031-0.481,0.045-0.701,0.045c-0.15,0-0.26-0.036-0.324-0.108c-0.065-0.074-0.098-0.207-0.098-0.402v-4.215
			c0-0.2,0.04-0.343,0.121-0.431c0.08-0.087,0.209-0.132,0.388-0.132h4.794c0.046,0,0.091,0.015,0.133,0.045
			c0.042,0.029,0.076,0.076,0.104,0.143c0.028,0.064,0.049,0.151,0.063,0.259c0.013,0.108,0.02,0.236,0.02,0.386
			c0,0.3-0.026,0.519-0.083,0.652c-0.055,0.136-0.134,0.204-0.239,0.204h-3.597v2.076c0.184-0.019,0.364-0.032,0.544-0.036
			c0.181-0.005,0.369-0.007,0.566-0.007c0.547,0,1.033,0.062,1.459,0.183c0.424,0.123,0.781,0.303,1.07,0.541
			c0.289,0.236,0.509,0.533,0.66,0.886C143.316,127.784,143.392,128.193,143.392,128.658z"/>
	</g>
	<g>
		<polygon fill="#F2F2F2" points="42.985,270.885 213.494,284.838 213.494,149.004 44.19,157.37 		"/>
		<polygon opacity="0.9" fill="#F9E9CE" enable-background="new    " points="143.779,276.972 145.688,276.293 139.362,275.763 
			93.07,271.88 86.745,271.348 88.324,272.32 86.467,272.747 88.021,273.839 86.096,274.605 87.66,275.658 85.688,276.631 
			87.239,277.758 85.298,278.591 86.955,279.179 91.536,279.566 137.827,283.448 144.752,284.026 143.313,283.156 144.392,282.981 
			142.717,281.69 144,281.049 143.111,280.31 145.035,279.549 143.474,278.49 145.409,277.691 		"/>
		<polygon opacity="0.9" fill="#F9E9CE" enable-background="new    " points="166.682,153.233 168.924,152.438 161.499,151.815 
			107.172,147.26 99.749,146.636 101.601,147.775 99.421,148.277 101.243,149.558 98.986,150.456 100.821,151.694 98.511,152.833 
			100.329,154.156 98.051,155.134 99.996,155.824 105.37,156.278 159.698,160.833 167.825,161.516 166.136,160.492 167.396,160.286 
			165.435,158.773 166.941,158.021 165.898,157.152 168.158,156.258 166.326,155.016 168.594,154.078 		"/>
	</g>
	<g>
		<g>
			<ellipse fill="#9D9FA2" cx="140.483" cy="143.328" rx="2.947" ry="2.828"/>
			<path fill="#47403D" d="M140.484,146.666c-1.921,0-3.48-1.497-3.48-3.334c0-1.843,1.56-3.34,3.48-3.34
				c1.918,0,3.479,1.495,3.479,3.34C143.964,145.171,142.402,146.666,140.484,146.666z M140.484,141.014
				c-1.331,0-2.414,1.039-2.414,2.317c0,1.272,1.083,2.313,2.414,2.313c1.333,0,2.414-1.039,2.414-2.313
				C142.898,142.052,141.817,141.014,140.484,141.014z"/>
		</g>
	</g>
	<g>
		<path d="M243.084,297.959c0,0.339-1.526,1.188-1.879,1.188h-19.86c-0.356,0-0.18-0.849-0.18-1.188v-45.724
			c0-0.339-0.176-1.307,0.18-1.307h19.858c0.354,0,1.879,0.97,1.879,1.307v45.724H243.084z"/>
		<path fill="#F8F088" d="M233.293,281.874c0-1.029-0.868-1.862-1.939-1.862c-1.074,0-1.944,0.833-1.944,1.862
			c0,0.588,0.294,1.054,0.739,1.393l-0.378,2.729h3.163l-0.379-2.729C233.003,282.93,233.293,282.461,233.293,281.874z"/>
		<path stroke="#3C2415" stroke-width="0.9418" stroke-miterlimit="10" d="M234.864,262.131c0-1.853-1.621-2.984-3.473-2.984
			h-10.574c-1.854,0-3.487,1.131-3.487,2.984v9.29c0,1.857,1.633,3.071,3.487,3.071h10.574c1.853,0,3.473-1.212,3.473-3.071V262.131
			L234.864,262.131z"/>
		<path fill="#3C2415" d="M225.55,263.364c0-1.518-1.142-3.668-1.698-3.668h-3.158c-0.553,0-0.623,2.15-0.623,3.668v7.602
			c0,1.518,0.07,2.978,0.623,2.978h3.158c0.557,0,1.698-1.46,1.698-2.978V263.364z"/>
	</g>
</g>
<g>
	<path fill="#AC1F24" d="M71.188,229.601h-9.875v-20.209c-0.706,0.083-2.693,0.062-5.964-0.062
		c-4.017-0.206-6.625-0.308-7.826-0.308c-1.904,0-2.979,0.123-3.229,0.37v-10.781l26.896,0.737c0.291,2.549,0.437,6.1,0.437,10.66
		c0,2.999-0.072,6.831-0.219,11.491C71.261,226.161,71.188,228.861,71.188,229.601z"/>
	<path fill="#AC1F24" d="M101.772,229.601h-26.51V218.06h15.004v-8.638H74.756v-11.479c3.134,0,7.628-0.052,13.478-0.159
		c5.848-0.102,10.362-0.157,13.539-0.157V229.601L101.772,229.601z"/>
	<path fill="#AC1F24" d="M152.126,199.603c0,4.13-0.283,10.324-0.845,18.579c-0.563,7.96-0.844,11.634-0.844,11.034l-40.39,1.417
		c-2.949-14.293-4.423-24.596-4.423-30.906v-0.709l11.316-1.288l2.536,21.29c1.472,0,2.947,0,4.423,0v-21.742h11.382v21.224
		c-0.045,0,1.3,0,4.03,0l1.496-20.773l11.316,0.645L152.126,199.603L152.126,199.603z"/>
	<path fill="#AC1F24" d="M172.339,229.601h-11.417v-21.91c-0.136-0.181-0.861-0.224-2.174-0.135
		c-1.949,0.135-2.786,0.203-2.516,0.203v-11.328c3.986-0.448,9.355-0.561,16.106-0.337V229.601z"/>
	<path fill="#AC1F24" d="M209.707,230.978h-12.011v-23.76l-21.172-0.552V195.03l32.559,0.344L209.707,230.978z M189.782,211.283
		l-1.043,19.006l-11.801-0.689l1.11-19.005L189.782,211.283z"/>
</g>
</svg>
