<?xml version="1.0" encoding="utf-8"?>
<!-- Generator: Adobe Illustrator 16.0.0, SVG Export Plug-In . SVG Version: 6.00 Build 0)  -->
<!DOCTYPE svg PUBLIC "-//W3C//DTD SVG 1.1//EN" "http://www.w3.org/Graphics/SVG/1.1/DTD/svg11.dtd">
<svg version="1.1" id="Layer_1" xmlns="http://www.w3.org/2000/svg" xmlns:xlink="http://www.w3.org/1999/xlink" x="0px" y="0px"
	 width="320px" height="568px" viewBox="0 0 320 568" enable-background="new 0 0 320 568" xml:space="preserve">
<g>
	<defs>
		<rect id="SVGID_1_" x="-136.604" y="-5.117" width="597.989" height="573.949"/>
	</defs>
	<clipPath id="SVGID_2_">
		<use xlink:href="#SVGID_1_"  overflow="visible"/>
	</clipPath>
	<g clip-path="url(#SVGID_2_)">
		<rect x="-136.604" y="-5.117" fill="#FFFFFF" width="597.989" height="573.949"/>
		<polygon fill="#E3E3E3" points="388.152,-5.117 388.152,404.183 468.113,568.832 484.558,-25.922 		"/>
		<polygon fill="#E3E3E3" points="-11.74,-7.228 -10.575,404.7 -150.808,582.464 -150.808,-25.922 		"/>
		<polygon fill="#366976" points="-150.808,582.464 -10.575,404.7 388.152,404.183 468.113,568.832 		"/>
	</g>
</g>
<g>
	<rect x="106.491" y="66.96" fill="#8CC9DB" width="90.795" height="154.733"/>
	<path fill="#FFFFFF" d="M199.761,86.436c-3.687-2.373-13.083-5.186-18.369-5.186c-11.574,0-20.955,6.893-20.955,15.396
		c0,0.267,0.009,0.53,0.027,0.794c-7.704,3.067-12.857,8.649-12.857,15.029c0,9.684,11.872,17.534,26.516,17.534
		c5.848,0,11.249-1.255,15.632-3.374c2.698,2.107,6.386,3.408,10.454,3.408L199.761,86.436z"/>
	<path fill="#5C5D61" d="M101,59v168h103V59H101z M156,67h40v45h-40V67z M109,67h39v45h-39V67z M109,120h39v44h-39V120z M150,217
		h-41v-45h41V217z M156,120h40v44h-40V120z M197,217h-40v-45h40V217z"/>
</g>
</svg>
