<?xml version="1.0" encoding="utf-8"?>
<!-- Generator: Adobe Illustrator 16.0.0, SVG Export Plug-In . SVG Version: 6.00 Build 0)  -->
<!DOCTYPE svg PUBLIC "-//W3C//DTD SVG 1.1//EN" "http://www.w3.org/Graphics/SVG/1.1/DTD/svg11.dtd">
<svg version="1.1" id="Layer_1" xmlns="http://www.w3.org/2000/svg" xmlns:xlink="http://www.w3.org/1999/xlink" x="0px" y="0px"
	 width="1024px" height="768px" viewBox="-352 -100 1024 768" enable-background="new -352 -100 1024 768" xml:space="preserve">
<rect x="-352" y="-97.157" fill="#F7FDEA" width="1024" height="596.728"/>
<g>
	<g>
		<g>
			<rect x="30.206" y="62.155" fill="#754C29" width="248.527" height="432.438"/>
			<g>
				<rect x="10.742" y="42.69" width="19.462" height="451.903"/>
				<path d="M30.729,495.114H10.223V42.17h20.506V495.114z M11.269,494.07h18.417V43.212H11.269V494.07z"/>
			</g>
			<g>
				<rect x="278.732" y="42.717" width="19.461" height="451.876"/>
				<path d="M298.717,495.114h-20.508V42.195h20.508V495.114L298.717,495.114z M279.254,494.07h18.422V43.24h-18.422V494.07
					L279.254,494.07z"/>
			</g>
			<g>
				<polygon points="10.742,42.69 30.206,62.155 278.732,62.155 298.219,42.69 				"/>
				<path d="M278.951,62.674H29.99L9.485,42.17H299.48L278.951,62.674z M30.422,61.63h248.094l18.443-18.418H12.007L30.422,61.63z"
					/>
			</g>
		</g>
		<rect x="149.533" y="116.305" fill="none" width="12.573" height="31.426"/>
		<g enable-background="new    ">
			<path d="M156.761,125.883c0,0.535-0.094,1.014-0.279,1.434c-0.188,0.422-0.448,0.776-0.788,1.066
				c-0.34,0.288-0.749,0.508-1.223,0.662c-0.479,0.151-1.008,0.229-1.591,0.229c-0.305,0-0.596-0.02-0.873-0.057
				c-0.276-0.039-0.521-0.086-0.742-0.146c-0.219-0.059-0.398-0.117-0.537-0.175c-0.143-0.058-0.234-0.109-0.277-0.146
				c-0.044-0.037-0.076-0.08-0.095-0.126c-0.024-0.046-0.037-0.101-0.052-0.165c-0.012-0.063-0.022-0.144-0.025-0.24
				c-0.005-0.097-0.008-0.212-0.008-0.344c0-0.144,0.003-0.266,0.016-0.364c0.01-0.098,0.026-0.181,0.051-0.242
				c0.022-0.061,0.048-0.105,0.08-0.13c0.031-0.025,0.065-0.039,0.107-0.039c0.05,0,0.128,0.029,0.233,0.086
				c0.104,0.06,0.243,0.124,0.413,0.195c0.17,0.074,0.379,0.138,0.626,0.198c0.244,0.059,0.536,0.086,0.879,0.086
				c0.295,0,0.565-0.031,0.807-0.09c0.242-0.06,0.449-0.161,0.616-0.296c0.169-0.134,0.298-0.304,0.389-0.51
				c0.092-0.202,0.137-0.449,0.137-0.735c0-0.244-0.037-0.463-0.113-0.655c-0.076-0.191-0.195-0.353-0.36-0.486
				c-0.164-0.132-0.373-0.232-0.636-0.298c-0.26-0.066-0.576-0.1-0.949-0.1c-0.296,0-0.565,0.016-0.807,0.046
				c-0.243,0.032-0.472,0.046-0.686,0.046c-0.145,0-0.253-0.037-0.317-0.111c-0.063-0.073-0.095-0.21-0.095-0.41v-4.302
				c0-0.205,0.039-0.351,0.119-0.439c0.078-0.089,0.203-0.134,0.38-0.134h4.689c0.047,0,0.088,0.015,0.133,0.045
				c0.037,0.029,0.071,0.078,0.101,0.146c0.028,0.066,0.048,0.155,0.064,0.266c0.01,0.109,0.019,0.24,0.019,0.394
				c0,0.305-0.027,0.528-0.08,0.665c-0.056,0.14-0.133,0.207-0.235,0.207h-3.52v2.123c0.178-0.024,0.355-0.035,0.533-0.039
				c0.175-0.004,0.361-0.008,0.554-0.008c0.535,0,1.012,0.063,1.43,0.188c0.415,0.125,0.765,0.309,1.047,0.551
				c0.283,0.243,0.499,0.543,0.648,0.904C156.686,124.99,156.761,125.408,156.761,125.883z"/>
		</g>
		<g>
			<g>
				<circle fill="#9D9FA2" cx="153.501" cy="138.373" r="2.887"/>
				<path fill="#47403D" d="M153.501,141.779c-1.877,0-3.403-1.527-3.403-3.408c0-1.879,1.526-3.407,3.403-3.407
					c1.879,0,3.409,1.526,3.409,3.407S155.38,141.779,153.501,141.779z M153.501,136.011c-1.301,0-2.359,1.061-2.359,2.363
					c0,1.302,1.057,2.364,2.359,2.364c1.304,0,2.367-1.062,2.367-2.364C155.869,137.069,154.805,136.011,153.501,136.011z"/>
			</g>
		</g>
		<g>
			<path d="M270.758,312.016c0,0.297-0.244,0.541-0.541,0.541h-17.473c-0.303,0-0.541-0.244-0.541-0.541v-40.399
				c0-0.297,0.242-0.541,0.541-0.541h17.473c0.299,0,0.541,0.244,0.541,0.541V312.016z"/>
			<path fill="#F8F088" d="M263.641,297.611c0-0.908-0.732-1.641-1.639-1.641c-0.904,0-1.639,0.732-1.639,1.641
				c0,0.518,0.246,0.581,0.621,0.884l-0.318,2.058h2.672l-0.318-2.058C263.395,298.195,263.641,298.125,263.641,297.611z"/>
			<path stroke="#3C2415" stroke-width="0.8031" stroke-miterlimit="10" d="M264.752,280.232c0-1.636-1.154-3.151-2.719-3.151
				h-8.926c-1.566,0-2.543,1.519-2.543,3.151v8.175c0,1.635,0.98,3.955,2.543,3.955h8.926c1.564,0,2.719-2.32,2.719-3.955V280.232z"
				/>
			<path fill="#3C2415" d="M256.568,281.315c0-1.335-0.428-2.597-0.898-2.597h-2.662c-0.471,0-1.898,1.259-1.898,2.597v6.69
				c0,1.335,1.432,2.719,1.898,2.719h2.662c0.471,0,0.898-1.386,0.898-2.719V281.315z"/>
		</g>
	</g>
	<g>
		<polygon fill="#F2F2F2" points="60.187,276.754 240.264,276.921 240.535,160.099 60.453,159.931 		"/>
		<polygon opacity="0.9" fill="#F9E9CE" enable-background="new    " points="180.674,277.914 182.75,277.187 175.871,276.618 
			125.506,272.458 118.625,271.89 120.344,272.928 118.323,273.388 120.013,274.558 117.918,275.376 119.618,276.507 
			117.478,277.55 119.164,278.756 117.052,279.651 118.852,280.282 123.837,280.694 174.201,284.854 181.732,285.475 
			180.168,284.54 181.34,284.355 179.52,282.969 180.914,282.284 179.949,281.49 182.041,280.675 180.344,279.541 182.447,278.684 
					"/>
		<polygon opacity="0.9" fill="#F9E9CE" enable-background="new    " points="189.143,159.477 191.223,158.753 184.344,158.185 
			133.979,154.023 127.099,153.455 128.814,154.494 126.795,154.952 128.485,156.122 126.392,156.942 128.091,158.072 
			125.95,159.116 127.631,160.321 125.522,161.214 127.325,161.845 132.308,162.257 182.67,166.419 190.207,167.038 
			188.643,166.104 189.811,165.918 187.992,164.534 189.387,163.85 188.418,163.055 190.516,162.24 188.818,161.106 190.92,160.249 
					"/>
	</g>
	<g>
		<path fill="#AD1F2D" d="M96.186,232.938h-8.498v-16.945l-14.981-0.393v-8.302l23.038,0.247L96.186,232.938z M82.09,218.889
			l-0.737,13.558l-8.352-0.49l0.785-13.559L82.09,218.889z"/>
		<path fill="#AD1F2D" d="M120.011,231.958h-7.811v-16.115c-0.558,0.066-2.128,0.051-4.717-0.047
			c-3.175-0.165-5.239-0.248-6.188-0.248c-1.507,0-2.358,0.101-2.556,0.294v-8.596l21.269,0.59c0.229,2.031,0.345,4.863,0.345,8.498
			c0,2.39-0.058,5.445-0.172,9.162C120.069,229.213,120.011,231.366,120.011,231.958z"/>
		<path fill="#AD1F2D" d="M143.145,231.958h-20.483v-8.989h11.593v-6.729h-11.985V207.3c2.424,0,5.895-0.04,10.413-0.119
			c4.521-0.083,8.008-0.123,10.463-0.123V231.958z"/>
		<path fill="#AD1F2D" d="M180.674,209.114c0,3.143-0.213,7.858-0.639,14.147c-0.426,6.059-0.639,8.856-0.639,8.4l-30.503,1.08
			c-2.23-10.885-3.343-18.727-3.343-23.535v-0.536l8.548-0.982l1.915,16.211c1.114,0,2.229,0,3.34,0v-16.553h8.598v16.16
			c-0.033,0,0.982,0,3.045,0l1.131-15.817l8.547,0.491v0.932l0,0V209.114z"/>
		<path fill="#AD1F2D" d="M206.611,232.938h-8.502v-16.945l-14.979-0.393v-8.302l23.035,0.247L206.611,232.938z M192.512,218.889
			l-0.736,13.558l-8.352-0.49l0.785-13.559L192.512,218.889z"/>
		<path fill="#AD1F2D" d="M231.416,207.542l-4.615,25.986l-8.408-1.571l3.043-15.717c-8.117,0-12.24-0.199-12.375-0.59l0.938-16.261
			l8.498,0.396l-0.395,7.757H231.416L231.416,207.542z"/>
	</g>
</g>
<rect x="-352" y="493.571" fill="#E4DBCD" width="1036.563" height="180.785"/>
</svg>
