<?xml version="1.0" encoding="utf-8"?>
<!-- Generator: Adobe Illustrator 16.0.0, SVG Export Plug-In . SVG Version: 6.00 Build 0)  -->
<!DOCTYPE svg PUBLIC "-//W3C//DTD SVG 1.1//EN" "http://www.w3.org/Graphics/SVG/1.1/DTD/svg11.dtd">
<svg version="1.1" id="Layer_1" xmlns="http://www.w3.org/2000/svg" xmlns:xlink="http://www.w3.org/1999/xlink" x="0px" y="0px"
	 width="182px" height="445.537px" viewBox="0 0 182 445.537" enable-background="new 0 0 182 445.537" xml:space="preserve">
<g>
	<path d="M157.915,428.169c-1.771-2.071-4.416-3.539-7.364-3.539c-2.359,0-4.113,0.878-5.883,2.057
		c-2.359,1.77-3.842,4.416-3.842,7.365v0.59c0,5.308,4.431,9.724,9.725,9.724c5.307,0,9.723-4.416,9.723-9.724v-0.59
		C159.986,431.692,159.094,429.636,157.915,428.169L157.915,428.169z"/>
	<g>
		<path d="M23,231.924c0-1.104-1.268-2.422-2.474-2.422H1.967c-1.206,0-1.967,1.316-1.967,2.422v8c0,1.104,0.761,1.578,1.967,1.578
			h18.56c1.206,0,2.474-0.475,2.474-1.578L23,231.924L23,231.924z"/>
		<polygon points="10,284.502 10,284.502 13,284.502 13,284.502 13,237.502 13,237.502 10,237.502 10,237.502 		"/>
		<polygon points="10,284.502 10,284.502 32,284.502 32,284.502 32,280.502 32,280.502 10,280.502 10,280.502 		"/>
	</g>
	<g>
		<path d="M159,230.924c0-1.104,0.688-2.422,1.895-2.422h18.56c1.206,0,2.547,1.316,2.547,2.422v8c0,1.104-1.341,1.578-2.547,1.578
			h-18.56c-1.207,0-1.895-0.475-1.895-1.578V230.924z"/>
		<polygon points="172,283.502 172,283.502 169,283.502 169,283.502 169,236.502 169,236.502 172,236.502 172,236.502 		"/>
		<polygon points="172,283.502 172,283.502 150,283.502 150,283.502 150,279.502 150,279.502 172,279.502 172,279.502 		"/>
	</g>
	<path fill="#FBD3C1" d="M45.773,414.361c0,7.428-4.611,12.107,9.229,11.892c13.844-0.219,10.122-4.711,10.122-12.14L45.773,414.361
		z"/>
	<path fill="#FBD3C1" d="M138.842,415.361c0,7.428,4.611,12.107-9.229,11.892c-13.844-0.219-10.122-4.711-10.122-12.14
		L138.842,415.361z"/>
	<rect x="43" y="292.502" fill="#262262" width="29" height="123"/>
	<rect x="113" y="292.502" fill="#262262" width="28" height="123"/>
	<g>
		<path id="XMLID_3_" fill="#EEC3B1" d="M66.018,39.956c0,0-5.732-2.516-7.088-1.202c-1.352,1.315-0.586,6.508,0.535,9.463
			c1.127,2.959,7.483,7.389,8.33,7.158C68.639,55.145,66.018,39.956,66.018,39.956z"/>
		<path id="XMLID_2_" fill="#EEC3B1" d="M118.174,42.227c0,0,5.732-2.514,7.088-1.202c1.35,1.317,0.586,6.509-0.535,9.464
			c-1.127,2.957-7.483,7.388-8.328,7.158C115.555,57.416,118.174,42.227,118.174,42.227z"/>
	</g>
	<g>
		<path id="XMLID_8_" fill="#FBD3C1" d="M45.782,162.166c-4.449-1.365-33.636-0.847-33.636-0.847
			c-0.836,10.679-1.371,58.941,15.834,58.941c7.049,0,65.588-20.253,79.87-25.032c14.276-4.775,6.651-10.428,6.651-10.428
			s-18.543-3.923-33.568-4.435c-15.025-0.513-31.205-2.188-33.618-2.871C44.913,176.816,45.782,162.166,45.782,162.166z"/>
		<path id="XMLID_7_" fill="#FBD3C1" d="M148.318,162.666c4.449-1.368,21.283-5.46,21.283-5.46
			c-2.437,10.8,8.771,49.735-8.431,49.735c-2.409,0-16.164-0.866-19.012-5.6c-5.479-9.115-2.084-21.153-2.084-21.153
			s1.223-5.572,4.368-6.442C146.855,173.075,148.318,162.666,148.318,162.666z"/>
		<path id="XMLID_6_" fill="#009477" d="M90.53,98.872c-1.932,1.081-60.862,7.564-68.619,11.802
			c-8.179,4.467-9.933,50.661-9.933,50.661l7.558-0.081l24.349,0.912c0.102,2.491,0.307,114.286,0.307,114.286
			s98.736,2.727,97.906-1.004c-7.297-32.747,7.215-113.199,7.215-113.193c0.002,0.001,21.471-3.7,21.471-3.7
			s0.751-46.063-7.25-49.397C155.549,105.83,90.53,98.872,90.53,98.872z"/>
	</g>
	<path fill="#EFC7B7" d="M79.125,70.66c0,0,1.008,27.993-7.773,31.758c-7.225,3.096,27.552,9.412,41.352,0
		c0,0-11.233-19.013-4.962-30.932L79.125,70.66z"/>
	<path d="M77.134,303.446c-3.538-1.18-5.899-4.43-5.899-8.256v-2.948h41.24v2.948c0,3.826-2.346,7.076-5.885,8.256
		c-0.891,0.288-1.77,0.59-2.947,0.59H80.079C78.901,304.035,78.01,303.734,77.134,303.446L77.134,303.446z"/>
	<path fill="#21409A" d="M161.893,281.333c0,7.632-5.012,13.822-11.19,13.822H32.025c-6.18,0-11.189-6.19-11.189-13.822l0,0
		c0-7.634,5.01-13.826,11.189-13.826h118.676C156.881,267.507,161.893,273.699,161.893,281.333L161.893,281.333z"/>
	<path id="XMLID_5_" fill="#EFC7B7" d="M120.604,26.639c0,0,0.42,20.256-3.36,35.834c-1.517,6.246-14.494,19.688-17.296,20.553
		c-2.801,0.866-13.336,0.521-15.417,0c-2.082-0.518-14.381-11.106-16.771-16.545c-4.884-11.094-2.939-45.03-2.818-47.973
		C65.057,15.57,80.834,7.096,83.826,6.404c2.992-0.689,19.736-0.172,19.736-0.172s12.58,7.094,14.888,9.339
		C120.762,17.818,120.604,26.639,120.604,26.639z"/>
	<path id="XMLID_4_" fill="#3C2415" d="M120.604,26.639c0,0,0.135,26.484-3.36,34.803c-1.707,4.063-16.494,19.816-16.494,19.816
		l-17.641-0.229c0,0-14.178-13.162-16.266-18.326c-3.881-9.599-2.527-41.316-1.902-44.193C66.174,12.83,80.834,7.096,83.826,6.404
		c2.992-0.689,19.736-0.172,19.736-0.172s12.58,7.094,14.888,9.339C120.762,17.818,120.604,26.639,120.604,26.639z"/>
	<path fill="#3C2415" d="M65.357,18.951C69.929,7.715,100.035,0,100.035,0c-3.338,1.519-7.957,3.059-7.957,3.059
		c13.867-2.826,21.127,2.684,21.127,2.684c-3.635-0.67-9.542-0.022-9.542-0.022c9.995,1.343,15.769,7.948,15.769,7.948
		c-2.166-1.544-8.283-1.558-8.283-1.558c16.81,4.873-20.406,17.701-20.406,17.701L65.357,18.951z"/>
	<path fill="#21409A" d="M160.924,114.201c0-8.084-5.959-14.699-13.311-14.699H35.42c-7.352,0-13.312,6.615-13.312,14.699
		c0,0,7.697,156.204,15.049,156.204c28.048,0,106.003-0.691,106.003-0.691C150.512,269.714,160.924,114.201,160.924,114.201z"/>
	<path d="M151.367,425.742c1.77,0,3.539,0.304,5.294,0.893c-5.294-13.549-19.146-24.452-50.071-27.1
		c-2.07-0.303-3.826-0.303-5.896-0.59v-103.46H83.014v103.46c-2.054,0-4.112,0.287-5.88,0.287
		c-35.947,2.647-50.087,16.196-55.681,26.813c1.178-0.304,2.056-0.304,3.233-0.304c2.95,0,5.899,0.893,8.548,2.661
		c4.716-7.077,16.209-15.317,43.899-17.39c1.768,0,3.826-0.288,5.88-0.288v17.678c2.662-1.77,5.613-2.661,8.85-2.661
		c3.236,0,6.184,0.893,8.83,2.949v-17.678c2.07,0,4.127,0.302,5.896,0.302c23.272,2.057,33.285,8.832,37.701,16.196
		C146.65,426.332,149.009,425.742,151.367,425.742L151.367,425.742z"/>
	<path d="M99.459,427.699c-1.84-2.152-4.593-3.679-7.654-3.679c-2.453,0-4.291,0.913-6.133,2.138
		c-2.453,1.84-3.977,4.592-3.977,7.656v0.613c0,5.518,4.59,10.107,10.11,10.107c5.5,0,10.105-4.591,10.105-10.107v-0.613
		C101.911,431.363,100.984,429.226,99.459,427.699L99.459,427.699z"/>
	<path d="M162.08,428.299c-1.77-2.071-4.416-3.539-7.365-3.539c-2.359,0-4.113,0.878-5.883,2.057
		c-2.359,1.771-3.841,4.416-3.841,7.365v0.59c0,5.308,4.431,9.724,9.724,9.724c5.309,0,9.725-4.416,9.725-9.724v-0.59
		C164.15,431.822,163.259,429.766,162.08,428.299L162.08,428.299z"/>
	<path d="M34.264,428.69c-1.768-2.071-4.416-3.539-7.365-3.539c-2.356,0-4.127,0.878-5.895,2.057
		c-2.361,1.771-3.826,4.416-3.826,7.365v0.59c0,5.309,4.416,9.725,9.721,9.725c5.311,0,9.727-4.416,9.727-9.725v-0.59
		C36.322,432.214,35.445,430.156,34.264,428.69L34.264,428.69z"/>
	<path d="M30.359,429.342c-1.768-2.071-4.416-3.539-7.365-3.539c-2.356,0-4.127,0.878-5.895,2.057
		c-2.361,1.771-3.826,4.416-3.826,7.365v0.59c0,5.308,4.416,9.724,9.721,9.724c5.311,0,9.727-4.416,9.727-9.724v-0.59
		C32.418,432.865,31.541,430.809,30.359,429.342L30.359,429.342z"/>
</g>
<g display="none">
	<g display="inline">
		<g>
			<path id="XMLID_10_" fill="#D9B1A5" d="M67.432,43.855c0,0-5.206-2.461-6.438-1.176c-1.226,1.288-0.532,6.368,0.487,9.261
				c1.023,2.895,6.795,7.23,7.563,7.004C69.809,58.718,67.432,43.855,67.432,43.855z"/>
			<path id="XMLID_1_" fill="#D9B1A5" d="M117.021,46.488c0,0,5.205-2.459,6.435-1.175c1.227,1.288,0.533,6.368-0.484,9.26
				c-1.024,2.894-6.796,7.228-7.563,7.005C114.644,61.351,117.021,46.488,117.021,46.488z"/>
		</g>
		<path d="M35.92,439.225L35.92,439.225c0-10.057,6.028-18.208,13.463-18.208h12.343c7.435,0,13.461,8.151,13.461,18.208l0,0H35.92z
			"/>
		<path d="M116.687,440.841L116.687,440.841c0-10.057,6.027-18.209,13.462-18.209h12.343c7.434,0,13.461,8.152,13.461,18.209l0,0
			H116.687z"/>
		<g>
			<path fill="#8FB3BC" d="M153.805,320.99C153.975,316.513,130.985,216,130.985,216c-3.907-9.22-78.96-7.502-82.867,1.718
				c0,0-9.391,98.795-9.223,103.272c-0.005,0.216-0.021,0.423-0.021,0.641v-0.056V367.1v59.428h33.499V367.1v-45.524v3.043
				l24.085-42.78l23.872,42.78v-3.043V367.1l-0.002,62.45h33.5l0.001-62.45v-45.524v0.056
				C153.828,321.412,153.81,321.205,153.805,320.99z"/>
		</g>
		<path fill="#D9B1A5" d="M75.768,69.817c0,0,4.389,25.168-3.29,28.852c-6.317,3.028,25.779,10.437,37.842,1.228
			c0,0-8.772-16.573-3.287-28.236L75.768,69.817z"/>
		<g>
			<path id="XMLID_14_" fill="#EAC9BC" d="M58.551,155.856c-3.962-1.311-29.96-0.813-29.96-0.813
				c-0.746,10.253-1.287,70.117,11.027,70.117c6.28,0,61.5-32.973,74.221-37.563c12.718-4.584,5.924-10.01,5.924-10.01
				s-16.517-3.766-29.9-4.256c-13.383-0.492-27.795-2.102-29.944-2.757C57.778,169.922,58.551,155.856,58.551,155.856z"/>
			<path id="XMLID_13_" fill="#EAC9BC" d="M132.353,157.117c3.965-1.314,26.786-5.24,26.786-5.24
				c-2.169,10.368-7.694,70.015-23.018,70.015c-2.147,0-6.717-23.102-9.254-27.644c-4.882-8.753-1.855-20.309-1.855-20.309
				s1.088-5.352,3.891-6.185C131.051,167.11,132.353,157.117,132.353,157.117z"/>
			<path fill="#E9E7E9" d="M74.405,95.942c0,0,16.582,10.708,35.115-2.102c0,0,13.65,6.248,21.698,7.721
				c8.052,1.471,15.075-2.951,23.28,19.315c8.201,22.262,7.791,34.79,7.791,34.79s-13.923,12.364-28.2,10.397
				c0,0,3.169,42.201,4.082,50.39c0.913,8.183,0.74,25.588,1.484,35.988c0.653,9.146,3.241,14.426,3.544,17.373
				c0,0-41.977,39.635-101.006,4.322c-1.474-2.527,6.56-111.672,6.56-111.672s-14.1,5.197-27.457-9.597
				c0,0,8.161-27.994,14.632-39.94c0,0,3.645-8.186,15.19-7.53C62.661,106.051,74.405,95.942,74.405,95.942z"/>
		</g>
		<path id="XMLID_12_" fill="#D9B1A5" d="M117.771,32.252c0,0,0.911,20.958-2.686,37.087c-0.769,3.439-13.527,17.247-16.068,18.093
			c-2.545,0.847-12.111,0.509-14.001,0c-1.889-0.507-13.711-10.419-15.881-15.741c-4.436-10.855-2.015-44.516-1.905-47.395
			c0.106-2.875,14.433-11.168,17.15-11.844c2.715-0.677,17.919-0.169,17.919-0.169s11.421,6.942,13.517,9.139
			C117.912,23.622,117.771,32.252,117.771,32.252z"/>
		<path id="XMLID_11_" fill="#603913" d="M117.771,32.252c0,0,1.394,21.109-4.781,34.758c-2.01,4.441-10.495,13.477-10.495,13.477
			l-22.212-0.094c0,0-8.468-11.209-9.532-13.1c-5.7-10.145-3.631-40.117-3.521-42.995c0.105-2.875,14.433-11.168,17.149-11.844
			c2.715-0.677,17.919-0.169,17.919-0.169s11.422,6.942,13.517,9.139C117.912,23.622,117.771,32.252,117.771,32.252z"/>
		<path fill="#603913" d="M68.63,40.749c0,0,37.101,1.284,47.506,0l1.664-11.346c0-6.221-2.701-18.696-5.664-20.583
			c-3.55-2.262-9.062-3.757-13.061-5.14c-2.896-1.002-2.182-0.942-2.144,2.269c-2.473-2.931-4.904-1.989-7.446-3.805
			c0.191,0.723,0.137,2.25,0.493,2.902c-2.591-0.811-5.473-2.042-7.695-3.453c0.341,1.068,1.083,2.32,1.053,3.425
			c-2.079-1.337-3.89-2.897-5.664-4.601c0.021,1.46,0.813,5.993-0.15,6.773L76.417,3.55c0,0-0.948,0.957-2.053,4.575
			c-1.107,3.619-0.948-2.906-0.948-2.906S63.474,15.123,68.63,40.749z"/>
	</g>
	<g display="inline">
		<rect x="86.181" y="321.369" width="12.292" height="90.698"/>
		<rect x="81.454" y="250.032" width="24.584" height="55.031"/>
		<path d="M144.358,427.73c1.575,0,3.148,0.232,4.709,0.687c-4.709-10.438-17.033-18.837-44.546-20.876
			c-1.843-0.233-3.404-0.233-5.247-0.454H83.546c-1.828,0-3.658,0.222-5.231,0.222c-31.981,2.039-44.561,12.478-49.536,20.656
			c1.046-0.232,1.829-0.232,2.875-0.232c2.625,0,5.249,0.687,7.605,2.051c4.195-5.452,14.42-11.802,39.056-13.396
			c1.573,0,5.371-0.227,7.198-0.227l0.138,15.835c2.369-1.364,3.255-2.618,6.134-2.618c2.88,0,3.549,0.034,5.903,1.62l-0.038-14.731
			c1.842,0,5.296,0.353,6.871,0.353c20.706,1.586,29.613,6.805,33.541,12.478C140.162,428.184,142.26,427.73,144.358,427.73
			L144.358,427.73z"/>
		<path d="M38.781,430.003c-1.573-1.985-3.928-3.393-6.552-3.393c-2.097,0-3.673,0.84-5.245,1.972
			c-2.102,1.696-3.405,4.236-3.405,7.063v0.566c0,5.088,3.929,9.323,8.649,9.323c4.724,0,8.651-4.235,8.651-9.323v-0.566
			C40.613,433.382,39.832,431.411,38.781,430.003L38.781,430.003z"/>
		<path d="M98.028,431.623c-1.409-1.78-3.52-3.04-5.87-3.04c-1.878,0-3.289,0.754-4.697,1.766c-1.882,1.52-3.05,3.794-3.05,6.326
			v0.507c0,4.559,3.52,8.353,7.747,8.353c4.231,0,7.75-3.795,7.75-8.353v-0.507C99.67,434.649,98.968,432.883,98.028,431.623
			L98.028,431.623z"/>
		<path d="M150.642,430.063c-1.572-1.985-3.927-3.393-6.552-3.393c-2.098,0-3.673,0.842-5.246,1.971
			c-2.1,1.698-3.403,4.234-3.403,7.064v0.565c0,5.089,3.928,9.323,8.648,9.323c4.724,0,8.651-4.234,8.651-9.323v-0.565
			C152.473,433.441,151.692,431.469,150.642,430.063L150.642,430.063z"/>
		<path fill="#BE1E2D" d="M162.51,205.311c0,49.177-36.865,45.742-42.706,45.742H62.865c-23.584,0-42.704-20.321-42.704-45.742
			c0,0,12.737-83.181,39.162-113.046c10.516-11.886,51.756-14.014,62.952-2.875C149.33,116.307,162.51,205.311,162.51,205.311z"/>
		<g>
			<path d="M187.354,241.907c0-1.59-1.47-4.103-2.941-4.103h-18.686c-1.475,0-2.012,2.514-2.012,4.103v18.218
				c0,1.59,0.537,3.156,2.012,3.156h18.686c1.472,0,2.941-1.566,2.941-3.156V241.907z"/>
			<rect x="171.28" y="263.281" width="9.455" height="42.802"/>
			<rect x="144.805" y="298.949" width="34.985" height="8.152"/>
		</g>
		<g>
			<path d="M19.993,258.366c0,1.59-1.195,2.877-2.668,2.877H-0.978c-1.474,0-2.668-1.288-2.668-2.877v-17.686
				c0-1.589,1.195-2.877,2.668-2.877h18.302c1.474,0,2.668,1.289,2.668,2.877L19.993,258.366L19.993,258.366z"/>
			<rect x="3.919" y="259.204" width="8.51" height="42.802"/>
			<rect x="4.864" y="294.873" width="34.04" height="8.151"/>
		</g>
		<path fill="#BE1E2D" d="M159.83,304.554c0,9.85-6.51,17.834-14.539,17.834H36.93c-8.029,0-14.538-7.984-14.538-17.834l0,0
			c0-9.849,6.509-17.834,14.538-17.834h108.361C153.32,286.72,159.83,294.705,159.83,304.554L159.83,304.554z"/>
	</g>
</g>
</svg>
