<?xml version="1.0" encoding="utf-8"?>
<!-- Generator: Adobe Illustrator 16.0.0, SVG Export Plug-In . SVG Version: 6.00 Build 0)  -->
<!DOCTYPE svg PUBLIC "-//W3C//DTD SVG 1.1//EN" "http://www.w3.org/Graphics/SVG/1.1/DTD/svg11.dtd">
<svg version="1.1" id="Layer_1" xmlns="http://www.w3.org/2000/svg" xmlns:xlink="http://www.w3.org/1999/xlink" x="0px" y="0px"
	 width="430.978px" height="659.589px" viewBox="-121.869 37.569 430.978 659.589"
	 enable-background="new -121.869 37.569 430.978 659.589" xml:space="preserve">
<g display="none">
	<path display="inline" fill="#FCC19C" d="M177.245,370.088c0,0,1.779,18.144,4.414,24.05c2.638,5.908-9.25,24.378-19.479,26.455
		c-5.619,1.139-2.278-28.118-2.278-28.118l2.85-26.813L177.245,370.088z"/>
	<path display="inline" fill="#FCC19C" d="M177.245,370.088c0,0,1.779,18.144,4.414,24.05c2.638,5.908-9.25,24.378-19.479,26.455
		c-5.619,1.139-2.278-28.118-2.278-28.118l2.85-26.813L177.245,370.088z"/>
	<path display="inline" fill="#FCC19C" d="M37.628,365.662l2.851,26.813c0,0,3.342,29.257-2.278,28.118
		c-10.227-2.076-22.117-20.547-19.477-26.455c2.635-5.906,4.414-24.05,4.414-24.05L37.628,365.662z"/>
	<path display="inline" fill="#FCC19C" d="M42.338,435.802c0,0,3.5,32.91,9.948,50.683c6.445,17.773-1.125,33.336-1.326,54.989
		c-0.198,21.657,4.26,52.15,8.073,68.917c3.813,16.766-1.034,24.569-0.297,30.479c0.744,5.913-4.271,31.455-1.522,48.215
		c0,0,11.297,8.944,18.695,9.988c7.396,1.045,15.948-7.747,19.173-12.64c3.224-4.896-5.137-37.457-7.605-45.352
		c-2.465-7.896-4.423-24.648-3.292-32.515c1.135-7.866,6.812-68.607,4.463-89.3c-2.348-20.691,10.377-59.372,10.72-82.994"/>
	<path display="inline" fill="#FCC19C" d="M56.359,596.885c1.283-0.598,2.788-0.787,4.395-0.331
		c4.357,1.243,8.768,2.035,13.236,0.755c4.587-1.314,7.92-4.054,11.986-6.236c1.932-21.779,4.351-57.015,2.673-71.802
		c-2.347-20.691,10.377-59.372,10.72-82.994l-57.031-0.476c0,0,3.5,32.91,9.948,50.683c6.445,17.773-1.125,33.336-1.326,54.989
		C50.805,558.139,53.411,580.034,56.359,596.885z"/>
	<path display="inline" d="M92.475,660.517c-0.255,1.039-0.522,2.068-0.817,3.065c-1.828,6.25-5.069,12.956-12.417,14.759
		c-9.021,2.208-17.106-5.238-19.936-12.461c-0.94-2.405-1.54-4.885-1.863-7.392c-0.919,9.744-1.722,21.469-0.229,30.591
		c0,0,11.296,8.947,18.695,9.991c7.396,1.043,15.948-7.747,19.173-12.641C96.933,683.618,94.96,671.671,92.475,660.517z"/>
	<path display="inline" fill="#FCC19C" d="M158.627,435.802c0,0-3.5,32.91-9.945,50.683c-6.443,17.773,1.118,33.336,1.323,54.989
		c0.202,21.657-4.256,52.15-8.07,68.917c-3.813,16.766,1.035,24.569,0.294,30.479c-0.738,5.913,4.271,31.455,1.521,48.215
		c0,0-11.293,8.944-18.69,9.988c-7.396,1.045-15.949-7.747-19.173-12.64c-3.224-4.896,5.136-37.457,7.605-45.352
		c2.465-7.896,4.423-24.648,3.29-32.515c-1.134-7.866-6.805-68.607-4.462-89.3c2.345-20.691-10.374-59.372-10.721-82.994"/>
	<path display="inline" d="M108.487,660.517c0.258,1.039,0.523,2.068,0.819,3.065c1.826,6.25,5.068,12.956,12.416,14.759
		c9.021,2.208,17.105-5.238,19.938-12.461c0.938-2.405,1.539-4.885,1.856-7.392c0.925,9.744,1.729,21.469,0.23,30.591
		c0,0-11.294,8.947-18.69,9.991c-7.396,1.043-15.95-7.747-19.175-12.641C104.029,683.618,106.004,671.671,108.487,660.517z"/>
	<path display="inline" fill="#251619" d="M42.74,358.978c0,0-5.972,56.612-1.087,102.695c4.884,46.086,9.307,115.031,9.307,115.031
		s56.167,23.596,99.045-3.177l6.721-107.03c0,0,16.827-81.188-2.714-99.185L42.74,358.978z"/>
	<path display="inline" fill="#F15A29" d="M72.974,193.181c0,0-45.929,9.387-49.492,20.628
		c-5.867,18.498-6.829,126.639-5.366,183.859l18.671-20.701c0,0,19.003,6.855,66.464,6.855c47.46,0,55.563-4.748,57.236-6.855
		l21.544,18.846c0,0,3.86-65.344-8.915-149.667c-4.93-32.531-7.887-40.89-12.769-43.483c-4.885-2.595-35.174-6.919-35.174-6.919
		L72.974,193.181z"/>
	<path display="inline" fill="#FCC19C" d="M77.234,159.365c0,0,7.218,26.351-8.399,34.652l27.011,62.185l23.676-61.809
		c0,0-11.639-1.932-8.995-37.515L77.234,159.365z"/>
	<path display="inline" opacity="0.4" fill="#F8A27F" enable-background="new    " d="M78.471,178.646
		c0.544,0.189,1.069,0.455,1.559,0.807c10.027,7.243,20.754,3.145,30.745-2.039c-0.683-5.142-0.897-11.825-0.251-20.535
		l-33.292,2.486C77.234,159.365,79.903,169.132,78.471,178.646z"/>
	<path display="inline" fill="#FCC19C" d="M144.302,95.13c-0.635-4.619-1.799-9.943-4.377-18.958c0,0-33.181-13.589-45.012-13.581
		C83.152,62.602,50.18,76.173,50.18,76.173c-2.576,9.015-3.74,14.336-4.374,18.958c-1.232,8.511-2.209,35.182,4.721,47.624
		c5.783,10.377,31.168,37.596,44.392,36.611c0.046-0.004,0.094,0.078,0.138,0.074c0.047,0.004,0.096,0.061,0.14,0.063
		c13.225,0.984,39.81-25.888,44.387-36.771C145.26,129.228,145.536,103.639,144.302,95.13z"/>
	<g display="inline">
		<path fill="#FFFFFF" d="M104.333,123.268c0,0,6.205-16.438,24.365-1.444c0,0-4.789,5.489-12.859,5.147
			C112.635,126.834,108.008,126.16,104.333,123.268z"/>
		<path fill="#36469D" d="M122.043,122.728c-0.401,2.634-3.021,4.464-5.854,4.09c-2.832-0.375-4.805-2.813-4.4-5.445
			c0.408-2.632,3.026-4.463,5.858-4.091C120.476,117.656,122.449,120.095,122.043,122.728z"/>
		<path fill="#251619" d="M119.028,122.329c-0.167,1.083-1.244,1.836-2.406,1.68c-1.167-0.151-1.977-1.154-1.811-2.235
			c0.166-1.083,1.246-1.838,2.405-1.682C118.382,120.243,119.193,121.245,119.028,122.329z"/>
		<path fill="#FFFFFF" d="M116.033,121.257c-0.111,0.718-0.824,1.219-1.596,1.114c-0.771-0.101-1.307-0.766-1.198-1.483
			c0.111-0.718,0.825-1.216,1.597-1.113C115.605,119.877,116.144,120.54,116.033,121.257z"/>
		<g>
			<path fill="#251619" d="M104.333,123.268c0,0,0.131-0.455,0.503-1.194c0.193-0.361,0.421-0.813,0.751-1.287
				c0.326-0.475,0.701-1.018,1.185-1.553c0.946-1.08,2.244-2.223,3.895-3.108c1.641-0.893,3.646-1.473,5.682-1.539l0.379-0.015
				l0.379,0.004c0.22-0.001,0.453,0.005,0.728,0.032c0.536,0.039,1.01,0.098,1.501,0.185c0.971,0.18,1.901,0.452,2.763,0.797
				c1.726,0.692,3.153,1.662,4.231,2.617c1.08,0.961,1.822,1.9,2.278,2.594c0.464,0.691,0.644,1.137,0.644,1.137
				s-0.403-0.229-1.11-0.633c-0.705-0.382-1.697-0.913-2.896-1.441c-1.194-0.534-2.59-1.068-4.092-1.451
				c-0.751-0.191-1.526-0.35-2.318-0.449c-0.389-0.055-0.811-0.099-1.176-0.114l-0.627-0.028l-0.3-0.011l-0.298,0.005
				c-1.593,0.015-3.168,0.335-4.62,0.848s-2.771,1.221-3.877,1.918c-0.548,0.354-1.063,0.684-1.496,1.009
				c-0.432,0.33-0.827,0.61-1.13,0.864C104.684,122.954,104.333,123.268,104.333,123.268z"/>
		</g>
	</g>
	<g display="inline">
		<path fill="#FFFFFF" d="M84.548,123.268c0,0-6.207-16.438-24.367-1.444c0,0,4.787,5.489,12.858,5.147
			C76.246,126.834,80.869,126.16,84.548,123.268z"/>
		<path fill="#36469D" d="M66.838,122.728c0.399,2.634,3.021,4.464,5.854,4.09c2.828-0.375,4.797-2.813,4.396-5.445
			c-0.404-2.632-3.027-4.463-5.855-4.091C68.401,117.656,66.431,120.095,66.838,122.728z"/>
		<path fill="#251619" d="M69.853,122.329c0.163,1.083,1.241,1.836,2.409,1.68c1.165-0.151,1.971-1.154,1.806-2.235
			c-0.168-1.083-1.246-1.838-2.406-1.682C70.5,120.243,69.686,121.245,69.853,122.329z"/>
		<path fill="#FFFFFF" d="M72.845,121.257c0.108,0.718,0.826,1.219,1.596,1.114c0.771-0.101,1.307-0.766,1.196-1.483
			c-0.106-0.718-0.825-1.216-1.596-1.113C73.272,119.877,72.735,120.54,72.845,121.257z"/>
		<g>
			<path fill="#251619" d="M84.548,123.268c0,0-0.345-0.324-0.963-0.831c-0.298-0.259-0.691-0.545-1.12-0.879
				c-0.429-0.332-0.942-0.663-1.487-1.02c-1.102-0.7-2.421-1.401-3.877-1.903c-0.728-0.253-1.485-0.456-2.268-0.595
				c-0.777-0.146-1.578-0.208-2.38-0.225l-0.3-0.005l-0.299,0.01l-0.633,0.028c-0.371,0.016-0.788,0.059-1.182,0.109
				c-0.796,0.098-1.576,0.25-2.328,0.438c-1.505,0.375-2.9,0.904-4.093,1.438c-1.196,0.531-2.186,1.067-2.888,1.457
				c-0.693,0.396-1.104,0.647-1.104,0.647s0.174-0.451,0.631-1.146c0.452-0.701,1.191-1.646,2.274-2.613
				c1.081-0.959,2.519-1.927,4.251-2.61c0.865-0.342,1.8-0.61,2.769-0.782c0.492-0.086,0.971-0.141,1.5-0.179
				c0.275-0.026,0.503-0.031,0.727-0.03l0.378-0.004l0.38,0.014c2.026,0.063,4.039,0.617,5.69,1.504
				c1.663,0.875,2.972,2.021,3.919,3.107c0.481,0.538,0.854,1.087,1.178,1.564c0.326,0.478,0.551,0.935,0.737,1.301
				C84.427,122.809,84.548,123.268,84.548,123.268z"/>
		</g>
	</g>
	<g display="inline">
		<path fill="#AA6A41" d="M55.206,114.265c0,0,0.021-0.114,0.093-0.359c0.07-0.231,0.179-0.562,0.352-0.974
			c0.358-0.814,0.979-1.957,2.03-3.166c0.534-0.594,1.179-1.188,1.919-1.77c0.751-0.562,1.594-1.107,2.527-1.581
			c0.93-0.464,1.944-0.894,3.009-1.181c1.057-0.352,2.161-0.532,3.271-0.725l1.669-0.172l0.416-0.041l0.48-0.015l0.763-0.021
			c1.007-0.036,1.984-0.058,3.08,0.036c1.075,0.047,2.085,0.158,2.997,0.307c0.935,0.108,1.8,0.303,2.598,0.481
			c1.6,0.349,2.891,0.797,3.793,1.128c0.453,0.156,0.816,0.319,1.054,0.423c0.268,0.123,0.414,0.186,0.414,0.186
			c1.244,0.566,1.764,1.962,1.154,3.123c-0.556,1.062-1.864,1.555-3.038,1.195l-0.204-0.062c0,0-0.419-0.129-1.158-0.352
			c-0.784-0.227-1.925-0.554-3.315-0.882c-0.691-0.186-1.447-0.348-2.254-0.507c-0.4-0.082-0.811-0.167-1.232-0.255
			c-0.41-0.063-0.827-0.133-1.251-0.202c-0.806-0.172-1.815-0.249-2.827-0.355l-0.757-0.08l-0.188-0.021l-0.099-0.01l-0.021-0.059
			c-0.023,0,0.166-0.054,0.08-0.054h-0.011h-0.045l-0.346,0.045l-1.404-0.02c-0.921,0.047-1.872,0.038-2.761,0.2
			c-0.912,0.099-1.771,0.323-2.612,0.543c-0.833,0.237-1.604,0.552-2.325,0.894c-0.706,0.358-1.346,0.761-1.913,1.166
			c-1.146,0.807-1.956,1.676-2.461,2.316c-0.259,0.321-0.445,0.585-0.563,0.767c-0.111,0.172-0.174,0.279-0.174,0.279
			c-0.098,0.181-0.335,0.255-0.532,0.161C55.254,114.588,55.175,114.421,55.206,114.265z"/>
		<path fill="#AA6A41" d="M131.933,114.503c0,0-0.061-0.108-0.172-0.28c-0.118-0.18-0.31-0.443-0.566-0.765
			c-0.503-0.644-1.316-1.512-2.462-2.316c-0.568-0.406-1.204-0.805-1.913-1.162c-0.718-0.344-1.492-0.654-2.325-0.894
			c-0.84-0.22-1.701-0.437-2.613-0.536c-0.891-0.159-1.841-0.14-2.761-0.184l-1.401-0.012l-0.348-0.044h-0.043h-0.013
			c0.038,0-0.099,0.058,0.08,0.055l-0.021,0.029l-0.097,0.021l-0.189,0.028l-0.758,0.082c-1.01,0.107-2.021,0.186-2.826,0.361
			c-0.424,0.066-0.841,0.136-1.25,0.2c-0.419,0.087-0.832,0.174-1.233,0.257c-0.806,0.16-1.563,0.32-2.253,0.505
			c-1.392,0.33-2.53,0.654-3.316,0.882c-0.735,0.225-1.158,0.354-1.158,0.354l-0.202,0.061c-1.317,0.402-2.736-0.266-3.168-1.491
			c-0.396-1.122,0.176-2.321,1.285-2.826c0,0,0.143-0.063,0.412-0.186c0.239-0.103,0.603-0.267,1.053-0.423
			c0.902-0.333,2.195-0.779,3.793-1.129c0.799-0.179,1.663-0.37,2.6-0.481c0.911-0.148,1.925-0.259,2.997-0.306
			c1.095-0.095,2.074-0.073,3.082-0.037l0.761,0.021l0.48,0.016l0.417,0.041l1.666,0.171c1.109,0.192,2.216,0.374,3.272,0.725
			c1.064,0.287,2.077,0.717,3.009,1.183c0.935,0.472,1.778,1.019,2.529,1.581c0.739,0.578,1.383,1.175,1.919,1.767
			c1.049,1.208,1.67,2.352,2.029,3.166c0.174,0.414,0.283,0.743,0.351,0.974c0.072,0.246,0.096,0.359,0.096,0.359
			c0.044,0.197-0.099,0.393-0.311,0.432C132.187,114.731,132.014,114.644,131.933,114.503z"/>
	</g>
	<g display="inline">
		<g>
			<path fill="#F8A27F" d="M87.662,137.198c-0.403,0.647-0.85,1.256-1.104,1.911c-0.256,0.652-0.333,1.32-0.204,1.977
				c0.013,0.147,0.079,0.362,0.097,0.455c0.061,0.163,0.122,0.392,0.191,0.471c0.122,0.219,0.308,0.464,0.541,0.616
				c0.233,0.164,0.515,0.277,0.82,0.346c0.151,0.038,0.311,0.064,0.47,0.083c0.153,0.016,0.335,0.02,0.456,0.013l-0.091,0.018
				c0.091-0.023,0.168-0.055,0.246-0.097c0.039-0.021,0.076-0.045,0.136-0.084c0.069-0.031,0.113-0.114,0.409-0.178
				c0.35-0.042,0.558,0.16,0.624,0.225c0.083,0.086,0.136,0.156,0.184,0.221c0.032,0.048,0.112,0.171,0.098,0.147
				c0.038,0.044,0.095,0.127,0.112,0.132c0.079,0.084,0.321,0.252,0.521,0.365c0.212,0.127,0.446,0.235,0.684,0.337
				c0.959,0.415,1.984,0.722,3.063,0.936c-0.543,0.101-1.104,0.122-1.66,0.089c-0.558-0.031-1.112-0.117-1.665-0.259
				c-0.273-0.075-0.549-0.159-0.822-0.272c-0.288-0.12-0.523-0.222-0.851-0.5c-0.093-0.078-0.108-0.11-0.166-0.165l-0.143-0.178
				c-0.035-0.042-0.069-0.076-0.085-0.087c-0.027-0.023,0.058,0.089,0.266,0.068c0.161-0.041,0.099-0.033,0.058,0.01
				c-0.057,0.038-0.132,0.094-0.208,0.139c-0.158,0.095-0.333,0.167-0.501,0.218l-0.043,0.014l-0.05,0.004
				c-0.251,0.021-0.443,0.021-0.661,0.005c-0.215-0.017-0.426-0.045-0.641-0.093c-0.42-0.104-0.843-0.282-1.214-0.56
				c-0.188-0.139-0.353-0.304-0.504-0.485c-0.139-0.188-0.262-0.378-0.355-0.616c-0.116-0.251-0.127-0.396-0.185-0.586
				c-0.046-0.273-0.078-0.425-0.088-0.651c-0.026-0.415,0.018-0.84,0.12-1.245c0.099-0.408,0.285-0.784,0.5-1.123
				C86.462,138.143,87.055,137.65,87.662,137.198z"/>
		</g>
		<g>
			<path fill="#F8A27F" d="M102.168,137.198c0.608,0.453,1.202,0.946,1.646,1.624c0.216,0.338,0.4,0.716,0.501,1.122
				c0.101,0.405,0.144,0.83,0.119,1.246c-0.013,0.225-0.044,0.375-0.09,0.649c-0.058,0.191-0.065,0.336-0.184,0.587
				c-0.094,0.238-0.218,0.429-0.354,0.616c-0.151,0.181-0.317,0.346-0.504,0.484c-0.372,0.277-0.796,0.456-1.219,0.56
				c-0.212,0.047-0.425,0.077-0.639,0.093c-0.22,0.016-0.411,0.019-0.662-0.006l-0.048-0.004l-0.043-0.014
				c-0.171-0.051-0.346-0.122-0.503-0.218c-0.079-0.045-0.153-0.099-0.207-0.139c-0.041-0.042-0.104-0.049,0.058-0.009
				c0.21,0.021,0.292-0.093,0.263-0.066c-0.015,0.011-0.049,0.044-0.083,0.087l-0.145,0.177c-0.055,0.054-0.073,0.086-0.166,0.165
				c-0.325,0.278-0.561,0.381-0.848,0.5c-0.274,0.114-0.549,0.199-0.823,0.272c-0.553,0.14-1.107,0.228-1.665,0.259
				c-0.557,0.031-1.117,0.013-1.66-0.09c1.078-0.216,2.104-0.523,3.063-0.936c0.236-0.101,0.472-0.212,0.686-0.336
				c0.201-0.113,0.443-0.281,0.521-0.366c0.017-0.002,0.073-0.087,0.111-0.131l0.099-0.148c0.048-0.065,0.101-0.137,0.183-0.22
				c0.067-0.065,0.273-0.266,0.618-0.227c0.298,0.062,0.344,0.146,0.416,0.178c0.057,0.04,0.095,0.063,0.134,0.086
				c0.077,0.042,0.155,0.07,0.245,0.097l-0.091-0.017c0.122,0.006,0.306,0.003,0.458-0.014c0.161-0.019,0.317-0.044,0.471-0.082
				c0.303-0.069,0.585-0.182,0.818-0.346c0.232-0.151,0.42-0.398,0.543-0.617c0.067-0.078,0.128-0.306,0.189-0.47
				c0.017-0.095,0.083-0.307,0.096-0.456c0.132-0.654,0.054-1.323-0.204-1.976C103.019,138.455,102.571,137.844,102.168,137.198z"/>
		</g>
	</g>
	<g display="inline">
		<path fill="#EF4136" d="M35.77,375.926c0.001,0,0.233-0.438,0.574-1.17c0.36-0.722,0.852-1.891,1.487-3.354
			c0.574-1.501,1.349-3.293,2.05-5.433c0.357-1.065,0.783-2.188,1.149-3.396c0.363-1.211,0.745-2.483,1.145-3.814
			c0.43-1.323,0.726-2.742,1.109-4.189c0.346-1.458,0.797-2.945,1.079-4.518c0.317-1.563,0.645-3.172,0.977-4.813
			c0.183-0.818,0.323-1.655,0.44-2.504c0.128-0.847,0.257-1.702,0.388-2.563c0.132-0.861,0.264-1.73,0.396-2.607
			c0.139-0.875,0.273-1.759,0.344-2.653c0.176-1.789,0.354-3.598,0.534-5.423c0.08-0.913,0.204-1.827,0.249-2.748
			c0.04-0.924,0.08-1.849,0.121-2.776c0.081-1.855,0.161-3.721,0.242-5.583c0.042-3.73-0.08-7.465-0.109-11.145
			c-0.271-3.672-0.537-7.286-0.796-10.781c-0.468-3.479-0.92-6.842-1.348-10.031c-0.122-0.795-0.188-1.59-0.351-2.354
			c-0.154-0.769-0.306-1.521-0.455-2.266c-0.296-1.485-0.585-2.922-0.862-4.3c-0.575-2.751-0.989-5.307-1.653-7.497
			c-0.593-2.209-1.11-4.134-1.536-5.722c-0.854-3.176-1.34-4.99-1.34-4.99s0.558,1.794,1.536,4.932
			c0.487,1.571,1.083,3.479,1.762,5.669c0.752,2.171,1.268,4.708,1.956,7.446c0.332,1.372,0.679,2.802,1.037,4.281
			c0.18,0.741,0.36,1.493,0.547,2.259c0.192,0.765,0.291,1.558,0.444,2.353c0.558,3.189,1.146,6.557,1.757,10.039
			c0.398,3.517,0.811,7.15,1.23,10.844c0.179,3.712,0.45,7.486,0.557,11.268c-0.008,1.892-0.017,3.782-0.021,5.67
			c-0.003,0.941-0.007,1.883-0.011,2.822c-0.008,0.939-0.097,1.873-0.142,2.803c-0.107,1.862-0.217,3.71-0.325,5.536
			c-0.035,0.916-0.139,1.817-0.244,2.715c-0.101,0.896-0.199,1.789-0.299,2.672c-0.099,0.885-0.195,1.76-0.293,2.63
			c-0.086,0.87-0.196,1.729-0.349,2.573c-0.274,1.692-0.542,3.349-0.805,4.962c-0.227,1.619-0.625,3.162-0.923,4.673
			c-0.335,1.503-0.583,2.972-0.97,4.349c-0.356,1.387-0.698,2.711-1.023,3.975c-0.328,1.263-0.722,2.439-1.047,3.559
			c-0.642,2.239-1.374,4.149-1.914,5.74c-0.611,1.577-1.074,2.809-1.466,3.681c-0.37,0.88-0.566,1.279-0.566,1.279L35.77,375.926z"
			/>
	</g>
	<g display="inline">
		<path fill="#EF4136" d="M157.369,378.899c0,0-0.161-0.405-0.46-1.277c-0.317-0.867-0.688-2.077-1.177-3.645
			c-0.44-1.565-1.009-3.461-1.524-5.657c-0.579-2.184-1.068-4.677-1.656-7.382c-0.244-1.362-0.496-2.78-0.763-4.249
			c-0.13-0.731-0.261-1.479-0.396-2.235c-0.107-0.762-0.218-1.533-0.328-2.317c-0.219-1.564-0.443-3.175-0.673-4.82
			c-0.168-1.648-0.341-3.337-0.517-5.05c-0.413-3.423-0.518-6.984-0.771-10.587c-0.169-3.609-0.184-7.279-0.264-10.943
			c0.098-3.666,0.123-7.331,0.276-10.931c0.243-3.598,0.447-7.137,0.71-10.557c0.375-3.409,0.737-6.702,1.084-9.825
			c0.142-1.563,0.429-3.066,0.646-4.527c0.229-1.459,0.45-2.868,0.662-4.223c0.43-2.705,0.773-5.19,1.269-7.362
			c0.448-2.18,0.835-4.079,1.156-5.643c0.642-3.127,1.008-4.914,1.008-4.914s-0.295,1.801-0.807,4.951
			c-0.258,1.574-0.568,3.485-0.927,5.676c-0.403,2.185-0.646,4.682-0.966,7.395c-0.157,1.356-0.32,2.771-0.49,4.231
			c-0.155,1.464-0.381,2.97-0.457,4.533c-0.218,3.119-0.446,6.408-0.684,9.812c-0.121,3.407-0.179,6.931-0.277,10.502
			c-0.007,3.576,0.115,7.208,0.168,10.834c0.227,3.62,0.39,7.246,0.699,10.799c0.395,3.546,0.643,7.049,1.184,10.4
			c0.239,1.678,0.477,3.329,0.708,4.943c0.293,1.604,0.574,3.174,0.853,4.703c0.138,0.763,0.277,1.517,0.412,2.257
			c0.162,0.735,0.321,1.462,0.478,2.175c0.316,1.423,0.621,2.797,0.914,4.117c0.683,2.614,1.253,5.024,1.902,7.114
			c0.589,2.109,1.207,3.904,1.689,5.393c0.523,1.461,0.936,2.633,1.237,3.357c0.284,0.735,0.479,1.171,0.479,1.171L157.369,378.899z
			"/>
	</g>
	<g display="inline">
		<path fill="#EF4136" d="M41.905,270.465c0,0,0.353,0.742,1.07,1.958c0.71,1.219,1.804,2.903,3.282,4.739
			c0.761,0.901,1.599,1.859,2.557,2.78c0.961,0.919,2.023,1.824,3.198,2.635c0.569,0.429,1.205,0.779,1.816,1.177
			c0.651,0.332,1.279,0.721,1.963,1.007c1.336,0.647,2.781,1.101,4.235,1.495c1.471,0.339,2.966,0.608,4.469,0.7
			c0.375,0.025,0.748,0.055,1.122,0.079c0.375,0.003,0.748,0.009,1.118,0.013c0.374,0.003,0.742,0.006,1.108,0.008
			c0.369-0.021,0.733-0.042,1.097-0.063c0.727-0.033,1.44-0.079,2.142-0.17c0.7-0.089,1.396-0.124,2.06-0.25
			c1.331-0.239,2.605-0.43,3.771-0.711c1.17-0.238,2.236-0.515,3.187-0.762c0.954-0.234,1.786-0.453,2.462-0.662
			c1.364-0.393,2.167-0.586,2.167-0.586s-0.683,0.449-1.917,1.178c-0.31,0.181-0.653,0.382-1.026,0.604
			c-0.38,0.208-0.807,0.4-1.252,0.625c-0.451,0.22-0.929,0.453-1.437,0.702c-0.509,0.249-1.069,0.437-1.644,0.674
			c-0.578,0.218-1.17,0.485-1.812,0.689c-0.645,0.195-1.31,0.396-1.994,0.605c-1.385,0.353-2.862,0.74-4.437,0.914
			c-0.392,0.054-0.787,0.115-1.187,0.156c-0.403,0.021-0.812,0.043-1.218,0.065c-0.41,0.02-0.821,0.051-1.236,0.059
			c-0.416-0.014-0.834-0.026-1.254-0.042c-1.684-0.029-3.389-0.321-5.071-0.694c-1.661-0.463-3.316-1.008-4.818-1.815
			c-1.525-0.756-2.923-1.699-4.154-2.73c-1.257-1.008-2.302-2.16-3.23-3.278c-0.944-1.109-1.669-2.279-2.307-3.358
			c-1.253-2.181-1.958-4.143-2.35-5.528C41.988,271.286,41.905,270.465,41.905,270.465z"/>
	</g>
	<g display="inline">
		<path fill="#EF4136" d="M152.242,270.465c0,0-0.083,0.821-0.484,2.209c-0.394,1.387-1.094,3.349-2.349,5.529
			c-0.638,1.08-1.361,2.249-2.307,3.357c-0.931,1.119-1.974,2.272-3.231,3.277c-1.229,1.034-2.629,1.977-4.153,2.731
			c-1.502,0.81-3.157,1.352-4.817,1.816c-1.684,0.375-3.389,0.664-5.071,0.694c-0.42,0.016-0.838,0.028-1.254,0.042
			c-0.415-0.009-0.827-0.04-1.236-0.06c-0.409-0.021-0.813-0.044-1.218-0.065c-0.399-0.042-0.795-0.104-1.188-0.156
			c-1.574-0.173-3.052-0.562-4.437-0.915c-0.688-0.208-1.35-0.409-1.995-0.604c-0.64-0.204-1.231-0.472-1.811-0.689
			c-0.573-0.236-1.135-0.424-1.643-0.674c-0.507-0.249-0.985-0.482-1.437-0.703c-0.451-0.223-0.873-0.418-1.253-0.625
			c-0.374-0.219-0.718-0.42-1.027-0.602c-1.235-0.731-1.917-1.178-1.917-1.178s0.804,0.193,2.165,0.586
			c0.677,0.21,1.512,0.427,2.465,0.662c0.95,0.247,2.018,0.522,3.187,0.762c1.164,0.281,2.438,0.472,3.771,0.711
			c0.662,0.126,1.358,0.161,2.059,0.25c0.698,0.092,1.415,0.137,2.144,0.17c0.362,0.021,0.729,0.042,1.096,0.063
			c0.367-0.003,0.735-0.006,1.108-0.008c0.371-0.005,0.742,0.002,1.119-0.013c0.371-0.025,0.745-0.054,1.121-0.079
			c1.502-0.094,2.997-0.362,4.469-0.7c1.454-0.395,2.898-0.85,4.233-1.496c0.688-0.285,1.314-0.674,1.966-1.006
			c0.609-0.396,1.247-0.748,1.815-1.178c1.175-0.811,2.237-1.717,3.198-2.634c0.961-0.921,1.796-1.879,2.554-2.78
			c1.481-1.838,2.574-3.521,3.286-4.738C151.888,271.207,152.242,270.465,152.242,270.465z"/>
	</g>
	<path display="inline" fill="#FBD578" d="M159.008,77.701c0,0-6.654-30.211-34.438-26.571c0,0-25.047-20.744-59.092-10.919
		c0,0-20.347,5.824-31.695,28.755c0,0-5.483,12.418-11.241,17.178c-3.362,2.778-7.956-1.816-4.804-4.804
		c0,0-8.463-0.261-11.975,9.236c-1.528,4.13-1.313,8.695,0.932,12.529c1.182,2.022,2.95,3.947,5.562,4.804
		c0,0-0.584,0.509-1.396,1.438c-8.51,9.731-1.863,24.655,11.583,25.632c1.682,0.122,3.403-0.002,5.075-0.496
		c0,0,2.059,29.015,33.363,21.733c0,0-14.451-21.847-12.44-23.683c4.197-3.835,14.349-4.136,17.458-25.14
		c0.692-4.694,1.843-9.325,3.673-13.747c4.765-11.511,15.373-28.196,36.212-25.047c0,0,15.316,1.72,22.086,12.016
		c2.029,3.087,2.937,6.695,2.852,10.31c-0.159,6.692,0.541,25.896,13.412,30.087h-0.005c0,0-3.804,21.109-15.41,35.012
		c-1.873,2.238,29.5,5.029,31.063-19.725c0,0,4.101-1.858,9.146-7.017c4.58-4.688,6.186-20.362,2.563-31.787
		C168.52,88.127,160.769,82.95,159.008,77.701z"/>
	<g display="inline">
		<ellipse fill="#FFFFFF" cx="102.647" cy="211.406" rx="2.923" ry="2.719"/>
		<ellipse fill="#FFFFFF" cx="74.469" cy="203.733" rx="2.923" ry="2.717"/>
		<ellipse fill="#FFFFFF" cx="96.3" cy="212.696" rx="2.924" ry="2.717"/>
		<ellipse fill="#FFFFFF" cx="89.13" cy="212.696" rx="2.921" ry="2.717"/>
		<ellipse fill="#FFFFFF" cx="78.51" cy="207.176" rx="2.924" ry="2.719"/>
		<ellipse fill="#FFFFFF" cx="83.067" cy="210.925" rx="2.922" ry="2.719"/>
		<ellipse fill="#FFFFFF" cx="71.545" cy="198.915" rx="2.923" ry="2.719"/>
		<ellipse fill="#FFFFFF" cx="68.704" cy="194.833" rx="2.923" ry="2.717"/>
		<ellipse fill="#FFFFFF" cx="120.499" cy="197.262" rx="2.923" ry="2.719"/>
		<ellipse fill="#FFFFFF" cx="116.467" cy="201.616" rx="2.925" ry="2.717"/>
		<ellipse fill="#FFFFFF" cx="112.187" cy="205.163" rx="2.923" ry="2.717"/>
		<ellipse fill="#FFFFFF" cx="107.482" cy="208.433" rx="2.923" ry="2.718"/>
		<path fill="#FFFFFF" d="M95.412,231.874"/>
	</g>
	<g display="inline">
		<g>
			<path fill="#BE1E2D" d="M100.292,151.394c-3.344,0-5.02,1.802-5.02,1.802s-1.672-1.802-5.016-1.802s-5.151,5.01-10.617,4.228
				c0,0,5.601,11.524,15.635,11.524c10.038,0,16.779-11.524,16.779-11.524C107.298,155.784,103.636,151.394,100.292,151.394z"/>
			<path fill="#FFFFFF" d="M81.99,156.879c0,0,4.994,6.883,13.639,6.883c8.64,0,13.637-6.738,13.637-6.738
				s-6.953-1.669-14.352-1.669C87.524,155.355,81.99,156.879,81.99,156.879z"/>
		</g>
	</g>
	<path display="inline" fill="none" stroke="#F8A27F" stroke-width="1.2025" stroke-miterlimit="10" d="M79.173,151.475
		c-1.636-0.387-4.703,2.461-4.235,3.958"/>
	<path display="inline" fill="none" stroke="#F8A27F" stroke-width="1.2025" stroke-miterlimit="10" d="M113.649,152.764
		c1.635-0.389,4.704,2.46,4.236,3.958"/>
</g>
<g display="none">
	<g display="inline">
		<g>
			<path fill="#00A79D" d="M167.395,560.867c-7.404,4.454-23.56-0.127-25.387-5.987c-0.513-1.658,3.731-27.314-1.229-34.944
				c-2.596-3.983-4.613-7.806-6.183-11.444c-8.772-20.303,3.099-23.742,3.099-23.742c44.166,9.472,21.742,53.167,16.528,63.423
				C153.774,549.055,172.109,558.035,167.395,560.867z"/>
			<path fill="#00A79D" d="M79.691,558.471c7.404,4.454,23.56-0.128,25.387-5.987c0.512-1.658-3.732-27.314,1.229-34.944
				c2.596-3.983,4.612-7.807,6.182-11.443c8.773-20.303-3.098-23.743-3.098-23.743c-44.166,9.471-21.741,53.168-16.528,63.424
				C93.313,546.66,74.977,555.641,79.691,558.471z"/>
			<path fill="#00A79D" d="M146.104,499.161c-2.193,2.974-4.611,5.595-7.227,7.793c-5.798,4.902-10.063,7.207-17.227,7.216
				c-22.093,0.011-42.469-26.14-42.484-59.036c-0.019-32.884,17.886-59.552,39.979-59.564c22.094-0.011,40.019,26.64,40.036,59.522
				C159.19,472.558,154.143,488.267,146.104,499.161z"/>
			<path fill="#00A79D" d="M114.965,416.863c0,0,32.526-20.12,62.969,6.058c1.806,1.552-11.181,7.8-11.181,7.8
				s-21.682-9.831-45.063,18.306L114.965,416.863z"/>
			<circle fill="#603913" cx="123.39" cy="430.359" r="2.92"/>
			<circle fill="#603913" cx="124.594" cy="439.561" r="2.919"/>
			<g>
				<path fill="#00A79D" d="M125.245,416.932c0,0-31.854-14.849-53.647-2.634c-9.924,5.56-5.235,12.414-5.235,12.414
					s24.932-3.783,36.561,5.481L125.245,416.932z"/>
			</g>
		</g>
		<path fill="#FBB791" d="M155.574,377.11c-4.183,4.737-6.515,14.853-4.448,17.842c2.07,2.99,7.136,1.577,11.317-3.161
			c4.181-4.736,5.365-11.689,3.298-14.68C163.675,374.123,159.753,372.375,155.574,377.11z"/>
		<path fill="#FBB791" d="M81.227,379.338c4.187,4.732,6.529,14.849,4.464,17.839c-2.063,2.992-7.132,1.583-11.319-3.148
			c-4.186-4.733-5.377-11.687-3.313-14.678C73.124,376.358,77.042,374.605,81.227,379.338z"/>
		<path fill="#FCC19C" d="M117.396,320.923c24.396-0.014,44.182,13.019,44.197,41.625c0.016,28.606-17.622,60.569-42.021,60.581
			c-24.396,0.012-43.445-29.991-46.115-58.511C70.738,335.575,92.999,320.935,117.396,320.923z"/>
		<g>
			<path fill="#FFFFFF" d="M107.518,386.032c0,0-4.38,3.342-9.48,3.198c-5.547-0.156-5.368-2.051-5.368-2.051
				s-1.328-7.298,4.141-8.676c0.542-0.141,1.147-0.215,1.832-0.225C103.087,378.235,107.009,381.834,107.518,386.032z"/>
			<path fill="#754E35" d="M107.418,384.925c-0.037-0.355-0.146-0.785-0.271-1.285c-0.064-0.247-0.164-0.493-0.261-0.765
				c-0.081-0.279-0.209-0.551-0.368-0.83c-0.271-0.574-0.638-1.184-1.14-1.739c-0.468-0.59-1.083-1.108-1.761-1.589
				c-1.398-0.897-3.134-1.479-4.925-1.498l-0.343,0.006l-0.12,0.008h-0.038l-0.068,0.012l-0.152,0.014l-0.113,0.014
				c-1.191-0.025-2.916,0.932-4.069,2.008c-1.057,0.984-1.332,1.934-1.332,1.934s-0.535,1.307-0.554,1.911
				c-0.057,0.646,0,1.222,0.071,1.721c0.063,0.507,0.171,0.932,0.267,1.279c0.088,0.347,0.196,0.608,0.267,0.785
				c0.069,0.177,0.113,0.272,0.113,0.272s0-0.412,0.042-1.108c0.021-0.343,0.064-0.759,0.129-1.229
				c0.032-0.233,0.069-0.481,0.131-0.733c0.051-0.26,0.103-0.525,0.189-0.792c0.065-0.274,0.166-0.538,0.279-0.811
				c0.095-0.28,0.247-0.533,0.38-0.798c0.126-0.266,0.347-0.482,0.506-0.728c0.233-0.191,0.404-0.438,0.655-0.604
				c0.268-0.151,0.476-0.374,0.793-0.462c0.284-0.127,0.571-0.268,0.874-0.309l0.443-0.115c0.075-0.025,0.196-0.04,0.316-0.053
				c0.081,0.001,0.165-0.006,0.24-0.018l0.592-0.051l0.148-0.02l0.076-0.008h0.055l0.197,0.008c0.689,0,1.4,0.102,2.076,0.271
				c0.344,0.087,0.683,0.202,1.005,0.328c0.313,0.113,0.609,0.246,0.901,0.387c0.57,0.334,1.146,0.655,1.602,1.08
				c0.245,0.19,0.448,0.42,0.665,0.627c0.222,0.203,0.398,0.432,0.575,0.65c0.09,0.107,0.18,0.215,0.268,0.318
				c0.076,0.113,0.151,0.227,0.223,0.334c0.146,0.216,0.303,0.418,0.425,0.613c0.214,0.412,0.456,0.754,0.607,1.076
				c0.303,0.633,0.508,0.994,0.508,0.994S107.496,385.621,107.418,384.925z"/>
			<circle fill="#1C75BC" cx="99.19" cy="384.146" r="4.688"/>
		</g>
		<g>
			<path fill="#FFFFFF" d="M143.814,383.726c0,0-4.272,3.264-9.254,3.123c-5.417-0.154-5.24-2.002-5.24-2.002
				s-1.3-7.123,4.039-8.471c0.531-0.137,1.124-0.211,1.791-0.219C139.488,376.115,143.317,379.628,143.814,383.726z"/>
			<path fill="#754E35" d="M143.453,381.39c-0.062-0.24-0.16-0.482-0.253-0.748c-0.086-0.271-0.21-0.537-0.36-0.809
				c-0.18-0.371-0.402-0.754-0.66-1.123c0,0-0.778-1.037-1.906-1.877c-1.296-0.965-3.025-1.743-4.151-1.643
				c-0.305-0.037,0,0-0.927-0.068l-0.329,0.006l-0.118,0.008l-0.038-0.002l-0.073,0.014l-0.142,0.013l-0.582,0.063
				c-0.196,0.028-0.358,0.018-0.593,0.092l-0.681,0.188c-0.22,0.073-0.463,0.117-0.66,0.222l-0.594,0.31
				c-0.405,0.18-0.733,0.506-1.067,0.779c-0.173,0.132-0.298,0.314-0.434,0.475c-0.136,0.168-0.266,0.336-0.38,0.502
				c-0.188,0.363-0.41,0.705-0.522,1.07c-0.27,0.711-0.393,1.402-0.418,2.027c-0.048,0.623,0.007,1.191,0.074,1.68
				c0.057,0.494,0.167,0.91,0.26,1.247c0.088,0.343,0.192,0.593,0.255,0.769c0.073,0.173,0.116,0.266,0.116,0.266
				s-0.006-0.403,0.042-1.082c0.019-0.336,0.057-0.742,0.125-1.199c0.03-0.229,0.067-0.469,0.129-0.719
				c0.043-0.252,0.101-0.512,0.181-0.771c0.059-0.265,0.164-0.525,0.275-0.791c0.088-0.273,0.235-0.52,0.364-0.779
				c0.133-0.259,0.341-0.47,0.5-0.711c0.222-0.186,0.396-0.428,0.644-0.587c0.258-0.147,0.465-0.364,0.767-0.451
				c0.284-0.124,0.562-0.263,0.854-0.304l0.432-0.112c0.08-0.025,0.198-0.036,0.314-0.05c0.081,0.001,0.164-0.006,0.235-0.018
				l0.581-0.056l0.143-0.012l0.074-0.007l0.24,0.007c0.682-0.002,1.372,0.099,2.026,0.265c0.334,0.078,0.656,0.186,0.966,0.302
				s0.612,0.247,0.902,0.396c0.558,0.322,1.111,0.633,1.563,1.056c0.242,0.186,0.44,0.409,0.645,0.61
				c0.221,0.199,0.396,0.422,0.57,0.639c0.086,0.104,0.171,0.21,0.259,0.314c0.072,0.104,0.141,0.215,0.215,0.321
				c0.144,0.209,0.299,0.401,0.41,0.599c0.216,0.402,0.451,0.734,0.6,1.051c0.298,0.618,0.488,0.969,0.488,0.969
				s-0.02-0.399-0.093-1.087C143.683,382.301,143.571,381.881,143.453,381.39z"/>
			<circle fill="#1C75BC" cx="135.833" cy="381.991" r="4.687"/>
		</g>
		<ellipse fill="#FBAB2F" cx="119.151" cy="408.079" rx="12.809" ry="7.895"/>
		<path fill="#FFFFFF" d="M114.602,406.925c0,0-5.253,9.452,2.839,9.567c8.091,0.112,6.343-9.336,6.066-9.574
			c-0.276-0.237-2.203,0.003-2.203,0.003s-0.298,7.606-3.866,7.074c-3.567-0.532-1-7.178-1-7.178L114.602,406.925z"/>
		<path fill="#AA6A41" d="M159.859,336.707c-0.208-0.439-0.45-0.892-0.734-1.364c-0.617-1.06-1.317-2.061-2.104-2.987
			c-16.443-20.847-68.882-12.111-78.239,1.355c-15.002,21.586-0.521,51.818-0.521,51.818c1.358,5.174,2.375-20.857,2.375-20.857
			c7.984-6.146,13.343-13.423,16.949-20.208c2.01,6.457,8.571,16.666,30.024,15.666c0,0-18.93-1.943-19.705-12.731
			c0,0,16.469,12.319,26.729,10.157c0,0-11.801-3.385-14.336-9.547c0,0,8.413,4.465,17.661,5.385
			c1.35,0.135,7.048,0.698,8.563,1.236c6.981,1.614,10.212,35.898,11.567,30.72C158.089,385.349,168.513,354.111,159.859,336.707z"
			/>
	</g>
	<g display="inline">
		<g>
			<g>
				<g>
					<rect x="-64.94" y="627.478" fill="#FCB216" width="35.903" height="44.28"/>
				</g>
				<g>
					<rect x="213.064" y="627.478" fill="#FCB216" width="35.905" height="44.28"/>
				</g>
				<g>
					<path fill="#7F3F98" d="M286.577,566.138c0-4.959-5.468-8.978-12.213-8.978h-361.49c-6.746,0-12.213,4.019-12.213,8.978v32.312
						c0,4.957,5.467,8.978,12.213,8.977h361.49c6.745,0,12.213-4.02,12.213-8.977V566.138z"/>
				</g>
				<g>
					<g>
						<rect x="32.073" y="446.761" fill="#FDC716" width="10.771" height="156.778"/>
						<rect x="67.976" y="446.761" fill="#FDC716" width="10.77" height="156.778"/>
						<rect x="103.882" y="446.761" fill="#FDC716" width="10.77" height="156.778"/>
						<rect x="-75.295" y="446.761" fill="#FDC716" width="10.771" height="156.778"/>
						<rect x="-39.392" y="446.761" fill="#FDC716" width="10.771" height="156.778"/>
						<rect x="-3.487" y="446.761" fill="#FDC716" width="10.77" height="156.778"/>
						<rect x="139.783" y="446.761" fill="#FDC716" width="10.771" height="156.778"/>
						<rect x="175.687" y="446.761" fill="#FDC716" width="10.771" height="156.778"/>
						<rect x="211.591" y="446.761" fill="#FDC716" width="10.771" height="156.778"/>
						<rect x="247.494" y="446.761" fill="#FDC716" width="10.771" height="156.778"/>
					</g>
					<g>
						<g>
							<g>
								<path fill="#FEBC11" d="M-93.262,607.731c0,9.582-3.796,17.353-8.479,17.353l0,0c-4.685,0-8.481-7.771-8.481-17.353V386.325
									c0-9.585,3.796-17.353,8.481-17.353l0,0c4.683,0,8.479,7.768,8.479,17.353V607.731z"/>
							</g>
							<g>
								<path fill="#FEBC11" d="M295.677,609.312c0,9.582-3.795,17.351-8.479,17.351l0,0c-4.684,0-8.48-7.769-8.48-17.351v-221.41
									c0-9.582,3.797-17.352,8.48-17.352l0,0c4.685,0,8.479,7.77,8.479,17.352V609.312z"/>
							</g>
						</g>
						<rect x="-99.763" y="422.827" fill="#FEBC11" width="386.132" height="34.709"/>
					</g>
				</g>
				<path fill="#FEBC11" d="M309.107,623.289c0,4.956-5.225,8.977-11.669,8.977h-407.637c-6.446,0-11.67-4.021-11.67-8.977v-19.149
					c0-4.956,5.224-8.976,11.67-8.976h407.638c6.444,0,11.67,4.02,11.67,8.976v19.149H309.107z"/>
			</g>
		</g>
		<circle cx="-46.53" cy="679.127" r="20.031"/>
		<circle cx="231.364" cy="679.127" r="20.031"/>
	</g>
	<path display="inline" fill="#FCC19C" d="M69.352,433.219c-7.245,1.395-16.136-3.965-10.753-13.234l17.016,1.636
		C75.614,421.621,76.306,431.879,69.352,433.219z"/>
	<path display="inline" fill="#FCC19C" d="M173.16,433.936c6.966,1.395,15.515-3.962,10.337-13.232l-16.36,1.634
		C167.136,422.338,166.471,432.595,173.16,433.936z"/>
	<g display="inline">
		<path fill="none" stroke="#FBB791" stroke-miterlimit="10" d="M124.385,391.379c4.016,4.785-0.802,5.693-2.235,5.693"/>
	</g>
	<g display="inline">
		<path fill="none" stroke="#FBB791" stroke-miterlimit="10" d="M114.371,391.379c-4.016,4.785,0.803,5.693,2.235,5.693"/>
	</g>
</g>
<g>
	<path fill="#0E1418" d="M145.42,343.953c0,0,20.195,188.814,14.062,191.289c0,0,12.188,106.477-0.765,113.083
		c0,0-16.627,15.882-26.168,6.804c0,0-11.92-24.965-6.465-63.758c5.449-38.793-25.742-149.497-35.283-158.572
		c0,0-39.016,141.24-37.652,159.4c1.361,18.158,5.064,56.012-3.114,57.663c0,0-1.655,9.188-15.972,2.585
		c0,0-19.768,7.436-14.996-8.248c0,0-4.09-42.921,0.682-79.243l2.728-27.239l1.703-30.536c0,0,1.627-120.506,20.021-164.247
		l41.922-15.318L145.42,343.953z"/>
	<path fill="#FCC19C" d="M67.61,149.418l11.651,50.028c0,0,8.877,19.375,32.623,0.826l4.008-39.391l4.713-24.251L67.61,149.418z"/>
	<path opacity="0.4" fill="#F8A27F" enable-background="new    " d="M70.618,162.34c0,0,24.09,48.6,46.283-7.381L70.618,162.34z"/>
	<path fill="#FCC19C" d="M53.257,120.195c0,0-5.008,10.104-11.639-7.323c-6.633-17.424,1.079-27.655,12.209-15.055L53.257,120.195z"
		/>
	<path opacity="0.4" fill="#F8A481" enable-background="new    " d="M44.052,111.364c-1.199-4.611-0.686-11.125,1.146-11.745
		c1.562-0.525,4.55,4.317,6.033,8.298c0.256,0.691-0.486,2.65-0.326,3.339c0.301,1.278,1.435,1.265,1.487,2.418
		c0.14,3.039-2.287,1.86-3.619,2.31C46.942,116.602,47.044,122.842,44.052,111.364z"/>
	<path fill="#FCC19C" d="M131.674,72.253c-1.521,19.158-0.238,44.136-3.654,57.776c-3.413,13.639-6.697,18.853-9.353,23.923
		c-1.954,3.738-8.703,9.095-14.573,12.357c-4.509,2.502-8.275,3.466-10.282,3.375c-11.062-0.503-23.37-0.087-30.45-15.823
		c-6.153-13.676-13.284-24.14-10.542-44.813c1.965-14.845-5.335-32.614-2.435-38.924c2.629-5.721,8.249-14.169,13.7-17.332
		c8.649-5.021,44.68-6.019,53.282-0.913C123.929,55.78,132.066,67.294,131.674,72.253z"/>
	<path fill="#C19B91" d="M100.315,106.767c0,0,8.719-14.253,17.351-1.064C117.666,105.703,112.343,111.936,100.315,106.767z"/>
	<path fill="#F8A27F" d="M61.943,105.703c1.958,3.904,11.293,8.404,17.351,1.064"/>
	<path fill="#F8A27F" d="M100.598,106.767c1.961,3.903,11.349,6.646,17.406-0.695"/>
	<polygon fill="#FFFFFF" points="73.287,143.257 88.727,143.808 104.643,143.861 88.966,152.653 	"/>
	<path fill="#FFFFFF" d="M100.315,106.767c0,0,6.544-8.817,17.351-1.064C117.666,105.703,112.343,111.936,100.315,106.767z"/>
	<g>
		<path fill="#3F3E40" d="M112.778,104.423c-0.527-2.661-3.688-2.974-5.494-2.493c-1.811,0.479-3.047,1.581-2.516,4.092
			c0.387,1.854,3.052,3.204,4.86,2.724C111.435,108.267,113.14,106.281,112.778,104.423z"/>
		<path fill="#1B181C" d="M110.424,104.697c-0.189-0.831-1.461-1.121-2.269-0.905c-0.819,0.215-1.214,1.061-1.026,1.891
			c0.194,0.829,1.192,1.336,2.008,1.12C109.948,106.586,110.62,105.526,110.424,104.697"/>
		<path fill="#FFFFFF" d="M109.138,105.162c0.196,0.464,0.969,0.486,1.429,0.265c0.455-0.223,0.601-0.769,0.398-1.235
			c-0.192-0.464-0.826-0.643-1.277-0.417C109.23,103.997,108.94,104.698,109.138,105.162z"/>
	</g>
	<path fill="#F8A27F" d="M117.666,105.703c-8.634-13.189-17.351,1.064-17.351,1.064S106.859,97.95,117.666,105.703z"/>
	<path fill="#C19B91" d="M79.294,106.767c0,0-8.717-14.253-17.351-1.064C61.943,105.703,67.267,111.936,79.294,106.767z"/>
	<path fill="#FFFFFF" d="M79.294,106.767c0,0-7.25-10.871-17.351-1.064C61.943,105.703,67.267,111.936,79.294,106.767z"/>
	<g>
		<path fill="#3F3E40" d="M65.773,104.403c0.525-2.641,3.66-2.952,5.455-2.475c1.792,0.474,3.02,1.566,2.493,4.062
			c-0.383,1.839-3.026,3.179-4.823,2.703C67.107,108.218,65.41,106.247,65.773,104.403z"/>
		<path fill="#1B181C" d="M68.109,104.673c0.189-0.822,1.449-1.112,2.253-0.898c0.812,0.214,1.202,1.053,1.015,1.877
			c-0.192,0.826-1.182,1.326-1.988,1.113C68.58,106.548,67.918,105.497,68.109,104.673"/>
		<path fill="#FFFFFF" d="M69.388,105.136c-0.2,0.46-0.967,0.483-1.421,0.262c-0.449-0.219-0.595-0.762-0.396-1.223
			c0.189-0.461,0.823-0.639,1.271-0.417C69.299,103.98,69.581,104.676,69.388,105.136z"/>
	</g>
	<path fill="#F8A27F" d="M61.943,105.703c8.636-13.189,17.351,1.064,17.351,1.064S72.044,96.594,61.943,105.703z"/>
	<path d="M116.22,91.848c-1.305-1.12-12.363-1.045-13.861-1.072c-0.859-0.016-0.773,1.498-0.854,2.485
		c-0.076,0.985,0.349,2.175,1.979,2.287c0.392,0.027,7.563-1.251,10.572-1.597c1.883-0.219,8.787,3.77,9.328,3.518
		C124.369,97.016,116.4,92.001,116.22,91.848z"/>
	<path d="M65.021,89.921c1.394-1.005,12.41-0.018,13.902,0.077c0.86,0.058,0.646,1.56,0.644,2.548
		c-0.004,0.989-0.526,2.139-2.162,2.117c-0.393-0.005-7.43-1.873-10.401-2.466c-1.859-0.37-9.072,3.036-9.59,2.74
		C56.469,94.4,64.831,90.062,65.021,89.921z"/>
	<path fill="none" d="M87.636,149.641l5.713-0.35l12.672-6.094c0,0-9.764,0.895-12.904,1.02c-1.195,0.048-4.742,0.614-4.742,0.614
		s-4.107-0.906-5.485-0.788c-2.792,0.233-10.849-1.528-10.849-1.528l10.671,6.372L87.636,149.641z"/>
	<path fill="#F9B6B4" d="M93.351,149.291l-5.713,0.35l-4.924-0.755l-10.67-6.372c0,0,8.193,10.457,10.67,10.796
		c3.183,0.436,9.912,0.713,13.008,0.057c2.714-0.577,10.301-10.17,10.301-10.17L93.351,149.291z"/>
	<path fill="#F8A27F" d="M82.892,144.042c1.376-0.117,5.483,0.788,5.483,0.788s3.547-0.566,4.741-0.614
		c3.14-0.125,12.905-1.02,12.905-1.02s-10.187-2.723-13.278-2.754c-1.389-0.013-4.368,1.491-4.368,1.491s-3.559-1.692-4.836-1.58
		c-3.224,0.283-11.497,2.159-11.497,2.159S80.098,144.277,82.892,144.042z"/>
	<path fill="#FCC19C" d="M128.868,120.195c0,0,5.006,10.104,11.64-7.323c6.631-17.424-1.647-26.855-10.062-15.522L128.868,120.195z"
		/>
	<path opacity="0.4" fill="#F8A481" enable-background="new    " d="M138.071,108.897c1.2-4.608,0.686-11.124-1.146-11.744
		c-1.562-0.525-4.546,4.318-6.035,8.298c-0.256,0.692,0.492,2.652,0.327,3.339c-0.299,1.278-1.431,1.265-1.488,2.418
		c-0.139,3.039,2.293,1.859,3.618,2.31C135.181,114.137,135.083,120.378,138.071,108.897z"/>
	<g>
		<path fill="#262262" d="M-1.82,692.004c0,0-0.179-11.469,8.654-20.294c0,0,3.418-4.585,3.418-6.701c0,0,1.176-5.474,2.943-8.821
			c0,0-0.882-9.528,3.532-13.763c0,0,15.846-10.228,24.229,6.512c0.793,1.588,5.863,0.414,7.452-3.822c0,0,4.357,8.779,1.002,14.953
			c0,0-1.416,3.886,0.354,4.766c0,0,1.414,4.059,0.705,6.351c0,0,6.713,12.527-7.245,13.235c0,0,2.826,9.348-4.062,11.115
			l-7.065,0.118L-1.82,692.004z"/>
		<path fill="#D9DADB" d="M-0.848,684.948c0,0,5.122,3.881,10.776,2.294C9.928,687.241-7.209,701.887-0.848,684.948z"/>
		<path fill="#D9DADB" d="M23.324,687.942c0,0,13.783,3.177,14.839-0.878c1.061-4.061-5.124-3.177-2.65-9.174
			c2.474-6.003-3.888-5.292-5.298-2.997c-1.417,2.291-4.771,1.937-8.306-1.061c-3.532-3.005-7.243,1.762-7.243,1.762
			s-6.359,0.71-5.83-3.176c0,0-5.122,2.475-6.361,4.765l8.438-14.861c0,0-3.182,8.91,8.171,6.571
			c12.761-2.631,15.192-0.534,15.192-0.534s4.416,1.063,4.947-3.879c0,0,1.062-8.824,3.886,0.353c0,0,0.707,1.94-1.236,3.177
			c-1.943,1.234-0.883,12.177,2.296,4.589c3.179-7.589,4.593-9.178,0.176-14.648c0,0-0.881-3.181,1.06-0.882
			c1.943,2.295,3.183,1.058,3.183-3.882c0-4.945-0.711-10.238,2.119-3.18c0,0,1.59,7.059-0.531,10.585l-0.176,0.711
			c0,0-0.353,1.936,0.883,3.528c1.234,1.589,0,5.995,0,5.995s7.065,12.528-7.596,13.59c0,0,1.234,3.871,0.527,6.881
			C42.642,696.314,37.567,700.079,23.324,687.942z"/>
		<path fill="#B2B4B5" d="M-1.969,692.269c0,0,6.83-1.677,9.128-3.44c2.297-1.765,4.063-5.825,4.063-5.825s6.887-1.937,10.601,0.355
			c0,0,5.83,12.349,17.134,12.175C38.956,695.533,1.565,698.447-1.969,692.269z"/>
		<path fill="#ECEDED" d="M33.052,649.121c0,0-10.033-2.285-18.016-0.646c0,0-2.709,0.665-1.682,3.083c0,0,6.787-2.245,19.575,0.558
			C34.107,652.38,36.097,650.391,33.052,649.121z"/>
		<path fill="#ECEDED" d="M32.018,655.177c0,0-11.902-3.897-17.448-1.07c0,0-2.605,1.387-1.658,2.974c0,0,6.804-2.069,18.853,1.388
			C32.879,658.787,34.861,656.667,32.018,655.177z"/>
		<path fill="#ECEDED" d="M30.376,662.204c0,0-12.352-4.016-17.914-2.046c0,0-2.467,0.995-1.851,3.045c0,0,6.983-1.416,18.974,1.918
			C30.696,665.433,33.197,663.52,30.376,662.204z"/>
	</g>
	<g>
		<path fill="#262262" d="M182.959,693.942c0,0,0.178-11.466-8.659-20.29c0,0-3.414-4.585-3.414-6.703c0,0-1.177-5.47-2.944-8.818
			c0,0,0.885-9.532-3.53-13.766c0,0-15.849-10.229-24.229,6.511c-0.793,1.585-5.865,0.418-7.456-3.822c0,0-4.354,8.782-0.999,14.955
			c0,0,1.414,3.886-0.354,4.762c0,0-1.414,4.06-0.705,6.357c0,0-6.714,12.521,7.245,13.232c0,0-2.83,9.35,4.058,11.112l7.067,0.122
			L182.959,693.942z"/>
		<path fill="#D9DADB" d="M181.986,686.89c0,0-5.124,3.88-10.775,2.291C171.211,689.181,188.346,703.829,181.986,686.89z"/>
		<path fill="#D9DADB" d="M157.815,689.886c0,0-13.782,3.174-14.843-0.885c-1.061-4.058,5.124-3.175,2.649-9.173
			c-2.47-6,3.89-5.293,5.3-2.999c1.416,2.297,4.772,1.941,8.308-1.059c3.53-3.001,7.242,1.763,7.242,1.763s6.36,0.709,5.829-3.173
			c0,0,5.122,2.469,6.358,4.767l-8.436-14.866c0,0,3.181,8.91-8.171,6.566c-12.758-2.625-15.19-0.527-15.19-0.527
			s-4.417,1.06-4.948-3.883c0,0-1.057-8.821-3.886,0.352c0,0-0.705,1.942,1.237,3.178c1.943,1.235,0.885,12.176-2.296,4.589
			c-3.182-7.589-4.593-9.178-0.178-14.648c0,0,0.883-3.177-1.061-0.882c-1.943,2.297-3.183,1.061-3.183-3.882
			s0.712-10.235-2.117-3.175c0,0-1.592,7.056,0.531,10.584l0.176,0.712c0,0,0.354,1.933-0.881,3.523c-1.236,1.589,0,5.999,0,5.999
			s-7.069,12.526,7.595,13.589c0,0-1.23,3.873-0.529,6.88C138.492,698.257,143.571,702.018,157.815,689.886z"/>
		<path fill="#B2B4B5" d="M183.108,694.21c0,0-6.833-1.677-9.128-3.439c-2.302-1.769-4.067-5.826-4.067-5.826
			s-6.89-1.94-10.598,0.352c0,0-5.833,12.354-17.134,12.176C142.179,697.471,179.572,700.384,183.108,694.21z"/>
		<path fill="#ECEDED" d="M148.085,651.06c0,0,10.033-2.285,18.013-0.646c0,0,2.714,0.666,1.686,3.082c0,0-6.785-2.245-19.574,0.563
			C147.028,654.315,145.041,652.328,148.085,651.06z"/>
		<path fill="#ECEDED" d="M149.117,657.121c0,0,11.903-3.901,17.45-1.074c0,0,2.604,1.389,1.657,2.973c0,0-6.804-2.066-18.853,1.391
			C148.256,660.728,146.273,658.609,149.117,657.121z"/>
		<path fill="#ECEDED" d="M150.761,664.144c0,0,12.348-4.016,17.911-2.049c0,0,2.471,0.997,1.854,3.046
			c0,0-6.983-1.418-18.976,1.922C150.441,667.368,147.943,665.463,150.761,664.144z"/>
	</g>
	<path d="M68.219,66.62c0.58-1.179,8.017,11.433,13.689,13.329c-1.597-2.09-2.373-4.451-1.996-7.028
		c4.458,5.082,9.998,7.689,15.767,10.94c-0.581-2.627-2.93-5.204-2.414-8.139c2.521,1.799,5.528,2.773,8.466,3.931
		c0.047-2.173-0.411-4.783,1.687-5.99c1.057,2.046,4.371,2.679,6.458,3.652c0.36-2.98,0.469-6.766,1.924-9.458
		c5.898,2.887,11.035,4.281,13.111,10.795c1.719,5.388,2.65,10.746,2.693,16.379l0.052,9.721l0.683,1.679
		c0,0,5.886-19.524,2.54-44.819c0,0,3.31-20.796-39.968-22.837C57.44,37.202,46.698,53.271,46.698,70.266
		c0,0-0.322,25.795,6.727,36.813l1.079-1.526c0,0-0.903-27.044-0.363-25.063C54.143,80.489,66.62,69.859,68.219,66.62z"/>
	<path fill="#1C75BC" d="M76.381,187.087c0,0,16.868,38.243,36.934-0.882c0,0,20.843-3.522,31.107-1.782
		c10.269,1.74,18.877,0.153,29.34,26.465c10.461,26.312,9.936,41.116,9.936,41.116s-17.755,14.609-35.964,12.286
		c0,0,4.042,49.875,5.207,59.549c1.165,9.673,0.946,30.246,1.891,42.536c0.836,10.808,2.298,19.599,2.687,23.08
		c0,0-51.696,44.294-126.979,2.555c-1.879-2.985,8.361-131.972,8.361-131.972s-17.98,6.143-35.016-11.343
		c0,0,10.412-33.082,18.663-47.202c0,0,4.648-9.673,19.372-8.898C56.64,193.369,76.381,187.087,76.381,187.087z"/>
	<path fill="#FCC19C" d="M7.654,252.481c12.922,7.188,27.19,8.618,27.19,8.618s-2.066,8.208-4.053,15.525
		c-1.229,4.525-3.413,9.598-2.676,18.566c1.102,13.416-4.43,51.547-3.826,64.57c0.106,2.234,0.409,4.358,0.823,6.363
		c2.076,6.664,3.635,10.566,4.642,12.747c0.617,1.161,1.168,2.079,1.562,2.695c3.579,2.635,6.62,9.75,7.314,11.073
		c0.712,1.355,1.782,13.682,2.373,19.147c0.32,2.973,0.282,12.526,0.282,12.526c-6.697,4.387-8.04-5.957-7.734-8.558
		c0.308-2.6-1.996-8.359-1.996-8.359c-4.327-0.411-5.273,7.103-5.273,7.103s2.481,8.447,4.744,10.076
		c0.531,0.384,2.77,1.901,3.417,2.005c15.941,2.539,8.365,7.064,8.365,7.064c-15.124,2.968-19.539-5.998-19.539-5.998
		s-6.733-7.871-9.34-11.034c-2.607-3.154-3.36-7.736-2.778-13.218c0.193-1.806-0.04-6.559-0.432-12.107
		c-0.293-1.368-1.667-7.915-1.565-10.57c0.116-2.966-2.821-27.78-2.821-27.78C-1.099,319.4,7.654,252.481,7.654,252.481z"/>
	<path fill="#FCC19C" d="M181.337,254.241c-12.92,7.189-25.741,10.079-25.741,10.079s1.09,4.369,3.072,11.687
		c1.229,4.526,3.415,9.598,2.678,18.564c-1.1,13.417,4.433,51.549,3.824,64.573c-0.106,2.232-0.407,4.356-0.82,6.363
		c-2.078,6.662-3.638,10.563-4.644,12.747c-0.617,1.159-1.167,2.077-1.562,2.697c-3.577,2.632-6.616,9.747-7.313,11.069
		c-0.712,1.356-1.782,13.682-2.375,19.147c-0.317,2.973-0.278,12.525-0.278,12.525c6.693,4.388,8.038-5.956,7.731-8.557
		c-0.306-2.597,1.999-8.359,1.999-8.359c4.325-0.41,5.271,7.104,5.271,7.104s-2.481,8.445-4.744,10.076
		c-0.529,0.384-2.77,1.902-3.419,2.005c-15.937,2.539-8.361,7.064-8.361,7.064c15.124,2.968,19.541-5.999,19.541-5.999
		s6.73-7.87,9.337-11.034c2.609-3.154,3.362-7.735,2.779-13.216c-0.189-1.809,0.035-6.561,0.43-12.107
		c0.296-1.37,1.668-7.917,1.563-10.571c-0.11-2.967,2.824-27.781,2.824-27.781C190.556,318.783,181.337,254.241,181.337,254.241z"/>
	<path fill="#256AB4" d="M110.889,239.031c0,0-0.502,21.267,1.821,30.566c0,0,16.948,1.944,25.479-3.578
		c0,0-2.941-24.602-0.593-29.755C137.597,236.262,127.251,241.006,110.889,239.031z"/>
	<path fill="#256AB4" d="M100.315,202.226c0,0-4.761,1.585-6.208,1.585c-1.266,0-6.027-1.999-6.027-1.999s1.625,20.471,1.369,45.494
		c0,0,5.1,4.728,12.383,0L100.315,202.226z"/>
	<g>
		<ellipse fill="#282929" cx="95.019" cy="216.201" rx="3.092" ry="3.092"/>
	</g>
	<g>
		<ellipse fill="#282929" cx="95.015" cy="230.323" rx="3.092" ry="3.092"/>
	</g>
	<g opacity="0.4">
		<path id="XMLID_2_" fill="#F8A27F" d="M79.511,132.016c0,0,2.949,2.243,4.464,2.316c0.645,0.032,1.462,0.1,2.201,0.171l0,0l0,0
			c0.731-0.071,1.552-0.139,2.191-0.171c1.511-0.074,4.361-2.316,4.361-2.316c-2.609-0.319-4.694-0.382-6.617-0.335l0,0
			C84.186,131.634,82.107,131.698,79.511,132.016z"/>
		<path id="XMLID_1_" fill="#F8A27F" d="M82.187,126.088c-0.42,0.888-2.16,4.247-2.16,4.247l2.846-0.697l1.053-3.802l1.588-16.736
			C84.901,112.076,82.589,125.236,82.187,126.088z"/>
	</g>
</g>
</svg>
