<?xml version="1.0" encoding="utf-8"?>
<!-- Generator: Adobe Illustrator 16.0.0, SVG Export Plug-In . SVG Version: 6.00 Build 0)  -->
<!DOCTYPE svg PUBLIC "-//W3C//DTD SVG 1.1//EN" "http://www.w3.org/Graphics/SVG/1.1/DTD/svg11.dtd">
<svg version="1.1" id="Layer_1" xmlns="http://www.w3.org/2000/svg" xmlns:xlink="http://www.w3.org/1999/xlink" x="0px" y="0px"
	 width="1908.893px" height="1080px" viewBox="0 0 1908.893 1080" enable-background="new 0 0 1908.893 1080" xml:space="preserve">
<rect x="-0.793" y="655.672" fill="#DEB283" width="1915.237" height="424.328"/>
<rect x="-5.554" y="0" fill="#DEEAF6" width="1913.652" height="774.303"/>
<g>
	<g>
		<polygon fill="#262262" points="450.942,963.243 504.439,884.729 1390.527,884.729 1456.152,963.243 		"/>
		<path fill="#262262" d="M1388.041,891.716l53.95,64.549H463.309l43.985-64.549H1388.041 M1393.019,877.751H501.591l-63.009,92.479
			h1031.73L1393.019,877.751L1393.019,877.751z"/>
	</g>
</g>
<g>
	<g>
		<rect x="844.424" y="641.189" fill="#BCBEC0" width="260.836" height="50.682"/>
		<rect x="854.105" y="651.006" fill="#101E28" width="212.814" height="17.028"/>
		<circle fill="#808285" cx="1087.73" cy="658.446" r="9.553"/>
		<circle fill="#808285" cx="1060.202" cy="682.12" r="5.399"/>
		<circle fill="#808285" cx="1044.025" cy="682.12" r="5.4"/>
		<path fill="#808285" d="M1030.046,679.213c0,0.799,0.647,1.448,1.451,1.448c0.8,0,1.45-0.649,1.45-1.448
			c0-0.802-0.65-1.456-1.45-1.456C1030.698,677.756,1030.046,678.411,1030.046,679.213z"/>
		<circle fill="#808285" cx="1031.5" cy="685.278" r="1.452"/>
		<circle fill="#808285" cx="857.571" cy="683.257" r="1.454"/>
		<circle fill="#808285" cx="865.66" cy="683.257" r="1.454"/>
		<circle fill="#808285" cx="873.749" cy="683.257" r="1.454"/>
		<circle fill="#808285" cx="881.839" cy="683.257" r="1.454"/>
		<circle fill="#808285" cx="889.929" cy="683.257" r="1.454"/>
		<circle fill="#808285" cx="898.019" cy="683.257" r="1.454"/>
	</g>
	<g>
		<path d="M1451.046,537.611c0,2.237-1.809,4.045-4.04,4.045h-70.69c-2.23,0-4.039-1.809-4.039-4.045V393.206
			c0-2.231,1.809-4.041,4.039-4.041h70.69c2.231,0,4.04,1.81,4.04,4.041V537.611z"/>
		<circle fill="#1D1D1B" cx="1410.651" cy="424.511" r="25.246"/>
		<circle fill="#414042" cx="1410.651" cy="424.511" r="17.168"/>
		<circle fill="#1D1D1B" cx="1410.651" cy="505.3" r="25.246"/>
		<circle fill="#414042" cx="1410.651" cy="505.3" r="17.168"/>
	</g>
	<g>
		<path d="M534.258,538.874c0,2.233-1.808,4.042-4.04,4.042h-70.69c-2.231,0-4.039-1.809-4.039-4.042V394.465
			c0-2.231,1.808-4.039,4.039-4.039h70.69c2.232,0,4.04,1.808,4.04,4.039V538.874z"/>
		<circle fill="#1D1D1B" cx="493.863" cy="425.77" r="25.247"/>
		<circle fill="#414042" cx="493.865" cy="425.77" r="17.167"/>
		<circle fill="#1D1D1B" cx="493.863" cy="506.559" r="25.247"/>
		<circle fill="#414042" cx="493.865" cy="506.559" r="17.167"/>
	</g>
	<path fill="#FFFFFF" d="M1457.075,785.15c0,2.011-1.944,3.738-3.617,3.738H454.372c-1.674,0-2.556-1.73-2.556-3.738v-89.801
		c0-2.008,0.882-4.258,2.556-4.258h999.086c1.673,0,3.617,2.25,3.617,4.258V785.15z"/>
	<path fill="#FFFFFF" d="M1457.075,690.278c0,0.792-1.944,0.813-3.617,0.813h-54.607c-1.68,0-3.187-0.021-3.187-0.813v-65.896
		c0-0.789,1.507-1.523,3.187-1.523h54.608c1.675,0,3.618,0.735,3.618,1.523v65.896H1457.075z"/>
	<path fill="#FFFFFF" d="M513.224,690.278c0,0.792-2.57,0.813-4.242,0.813h-54.608c-1.674,0-2.556-0.021-2.556-0.813v-65.896
		c0-0.789,0.882-1.523,2.556-1.523h54.608c1.676,0,4.242,0.735,4.242,1.523V690.278z"/>
	
		<rect x="457.503" y="700.189" fill="#FFFFFF" stroke="#F1F2F2" stroke-width="2" stroke-miterlimit="10" width="321.819" height="72.779"/>
	
		<rect x="789.556" y="700.189" fill="#FFFFFF" stroke="#F1F2F2" stroke-width="2" stroke-miterlimit="10" width="324.093" height="72.779"/>
	
		<rect x="1127.296" y="700.189" fill="#FFFFFF" stroke="#F1F2F2" stroke-width="2" stroke-miterlimit="10" width="321.818" height="72.779"/>
	<g>
		<rect x="648.547" y="645.605" fill="#8DC63F" width="56.858" height="38.664"/>
		<path fill="#AA6A41" d="M662.673,667.448"/>
		<g>
			<path fill="#FCC19C" d="M682.401,660.53l1.237,5.205c0,0,0.944,2.021,3.464,0.087l0.425-4.1l0.498-2.53L682.401,660.53z"/>
			<path opacity="0.4" fill="#F8A27F" enable-background="new    " d="M682.718,661.872c0,0,2.559,5.063,4.913-0.771
				L682.718,661.872z"/>
			<path fill="#FCC19C" d="M680.879,657.482c0,0-0.536,1.053-1.24-0.763c-0.7-1.814,0.119-2.881,1.3-1.566L680.879,657.482z"/>
			<path opacity="0.4" fill="#F8A481" enable-background="new    " d="M679.902,656.561c-0.129-0.479-0.075-1.161,0.118-1.224
				c0.167-0.055,0.485,0.453,0.641,0.863c0.029,0.072-0.051,0.278-0.033,0.354c0.032,0.13,0.15,0.13,0.162,0.254
				c0.015,0.315-0.242,0.19-0.383,0.239C680.205,657.107,680.22,657.758,679.902,656.561z"/>
			<path fill="#FCC19C" d="M689.201,652.488c-0.161,1.994-0.023,4.6-0.388,6.021c-0.361,1.419-0.71,1.96-0.993,2.487
				c-0.208,0.396-0.924,0.95-1.548,1.296c-0.479,0.258-0.876,0.355-1.089,0.348c-1.172-0.051-2.483-0.008-3.234-1.647
				c-0.653-1.424-1.411-2.516-1.115-4.667c0.209-1.547-0.568-3.399-0.261-4.057c0.279-0.592,0.877-1.477,1.456-1.806
				c0.917-0.521,4.741-0.626,5.655-0.094C688.38,650.772,689.243,651.971,689.201,652.488z"/>
			<path fill="#C19B91" d="M685.874,656.083c0,0,0.925-1.491,1.842-0.116C687.715,655.969,687.149,656.621,685.874,656.083z"/>
			<path fill="#F8A27F" d="M681.797,655.969c0.211,0.407,1.201,0.877,1.845,0.116"/>
			<path fill="#F8A27F" d="M685.905,656.083c0.208,0.402,1.205,0.688,1.847-0.072"/>
			<polygon fill="#FFFFFF" points="683.002,659.884 684.643,659.943 686.335,659.946 684.669,660.865 			"/>
			<path fill="#FFFFFF" d="M685.874,656.083c0,0,0.695-0.922,1.842-0.116C687.715,655.969,687.149,656.621,685.874,656.083z"/>
			<g>
				<path fill="#3F3E40" d="M687.196,655.832c-0.055-0.27-0.391-0.307-0.583-0.258c-0.193,0.049-0.323,0.162-0.268,0.427
					c0.041,0.193,0.323,0.334,0.517,0.284C687.053,656.24,687.236,656.032,687.196,655.832z"/>
				<path fill="#1B181C" d="M686.947,655.866c-0.023-0.085-0.159-0.114-0.239-0.094c-0.087,0.024-0.129,0.113-0.113,0.197
					c0.023,0.086,0.126,0.143,0.214,0.119C686.897,656.063,686.968,655.953,686.947,655.866"/>
				<path fill="#FFFFFF" d="M686.811,655.916c0.02,0.049,0.102,0.049,0.152,0.025c0.048-0.024,0.063-0.079,0.042-0.127
					c-0.023-0.05-0.088-0.065-0.136-0.044C686.818,655.796,686.787,655.866,686.811,655.916z"/>
			</g>
			<path fill="#F8A27F" d="M687.715,655.969c-0.919-1.375-1.842,0.116-1.842,0.116S686.57,655.163,687.715,655.969z"/>
			<path fill="#C19B91" d="M683.642,656.083c0,0-0.925-1.491-1.845-0.116C681.797,655.969,682.365,656.621,683.642,656.083z"/>
			<path fill="#FFFFFF" d="M683.642,656.083c0,0-0.772-1.13-1.845-0.116C681.797,655.969,682.365,656.621,683.642,656.083z"/>
			<g>
				<path fill="#3F3E40" d="M682.208,655.832c0.054-0.27,0.389-0.307,0.578-0.258c0.191,0.049,0.32,0.161,0.26,0.425
					c-0.036,0.192-0.315,0.33-0.506,0.28C682.349,656.234,682.167,656.031,682.208,655.832z"/>
				<path fill="#1B181C" d="M682.454,655.865c0.02-0.087,0.153-0.114,0.238-0.093c0.087,0.024,0.129,0.107,0.108,0.193
					c-0.019,0.086-0.124,0.139-0.211,0.118C682.504,656.059,682.432,655.952,682.454,655.865"/>
				<path fill="#FFFFFF" d="M682.591,655.913c-0.024,0.047-0.103,0.052-0.15,0.029c-0.05-0.024-0.068-0.08-0.042-0.129
					c0.021-0.048,0.089-0.065,0.135-0.045C682.581,655.796,682.61,655.865,682.591,655.913z"/>
			</g>
			<path fill="#F8A27F" d="M681.797,655.969c0.919-1.375,1.845,0.116,1.845,0.116S682.871,655.021,681.797,655.969z"/>
			<path d="M687.563,654.53c-0.138-0.119-1.313-0.109-1.472-0.112c-0.091-0.005-0.081,0.157-0.089,0.256
				c-0.009,0.104,0.033,0.229,0.208,0.242c0.042,0.001,0.804-0.132,1.124-0.167c0.2-0.024,0.927,0.395,0.989,0.362
				C688.427,655.068,687.582,654.545,687.563,654.53z"/>
			<path d="M682.128,654.33c0.146-0.11,1.315-0.003,1.473,0.005c0.092,0.008,0.071,0.161,0.071,0.263
				c0,0.106-0.058,0.224-0.228,0.218c-0.041,0-0.789-0.19-1.107-0.258c-0.199-0.035-0.962,0.314-1.018,0.288
				C681.219,654.791,682.108,654.344,682.128,654.33z"/>
			<path fill="none" d="M684.527,660.549l0.605-0.038l1.348-0.633c0,0-1.04,0.093-1.372,0.106c-0.126,0.006-0.503,0.064-0.503,0.064
				s-0.436-0.096-0.581-0.08c-0.296,0.023-1.154-0.16-1.154-0.16l1.135,0.66L684.527,660.549z"/>
			<path fill="#F9B6B4" d="M685.133,660.511l-0.605,0.038l-0.521-0.08l-1.135-0.66c0,0,0.873,1.088,1.135,1.122
				c0.337,0.044,1.051,0.075,1.38,0.007c0.289-0.063,1.094-1.061,1.094-1.061L685.133,660.511z"/>
			<path fill="#F8A27F" d="M684.024,659.966c0.146-0.016,0.581,0.08,0.581,0.08s0.376-0.06,0.503-0.064
				c0.332-0.014,1.372-0.106,1.372-0.106s-1.083-0.285-1.412-0.289c-0.146,0-0.464,0.157-0.464,0.157s-0.378-0.173-0.513-0.166
				c-0.342,0.026-1.218,0.226-1.218,0.226S683.728,659.99,684.024,659.966z"/>
			<path fill="#FCC19C" d="M688.904,657.482c0,0,0.532,1.053,1.236-0.763c0.706-1.814-0.174-2.797-1.066-1.615L688.904,657.482z"/>
			<path opacity="0.4" fill="#F8A481" enable-background="new    " d="M689.884,656.303c0.123-0.481,0.07-1.16-0.124-1.222
				c-0.166-0.06-0.483,0.45-0.64,0.864c-0.026,0.07,0.052,0.276,0.031,0.349c-0.029,0.134-0.152,0.134-0.159,0.251
				c-0.012,0.316,0.244,0.198,0.385,0.246C689.574,656.851,689.563,657.5,689.884,656.303z"/>
			<path d="M682.466,651.898c0.063-0.117,0.851,1.196,1.455,1.393c-0.17-0.219-0.257-0.464-0.214-0.735
				c0.474,0.529,1.066,0.801,1.68,1.139c-0.068-0.271-0.312-0.54-0.261-0.846c0.266,0.188,0.591,0.285,0.898,0.406
				c0.004-0.224-0.044-0.499,0.18-0.622c0.112,0.213,0.464,0.281,0.685,0.382c0.038-0.311,0.05-0.706,0.209-0.986
				c0.626,0.303,1.169,0.451,1.391,1.128c0.182,0.56,0.281,1.112,0.286,1.705l0.004,1.011l0.073,0.176c0,0,0.625-2.035,0.269-4.671
				c0,0,0.354-2.161-4.241-2.378c-3.554-0.163-4.695,1.511-4.695,3.278c0,0-0.032,2.688,0.716,3.837l0.113-0.16
				c0,0-0.095-2.819-0.035-2.61C680.971,653.345,682.297,652.23,682.466,651.898z"/>
			<path fill="#1C75BC" d="M683.33,664.45c0,0,1.792,3.982,3.923-0.094c0,0,2.21-0.364,3.303-0.185
				c1.09,0.179,2.002,0.019,3.115,2.76c1.109,2.737,1.055,4.282,1.055,4.282s-1.887,1.523-3.82,1.279c0,0,0.431,5.197,0.555,6.206
				c0.12,1.007,0.098,3.15,0.198,4.43c0.091,1.123,0.243,2.043,0.288,2.4c0,0-5.49,4.621-13.479,0.266
				c-0.2-0.31,0.884-13.745,0.884-13.745s-1.909,0.64-3.718-1.183c0,0,1.106-3.448,1.981-4.918c0,0,0.493-1.008,2.058-0.928
				C681.238,665.107,683.33,664.45,683.33,664.45z"/>
			<path fill="#FCC19C" d="M676.033,671.262c1.367,0.687,2.881,0.811,2.881,0.811s-0.226,0.797-0.44,1.504
				c-0.134,0.436-0.369,0.924-0.295,1.793c0.109,1.293-0.503,4.974-0.451,6.229c0.011,0.214,0.043,0.417,0.085,0.612
				c0.213,0.643,0.377,1.017,0.484,1.225c0.067,0.113,0.122,0.202,0.167,0.26c0.378,0.256,0.693,0.936,0.769,1.066
				c0.072,0.132,0.181,1.318,0.241,1.846c0.031,0.287,0.021,1.208,0.021,1.208c-0.714,0.426-0.849-0.569-0.817-0.821
				c0.037-0.252-0.205-0.804-0.205-0.804c-0.46-0.037-0.565,0.688-0.565,0.688s0.258,0.816,0.497,0.971
				c0.061,0.036,0.297,0.18,0.364,0.188c1.688,0.238,0.882,0.679,0.882,0.679c-1.609,0.3-2.071-0.564-2.071-0.564
				s-0.708-0.754-0.984-1.06c-0.274-0.304-0.351-0.745-0.284-1.272c0.024-0.173-0.001-0.633-0.039-1.165
				c-0.028-0.133-0.169-0.761-0.161-1.02c0.015-0.283-0.28-2.675-0.28-2.675C675.064,677.717,676.033,671.262,676.033,671.262z"/>
			<path fill="#FCC19C" d="M694.477,671.447c-1.377,0.687-2.739,0.978-2.739,0.978s0.113,0.405,0.313,1.1
				c0.125,0.426,0.356,0.903,0.27,1.754c-0.128,1.269,0.429,4.868,0.356,6.102c-0.02,0.212-0.05,0.407-0.095,0.599
				c-0.225,0.634-0.397,0.999-0.503,1.209c-0.068,0.112-0.126,0.199-0.167,0.258c-0.385,0.252-0.709,0.928-0.782,1.053
				c-0.079,0.128-0.2,1.3-0.27,1.815c-0.033,0.282-0.038,1.188-0.038,1.188c0.705,0.403,0.861-0.571,0.83-0.821
				c-0.032-0.244,0.219-0.787,0.219-0.787c0.455-0.043,0.548,0.665,0.548,0.665s-0.27,0.803-0.513,0.956
				c-0.055,0.039-0.293,0.185-0.36,0.193c-1.692,0.254-0.893,0.676-0.893,0.676c1.605,0.269,2.08-0.583,2.08-0.583
				s0.719-0.751,0.997-1.049c0.281-0.307,0.362-0.736,0.307-1.256c-0.018-0.165,0.015-0.621,0.057-1.142
				c0.031-0.133,0.183-0.753,0.172-1.004c-0.009-0.278,0.322-2.625,0.322-2.625C695.401,677.545,694.477,671.447,694.477,671.447z"
				/>
			<path fill="#256AB4" d="M686.997,669.86c0,0-0.052,2.217,0.193,3.187c0,0,1.8,0.201,2.706-0.37c0,0-0.311-2.563-0.063-3.104
				C689.834,669.571,688.731,670.067,686.997,669.86z"/>
			<path fill="#256AB4" d="M685.874,666.029c0,0-0.507,0.165-0.661,0.165c-0.136,0-0.639-0.208-0.639-0.208s0.168,2.133,0.144,4.739
				c0,0,0.542,0.491,1.313,0L685.874,666.029z"/>
			<g>
				<path fill="#282929" d="M685.638,667.483c-0.002,0.183-0.149,0.322-0.331,0.322c-0.181-0.002-0.326-0.144-0.326-0.322
					c0-0.177,0.146-0.323,0.33-0.323C685.493,667.157,685.638,667.309,685.638,667.483z"/>
			</g>
			<g>
				<path fill="#282929" d="M685.638,668.951c-0.002,0.175-0.149,0.324-0.331,0.324c-0.181-0.004-0.326-0.148-0.326-0.324
					c0-0.175,0.146-0.324,0.33-0.324C685.493,668.627,685.638,668.775,685.638,668.951z"/>
			</g>
			<g opacity="0.4">
				<path id="XMLID_2_" fill="#F8A27F" d="M683.663,658.713c0,0,0.312,0.233,0.473,0.241c0.072,0.003,0.16,0.009,0.234,0.02l0,0l0,0
					c0.079-0.01,0.167-0.017,0.232-0.02c0.167-0.008,0.463-0.241,0.463-0.241c-0.275-0.027-0.499-0.042-0.701-0.034l0,0
					C684.16,658.67,683.939,658.682,683.663,658.713z"/>
				<path id="XMLID_1_" fill="#F8A27F" d="M683.947,658.093c-0.044,0.094-0.227,0.443-0.227,0.443l0.304-0.071l0.111-0.394
					l0.17-1.746C684.235,656.633,683.99,658.006,683.947,658.093z"/>
			</g>
		</g>
		<g>
			<path fill="#FCC19C" d="M679.868,684.653c0,0,0.167,1.811,0.41,2.396c0.244,0.593-0.858,2.433-1.807,2.637
				c-0.523,0.113-0.214-2.806-0.214-2.806l0.267-2.677L679.868,684.653z"/>
			<path fill="#F15A29" d="M669.146,667.006c0,0-5.112,0.89-5.064,2.061c0.173,4.237,2.906,4.28,3.107,6.609
				c0.599,7.051-1.312,9.768-1.312,9.768s1.512,0.584,6.368,0.584c4.857,0,5.686-0.472,5.858-0.688l2.205,1.879
				c0,0,0.396-6.516-0.917-14.927c-0.5-3.246-0.806-4.08-1.303-4.339c-0.499-0.257-3.598-0.686-3.598-0.686L669.146,667.006z"/>
			<path fill="#FCC19C" d="M670.589,663.632c0,0,0.674,2.628-0.778,3.457l2.506,6.203l2.195-6.166c0,0-1.081-0.191-0.831-3.74
				L670.589,663.632z"/>
			<path opacity="0.4" fill="#F8A27F" enable-background="new    " d="M670.706,665.557c0.048,0.017,0.098,0.047,0.144,0.077
				c0.927,0.724,1.922,0.311,2.851-0.207c-0.063-0.51-0.082-1.179-0.022-2.044l-3.093,0.245
				C670.589,663.632,670.839,664.607,670.706,665.557z"/>
			<path fill="#FCC19C" d="M676.813,657.225c-0.058-0.46-0.167-0.991-0.405-1.889c0,0-3.079-1.358-4.177-1.358
				c-1.09,0.004-4.146,1.358-4.146,1.358c-0.239,0.898-0.351,1.429-0.407,1.889c-0.113,0.851-0.204,3.509,0.439,4.751
				c0.54,1.035,2.891,3.753,4.117,3.65c0.004,0,0.009,0.01,0.013,0.007c0.008,0.003,0.013,0.005,0.017,0.005
				c1.226,0.1,3.692-2.581,4.119-3.667C676.903,660.63,676.927,658.075,676.813,657.225z"/>
			<path fill="#F8A27F" d="M673.118,660.089c0.24,0.467,1.724,0.886,2.243-0.199"/>
			<g>
				<path fill="#FFFFFF" d="M673.103,660.034c0,0,0.578-1.645,2.26-0.145c0,0-0.444,0.545-1.193,0.514
					C673.875,660.388,673.447,660.319,673.103,660.034z"/>
				<circle fill="#36469D" cx="674.272" cy="659.911" r="0.481"/>
				<circle fill="#251619" cx="674.272" cy="659.911" r="0.2"/>
				<path fill="#FFFFFF" d="M674.188,659.832c-0.009,0.07-0.072,0.118-0.146,0.108c-0.071-0.006-0.118-0.071-0.113-0.146
					c0.012-0.072,0.078-0.119,0.15-0.11C674.151,659.695,674.202,659.759,674.188,659.832z"/>
				<g>
					<path fill="#251619" d="M673.103,660.034c0,0,0.052-0.171,0.214-0.389c0.166-0.214,0.493-0.453,0.893-0.469
						c0.124-0.009,0.182,0.013,0.275,0.022c0.083,0.018,0.182,0.058,0.267,0.08c0.168,0.065,0.295,0.171,0.399,0.261
						c0.198,0.191,0.26,0.357,0.26,0.357s-0.148-0.102-0.37-0.211c-0.111-0.057-0.248-0.098-0.38-0.146
						c-0.071-0.017-0.123-0.037-0.208-0.044l-0.235-0.021c-0.297-0.001-0.586,0.145-0.788,0.286
						C673.225,659.902,673.103,660.034,673.103,660.034z"/>
				</g>
			</g>
			<path fill="#F8A27F" d="M671.249,660.089c-0.239,0.467-1.723,0.886-2.242-0.199"/>
			<g>
				<path fill="#FFFFFF" d="M671.269,660.034c0,0-0.575-1.645-2.26-0.145c0,0,0.444,0.545,1.193,0.514
					C670.499,660.388,670.929,660.319,671.269,660.034z"/>
				<circle fill="#36469D" cx="670.1" cy="659.911" r="0.48"/>
				<circle fill="#251619" cx="670.101" cy="659.91" r="0.198"/>
				<path fill="#FFFFFF" d="M670.183,659.832c0.01,0.07,0.076,0.118,0.149,0.108c0.071-0.006,0.118-0.071,0.11-0.146
					c-0.009-0.072-0.072-0.119-0.146-0.11C670.223,659.695,670.176,659.759,670.183,659.832z"/>
				<g>
					<path fill="#251619" d="M671.269,660.034c0,0-0.12-0.134-0.328-0.271c-0.2-0.143-0.492-0.284-0.79-0.282l-0.236,0.02
						c-0.083,0.006-0.14,0.027-0.209,0.044c-0.133,0.048-0.271,0.09-0.379,0.146c-0.224,0.107-0.37,0.213-0.37,0.213
						s0.063-0.168,0.261-0.361c0.105-0.086,0.227-0.197,0.399-0.261c0.085-0.023,0.186-0.065,0.271-0.076
						c0.092-0.012,0.149-0.029,0.27-0.023c0.402,0.011,0.735,0.25,0.896,0.464C671.222,659.86,671.269,660.034,671.269,660.034z"/>
				</g>
			</g>
			<g>
				<path fill="#AA6A41" d="M675.668,659.158c0,0-0.011-0.015-0.022-0.026c-0.01-0.02-0.024-0.045-0.05-0.077
					c-0.048-0.065-0.118-0.15-0.23-0.228c-0.051-0.042-0.111-0.082-0.172-0.119c-0.07-0.031-0.14-0.065-0.217-0.09
					c-0.077-0.021-0.156-0.043-0.241-0.05c-0.082-0.016-1.636,0.25-1.636,0.25l-0.018,0.006c-0.121,0.04-0.252-0.023-0.295-0.147
					c-0.035-0.116,0.018-0.233,0.118-0.285c0,0,0.017-0.005,0.038-0.014c0.024-0.013,0.055-0.029,0.097-0.045
					c0.085-0.034,0.208-0.077,0.356-0.114c0.071-0.021,0.154-0.037,0.241-0.044c0.078-0.022,0.178-0.04,0.278-0.046
					c0.102-0.009,0.194-0.021,0.287-0.021h0.069l0.046,0.02l0.039,0.012l0.154,0.021c0.102,0.021,0.204,0.035,0.307,0.074
					c0.099,0.028,0.193,0.072,0.277,0.119c0.083,0.046,0.166,0.104,0.232,0.16c0.072,0.059,0.13,0.115,0.179,0.173
					c0.098,0.12,0.154,0.239,0.19,0.314c0.014,0.042,0.024,0.074,0.031,0.097c0.007,0.025,0.008,0.035,0.008,0.035
					c0.004,0.021-0.008,0.042-0.029,0.044C675.689,659.18,675.674,659.174,675.668,659.158z"/>
				<path fill="#AA6A41" d="M667.973,659.158c0,0,0.004-0.015,0.02-0.026c0.011-0.02,0.024-0.045,0.052-0.077
					c0.048-0.065,0.118-0.15,0.229-0.228c0.051-0.042,0.111-0.082,0.173-0.119c0.071-0.031,0.139-0.065,0.215-0.09
					c0.074-0.021,0.157-0.043,0.242-0.05c0.083-0.016,1.633,0.25,1.633,0.25l0.022,0.006c0.118,0.04,0.252-0.023,0.295-0.147
					c0.036-0.116-0.017-0.233-0.121-0.285c0,0-0.014-0.005-0.033-0.014c-0.024-0.013-0.059-0.029-0.098-0.045
					c-0.085-0.034-0.208-0.077-0.355-0.114c-0.071-0.021-0.155-0.037-0.242-0.044c-0.083-0.022-0.179-0.04-0.279-0.046
					c-0.101-0.009-0.193-0.021-0.286-0.021h-0.069l-0.044,0.02l-0.04,0.012l-0.154,0.021c-0.107,0.021-0.209,0.035-0.307,0.074
					c-0.099,0.028-0.195,0.072-0.281,0.119c-0.087,0.046-0.164,0.104-0.235,0.16c-0.068,0.059-0.123,0.115-0.173,0.173
					c-0.096,0.12-0.158,0.239-0.188,0.314c-0.02,0.042-0.024,0.074-0.033,0.097c-0.007,0.025-0.009,0.035-0.009,0.035
					c-0.004,0.021,0.009,0.042,0.024,0.044C667.952,659.18,667.967,659.174,667.973,659.158z"/>
			</g>
			<g>
				<g>
					<path fill="#F8A27F" d="M671.558,661.417c-0.079,0.124-0.148,0.257-0.128,0.386c0.005,0.068,0.04,0.134,0.079,0.163
						c0.044,0.026,0.108,0.044,0.165,0.048l-0.006,0.001c0.028-0.006,0.003-0.004,0.078-0.032c0.094,0.033,0.056,0.053,0.086,0.072
						c0.024,0.026,0.064,0.05,0.112,0.071c0.091,0.034,0.185,0.071,0.286,0.089c-0.103,0.014-0.21,0.01-0.308-0.027
						c-0.05-0.013-0.11-0.034-0.155-0.074c-0.009-0.016-0.061-0.057-0.018-0.035c0.028-0.008-0.034,0.032-0.057,0.036l-0.005,0.001
						h-0.001c-0.086,0.011-0.174-0.006-0.242-0.072c-0.071-0.069-0.087-0.148-0.091-0.224
						C671.338,661.645,671.447,661.507,671.558,661.417z"/>
				</g>
				<g>
					<path fill="#F8A27F" d="M672.902,661.417c0.118,0.087,0.219,0.226,0.209,0.396c-0.002,0.075-0.024,0.158-0.092,0.225
						c-0.071,0.067-0.16,0.082-0.241,0.072h-0.001l-0.01-0.002c-0.023-0.004-0.08-0.044-0.059-0.036
						c0.046-0.022-0.007,0.024-0.017,0.034c-0.044,0.041-0.102,0.064-0.15,0.075c-0.103,0.036-0.213,0.04-0.311,0.026
						c0.101-0.019,0.195-0.055,0.287-0.089c0.048-0.021,0.084-0.041,0.116-0.071c0.027-0.021-0.013-0.039,0.084-0.072
						c0.072,0.027,0.049,0.025,0.077,0.032l-0.006-0.001c0.058-0.003,0.119-0.021,0.166-0.048c0.039-0.026,0.074-0.094,0.079-0.163
						C673.05,661.673,672.983,661.544,672.902,661.417z"/>
				</g>
			</g>
			<g>
				<g>
					<path fill="#BE1E2D" d="M672.732,662.837c-0.31,0-0.468,0.181-0.468,0.181s-0.157-0.181-0.464-0.181
						c-0.311,0-0.479,0.499-0.986,0.42c0,0,0.519,1.153,1.45,1.153c0.927,0,1.559-1.153,1.559-1.153
						C673.378,663.273,673.041,662.837,672.732,662.837z"/>
					<path fill="#FFFFFF" d="M671.033,663.386c0,0,0.461,0.686,1.259,0.686c0.803,0,1.265-0.672,1.265-0.672
						s-0.64-0.166-1.329-0.166C671.546,663.231,671.033,663.386,671.033,663.386z"/>
				</g>
			</g>
			<g>
				<path fill="#EF4136" d="M665.833,685.245c0,0,0.087-0.167,0.192-0.466c0.125-0.289,0.248-0.733,0.406-1.259
					c0.071-0.267,0.12-0.563,0.193-0.877c0.066-0.308,0.142-0.638,0.166-0.982c0.041-0.346,0.082-0.698,0.125-1.065
					c0.051-0.362,0.022-0.734,0.038-1.105c0.004-0.371,0.01-0.742,0.015-1.113c-0.036-0.36-0.072-0.723-0.104-1.066
					c-0.035-0.352-0.071-0.688-0.098-1.002c-0.024-0.32-0.12-0.61-0.17-0.886c-0.238-1.094-0.398-1.824-0.398-1.824
					s0.188,0.728,0.468,1.813c0.06,0.27,0.166,0.56,0.204,0.878c0.043,0.319,0.09,0.655,0.138,1.003
					c0.048,0.354,0.096,0.71,0.146,1.075c0.009,0.369,0.018,0.745,0.026,1.12c-0.001,0.376,0.04,0.752,0.006,1.117
					c-0.029,0.37-0.061,0.735-0.084,1.086c-0.015,0.356-0.079,0.69-0.134,1.015c-0.059,0.313-0.099,0.624-0.163,0.898
					c-0.142,0.547-0.255,1.013-0.374,1.331c-0.109,0.321-0.181,0.49-0.181,0.49L665.833,685.245z"/>
			</g>
			<g>
				<path fill="#EF4136" d="M678.015,685.52c0,0-0.061-0.168-0.146-0.486c-0.099-0.315-0.182-0.771-0.299-1.305
					c-0.071-0.544-0.212-1.175-0.236-1.861c-0.063-0.688-0.108-1.412-0.086-2.143c-0.02-0.734,0.027-1.458,0.097-2.138
					c0.049-0.685,0.105-1.314,0.217-1.854c0.178-1.07,0.303-1.786,0.303-1.786s-0.093,0.719-0.233,1.8
					c-0.09,0.537-0.118,1.167-0.142,1.85c-0.043,0.679-0.06,1.397-0.012,2.125c0.007,0.723,0.08,1.441,0.166,2.107
					c0.054,0.676,0.219,1.287,0.309,1.822c0.136,0.517,0.234,0.962,0.337,1.25c0.089,0.293,0.159,0.464,0.159,0.464L678.015,685.52z
					"/>
			</g>
			<g>
				<path fill="#EF4136" d="M671.286,676.051c0,0-0.066,0.038-0.183,0.107c-0.118,0.063-0.267,0.187-0.495,0.261
					c-0.22,0.088-0.483,0.185-0.783,0.215c-0.297,0.036-0.626,0.024-0.946-0.056c-0.64-0.195-1.114-0.702-1.315-1.129
					c-0.217-0.425-0.249-0.734-0.249-0.734s0.12,0.289,0.398,0.645c0.26,0.357,0.704,0.776,1.255,0.924
					c0.273,0.078,0.563,0.108,0.836,0.087c0.275-0.024,0.53-0.056,0.748-0.119C670.989,676.149,671.286,676.051,671.286,676.051z"/>
			</g>
			<g>
				<path fill="#EF4136" d="M677.548,674.716c0,0-0.025,0.315-0.245,0.739c-0.108,0.211-0.27,0.445-0.491,0.648
					c-0.226,0.211-0.517,0.369-0.83,0.476c-0.319,0.077-0.646,0.092-0.947,0.057c-0.3-0.031-0.562-0.128-0.78-0.215
					c-0.224-0.072-0.379-0.204-0.501-0.262c-0.115-0.069-0.183-0.107-0.183-0.107s0.302,0.098,0.736,0.203
					c0.218,0.065,0.477,0.096,0.752,0.118c0.272,0.021,0.563-0.008,0.832-0.085c0.554-0.147,0.998-0.563,1.258-0.923
					C677.43,675.005,677.548,674.716,677.548,674.716z"/>
			</g>
			<path fill="#FBD578" d="M678.179,655.488c0,0-0.617-3.009-3.199-2.65c0,0-2.323-2.071-5.484-1.09c0,0-1.881,0.58-2.938,2.87
				c0,0-0.505,1.238-1.042,1.71c-0.309,0.278-1.232-0.503-1.555,0.443c-0.14,0.41-0.121,0.867,0.084,1.254
				c0.113,0.2,0.271,0.394,0.516,0.479c0,0-0.055,0.05-0.13,0.141c-0.785,0.972-0.169,2.461,1.075,2.557
				c0.161,0.016,0.315,0,0.472-0.044c0,0,0.19,2.89,3.098,2.16c0,0-1.342-2.181-1.157-2.357c0.389-0.388,1.332-0.415,1.621-2.509
				c0.069-0.47,0.171-0.93,0.343-1.373c0.443-1.15,1.428-2.813,3.358-2.496c0,0,1.419,0.172,2.052,1.195
				c0.187,0.312,0.268,0.672,0.261,1.03c-0.014,0.668,0.049,2.583,1.246,3.001l0,0c0,0-0.354,2.109-1.431,3.491
				c-0.171,0.224,2.737,0.505,2.88-1.966c0,0,0.38-0.185,0.85-0.697c0.424-0.467,0.574-2.031,0.237-3.171
				C679.06,656.526,678.34,656.01,678.179,655.488z"/>
			<g>
				<circle fill="#FFFFFF" cx="672.948" cy="668.825" r="0.272"/>
				<circle fill="#FFFFFF" cx="670.333" cy="668.059" r="0.271"/>
				<path fill="#FFFFFF" d="M672.631,668.951c0,0.15-0.121,0.272-0.27,0.272s-0.271-0.122-0.271-0.272
					c0-0.146,0.122-0.266,0.271-0.266S672.631,668.806,672.631,668.951z"/>
				<path fill="#FFFFFF" d="M671.964,668.951c0,0.15-0.118,0.272-0.266,0.272c-0.15,0-0.272-0.122-0.272-0.272
					c0-0.146,0.122-0.266,0.272-0.266C671.843,668.682,671.964,668.806,671.964,668.951z"/>
				<circle fill="#FFFFFF" cx="670.709" cy="668.401" r="0.271"/>
				<circle fill="#FFFFFF" cx="671.132" cy="668.776" r="0.27"/>
				<path fill="#FFFFFF" d="M670.333,667.575c0,0.153-0.119,0.272-0.271,0.272c-0.15,0-0.265-0.119-0.265-0.272
					c0-0.146,0.118-0.263,0.265-0.263C670.215,667.31,670.333,667.427,670.333,667.575z"/>
				<circle fill="#FFFFFF" cx="669.8" cy="667.169" r="0.271"/>
				<circle fill="#FFFFFF" cx="674.604" cy="667.412" r="0.272"/>
				<circle fill="#FFFFFF" cx="674.229" cy="667.848" r="0.271"/>
				<circle fill="#FFFFFF" cx="673.832" cy="668.2" r="0.271"/>
				<circle fill="#FFFFFF" cx="673.398" cy="668.528" r="0.271"/>
				<path fill="#FFFFFF" d="M672.277,670.864"/>
			</g>
			<path fill="none" stroke="#F8A27F" stroke-width="0.0965" stroke-miterlimit="10" d="M670.771,662.842
				c-0.153-0.034-0.438,0.25-0.394,0.399"/>
			<path fill="none" stroke="#F8A27F" stroke-width="0.0965" stroke-miterlimit="10" d="M673.97,662.975
				c0.148-0.039,0.436,0.244,0.392,0.396"/>
		</g>
		<path fill="#FBB791" d="M665.558,671.132c0,0-0.308,0.857,0,0.886c0.311,0.029,0.791-0.083,0.791-0.083
			S664.496,672.908,665.558,671.132z"/>
		<g>
			<g>
				<path fill="#00A79D" d="M669.964,687.72c-0.721,0.44-1.877-0.648-2.058-1.22c-0.051-0.164,0.019-0.402,0.153-0.643
					c0.01-0.023,0.023-0.046,0.037-0.065c0.19-0.313,0.285-0.827-0.199-1.564c-0.258-0.396-0.451-0.764-0.604-1.116
					c-0.855-1.98,0.304-2.313,0.304-2.313c4.302,0.923,2.644,4.883,1.831,5.658C669.357,686.517,670.425,687.448,669.964,687.72z"/>
				<path fill="#00A79D" d="M668.419,682.202c-0.214,0.288-0.451,0.545-0.704,0.757c-0.567,0.479-1.22,0.753-1.92,0.753
					c-2.154,0.001-3.9-2.595-3.902-5.805c-0.002-3.2,1.744-5.804,3.896-5.804c2.157,0,3.899,2.599,3.904,5.803
					C669.695,679.609,669.2,681.133,668.419,682.202z"/>
				<path fill="#00A79D" d="M662.533,679.854c0,0-0.435,2.012,1.61,4.275c0.594,0.652,0.583,1.174,0.447,1.509
					c-0.119,0.29-0.164,0.574-0.08,0.735c0.267,0.534,1.581,1.428,2.225,0.888c0.412-0.352-0.788-1.103-0.728-1.174
					c0.458-0.603,1.192-2.735-0.05-4.39C665.355,680.896,664.301,680.213,662.533,679.854z"/>
				<path fill="#FCC19C" d="M671.222,678.364l-1.124,0.708c0,0-0.061,0.804,0.216,1.097c0.278,0.29,0.237-0.326,0.237-0.326
					s0.023,1.004,0.544,0.756C671.616,680.351,671.985,678.999,671.222,678.364z"/>
				<path fill="#00A79D" d="M668.385,673.505c0,0,3.457,1.396,3.16,5.293c-0.021,0.23-1.447,0.269-1.447,0.269
					s-0.544-3.892-3.852-3.177L668.385,673.505z"/>
				<path fill="#603913" d="M666.484,675.554c-0.032,0.149-0.18,0.252-0.336,0.217c-0.157-0.025-0.258-0.18-0.222-0.334
					c0.032-0.157,0.182-0.254,0.334-0.224C666.413,675.245,666.511,675.396,666.484,675.554z"/>
				<circle fill="#603913" cx="666.32" cy="676.39" r="0.285"/>
			</g>
			<path fill="#FCC19C" d="M665.954,681.632c0,0,1.476,0.44,2.031,0.162c0.559-0.275,0.814,0.023,0.585,0.27
				c-0.629,0.681-1.398,0.182-1.398,0.182s1.137,0.374,1.674,0.108c0.38-0.193,0.437-0.02,0.437-0.02s0.331,1.061-0.214,1.516
				c-0.542,0.449-2.45,0.892-3.651-0.447L665.954,681.632z"/>
			<path fill="#FBB791" d="M669.34,670.308c-0.408,0.46-0.635,1.445-0.433,1.736c0.2,0.293,0.696,0.155,1.104-0.308
				c0.408-0.466,0.521-1.142,0.321-1.432C670.131,670.014,669.749,669.843,669.34,670.308z"/>
			<path fill="#F15A29" d="M667.049,667.106c0,0-6.102,6.536-7.038,9.807c-1.019,3.579-0.258,3.035,5.332,6.653l1.092-1.893
				c0,0-4.171-1.934-4.265-4.054c-0.065-1.438,3.108-5.65,4.877-6.416"/>
			<path fill="#FBB791" d="M662.094,670.52c0.409,0.461,0.641,1.446,0.434,1.739c-0.2,0.292-0.689,0.154-1.102-0.305
				c-0.409-0.464-0.524-1.14-0.324-1.436C661.308,670.231,661.686,670.063,662.094,670.52z"/>
			<g>
				<path fill="#00A79D" d="M663.711,673.362c0,0-3.673,3.01-3.062,5.351c0.281,1.073,1.249,0.436,1.249,0.436
					s1.062-2.211,2.447-2.644L663.711,673.362z"/>
				<path fill="#FCC19C" d="M660.693,678.615l1.191,0.59c0,0,0.146,0.783-0.098,1.107c-0.25,0.319-0.272-0.298-0.272-0.298
					s0.085,1.004-0.462,0.811C660.508,680.632,660,679.327,660.693,678.615z"/>
			</g>
			<path fill="#FCC19C" d="M665.621,664.828c2.376,0,4.301,1.27,4.303,4.055c0,2.791-1.718,5.908-4.096,5.908
				c-2.378,0-4.233-2.925-4.494-5.708C661.075,666.256,663.24,664.828,665.621,664.828z"/>
			<g>
				<path fill="#FFFFFF" d="M664.656,671.175c0,0-0.427,0.326-0.924,0.313c-0.545-0.018-0.524-0.201-0.524-0.201
					s-0.129-0.711,0.402-0.844c0.055-0.021,0.116-0.024,0.179-0.024C664.224,670.417,664.606,670.765,664.656,671.175z"/>
				<path fill="#1C75BC" d="M664.31,671.352c0,0-0.001,0.009-0.011,0.021c-0.098,0.043-0.188,0.074-0.309,0.094
					c-0.393,0.07-0.637-0.039-0.637-0.039s-0.021-0.292,0.045-0.509l0.115-0.24c0.035-0.048,0.079-0.09,0.129-0.128c0,0,0,0,0.002,0
					c0.006-0.002,0.016-0.007,0.022-0.014c0.012,0,0.019-0.002,0.024-0.003l0.058-0.009h0.013l0.012-0.002h0.005l0.019,0.002
					c0.069,0,0.138,0.012,0.203,0.025c0.031,0.008,0.069,0.021,0.1,0.033C664.299,670.741,664.33,671.031,664.31,671.352z"/>
				<path fill="#754E35" d="M664.646,671.068c-0.002-0.036-0.013-0.078-0.028-0.124c-0.004-0.023-0.013-0.052-0.023-0.072
					c-0.009-0.025-0.023-0.055-0.037-0.082c-0.025-0.054-0.063-0.115-0.113-0.169c-0.044-0.058-0.104-0.108-0.17-0.153
					c-0.137-0.086-0.307-0.145-0.48-0.146l-0.034,0.002h-0.01h-0.004l-0.005,0.002l-0.015,0.003h-0.016
					c-0.118-0.003-0.285,0.087-0.396,0.192c-0.103,0.095-0.131,0.189-0.131,0.189s-0.052,0.13-0.055,0.185
					c-0.004,0.068,0,0.119,0.009,0.17c0.003,0.05,0.019,0.091,0.025,0.119c0.007,0.035,0.019,0.064,0.023,0.08
					c0.008,0.016,0.01,0.023,0.01,0.023s0-0.039,0.007-0.108c0.002-0.03,0.006-0.072,0.012-0.118
					c0.002-0.024,0.006-0.047,0.013-0.072c0.004-0.022,0.009-0.051,0.022-0.074c0.006-0.025,0.015-0.054,0.024-0.08
					c0.008-0.026,0.024-0.049,0.035-0.074c0.014-0.025,0.035-0.05,0.05-0.071c0.022-0.022,0.04-0.043,0.063-0.057
					c0.027-0.02,0.048-0.04,0.078-0.048c0.023-0.018,0.054-0.025,0.085-0.029l0.042-0.01c0.008-0.004,0.022-0.006,0.029-0.006
					c0.007,0,0.019-0.003,0.024-0.004l0.058-0.007h0.013l0.008-0.003h0.01l0.019,0.003c0.069,0,0.138,0.011,0.203,0.023
					c0.031,0.008,0.069,0.022,0.101,0.033c0.025,0.009,0.059,0.021,0.084,0.036c0.058,0.028,0.113,0.064,0.158,0.105
					c0.023,0.018,0.044,0.037,0.066,0.061c0.024,0.021,0.04,0.045,0.055,0.063c0.009,0.017,0.021,0.024,0.029,0.033
					c0.005,0.008,0.012,0.021,0.02,0.029c0.016,0.022,0.03,0.039,0.04,0.063c0.024,0.038,0.045,0.072,0.061,0.104
					c0.029,0.063,0.05,0.095,0.05,0.095S664.655,671.132,664.646,671.068z"/>
			</g>
			<g>
				<path fill="#FFFFFF" d="M668.195,670.947c0,0-0.417,0.318-0.903,0.309c-0.526-0.015-0.511-0.194-0.511-0.194
					s-0.126-0.695,0.396-0.829c0.056-0.014,0.113-0.02,0.174-0.021C667.771,670.208,668.146,670.551,668.195,670.947z"/>
				<path fill="#1C75BC" d="M667.857,671.123c0,0-0.001,0.008-0.01,0.019c-0.096,0.042-0.187,0.072-0.302,0.09
					c-0.385,0.072-0.624-0.032-0.624-0.032s-0.017-0.299,0.052-0.518l0.115-0.225c0.029-0.045,0.071-0.086,0.118-0.116l0,0
					c0.009-0.008,0.015-0.012,0.024-0.017c0.007,0,0.017-0.001,0.022-0.001l0.057-0.007l0.015-0.002h0.009h0.023
					c0.069,0,0.133,0.01,0.195,0.029c0.033,0.005,0.07,0.017,0.094,0.023C667.841,670.52,667.877,670.805,667.857,671.123z"/>
				<path fill="#754E35" d="M668.158,670.726c-0.004-0.025-0.015-0.048-0.023-0.076c-0.013-0.024-0.023-0.053-0.038-0.078
					c-0.018-0.031-0.037-0.071-0.066-0.108c0,0-0.074-0.101-0.185-0.183c-0.125-0.096-0.295-0.167-0.403-0.158
					c-0.03-0.005,0,0-0.089-0.01h-0.031l-0.013,0.002h-0.003h-0.008l-0.013,0.003l-0.059,0.006
					c-0.021,0.004-0.031,0.002-0.059,0.007l-0.067,0.023c-0.024,0.008-0.044,0.013-0.065,0.021l-0.061,0.029
					c-0.037,0.021-0.072,0.052-0.103,0.073c-0.018,0.015-0.027,0.03-0.044,0.048c-0.011,0.02-0.024,0.03-0.032,0.049
					c-0.021,0.033-0.042,0.071-0.055,0.106c-0.023,0.071-0.035,0.132-0.04,0.198c-0.004,0.06,0.001,0.114,0.01,0.163
					c0.003,0.048,0.016,0.089,0.024,0.119c0.009,0.033,0.02,0.06,0.023,0.073c0.008,0.021,0.012,0.027,0.012,0.027
					s0-0.039,0.004-0.107c0.003-0.029,0.005-0.072,0.013-0.119c0.001-0.021,0.009-0.044,0.013-0.069
					c0.003-0.024,0.012-0.054,0.02-0.077c0.006-0.023,0.016-0.049,0.024-0.074c0.009-0.024,0.024-0.05,0.034-0.072
					c0.015-0.026,0.032-0.048,0.05-0.072c0.024-0.016,0.039-0.041,0.063-0.055c0.024-0.013,0.045-0.035,0.072-0.047
					c0.026-0.011,0.056-0.022,0.086-0.023l0.04-0.014c0.009-0.006,0.02-0.006,0.03-0.006c0.008,0,0.019-0.001,0.024-0.001
					l0.057-0.007l0.013-0.002h0.008h0.024c0.068,0,0.133,0.01,0.195,0.029c0.034,0.005,0.068,0.017,0.095,0.023
					c0.032,0.015,0.063,0.024,0.09,0.039c0.054,0.032,0.109,0.063,0.152,0.104c0.024,0.021,0.042,0.039,0.063,0.062
					c0.023,0.021,0.038,0.037,0.06,0.065c0.007,0.008,0.015,0.018,0.023,0.026c0.01,0.015,0.02,0.021,0.024,0.029
					c0.013,0.024,0.025,0.04,0.038,0.059c0.023,0.04,0.044,0.072,0.06,0.104c0.028,0.061,0.049,0.092,0.049,0.092
					s-0.002-0.036-0.009-0.104C668.182,670.808,668.17,670.773,668.158,670.726z"/>
			</g>
			<path fill="#FBAB2F" d="M667.041,673.323c0,0.426-0.559,0.771-1.252,0.771c-0.687,0-1.248-0.35-1.248-0.771
				s0.557-0.772,1.248-0.772C666.481,672.551,667.035,672.9,667.041,673.323z"/>
			<path fill="#FFFFFF" d="M665.347,673.212c0,0-0.512,0.925,0.278,0.933c0.784,0.01,0.619-0.908,0.59-0.933
				c-0.023-0.023-0.213,0-0.213,0s-0.031,0.743-0.379,0.688c-0.351-0.051-0.095-0.699-0.095-0.699L665.347,673.212z"/>
			<path fill="#AA6A41" d="M669.757,666.371c-0.024-0.046-0.046-0.088-0.072-0.135c-0.061-0.104-0.125-0.202-0.205-0.291
				c-1.602-2.035-6.713-1.18-7.625,0.13c-1.463,2.107-0.05,5.048-0.05,5.048c0.132,0.504,0.775,0.545,0.775,0.545
				c-0.962-0.988-0.544-2.582-0.544-2.582c0.776-0.595,1.299-1.303,1.653-1.965c0.195,0.627,0.83,1.623,2.925,1.523
				c0,0-1.844-0.188-1.921-1.24c0,0,1.607,1.202,2.606,0.992c0,0-1.149-0.332-1.397-0.933c0,0,0.821,0.438,1.722,0.525
				c0.133,0.012,0.686,0.069,0.834,0.121c0.065,0.053,1.36,2.603,0.692,2.987c0,0,0.3,0.504,0.431,0.007
				C669.584,671.111,670.603,668.066,669.757,666.371z"/>
		</g>
		<path fill="#FFFFFF" d="M663.387,670.758c-0.015,0.076,0.029,0.153,0.104,0.166c0.069,0.013,0.14-0.04,0.153-0.113
			c0.014-0.07-0.03-0.149-0.099-0.162C663.473,670.638,663.404,670.685,663.387,670.758z"/>
		<path fill="#FFFFFF" d="M666.957,670.592c-0.016,0.072,0.025,0.15,0.099,0.162c0.069,0.014,0.139-0.033,0.153-0.11
			c0.015-0.078-0.026-0.149-0.098-0.16C667.043,670.465,666.974,670.515,666.957,670.592z"/>
		<path opacity="0.4" fill="none" stroke="#F8A481" stroke-width="0.1129" stroke-miterlimit="10" enable-background="new    " d="
			M686.4,659.589c0.239,0.022,0.415,0.236,0.395,0.477"/>
		<path opacity="0.4" fill="none" stroke="#F8A481" stroke-width="0.1129" stroke-miterlimit="10" enable-background="new    " d="
			M682.943,659.461c-0.238,0.021-0.415,0.233-0.393,0.477"/>
		<path fill="#FBB791" d="M665.495,671.308c0,0-0.267,0.737,0,0.762c0.267,0.025,0.677-0.07,0.677-0.07
			S664.584,672.83,665.495,671.308z"/>
		<g>
			<path fill="#754C29" d="M645.135,641.056v48.898h65.956v-48.898H645.135z M705.406,653.849v24.384v6.036h-55.721v-38.664h55.721
				V653.849z"/>
		</g>
	</g>
	<g>
		<rect x="1228.749" y="649.647" fill="#9AD7D6" width="130.991" height="41.922"/>
		<rect x="1222.838" y="638.344" fill="#68C7C2" width="142.823" height="16.409"/>
		<rect x="1274.45" y="667.147" fill="#68C7C2" width="37.469" height="11.302"/>
		<rect x="1277.986" y="668.97" fill="#CCEAEA" width="30.403" height="7.651"/>
	</g>
	<path fill="#FFFFFF" d="M1457.075,621.406c0,1.674-1.355,2.593-3.034,2.593H454.475c-1.676,0-2.66-0.923-2.66-2.593v-75.571
		c0-1.674,0.984-2.58,2.66-2.58h999.565c1.679,0,3.033,0.904,3.033,2.58v75.571H1457.075z"/>
</g>
<g>
	<path fill="#F3F3F3" d="M1185.156,796.314H721.094c-5.357,0-76.463,13.249-76.463,13.249c0,2.058,71.105,6.842,76.463,6.842
		h464.063c5.332,0,80.861-2.779,80.311-6.748C1265.467,809.661,1190.49,796.314,1185.156,796.314z"/>
	<g>
		<rect x="641.156" y="853.706" fill="#FFFFFF" width="40.938" height="84.151"/>
		<rect x="1226.799" y="853.706" fill="#FFFFFF" width="40.938" height="84.151"/>
		<path fill="#FFFFFF" d="M1267.738,813.703c0-1.907-1.717-3.209-3.834-3.209H644.497c-2.119,0-3.341,1.303-3.341,3.209v36.843
			c0,1.907,1.22,3.151,3.341,3.151h619.404c2.117,0,3.834-1.249,3.834-3.151L1267.738,813.703L1267.738,813.703z"/>
		
			<rect x="870.865" y="826.414" fill="#FFFFFF" stroke="#F1F2F2" stroke-width="2" stroke-miterlimit="10" width="167.164" height="26.155"/>
	</g>
</g>
</svg>
