<?xml version="1.0" encoding="utf-8"?>
<!-- Generator: Adobe Illustrator 16.0.0, SVG Export Plug-In . SVG Version: 6.00 Build 0)  -->
<!DOCTYPE svg PUBLIC "-//W3C//DTD SVG 1.1//EN" "http://www.w3.org/Graphics/SVG/1.1/DTD/svg11.dtd">
<svg version="1.1" id="Layer_1" xmlns="http://www.w3.org/2000/svg" xmlns:xlink="http://www.w3.org/1999/xlink" x="0px" y="0px"
	 width="1350px" height="600px" viewBox="0 0 1350 600" enable-background="new 0 0 1350 600" xml:space="preserve">
<rect x="-298.312" y="431.664" fill="#DEB283" width="1915.238" height="424.328"/>
<rect x="-303.073" y="-224.008" fill="#DEEAF6" width="1913.652" height="656.868"/>
<g>
	<g>
		<polygon fill="#262262" points="232.231,594.858 279.275,525.815 1058.478,525.815 1116.187,594.858 		"/>
		<path fill="#262262" d="M1056.293,531.957l47.443,56.764H243.105l38.679-56.764H1056.293 M1060.67,519.678h-783.9L221.36,601
			h907.279L1060.67,519.678L1060.67,519.678z"/>
	</g>
</g>
<g>
	<g>
		<rect x="578.248" y="301.61" fill="#BCBEC0" width="229.373" height="44.568"/>
		<rect x="586.761" y="310.242" fill="#101E28" width="187.144" height="14.975"/>
		<circle fill="#808285" cx="792.206" cy="316.784" r="8.401"/>
		<circle fill="#808285" cx="767.999" cy="337.604" r="4.748"/>
		<circle fill="#808285" cx="753.772" cy="337.603" r="4.749"/>
		<path fill="#808285" d="M741.48,335.047c0,0.701,0.57,1.273,1.276,1.273c0.704,0,1.275-0.572,1.275-1.273
			c0-0.705-0.571-1.281-1.275-1.281S741.48,334.342,741.48,335.047z"/>
		<circle fill="#808285" cx="742.76" cy="340.38" r="1.276"/>
		<circle fill="#808285" cx="589.809" cy="338.603" r="1.278"/>
		<circle fill="#808285" cx="596.924" cy="338.603" r="1.278"/>
		<circle fill="#808285" cx="604.036" cy="338.603" r="1.278"/>
		<circle fill="#808285" cx="611.15" cy="338.603" r="1.278"/>
		<circle fill="#808285" cx="618.264" cy="338.603" r="1.278"/>
		<circle fill="#808285" cx="625.38" cy="338.603" r="1.278"/>
	</g>
	<g>
		<path d="M1111.697,210.526c0,1.966-1.59,3.557-3.553,3.557h-62.163c-1.962,0-3.552-1.591-3.552-3.557V83.539
			c0-1.962,1.59-3.553,3.552-3.553h62.163c1.963,0,3.553,1.591,3.553,3.553V210.526z"/>
		<circle fill="#1D1D1B" cx="1076.176" cy="111.068" r="22.201"/>
		<circle fill="#414042" cx="1076.176" cy="111.068" r="15.097"/>
		<circle fill="#1D1D1B" cx="1076.176" cy="182.112" r="22.201"/>
		<circle fill="#414042" cx="1076.176" cy="182.112" r="15.097"/>
	</g>
	<g>
		<path d="M305.496,211.635c0,1.964-1.59,3.554-3.553,3.554H239.78c-1.962,0-3.552-1.59-3.552-3.554V84.645
			c0-1.962,1.59-3.552,3.552-3.552h62.163c1.963,0,3.553,1.59,3.553,3.552V211.635z"/>
		<circle fill="#1D1D1B" cx="269.973" cy="112.175" r="22.201"/>
		<circle fill="#414042" cx="269.974" cy="112.175" r="15.097"/>
		<circle fill="#1D1D1B" cx="269.973" cy="183.219" r="22.201"/>
		<circle fill="#414042" cx="269.974" cy="183.219" r="15.097"/>
	</g>
	<path fill="#FFFFFF" d="M1116.999,428.205c0,1.768-1.709,3.287-3.181,3.287H235.246c-1.472,0-2.247-1.521-2.247-3.287v-78.969
		c0-1.766,0.775-3.744,2.247-3.744h878.572c1.472,0,3.181,1.979,3.181,3.744V428.205z"/>
	<path fill="#FFFFFF" d="M1116.999,344.778c0,0.695-1.709,0.715-3.181,0.715h-48.02c-1.477,0-2.802-0.02-2.802-0.715v-57.949
		c0-0.694,1.325-1.339,2.802-1.339h48.021c1.473,0,3.182,0.646,3.182,1.339v57.949H1116.999z"/>
	<path fill="#FFFFFF" d="M286.999,344.778c0,0.695-2.26,0.715-3.731,0.715h-48.021c-1.472,0-2.247-0.02-2.247-0.715v-57.949
		c0-0.694,0.775-1.339,2.247-1.339h48.021c1.474,0,3.731,0.646,3.731,1.339V344.778z"/>
	<rect x="237.999" y="353.492" fill="#FFFFFF" stroke="#F1F2F2" stroke-width="2" stroke-miterlimit="10" width="283" height="64"/>
	<rect x="529.999" y="353.492" fill="#FFFFFF" stroke="#F1F2F2" stroke-width="2" stroke-miterlimit="10" width="285" height="64"/>
	<rect x="826.999" y="353.492" fill="#FFFFFF" stroke="#F1F2F2" stroke-width="2" stroke-miterlimit="10" width="283" height="64"/>
	<g>
		<rect x="405.999" y="305.492" fill="#8DC63F" width="50" height="34"/>
		<path fill="#AA6A41" d="M418.422,324.701"/>
		<g>
			<path fill="#FCC19C" d="M435.769,318.617l1.088,4.578c0,0,0.83,1.775,3.046,0.076l0.374-3.607l0.438-2.223L435.769,318.617z"/>
			<path opacity="0.4" fill="#F8A27F" enable-background="new    " d="M436.049,319.797c0,0,2.25,4.453,4.32-0.678L436.049,319.797z
				"/>
			<path fill="#FCC19C" d="M434.43,315.936c0,0-0.471,0.926-1.09-0.67c-0.616-1.596,0.104-2.533,1.143-1.377L434.43,315.936z"/>
			<path opacity="0.4" fill="#F8A481" enable-background="new    " d="M433.571,315.127c-0.113-0.422-0.065-1.021,0.104-1.076
				c0.146-0.049,0.426,0.398,0.563,0.758c0.025,0.064-0.045,0.246-0.029,0.311c0.028,0.115,0.132,0.115,0.142,0.223
				c0.013,0.277-0.213,0.168-0.337,0.211C433.839,315.606,433.851,316.18,433.571,315.127z"/>
			<path fill="#FCC19C" d="M441.749,311.545c-0.142,1.754-0.021,4.045-0.341,5.295c-0.317,1.248-0.625,1.723-0.873,2.188
				c-0.183,0.346-0.813,0.836-1.361,1.139c-0.421,0.227-0.771,0.313-0.958,0.305c-1.031-0.045-2.184-0.006-2.844-1.449
				c-0.574-1.252-1.24-2.211-0.981-4.104c0.184-1.359-0.5-2.988-0.229-3.566c0.245-0.521,0.771-1.299,1.28-1.588
				c0.806-0.459,4.169-0.551,4.973-0.082C441.027,310.035,441.786,311.09,441.749,311.545z"/>
			<path fill="#C19B91" d="M438.823,314.707c0,0,0.813-1.311,1.62-0.102C440.442,314.606,439.944,315.18,438.823,314.707z"/>
			<path fill="#F8A27F" d="M435.238,314.606c0.186,0.359,1.056,0.771,1.622,0.102"/>
			<path fill="#F8A27F" d="M438.85,314.707c0.183,0.354,1.06,0.605,1.624-0.064"/>
			<polygon fill="#FFFFFF" points="436.299,318.049 437.741,318.1 439.228,318.104 437.763,318.912 			"/>
			<path fill="#FFFFFF" d="M438.823,314.707c0,0,0.611-0.811,1.62-0.102C440.442,314.606,439.944,315.18,438.823,314.707z"/>
			<g>
				<path fill="#3F3E40" d="M439.985,314.487c-0.048-0.238-0.344-0.27-0.513-0.227c-0.17,0.043-0.284,0.143-0.235,0.375
					c0.036,0.17,0.284,0.295,0.455,0.25C439.86,314.844,440.02,314.662,439.985,314.487z"/>
				<path fill="#1B181C" d="M439.766,314.516c-0.02-0.074-0.139-0.1-0.21-0.082c-0.077,0.021-0.113,0.1-0.099,0.174
					c0.02,0.074,0.111,0.125,0.188,0.104C439.722,314.688,439.785,314.592,439.766,314.516"/>
				<path fill="#FFFFFF" d="M439.647,314.559c0.018,0.043,0.09,0.043,0.134,0.023c0.042-0.021,0.055-0.07,0.037-0.111
					c-0.02-0.045-0.077-0.059-0.119-0.039C439.653,314.453,439.627,314.516,439.647,314.559z"/>
			</g>
			<path fill="#F8A27F" d="M440.442,314.606c-0.808-1.209-1.62,0.102-1.62,0.102S439.435,313.899,440.442,314.606z"/>
			<path fill="#C19B91" d="M436.86,314.707c0,0-0.813-1.311-1.622-0.102C435.238,314.606,435.737,315.18,436.86,314.707z"/>
			<path fill="#FFFFFF" d="M436.86,314.707c0,0-0.679-0.994-1.622-0.102C435.238,314.606,435.737,315.18,436.86,314.707z"/>
			<g>
				<path fill="#3F3E40" d="M435.599,314.487c0.048-0.238,0.342-0.27,0.509-0.227c0.168,0.043,0.281,0.143,0.229,0.373
					c-0.032,0.17-0.278,0.291-0.446,0.248C435.723,314.838,435.563,314.66,435.599,314.487z"/>
				<path fill="#1B181C" d="M435.816,314.514c0.018-0.076,0.135-0.1,0.209-0.082c0.076,0.021,0.113,0.096,0.095,0.17
					c-0.017,0.076-0.108,0.123-0.186,0.105C435.859,314.686,435.798,314.592,435.816,314.514"/>
				<path fill="#FFFFFF" d="M435.936,314.557c-0.021,0.041-0.091,0.045-0.132,0.025c-0.043-0.021-0.059-0.07-0.037-0.113
					c0.019-0.041,0.078-0.057,0.119-0.039C435.927,314.453,435.953,314.514,435.936,314.557z"/>
			</g>
			<path fill="#F8A27F" d="M435.238,314.606c0.809-1.209,1.622,0.102,1.622,0.102S436.182,313.772,435.238,314.606z"/>
			<path d="M440.308,313.34c-0.121-0.105-1.154-0.096-1.295-0.098c-0.08-0.004-0.071,0.137-0.078,0.225
				c-0.008,0.09,0.03,0.201,0.184,0.213c0.037,0,0.707-0.117,0.988-0.146c0.176-0.023,0.816,0.346,0.87,0.318
				C441.068,313.813,440.325,313.354,440.308,313.34z"/>
			<path d="M435.529,313.164c0.128-0.096,1.156-0.002,1.295,0.006c0.081,0.006,0.063,0.141,0.063,0.23
				c0,0.094-0.051,0.197-0.201,0.191c-0.036,0-0.693-0.166-0.973-0.225c-0.175-0.031-0.847,0.275-0.896,0.252
				C434.73,313.571,435.511,313.178,435.529,313.164z"/>
			<path fill="none" d="M437.638,318.633l0.533-0.033l1.185-0.557c0,0-0.914,0.082-1.206,0.094
				c-0.111,0.006-0.442,0.057-0.442,0.057s-0.383-0.084-0.511-0.07c-0.261,0.02-1.015-0.141-1.015-0.141l0.998,0.58L437.638,318.633
				z"/>
			<path fill="#F9B6B4" d="M438.173,318.6l-0.533,0.033l-0.458-0.07l-0.998-0.58c0,0,0.768,0.957,0.998,0.986
				c0.297,0.039,0.924,0.066,1.214,0.006c0.254-0.055,0.962-0.932,0.962-0.932L438.173,318.6z"/>
			<path fill="#F8A27F" d="M437.196,318.121c0.128-0.014,0.511,0.07,0.511,0.07s0.331-0.051,0.442-0.057
				c0.292-0.012,1.206-0.094,1.206-0.094s-0.952-0.25-1.241-0.254c-0.128,0-0.408,0.139-0.408,0.139s-0.333-0.152-0.451-0.145
				c-0.301,0.023-1.072,0.197-1.072,0.197S436.936,318.143,437.196,318.121z"/>
			<path fill="#FCC19C" d="M441.487,315.936c0,0,0.468,0.926,1.087-0.67c0.621-1.596-0.153-2.459-0.938-1.42L441.487,315.936z"/>
			<path opacity="0.4" fill="#F8A481" enable-background="new    " d="M442.349,314.901c0.109-0.424,0.062-1.02-0.108-1.074
				c-0.146-0.053-0.425,0.395-0.563,0.76c-0.023,0.061,0.046,0.242,0.028,0.307c-0.026,0.117-0.134,0.117-0.14,0.221
				c-0.011,0.277,0.215,0.172,0.339,0.215C442.077,315.381,442.067,315.953,442.349,314.901z"/>
			<path d="M435.826,311.028c0.055-0.105,0.748,1.051,1.279,1.223c-0.149-0.191-0.225-0.408-0.188-0.646
				c0.417,0.465,0.937,0.705,1.477,1.002c-0.059-0.238-0.274-0.475-0.229-0.744c0.233,0.166,0.519,0.25,0.79,0.357
				c0.004-0.197-0.039-0.439,0.158-0.547c0.099,0.188,0.408,0.246,0.603,0.336c0.033-0.273,0.044-0.621,0.183-0.867
				c0.551,0.266,1.029,0.396,1.224,0.99c0.16,0.492,0.247,0.98,0.251,1.5l0.004,0.889l0.064,0.154c0,0,0.55-1.789,0.236-4.107
				c0,0,0.312-1.9-3.729-2.09c-3.125-0.145-4.129,1.328-4.129,2.883c0,0-0.028,2.363,0.63,3.373l0.1-0.141
				c0,0-0.083-2.479-0.031-2.295C434.511,312.299,435.677,311.319,435.826,311.028z"/>
			<path fill="#1C75BC" d="M436.587,322.065c0,0,1.576,3.502,3.45-0.082c0,0,1.943-0.322,2.904-0.162
				c0.959,0.156,1.761,0.014,2.739,2.426c0.976,2.408,0.928,3.766,0.928,3.766s-1.659,1.34-3.359,1.125c0,0,0.379,4.57,0.488,5.457
				c0.106,0.885,0.086,2.77,0.174,3.895c0.08,0.988,0.214,1.797,0.253,2.111c0,0-4.828,4.063-11.854,0.234
				c-0.175-0.273,0.778-12.088,0.778-12.088s-1.679,0.563-3.27-1.039c0,0,0.973-3.033,1.742-4.326c0,0,0.434-0.885,1.81-0.814
				C434.746,322.641,436.587,322.065,436.587,322.065z"/>
			<path fill="#FCC19C" d="M430.171,328.055c1.202,0.604,2.533,0.713,2.533,0.713s-0.198,0.699-0.387,1.322
				c-0.118,0.383-0.324,0.813-0.26,1.576c0.096,1.137-0.442,4.373-0.396,5.477c0.01,0.189,0.038,0.367,0.075,0.539
				c0.188,0.564,0.332,0.893,0.426,1.076c0.059,0.1,0.107,0.178,0.146,0.229c0.333,0.225,0.61,0.824,0.676,0.938
				c0.064,0.115,0.159,1.16,0.212,1.623c0.027,0.252,0.019,1.063,0.019,1.063c-0.628,0.375-0.747-0.5-0.719-0.723
				c0.032-0.221-0.181-0.707-0.181-0.707c-0.404-0.031-0.497,0.605-0.497,0.605s0.227,0.717,0.437,0.854
				c0.053,0.031,0.261,0.158,0.32,0.166c1.484,0.209,0.775,0.596,0.775,0.596c-1.415,0.264-1.821-0.496-1.821-0.496
				s-0.623-0.664-0.865-0.932c-0.241-0.268-0.309-0.654-0.25-1.119c0.021-0.152-0.001-0.557-0.034-1.025
				c-0.025-0.117-0.149-0.668-0.142-0.896c0.013-0.248-0.246-2.352-0.246-2.352C429.317,333.733,430.171,328.055,430.171,328.055z"
				/>
			<path fill="#FCC19C" d="M446.388,328.217c-1.211,0.604-2.409,0.859-2.409,0.859s0.1,0.357,0.276,0.967
				c0.11,0.375,0.313,0.795,0.237,1.543c-0.112,1.115,0.377,4.281,0.313,5.365c-0.017,0.186-0.043,0.359-0.083,0.527
				c-0.198,0.557-0.349,0.879-0.442,1.063c-0.059,0.1-0.111,0.176-0.146,0.227c-0.339,0.223-0.624,0.816-0.688,0.926
				c-0.069,0.113-0.176,1.143-0.237,1.596c-0.03,0.248-0.033,1.045-0.033,1.045c0.62,0.355,0.756-0.502,0.729-0.721
				c-0.028-0.215,0.192-0.693,0.192-0.693c0.401-0.039,0.483,0.584,0.483,0.584s-0.237,0.707-0.451,0.842
				c-0.048,0.033-0.258,0.162-0.317,0.17c-1.488,0.223-0.785,0.594-0.785,0.594c1.411,0.236,1.829-0.514,1.829-0.514
				s0.632-0.66,0.877-0.922c0.247-0.268,0.319-0.646,0.27-1.104c-0.016-0.146,0.012-0.547,0.05-1.004
				c0.027-0.117,0.161-0.662,0.151-0.883c-0.008-0.246,0.283-2.309,0.283-2.309C447.201,333.58,446.388,328.217,446.388,328.217z"/>
			<path fill="#256AB4" d="M439.81,326.823c0,0-0.046,1.949,0.17,2.801c0,0,1.583,0.178,2.379-0.326c0,0-0.273-2.254-0.055-2.729
				C442.305,326.569,441.337,327.004,439.81,326.823z"/>
			<path fill="#256AB4" d="M438.823,323.451c0,0-0.446,0.146-0.581,0.146c-0.119,0-0.562-0.184-0.562-0.184s0.148,1.875,0.126,4.168
				c0,0,0.477,0.432,1.156,0L438.823,323.451z"/>
			<g>
				<path fill="#282929" d="M438.616,324.731c-0.002,0.16-0.131,0.283-0.291,0.283c-0.159-0.002-0.287-0.125-0.287-0.283
					c0-0.154,0.129-0.283,0.29-0.283C438.488,324.446,438.616,324.578,438.616,324.731z"/>
			</g>
			<g>
				<path fill="#282929" d="M438.616,326.024c-0.002,0.154-0.131,0.285-0.291,0.285c-0.159-0.004-0.287-0.131-0.287-0.285
					s0.129-0.285,0.29-0.285C438.488,325.739,438.616,325.867,438.616,326.024z"/>
			</g>
			<g opacity="0.4">
				<path id="XMLID_2_" fill="#F8A27F" d="M436.88,317.02c0,0,0.274,0.205,0.416,0.211c0.063,0.004,0.14,0.008,0.206,0.018l0,0l0,0
					c0.069-0.008,0.146-0.014,0.204-0.018c0.146-0.006,0.407-0.211,0.407-0.211c-0.242-0.025-0.438-0.037-0.616-0.031l0,0
					C437.316,316.981,437.122,316.992,436.88,317.02z"/>
				<path id="XMLID_1_" fill="#F8A27F" d="M437.13,316.475c-0.039,0.082-0.2,0.389-0.2,0.389l0.268-0.063l0.098-0.346l0.149-1.535
					C437.383,315.192,437.167,316.397,437.13,316.475z"/>
			</g>
		</g>
		<g>
			<path fill="#FCC19C" d="M433.542,339.83c0,0,0.146,1.592,0.36,2.107c0.215,0.52-0.755,2.139-1.589,2.318
				c-0.46,0.1-0.188-2.467-0.188-2.467l0.234-2.354L433.542,339.83z"/>
			<path fill="#F15A29" d="M424.113,324.313c0,0-4.495,0.781-4.453,1.811c0.152,3.727,2.556,3.764,2.732,5.813
				c0.527,6.199-1.153,8.588-1.153,8.588s1.329,0.514,5.6,0.514c4.271,0,5-0.416,5.151-0.605l1.939,1.652
				c0,0,0.348-5.729-0.806-13.125c-0.44-2.855-0.709-3.588-1.146-3.816c-0.438-0.227-3.164-0.604-3.164-0.604L424.113,324.313z"/>
			<path fill="#FCC19C" d="M425.383,321.344c0,0,0.592,2.313-0.685,3.041l2.204,5.455l1.931-5.422c0,0-0.95-0.17-0.731-3.289
				L425.383,321.344z"/>
			<path opacity="0.4" fill="#F8A27F" enable-background="new    " d="M425.485,323.037c0.042,0.016,0.086,0.041,0.126,0.068
				c0.816,0.637,1.691,0.273,2.507-0.182c-0.055-0.447-0.072-1.037-0.02-1.797l-2.719,0.215
				C425.383,321.344,425.601,322.201,425.485,323.037z"/>
			<path fill="#FCC19C" d="M430.855,315.711c-0.051-0.404-0.146-0.873-0.356-1.662c0,0-2.707-1.193-3.673-1.193
				c-0.959,0.002-3.646,1.193-3.646,1.193c-0.21,0.791-0.308,1.258-0.357,1.662c-0.1,0.748-0.18,3.084,0.386,4.178
				c0.474,0.91,2.542,3.299,3.62,3.209c0.004,0,0.008,0.01,0.012,0.006c0.006,0.004,0.011,0.006,0.014,0.006
				c1.078,0.086,3.247-2.271,3.622-3.225C430.934,318.705,430.956,316.459,430.855,315.711z"/>
			<path fill="#F8A27F" d="M427.606,318.229c0.211,0.41,1.516,0.779,1.973-0.174"/>
			<g>
				<path fill="#FFFFFF" d="M427.594,318.182c0,0,0.507-1.447,1.987-0.127c0,0-0.391,0.479-1.049,0.451
					C428.271,318.492,427.895,318.432,427.594,318.182z"/>
				<circle fill="#36469D" cx="428.621" cy="318.073" r="0.424"/>
				<circle fill="#251619" cx="428.621" cy="318.073" r="0.176"/>
				<path fill="#FFFFFF" d="M428.548,318.004c-0.008,0.061-0.064,0.104-0.129,0.094c-0.063-0.004-0.104-0.063-0.1-0.129
					c0.011-0.063,0.069-0.104,0.132-0.096C428.514,317.883,428.559,317.94,428.548,318.004z"/>
				<g>
					<path fill="#251619" d="M427.594,318.182c0,0,0.045-0.15,0.188-0.342c0.146-0.189,0.434-0.398,0.785-0.412
						c0.11-0.008,0.16,0.01,0.242,0.02c0.074,0.014,0.161,0.049,0.235,0.07c0.148,0.057,0.26,0.15,0.351,0.229
						c0.174,0.168,0.229,0.316,0.229,0.316s-0.13-0.09-0.325-0.186c-0.098-0.051-0.218-0.086-0.334-0.129
						c-0.063-0.014-0.109-0.033-0.184-0.039l-0.207-0.018c-0.261,0-0.516,0.127-0.692,0.252
						C427.7,318.065,427.594,318.182,427.594,318.182z"/>
				</g>
			</g>
			<path fill="#F8A27F" d="M425.964,318.229c-0.21,0.41-1.516,0.779-1.972-0.174"/>
			<g>
				<path fill="#FFFFFF" d="M425.98,318.182c0,0-0.506-1.447-1.987-0.127c0,0,0.391,0.479,1.049,0.451
					C425.302,318.492,425.681,318.432,425.98,318.182z"/>
				<circle fill="#36469D" cx="424.952" cy="318.073" r="0.422"/>
				<circle fill="#251619" cx="424.953" cy="318.073" r="0.174"/>
				<path fill="#FFFFFF" d="M425.025,318.004c0.009,0.061,0.067,0.104,0.131,0.094c0.063-0.004,0.104-0.063,0.097-0.129
					c-0.008-0.063-0.064-0.104-0.129-0.096C425.06,317.883,425.018,317.94,425.025,318.004z"/>
				<g>
					<path fill="#251619" d="M425.98,318.182c0,0-0.105-0.119-0.288-0.24c-0.176-0.125-0.432-0.25-0.694-0.248l-0.208,0.018
						c-0.073,0.004-0.123,0.023-0.184,0.037c-0.117,0.043-0.238,0.08-0.334,0.129c-0.196,0.094-0.325,0.188-0.325,0.188
						s0.056-0.148,0.23-0.318c0.092-0.076,0.199-0.174,0.351-0.229c0.075-0.021,0.163-0.059,0.238-0.068
						c0.081-0.01,0.131-0.025,0.238-0.02c0.353,0.01,0.646,0.219,0.788,0.408C425.938,318.028,425.98,318.182,425.98,318.182z"/>
				</g>
			</g>
			<g>
				<path fill="#AA6A41" d="M429.848,317.41c0,0-0.009-0.012-0.019-0.023c-0.009-0.016-0.022-0.039-0.044-0.066
					c-0.042-0.059-0.104-0.133-0.202-0.201c-0.045-0.037-0.098-0.072-0.152-0.105c-0.061-0.027-0.123-0.057-0.19-0.078
					c-0.067-0.02-0.138-0.039-0.212-0.045c-0.072-0.014-1.438,0.221-1.438,0.221l-0.016,0.004c-0.106,0.035-0.222-0.021-0.26-0.129
					c-0.031-0.102,0.016-0.205,0.104-0.25c0,0,0.014-0.006,0.033-0.014c0.021-0.01,0.049-0.025,0.085-0.039
					c0.075-0.029,0.182-0.068,0.313-0.1c0.063-0.018,0.136-0.033,0.212-0.039c0.069-0.02,0.156-0.035,0.244-0.041
					c0.09-0.008,0.171-0.016,0.252-0.016h0.061l0.041,0.016l0.034,0.01l0.136,0.018c0.09,0.02,0.18,0.031,0.269,0.066
					c0.087,0.025,0.17,0.063,0.244,0.104s0.146,0.092,0.205,0.141c0.063,0.051,0.114,0.102,0.157,0.152
					c0.086,0.105,0.136,0.211,0.167,0.277c0.013,0.037,0.021,0.064,0.027,0.084c0.006,0.023,0.007,0.031,0.007,0.031
					c0.004,0.02-0.007,0.037-0.025,0.039C429.867,317.43,429.853,317.424,429.848,317.41z"/>
				<path fill="#AA6A41" d="M423.082,317.41c0,0,0.004-0.012,0.017-0.023c0.01-0.016,0.022-0.039,0.046-0.066
					c0.042-0.059,0.104-0.133,0.201-0.201c0.045-0.037,0.098-0.072,0.153-0.105c0.062-0.027,0.122-0.057,0.189-0.078
					c0.065-0.02,0.138-0.039,0.213-0.045c0.073-0.014,1.436,0.221,1.436,0.221l0.019,0.004c0.104,0.035,0.222-0.021,0.26-0.129
					c0.031-0.102-0.015-0.205-0.107-0.25c0,0-0.012-0.006-0.029-0.014c-0.021-0.01-0.052-0.025-0.086-0.039
					c-0.075-0.029-0.182-0.068-0.312-0.1c-0.063-0.018-0.137-0.033-0.213-0.039c-0.073-0.02-0.157-0.035-0.245-0.041
					c-0.089-0.008-0.17-0.016-0.252-0.016h-0.061l-0.039,0.016l-0.035,0.01l-0.136,0.018c-0.093,0.02-0.183,0.031-0.269,0.066
					c-0.087,0.025-0.172,0.063-0.247,0.104c-0.077,0.041-0.145,0.092-0.207,0.141c-0.06,0.051-0.109,0.102-0.153,0.152
					c-0.085,0.105-0.138,0.211-0.166,0.277c-0.017,0.037-0.021,0.064-0.029,0.084c-0.006,0.023-0.008,0.031-0.008,0.031
					c-0.004,0.02,0.008,0.037,0.022,0.039C423.063,317.43,423.076,317.424,423.082,317.41z"/>
			</g>
			<g>
				<g>
					<path fill="#F8A27F" d="M426.234,319.397c-0.069,0.109-0.13,0.225-0.112,0.34c0.005,0.059,0.035,0.117,0.069,0.143
						c0.039,0.023,0.096,0.039,0.146,0.041l-0.006,0.002c0.024-0.006,0.003-0.004,0.068-0.029c0.083,0.029,0.049,0.047,0.076,0.064
						c0.022,0.023,0.057,0.043,0.099,0.063c0.08,0.029,0.162,0.063,0.251,0.078c-0.09,0.012-0.185,0.008-0.271-0.023
						c-0.043-0.012-0.096-0.031-0.135-0.066c-0.008-0.014-0.054-0.051-0.016-0.031c0.025-0.008-0.03,0.027-0.05,0.031l-0.005,0.002
						h-0.001c-0.076,0.008-0.153-0.006-0.212-0.064c-0.063-0.061-0.077-0.131-0.081-0.197
						C426.041,319.598,426.136,319.477,426.234,319.397z"/>
				</g>
				<g>
					<path fill="#F8A27F" d="M427.416,319.397c0.103,0.076,0.192,0.199,0.184,0.348c-0.002,0.066-0.021,0.139-0.081,0.197
						c-0.062,0.059-0.14,0.072-0.212,0.064h-0.001l-0.008-0.002c-0.021-0.004-0.071-0.039-0.052-0.031
						c0.041-0.02-0.006,0.021-0.015,0.029c-0.039,0.037-0.09,0.057-0.132,0.068c-0.089,0.031-0.187,0.035-0.273,0.021
						c0.089-0.016,0.172-0.047,0.252-0.078c0.042-0.018,0.074-0.035,0.102-0.063c0.024-0.018-0.011-0.033,0.075-0.063
						c0.063,0.023,0.043,0.021,0.067,0.027h-0.006c0.051-0.002,0.105-0.018,0.146-0.043c0.034-0.023,0.065-0.082,0.069-0.143
						C427.547,319.621,427.487,319.508,427.416,319.397z"/>
				</g>
			</g>
			<g>
				<g>
					<path fill="#BE1E2D" d="M427.266,320.647c-0.272,0-0.411,0.158-0.411,0.158s-0.137-0.158-0.408-0.158
						c-0.273,0-0.421,0.438-0.867,0.369c0,0,0.456,1.014,1.275,1.014c0.816,0,1.371-1.014,1.371-1.014
						C427.836,321.03,427.538,320.647,427.266,320.647z"/>
					<path fill="#FFFFFF" d="M425.772,321.129c0,0,0.405,0.602,1.108,0.602c0.706,0,1.112-0.59,1.112-0.59s-0.563-0.146-1.169-0.146
						C426.223,320.992,425.772,321.129,425.772,321.129z"/>
				</g>
			</g>
			<g>
				<path fill="#EF4136" d="M421.2,340.352c0,0,0.076-0.148,0.169-0.41c0.109-0.254,0.218-0.645,0.357-1.107
					c0.063-0.234,0.106-0.496,0.17-0.771c0.059-0.27,0.125-0.561,0.146-0.863c0.036-0.305,0.072-0.615,0.109-0.938
					c0.045-0.318,0.02-0.645,0.033-0.971c0.004-0.328,0.009-0.654,0.013-0.979c-0.031-0.318-0.063-0.637-0.092-0.938
					c-0.03-0.309-0.062-0.605-0.086-0.881c-0.021-0.283-0.105-0.537-0.149-0.779c-0.209-0.963-0.35-1.605-0.35-1.605
					s0.165,0.639,0.411,1.594c0.053,0.238,0.146,0.494,0.18,0.773c0.038,0.281,0.079,0.576,0.121,0.883
					c0.042,0.309,0.084,0.623,0.128,0.945c0.008,0.324,0.016,0.654,0.023,0.984c-0.001,0.33,0.035,0.662,0.005,0.984
					c-0.025,0.324-0.053,0.646-0.074,0.955c-0.013,0.313-0.069,0.605-0.118,0.891c-0.052,0.277-0.087,0.549-0.144,0.789
					c-0.125,0.482-0.224,0.891-0.329,1.172c-0.095,0.283-0.159,0.43-0.159,0.43L421.2,340.352z"/>
			</g>
			<g>
				<path fill="#EF4136" d="M431.912,340.592c0,0-0.054-0.146-0.128-0.428c-0.087-0.277-0.16-0.676-0.263-1.146
					c-0.062-0.479-0.186-1.033-0.208-1.637c-0.055-0.605-0.095-1.242-0.075-1.885c-0.018-0.645,0.023-1.281,0.085-1.879
					c0.043-0.602,0.093-1.156,0.19-1.631c0.157-0.941,0.267-1.572,0.267-1.572s-0.082,0.633-0.205,1.584
					c-0.079,0.473-0.104,1.027-0.125,1.627c-0.038,0.596-0.053,1.229-0.011,1.867c0.006,0.637,0.07,1.268,0.146,1.855
					c0.048,0.594,0.192,1.131,0.271,1.602c0.119,0.455,0.206,0.846,0.297,1.098c0.078,0.258,0.14,0.408,0.14,0.408L431.912,340.592z
					"/>
			</g>
			<g>
				<path fill="#EF4136" d="M425.995,332.266c0,0-0.059,0.033-0.161,0.094c-0.104,0.055-0.235,0.164-0.436,0.23
					c-0.193,0.076-0.425,0.162-0.688,0.189c-0.262,0.031-0.551,0.021-0.832-0.049c-0.563-0.172-0.98-0.617-1.157-0.992
					c-0.19-0.375-0.218-0.648-0.218-0.648s0.105,0.256,0.349,0.568c0.229,0.314,0.619,0.682,1.104,0.813
					c0.24,0.068,0.495,0.094,0.735,0.076c0.242-0.021,0.466-0.049,0.657-0.104C425.733,332.352,425.995,332.266,425.995,332.266z"/>
			</g>
			<g>
				<path fill="#EF4136" d="M431.503,331.092c0,0-0.023,0.277-0.216,0.65c-0.095,0.186-0.237,0.391-0.432,0.57
					c-0.198,0.186-0.454,0.324-0.729,0.418c-0.28,0.068-0.568,0.082-0.833,0.051c-0.264-0.029-0.494-0.113-0.686-0.189
					c-0.197-0.064-0.333-0.18-0.44-0.23c-0.102-0.061-0.161-0.096-0.161-0.096s0.265,0.086,0.647,0.18
					c0.192,0.057,0.419,0.084,0.661,0.104c0.24,0.02,0.495-0.006,0.732-0.074c0.487-0.131,0.877-0.494,1.106-0.813
					C431.398,331.346,431.503,331.092,431.503,331.092z"/>
			</g>
			<path fill="#FBD578" d="M432.056,314.182c0,0-0.543-2.646-2.813-2.33c0,0-2.043-1.82-4.822-0.959c0,0-1.655,0.512-2.584,2.525
				c0,0-0.445,1.088-0.917,1.504c-0.272,0.244-1.083-0.443-1.368,0.389c-0.123,0.361-0.106,0.764,0.075,1.102
				c0.099,0.176,0.238,0.346,0.453,0.422c0,0-0.048,0.045-0.114,0.123c-0.691,0.855-0.149,2.164,0.945,2.25
				c0.141,0.014,0.277,0,0.415-0.039c0,0,0.167,2.541,2.725,1.9c0,0-1.181-1.918-1.018-2.074c0.342-0.34,1.171-0.365,1.425-2.207
				c0.06-0.412,0.15-0.816,0.302-1.207c0.389-1.01,1.255-2.473,2.953-2.195c0,0,1.248,0.152,1.804,1.053
				c0.164,0.273,0.236,0.59,0.23,0.904c-0.013,0.588,0.043,2.271,1.096,2.641l0,0c0,0-0.312,1.854-1.259,3.068
				c-0.151,0.197,2.407,0.445,2.533-1.729c0,0,0.334-0.162,0.747-0.613c0.373-0.41,0.505-1.787,0.208-2.789
				C432.831,315.096,432.198,314.643,432.056,314.182z"/>
			<g>
				<circle fill="#FFFFFF" cx="427.457" cy="325.911" r="0.239"/>
				<circle fill="#FFFFFF" cx="425.157" cy="325.238" r="0.237"/>
				<path fill="#FFFFFF" d="M427.177,326.022c0,0.133-0.106,0.24-0.237,0.24s-0.238-0.107-0.238-0.24
					c0-0.127,0.107-0.234,0.238-0.234S427.177,325.895,427.177,326.022z"/>
				<path fill="#FFFFFF" d="M426.592,326.022c0,0.133-0.104,0.24-0.234,0.24c-0.132,0-0.239-0.107-0.239-0.24
					c0-0.127,0.107-0.234,0.239-0.234C426.484,325.785,426.592,325.895,426.592,326.022z"/>
				<circle fill="#FFFFFF" cx="425.487" cy="325.538" r="0.239"/>
				<circle fill="#FFFFFF" cx="425.859" cy="325.868" r="0.237"/>
				<path fill="#FFFFFF" d="M425.157,324.813c0,0.135-0.104,0.24-0.238,0.24c-0.132,0-0.234-0.105-0.234-0.24
					c0-0.129,0.104-0.232,0.234-0.232C425.052,324.578,425.157,324.682,425.157,324.813z"/>
				<circle fill="#FFFFFF" cx="424.688" cy="324.455" r="0.238"/>
				<circle fill="#FFFFFF" cx="428.913" cy="324.669" r="0.239"/>
				<circle fill="#FFFFFF" cx="428.583" cy="325.053" r="0.238"/>
				<circle fill="#FFFFFF" cx="428.234" cy="325.363" r="0.239"/>
				<circle fill="#FFFFFF" cx="427.852" cy="325.65" r="0.239"/>
				<path fill="#FFFFFF" d="M426.866,327.703"/>
			</g>
			<path fill="none" stroke="#F8A27F" stroke-width="0.0965" stroke-miterlimit="10" d="M425.542,320.651
				c-0.135-0.031-0.385,0.219-0.347,0.352"/>
			<path fill="none" stroke="#F8A27F" stroke-width="0.0965" stroke-miterlimit="10" d="M428.355,320.768
				c0.131-0.035,0.384,0.213,0.345,0.348"/>
		</g>
		<path fill="#FBB791" d="M420.958,327.942c0,0-0.271,0.754,0,0.779c0.273,0.025,0.695-0.074,0.695-0.074
			S420.024,329.502,420.958,327.942z"/>
		<g>
			<g>
				<path fill="#00A79D" d="M424.832,342.528c-0.634,0.387-1.651-0.57-1.81-1.072c-0.045-0.145,0.017-0.355,0.135-0.566
					c0.009-0.02,0.021-0.039,0.032-0.057c0.167-0.275,0.25-0.727-0.175-1.377c-0.226-0.346-0.396-0.67-0.531-0.98
					c-0.752-1.742,0.268-2.035,0.268-2.035c3.783,0.811,2.325,4.295,1.61,4.975C424.3,341.469,425.237,342.289,424.832,342.528z"/>
				<path fill="#00A79D" d="M423.473,337.676c-0.188,0.252-0.396,0.479-0.619,0.664c-0.499,0.422-1.073,0.662-1.688,0.662
					c-1.895,0.002-3.43-2.281-3.432-5.104c-0.002-2.816,1.533-5.104,3.427-5.104c1.896,0,3.429,2.285,3.433,5.102
					C424.595,335.395,424.161,336.737,423.473,337.676z"/>
				<path fill="#00A79D" d="M418.299,335.612c0,0-0.383,1.768,1.416,3.758c0.522,0.574,0.512,1.033,0.393,1.328
					c-0.104,0.254-0.144,0.504-0.07,0.646c0.234,0.469,1.391,1.256,1.957,0.781c0.362-0.309-0.693-0.969-0.641-1.033
					c0.403-0.529,1.049-2.404-0.044-3.859C420.779,336.528,419.852,335.926,418.299,335.612z"/>
				<path fill="#FCC19C" d="M425.938,334.299l-0.988,0.623c0,0-0.054,0.707,0.19,0.965c0.244,0.254,0.208-0.287,0.208-0.287
					s0.021,0.883,0.479,0.664C426.287,336.047,426.609,334.86,425.938,334.299z"/>
				<path fill="#00A79D" d="M423.443,330.028c0,0,3.04,1.227,2.779,4.654c-0.018,0.203-1.272,0.236-1.272,0.236
					s-0.479-3.422-3.387-2.793L423.443,330.028z"/>
				<path fill="#603913" d="M421.772,331.828c-0.028,0.131-0.158,0.223-0.296,0.191c-0.137-0.023-0.226-0.158-0.195-0.293
					c0.028-0.139,0.16-0.223,0.294-0.197C421.711,331.557,421.797,331.69,421.772,331.828z"/>
				<circle fill="#603913" cx="421.629" cy="332.565" r="0.25"/>
			</g>
			<path fill="#FCC19C" d="M421.306,337.174c0,0,1.298,0.387,1.787,0.143c0.491-0.242,0.715,0.02,0.514,0.236
				c-0.552,0.6-1.229,0.16-1.229,0.16s1,0.328,1.471,0.096c0.334-0.17,0.384-0.018,0.384-0.018s0.291,0.932-0.188,1.332
				c-0.477,0.396-2.155,0.785-3.211-0.393L421.306,337.174z"/>
			<path fill="#FBB791" d="M424.283,327.215c-0.358,0.404-0.559,1.271-0.381,1.527c0.176,0.258,0.612,0.137,0.971-0.27
				c0.358-0.41,0.458-1.004,0.282-1.26S424.643,326.807,424.283,327.215z"/>
			<path fill="#F15A29" d="M422.268,324.401c0,0-5.365,5.748-6.188,8.623c-0.896,3.148-0.227,2.67,4.688,5.85l0.96-1.664
				c0,0-3.668-1.699-3.75-3.564c-0.057-1.266,2.734-4.969,4.289-5.643"/>
			<path fill="#FBB791" d="M417.912,327.403c0.359,0.406,0.563,1.271,0.382,1.529c-0.176,0.258-0.607,0.137-0.969-0.268
				c-0.359-0.408-0.461-1.002-0.285-1.262C417.22,327.147,417.552,327,417.912,327.403z"/>
			<g>
				<path fill="#00A79D" d="M419.334,329.903c0,0-3.231,2.646-2.693,4.705c0.247,0.943,1.099,0.383,1.099,0.383
					s0.934-1.945,2.151-2.326L419.334,329.903z"/>
				<path fill="#FCC19C" d="M416.679,334.52l1.048,0.518c0,0,0.129,0.689-0.086,0.975c-0.219,0.281-0.239-0.262-0.239-0.262
					s0.075,0.883-0.406,0.713C416.516,336.295,416.07,335.149,416.679,334.52z"/>
			</g>
			<path fill="#FCC19C" d="M421.013,322.397c2.09,0,3.783,1.117,3.785,3.566c0,2.453-1.511,5.195-3.602,5.195
				c-2.092,0-3.723-2.572-3.952-5.02C417.015,323.653,418.92,322.397,421.013,322.397z"/>
			<g>
				<path fill="#FFFFFF" d="M420.165,327.979c0,0-0.375,0.285-0.813,0.273c-0.479-0.014-0.461-0.176-0.461-0.176
					s-0.113-0.625,0.354-0.742c0.048-0.018,0.101-0.021,0.157-0.021C419.785,327.311,420.121,327.617,420.165,327.979z"/>
				<path fill="#1C75BC" d="M419.86,328.133c0,0-0.001,0.008-0.01,0.018c-0.086,0.039-0.166,0.066-0.271,0.084
					c-0.346,0.061-0.561-0.035-0.561-0.035s-0.018-0.256,0.04-0.449l0.102-0.211c0.03-0.041,0.069-0.078,0.113-0.111
					c0,0,0,0,0.002,0c0.006-0.002,0.014-0.006,0.02-0.012c0.01,0,0.016-0.002,0.021-0.004l0.051-0.006h0.012l0.01-0.002h0.005
					l0.017,0.002c0.06,0,0.121,0.01,0.179,0.021c0.027,0.008,0.06,0.018,0.087,0.029C419.85,327.596,419.879,327.852,419.86,328.133
					z"/>
				<path fill="#754E35" d="M420.156,327.883c-0.002-0.031-0.012-0.068-0.024-0.109c-0.004-0.021-0.012-0.045-0.021-0.064
					c-0.008-0.021-0.02-0.047-0.032-0.072c-0.022-0.047-0.056-0.1-0.1-0.148c-0.039-0.051-0.092-0.094-0.149-0.135
					c-0.12-0.074-0.27-0.127-0.422-0.129l-0.03,0.002h-0.009h-0.004l-0.005,0.002l-0.013,0.002h-0.013
					c-0.104-0.002-0.251,0.078-0.349,0.17c-0.091,0.084-0.115,0.166-0.115,0.166s-0.046,0.115-0.048,0.162
					c-0.004,0.061,0,0.105,0.008,0.15c0.003,0.043,0.016,0.08,0.022,0.105c0.006,0.031,0.017,0.057,0.021,0.07
					c0.007,0.014,0.009,0.021,0.009,0.021s0-0.035,0.005-0.096c0.002-0.027,0.006-0.064,0.011-0.104
					c0.002-0.021,0.006-0.041,0.012-0.064c0.004-0.02,0.008-0.045,0.019-0.066c0.006-0.021,0.014-0.047,0.022-0.07
					c0.007-0.023,0.021-0.043,0.031-0.064c0.012-0.023,0.03-0.045,0.044-0.063c0.02-0.02,0.035-0.039,0.056-0.051
					c0.023-0.016,0.042-0.035,0.068-0.041c0.021-0.016,0.048-0.023,0.075-0.027l0.037-0.008c0.007-0.004,0.02-0.006,0.026-0.006
					s0.016-0.002,0.021-0.002l0.051-0.006h0.012l0.007-0.004h0.008l0.017,0.004c0.06,0,0.121,0.008,0.179,0.021
					c0.027,0.006,0.06,0.018,0.088,0.029c0.023,0.008,0.052,0.018,0.075,0.031c0.05,0.025,0.099,0.057,0.138,0.092
					c0.021,0.016,0.039,0.033,0.059,0.055c0.021,0.018,0.035,0.039,0.048,0.055c0.008,0.014,0.018,0.021,0.025,0.029
					c0.005,0.008,0.011,0.018,0.018,0.025c0.013,0.02,0.026,0.035,0.035,0.057c0.021,0.033,0.04,0.063,0.054,0.092
					c0.025,0.055,0.044,0.084,0.044,0.084S420.164,327.942,420.156,327.883z"/>
			</g>
			<g>
				<path fill="#FFFFFF" d="M423.276,327.778c0,0-0.366,0.281-0.794,0.271c-0.463-0.012-0.449-0.17-0.449-0.17
					s-0.111-0.611,0.348-0.73c0.048-0.012,0.099-0.016,0.153-0.018C422.904,327.127,423.233,327.43,423.276,327.778z"/>
				<path fill="#1C75BC" d="M422.979,327.932c0,0-0.001,0.008-0.009,0.018c-0.084,0.037-0.164,0.063-0.265,0.078
					c-0.339,0.063-0.549-0.029-0.549-0.029s-0.015-0.262,0.046-0.455l0.101-0.197c0.026-0.039,0.063-0.076,0.104-0.102l0,0
					c0.008-0.006,0.014-0.01,0.021-0.014c0.007,0,0.015-0.002,0.02-0.002l0.05-0.006l0.012-0.002h0.008h0.021
					c0.06,0,0.117,0.01,0.172,0.025c0.029,0.006,0.061,0.016,0.083,0.021C422.967,327.403,422.997,327.653,422.979,327.932z"/>
				<path fill="#754E35" d="M423.244,327.582c-0.004-0.021-0.013-0.041-0.021-0.066c-0.011-0.021-0.02-0.047-0.033-0.068
					c-0.015-0.029-0.032-0.063-0.057-0.096c0,0-0.066-0.088-0.163-0.16c-0.11-0.084-0.26-0.148-0.355-0.139
					c-0.026-0.006,0,0-0.078-0.01h-0.027l-0.012,0.002h-0.003h-0.007l-0.012,0.002l-0.051,0.006
					c-0.019,0.004-0.028,0.002-0.052,0.006l-0.059,0.02c-0.021,0.008-0.039,0.012-0.057,0.018l-0.054,0.027
					c-0.032,0.018-0.063,0.045-0.091,0.064c-0.015,0.012-0.023,0.027-0.039,0.043c-0.01,0.016-0.021,0.025-0.028,0.043
					c-0.019,0.029-0.037,0.061-0.048,0.092c-0.021,0.063-0.031,0.117-0.035,0.174c-0.004,0.053,0.001,0.102,0.009,0.145
					c0.003,0.041,0.013,0.078,0.021,0.104c0.008,0.029,0.018,0.053,0.021,0.066c0.006,0.018,0.01,0.023,0.01,0.023
					s0-0.033,0.004-0.094c0.003-0.025,0.005-0.064,0.012-0.105c0.001-0.018,0.008-0.039,0.012-0.061
					c0.003-0.021,0.01-0.047,0.017-0.068c0.005-0.021,0.014-0.043,0.022-0.066c0.008-0.021,0.021-0.043,0.029-0.063
					c0.014-0.023,0.028-0.043,0.044-0.064c0.021-0.014,0.034-0.037,0.056-0.047c0.021-0.012,0.04-0.033,0.063-0.043
					c0.023-0.008,0.049-0.02,0.075-0.021l0.035-0.012c0.008-0.004,0.018-0.004,0.027-0.004c0.007,0,0.016,0,0.021,0l0.05-0.006
					l0.012-0.002h0.007h0.021c0.06,0,0.117,0.008,0.172,0.025c0.029,0.004,0.06,0.014,0.083,0.02
					c0.028,0.014,0.056,0.021,0.079,0.035c0.048,0.029,0.096,0.055,0.134,0.092c0.021,0.018,0.037,0.033,0.056,0.053
					c0.02,0.018,0.033,0.033,0.052,0.057c0.006,0.008,0.013,0.016,0.021,0.023c0.009,0.014,0.017,0.02,0.021,0.027
					c0.012,0.02,0.023,0.035,0.034,0.051c0.02,0.035,0.039,0.064,0.052,0.092c0.025,0.053,0.043,0.08,0.043,0.08
					s-0.002-0.031-0.008-0.09C423.265,327.656,423.256,327.623,423.244,327.582z"/>
			</g>
			<path fill="#FBAB2F" d="M422.261,329.867c0,0.375-0.491,0.678-1.1,0.678c-0.605,0-1.098-0.307-1.098-0.678
				s0.49-0.678,1.098-0.678S422.258,329.494,422.261,329.867z"/>
			<path fill="#FFFFFF" d="M420.772,329.77c0,0-0.45,0.813,0.244,0.82c0.69,0.008,0.544-0.799,0.519-0.82
				c-0.021-0.021-0.188,0-0.188,0s-0.027,0.652-0.333,0.605c-0.308-0.045-0.084-0.615-0.084-0.615L420.772,329.77z"/>
			<path fill="#AA6A41" d="M424.65,323.754c-0.021-0.041-0.04-0.078-0.063-0.119c-0.054-0.092-0.11-0.178-0.18-0.256
				c-1.409-1.789-5.903-1.037-6.705,0.115c-1.286,1.852-0.044,4.439-0.044,4.439c0.116,0.443,0.682,0.479,0.682,0.479
				c-0.846-0.869-0.479-2.27-0.479-2.27c0.683-0.523,1.143-1.145,1.453-1.729c0.172,0.553,0.73,1.428,2.572,1.34
				c0,0-1.622-0.164-1.689-1.09c0,0,1.413,1.057,2.292,0.873c0,0-1.011-0.293-1.228-0.82c0,0,0.721,0.385,1.513,0.461
				c0.117,0.012,0.604,0.063,0.734,0.107c0.057,0.047,1.196,2.289,0.608,2.627c0,0,0.264,0.443,0.379,0.006
				C424.498,327.922,425.394,325.244,424.65,323.754z"/>
		</g>
		<path fill="#FFFFFF" d="M419.05,327.612c-0.013,0.068,0.025,0.135,0.091,0.146c0.061,0.012,0.123-0.035,0.135-0.098
			c0.013-0.064-0.026-0.133-0.087-0.143C419.125,327.506,419.063,327.547,419.05,327.612z"/>
		<path fill="#FFFFFF" d="M422.188,327.465c-0.013,0.064,0.023,0.133,0.087,0.143c0.061,0.012,0.122-0.029,0.135-0.098
			s-0.023-0.131-0.086-0.141C422.263,327.354,422.203,327.397,422.188,327.465z"/>
		<path opacity="0.4" fill="none" stroke="#F8A481" stroke-width="0.1129" stroke-miterlimit="10" enable-background="new    " d="
			M439.286,317.789c0.21,0.02,0.364,0.209,0.347,0.42"/>
		<path opacity="0.4" fill="none" stroke="#F8A481" stroke-width="0.1129" stroke-miterlimit="10" enable-background="new    " d="
			M436.246,317.678c-0.209,0.018-0.365,0.205-0.346,0.418"/>
		<path fill="#FBB791" d="M420.902,328.094c0,0-0.234,0.648,0,0.67c0.234,0.023,0.596-0.061,0.596-0.061
			S420.101,329.434,420.902,328.094z"/>
		<g>
			<path fill="#754C29" d="M402.999,301.492v43h58v-43H402.999z M455.999,312.742v21.443v5.307h-49v-34h49V312.742z"/>
		</g>
	</g>
	<g>
		<rect x="916.216" y="309.047" fill="#9AD7D6" width="115.19" height="36.865"/>
		<rect x="911.016" y="299.108" fill="#68C7C2" width="125.596" height="14.429"/>
		<rect x="956.403" y="324.436" fill="#68C7C2" width="32.949" height="9.938"/>
		<rect x="959.511" y="326.039" fill="#CCEAEA" width="26.737" height="6.729"/>
	</g>
	<path fill="#FFFFFF" d="M1116.999,284.212c0,1.472-1.192,2.28-2.668,2.28H235.338c-1.474,0-2.339-0.811-2.339-2.28v-66.455
		c0-1.473,0.865-2.269,2.339-2.269h878.993c1.476,0,2.668,0.796,2.668,2.269V284.212L1116.999,284.212z"/>
</g>
<g>
	<path fill="#F3F3F3" d="M877.883,448.065H469.796c-4.711,0-67.24,11.65-67.24,11.65c0,1.809,62.529,6.016,67.24,6.016h408.086
		c4.688,0,71.107-2.445,70.623-5.934C948.506,459.801,882.57,448.065,877.883,448.065z"/>
	<g>
		<rect x="399.5" y="498.533" fill="#FFFFFF" width="36" height="74"/>
		<rect x="914.5" y="498.533" fill="#FFFFFF" width="36" height="74"/>
		<path fill="#FFFFFF" d="M950.5,463.356c0-1.678-1.51-2.822-3.371-2.822H402.438c-1.863,0-2.938,1.145-2.938,2.822v32.398
			c0,1.678,1.073,2.773,2.938,2.773h544.689c1.863,0,3.373-1.1,3.373-2.773V463.356L950.5,463.356z"/>
		<rect x="601.5" y="474.533" fill="#FFFFFF" stroke="#F1F2F2" stroke-width="2" stroke-miterlimit="10" width="147" height="23"/>
	</g>
</g>
<g>
	<path fill="#6D6E71" d="M1034.927,617.606c0-4.682-2.743-7.613-6.564-7.613H308.607c-3.822,0-6.682,2.934-6.682,7.613v228.906
		c0,4.686,2.857,8.479,6.682,8.479h719.752c3.822,0,6.567-3.795,6.567-8.479V617.606L1034.927,617.606z"/>
	<path fill="#706E70" d="M307.927,681.25c0-4.564-3.694-8.258-8.258-8.258h-51.483c-4.561,0-8.258,3.693-8.258,8.258v165.48
		c0,4.564,3.697,8.26,8.258,8.26h51.483c4.563,0,8.258-3.695,8.258-8.26V681.25z"/>
	<path fill="#706E70" d="M1100.927,681.25c0-4.564-3.694-8.258-8.258-8.258h-51.482c-4.563,0-8.26,3.693-8.26,8.258v165.48
		c0,4.564,3.697,8.26,8.26,8.26h51.482c4.563,0,8.258-3.695,8.258-8.26V681.25z"/>
</g>
</svg>
