<?xml version="1.0" encoding="utf-8"?>
<!-- Generator: Adobe Illustrator 16.0.0, SVG Export Plug-In . SVG Version: 6.00 Build 0)  -->
<!DOCTYPE svg PUBLIC "-//W3C//DTD SVG 1.1//EN" "http://www.w3.org/Graphics/SVG/1.1/DTD/svg11.dtd">
<svg version="1.1" id="Layer_1" xmlns="http://www.w3.org/2000/svg" xmlns:xlink="http://www.w3.org/1999/xlink" x="0px" y="0px"
	 width="92.315px" height="62.548px" viewBox="1435.95 231.68 92.315 62.548" enable-background="new 1435.95 231.68 92.315 62.548"
	 xml:space="preserve">
<g>
	<ellipse fill="#FFFFFF" cx="1509.214" cy="250.134" rx="4.811" ry="4.329"/>
	<g>
		<g id="bird_1_">
			<path fill="#8DC63F" d="M1520.488,255.08c0,0-0.755-4.188-1.313-5.547c-0.474-1.155-2.811-4.506-2.811-4.506
				c-3.097-4.029-7.684-6.926-13.101-7.784c-9.781-1.548-13.653,0.833-22.442,12.96l0,0c-0.001,0.001-0.001,0.002-0.001,0.005
				c-0.094,0.241-4.498,7.36-15.001,16.373c-11.813,10.134-29.87,22.277-29.87,22.277s33.491,10.506,59.568,2.129
				C1521.549,282.624,1520.696,256.796,1520.488,255.08z M1504.74,249.785c0.334-2.108,2.313-3.547,4.422-3.213
				c2.108,0.334,3.549,2.313,3.214,4.422c-0.333,2.108-2.313,3.547-4.423,3.214C1505.845,253.875,1504.406,251.895,1504.74,249.785z
				"/>
			<path fill="#2D2E2D" d="M1510.211,247.566c-1.229-0.194-2.383,0.645-2.579,1.875c-0.193,1.229,0.646,2.384,1.874,2.578
				c1.229,0.195,2.386-0.645,2.578-1.874C1512.278,248.917,1511.44,247.762,1510.211,247.566z"/>
			<path fill="#F15A29" d="M1528.266,242.66l-7.776,12.201c0,0-0.887-4.224-1.479-5.558c-0.521-1.173-2.97-4.467-2.97-4.467
				L1528.266,242.66z"/>
		</g>
		<path fill="#D7DF23" d="M1490.36,254.201c-5.052-8.06-28.264-5.391-35.961-22.521c-7.576,30.271,7.688,39.414,18.986,41.241
			C1484.685,274.752,1501.121,267.784,1490.36,254.201"/>
	</g>
</g>
</svg>
