<?xml version="1.0" encoding="utf-8"?>
<!-- Generator: Adobe Illustrator 16.0.0, SVG Export Plug-In . SVG Version: 6.00 Build 0)  -->
<!DOCTYPE svg PUBLIC "-//W3C//DTD SVG 1.1//EN" "http://www.w3.org/Graphics/SVG/1.1/DTD/svg11.dtd">
<svg version="1.1" id="Layer_1" xmlns="http://www.w3.org/2000/svg" xmlns:xlink="http://www.w3.org/1999/xlink" x="0px" y="0px"
	 width="92.314px" height="62.547px" viewBox="0 0 92.314 62.547" enable-background="new 0 0 92.314 62.547" xml:space="preserve">
<g>
	<ellipse fill="#FFFFFF" cx="19.052" cy="18.453" rx="4.811" ry="4.33"/>
	<g>
		<g id="bird_1_">
			<path fill="#8DC63F" d="M32.748,59.306c26.077,8.377,59.568-2.129,59.568-2.129S74.259,45.035,62.447,34.9
				c-10.503-9.013-14.907-16.131-15.001-16.373c0-0.002,0-0.004-0.001-0.004l0,0C38.656,6.396,34.783,4.014,25.002,5.562
				c-5.417,0.858-10.004,3.756-13.101,7.784c0,0-2.337,3.351-2.812,4.507C8.532,19.211,7.778,23.4,7.778,23.4
				C7.57,25.115,6.716,50.943,32.748,59.306z M20.313,22.527c-2.11,0.334-4.09-1.105-4.424-3.213
				c-0.334-2.109,1.106-4.089,3.215-4.423s4.088,1.105,4.422,3.214C23.86,20.214,22.42,22.195,20.313,22.527z"/>
			<path fill="#2D2E2D" d="M16.181,18.464c0.192,1.229,1.35,2.068,2.578,1.874s2.067-1.349,1.874-2.578
				c-0.195-1.229-1.35-2.069-2.579-1.875C16.825,16.082,15.988,17.236,16.181,18.464z"/>
			<path fill="#F15A29" d="M12.225,13.156c0,0-2.449,3.293-2.971,4.467c-0.592,1.334-1.479,5.558-1.479,5.558l-7.776-12.2
				L12.225,13.156z"/>
		</g>
		<path fill="#D7DF23" d="M37.906,22.521C27.145,36.103,43.58,43.072,54.88,41.24C66.178,39.414,81.443,30.271,73.866,0
			C66.169,17.129,42.957,14.46,37.906,22.521"/>
	</g>
</g>
</svg>
