<?xml version="1.0" encoding="utf-8"?>
<!-- Generator: Adobe Illustrator 16.0.0, SVG Export Plug-In . SVG Version: 6.00 Build 0)  -->
<!DOCTYPE svg PUBLIC "-//W3C//DTD SVG 1.1//EN" "http://www.w3.org/Graphics/SVG/1.1/DTD/svg11.dtd">
<svg version="1.1" id="Layer_1" xmlns="http://www.w3.org/2000/svg" xmlns:xlink="http://www.w3.org/1999/xlink" x="0px" y="0px"
	 width="92.315px" height="62.548px" viewBox="1345.95 97.68 92.315 62.548" enable-background="new 1345.95 97.68 92.315 62.548"
	 xml:space="preserve">
<g>
	<ellipse fill="#FFFFFF" cx="1419.214" cy="116.134" rx="4.811" ry="4.329"/>
	<g>
		<g id="bird_1_">
			<path fill="#8DC63F" d="M1430.488,121.08c0,0-0.755-4.188-1.313-5.547c-0.474-1.155-2.811-4.506-2.811-4.506
				c-3.097-4.029-7.684-6.926-13.101-7.784c-9.781-1.548-13.653,0.833-22.442,12.96l0,0c-0.001,0.001-0.001,0.002-0.001,0.005
				c-0.094,0.241-4.498,7.36-15.001,16.373c-11.813,10.134-29.87,22.277-29.87,22.277s33.491,10.506,59.568,2.129
				C1431.549,148.624,1430.696,122.796,1430.488,121.08z M1414.74,115.785c0.334-2.108,2.313-3.547,4.422-3.213
				c2.108,0.334,3.549,2.313,3.214,4.422c-0.333,2.108-2.313,3.547-4.423,3.214C1415.845,119.875,1414.406,117.895,1414.74,115.785z
				"/>
			<path fill="#2D2E2D" d="M1420.211,113.566c-1.229-0.194-2.383,0.645-2.579,1.875c-0.193,1.229,0.646,2.384,1.874,2.578
				c1.229,0.195,2.386-0.645,2.578-1.874C1422.278,114.917,1421.44,113.762,1420.211,113.566z"/>
			<path fill="#F15A29" d="M1438.266,108.66l-7.776,12.201c0,0-0.887-4.224-1.479-5.558c-0.521-1.173-2.97-4.467-2.97-4.467
				L1438.266,108.66z"/>
		</g>
		<path fill="#D7DF23" d="M1400.36,120.201c-5.052-8.06-28.264-5.391-35.961-22.521c-7.576,30.271,7.688,39.414,18.986,41.241
			C1394.685,140.752,1411.121,133.784,1400.36,120.201"/>
	</g>
</g>
</svg>
