<?xml version="1.0" encoding="utf-8"?>
<!-- Generator: Adobe Illustrator 16.0.0, SVG Export Plug-In . SVG Version: 6.00 Build 0)  -->
<!DOCTYPE svg PUBLIC "-//W3C//DTD SVG 1.1//EN" "http://www.w3.org/Graphics/SVG/1.1/DTD/svg11.dtd">
<svg version="1.1" id="Layer_1" xmlns="http://www.w3.org/2000/svg" xmlns:xlink="http://www.w3.org/1999/xlink" x="0px" y="0px"
	 width="80px" height="80px" viewBox="0 0 146.104 153.824" enable-background="new 0 0 146.104 153.824"
	 xml:space="preserve">
<g>
	<g>
		<g>
			<path fill="#445772" d="M100.649,45.758l-0.003-36.676l39.287,31.636c0,0,11.739,14.63-18.146,23.206L100.649,45.758z"/>
			<path fill="#445772" d="M145.201,51.582c0,0-0.769,5.195-7.771,10.13c-6.717,4.727-20.083,8.225-27.228,10.854l-2.149-5.681
				c0,0-1.582-4.693-4.054,9.55c-0.69,3.986-1.908,10.953-3.105,18.057c0,0,6.694,4.522,12.731,9.549
				c6.034,5.025,11.486,9.77,10.683,5.78l-2.2-6.64c0,0,3.738-1.718,7.167-2.937c5.811-2.061,10.783-3.853,12.269-16.606
				L145.201,51.582z"/>
		</g>
	</g>
	<g>
		<g>
			<path fill="#445772" d="M52.602,69.7l-4.193,32.244L14.157,82.727c0,0-13.556-11.888,15.089-26.448L52.602,69.7z"/>
			<path fill="#445772" d="M7.522,73.188c0,0,0.1-5.245,6.441-11.516c6.077-6.008,18.933-12.19,25.703-16.231l2.868,5.115
				c0,0,2.168,4.264,2.807-10.177c0.177-4.048,0.502-11.114,0.786-18.315c0,0-7.242-3.041-13.889-6.716
				c-6.649-3.669-12.682-7.186-11.374-3.449l3.044,6.037c0,0-3.504,2.455-6.765,4.354C11.63,25.503,6.915,28.285,7.062,41.067
				L7.522,73.188z"/>
		</g>
	</g>
</g>
<g>
	<rect x="47.453" y="8.529" fill="#F58E89" width="54.055" height="129.089"/>
	<rect x="43.293" y="0.302" fill="#3D4A3D" width="61.345" height="8.226"/>
	<rect x="45.703" y="50.379" fill="#EC6562" width="56.692" height="5.14"/>
	<rect x="45.87" y="8.377" fill="#EC6562" width="56.693" height="5.14"/>
	<rect x="45.703" y="92.38" fill="#EC6562" width="56.692" height="5.141"/>
	<g>
		<g>
			<rect x="54.808" y="59.016" fill="#5C5C60" width="13.845" height="18.644"/>
			<g>
				<rect x="56.239" y="60.58" fill="#ADCDD9" width="4.413" height="4.086"/>
				<rect x="62.808" y="60.58" fill="#ADCDD9" width="4.413" height="4.086"/>
			</g>
			<g>
				<rect x="56.239" y="66.319" fill="#ADCDD9" width="4.413" height="4.09"/>
				<rect x="62.808" y="66.319" fill="#ADCDD9" width="4.413" height="4.09"/>
			</g>
			<g>
				<rect x="56.239" y="72.061" fill="#ADCDD9" width="4.413" height="4.088"/>
				<rect x="62.808" y="72.061" fill="#ADCDD9" width="4.413" height="4.088"/>
			</g>
			<rect x="53.159" y="77.658" fill="#576A8A" width="17.141" height="3.021"/>
			<polygon fill="#445772" points="66.426,83.704 57.034,83.704 54.808,80.68 68.652,80.68 			"/>
		</g>
		<g>
			<rect x="79.781" y="59.016" fill="#5C5C60" width="13.846" height="18.644"/>
			<g>
				<rect x="81.213" y="60.58" fill="#ADCDD9" width="4.411" height="4.086"/>
				<rect x="87.782" y="60.58" fill="#ADCDD9" width="4.412" height="4.086"/>
			</g>
			<g>
				<rect x="81.213" y="66.319" fill="#ADCDD9" width="4.411" height="4.09"/>
				<rect x="87.782" y="66.319" fill="#ADCDD9" width="4.412" height="4.09"/>
			</g>
			<g>
				<rect x="81.213" y="72.061" fill="#ADCDD9" width="4.411" height="4.088"/>
				<rect x="87.782" y="72.061" fill="#ADCDD9" width="4.412" height="4.088"/>
			</g>
			<rect x="78.134" y="77.658" fill="#576A8A" width="17.141" height="3.021"/>
			<polygon fill="#445772" points="91.4,83.704 82.007,83.704 79.781,80.68 93.626,80.68 			"/>
		</g>
	</g>
	<g>
		<g>
			<rect x="54.808" y="99.127" fill="#5C5C60" width="13.845" height="18.643"/>
			<g>
				<rect x="56.239" y="100.691" fill="#ADCDD9" width="4.413" height="4.088"/>
				<rect x="62.808" y="100.691" fill="#ADCDD9" width="4.413" height="4.088"/>
			</g>
			<g>
				<rect x="56.239" y="106.433" fill="#ADCDD9" width="4.413" height="4.087"/>
				<rect x="62.808" y="106.433" fill="#ADCDD9" width="4.413" height="4.087"/>
			</g>
			<g>
				<rect x="56.239" y="112.173" fill="#ADCDD9" width="4.413" height="4.087"/>
				<rect x="62.808" y="112.173" fill="#ADCDD9" width="4.413" height="4.087"/>
			</g>
			<rect x="53.159" y="117.77" fill="#576A8A" width="17.141" height="3.023"/>
			<polygon fill="#445772" points="66.426,123.815 57.034,123.815 54.808,120.793 68.652,120.793 			"/>
		</g>
		<g>
			<rect x="79.781" y="99.127" fill="#5C5C60" width="13.846" height="18.643"/>
			<g>
				<rect x="81.213" y="100.691" fill="#ADCDD9" width="4.411" height="4.088"/>
				<rect x="87.782" y="100.691" fill="#ADCDD9" width="4.412" height="4.088"/>
			</g>
			<g>
				<rect x="81.213" y="106.433" fill="#ADCDD9" width="4.411" height="4.087"/>
				<rect x="87.782" y="106.433" fill="#ADCDD9" width="4.412" height="4.087"/>
			</g>
			<g>
				<rect x="81.213" y="112.173" fill="#ADCDD9" width="4.411" height="4.087"/>
				<rect x="87.782" y="112.173" fill="#ADCDD9" width="4.412" height="4.087"/>
			</g>
			<rect x="78.134" y="117.77" fill="#576A8A" width="17.141" height="3.023"/>
			<polygon fill="#445772" points="91.4,123.815 82.007,123.815 79.781,120.793 93.626,120.793 			"/>
		</g>
	</g>
	<g>
		<rect x="54.808" y="18.903" fill="#5C5C60" width="13.845" height="18.643"/>
		<g>
			<rect x="56.239" y="20.467" fill="#ADCDD9" width="4.413" height="4.088"/>
			<rect x="62.808" y="20.467" fill="#ADCDD9" width="4.413" height="4.088"/>
		</g>
		<g>
			<rect x="56.239" y="26.208" fill="#ADCDD9" width="4.413" height="4.088"/>
			<rect x="62.808" y="26.208" fill="#ADCDD9" width="4.413" height="4.088"/>
		</g>
		<g>
			<rect x="56.239" y="31.948" fill="#ADCDD9" width="4.413" height="4.09"/>
			<rect x="62.808" y="31.948" fill="#ADCDD9" width="4.413" height="4.09"/>
		</g>
		<rect x="53.159" y="37.545" fill="#576A8A" width="17.141" height="3.022"/>
		<polygon fill="#445772" points="66.426,43.592 57.034,43.592 54.808,40.568 68.652,40.568 		"/>
		<rect x="79.781" y="18.903" fill="#5C5C60" width="13.846" height="18.643"/>
		<g>
			<rect x="81.213" y="20.467" fill="#ADCDD9" width="4.411" height="4.088"/>
			<rect x="87.782" y="20.467" fill="#ADCDD9" width="4.412" height="4.088"/>
		</g>
		<g>
			<rect x="81.213" y="26.208" fill="#ADCDD9" width="4.411" height="4.088"/>
			<rect x="87.782" y="26.208" fill="#ADCDD9" width="4.412" height="4.088"/>
		</g>
		<g>
			<rect x="81.213" y="31.948" fill="#ADCDD9" width="4.411" height="4.09"/>
			<rect x="87.782" y="31.948" fill="#ADCDD9" width="4.412" height="4.09"/>
		</g>
		<rect x="78.134" y="37.545" fill="#576A8A" width="17.141" height="3.022"/>
		<polygon fill="#445772" points="91.4,43.592 82.007,43.592 79.781,40.568 93.626,40.568 		"/>
	</g>
</g>
<rect x="2.031" y="132.685" fill="none" width="143.074" height="16.667"/>
<g enable-background="new    ">
	<path fill="#3D4A3D" d="M17.412,140.601c0.601,0.771,0.901,1.83,0.901,3.179v8.772h-2.448v-8.892c0-0.725-0.142-1.303-0.425-1.733
		s-0.731-0.646-1.343-0.646h-1.292l-0.204,1.139c-0.023,0.25-0.034,0.432-0.034,0.544c0,0.341,0.06,0.609,0.179,0.808
		c0.119,0.199,0.332,0.314,0.638,0.349l-0.442,1.479c-1.779-0.046-2.669-0.811-2.669-2.295c0-0.249,0.04-0.584,0.119-1.003
		l0.629-2.856h3.74C15.927,139.445,16.811,139.83,17.412,140.601z"/>
	<path fill="#3D4A3D" d="M19.537,147.775c0.431-0.045,0.753-0.13,0.969-0.255s0.363-0.298,0.442-0.519
		c0.08-0.221,0.113-0.535,0.102-0.943v-6.613h5.151c0.906,0,1.621,0.258,2.142,0.773c0.521,0.516,0.782,1.323,0.782,2.423v6.511
		h-2.448v-6.63c0-0.827-0.385-1.241-1.156-1.241h-2.006v4.454c0,0.861-0.133,1.547-0.4,2.057c-0.266,0.511-0.668,0.893-1.207,1.147
		c-0.539,0.256-1.261,0.423-2.168,0.502L19.537,147.775z"/>
	<path fill="#3D4A3D" d="M38.883,147.545c-1.372,1.185-3.497,1.776-6.375,1.776h-0.527l-1.275-9.877h2.329l0.493,4.199
		c0.453-0.227,0.759-0.566,0.918-1.021c0.159-0.453,0.232-1.133,0.221-2.04v-1.122h2.329v1.071
		c-0.023,1.247-0.272,2.259-0.748,3.034c-0.476,0.777-1.315,1.369-2.516,1.777l0.238,1.955c1.621-0.103,2.777-0.57,3.468-1.403
		c0.691-0.833,1.031-1.991,1.02-3.477l-0.034-2.975h2.465l0.017,2.839C40.928,144.607,40.254,146.361,38.883,147.545z"/>
	<path fill="#3D4A3D" d="M49.473,139.445v2.023l-3.06,7.684h-2.448l3.043-7.871h-4.93v-4.318h2.21v2.482H49.473z"/>
	<path fill="#3D4A3D" d="M62.138,147.316v1.836h-3.587h-4.488v-1.836h4.488v-4.794c0-0.827-0.385-1.241-1.156-1.241h-3.332v-1.836
		h4.012c0.906,0,1.621,0.258,2.142,0.773c0.521,0.516,0.782,1.323,0.782,2.423v4.675H62.138z"/>
	<path fill="#3D4A3D" d="M63.464,144.511l0.34-1.14h2.125v5.78h-2.465V144.511z M69.142,142.522c0-0.827-0.38-1.241-1.139-1.241
		h-4.437v-1.836h5.1c0.907,0,1.624,0.258,2.15,0.773s0.791,1.323,0.791,2.423v6.511h-2.465V142.522z"/>
	<path fill="#3D4A3D" d="M79.784,149.152l-3.195-4.947l-1.514,4.947h-2.329l1.888-5.831l0.526-1.309l-1.581-2.567h2.465l1.36,2.21
		l1.224,1.854l0.459-1.548l0.68-2.516h2.33l-2.041,6.188l2.347,3.519H79.784z"/>
	<path fill="#3D4A3D" d="M91.736,147.545c-1.372,1.185-3.497,1.776-6.375,1.776h-0.527l-1.275-9.877h2.329l0.493,4.199
		c0.453-0.227,0.76-0.566,0.918-1.021c0.158-0.453,0.232-1.133,0.221-2.04v-1.122h2.33v1.071c-0.023,1.247-0.272,2.259-0.748,3.034
		c-0.477,0.777-1.315,1.369-2.517,1.777l0.237,1.955c1.621-0.103,2.777-0.57,3.469-1.403s1.031-1.991,1.02-3.477l-0.033-2.975h2.465
		l0.017,2.839C93.781,144.607,93.107,146.361,91.736,147.545z"/>
	<path fill="#3D4A3D" d="M98.841,141.434l-0.204-1.989h2.448l0.203,1.989v11.118h-2.447V141.434z"/>
	<path fill="#3D4A3D" d="M103.243,141.434l-0.203-1.989h2.447l0.204,1.989v2.651l-0.017,1.071l-2.432,0.425V141.434z"/>
	<path fill="#3D4A3D" d="M107.647,141.434l-0.204-1.989h2.447l0.205,1.989v2.651l-0.018,1.071l-2.431,0.425V141.434z"/>
	<path fill="#3D4A3D" d="M111.675,147.316h2.482v-4.913c0-0.408-0.076-0.697-0.229-0.867s-0.388-0.277-0.706-0.323l-1.189-0.17
		l0.307-1.802l2.125,0.272c0.69,0.091,1.221,0.385,1.589,0.884s0.552,1.145,0.552,1.938v6.817h-4.93V147.316z"/>
	<path fill="#3D4A3D" d="M126.21,147.316v1.836h-3.588h-4.487v-1.836h4.487v-4.794c0-0.827-0.385-1.241-1.155-1.241h-3.332v-1.836
		h4.013c0.906,0,1.62,0.258,2.141,0.773c0.521,0.516,0.783,1.323,0.783,2.423v4.675H126.21z"/>
	<path fill="#3D4A3D" d="M127.536,144.511l0.34-1.14h2.125v5.78h-2.465V144.511z M133.214,142.522c0-0.827-0.38-1.241-1.139-1.241
		h-4.438v-1.836h5.1c0.907,0,1.624,0.258,2.15,0.773c0.527,0.516,0.791,1.323,0.791,2.423v6.511h-2.465V142.522z"/>
</g>
</svg>
