<?xml version="1.0" encoding="utf-8"?>
<!-- Generator: Adobe Illustrator 16.0.0, SVG Export Plug-In . SVG Version: 6.00 Build 0)  -->
<!DOCTYPE svg PUBLIC "-//W3C//DTD SVG 1.1//EN" "http://www.w3.org/Graphics/SVG/1.1/DTD/svg11.dtd">
<svg version="1.1" id="Layer_1" xmlns="http://www.w3.org/2000/svg" xmlns:xlink="http://www.w3.org/1999/xlink" x="0px" y="0px"
	 width="1200px" height="900px" viewBox="0 0 1200 900" enable-background="new 0 0 1200 900" xml:space="preserve">
<rect x="-74.5" y="-9.5" fill="#8CC9DB" width="1350" height="960.369"/>
<path fill="#FFFFFF" d="M207.535,159.194c-6.872,0-13.1,2.67-17.646,6.993c0.026-0.523,0.044-1.051,0.044-1.583
	c0-18.988-17.105-34.383-38.201-34.383c-14.945,0-27.875,7.726-34.152,18.978c-6.587-4.238-15.208-6.814-24.65-6.814
	c-20.679,0-37.439,12.315-37.439,27.506c0,0.477,0.016,0.948,0.049,1.418c-13.762,5.481-22.97,15.455-22.97,26.854
	c0,17.301,21.211,31.325,47.373,31.325c10.446,0,14.331-5.177,22.162-8.965c4.819,3.767,17.173,9.025,24.442,9.025
	c6.715,0,12.846-1.983,17.541-5.252c6.267,6.825,16.774,11.303,28.687,11.303c19.199,0,34.762-11.63,34.762-25.977
	c0-0.516-0.027-1.023-0.064-1.53c0.021,0,0.043,0.001,0.064,0.001c13.923,0,25.216-10.946,25.216-24.45
	C232.751,170.141,221.459,159.194,207.535,159.194z"/>
<path fill="#FFFFFF" d="M1074.214,315.194c-8.377,0-15.966,3.252-21.509,8.523c0.031-0.641,0.055-1.283,0.055-1.931
	c0-23.146-20.849-41.906-46.562-41.906c-18.215,0-33.975,9.417-41.625,23.131c-8.028-5.168-18.536-8.306-30.045-8.306
	c-25.204,0-45.631,15.01-45.631,33.524c0,0.579,0.021,1.154,0.06,1.728c-16.774,6.682-27.995,18.837-27.995,32.729
	c0,21.087,25.851,38.181,57.737,38.181c12.729,0,17.467-6.31,27.013-10.924c5.872,4.59,20.931,11,29.792,11
	c8.184,0,15.653-2.418,21.379-6.402c7.637,8.319,20.444,13.777,34.962,13.777c23.399,0,42.368-14.176,42.368-31.661
	c0-0.628-0.03-1.247-0.077-1.864c0.024,0,0.054,0.002,0.077,0.002c16.973,0,30.734-13.344,30.734-29.801
	C1104.947,328.533,1091.185,315.194,1074.214,315.194z"/>
<path fill="#FFFFFF" d="M669.563,84.346c-7.465,0-14.227,2.897-19.164,7.594c0.027-0.568,0.048-1.143,0.048-1.719
	c0-20.623-18.575-37.34-41.484-37.34c-16.229,0-30.271,8.391-37.089,20.608c-7.152-4.604-16.516-7.399-26.77-7.399
	c-22.457,0-40.657,13.374-40.657,29.871c0,0.518,0.019,1.028,0.053,1.54c-14.945,5.952-24.943,16.783-24.943,29.161
	c0,18.788,23.033,34.019,51.444,34.019c11.343,0,15.563-5.621,24.067-9.733c5.231,4.091,18.647,9.802,26.544,9.802
	c7.291,0,13.947-2.154,19.049-5.704c6.806,7.412,18.218,12.274,31.15,12.274c20.851,0,37.75-12.63,37.75-28.21
	c0-0.56-0.026-1.11-0.068-1.662c0.021,0,0.047,0.003,0.068,0.003c15.121,0,27.386-11.89,27.386-26.553
	C696.947,96.23,684.685,84.346,669.563,84.346z"/>
<path fill="#FFFFFF" d="M234.375,524.166c-8.764,0-16.705,3.405-22.504,8.919c0.034-0.669,0.058-1.342,0.058-2.02
	c0-24.216-21.813-43.845-48.715-43.845c-19.055,0-35.545,9.853-43.55,24.2c-8.398-5.404-19.392-8.688-31.434-8.688
	c-26.369,0-47.742,15.704-47.742,35.075c0,0.604,0.021,1.209,0.063,1.809c-17.55,6.989-29.29,19.707-29.29,34.242
	c0,22.062,27.047,39.944,60.408,39.944c13.319,0,18.274-6.603,28.262-11.432c6.145,4.802,21.897,11.509,31.168,11.509
	c8.562,0,16.38-2.529,22.368-6.697c7.989,8.704,21.39,14.415,36.58,14.415c24.481,0,44.328-14.831,44.328-33.125
	c0-0.654-0.034-1.307-0.083-1.95c0.028,0.001,0.056,0.003,0.083,0.003c17.754,0,32.154-13.958,32.154-31.179
	C266.53,538.128,252.13,524.166,234.375,524.166z"/>
<path fill="#FFFFFF" d="M366.375,526.166c-8.764,0-16.705,3.405-22.504,8.919c0.034-0.669,0.058-1.342,0.058-2.02
	c0-24.216-21.813-43.845-48.715-43.845c-19.055,0-35.545,9.853-43.55,24.199c-8.398-5.404-19.392-8.688-31.434-8.688
	c-26.369,0-47.742,15.704-47.742,35.075c0,0.604,0.021,1.209,0.063,1.809c-17.55,6.989-29.29,19.707-29.29,34.242
	c0,22.062,27.047,39.944,60.408,39.944c13.319,0,18.274-6.603,28.262-11.431c6.145,4.801,21.897,11.508,31.168,11.508
	c8.562,0,16.38-2.529,22.368-6.697c7.989,8.704,21.39,14.415,36.58,14.415c24.481,0,44.328-14.831,44.328-33.125
	c0-0.654-0.034-1.306-0.083-1.951c0.028,0.001,0.056,0.004,0.083,0.004c17.754,0,32.154-13.959,32.154-31.179
	S384.13,526.166,366.375,526.166z"/>
<path fill="#FFFFFF" d="M744.791,76.226c-7.983,0-15.221,3.103-20.504,8.125c0.031-0.608,0.053-1.222,0.053-1.839
	c0-22.064-19.874-39.949-44.387-39.949c-17.36,0-32.386,8.977-39.681,22.049c-7.654-4.924-17.67-7.916-28.642-7.916
	c-24.024,0-43.5,14.309-43.5,31.958c0,0.553,0.019,1.102,0.058,1.646c-15.99,6.368-26.688,17.955-26.688,31.2
	c0,20.102,24.646,36.396,55.042,36.396c12.137,0,16.651-6.014,25.75-10.415c5.6,4.375,19.952,10.486,28.4,10.486
	c7.801,0,14.922-2.305,20.381-6.103c7.279,7.93,19.488,13.133,33.33,13.133c22.306,0,40.389-13.514,40.389-30.184
	c0-0.596-0.029-1.188-0.074-1.775c0.024,0,0.052,0.001,0.074,0.001c16.179,0,29.3-12.72,29.3-28.407
	C774.089,88.944,760.969,76.226,744.791,76.226z"/>
<g>
	<ellipse fill="#FFFFFF" cx="1509.215" cy="250.134" rx="4.813" ry="4.329"/>
	<g>
		<g id="bird_1_">
			<path fill="#8DC63F" d="M1520.488,255.08c0,0-0.755-4.188-1.313-5.547c-0.475-1.155-2.812-4.507-2.812-4.507
				c-3.099-4.028-7.686-6.926-13.103-7.783c-9.78-1.549-13.651,0.833-22.44,12.96l0,0c-0.001,0.001-0.001,0.002-0.001,0.005
				c-0.096,0.241-4.498,7.359-15.001,16.373c-11.813,10.134-29.87,22.276-29.87,22.276s33.491,10.506,59.566,2.129
				C1521.55,282.624,1520.696,256.796,1520.488,255.08z M1504.74,249.785c0.334-2.108,2.313-3.548,4.422-3.214
				s3.549,2.313,3.215,4.423c-0.334,2.107-2.313,3.547-4.424,3.214C1505.845,253.875,1504.406,251.895,1504.74,249.785z"/>
			<path fill="#2D2E2D" d="M1510.212,247.566c-1.229-0.193-2.384,0.646-2.579,1.875c-0.191,1.229,0.646,2.385,1.874,2.578
				c1.229,0.195,2.386-0.645,2.578-1.874C1512.278,248.917,1511.44,247.762,1510.212,247.566z"/>
			<path fill="#F15A29" d="M1528.266,242.66l-7.774,12.2c0,0-0.889-4.224-1.479-5.558c-0.521-1.173-2.971-4.467-2.971-4.467
				L1528.266,242.66z"/>
		</g>
		<path fill="#D7DF23" d="M1490.36,254.201c-5.054-8.061-28.266-5.392-35.961-22.521c-7.576,30.271,7.688,39.414,18.984,41.241
			C1484.685,274.752,1501.121,267.784,1490.36,254.201"/>
	</g>
</g>
</svg>
