<?xml version="1.0" encoding="utf-8"?>
<!-- Generator: Adobe Illustrator 16.0.0, SVG Export Plug-In . SVG Version: 6.00 Build 0)  -->
<!DOCTYPE svg PUBLIC "-//W3C//DTD SVG 1.1//EN" "http://www.w3.org/Graphics/SVG/1.1/DTD/svg11.dtd">
<svg version="1.1" id="Layer_1" xmlns="http://www.w3.org/2000/svg" xmlns:xlink="http://www.w3.org/1999/xlink" x="0px" y="0px"
	 width="345px" height="170px" viewBox="-4.334 -5.552 345 170" enable-background="new -4.334 -5.552 345 170"
	 xml:space="preserve">
<g>
	<g>
		<rect x="18.184" y="14.448" fill="#F58E89" width="300" height="150"/>
		<g>
			<rect x="58.667" y="57.781" fill="#5C5C60" width="59.789" height="76.767"/>
			<g>
				<rect x="64.845" y="64.219" fill="#ADCDD9" width="19.059" height="16.833"/>
				<rect x="93.217" y="64.219" fill="#ADCDD9" width="19.059" height="16.833"/>
			</g>
			<g>
				<rect x="64.845" y="87.861" fill="#ADCDD9" width="19.059" height="16.834"/>
				<rect x="93.217" y="87.861" fill="#ADCDD9" width="19.059" height="16.834"/>
			</g>
			<g>
				<rect x="64.845" y="111.5" fill="#ADCDD9" width="19.059" height="16.835"/>
				<rect x="93.217" y="111.5" fill="#ADCDD9" width="19.059" height="16.835"/>
			</g>
			<rect x="51.549" y="134.548" fill="#576A8A" width="74.024" height="12.451"/>
			<polygon fill="#445772" points="108.841,159.448 68.28,159.448 58.667,146.999 118.456,146.999 			"/>
		</g>
		<g>
			<rect x="217.913" y="57.781" fill="#5C5C60" width="59.787" height="76.767"/>
			<g>
				<rect x="224.092" y="64.219" fill="#ADCDD9" width="19.055" height="16.833"/>
				<rect x="252.461" y="64.219" fill="#ADCDD9" width="19.058" height="16.833"/>
			</g>
			<g>
				<rect x="224.092" y="87.861" fill="#ADCDD9" width="19.055" height="16.834"/>
				<rect x="252.461" y="87.861" fill="#ADCDD9" width="19.058" height="16.834"/>
			</g>
			<g>
				<rect x="224.092" y="111.5" fill="#ADCDD9" width="19.055" height="16.835"/>
				<rect x="252.461" y="111.5" fill="#ADCDD9" width="19.058" height="16.835"/>
			</g>
			<rect x="210.793" y="134.548" fill="#576A8A" width="74.024" height="12.451"/>
			<polygon fill="#445772" points="268.084,159.448 227.525,159.448 217.913,146.999 277.7,146.999 			"/>
		</g>
		<path fill="#EC6562" d="M56.86,61.074"/>
	</g>
	<rect x="-4.298" y="-5.552" fill="#3D4A3D" width="344.964" height="33.871"/>
	<rect x="7.437" y="27.404" fill="#EC6562" width="321.494" height="21.167"/>
</g>
</svg>
