<?xml version="1.0" encoding="utf-8"?>
<!-- Generator: Adobe Illustrator 16.0.0, SVG Export Plug-In . SVG Version: 6.00 Build 0)  -->
<!DOCTYPE svg PUBLIC "-//W3C//DTD SVG 1.1//EN" "http://www.w3.org/Graphics/SVG/1.1/DTD/svg11.dtd">
<svg version="1.1" id="Layer_1" xmlns="http://www.w3.org/2000/svg" xmlns:xlink="http://www.w3.org/1999/xlink" x="0px" y="0px"
	 width="345px" height="170px" viewBox="0 0 345 170" enable-background="new 0 0 345 170" xml:space="preserve">
<g>
	<rect x="22.861" y="-6" fill="#F58E89" width="300" height="183.15"/>
	<g>
		<rect x="66.354" y="43.421" fill="#5C5C60" width="57.6" height="77.557"/>
		<g>
			<rect x="72.308" y="49.925" fill="#ADCDD9" width="18.359" height="17.007"/>
			<rect x="99.641" y="49.925" fill="#ADCDD9" width="18.359" height="17.007"/>
		</g>
		<g>
			<rect x="72.308" y="73.811" fill="#ADCDD9" width="18.359" height="17.007"/>
			<rect x="99.641" y="73.811" fill="#ADCDD9" width="18.359" height="17.007"/>
		</g>
		<g>
			<rect x="72.308" y="97.695" fill="#ADCDD9" width="18.359" height="17.008"/>
			<rect x="99.641" y="97.695" fill="#ADCDD9" width="18.359" height="17.008"/>
		</g>
		<rect x="59.497" y="120.979" fill="#576A8A" width="71.314" height="12.58"/>
		<polygon fill="#445772" points="114.692,146.137 75.616,146.137 66.354,133.559 123.954,133.559 		"/>
	</g>
	<g>
		<rect x="219.77" y="43.421" fill="#5C5C60" width="57.598" height="77.557"/>
		<g>
			<rect x="225.723" y="49.925" fill="#ADCDD9" width="18.357" height="17.007"/>
			<rect x="253.055" y="49.925" fill="#ADCDD9" width="18.359" height="17.007"/>
		</g>
		<g>
			<rect x="225.723" y="73.811" fill="#ADCDD9" width="18.357" height="17.007"/>
			<rect x="253.055" y="73.811" fill="#ADCDD9" width="18.359" height="17.007"/>
		</g>
		<g>
			<rect x="225.723" y="97.695" fill="#ADCDD9" width="18.357" height="17.008"/>
			<rect x="253.055" y="97.695" fill="#ADCDD9" width="18.359" height="17.008"/>
		</g>
		<rect x="212.911" y="120.979" fill="#576A8A" width="71.313" height="12.58"/>
		<polygon fill="#445772" points="268.104,146.137 229.029,146.137 219.77,133.559 277.366,133.559 		"/>
	</g>
	<path fill="#EC6562" d="M64.936,57.51"/>
	<rect x="12.114" fill="#EC6562" width="321.493" height="21.168"/>
</g>
</svg>
