<?xml version="1.0" encoding="utf-8"?>
<!-- Generator: Adobe Illustrator 16.0.0, SVG Export Plug-In . SVG Version: 6.00 Build 0)  -->
<!DOCTYPE svg PUBLIC "-//W3C//DTD SVG 1.1//EN" "http://www.w3.org/Graphics/SVG/1.1/DTD/svg11.dtd">
<svg version="1.1" id="Layer_1" xmlns="http://www.w3.org/2000/svg" xmlns:xlink="http://www.w3.org/1999/xlink" x="0px" y="0px"
	 width="138.141px" height="137.315px" viewBox="0 0 138.141 137.315" enable-background="new 0 0 138.141 137.315"
	 xml:space="preserve">
<g>
	<g>
		<g>
			<g>
				<path fill="#445772" d="M94.441,45.456L94.438,8.78l39.287,31.636c0,0,11.739,14.63-18.146,23.205L94.441,45.456z"/>
				<path fill="#445772" d="M138.993,51.28c0,0-0.768,5.196-7.771,10.13c-6.717,4.727-20.083,8.225-27.228,10.854l-2.149-5.682
					c0,0-1.582-4.693-4.054,9.551c-0.69,3.986-1.908,10.953-3.105,18.056c0,0,6.694,4.523,12.731,9.549
					c6.034,5.026,11.487,9.77,10.683,5.781l-2.2-6.64c0,0,3.738-1.718,7.167-2.937c5.81-2.06,10.783-3.852,12.268-16.606
					L138.993,51.28z"/>
			</g>
		</g>
		<g>
			<g>
				<path fill="#445772" d="M46.395,69.398L42.2,101.644L7.949,82.425c0,0-13.555-11.888,15.089-26.448L46.395,69.398z"/>
				<path fill="#445772" d="M1.314,72.886c0,0,0.099-5.245,6.441-11.516c6.076-6.008,18.933-12.19,25.703-16.231l2.867,5.115
					c0,0,2.168,4.264,2.808-10.177c0.177-4.048,0.502-11.114,0.786-18.315c0,0-7.242-3.041-13.889-6.716
					c-6.65-3.669-12.682-7.186-11.373-3.449l3.043,6.037c0,0-3.502,2.455-6.764,4.354C5.424,25.2,0.709,27.982,0.855,40.764
					L1.314,72.886z"/>
			</g>
		</g>
	</g>
	<g>
		<rect x="41.245" y="8.227" fill="#F58E89" width="54.055" height="129.088"/>
		<rect x="37.086" fill="#3D4A3D" width="61.345" height="8.226"/>
		<rect x="39.494" y="50.077" fill="#EC6562" width="56.693" height="5.14"/>
		<rect x="39.662" y="8.076" fill="#EC6562" width="56.693" height="5.14"/>
		<rect x="39.494" y="92.078" fill="#EC6562" width="56.693" height="5.141"/>
		<g>
			<g>
				<rect x="48.6" y="58.714" fill="#5C5C60" width="13.845" height="18.643"/>
				<g>
					<rect x="50.031" y="60.278" fill="#ADCDD9" width="4.412" height="4.087"/>
					<rect x="56.6" y="60.278" fill="#ADCDD9" width="4.413" height="4.087"/>
				</g>
				<g>
					<rect x="50.031" y="66.018" fill="#ADCDD9" width="4.412" height="4.089"/>
					<rect x="56.6" y="66.018" fill="#ADCDD9" width="4.413" height="4.089"/>
				</g>
				<g>
					<rect x="50.031" y="71.759" fill="#ADCDD9" width="4.412" height="4.088"/>
					<rect x="56.6" y="71.759" fill="#ADCDD9" width="4.413" height="4.088"/>
				</g>
				<rect x="46.951" y="77.356" fill="#576A8A" width="17.141" height="3.021"/>
				<polygon fill="#445772" points="60.218,83.402 50.826,83.402 48.6,80.378 62.444,80.378 				"/>
			</g>
			<g>
				<rect x="73.573" y="58.714" fill="#5C5C60" width="13.845" height="18.643"/>
				<g>
					<rect x="75.005" y="60.278" fill="#ADCDD9" width="4.411" height="4.087"/>
					<rect x="81.574" y="60.278" fill="#ADCDD9" width="4.413" height="4.087"/>
				</g>
				<g>
					<rect x="75.005" y="66.018" fill="#ADCDD9" width="4.411" height="4.089"/>
					<rect x="81.574" y="66.018" fill="#ADCDD9" width="4.413" height="4.089"/>
				</g>
				<g>
					<rect x="75.005" y="71.759" fill="#ADCDD9" width="4.411" height="4.088"/>
					<rect x="81.574" y="71.759" fill="#ADCDD9" width="4.413" height="4.088"/>
				</g>
				<rect x="71.926" y="77.356" fill="#576A8A" width="17.141" height="3.021"/>
				<polygon fill="#445772" points="85.192,83.402 75.799,83.402 73.573,80.378 87.418,80.378 				"/>
			</g>
		</g>
		<g>
			<g>
				<rect x="48.6" y="98.825" fill="#5C5C60" width="13.845" height="18.643"/>
				<g>
					<rect x="50.031" y="100.39" fill="#ADCDD9" width="4.412" height="4.088"/>
					<rect x="56.6" y="100.39" fill="#ADCDD9" width="4.413" height="4.088"/>
				</g>
				<g>
					<rect x="50.031" y="106.131" fill="#ADCDD9" width="4.412" height="4.087"/>
					<rect x="56.6" y="106.131" fill="#ADCDD9" width="4.413" height="4.087"/>
				</g>
				<g>
					<rect x="50.031" y="111.871" fill="#ADCDD9" width="4.412" height="4.087"/>
					<rect x="56.6" y="111.871" fill="#ADCDD9" width="4.413" height="4.087"/>
				</g>
				<rect x="46.951" y="117.468" fill="#576A8A" width="17.141" height="3.023"/>
				<polygon fill="#445772" points="60.218,123.514 50.826,123.514 48.6,120.491 62.444,120.491 				"/>
			</g>
			<g>
				<rect x="73.573" y="98.825" fill="#5C5C60" width="13.845" height="18.643"/>
				<g>
					<rect x="75.005" y="100.39" fill="#ADCDD9" width="4.411" height="4.088"/>
					<rect x="81.574" y="100.39" fill="#ADCDD9" width="4.413" height="4.088"/>
				</g>
				<g>
					<rect x="75.005" y="106.131" fill="#ADCDD9" width="4.411" height="4.087"/>
					<rect x="81.574" y="106.131" fill="#ADCDD9" width="4.413" height="4.087"/>
				</g>
				<g>
					<rect x="75.005" y="111.871" fill="#ADCDD9" width="4.411" height="4.087"/>
					<rect x="81.574" y="111.871" fill="#ADCDD9" width="4.413" height="4.087"/>
				</g>
				<rect x="71.926" y="117.468" fill="#576A8A" width="17.141" height="3.023"/>
				<polygon fill="#445772" points="85.192,123.514 75.799,123.514 73.573,120.491 87.418,120.491 				"/>
			</g>
		</g>
		<g>
			<rect x="48.6" y="18.601" fill="#5C5C60" width="13.845" height="18.642"/>
			<g>
				<rect x="50.031" y="20.165" fill="#ADCDD9" width="4.412" height="4.088"/>
				<rect x="56.6" y="20.165" fill="#ADCDD9" width="4.413" height="4.088"/>
			</g>
			<g>
				<rect x="50.031" y="25.906" fill="#ADCDD9" width="4.412" height="4.088"/>
				<rect x="56.6" y="25.906" fill="#ADCDD9" width="4.413" height="4.088"/>
			</g>
			<g>
				<rect x="50.031" y="31.646" fill="#ADCDD9" width="4.412" height="4.089"/>
				<rect x="56.6" y="31.646" fill="#ADCDD9" width="4.413" height="4.089"/>
			</g>
			<rect x="46.951" y="37.243" fill="#576A8A" width="17.141" height="3.023"/>
			<polygon fill="#445772" points="60.218,43.29 50.826,43.29 48.6,40.267 62.444,40.267 			"/>
			<rect x="73.573" y="18.601" fill="#5C5C60" width="13.845" height="18.642"/>
			<g>
				<rect x="75.005" y="20.165" fill="#ADCDD9" width="4.411" height="4.088"/>
				<rect x="81.574" y="20.165" fill="#ADCDD9" width="4.413" height="4.088"/>
			</g>
			<g>
				<rect x="75.005" y="25.906" fill="#ADCDD9" width="4.411" height="4.088"/>
				<rect x="81.574" y="25.906" fill="#ADCDD9" width="4.413" height="4.088"/>
			</g>
			<g>
				<rect x="75.005" y="31.646" fill="#ADCDD9" width="4.411" height="4.089"/>
				<rect x="81.574" y="31.646" fill="#ADCDD9" width="4.413" height="4.089"/>
			</g>
			<rect x="71.926" y="37.243" fill="#576A8A" width="17.141" height="3.023"/>
			<polygon fill="#445772" points="85.192,43.29 75.799,43.29 73.573,40.267 87.418,40.267 			"/>
		</g>
	</g>
</g>
</svg>
