<?xml version="1.0" encoding="utf-8"?>
<!-- Generator: Adobe Illustrator 16.0.0, SVG Export Plug-In . SVG Version: 6.00 Build 0)  -->
<!DOCTYPE svg PUBLIC "-//W3C//DTD SVG 1.1//EN" "http://www.w3.org/Graphics/SVG/1.1/DTD/svg11.dtd">
<svg version="1.1" id="Layer_1" xmlns="http://www.w3.org/2000/svg" xmlns:xlink="http://www.w3.org/1999/xlink" x="0px" y="0px"
	 width="52.28px" height="25.008px" viewBox="0 0 52.28 25.008" enable-background="new 0 0 52.28 25.008" xml:space="preserve">
<g>
	<rect x="4.037" y="-118.269" fill="#F58F8A" width="45.314" height="143.277"/>
	<g>
		<polygon fill="#465873" points="17.891,0 11.874,0 10.448,-1.863 19.318,-1.863 		"/>
	</g>
	<g>
		<polygon fill="#465873" points="41.515,0 35.497,0 34.07,-1.863 42.941,-1.863 		"/>
	</g>
	<g>
		<g>
			<rect x="21.894" y="3.451" fill="#465873" width="9.602" height="19.709"/>
			<path fill="#464444" d="M31.796,23.449H21.593V3.162h10.203V23.449z M22.193,22.871h9.001V3.74h-9.001V22.871z"/>
		</g>
		<g>
			<path fill="#586A8A" d="M30.504,21.906h-7.544v-5.383h7.544V21.906L30.504,21.906z M23.228,21.646h7.008v-4.865h-7.008V21.646z"
				/>
		</g>
		<g>
			<path fill="#586A8A" d="M30.371,16.184h-7.277V4.924h7.277V16.184z M23.393,15.895h6.676V5.215h-6.676V15.895z"/>
		</g>
	</g>
	<rect x="17.213" y="23.359" fill="#AEB0B9" width="18.962" height="1.68"/>
</g>
</svg>
