<?xml version="1.0" encoding="utf-8"?>
<!-- Generator: Adobe Illustrator 16.0.0, SVG Export Plug-In . SVG Version: 6.00 Build 0)  -->
<!DOCTYPE svg PUBLIC "-//W3C//DTD SVG 1.1//EN" "http://www.w3.org/Graphics/SVG/1.1/DTD/svg11.dtd">
<svg version="1.1" id="Layer_1" xmlns="http://www.w3.org/2000/svg" xmlns:xlink="http://www.w3.org/1999/xlink" x="0px" y="0px"
	 width="52.28px" height="29.336px" viewBox="0 0 52.28 29.336" enable-background="new 0 0 52.28 29.336" xml:space="preserve">
<g>
	<rect x="4.037" y="8.106" fill="#F58F8A" width="45.314" height="143.277"/>
	<rect x="1.107" fill="#3E4B3E" width="51.173" height="5.069"/>
	<rect x="2.848" y="5.024" fill="#EB6562" width="47.691" height="3.167"/>
	<rect x="2.848" y="29.336" fill="#EB6562" width="47.691" height="3.167"/>
	<g>
		<rect x="10.448" y="11.416" fill="#5D5D60" width="8.87" height="11.49"/>
		<g>
			<rect x="11.364" y="12.38" fill="#ADCDD9" width="2.827" height="2.52"/>
			<rect x="15.573" y="12.38" fill="#ADCDD9" width="2.826" height="2.52"/>
		</g>
		<g>
			<rect x="11.364" y="15.919" fill="#ADCDD9" width="2.827" height="2.519"/>
			<rect x="15.573" y="15.919" fill="#ADCDD9" width="2.826" height="2.519"/>
		</g>
		<g>
			<rect x="11.364" y="19.457" fill="#ADCDD9" width="2.827" height="2.52"/>
			<rect x="15.573" y="19.457" fill="#ADCDD9" width="2.826" height="2.52"/>
		</g>
		<rect x="9.392" y="22.906" fill="#586A8A" width="10.981" height="1.863"/>
		<polygon fill="#465873" points="17.891,26.633 11.874,26.633 10.448,24.769 19.318,24.769 		"/>
	</g>
	<g>
		<rect x="34.072" y="11.416" fill="#5D5D60" width="8.869" height="11.49"/>
		<g>
			<rect x="34.987" y="12.38" fill="#ADCDD9" width="2.828" height="2.52"/>
			<rect x="39.197" y="12.38" fill="#ADCDD9" width="2.827" height="2.52"/>
		</g>
		<g>
			<rect x="34.987" y="15.919" fill="#ADCDD9" width="2.828" height="2.519"/>
			<rect x="39.197" y="15.919" fill="#ADCDD9" width="2.827" height="2.519"/>
		</g>
		<g>
			<rect x="34.987" y="19.457" fill="#ADCDD9" width="2.828" height="2.52"/>
			<rect x="39.197" y="19.457" fill="#ADCDD9" width="2.827" height="2.52"/>
		</g>
		<rect x="33.014" y="22.906" fill="#586A8A" width="10.983" height="1.863"/>
		<polygon fill="#465873" points="41.515,26.633 35.497,26.633 34.072,24.769 42.941,24.769 		"/>
	</g>
</g>
</svg>
