<?xml version="1.0" encoding="utf-8"?>
<!-- Generator: Adobe Illustrator 16.0.0, SVG Export Plug-In . SVG Version: 6.00 Build 0)  -->
<!DOCTYPE svg PUBLIC "-//W3C//DTD SVG 1.1//EN" "http://www.w3.org/Graphics/SVG/1.1/DTD/svg11.dtd">
<svg version="1.1" id="Layer_1" xmlns="http://www.w3.org/2000/svg" xmlns:xlink="http://www.w3.org/1999/xlink" x="0px" y="0px"
	 width="52.28px" height="25.152px" viewBox="0 0 52.28 25.152" enable-background="new 0 0 52.28 25.152" xml:space="preserve">
<g>
	<rect x="4.037" y="-73.007" fill="#F58F8A" width="45.314" height="143.277"/>
	<rect x="2.848" fill="#EB6562" width="47.691" height="3.165"/>
	<g>
		<rect x="10.448" y="5.149" fill="#5D5D60" width="8.87" height="11.49"/>
		<g>
			<rect x="11.364" y="6.112" fill="#ADCDD9" width="2.827" height="2.52"/>
			<rect x="15.573" y="6.112" fill="#ADCDD9" width="2.826" height="2.52"/>
		</g>
		<g>
			<rect x="11.364" y="9.651" fill="#ADCDD9" width="2.827" height="2.52"/>
			<rect x="15.573" y="9.651" fill="#ADCDD9" width="2.826" height="2.52"/>
		</g>
		<g>
			<rect x="11.364" y="13.19" fill="#ADCDD9" width="2.827" height="2.518"/>
			<rect x="15.573" y="13.19" fill="#ADCDD9" width="2.826" height="2.518"/>
		</g>
		<rect x="9.392" y="16.639" fill="#586A8A" width="10.981" height="1.865"/>
		<polygon fill="#465873" points="17.891,20.366 11.874,20.366 10.448,18.504 19.318,18.504 		"/>
	</g>
	<g>
		<rect x="34.07" y="5.108" fill="#5D5D60" width="8.871" height="11.492"/>
		<g>
			<rect x="34.987" y="6.073" fill="#ADCDD9" width="2.827" height="2.52"/>
			<rect x="39.196" y="6.073" fill="#ADCDD9" width="2.827" height="2.52"/>
		</g>
		<g>
			<rect x="34.987" y="9.61" fill="#ADCDD9" width="2.827" height="2.52"/>
			<rect x="39.196" y="9.61" fill="#ADCDD9" width="2.827" height="2.52"/>
		</g>
		<g>
			<rect x="34.987" y="13.149" fill="#ADCDD9" width="2.827" height="2.52"/>
			<rect x="39.196" y="13.149" fill="#ADCDD9" width="2.827" height="2.52"/>
		</g>
		<rect x="33.014" y="16.598" fill="#586A8A" width="10.983" height="1.863"/>
		<polygon fill="#465873" points="41.515,20.325 35.497,20.325 34.07,18.461 42.941,18.461 		"/>
	</g>
</g>
</svg>
