<?xml version="1.0" encoding="utf-8"?>
<!-- Generator: Adobe Illustrator 16.0.0, SVG Export Plug-In . SVG Version: 6.00 Build 0)  -->
<!DOCTYPE svg PUBLIC "-//W3C//DTD SVG 1.1//EN" "http://www.w3.org/Graphics/SVG/1.1/DTD/svg11.dtd">
<svg version="1.1" id="Layer_1" xmlns="http://www.w3.org/2000/svg" xmlns:xlink="http://www.w3.org/1999/xlink" x="0px" y="0px"
	 width="613.693px" height="1168.486px" viewBox="-233.693 -446.514 613.693 1168.486"
	 enable-background="new -233.693 -446.514 613.693 1168.486" xml:space="preserve">
<g>
	<path fill="#E4BFB2" d="M296.582-64.058c-13.563,4.165,4.664,100.255,4.664,100.255s11.549,156.716,11.767,157.995
		c0.563,8.755,0.471,14.042,0.251,17.066c-0.221,1.643-0.471,2.974-0.67,3.886c-3.198,4.77-3.624,14.505-3.862,16.379
		c-0.246,1.921,4.242,16.797,6.084,23.444c1,3.614,5.559,14.727,5.559,14.727c10.387,1.926,7.167-10.773,5.564-13.658
		c-1.61-2.877-1.461-10.683-1.461-10.683c5.173-2.544,9.894,5.754,9.894,5.754s0.902,11.028-1.139,14.001
		c-0.479,0.703-2.541,3.539-3.299,3.967c-18.592,10.562-7.056,12.218-7.056,12.218c20.184-3.75,21.436-16.305,21.436-16.305
		s4.643-12.381,6.392-17.302c1.752-4.921,0.524-10.62-2.783-16.725c-1.088-2.018-3.046-7.665-5.176-14.32
		c-0.277-1.734-1.656-10.017-3.034-13.054c-1.547-3.406-2.679-9.16-2.257-12.748c7.336-62.349,6.895-148.061,6.895-148.061
		l-2.734-131.709C341.615-88.927,333.118-75.27,296.582-64.058z"/>
	<g>
		<path fill="#E4BFB2" d="M39.191-81.634c0.838-5.187-17.361,103.14-24.628,110.774C8.655,35.345-111.611-77.481-111.611-77.481
			l-19.832,22.667c0,0,123.015,126.158,158.563,139.247C74.275,101.798,86.058-82.112,86.058-82.112L39.191-81.634z"/>
	</g>
	<g>
		<g>
			<path fill="#3B2319" d="M64.504,567.307c0,0-11.144,48.788-20.906,57.458c-9.757,8.67-24.146,22.267-32.481,35.604
				c-8.334,13.343-30.362,14.476-22.485,44.743c0,0,32.753,26.989,71.292-8.867c0,0,11.87-18.321,21.407-22.41
				c0,0,8.961-3.545,10.137-5.206c0,0,1.66-22.877-0.359-37.915l4.053-61.218L64.504,567.307z"/>
			<path fill="#5F3817" d="M64.823,560.721c0,0-11.146,48.789-20.903,57.459c-9.758,8.67-24.149,22.262-32.482,35.606
				c-8.333,13.341-26.146,18.139-23.585,44.685c0,0,33.855,27.05,72.388-8.811c0,0,11.872-18.319,21.408-22.413
				c0,0,8.962-3.542,10.14-5.203c0,0,6.374-22.56,4.354-37.592l-0.666-61.539L64.823,560.721z"/>
		</g>
		<path fill="#210C08" d="M60.12,636.805c-0.057,1.187-1.371,0.791-2.507,0.73c-1.136-0.06-2.007-1.067-1.95-2.256
			c0.058-1.187,1.026-2.099,2.157-2.039C58.957,633.302,60.176,635.621,60.12,636.805z"/>
		<path fill="#210C08" d="M65.659,627.302c-0.057,1.183-1.5,2.039-2.634,1.98c-1.135-0.065-2.009-1.071-1.953-2.256
			c0.059-1.187,1.027-2.096,2.161-2.039C64.365,625.048,65.719,626.114,65.659,627.302z"/>
		<path fill="#210C08" d="M68.638,616.805c-0.056,1.181-0.999,1.596-2.132,1.536c-1.135-0.059-2.007-1.072-1.951-2.255
			c0.056-1.187,1.023-2.101,2.158-2.039C67.847,614.104,68.696,615.619,68.638,616.805z"/>
		<path fill="#2F0008" d="M74.951,605.51c-0.055,1.185-0.997,1.6-2.13,1.539c-1.136-0.06-2.007-1.069-1.951-2.256
			c0.057-1.185,1.021-2.099,2.157-2.039C74.162,602.816,75.011,604.322,74.951,605.51z"/>
		<path fill="#2F0008" d="M56.1,601.867c-0.459,1.091-1.311,1.202-2.142,0.815c-0.833-0.385-1.131-1.578-0.673-2.662
			c0.462-1.086,1.507-1.652,2.337-1.271C56.456,599.134,56.563,600.783,56.1,601.867z"/>
		<path fill="#210C08" d="M44.159,622.857c-0.773,0.865-1.612,0.68-2.277,0.03c-0.658-0.653-0.568-1.881,0.208-2.747
			c0.779-0.867,1.942-1.042,2.608-0.391C45.362,620.398,44.937,621.994,44.159,622.857z"/>
		<path fill="#210C08" d="M37.781,631.346c-0.78,0.869-1.618,0.68-2.282,0.03c-0.665-0.647-0.57-1.88,0.207-2.747
			c0.778-0.863,1.943-1.043,2.608-0.39C38.978,628.887,38.555,630.483,37.781,631.346z"/>
		<path fill="#210C08" d="M50.308,613.079c-0.46,1.089-1.311,1.202-2.144,0.815c-0.831-0.38-1.129-1.573-0.672-2.662
			c0.459-1.084,1.507-1.652,2.339-1.268C50.659,610.347,50.768,611.993,50.308,613.079z"/>
		<path fill="#D3B88D" d="M57.074,634.496c0,0-12.826-4.905-19.646-5.486c0,0-1.355,0.881-1.371,1.806c0,0,8.202,1.125,20.329,5.247
			C57.505,636.445,59.74,635.665,57.074,634.496z"/>
		<path fill="#D3B88D" d="M62.954,625.922c0,0-12.29-4.461-19.112-5.045c0,0-1.417,0.726-1.434,1.648c0,0,7.387,1.359,19.509,5.481
			C63.042,628.389,65.62,627.093,62.954,625.922z"/>
		<path fill="#D3B88D" d="M65.987,614.871c0,0-10.924-3.311-16.73-3.324c0,0-0.923,0.499-0.889,1.417c0,0,7.013,0.447,17.507,3.56
			C66.843,616.814,68.308,615.817,65.987,614.871z"/>
		<path fill="#D3B88D" d="M72.286,603.86c0,0-10.571-3.757-16.706-3.895c0,0-1.601,0.728-1.57,1.65c0,0,7.392,0.595,18.435,3.925
			C73.467,605.851,74.728,604.859,72.286,603.86z"/>
	</g>
	<g>
		<g>
			<path fill="#3B2319" d="M302.455,573.164c0,0,11.143,48.789,20.902,57.459c9.762,8.672,24.148,22.267,32.482,35.604
				c8.333,13.341,30.363,14.475,22.486,44.745c0,0-32.752,26.989-71.292-8.869c0,0-11.87-18.321-21.407-22.41
				c0,0-8.961-3.546-10.136-5.206c0,0-1.659-22.874,0.359-37.915l-4.053-61.216L302.455,573.164z"/>
			<path fill="#5F3817" d="M302.138,566.579c0,0,11.142,48.788,20.898,57.461c9.76,8.668,24.15,22.262,32.484,35.604
				s26.146,18.139,23.585,44.684c0,0-33.855,27.049-72.388-8.812c0,0-11.872-18.317-21.408-22.411c0,0-8.962-3.54-10.138-5.201
				c0,0-6.377-22.56-4.356-37.594l0.664-61.539L302.138,566.579z"/>
		</g>
		<path fill="#210C08" d="M303.61,637.82c0.055,1.187,1.369,0.788,2.506,0.728c1.137-0.06,2.006-1.066,1.948-2.256
			c-0.057-1.187-1.022-2.098-2.153-2.037C304.772,634.314,303.552,636.633,303.61,637.82z"/>
		<path fill="#210C08" d="M298.068,628.317c0.059,1.18,1.501,2.036,2.638,1.978c1.133-0.063,2.009-1.071,1.949-2.256
			c-0.058-1.185-1.023-2.096-2.159-2.039C299.364,626.059,298.01,627.126,298.068,628.317z"/>
		<path fill="#210C08" d="M295.091,617.817c0.053,1.183,0.997,1.598,2.129,1.537c1.137-0.06,2.008-1.071,1.953-2.256
			c-0.057-1.187-1.022-2.101-2.159-2.039C295.883,615.118,295.032,616.633,295.091,617.817z"/>
		<path fill="#2F0008" d="M288.777,606.522c0.057,1.187,1.001,1.6,2.133,1.539c1.135-0.06,2.004-1.069,1.948-2.256
			c-0.057-1.185-1.021-2.098-2.158-2.039C289.568,603.828,288.718,605.336,288.777,606.522z"/>
		<path fill="#2F0008" d="M307.627,602.879c0.457,1.091,1.311,1.202,2.142,0.815c0.831-0.385,1.132-1.578,0.673-2.662
			c-0.46-1.084-1.506-1.652-2.335-1.271C307.273,600.147,307.168,601.795,307.627,602.879z"/>
		<path fill="#210C08" d="M319.568,623.869c0.774,0.866,1.611,0.68,2.277,0.031c0.66-0.654,0.571-1.88-0.208-2.745
			c-0.779-0.87-1.939-1.045-2.605-0.394C318.367,621.411,318.79,623.006,319.568,623.869z"/>
		<path fill="#210C08" d="M325.948,632.36c0.781,0.867,1.616,0.678,2.282,0.03c0.662-0.648,0.57-1.882-0.206-2.749
			c-0.78-0.863-1.944-1.043-2.607-0.387C324.75,629.901,325.173,631.495,325.948,632.36z"/>
		<path fill="#210C08" d="M313.421,614.091c0.459,1.091,1.308,1.202,2.143,0.815c0.83-0.378,1.131-1.573,0.672-2.659
			c-0.459-1.087-1.507-1.655-2.337-1.271C313.071,611.359,312.96,613.005,313.421,614.091z"/>
		<path fill="#D3B88D" d="M306.655,635.508c0,0,12.827-4.904,19.645-5.486c0,0,1.356,0.883,1.371,1.808c0,0-8.2,1.126-20.326,5.245
			C306.224,637.459,303.987,636.677,306.655,635.508z"/>
		<path fill="#D3B88D" d="M300.773,626.933c0,0,12.295-4.461,19.111-5.042c0,0,1.42,0.726,1.436,1.646c0,0-7.389,1.359-19.511,5.481
			C300.686,629.401,298.107,628.105,300.773,626.933z"/>
		<path fill="#D3B88D" d="M297.742,615.884c0,0,10.926-3.31,16.73-3.324c0,0,0.92,0.498,0.889,1.416c0,0-7.013,0.45-17.507,3.564
			C296.886,617.828,295.419,616.83,297.742,615.884z"/>
		<path fill="#D3B88D" d="M291.442,604.873c0,0,10.572-3.758,16.705-3.896c0,0,1.603,0.729,1.572,1.65c0,0-7.394,0.595-18.436,3.928
			C290.259,606.863,288.999,605.874,291.442,604.873z"/>
	</g>
	<path fill="#2D434A" d="M287.1,116.314c0,0,69.809,485.879,44.54,496.601c0,0-51.035,23.491-69.648,8.747
		c0,0-27.249-193.354-25.92-212.119c1.331-18.766-36.916-134.206-55.532-148.949c0,0-34.188,30.003-46.857,106.055
		c0,0-16.714,243.779-32.672,246.456c0,0-77.552,13.632-68.242-11.837c0,0,20.977-415.575,56.862-486.614l81.777-24.875
		L287.1,116.314z"/>
	<path fill="#CDA89C" d="M149.734-231.536l10.591,68.449c0,0,25.766,38.523,67.85,5.609l7.118-53.717l8.354-43.032L149.734-231.536z
		"/>
	<path fill="#B7928A" d="M153.897-213.859c0,0,43.867,84.708,83.196-14.621L153.897-213.859z"/>
	<path fill="#001A28" d="M246.257-401.174c0,0,26.219,7.565,17.646,86.725l-5.547,35.799c0,0-3.408,7.7-4.914,10.084
		c-1.598,2.53-7.341,9.077-7.341,9.077l-7.914-117.987L246.257-401.174z"/>
	<path fill="#001A28" d="M122.724-362.193l3.526,78.326c0,0,2.116,12.169,3.208,16.099c2.533,9.074,9.904,21.895,9.904,21.895
		l8.575-93.522l-4.033-31.565L122.724-362.193z"/>
	<path fill="#E4BFB2" d="M251.301-350.249c0,0,6.052,46.894,0,71.096c-6.049,24.201-9.324,33.992-12.102,45.379
		c-3.03,12.432-21.933,30.252-38.572,29.495c-32.706-1.485-50.674-2.268-57.479-27.982c-6.809-25.717-15.885-40.842-13.614-67.315
		c2.267-26.471,0.754-52.185,0.754-52.185l24.959-37.061l70.34-9.076L251.301-350.249z"/>
	<path fill="#E4BFB2" d="M249.301-266.261c0,0,8.091,13.787,18.515-10.795c10.433-24.583-0.163-46.661-17.649-24.029
		L249.301-266.261z"/>
	<path opacity="0.3" enable-background="new    " d="M152.361-243.704l-14.236-4.835c0,0,6.625,22.086,9.792,27.958
		c1.414,2.623,3.845,4.645,5.98,6.725c3.232,3.147,8.611,5.056,12.394,6.2c7.883,2.383,23.303,2.623,30.4,3.403
		c12.337,1.358,22.004-4.712,28.456-9.266c3.446-2.43,9.732-11.371,11.945-14.96c1.843-2.992,1.967-5.475,2.964-8.695
		c1.063-3.434,3.591-13.923,3.591-13.923l-24.962,7.537l-34.079-3.541L152.361-243.704z"/>
	<path fill="#9F7B76" d="M263.511-281.549c2.585-6.223,2.282-14.546-0.123-16.386c-5.351-4.089-7.872,5.402-10.816,10.72
		c-0.509,0.924,0.395,3.729,0.035,4.659c-0.659,1.73-2.465,1.572-2.718,3.159c-0.666,4.187,3.378,2.861,5.43,3.648
		C258.149-274.666,257.083-266.044,263.511-281.549z"/>
	<path fill="#E4BFB2" d="M131.747-270.271c0,0-8.96,14.771-19.384-9.812c-10.428-24.583,2.993-45.586,18.493-22.327L131.747-270.271
		z"/>
	<path fill="#9F7B76" d="M116.668-284.574c-2.584-6.225-2.281-14.546,0.126-16.386c5.351-4.089,7.872,5.402,10.813,10.721
		c0.511,0.924-0.392,3.728-0.035,4.658c0.661,1.73,2.465,1.572,2.719,3.158c0.666,4.188-3.378,2.862-5.428,3.648
		C122.029-277.691,123.093-269.069,116.668-284.574z"/>
	<path fill="#001A28" d="M237.687-365.754c0,0,7.187,10.212,9.078,16.639c1.889,6.43,2.362,74.12-0.663,89.625
		c0,0,10.365-20.798,8.476-43.866l0.505-14.876l3.027-18.781l-2.08-34.224L237.687-365.754z"/>
	<path fill="#001A28" d="M137.363-359.039c0,0-7.058,60.126-1.766,87.354l-6.02-20.548l-3.45-15.284l2.536-50.768L137.363-359.039z"
		/>
	<path fill="#001A28" d="M226.285-323.332c-2.507-2.667-22.007-0.44-24.653-0.237c-1.524,0.117-1.099,4.043-1.065,6.619
		c0.037,2.58,1.006,5.594,3.904,5.585c0.696,0,13.117-4.643,18.367-6.099c3.282-0.908,16.181,8.199,17.088,7.446
		C241.583-311.388,226.631-322.963,226.285-323.332z"/>
	<path fill="#001A28" d="M151.197-323.682c2.455-2.311,22,0.213,24.65,0.467c1.529,0.145,1.179,3.639,1.2,5.936
		c0.016,2.301-0.893,4.965-3.794,4.876c-0.695-0.019-13.214-4.505-18.488-5.948c-3.304-0.902-16.022,6.871-16.944,6.172
		C136.136-313.445,150.86-323.362,151.197-323.682z"/>
	<path fill="#FFFFFF" d="M190.623-245.393c-1.886-0.019-5.923,2.142-5.923,2.142s-4.827-2.427-6.556-2.269
		c-4.37,0.406-15.252,5.673-15.252,5.673s9.808,14.936,13.36,15.672c4.567,0.944,14.215,1.548,18.657,0.126
		c3.889-1.248,13.235-15.041,13.235-15.041S194.814-245.347,190.623-245.393z"/>
	<path fill="#E4E1E2" d="M157.503-181.33c0,0,38.435,76.51,73.887-0.406c0,0,28.616-7.914,46.135-4.939
		c17.521,2.975,32.215,0.264,50.065,45.219c17.851,44.955,20.537,69.026,20.537,69.026s-28.36,24.299-59.433,20.333
		c0,0,1.379,87.104,3.364,103.632c1.984,16.528,1.616,51.679,3.231,72.673c1.421,18.473,1.841,40.572,2.5,46.523
		c0,0-96.898,84.6-225.365,13.286c-3.21-5.104,10.785-242.744,10.785-242.744S62.727-48.59,33.657-78.467
		c0,0,21.809-54.914,35.892-79.04c0,0,7.931-16.526,33.054-15.204C127.728-171.39,157.503-181.33,157.503-181.33z"/>
	<g>
		<path fill="#7A5A31" d="M295.013,172.977c-19.934,5.041-38.025,13.022-59.73,17.419c-40.029,8.113-84.955,10.667-124.212,6.864
			c-11.896-1.153-40.646-11.392-40.646-11.392l-4.045,29.483c0,0,82.565,14.668,121.466,12.067
			c53.898-3.605,111.879-19.536,111.879-19.536S295.083,172.96,295.013,172.977z"/>
		<path fill="#553D1F" d="M160.811,205.116l-44.6-6.024c-13.843-4.018-51.325-9.976-50.62,13.131
			c1.28,41.908-16.587,118.647,44.721,118.647c65.461,0,53.851-53.75,54.918-107.145
			C165.336,218.294,164.421,205.607,160.811,205.116z"/>
		<path fill="#16191D" d="M155.714,300.191l-86.779-77.945c0-18.661,2.61-20.491,23.425-20.491c7.353,0,65.379,7.459,66.972,12.056
			C161.029,218.73,163.25,298.31,155.714,300.191z"/>
		<g>
			<path fill="#5E6163" d="M114.262,167.773c-4.972-2.154-9.943-4.305-14.912-6.459c-0.144,37.838-0.283,75.671-0.425,113.51
				c2.126,2.279,4.252,4.566,6.373,6.851c2.28-0.136,4.555-0.27,6.831-0.404C114.982,240.886,115.254,205.612,114.262,167.773z"/>
			<path fill="#5E6163" d="M107.137,132.329c7.774,0.03,14.047,8.936,14.007,19.895c-0.04,10.959-6.377,19.816-14.154,19.792
				c-7.781-0.032-14.052-8.936-14.011-19.896C93.021,141.16,99.356,132.303,107.137,132.329L107.137,132.329z M107.112,138.731
				c-2.83-0.012-5.144,4.662-5.159,10.436c-0.022,5.774,2.252,10.464,5.081,10.475c2.827,0.01,5.14-4.665,5.158-10.438
				C112.216,143.431,109.939,138.742,107.112,138.731z"/>
			<path fill="#5E6163" d="M115.412,314.996c6.22-0.313,11.557-13.398,9.227-22.729c-2.602-10.425-13.616-17.277-19.949-18.915
				c-28.765,8.711-28.822,43.35-6.764,40.514c2.431-3.404-13.23-19.035,6.255-18.111
				C122.03,296.034,105.455,315.175,115.412,314.996z"/>
		</g>
		<g>
			<path fill="#A3A6A7" d="M90.224,278.176c4.114,0.893,8.228,1.782,12.337,2.674c-5.589-28.86-11.177-57.718-16.771-86.58
				c-1.963-1.42-3.923-2.841-5.893-4.261c-1.714,0.444-3.425,0.889-5.141,1.333C78.666,222.555,83.77,249.483,90.224,278.176z"/>
			<path fill="#A3A6A7" d="M100.992,304.115c-5.935,1.15-12.055-4.693-13.674-13.053c-1.619-8.361,1.877-16.068,7.812-17.218
				c5.93-1.148,12.055,4.697,13.669,13.056C110.419,295.26,106.922,302.967,100.992,304.115L100.992,304.115z M100.044,299.234
				c2.158-0.418,3.215-4.329,2.361-8.73c-0.852-4.406-3.291-7.637-5.448-7.22c-2.157,0.42-3.217,4.328-2.362,8.731
				C95.45,296.419,97.886,299.651,100.044,299.234z"/>
			<path fill="#A3A6A7" d="M67.174,166.132c-4.69,1.178-6.789,11.954-3.608,18.717c3.555,7.553,12.98,11.119,18.053,11.41
				c20.612-10.97,15.444-37.38-0.944-31.897c-1.34,2.961,12.952,12.518-2.039,14.747C64.988,181.583,74.738,164.5,67.174,166.132z"
				/>
		</g>
		<path fill="#6C4F29" d="M126.857,212.348c17.086,17.308,24.505,52.399,21.946,74.367c-2.057,17.714-12.508,24.524-29.062,29.728
			c-6.414,2.016-16.531,2.326-18.408-4.982c-1.912-7.434,2.69-14.207-12.376-10.604c-3.688,0.883-4.022,14.153-12.762,7.708
			c-1.382-1.019-2.544-1.668-3.513-2.024c5.601,12.699,16.667,21.097,37.842,21.097c35.633,0,47.236-13.056,50.571-34.509
			c1.225-7.868,2.833-74.478-2.249-77.181L126.857,212.348z"/>
		<g>
			<g>
				<g>
					<path fill="#A3A6A7" d="M144.896,160.951c0.315-2.919,0.805-7.491,0.805-7.491l-2.318-0.25l-0.171-0.019l-2.142-0.229
						c0,0-0.492,4.568-0.805,7.491c-0.312,2.92,0.759,5.414,0.759,5.414l0,0h-0.002l-7.944,74.106l1.904,0.202l7.946-74.106h-0.019
						l0.001-0.001C142.91,166.069,144.583,163.872,144.896,160.951z"/>
				</g>
				<g>
					<path fill="#FFC92C" d="M137.774,248.477l0.601-5.625l2.162,0.233l0.491-4.572l-13.461-1.446l-0.491,4.571l2.157,0.235
						l-0.602,5.624c-2.639,1.269-4.585,3.822-4.919,6.95l-4.303,40.131c-0.514,4.805,2.961,9.118,7.767,9.632
						c4.804,0.516,9.117-2.961,9.633-7.765l4.302-40.133C141.445,253.187,140.083,250.279,137.774,248.477z"/>
					<g>
						<path fill="#A48026" d="M126.909,297.501c-0.112,1.053-1.056,1.814-2.108,1.703l0,0c-1.051-0.112-1.815-1.057-1.701-2.11
							l4.613-43.05c0.113-1.055,1.058-1.816,2.111-1.705l0,0c1.05,0.115,1.813,1.059,1.702,2.11L126.909,297.501z"/>
						<path fill="#A48026" d="M133.004,298.153c-0.112,1.052-1.057,1.815-2.11,1.704l0,0c-1.05-0.113-1.811-1.057-1.7-2.11
							l4.617-43.053c0.112-1.05,1.055-1.813,2.109-1.7l0,0c1.051,0.114,1.813,1.058,1.699,2.109L133.004,298.153z"/>
					</g>
					<path opacity="0.4" fill="#ECEAE1" enable-background="new    " d="M136.808,296.443l4.302-40.133
						c0.335-3.124-1.027-6.031-3.333-7.833l0.602-5.625l2.16,0.234l0.489-4.572l-6.737-0.724l-7.113,66.42
						C131.979,304.724,136.291,301.247,136.808,296.443z"/>
				</g>
			</g>
		</g>
		<path fill="#785931" d="M146.73,214.183l-37.607-4.569c-11.37-3.805-42.145-9.453-41.564,12.443
			c1.049,39.715-13.624,97.964,36.72,97.964c31.305,0,41.503-12.374,44.43-32.697C149.78,279.864,151.195,216.74,146.73,214.183z"/>
		<g>
			<path fill="#313235" d="M102.758,230.823c1.167-0.356,2.958-0.258,4.192,0.576c-0.166,1.979-0.334,3.956-0.508,5.934
				c-1.407,0.105-2.556,1.547-2.619,3.352c-0.059,1.649,0.809,3.055,2.024,3.441l-0.614,6.888c-2.197,0.494-3.92,2.865-4.017,5.777
				c-0.12,3.334,1.936,6.112,4.586,6.205c2.65,0.094,4.895-2.536,5.008-5.872c0.108-3.063-1.619-5.657-3.951-6.131l0.523-6.934
				c1.074-0.441,1.872-1.689,1.923-3.185c0.048-1.368-0.545-2.574-1.447-3.165l0.505-6.693c1.355-0.601,2.876,0.099,4.293,0.794
				c3.258,7.852,5.103,15.87,6.523,23.767c0.661,5.708-0.709,20.417-1.063,30.627c-9.367-1.765-18.839-0.508-28.104-5.292
				c1.46-13.195,1.731-29.236,4.394-39.582C96.79,236.844,99.471,233.228,102.758,230.823z"/>
			<path fill="#A3A6A7" d="M99.064,228.084c1.165-0.355,2.958-0.258,4.192,0.576c-0.167,1.98-0.336,3.956-0.512,5.935
				c-1.407,0.102-2.556,1.547-2.618,3.349c-0.057,1.647,0.807,3.054,2.022,3.442l-0.611,6.886c-2.199,0.496-3.921,2.868-4.02,5.781
				c-0.114,3.332,1.94,6.112,4.586,6.205c2.653,0.091,4.896-2.539,5.011-5.874c0.108-3.062-1.62-5.655-3.951-6.129l0.521-6.935
				c1.074-0.441,1.873-1.688,1.925-3.185c0.046-1.37-0.547-2.575-1.446-3.164l0.508-6.696c1.352-0.601,2.87,0.102,4.29,0.799
				c3.257,7.846,5.101,15.867,6.519,23.763c0.663,5.709-0.707,20.42-1.062,30.628c-9.369-1.763-18.839-0.508-28.105-5.292
				c1.462-13.193,1.731-29.236,4.394-39.582C93.098,234.104,95.774,230.49,99.064,228.084z"/>
			<g>
				<g>
					<path id="SVGID_6_" fill="#D78446" d="M99.256,285.998l-12.096-1.582c-1.605,9.437-15.18,13.841-17.24,37.604
						c-0.124,1.434-5.229,39.583,6.73,28.024c7.324-7.082,5.046-38.012,20.651-44.527c2.15-1.729,3.275-2.109,4.447-2.725
						c3.209,6.773,8.049,15.967,9.591,32.475c0.084,0.879-1.783,18.784,2.51,21.27c1.139,0.66,4.081,1.087,5.693-1.215
						c8.234-11.765,3.468-44.912-2.264-57.397c-0.554-1.206-1.276-6.814-1.229-8.492c-7.583-4.571-14.531-2.65-16.717-3.677
						C99.304,285.837,99.281,285.918,99.256,285.998z"/>
				</g>
			</g>
			<path fill="#313235" d="M82.117,287.208c-4.226-2.737-3.129-9.395,1.205-9.894c12.331-0.651,24.716,3.449,38.037,5.419
				c3.745,1.929,3.229,8.679,0.09,9.938C113.45,294.913,95.586,289.04,82.117,287.208z"/>
		</g>
		<path fill="#553D1F" d="M148.494,291.35c-22.646,2.432-34.223,4.998-57.081,1.109c-7.206-1.226-21.372-3.667-25.279-8.538
			c-10.991,4.485-5.952,14.581,1.583,17.926c21.95,9.745,78.302,9.706,79.138-0.554C147.068,298.674,148.494,294.726,148.494,291.35
			z"/>
	</g>
	<path fill="#B7928A" d="M233.024-299.942c-12.796,15.229-28.146,1.728-28.146,1.728S219.705-291.6,233.024-299.942z"/>
	<path fill="#B7928A" d="M142.639-299.942c12.795,15.229,28.147,1.728,28.147,1.728S155.958-291.6,142.639-299.942z"/>
	<g>
		<g>
			<path fill="#F2C87D" d="M269.237-357.603c-0.089-0.51-0.222-1.027-0.408-1.555c-1.283-3.604-4.666-14.3-4.666-18.202
				c0-30.388-32.242-55.028-72.026-55.028c-39.775,0-72.023,24.64-72.023,55.028c0,3.424-3.5,13.888-5.958,19.757H269.237z"/>
			<path fill="#F2C87D" d="M191.065-412.422c10.255,0,18.62-7.375,18.62-16.417c0-9.044-8.369-16.418-18.62-16.418
				c-10.258,0-18.621,7.375-18.621,16.418C172.444-419.797,180.81-412.422,191.065-412.422z"/>
			<g>
				<path fill="#DCAE5F" d="M149.629-421.778c6.485-3.631,13.798-6.451,21.676-8.268c0.508,1.129,0.791,2.356,0.791,3.64v44.169
					c0,5.449-5.053,9.904-11.235,9.904l0,0c-6.182,0-11.232-4.455-11.232-9.904V-421.778L149.629-421.778z"/>
				<path fill="#DCAE5F" d="M211.031-430.468c7.752,1.604,14.991,4.172,21.47,7.529v40.705c0,5.449-5.055,9.904-11.234,9.904l0,0
					c-6.178,0-11.231-4.456-11.231-9.904v-44.171C210.035-427.849,210.39-429.23,211.031-430.468z"/>
			</g>
		</g>
		<path fill="#DCAE5F" d="M258.19-355.835c0,2.93-2.694,5.299-6.011,5.299H127.972c-3.315,0-6.009-2.372-6.009-5.299l0,0
			c0-2.925,2.694-5.299,6.009-5.299h124.208C255.496-361.135,258.19-358.76,258.19-355.835L258.19-355.835z"/>
	</g>
	<path fill="#FFFFFF" d="M204.877-298.213c0,0,10.616-14.318,28.146-1.726C233.024-299.942,224.385-289.817,204.877-298.213z"/>
	<g>
		<circle fill="#37393E" cx="219.352" cy="-299.99" r="4.942"/>
		<path fill="#0E0D18" d="M221.992-300.87c-0.283-1.236-2.174-1.67-3.376-1.349c-1.216,0.324-1.804,1.581-1.522,2.818
			c0.283,1.236,1.772,1.989,2.984,1.669C221.286-298.055,222.282-299.635,221.992-300.87"/>
		<path fill="#FFFFFF" d="M220.077-300.176c0.293,0.69,1.445,0.724,2.129,0.395c0.672-0.332,0.893-1.145,0.594-1.836
			c-0.285-0.692-1.235-0.959-1.905-0.625C220.214-301.911,219.787-300.867,220.077-300.176z"/>
	</g>
	<path fill="#B7928A" d="M233.024-299.942c-14.011-21.42-28.146,1.728-28.146,1.728S215.494-312.531,233.024-299.942z"/>
	<g>
		<path fill="#B7928A" d="M170.786-298.213c0,0-14.138-23.146-28.147-1.726C142.639-299.942,151.279-289.817,170.786-298.213z"/>
		<path fill="#FFFFFF" d="M170.786-298.213c0,0-10.618-14.318-28.147-1.726C142.639-299.942,151.279-289.817,170.786-298.213z"/>
		<circle fill="#37393E" cx="156.462" cy="-300.192" r="4.928"/>
		<path fill="#0E0D18" d="M153.977-301.069c0.282-1.234,2.167-1.668,3.372-1.345c1.208,0.321,1.798,1.577,1.516,2.811
			c-0.283,1.233-1.767,1.983-2.976,1.665C154.684-298.26,153.693-299.837,153.977-301.069"/>
		<path fill="#FFFFFF" d="M155.889-300.378c-0.294,0.689-1.441,0.722-2.123,0.393c-0.672-0.329-0.89-1.142-0.592-1.832
			c0.283-0.691,1.232-0.958,1.904-0.624C155.755-302.109,156.178-301.068,155.889-300.378z"/>
	</g>
	<path fill="#CDA89C" d="M162.899-239.846c0,0,9.808,14.936,13.359,15.672c4.567,0.943,14.216,1.548,18.657,0.126
		c3.89-1.248,13.236-15.041,13.236-15.041s-12.451,8.645-17.213,10.264c-2.906,0.987-9.129,0.717-12.053-0.221
		C174.236-230.538,162.899-239.846,162.899-239.846z"/>
	<path fill="#B7928A" d="M184.707-243.251c0,0-4.827-2.427-6.555-2.269c-4.371,0.406-15.253,5.673-15.253,5.673
		s10.587-0.041,14.369-0.377c1.875-0.167,5.557,1.074,7.436,1.132c1.624,0.052,4.811-0.812,6.431-0.881
		c4.255-0.18,17.013,0.881,17.013,0.881s-13.329-6.256-17.52-6.3C188.743-245.412,184.707-243.251,184.707-243.251z"/>
	<path fill="#001A28" d="M152.361-243.704l5.018,0.011l9.433,0.021c0,0,10.624,0.829,14.044,0.03c1.269-0.296,4.673-2.32,4.673-2.32
		s3.774,2.041,5.158,2.342c3.383,0.734,13.846,0.03,13.846,0.03l10.299,0.024l3.853,0.008c0,0-5.256-22.659-33.134-12.915
		C185.553-256.473,162.2-266.616,152.361-243.704z"/>
	<path fill="#D8ACA0" d="M174.808-269.328c-1.563,2.445-0.958,11.065,4.881,9.255c3.119-0.963,4.61,9.218,12.862-0.442
		c0.774-0.908,4.683,0.347,6.238-0.525c1.314-0.738,2.574-6.338,0.175-9.779c-0.897-1.291-1.525-1.495-3.92-3.129
		c0,0-4.307-30.872-7.854-30.94c-4.512-0.088-5.808,15.583-8.098,30.419C179.094-274.468,175.677-270.692,174.808-269.328z"/>
	<path fill="#E4BFB2" d="M-156.609-65.781c-1.81,5.58,1.245,11.566,6.825,13.376l16.063,5.213c5.58,1.811,11.569-1.246,13.379-6.828
		l1.246-3.838c1.811-5.579-1.247-11.569-6.825-13.376l-16.065-5.213c-5.579-1.811-11.568,1.246-13.377,6.826L-156.609-65.781z"/>
	<path fill="#E4BFB2" d="M-152.581-76.58c-3.622,4.611-2.817,11.287,1.795,14.909l19.462,15.275
		c4.612,3.619,11.289,2.816,14.909-1.797l10.932-13.929c3.62-4.614,2.816-11.289-1.798-14.91l-19.46-15.275
		c-4.614-3.619-11.291-2.815-14.909,1.798L-152.581-76.58z"/>
	<path fill="#E4BFB2" d="M-134.54-65.597c-4.252,5.538-3.263,13.587,2.209,17.979l1.276,1.024
		c5.472,4.389,13.354,3.458,17.602-2.079l9.614-12.524c4.25-5.54,3.258-13.588-2.211-17.977l-1.276-1.024
		c-5.472-4.39-13.353-3.46-17.603,2.079L-134.54-65.597z"/>
	<g>
		<g>
			<g>
				<path fill="#E13E60" d="M-153.373-21.92c0.869,0.15,7.993-7.507,9.094-9.02c1.102-1.509,9.904-10.928,9.096-12.492
					c-0.811-1.565-5.082-8.57-1.615-12.497c3.469-3.926,8.754-11.523,12.046-25.075c3.292-13.552,2.555-16.888,4.928-17.472
					c2.373-0.585,5.862-0.361,9.489-5.509c3.63-5.151,3.29-8.197,2.973-12.445c-0.315-4.249-2.808-10.691-1.129-12.997
					c1.68-2.309,3.836-1.59,8.13,4.215c4.296,5.805,4.568,7.102,4.192,8.287c0,0,2.235,0.776,3.488-1.112
					c1.255-1.89,2.188-6.686,1.365-9.232c-0.824-2.549-2.434-3.844-3.581-3.948c-1.143-0.101-5.91-0.41-11.539-5.72
					c-5.626-5.316-30.415-27.622-34.725-33.074c-4.31-5.451-4.264-6.512-7.497-9.599c-3.234-3.084-16.274-14.77-17.325-15.17
					c-1.048-0.398-2.106,0.048-3.285,1.506c-1.18,1.455-14.126,15.89-16.184,18.044c-2.054,2.156-4.335,3.784-3.413,9.204
					c0.924,5.417,2.136,14.458,3.028,17.91c0.896,3.453,4.114,10.906,8.988,15.918c4.872,5.008,14.438,12.944,14.438,12.944
					s2.568-3.363,5.474-1.001c2.91,2.359,15.647,13.459,17.222,14.974c1.578,1.514,4.574,4.422,3.217,8.792
					c-1.355,4.371-9.251,16.886-11.706,21.431c-2.457,4.541-3.919,6.886-4.925,6.763c-1.005-0.123-0.999-2.31-0.999-2.31
					l-2.451,0.528l-0.011,2.185l1.527,2.086c0,0-4.657,11.583-6.012,14.614c-1.356,3.029-4.918,5.916-8.295,6.376
					c-3.38,0.462-4.177,1.552-4.475,2.465c-0.252,0.772-1.202,3.994-0.798,4.777L-153.373-21.92z"/>
			</g>
			<g>
				<g>
					<g>
						<path fill="#E9E9E8" d="M-188.257-189.692l-15.639-14.357l-0.014-0.503c-0.026-0.907-0.404-3.457-1.831-4.307
							c-0.612-0.369-1.155-0.328-2.053-0.224c-1.265,0.149-3,0.351-4.898-1.53c-1.665-1.643-1.555-3.203-1.476-4.345
							c0.067-0.929,0.107-1.542-0.622-2.354c-0.67-0.746-1.618-0.753-3.106-0.7c-1.635,0.06-3.666,0.134-4.989-1.767
							c-1.135-1.629-1.209-3.139-1.265-4.353c-0.057-1.12-0.112-1.733-0.667-2.308c-0.465-0.478-1.279-0.506-2.572-0.498
							c-1.581,0.011-3.543,0.024-5.046-1.566c-1.68-1.771-1.281-3.64-1.02-4.876c0.071-0.33,0.176-0.829,0.138-0.977l1.618-1.697
							c1.031,0.938,0.756,2.225,0.558,3.164c-0.254,1.174-0.365,1.934,0.418,2.762c0.798,0.845,1.969,0.837,3.317,0.827
							c1.449-0.009,3.092-0.022,4.288,1.219c1.198,1.241,1.265,2.621,1.327,3.835c0.051,1.053,0.1,2.045,0.844,3.118
							c0.56,0.808,1.449,0.809,2.967,0.757c1.56-0.059,3.506-0.127,4.947,1.478c1.401,1.558,1.296,3.028,1.221,4.102
							c-0.069,1.01-0.115,1.618,0.777,2.498c1.096,1.079,1.84,0.993,2.962,0.863c0.984-0.115,2.207-0.257,3.545,0.544
							c2.282,1.374,2.818,4.502,2.941,5.751l14.924,13.701L-188.257-189.692z"/>
					</g>
					<g>
						<path fill="#171D1E" d="M-172.867-193.381l-5.549-5.015c-2.403-2.172-5.885-2.386-8.501-0.749
							c-0.129-1.119-0.641-2.196-1.541-3.009l-3.747-3.384c-1.957-1.773-4.985-1.62-6.755,0.338l-4.591,5.077
							c-1.77,1.959-1.618,4.982,0.341,6.756l3.746,3.387c0.898,0.814,2.021,1.215,3.144,1.23c-1.368,2.768-0.804,6.216,1.6,8.389
							l5.549,5.015c2.901,2.625,7.382,2.399,10.009-0.501l6.796-7.522C-169.738-186.275-169.963-190.758-172.867-193.381z"/>
					</g>
				</g>
				<g>
					<g>
						<path fill="#2D3031" d="M-96.166-116.926l0.095-1.085c-0.166-1.142-1.161-2.978-4.287-7.201
							c-4.296-5.806-6.451-6.525-8.13-4.217c-1.681,2.307,0.813,8.749,1.129,12.998c0.316,4.247,0.655,7.294-2.973,12.446
							c-3.628,5.147-7.116,4.923-9.489,5.509c-2.375,0.583-1.639,3.921-4.929,17.471c-3.291,13.552-8.579,21.149-12.046,25.074
							c-3.467,3.929,0.805,10.935,1.615,12.498c0,0,14.929-21.678,19.643-32.834c4.714-11.156,7.288-19.875,8.585-25.503
							C-105.659-107.4-103.502-116.546-96.166-116.926z"/>
						<g>
							<path fill="#2D3031" d="M-153.117-68.297c1.006,0.123,2.468-2.221,4.926-6.763c2.455-4.545,10.349-17.06,11.705-21.432
								c1.355-4.37-1.639-7.278-3.217-8.792c-1.574-1.512-14.312-12.613-17.222-14.973c-2.906-2.359-5.475,1.001-5.475,1.001
								l-2.479,4.407l12.067,8.177c0,0-1.239,1.536-0.102,2.483c1.136,0.949,3.355,4.755,0.906,8.451
								c-2.445,3.697-14.205,15.834-14.524,16.94c-0.32,1.11,9.967,8.718,9.967,8.718l2.452-0.528
								C-154.116-70.608-154.122-68.422-153.117-68.297z"/>
						</g>
					</g>
				</g>
			</g>
		</g>
	</g>
	<path fill="#E4BFB2" d="M-119.795-104.923c-3.057,1.343-4.444,4.913-3.1,7.966l8.163,18.568c1.344,3.058,4.911,4.444,7.967,3.102
		l0,0c3.057-1.344,4.445-4.912,3.104-7.966l-8.164-18.566C-113.17-104.877-116.736-106.266-119.795-104.923L-119.795-104.923z"/>
	<path fill="#E4BFB2" d="M-131.677-112.194c-2.205,2.509-0.168,8.082,2.34,10.285l7.604,6.643c2.508,2.202,6.328,1.954,8.532-0.553
		l0,0c2.204-2.509,1.956-6.33-0.554-8.533l-9.391-8.393C-125.655-114.95-129.475-114.701-131.677-112.194L-131.677-112.194z"/>
	<path fill="#E4BFB2" d="M-163.538-93.275c-0.665,2.999,1.234,5.966,4.232,6.628l11.293,2.596c2.999,0.661,5.967-1.233,6.627-4.236
		l0,0c0.663-2.998-1.235-5.963-4.232-6.627l-11.294-2.596C-159.909-98.172-162.877-96.277-163.538-93.275L-163.538-93.275z"/>
	<path fill="#E4BFB2" d="M-167.387-70.318c-0.828,2.959,0.901,6.026,3.86,6.851l11.132,3.217c2.958,0.825,6.025-0.903,6.853-3.864
		l0,0c0.825-2.959-0.905-6.025-3.863-6.85l-11.132-3.215C-163.494-75.005-166.563-73.278-167.387-70.318L-167.387-70.318z"/>
	<path fill="#E4BFB2" d="M-167.318-59.274c-0.651,2.33,0.711,4.746,3.041,5.395l8.769,2.533c2.33,0.649,4.744-0.71,5.396-3.041l0,0
		c0.648-2.332-0.712-4.746-3.041-5.394l-8.769-2.533C-164.251-62.967-166.669-61.604-167.318-59.274L-167.318-59.274z"/>
	<path fill="#E4BFB2" d="M-167.654-82.245c-0.65,3.003,1.258,5.963,4.26,6.61l14.44,3.655c3,0.648,5.962-1.257,6.609-4.262l0,0
		c0.649-3.001-1.259-5.96-4.261-6.61l-14.439-3.653C-164.044-87.155-167.005-85.248-167.654-82.245L-167.654-82.245z"/>
	<g>
		<path fill="#2D3031" d="M-156.636-172.359c-1.936,1.97-2.104,4.947-0.373,6.652l36.648,36.041
			c1.732,1.703,4.707,1.485,6.645-0.484l0.554-0.565c1.939-1.971,2.106-4.949,0.375-6.65l-36.648-36.042
			c-1.733-1.704-4.708-1.486-6.644,0.483L-156.636-172.359z"/>
		<path fill="#2D3031" d="M-145.381-142.965c-1.016,1.031-1.105,2.592-0.196,3.485l19.217,18.898
			c0.907,0.893,2.467,0.779,3.483-0.253l0.292-0.296c1.015-1.033,1.104-2.595,0.195-3.488l-19.216-18.897
			c-0.909-0.893-2.466-0.779-3.484,0.254L-145.381-142.965z"/>
	</g>
	<g>
		
			<rect x="167.65" y="200.019" fill="none" stroke="#000000" stroke-width="2.4123" stroke-miterlimit="10" width="24.635" height="25.252"/>
		
			<rect x="185.819" y="211.414" fill="none" stroke="#000000" stroke-width="2.4123" stroke-miterlimit="10" width="8.93" height="2.462"/>
	</g>
</g>
</svg>
