<?xml version="1.0" encoding="utf-8"?>
<!-- Generator: Adobe Illustrator 16.0.0, SVG Export Plug-In . SVG Version: 6.00 Build 0)  -->
<!DOCTYPE svg PUBLIC "-//W3C//DTD SVG 1.1//EN" "http://www.w3.org/Graphics/SVG/1.1/DTD/svg11.dtd">
<svg version="1.1" id="Layer_1" xmlns="http://www.w3.org/2000/svg" xmlns:xlink="http://www.w3.org/1999/xlink" x="0px" y="0px"
	 width="297px" height="653.565px" viewBox="0 0 297 653.565" enable-background="new 0 0 297 653.565" xml:space="preserve">
<g>
	<rect x="-0.901" fill="#C69E69" width="297" height="303"/>
	<g>
		<g>
			<g>
				<rect x="18.801" y="19.035" fill="#BBE2F8" width="256.237" height="264.398"/>
			</g>
			<g>
				<g>
					<polygon fill="#DBF1F9" points="275.038,19.035 275.038,32.158 18.801,176.854 18.801,138.304 230.023,19.035 					"/>
				</g>
				<g>
					<polygon fill="#DBF1F9" points="275.038,113.972 275.038,191.057 111.429,283.434 18.801,283.434 18.801,258.67 					"/>
				</g>
			</g>
		</g>
	</g>
</g>
<g>
	<g>
		<polygon fill="#FFFFFF" points="222.008,327.377 222.032,329.287 213.639,329.221 211.767,331.12 210.496,329.944 
			213.002,327.387 		"/>
		<path fill="#FFFFFF" d="M219.983,332.251c0-0.977-0.384-2.063-1.363-2.063h-2.417c-0.979,0-1.504,1.085-1.504,2.063v1.226
			c0,0.978,0.525,1.996,1.504,1.996h2.417c0.979,0,1.363-1.019,1.363-1.996V332.251z"/>
		<rect x="216.813" y="329.132" fill="#FFFFFF" width="1.057" height="2.113"/>
		<path fill="#78BA93" d="M225.268,336.838c0-1.435-0.811-3.479-2.446-3.479h-9.862c-1.634,0-2.486,2.045-2.486,3.479v17.313
			c0,1.435,0.853,3.513,2.486,3.513h9.862c1.637,0,2.446-2.078,2.446-3.513V336.838z"/>
	</g>
	<polygon fill="#C69E69" points="149.372,413.675 36.103,413.675 36.103,621.861 149.372,621.861 263.312,621.861 263.312,413.675 	
		"/>
	<g>
		<g>
			<g>
				<defs>
					<rect id="SVGID_1_" x="148.237" y="411.554" width="2.396" height="210.312"/>
				</defs>
				<clipPath id="SVGID_2_">
					<use xlink:href="#SVGID_1_"  overflow="visible"/>
				</clipPath>
				<rect x="148.237" y="411.554" clip-path="url(#SVGID_2_)" fill="#C1986B" width="2.396" height="210.312"/>
			</g>
		</g>
	</g>
	<rect x="163.974" y="430.583" fill="#A7A9AC" width="35.931" height="7.397"/>
	<rect x="97.396" y="430.583" fill="#A7A9AC" width="34.874" height="7.397"/>
	<rect x="36.103" y="385.142" fill="#C69E69" width="227.209" height="31.703"/>
	<path fill="#FFFFFF" d="M34.197,355.551c0,30.647,51.28,52.16,114.538,52.16c63.257,0,114.537-21.513,114.537-52.16H34.197z"/>
	<g>
		<g>
			<g>
				<defs>
					<rect id="SVGID_3_" x="36.196" y="414.491" width="226.677" height="2.395"/>
				</defs>
				<clipPath id="SVGID_4_">
					<use xlink:href="#SVGID_3_"  overflow="visible"/>
				</clipPath>
				<rect x="36.196" y="414.491" clip-path="url(#SVGID_4_)" fill="#C1986B" width="226.677" height="2.395"/>
			</g>
		</g>
	</g>
	<g>
		<path fill="#6D6E71" d="M161.561,355.91l-2.729-19.28c0-3.959-1.979-7.518-3.368-8.703v10.287c0,4.359-3.562,8.116-7.918,8.116
			h-0.989c-3.761-0.783-6.734-3.959-6.734-7.914v-9.899c-2.177,1.982-3.562,4.156-3.562,7.719l-4.159,19.994h29.456
			C161.564,356.125,161.554,356.014,161.561,355.91z"/>
		<path fill="#6D6E71" d="M147.743,342.371c2.18,0,3.963-1.777,3.963-3.957v-11.282v-3.959c0-2.976-1.981-4.558-3.963-4.558
			c-2.57,0-3.959,2.369-3.959,4.364v3.556v11.878C143.784,340.594,145.567,342.371,147.743,342.371z"/>
	</g>
	<rect x="36.103" y="621.861" fill="#6D6E71" width="10.568" height="31.704"/>
	<rect x="252.744" y="621.861" fill="#6D6E71" width="10.567" height="31.704"/>
</g>
</svg>
